%
M48
M72
T01C0.0236
T02C0.0320
T03C0.0354
T04C0.0400
T05C0.0440
T06C0.0470
T07C0.1280
T08C0.1300
%
T01
X9603Y20548
T02
X10103Y23048
X11353Y23048
X12853Y23048
X12853Y22448
X12853Y21648
X14353Y23148
X14353Y23948
X15603Y23048
X15603Y27048
X15853Y29048
X13353Y28548
X13353Y29548
X12853Y27048
X11353Y27048
X10103Y27048
X9353Y28548
X9353Y29548
X8853Y26548
X4853Y26548
X19853Y29048
X20853Y29548
X20853Y28048
X20853Y26048
X24853Y26048
X24853Y28048
X24853Y29548
T03
X7353Y29298
X7353Y30298
X7353Y31298
X7353Y32298
X6353Y31798
X6353Y32798
X6353Y30798
X6353Y29798
T04
X1853Y4048
X1853Y5048
X1853Y6048
X1853Y7048
X1853Y9048
X2853Y9048
X3853Y9048
X4853Y7048
X4853Y6048
X4853Y5048
X4853Y4048
X6863Y12608
X7403Y13728
X7953Y12608
X8493Y13728
X9033Y12608
X9583Y13728
X10123Y12608
X10663Y13728
X11213Y12608
X11753Y13728
X12293Y12608
X12843Y13728
X13383Y12608
X13933Y13728
X14473Y12608
X15013Y13728
X15563Y12608
X16103Y13728
X16643Y12608
X17193Y13728
X17733Y12608
X18273Y13728
X18823Y12608
X19363Y13728
X19903Y12608
X20453Y13728
X20993Y12608
X21533Y13728
X22083Y12608
X22623Y13728
X23163Y12608
X23713Y13728
X24253Y12608
X24793Y13728
X25343Y12608
X25883Y13728
X26853Y16548
X27853Y16548
X28853Y16548
X28853Y18548
X27853Y18548
X26853Y18548
X26853Y20548
X27853Y20548
X28853Y20548
X18013Y31548
X17473Y32548
X16933Y31548
X16393Y32548
X15853Y31548
X15313Y32548
X14773Y31548
X14233Y32548
X13693Y31548
X4353Y20548
X4353Y19548
X4353Y18548
X4353Y17548
X1853Y17548
X1853Y18548
X1853Y19548
X1853Y20548
X2853Y24548
X3853Y24548
X3853Y26548
X2853Y26548
X6323Y13728
X13373Y4358
X12833Y3238
X13923Y3238
X14463Y4358
X15553Y4358
X16093Y3238
X15003Y3238
X16633Y4358
X17723Y4358
X18263Y3238
X17183Y3238
X18813Y4358
X19353Y3238
X20443Y3238
X20983Y4358
X19893Y4358
X21523Y3238
X22613Y3238
X23153Y4358
X22073Y4358
X23703Y3238
X24243Y4358
X25333Y4358
X25873Y3238
X24783Y3238
T05
X17353Y22048
X17353Y23048
X17353Y24048
T06
X27353Y23127
X27353Y25095
X27353Y27064
X27353Y29032
X27353Y31001
X27353Y32969
T07
X3853Y33298
X3853Y28798
T08
X10923Y32048
X20783Y32048
X23253Y23048
X28603Y13168
X28613Y3798
X10093Y3798
X3603Y13168
M30
