G75*
G70*
%OFA0B0*%
%FSLAX24Y24*%
%IPPOS*%
%LPD*%
%AMOC8*
5,1,8,0,0,1.08239X$1,22.5*
%
%ADD10OC8,0.0680*%
%ADD11C,0.1380*%
%ADD12C,0.2080*%
%ADD13C,0.0680*%
%ADD14C,0.0785*%
%ADD15C,0.0634*%
%ADD16C,0.1360*%
%ADD17OC8,0.0600*%
%ADD18C,0.0740*%
%ADD19C,0.0600*%
%ADD20C,0.0476*%
D10*
X006863Y012608D03*
X007403Y013728D03*
X007953Y012608D03*
X008493Y013728D03*
X009033Y012608D03*
X009583Y013728D03*
X010123Y012608D03*
X010663Y013728D03*
X011213Y012608D03*
X011753Y013728D03*
X012293Y012608D03*
X012843Y013728D03*
X013383Y012608D03*
X013933Y013728D03*
X014473Y012608D03*
X015013Y013728D03*
X015563Y012608D03*
X016103Y013728D03*
X016643Y012608D03*
X017193Y013728D03*
X017733Y012608D03*
X018273Y013728D03*
X018823Y012608D03*
X019363Y013728D03*
X019903Y012608D03*
X020453Y013728D03*
X020993Y012608D03*
X021533Y013728D03*
X022083Y012608D03*
X022623Y013728D03*
X023163Y012608D03*
X023713Y013728D03*
X024253Y012608D03*
X024793Y013728D03*
X025343Y012608D03*
X025883Y013728D03*
X025333Y004358D03*
X024243Y004358D03*
X024783Y003238D03*
X025873Y003238D03*
X023703Y003238D03*
X023153Y004358D03*
X022073Y004358D03*
X022613Y003238D03*
X021523Y003238D03*
X020983Y004358D03*
X019893Y004358D03*
X019353Y003238D03*
X020443Y003238D03*
X018813Y004358D03*
X018263Y003238D03*
X017183Y003238D03*
X017723Y004358D03*
X016633Y004358D03*
X016093Y003238D03*
X015003Y003238D03*
X014463Y004358D03*
X015553Y004358D03*
X013923Y003238D03*
X013373Y004358D03*
X012833Y003238D03*
X006323Y013728D03*
X013693Y031548D03*
X014233Y032548D03*
X014773Y031548D03*
X015313Y032548D03*
X015853Y031548D03*
X016393Y032548D03*
X016933Y031548D03*
X017473Y032548D03*
X018013Y031548D03*
D11*
X020783Y032048D03*
X023253Y023048D03*
X010923Y032048D03*
X010093Y003798D03*
X028613Y003798D03*
D12*
X028603Y013168D03*
X003603Y013168D03*
D13*
X002153Y004048D02*
X001553Y004048D01*
X001553Y005048D02*
X002153Y005048D01*
X002153Y006048D02*
X001553Y006048D01*
X001553Y007048D02*
X002153Y007048D01*
X001853Y008748D02*
X001853Y009348D01*
X002853Y009348D02*
X002853Y008748D01*
X003853Y008748D02*
X003853Y009348D01*
X004553Y007048D02*
X005153Y007048D01*
X005153Y006048D02*
X004553Y006048D01*
X004553Y005048D02*
X005153Y005048D01*
X005153Y004048D02*
X004553Y004048D01*
X004653Y017548D02*
X004053Y017548D01*
X004053Y018548D02*
X004653Y018548D01*
X004653Y019548D02*
X004053Y019548D01*
X004053Y020548D02*
X004653Y020548D01*
X002153Y020548D02*
X001553Y020548D01*
X001553Y019548D02*
X002153Y019548D01*
X002153Y018548D02*
X001553Y018548D01*
X001553Y017548D02*
X002153Y017548D01*
X002853Y024248D02*
X002853Y024848D01*
X003853Y024848D02*
X003853Y024248D01*
X003853Y026248D02*
X003853Y026848D01*
X002853Y026848D02*
X002853Y026248D01*
X026853Y020848D02*
X026853Y020248D01*
X026853Y018848D02*
X026853Y018248D01*
X027853Y018248D02*
X027853Y018848D01*
X028853Y018848D02*
X028853Y018248D01*
X028853Y016848D02*
X028853Y016248D01*
X027853Y016248D02*
X027853Y016848D01*
X026853Y016848D02*
X026853Y016248D01*
X027853Y020248D02*
X027853Y020848D01*
X028853Y020848D02*
X028853Y020248D01*
D14*
X027705Y023127D02*
X027000Y023127D01*
X027000Y025095D02*
X027705Y025095D01*
X027705Y027064D02*
X027000Y027064D01*
X027000Y029032D02*
X027705Y029032D01*
X027705Y031001D02*
X027000Y031001D01*
X027000Y032969D02*
X027705Y032969D01*
D15*
X007353Y032298D03*
X007353Y031298D03*
X007353Y030298D03*
X007353Y029298D03*
X006353Y029798D03*
X006353Y030798D03*
X006353Y031798D03*
X006353Y032798D03*
D16*
X003853Y033298D03*
X003853Y028798D03*
D17*
X004853Y026548D03*
X008853Y026548D03*
X010103Y027048D03*
X011353Y027048D03*
X012853Y027048D03*
X013353Y028548D03*
X013353Y029548D03*
X015853Y029048D03*
X015603Y027048D03*
X015603Y023048D03*
X014353Y023148D03*
X012853Y023048D03*
X012853Y022448D03*
X011353Y023048D03*
X010103Y023048D03*
X009353Y028548D03*
X009353Y029548D03*
X019853Y029048D03*
X020853Y029548D03*
X020853Y028048D03*
X020853Y026048D03*
X024853Y026048D03*
X024853Y028048D03*
X024853Y029548D03*
D18*
X017683Y024048D02*
X017023Y024048D01*
X017023Y023048D02*
X017683Y023048D01*
X017683Y022048D02*
X017023Y022048D01*
D19*
X014353Y023948D03*
X012853Y021648D03*
D20*
X009603Y020548D03*
M02*
