M48
INCH
T11C0.020
T14C0.060
T22C0.038
T23C0.028
T24C0.130
T25C0.030
T26C0.015
T27C0.042
T28C0.035
%
T26
X032000Y033968
X032000Y032000
X003500Y030500
X003500Y032468
X003500Y035000
X003500Y036968
X003500Y040000
X003500Y041968
X003500Y044968
X003500Y046937
T11
X030000Y026968
X030000Y031968
T23
X022500Y032468
X021500Y032468
X020500Y032468
X019500Y032468
X019500Y029468
X020500Y029468
X021500Y029468
X022500Y029468
X018500Y032468
X018500Y029468
X017500Y032468
X017500Y029468
X016500Y032468
X016500Y029468
X010500Y039968
X011000Y046968
X011000Y045968
X011000Y044968
X010500Y040968
X010500Y041968
X014000Y044968
X014000Y045968
X014000Y046968
X007500Y041968
X007500Y040968
X007500Y039968
T25
X026500Y034968
X026500Y033968
X032000Y037968
X032000Y036968
X013000Y043468
X008000Y043468
X006000Y044968
X006000Y039968
T28
X025000Y035968
X031000Y035968
T22
X025160Y047468
X025160Y046468
X025160Y045468
X025160Y044468
X025160Y043468
X025160Y042468
X025160Y041468
X027000Y041668
X025160Y040468
X025160Y039468
X025160Y038468
X027000Y037668
X029000Y037968
X029000Y033968
X014500Y029468
X014500Y033468
X010500Y030468
X019500Y034468
X015500Y034468
X013500Y037968
X009500Y037968
X012000Y035968
X016500Y047468
X016500Y046468
X016500Y045468
X016500Y044468
X016500Y043468
X016500Y042468
X016500Y041468
X016500Y040468
X016500Y039468
X016500Y038468
X003000Y026468
X003000Y027968
X004000Y027968
X007000Y026468
X006500Y030468
X008000Y035968
X009500Y046968
X005500Y046968
T27
X013500Y035968
X014500Y035968
X015500Y035968
X006500Y034968
X006500Y035968
X006500Y036968
T14
X029500Y039768
X030500Y039768
X031500Y039768
T24
X030500Y046468
M30
