G04 start of page 3 for group 1 idx 1 *
G04 Title: (unknown), solder *
G04 Creator: pcb 20110918 *
G04 CreationDate: Fri 08 Jun 2012 08:05:57 PM GMT UTC *
G04 For: ed *
G04 Format: Gerber/RS-274X *
G04 PCB-Dimensions: 260000 400000 *
G04 PCB-Coordinate-Origin: lower left *
%MOIN*%
%FSLAX25Y25*%
%LNBOTTOM*%
%ADD52C,0.1300*%
%ADD51C,0.0420*%
%ADD50C,0.0380*%
%ADD49C,0.0280*%
%ADD48C,0.0150*%
%ADD47C,0.0300*%
%ADD46C,0.0200*%
%ADD45C,0.2600*%
%ADD44C,0.1000*%
%ADD43C,0.2640*%
%ADD42C,0.2000*%
%ADD41C,0.1500*%
%ADD40C,0.0720*%
%ADD39C,0.0680*%
%ADD38C,0.0550*%
%ADD37C,0.0900*%
%ADD36C,0.0800*%
%ADD35C,0.0600*%
%ADD34C,0.0100*%
%ADD33C,0.0250*%
%ADD32C,0.0001*%
G54D32*G36*
X109993Y235507D02*X112330Y235512D01*
X111166Y234348D01*
X110706Y234458D01*
X110000Y234514D01*
X109993Y234513D01*
Y235507D01*
G37*
G36*
X139993Y195487D02*X140000Y195486D01*
X140706Y195542D01*
X141395Y195707D01*
X142049Y195978D01*
X142653Y196348D01*
X143192Y196808D01*
X143652Y197347D01*
X143899Y197750D01*
X144068D01*
X145250Y196568D01*
Y131250D01*
X139993D01*
Y175487D01*
X140000Y175486D01*
X140706Y175542D01*
X141395Y175707D01*
X142049Y175978D01*
X142653Y176348D01*
X143192Y176808D01*
X143652Y177347D01*
X144022Y177951D01*
X144293Y178605D01*
X144458Y179294D01*
X144500Y180000D01*
X144458Y180706D01*
X144293Y181395D01*
X144022Y182049D01*
X143652Y182653D01*
X143192Y183192D01*
X142653Y183652D01*
X142049Y184022D01*
X141395Y184293D01*
X140706Y184458D01*
X140000Y184514D01*
X139993Y184513D01*
Y185487D01*
X140000Y185486D01*
X140706Y185542D01*
X141395Y185707D01*
X142049Y185978D01*
X142653Y186348D01*
X143192Y186808D01*
X143652Y187347D01*
X144022Y187951D01*
X144293Y188605D01*
X144458Y189294D01*
X144500Y190000D01*
X144458Y190706D01*
X144293Y191395D01*
X144022Y192049D01*
X143652Y192653D01*
X143192Y193192D01*
X142653Y193652D01*
X142049Y194022D01*
X141395Y194293D01*
X140706Y194458D01*
X140000Y194514D01*
X139993Y194513D01*
Y195487D01*
G37*
G36*
Y334311D02*X155932Y350250D01*
X172496D01*
X172578Y350051D01*
X172948Y349447D01*
X173408Y348908D01*
X173947Y348448D01*
X174433Y348150D01*
X173947Y347852D01*
X173408Y347392D01*
X172948Y346853D01*
X172578Y346249D01*
X172307Y345595D01*
X172142Y344906D01*
X172086Y344200D01*
X172142Y343494D01*
X172307Y342805D01*
X172578Y342151D01*
X172948Y341547D01*
X173408Y341008D01*
X173947Y340548D01*
X174433Y340250D01*
X173947Y339952D01*
X173408Y339492D01*
X172948Y338953D01*
X172578Y338349D01*
X172307Y337695D01*
X172142Y337006D01*
X172086Y336300D01*
X172142Y335594D01*
X172307Y334905D01*
X172578Y334251D01*
X172948Y333647D01*
X173408Y333108D01*
X173947Y332648D01*
X174433Y332350D01*
X173947Y332052D01*
X173408Y331592D01*
X172948Y331053D01*
X172578Y330449D01*
X172307Y329795D01*
X172142Y329106D01*
X172086Y328400D01*
X172142Y327694D01*
X172307Y327005D01*
X172578Y326351D01*
X172948Y325747D01*
X173408Y325208D01*
X173947Y324748D01*
X174433Y324450D01*
X173947Y324152D01*
X173408Y323692D01*
X172948Y323153D01*
X172578Y322549D01*
X172307Y321895D01*
X172142Y321206D01*
X172086Y320500D01*
X172142Y319794D01*
X172307Y319105D01*
X172578Y318451D01*
X172948Y317847D01*
X173408Y317308D01*
X173947Y316848D01*
X174433Y316550D01*
X173947Y316252D01*
X173408Y315792D01*
X172948Y315253D01*
X172578Y314649D01*
X172307Y313995D01*
X172142Y313306D01*
X172086Y312600D01*
X172142Y311894D01*
X172307Y311205D01*
X172578Y310551D01*
X172948Y309947D01*
X173408Y309408D01*
X173947Y308948D01*
X174433Y308650D01*
X173947Y308352D01*
X173408Y307892D01*
X172948Y307353D01*
X172578Y306749D01*
X172307Y306095D01*
X172142Y305406D01*
X172086Y304700D01*
X172142Y303994D01*
X172252Y303534D01*
X139993Y271275D01*
Y334311D01*
G37*
G36*
Y131250D02*X121986D01*
Y138973D01*
X122000Y138972D01*
X123412Y139083D01*
X124790Y139414D01*
X126099Y139956D01*
X127306Y140696D01*
X128384Y141616D01*
X129304Y142694D01*
X130044Y143901D01*
X130586Y145210D01*
X130917Y146588D01*
X131000Y148000D01*
X130917Y149412D01*
X130586Y150790D01*
X130044Y152099D01*
X129304Y153306D01*
X128384Y154384D01*
X127306Y155304D01*
X126099Y156044D01*
X124790Y156586D01*
X123412Y156917D01*
X122000Y157028D01*
X121986Y157027D01*
Y187750D01*
X136101D01*
X136348Y187347D01*
X136808Y186808D01*
X137347Y186348D01*
X137951Y185978D01*
X138605Y185707D01*
X139294Y185542D01*
X139993Y185487D01*
Y184513D01*
X139294Y184458D01*
X138605Y184293D01*
X137951Y184022D01*
X137347Y183652D01*
X136808Y183192D01*
X136348Y182653D01*
X135978Y182049D01*
X135707Y181395D01*
X135542Y180706D01*
X135486Y180000D01*
X135542Y179294D01*
X135707Y178605D01*
X135978Y177951D01*
X136348Y177347D01*
X136808Y176808D01*
X137347Y176348D01*
X137951Y175978D01*
X138605Y175707D01*
X139294Y175542D01*
X139993Y175487D01*
Y131250D01*
G37*
G36*
X121986D02*X120061D01*
X119945Y131256D01*
X119730Y131234D01*
X119647Y131229D01*
X119620Y131223D01*
X119593Y131220D01*
X119448Y131181D01*
X119303Y131146D01*
X119277Y131136D01*
X119250Y131129D01*
X119114Y131068D01*
X118975Y131011D01*
X118952Y130997D01*
X118927Y130985D01*
X118801Y130904D01*
X118673Y130826D01*
X118652Y130808D01*
X118629Y130793D01*
X118569Y130736D01*
X118404Y130596D01*
X118329Y130508D01*
X109993Y121755D01*
Y175487D01*
X110000Y175486D01*
X110706Y175542D01*
X111395Y175707D01*
X112049Y175978D01*
X112653Y176348D01*
X113192Y176808D01*
X113652Y177347D01*
X114022Y177951D01*
X114293Y178605D01*
X114458Y179294D01*
X114500Y180000D01*
X114458Y180706D01*
X114293Y181395D01*
X114022Y182049D01*
X113652Y182653D01*
X113192Y183192D01*
X112653Y183652D01*
X112049Y184022D01*
X111395Y184293D01*
X110706Y184458D01*
X110000Y184514D01*
X109993Y184513D01*
Y185487D01*
X110000Y185486D01*
X110706Y185542D01*
X111395Y185707D01*
X112049Y185978D01*
X112653Y186348D01*
X113192Y186808D01*
X113652Y187347D01*
X113899Y187750D01*
X121986D01*
Y157027D01*
X120588Y156917D01*
X119210Y156586D01*
X117901Y156044D01*
X116694Y155304D01*
X115616Y154384D01*
X114696Y153306D01*
X113956Y152099D01*
X113414Y150790D01*
X113083Y149412D01*
X112972Y148000D01*
X113083Y146588D01*
X113414Y145210D01*
X113956Y143901D01*
X114696Y142694D01*
X115616Y141616D01*
X116694Y140696D01*
X117901Y139956D01*
X119210Y139414D01*
X120588Y139083D01*
X121986Y138973D01*
Y131250D01*
G37*
G36*
X136101Y192250D02*X113899D01*
X113652Y192653D01*
X113192Y193192D01*
X112653Y193652D01*
X112049Y194022D01*
X111395Y194293D01*
X110706Y194458D01*
X110000Y194514D01*
X109993Y194513D01*
Y195487D01*
X110000Y195486D01*
X110706Y195542D01*
X111395Y195707D01*
X112049Y195978D01*
X112653Y196348D01*
X113192Y196808D01*
X113652Y197347D01*
X114022Y197951D01*
X114293Y198605D01*
X114458Y199294D01*
X114500Y200000D01*
X114458Y200706D01*
X114348Y201166D01*
X126779Y213597D01*
X126846Y213654D01*
X127076Y213923D01*
X127076Y213923D01*
X127261Y214225D01*
X127396Y214553D01*
X127479Y214897D01*
X127507Y215250D01*
X127500Y215338D01*
Y321818D01*
X139993Y334311D01*
Y271275D01*
X130909Y262191D01*
X130674Y261927D01*
X130489Y261625D01*
X130354Y261297D01*
X130271Y260953D01*
X130243Y260600D01*
X130267Y260292D01*
X130250Y260000D01*
Y207588D01*
X130243Y207500D01*
X130271Y207147D01*
Y207147D01*
X130354Y206803D01*
X130489Y206475D01*
X130559Y206361D01*
X130674Y206173D01*
X130674Y206173D01*
X130904Y205904D01*
X130971Y205847D01*
X135652Y201166D01*
X135542Y200706D01*
X135486Y200000D01*
X135542Y199294D01*
X135707Y198605D01*
X135978Y197951D01*
X136348Y197347D01*
X136808Y196808D01*
X137347Y196348D01*
X137951Y195978D01*
X138605Y195707D01*
X139294Y195542D01*
X139993Y195487D01*
Y194513D01*
X139294Y194458D01*
X138605Y194293D01*
X137951Y194022D01*
X137347Y193652D01*
X136808Y193192D01*
X136348Y192653D01*
X136101Y192250D01*
G37*
G36*
X109993Y205487D02*X110000Y205486D01*
X110706Y205542D01*
X111395Y205707D01*
X112049Y205978D01*
X112653Y206348D01*
X113192Y206808D01*
X113652Y207347D01*
X114022Y207951D01*
X114293Y208605D01*
X114458Y209294D01*
X114500Y210000D01*
X114458Y210706D01*
X114293Y211395D01*
X114022Y212049D01*
X113652Y212653D01*
X113192Y213192D01*
X112653Y213652D01*
X112250Y213899D01*
Y216101D01*
X112653Y216348D01*
X113192Y216808D01*
X113652Y217347D01*
X114022Y217951D01*
X114293Y218605D01*
X114458Y219294D01*
X114500Y220000D01*
X114458Y220706D01*
X114293Y221395D01*
X114022Y222049D01*
X113652Y222653D01*
X113192Y223192D01*
X112653Y223652D01*
X112049Y224022D01*
X111395Y224293D01*
X110706Y224458D01*
X110000Y224514D01*
X109993Y224513D01*
Y225487D01*
X110000Y225486D01*
X110706Y225542D01*
X111395Y225707D01*
X112049Y225978D01*
X112653Y226348D01*
X113192Y226808D01*
X113652Y227347D01*
X114022Y227951D01*
X114293Y228605D01*
X114458Y229294D01*
X114500Y230000D01*
X114458Y230706D01*
X114348Y231166D01*
X121529Y238347D01*
X121596Y238404D01*
X121826Y238673D01*
X121826Y238673D01*
X122011Y238975D01*
X122146Y239303D01*
X122229Y239647D01*
X122257Y240000D01*
X122250Y240088D01*
Y321568D01*
X123000Y322318D01*
Y216182D01*
X111166Y204348D01*
X110706Y204458D01*
X110000Y204514D01*
X109993Y204513D01*
Y205487D01*
G37*
G36*
X220983Y97008D02*X224735Y97014D01*
X224862Y97044D01*
X220983Y93165D01*
Y97008D01*
G37*
G36*
Y118835D02*X230868Y108950D01*
X230000Y109019D01*
X229058Y108944D01*
X228140Y108724D01*
X227268Y108363D01*
X226462Y107869D01*
X225987Y107463D01*
X225986Y107735D01*
X225931Y107965D01*
X225841Y108183D01*
X225717Y108384D01*
X225564Y108564D01*
X225384Y108717D01*
X225183Y108841D01*
X224965Y108931D01*
X224735Y108986D01*
X224500Y109000D01*
X220983Y108995D01*
Y118835D01*
G37*
G36*
X237613Y97494D02*X238140Y97276D01*
X239058Y97056D01*
X240000Y96981D01*
X240942Y97056D01*
X241750Y97250D01*
Y86488D01*
X240765Y86486D01*
X240535Y86431D01*
X240317Y86341D01*
X240116Y86217D01*
X239936Y86064D01*
X239783Y85884D01*
X239659Y85683D01*
X239569Y85465D01*
X239514Y85235D01*
X239500Y85000D01*
X239514Y78765D01*
X239569Y78535D01*
X239659Y78317D01*
X239783Y78116D01*
X239936Y77936D01*
X240116Y77783D01*
X240317Y77659D01*
X240535Y77569D01*
X240765Y77514D01*
X241000Y77500D01*
X241750Y77502D01*
Y68021D01*
X241495Y67916D01*
X240757Y67463D01*
X240099Y66901D01*
X239537Y66243D01*
X239084Y65505D01*
X238753Y64705D01*
X238551Y63863D01*
X238483Y63000D01*
X238551Y62137D01*
X238753Y61295D01*
X239084Y60495D01*
X239537Y59757D01*
X240099Y59099D01*
X240757Y58537D01*
X241495Y58084D01*
X241750Y57979D01*
Y34932D01*
X237613Y30795D01*
Y79853D01*
X237656Y79860D01*
X237768Y79897D01*
X237873Y79952D01*
X237968Y80022D01*
X238051Y80106D01*
X238119Y80202D01*
X238170Y80308D01*
X238318Y80716D01*
X238422Y81137D01*
X238484Y81567D01*
X238505Y82000D01*
X238484Y82433D01*
X238422Y82863D01*
X238318Y83284D01*
X238175Y83694D01*
X238122Y83800D01*
X238053Y83896D01*
X237970Y83981D01*
X237875Y84051D01*
X237769Y84106D01*
X237657Y84143D01*
X237613Y84151D01*
Y97494D01*
G37*
G36*
X234002Y98527D02*X234256Y98744D01*
X234869Y99462D01*
X235000Y99676D01*
X235131Y99462D01*
X235744Y98744D01*
X236462Y98131D01*
X237268Y97637D01*
X237613Y97494D01*
Y84151D01*
X237540Y84163D01*
X237421Y84164D01*
X237304Y84146D01*
X237191Y84110D01*
X237085Y84057D01*
X236988Y83988D01*
X236904Y83905D01*
X236833Y83809D01*
X236779Y83704D01*
X236741Y83592D01*
X236722Y83475D01*
X236721Y83356D01*
X236739Y83239D01*
X236777Y83126D01*
X236876Y82855D01*
X236944Y82575D01*
X236986Y82289D01*
X237000Y82000D01*
X236986Y81711D01*
X236944Y81425D01*
X236876Y81145D01*
X236780Y80872D01*
X236742Y80761D01*
X236725Y80644D01*
X236725Y80526D01*
X236745Y80409D01*
X236782Y80297D01*
X236836Y80193D01*
X236906Y80098D01*
X236991Y80015D01*
X237087Y79946D01*
X237192Y79893D01*
X237305Y79857D01*
X237421Y79840D01*
X237539Y79841D01*
X237613Y79853D01*
Y30795D01*
X234002Y27184D01*
Y77495D01*
X234433Y77516D01*
X234863Y77578D01*
X235284Y77682D01*
X235694Y77825D01*
X235800Y77878D01*
X235896Y77947D01*
X235981Y78030D01*
X236051Y78125D01*
X236106Y78231D01*
X236143Y78343D01*
X236163Y78460D01*
X236164Y78579D01*
X236146Y78696D01*
X236110Y78809D01*
X236057Y78915D01*
X235988Y79012D01*
X235905Y79096D01*
X235809Y79167D01*
X235704Y79221D01*
X235592Y79259D01*
X235475Y79278D01*
X235356Y79279D01*
X235239Y79261D01*
X235126Y79223D01*
X234855Y79124D01*
X234575Y79056D01*
X234289Y79014D01*
X234002Y79000D01*
Y85000D01*
X234289Y84986D01*
X234575Y84944D01*
X234855Y84876D01*
X235128Y84780D01*
X235239Y84742D01*
X235356Y84725D01*
X235474Y84725D01*
X235591Y84745D01*
X235703Y84782D01*
X235807Y84836D01*
X235902Y84906D01*
X235985Y84991D01*
X236054Y85087D01*
X236107Y85192D01*
X236143Y85305D01*
X236160Y85421D01*
X236159Y85539D01*
X236140Y85656D01*
X236103Y85768D01*
X236048Y85873D01*
X235978Y85968D01*
X235894Y86051D01*
X235798Y86119D01*
X235692Y86170D01*
X235284Y86318D01*
X234863Y86422D01*
X234433Y86484D01*
X234002Y86505D01*
Y98527D01*
G37*
G36*
X230387Y96205D02*X231331Y97149D01*
X231860Y97276D01*
X232732Y97637D01*
X233538Y98131D01*
X234002Y98527D01*
Y86505D01*
X234000Y86505D01*
X233567Y86484D01*
X233137Y86422D01*
X232716Y86318D01*
X232306Y86175D01*
X232200Y86122D01*
X232104Y86053D01*
X232019Y85970D01*
X231949Y85875D01*
X231894Y85769D01*
X231857Y85657D01*
X231837Y85540D01*
X231836Y85421D01*
X231854Y85304D01*
X231890Y85191D01*
X231943Y85085D01*
X232012Y84988D01*
X232095Y84904D01*
X232191Y84833D01*
X232296Y84779D01*
X232408Y84741D01*
X232525Y84722D01*
X232644Y84721D01*
X232761Y84739D01*
X232874Y84777D01*
X233145Y84876D01*
X233425Y84944D01*
X233711Y84986D01*
X234000Y85000D01*
X234002Y85000D01*
Y79000D01*
X234000Y79000D01*
X233711Y79014D01*
X233425Y79056D01*
X233145Y79124D01*
X232872Y79220D01*
X232761Y79258D01*
X232644Y79275D01*
X232526Y79275D01*
X232409Y79255D01*
X232297Y79218D01*
X232193Y79164D01*
X232098Y79094D01*
X232015Y79009D01*
X231946Y78913D01*
X231893Y78808D01*
X231857Y78695D01*
X231840Y78579D01*
X231841Y78461D01*
X231860Y78344D01*
X231897Y78232D01*
X231952Y78127D01*
X232022Y78032D01*
X232106Y77949D01*
X232202Y77881D01*
X232308Y77830D01*
X232716Y77682D01*
X233137Y77578D01*
X233567Y77516D01*
X234000Y77495D01*
X234002Y77495D01*
Y27184D01*
X230387Y23569D01*
Y36265D01*
X230831Y36991D01*
X231494Y38590D01*
X231898Y40274D01*
X232000Y42000D01*
X231898Y43726D01*
X231494Y45410D01*
X230831Y47009D01*
X230387Y47735D01*
Y79849D01*
X230460Y79837D01*
X230579Y79836D01*
X230696Y79854D01*
X230809Y79890D01*
X230915Y79943D01*
X231012Y80012D01*
X231096Y80095D01*
X231167Y80191D01*
X231221Y80296D01*
X231259Y80408D01*
X231278Y80525D01*
X231279Y80644D01*
X231261Y80761D01*
X231223Y80874D01*
X231124Y81145D01*
X231056Y81425D01*
X231014Y81711D01*
X231000Y82000D01*
X231014Y82289D01*
X231056Y82575D01*
X231124Y82855D01*
X231220Y83128D01*
X231258Y83239D01*
X231275Y83356D01*
X231275Y83474D01*
X231255Y83591D01*
X231218Y83703D01*
X231164Y83807D01*
X231094Y83902D01*
X231009Y83985D01*
X230913Y84054D01*
X230808Y84107D01*
X230695Y84143D01*
X230579Y84160D01*
X230461Y84159D01*
X230387Y84147D01*
Y96205D01*
G37*
G36*
Y23569D02*X221577Y14759D01*
X221550Y14770D01*
X220983Y14906D01*
Y30967D01*
X221000Y30966D01*
X222726Y31102D01*
X224410Y31506D01*
X226009Y32169D01*
X227486Y33073D01*
X228802Y34198D01*
X229927Y35514D01*
X230387Y36265D01*
Y23569D01*
G37*
G36*
X220983Y86801D02*X230387Y96205D01*
Y84147D01*
X230344Y84140D01*
X230232Y84103D01*
X230127Y84048D01*
X230032Y83978D01*
X229949Y83894D01*
X229881Y83798D01*
X229830Y83692D01*
X229682Y83284D01*
X229578Y82863D01*
X229516Y82433D01*
X229495Y82000D01*
X229516Y81567D01*
X229578Y81137D01*
X229682Y80716D01*
X229825Y80306D01*
X229878Y80200D01*
X229947Y80104D01*
X230030Y80019D01*
X230125Y79949D01*
X230231Y79894D01*
X230343Y79857D01*
X230387Y79849D01*
Y47735D01*
X229927Y48486D01*
X228802Y49802D01*
X227486Y50927D01*
X226009Y51831D01*
X224410Y52494D01*
X222726Y52898D01*
X221000Y53034D01*
X220983Y53033D01*
Y86801D01*
G37*
G36*
X239980Y400000D02*X260000D01*
Y0D01*
X239980D01*
Y26798D01*
X245529Y32347D01*
X245596Y32404D01*
X245826Y32673D01*
X245826Y32673D01*
X246011Y32975D01*
X246146Y33303D01*
X246229Y33647D01*
X246257Y34000D01*
X246250Y34088D01*
Y57979D01*
X246505Y58084D01*
X247243Y58537D01*
X247901Y59099D01*
X248463Y59757D01*
X248916Y60495D01*
X249247Y61295D01*
X249449Y62137D01*
X249500Y63000D01*
X249449Y63863D01*
X249247Y64705D01*
X248916Y65505D01*
X248463Y66243D01*
X247901Y66901D01*
X247243Y67463D01*
X246505Y67916D01*
X246250Y68021D01*
Y77512D01*
X247235Y77514D01*
X247465Y77569D01*
X247683Y77659D01*
X247884Y77783D01*
X248064Y77936D01*
X248217Y78116D01*
X248341Y78317D01*
X248431Y78535D01*
X248486Y78765D01*
X248500Y79000D01*
X248486Y85235D01*
X248431Y85465D01*
X248341Y85683D01*
X248217Y85884D01*
X248064Y86064D01*
X247884Y86217D01*
X247683Y86341D01*
X247465Y86431D01*
X247235Y86486D01*
X247000Y86500D01*
X246250Y86498D01*
Y98912D01*
X246257Y99000D01*
X246229Y99353D01*
X246146Y99697D01*
X246107Y99793D01*
X246011Y100025D01*
X245896Y100212D01*
X245826Y100327D01*
X245826Y100327D01*
X245596Y100596D01*
X245529Y100653D01*
X245524Y100658D01*
X245724Y101140D01*
X245944Y102058D01*
X246000Y103000D01*
X245944Y103942D01*
X245724Y104860D01*
X245363Y105732D01*
X244869Y106538D01*
X244256Y107256D01*
X243538Y107869D01*
X242732Y108363D01*
X241860Y108724D01*
X240942Y108944D01*
X240000Y109019D01*
X239980Y109017D01*
Y210760D01*
X240000Y210758D01*
X242071Y210921D01*
X244092Y211406D01*
X246012Y212202D01*
X247783Y213287D01*
X249363Y214637D01*
X250713Y216217D01*
X251798Y217988D01*
X252594Y219908D01*
X253079Y221929D01*
X253201Y224000D01*
X253079Y226071D01*
X252594Y228092D01*
X251798Y230012D01*
X250713Y231783D01*
X249363Y233363D01*
X247783Y234713D01*
X246012Y235798D01*
X244092Y236594D01*
X242071Y237079D01*
X240000Y237242D01*
X239980Y237240D01*
Y400000D01*
G37*
G36*
Y0D02*X220983D01*
Y5094D01*
X221550Y5230D01*
X222277Y5531D01*
X222948Y5942D01*
X223546Y6454D01*
X224058Y7052D01*
X224469Y7723D01*
X224770Y8450D01*
X224954Y9215D01*
X225000Y10000D01*
X224954Y10785D01*
X224770Y11550D01*
X224759Y11577D01*
X239980Y26798D01*
Y0D01*
G37*
G36*
X220983Y400000D02*X239980D01*
Y237240D01*
X237929Y237079D01*
X235908Y236594D01*
X233988Y235798D01*
X232217Y234713D01*
X230637Y233363D01*
X229287Y231783D01*
X228202Y230012D01*
X227406Y228092D01*
X226921Y226071D01*
X226758Y224000D01*
X226921Y221929D01*
X227406Y219908D01*
X228202Y217988D01*
X229287Y216217D01*
X230637Y214637D01*
X232217Y213287D01*
X233988Y212202D01*
X235908Y211406D01*
X237929Y210921D01*
X239980Y210760D01*
Y109017D01*
X239058Y108944D01*
X238140Y108724D01*
X237658Y108524D01*
X220983Y125199D01*
Y169863D01*
X221083Y168588D01*
X221414Y167210D01*
X221956Y165901D01*
X222696Y164694D01*
X223616Y163616D01*
X224694Y162696D01*
X225901Y161956D01*
X227210Y161414D01*
X228588Y161083D01*
X230000Y160972D01*
X231412Y161083D01*
X232790Y161414D01*
X234099Y161956D01*
X235306Y162696D01*
X236384Y163616D01*
X237304Y164694D01*
X238044Y165901D01*
X238586Y167210D01*
X238917Y168588D01*
X239000Y170000D01*
X238917Y171412D01*
X238586Y172790D01*
X238044Y174099D01*
X237304Y175306D01*
X236384Y176384D01*
X235306Y177304D01*
X234099Y178044D01*
X232790Y178586D01*
X231412Y178917D01*
X230000Y179028D01*
X228588Y178917D01*
X227210Y178586D01*
X225901Y178044D01*
X224694Y177304D01*
X223616Y176384D01*
X222696Y175306D01*
X221956Y174099D01*
X221414Y172790D01*
X221083Y171412D01*
X220983Y170137D01*
Y188967D01*
X221000Y188966D01*
X222726Y189102D01*
X224410Y189506D01*
X226009Y190169D01*
X227486Y191073D01*
X228802Y192198D01*
X229927Y193514D01*
X230831Y194991D01*
X231494Y196590D01*
X231898Y198274D01*
X232000Y200000D01*
X231898Y201726D01*
X231494Y203410D01*
X230831Y205009D01*
X229927Y206486D01*
X228802Y207802D01*
X227486Y208927D01*
X226009Y209831D01*
X224410Y210494D01*
X222726Y210898D01*
X221000Y211034D01*
X220983Y211033D01*
Y306967D01*
X221000Y306966D01*
X222726Y307102D01*
X224410Y307506D01*
X226009Y308169D01*
X227486Y309073D01*
X228802Y310198D01*
X229927Y311514D01*
X230831Y312991D01*
X231494Y314590D01*
X231898Y316274D01*
X232000Y318000D01*
X231898Y319726D01*
X231494Y321410D01*
X230831Y323009D01*
X229927Y324486D01*
X228802Y325802D01*
X227486Y326927D01*
X226009Y327831D01*
X224410Y328494D01*
X222726Y328898D01*
X221000Y329034D01*
X220983Y329033D01*
Y400000D01*
G37*
G36*
Y0D02*X204468D01*
Y7238D01*
X204497Y7267D01*
X204543Y7331D01*
X204779Y7736D01*
X204972Y8165D01*
X205123Y8609D01*
X205233Y9066D01*
X205298Y9531D01*
X205321Y10000D01*
X205298Y10469D01*
X205233Y10934D01*
X205123Y11391D01*
X204972Y11835D01*
X204779Y12264D01*
X204547Y12672D01*
X204500Y12736D01*
X204468Y12768D01*
Y70286D01*
X220983Y86801D01*
Y53033D01*
X219274Y52898D01*
X217590Y52494D01*
X215991Y51831D01*
X214514Y50927D01*
X213198Y49802D01*
X212073Y48486D01*
X211169Y47009D01*
X210506Y45410D01*
X210102Y43726D01*
X209966Y42000D01*
X210102Y40274D01*
X210506Y38590D01*
X211169Y36991D01*
X212073Y35514D01*
X213198Y34198D01*
X214514Y33073D01*
X215991Y32169D01*
X217590Y31506D01*
X219274Y31102D01*
X220983Y30967D01*
Y14906D01*
X220785Y14954D01*
X220000Y15015D01*
X219215Y14954D01*
X218450Y14770D01*
X217723Y14469D01*
X217052Y14058D01*
X216454Y13546D01*
X215942Y12948D01*
X215531Y12277D01*
X215230Y11550D01*
X215046Y10785D01*
X214985Y10000D01*
X215046Y9215D01*
X215230Y8450D01*
X215531Y7723D01*
X215942Y7052D01*
X216454Y6454D01*
X217052Y5942D01*
X217723Y5531D01*
X218450Y5230D01*
X219215Y5046D01*
X220000Y4985D01*
X220785Y5046D01*
X220983Y5094D01*
Y0D01*
G37*
G36*
X204468D02*X200317D01*
Y4995D01*
X200784Y5017D01*
X201249Y5082D01*
X201706Y5192D01*
X202150Y5343D01*
X202579Y5536D01*
X202987Y5768D01*
X203051Y5815D01*
X203107Y5872D01*
X203152Y5936D01*
X203187Y6008D01*
X203211Y6083D01*
X203222Y6162D01*
X203221Y6241D01*
X203208Y6320D01*
X203182Y6395D01*
X203145Y6465D01*
X203098Y6529D01*
X203041Y6584D01*
X202976Y6630D01*
X202905Y6665D01*
X202829Y6688D01*
X202750Y6700D01*
X202671Y6699D01*
X202593Y6685D01*
X202518Y6660D01*
X202448Y6621D01*
X202124Y6432D01*
X201782Y6279D01*
X201427Y6158D01*
X201061Y6070D01*
X200690Y6018D01*
X200317Y6000D01*
Y14000D01*
X200690Y13982D01*
X201061Y13930D01*
X201427Y13842D01*
X201782Y13721D01*
X202124Y13568D01*
X202450Y13382D01*
X202519Y13344D01*
X202594Y13319D01*
X202671Y13306D01*
X202750Y13305D01*
X202828Y13316D01*
X202903Y13339D01*
X202974Y13374D01*
X203038Y13419D01*
X203094Y13474D01*
X203142Y13537D01*
X203178Y13607D01*
X203203Y13681D01*
X203217Y13759D01*
X203218Y13838D01*
X203207Y13916D01*
X203183Y13991D01*
X203149Y14061D01*
X203103Y14126D01*
X203048Y14182D01*
X202984Y14228D01*
X202579Y14464D01*
X202150Y14657D01*
X201706Y14808D01*
X201249Y14918D01*
X200784Y14983D01*
X200317Y15005D01*
Y66135D01*
X204468Y70286D01*
Y12768D01*
X204443Y12792D01*
X204379Y12837D01*
X204307Y12872D01*
X204232Y12896D01*
X204153Y12907D01*
X204074Y12906D01*
X203995Y12893D01*
X203920Y12867D01*
X203850Y12830D01*
X203786Y12783D01*
X203731Y12726D01*
X203685Y12661D01*
X203650Y12590D01*
X203627Y12514D01*
X203615Y12435D01*
X203616Y12356D01*
X203630Y12278D01*
X203655Y12203D01*
X203694Y12133D01*
X203883Y11809D01*
X204036Y11467D01*
X204157Y11112D01*
X204245Y10746D01*
X204297Y10375D01*
X204315Y10000D01*
X204297Y9625D01*
X204245Y9254D01*
X204157Y8888D01*
X204036Y8533D01*
X203883Y8191D01*
X203697Y7865D01*
X203659Y7796D01*
X203634Y7721D01*
X203621Y7644D01*
X203620Y7565D01*
X203631Y7487D01*
X203654Y7412D01*
X203689Y7341D01*
X203734Y7277D01*
X203789Y7221D01*
X203852Y7173D01*
X203922Y7137D01*
X203996Y7112D01*
X204074Y7098D01*
X204153Y7097D01*
X204231Y7108D01*
X204306Y7132D01*
X204376Y7166D01*
X204441Y7212D01*
X204468Y7238D01*
Y0D01*
G37*
G36*
X200317D02*X196162D01*
Y7232D01*
X196187Y7208D01*
X196251Y7163D01*
X196323Y7128D01*
X196398Y7104D01*
X196477Y7093D01*
X196556Y7094D01*
X196635Y7107D01*
X196710Y7133D01*
X196780Y7170D01*
X196844Y7217D01*
X196899Y7274D01*
X196945Y7339D01*
X196980Y7410D01*
X197003Y7486D01*
X197015Y7565D01*
X197014Y7644D01*
X197000Y7722D01*
X196975Y7797D01*
X196936Y7867D01*
X196747Y8191D01*
X196594Y8533D01*
X196473Y8888D01*
X196385Y9254D01*
X196333Y9625D01*
X196315Y10000D01*
X196333Y10375D01*
X196385Y10746D01*
X196473Y11112D01*
X196594Y11467D01*
X196747Y11809D01*
X196933Y12136D01*
X196971Y12204D01*
X196996Y12279D01*
X197009Y12356D01*
X197010Y12435D01*
X196999Y12513D01*
X196976Y12588D01*
X196941Y12659D01*
X196896Y12723D01*
X196841Y12779D01*
X196778Y12827D01*
X196708Y12863D01*
X196634Y12888D01*
X196556Y12902D01*
X196477Y12903D01*
X196399Y12892D01*
X196324Y12868D01*
X196254Y12834D01*
X196189Y12788D01*
X196162Y12762D01*
Y57510D01*
X198235Y57514D01*
X198465Y57569D01*
X198683Y57659D01*
X198884Y57783D01*
X199064Y57936D01*
X199217Y58116D01*
X199341Y58317D01*
X199431Y58535D01*
X199486Y58765D01*
X199500Y59000D01*
X199489Y65307D01*
X200317Y66135D01*
Y15005D01*
X200315Y15006D01*
X199846Y14983D01*
X199381Y14918D01*
X198924Y14808D01*
X198480Y14657D01*
X198051Y14464D01*
X197643Y14232D01*
X197579Y14185D01*
X197523Y14128D01*
X197478Y14064D01*
X197443Y13992D01*
X197419Y13917D01*
X197408Y13838D01*
X197409Y13759D01*
X197422Y13680D01*
X197448Y13605D01*
X197485Y13535D01*
X197532Y13471D01*
X197589Y13416D01*
X197654Y13370D01*
X197725Y13335D01*
X197801Y13312D01*
X197880Y13300D01*
X197959Y13301D01*
X198037Y13315D01*
X198112Y13340D01*
X198182Y13379D01*
X198506Y13568D01*
X198848Y13721D01*
X199203Y13842D01*
X199568Y13930D01*
X199940Y13982D01*
X200315Y14000D01*
X200317Y14000D01*
Y6000D01*
X200315Y6000D01*
X199940Y6018D01*
X199568Y6070D01*
X199203Y6158D01*
X198848Y6279D01*
X198506Y6432D01*
X198180Y6618D01*
X198111Y6656D01*
X198036Y6681D01*
X197959Y6694D01*
X197880Y6695D01*
X197802Y6684D01*
X197727Y6661D01*
X197656Y6626D01*
X197592Y6581D01*
X197536Y6526D01*
X197488Y6463D01*
X197452Y6393D01*
X197426Y6319D01*
X197413Y6241D01*
X197412Y6162D01*
X197423Y6084D01*
X197447Y6009D01*
X197481Y5939D01*
X197527Y5874D01*
X197582Y5818D01*
X197646Y5772D01*
X198051Y5536D01*
X198480Y5343D01*
X198924Y5192D01*
X199381Y5082D01*
X199846Y5017D01*
X200315Y4994D01*
X200317Y4995D01*
Y0D01*
G37*
G36*
X196162D02*X178993D01*
Y5100D01*
X179215Y5046D01*
X180000Y4985D01*
X180785Y5046D01*
X181550Y5230D01*
X182277Y5531D01*
X182948Y5942D01*
X183546Y6454D01*
X184058Y7052D01*
X184469Y7723D01*
X184770Y8450D01*
X184954Y9215D01*
X185000Y10000D01*
X184954Y10785D01*
X184770Y11550D01*
X184469Y12277D01*
X184058Y12948D01*
X183546Y13546D01*
X182948Y14058D01*
X182277Y14469D01*
X181550Y14770D01*
X180785Y14954D01*
X180000Y15015D01*
X179215Y14954D01*
X178993Y14900D01*
Y50487D01*
X179000Y50486D01*
X179706Y50542D01*
X180395Y50707D01*
X181049Y50978D01*
X181653Y51348D01*
X182192Y51808D01*
X182652Y52347D01*
X183022Y52951D01*
X183293Y53605D01*
X183458Y54294D01*
X183500Y55000D01*
X183458Y55706D01*
X183293Y56395D01*
X183022Y57049D01*
X182652Y57653D01*
X182192Y58192D01*
X181653Y58652D01*
X181049Y59022D01*
X180395Y59293D01*
X179706Y59458D01*
X179000Y59514D01*
X178993Y59513D01*
Y68811D01*
X191750Y81568D01*
Y68489D01*
X189765Y68486D01*
X189535Y68431D01*
X189317Y68341D01*
X189116Y68217D01*
X188936Y68064D01*
X188783Y67884D01*
X188659Y67683D01*
X188569Y67465D01*
X188514Y67235D01*
X188500Y67000D01*
X188514Y58765D01*
X188569Y58535D01*
X188659Y58317D01*
X188783Y58116D01*
X188936Y57936D01*
X189116Y57783D01*
X189317Y57659D01*
X189535Y57569D01*
X189765Y57514D01*
X190000Y57500D01*
X196162Y57510D01*
Y12762D01*
X196133Y12733D01*
X196087Y12669D01*
X195851Y12264D01*
X195658Y11835D01*
X195507Y11391D01*
X195397Y10934D01*
X195332Y10469D01*
X195309Y10000D01*
X195332Y9531D01*
X195397Y9066D01*
X195507Y8609D01*
X195658Y8165D01*
X195851Y7736D01*
X196083Y7328D01*
X196130Y7264D01*
X196162Y7232D01*
Y0D01*
G37*
G36*
X178993D02*X168993D01*
Y50487D01*
X169000Y50486D01*
X169706Y50542D01*
X170395Y50707D01*
X171049Y50978D01*
X171653Y51348D01*
X172192Y51808D01*
X172652Y52347D01*
X173022Y52951D01*
X173293Y53605D01*
X173458Y54294D01*
X173500Y55000D01*
X173458Y55706D01*
X173293Y56395D01*
X173022Y57049D01*
X172652Y57653D01*
X172192Y58192D01*
X171653Y58652D01*
X171049Y59022D01*
X170395Y59293D01*
X169706Y59458D01*
X169000Y59514D01*
X168993Y59513D01*
Y67750D01*
X176912D01*
X177000Y67743D01*
X177353Y67771D01*
X177353Y67771D01*
X177697Y67854D01*
X178025Y67989D01*
X178327Y68174D01*
X178596Y68404D01*
X178653Y68471D01*
X178993Y68811D01*
Y59513D01*
X178294Y59458D01*
X177605Y59293D01*
X176951Y59022D01*
X176347Y58652D01*
X175808Y58192D01*
X175348Y57653D01*
X174978Y57049D01*
X174707Y56395D01*
X174542Y55706D01*
X174486Y55000D01*
X174542Y54294D01*
X174707Y53605D01*
X174978Y52951D01*
X175348Y52347D01*
X175808Y51808D01*
X176347Y51348D01*
X176951Y50978D01*
X177605Y50707D01*
X178294Y50542D01*
X178993Y50487D01*
Y14900D01*
X178450Y14770D01*
X177723Y14469D01*
X177052Y14058D01*
X176454Y13546D01*
X175942Y12948D01*
X175531Y12277D01*
X175230Y11550D01*
X175046Y10785D01*
X174985Y10000D01*
X175046Y9215D01*
X175230Y8450D01*
X175531Y7723D01*
X175942Y7052D01*
X176454Y6454D01*
X177052Y5942D01*
X177723Y5531D01*
X178450Y5230D01*
X178993Y5100D01*
Y0D01*
G37*
G36*
X168993D02*X160307D01*
Y4985D01*
X160315Y4985D01*
X161100Y5046D01*
X161865Y5230D01*
X162592Y5531D01*
X163263Y5942D01*
X163861Y6454D01*
X164373Y7052D01*
X164784Y7723D01*
X165085Y8450D01*
X165269Y9215D01*
X165315Y10000D01*
X165269Y10785D01*
X165085Y11550D01*
X164784Y12277D01*
X164373Y12948D01*
X163861Y13546D01*
X163263Y14058D01*
X162592Y14469D01*
X161865Y14770D01*
X161100Y14954D01*
X160315Y15015D01*
X160307Y15015D01*
Y50686D01*
X160395Y50707D01*
X161049Y50978D01*
X161653Y51348D01*
X162192Y51808D01*
X162652Y52347D01*
X163022Y52951D01*
X163293Y53605D01*
X163458Y54294D01*
X163500Y55000D01*
X163458Y55706D01*
X163293Y56395D01*
X163022Y57049D01*
X162652Y57653D01*
X162192Y58192D01*
X161653Y58652D01*
X161049Y59022D01*
X160395Y59293D01*
X160307Y59314D01*
Y67750D01*
X168993D01*
Y59513D01*
X168294Y59458D01*
X167605Y59293D01*
X166951Y59022D01*
X166347Y58652D01*
X165808Y58192D01*
X165348Y57653D01*
X164978Y57049D01*
X164707Y56395D01*
X164542Y55706D01*
X164486Y55000D01*
X164542Y54294D01*
X164707Y53605D01*
X164978Y52951D01*
X165348Y52347D01*
X165808Y51808D01*
X166347Y51348D01*
X166951Y50978D01*
X167605Y50707D01*
X168294Y50542D01*
X168993Y50487D01*
Y0D01*
G37*
G36*
X160307D02*X144153D01*
Y7238D01*
X144182Y7267D01*
X144228Y7331D01*
X144464Y7736D01*
X144657Y8165D01*
X144808Y8609D01*
X144918Y9066D01*
X144983Y9531D01*
X145006Y10000D01*
X144983Y10469D01*
X144918Y10934D01*
X144808Y11391D01*
X144657Y11835D01*
X144464Y12264D01*
X144232Y12672D01*
X144185Y12736D01*
X144153Y12768D01*
Y51843D01*
X144494Y51551D01*
X145065Y51202D01*
X145683Y50946D01*
X146333Y50789D01*
X147000Y50737D01*
X147667Y50789D01*
X148317Y50946D01*
X148935Y51202D01*
X149506Y51551D01*
X150014Y51986D01*
X150449Y52494D01*
X150798Y53065D01*
X151054Y53683D01*
X151211Y54333D01*
X151250Y55000D01*
X151211Y55667D01*
X151054Y56317D01*
X150798Y56935D01*
X150449Y57506D01*
X150014Y58014D01*
X149506Y58449D01*
X148935Y58798D01*
X148317Y59054D01*
X147667Y59211D01*
X147000Y59263D01*
X146333Y59211D01*
X145683Y59054D01*
X145065Y58798D01*
X144494Y58449D01*
X144153Y58157D01*
Y67750D01*
X160307D01*
Y59314D01*
X159706Y59458D01*
X159000Y59514D01*
X158294Y59458D01*
X157605Y59293D01*
X156951Y59022D01*
X156347Y58652D01*
X155808Y58192D01*
X155348Y57653D01*
X154978Y57049D01*
X154707Y56395D01*
X154542Y55706D01*
X154486Y55000D01*
X154542Y54294D01*
X154707Y53605D01*
X154978Y52951D01*
X155348Y52347D01*
X155808Y51808D01*
X156347Y51348D01*
X156951Y50978D01*
X157605Y50707D01*
X158294Y50542D01*
X159000Y50486D01*
X159706Y50542D01*
X160307Y50686D01*
Y15015D01*
X159530Y14954D01*
X158765Y14770D01*
X158038Y14469D01*
X157367Y14058D01*
X156769Y13546D01*
X156257Y12948D01*
X155846Y12277D01*
X155545Y11550D01*
X155361Y10785D01*
X155300Y10000D01*
X155361Y9215D01*
X155545Y8450D01*
X155846Y7723D01*
X156257Y7052D01*
X156769Y6454D01*
X157367Y5942D01*
X158038Y5531D01*
X158765Y5230D01*
X159530Y5046D01*
X160307Y4985D01*
Y0D01*
G37*
G36*
X144153D02*X140002D01*
Y4995D01*
X140469Y5017D01*
X140934Y5082D01*
X141391Y5192D01*
X141835Y5343D01*
X142264Y5536D01*
X142672Y5768D01*
X142736Y5815D01*
X142792Y5872D01*
X142837Y5936D01*
X142872Y6008D01*
X142896Y6083D01*
X142907Y6162D01*
X142906Y6241D01*
X142893Y6320D01*
X142867Y6395D01*
X142830Y6465D01*
X142783Y6529D01*
X142726Y6584D01*
X142661Y6630D01*
X142590Y6665D01*
X142514Y6688D01*
X142435Y6700D01*
X142356Y6699D01*
X142278Y6685D01*
X142203Y6660D01*
X142133Y6621D01*
X141809Y6432D01*
X141467Y6279D01*
X141112Y6158D01*
X140746Y6070D01*
X140375Y6018D01*
X140002Y6000D01*
Y14000D01*
X140375Y13982D01*
X140746Y13930D01*
X141112Y13842D01*
X141467Y13721D01*
X141809Y13568D01*
X142135Y13382D01*
X142204Y13344D01*
X142279Y13319D01*
X142356Y13306D01*
X142435Y13305D01*
X142513Y13316D01*
X142588Y13339D01*
X142659Y13374D01*
X142723Y13419D01*
X142779Y13474D01*
X142827Y13537D01*
X142863Y13607D01*
X142888Y13681D01*
X142902Y13759D01*
X142903Y13838D01*
X142892Y13916D01*
X142868Y13991D01*
X142834Y14061D01*
X142788Y14126D01*
X142733Y14182D01*
X142669Y14228D01*
X142264Y14464D01*
X141835Y14657D01*
X141391Y14808D01*
X140934Y14918D01*
X140469Y14983D01*
X140002Y15005D01*
Y67750D01*
X144153D01*
Y58157D01*
X143986Y58014D01*
X143551Y57506D01*
X143202Y56935D01*
X142946Y56317D01*
X142789Y55667D01*
X142737Y55000D01*
X142789Y54333D01*
X142946Y53683D01*
X143202Y53065D01*
X143551Y52494D01*
X143986Y51986D01*
X144153Y51843D01*
Y12768D01*
X144128Y12792D01*
X144064Y12837D01*
X143992Y12872D01*
X143917Y12896D01*
X143838Y12907D01*
X143759Y12906D01*
X143680Y12893D01*
X143605Y12867D01*
X143535Y12830D01*
X143471Y12783D01*
X143416Y12726D01*
X143370Y12661D01*
X143335Y12590D01*
X143312Y12514D01*
X143300Y12435D01*
X143301Y12356D01*
X143315Y12278D01*
X143340Y12203D01*
X143379Y12133D01*
X143568Y11809D01*
X143721Y11467D01*
X143842Y11112D01*
X143930Y10746D01*
X143982Y10375D01*
X144000Y10000D01*
X143982Y9625D01*
X143930Y9254D01*
X143842Y8888D01*
X143721Y8533D01*
X143568Y8191D01*
X143382Y7865D01*
X143344Y7796D01*
X143319Y7721D01*
X143306Y7644D01*
X143305Y7565D01*
X143316Y7487D01*
X143339Y7412D01*
X143374Y7341D01*
X143419Y7277D01*
X143474Y7221D01*
X143537Y7173D01*
X143607Y7137D01*
X143681Y7112D01*
X143759Y7098D01*
X143838Y7097D01*
X143916Y7108D01*
X143991Y7132D01*
X144061Y7166D01*
X144126Y7212D01*
X144153Y7238D01*
Y0D01*
G37*
G36*
X140002D02*X135847D01*
Y7232D01*
X135872Y7208D01*
X135936Y7163D01*
X136008Y7128D01*
X136083Y7104D01*
X136162Y7093D01*
X136241Y7094D01*
X136320Y7107D01*
X136395Y7133D01*
X136465Y7170D01*
X136529Y7217D01*
X136584Y7274D01*
X136630Y7339D01*
X136665Y7410D01*
X136688Y7486D01*
X136700Y7565D01*
X136699Y7644D01*
X136685Y7722D01*
X136660Y7797D01*
X136621Y7867D01*
X136432Y8191D01*
X136279Y8533D01*
X136158Y8888D01*
X136070Y9254D01*
X136018Y9625D01*
X136000Y10000D01*
X136018Y10375D01*
X136070Y10746D01*
X136158Y11112D01*
X136279Y11467D01*
X136432Y11809D01*
X136618Y12136D01*
X136656Y12204D01*
X136681Y12279D01*
X136694Y12356D01*
X136695Y12435D01*
X136684Y12513D01*
X136661Y12588D01*
X136626Y12659D01*
X136581Y12723D01*
X136526Y12779D01*
X136463Y12827D01*
X136393Y12863D01*
X136319Y12888D01*
X136241Y12902D01*
X136162Y12903D01*
X136084Y12892D01*
X136009Y12868D01*
X135939Y12834D01*
X135874Y12788D01*
X135847Y12762D01*
Y67750D01*
X140002D01*
Y15005D01*
X140000Y15006D01*
X139531Y14983D01*
X139066Y14918D01*
X138609Y14808D01*
X138165Y14657D01*
X137736Y14464D01*
X137328Y14232D01*
X137264Y14185D01*
X137208Y14128D01*
X137163Y14064D01*
X137128Y13992D01*
X137104Y13917D01*
X137093Y13838D01*
X137094Y13759D01*
X137107Y13680D01*
X137133Y13605D01*
X137170Y13535D01*
X137217Y13471D01*
X137274Y13416D01*
X137339Y13370D01*
X137410Y13335D01*
X137486Y13312D01*
X137565Y13300D01*
X137644Y13301D01*
X137722Y13315D01*
X137797Y13340D01*
X137867Y13379D01*
X138191Y13568D01*
X138533Y13721D01*
X138888Y13842D01*
X139254Y13930D01*
X139625Y13982D01*
X140000Y14000D01*
X140002Y14000D01*
Y6000D01*
X140000Y6000D01*
X139625Y6018D01*
X139254Y6070D01*
X138888Y6158D01*
X138533Y6279D01*
X138191Y6432D01*
X137864Y6618D01*
X137796Y6656D01*
X137721Y6681D01*
X137644Y6694D01*
X137565Y6695D01*
X137487Y6684D01*
X137412Y6661D01*
X137341Y6626D01*
X137277Y6581D01*
X137221Y6526D01*
X137173Y6463D01*
X137137Y6393D01*
X137112Y6319D01*
X137098Y6241D01*
X137097Y6162D01*
X137108Y6084D01*
X137132Y6009D01*
X137166Y5939D01*
X137212Y5874D01*
X137267Y5818D01*
X137331Y5772D01*
X137736Y5536D01*
X138165Y5343D01*
X138609Y5192D01*
X139066Y5082D01*
X139531Y5017D01*
X140000Y4994D01*
X140002Y4995D01*
Y0D01*
G37*
G36*
X135847D02*X120307D01*
Y4985D01*
X120315Y4985D01*
X121100Y5046D01*
X121865Y5230D01*
X122592Y5531D01*
X123263Y5942D01*
X123861Y6454D01*
X124373Y7052D01*
X124784Y7723D01*
X125085Y8450D01*
X125269Y9215D01*
X125315Y10000D01*
X125269Y10785D01*
X125085Y11550D01*
X124784Y12277D01*
X124373Y12948D01*
X123861Y13546D01*
X123263Y14058D01*
X122592Y14469D01*
X121865Y14770D01*
X121100Y14954D01*
X120315Y15015D01*
X120307Y15015D01*
Y67750D01*
X135847D01*
Y12762D01*
X135818Y12733D01*
X135772Y12669D01*
X135536Y12264D01*
X135343Y11835D01*
X135192Y11391D01*
X135082Y10934D01*
X135017Y10469D01*
X134994Y10000D01*
X135017Y9531D01*
X135082Y9066D01*
X135192Y8609D01*
X135343Y8165D01*
X135536Y7736D01*
X135768Y7328D01*
X135815Y7264D01*
X135847Y7232D01*
Y0D01*
G37*
G36*
X120307D02*X109993D01*
Y31522D01*
X110231Y31621D01*
X110889Y32024D01*
X111476Y32524D01*
X111976Y33111D01*
X112379Y33769D01*
X112675Y34481D01*
X112855Y35231D01*
X112900Y36000D01*
X112855Y36769D01*
X112675Y37519D01*
X112379Y38231D01*
X111976Y38889D01*
X111476Y39476D01*
X110889Y39976D01*
X110231Y40379D01*
X109993Y40478D01*
Y67750D01*
X120307D01*
Y15015D01*
X119530Y14954D01*
X118765Y14770D01*
X118038Y14469D01*
X117367Y14058D01*
X116769Y13546D01*
X116257Y12948D01*
X115846Y12277D01*
X115545Y11550D01*
X115361Y10785D01*
X115300Y10000D01*
X115361Y9215D01*
X115545Y8450D01*
X115846Y7723D01*
X116257Y7052D01*
X116769Y6454D01*
X117367Y5942D01*
X118038Y5531D01*
X118765Y5230D01*
X119530Y5046D01*
X120307Y4985D01*
Y0D01*
G37*
G36*
X207613Y132205D02*X220983Y118835D01*
Y108995D01*
X215265Y108986D01*
X215035Y108931D01*
X214817Y108841D01*
X214616Y108717D01*
X214436Y108564D01*
X214283Y108384D01*
X214159Y108183D01*
X214069Y107965D01*
X214014Y107735D01*
X214000Y107500D01*
X214014Y98265D01*
X214069Y98035D01*
X214159Y97817D01*
X214283Y97616D01*
X214436Y97436D01*
X214616Y97283D01*
X214817Y97159D01*
X215035Y97069D01*
X215265Y97014D01*
X215500Y97000D01*
X220983Y97008D01*
Y93165D01*
X207613Y79795D01*
Y89853D01*
X207656Y89860D01*
X207768Y89897D01*
X207873Y89952D01*
X207968Y90022D01*
X208051Y90106D01*
X208119Y90202D01*
X208170Y90308D01*
X208318Y90716D01*
X208422Y91137D01*
X208484Y91567D01*
X208505Y92000D01*
X208484Y92433D01*
X208422Y92863D01*
X208318Y93284D01*
X208175Y93694D01*
X208122Y93800D01*
X208053Y93896D01*
X207970Y93981D01*
X207875Y94051D01*
X207769Y94106D01*
X207657Y94143D01*
X207613Y94151D01*
Y132205D01*
G37*
G36*
X204002Y135816D02*X207613Y132205D01*
Y94151D01*
X207540Y94163D01*
X207421Y94164D01*
X207304Y94146D01*
X207191Y94110D01*
X207085Y94057D01*
X206988Y93988D01*
X206904Y93905D01*
X206833Y93809D01*
X206779Y93704D01*
X206741Y93592D01*
X206722Y93475D01*
X206721Y93356D01*
X206739Y93239D01*
X206777Y93126D01*
X206876Y92855D01*
X206944Y92575D01*
X206986Y92289D01*
X207000Y92000D01*
X206986Y91711D01*
X206944Y91425D01*
X206876Y91145D01*
X206780Y90872D01*
X206742Y90761D01*
X206725Y90644D01*
X206725Y90526D01*
X206745Y90409D01*
X206782Y90297D01*
X206836Y90193D01*
X206906Y90098D01*
X206991Y90015D01*
X207087Y89946D01*
X207192Y89893D01*
X207305Y89857D01*
X207421Y89840D01*
X207539Y89841D01*
X207613Y89853D01*
Y79795D01*
X204002Y76184D01*
Y87495D01*
X204433Y87516D01*
X204863Y87578D01*
X205284Y87682D01*
X205694Y87825D01*
X205800Y87878D01*
X205896Y87947D01*
X205981Y88030D01*
X206051Y88125D01*
X206106Y88231D01*
X206143Y88343D01*
X206163Y88460D01*
X206164Y88579D01*
X206146Y88696D01*
X206110Y88809D01*
X206057Y88915D01*
X205988Y89012D01*
X205905Y89096D01*
X205809Y89167D01*
X205704Y89221D01*
X205592Y89259D01*
X205475Y89278D01*
X205356Y89279D01*
X205239Y89261D01*
X205126Y89223D01*
X204855Y89124D01*
X204575Y89056D01*
X204289Y89014D01*
X204002Y89000D01*
Y89743D01*
X204353Y89771D01*
X204697Y89854D01*
X205025Y89989D01*
X205327Y90174D01*
X205596Y90404D01*
X205826Y90673D01*
X206011Y90975D01*
X206146Y91303D01*
X206229Y91647D01*
X206250Y92000D01*
Y94912D01*
X206257Y95000D01*
X206229Y95353D01*
X206146Y95697D01*
X206107Y95793D01*
X206011Y96025D01*
X205896Y96212D01*
X205826Y96327D01*
X205826Y96327D01*
X205596Y96596D01*
X205529Y96653D01*
X204002Y98180D01*
Y135816D01*
G37*
G36*
Y400000D02*X220983D01*
Y329033D01*
X219274Y328898D01*
X217590Y328494D01*
X215991Y327831D01*
X214514Y326927D01*
X213198Y325802D01*
X212073Y324486D01*
X211169Y323009D01*
X210506Y321410D01*
X210102Y319726D01*
X209966Y318000D01*
X210102Y316274D01*
X210506Y314590D01*
X211169Y312991D01*
X212073Y311514D01*
X213198Y310198D01*
X214514Y309073D01*
X215991Y308169D01*
X217590Y307506D01*
X219274Y307102D01*
X220983Y306967D01*
Y211033D01*
X219274Y210898D01*
X217590Y210494D01*
X215991Y209831D01*
X214514Y208927D01*
X213198Y207802D01*
X212073Y206486D01*
X211169Y205009D01*
X210506Y203410D01*
X210102Y201726D01*
X209966Y200000D01*
X210102Y198274D01*
X210506Y196590D01*
X211169Y194991D01*
X212073Y193514D01*
X213198Y192198D01*
X214514Y191073D01*
X215991Y190169D01*
X217590Y189506D01*
X219274Y189102D01*
X220983Y188967D01*
Y170137D01*
X220972Y170000D01*
X220983Y169863D01*
Y125199D01*
X204002Y142180D01*
Y400000D01*
G37*
G36*
Y76184D02*X200387Y72569D01*
Y89849D01*
X200460Y89837D01*
X200579Y89836D01*
X200696Y89854D01*
X200809Y89890D01*
X200915Y89943D01*
X201012Y90012D01*
X201096Y90095D01*
X201167Y90191D01*
X201221Y90296D01*
X201259Y90408D01*
X201278Y90525D01*
X201279Y90644D01*
X201261Y90761D01*
X201223Y90874D01*
X201124Y91145D01*
X201056Y91425D01*
X201014Y91711D01*
X201000Y92000D01*
X201014Y92289D01*
X201056Y92575D01*
X201124Y92855D01*
X201220Y93128D01*
X201258Y93239D01*
X201275Y93356D01*
X201275Y93474D01*
X201255Y93591D01*
X201218Y93703D01*
X201164Y93807D01*
X201094Y93902D01*
X201009Y93985D01*
X200913Y94054D01*
X200808Y94107D01*
X200695Y94143D01*
X200579Y94160D01*
X200461Y94159D01*
X200387Y94147D01*
Y95431D01*
X201750Y94068D01*
Y92000D01*
X201771Y91647D01*
X201854Y91303D01*
X201989Y90975D01*
X202174Y90673D01*
X202404Y90404D01*
X202673Y90174D01*
X202975Y89989D01*
X203303Y89854D01*
X203647Y89771D01*
X204000Y89743D01*
X204002Y89743D01*
Y89000D01*
X204000Y89000D01*
X203711Y89014D01*
X203425Y89056D01*
X203145Y89124D01*
X202872Y89220D01*
X202761Y89258D01*
X202644Y89275D01*
X202526Y89275D01*
X202409Y89255D01*
X202297Y89218D01*
X202193Y89164D01*
X202098Y89094D01*
X202015Y89009D01*
X201946Y88913D01*
X201893Y88808D01*
X201857Y88695D01*
X201840Y88579D01*
X201841Y88461D01*
X201860Y88344D01*
X201897Y88232D01*
X201952Y88127D01*
X202022Y88032D01*
X202106Y87949D01*
X202202Y87881D01*
X202308Y87830D01*
X202716Y87682D01*
X203137Y87578D01*
X203567Y87516D01*
X204000Y87495D01*
X204002Y87495D01*
Y76184D01*
G37*
G36*
X200387Y72569D02*X196315Y68497D01*
X196250Y68497D01*
Y86912D01*
X196257Y87000D01*
X196250Y87088D01*
Y87512D01*
X197235Y87514D01*
X197465Y87569D01*
X197683Y87659D01*
X197884Y87783D01*
X198064Y87936D01*
X198217Y88116D01*
X198341Y88317D01*
X198431Y88535D01*
X198486Y88765D01*
X198500Y89000D01*
X198486Y95235D01*
X198431Y95465D01*
X198341Y95683D01*
X198217Y95884D01*
X198064Y96064D01*
X197884Y96217D01*
X197683Y96341D01*
X197465Y96431D01*
X197235Y96486D01*
X197000Y96500D01*
X190765Y96486D01*
X190535Y96431D01*
X190317Y96341D01*
X190116Y96217D01*
X189936Y96064D01*
X189783Y95884D01*
X189659Y95683D01*
X189569Y95465D01*
X189514Y95235D01*
X189500Y95000D01*
X189514Y88765D01*
X189569Y88535D01*
X189659Y88317D01*
X189783Y88116D01*
X189936Y87936D01*
X190116Y87783D01*
X190317Y87659D01*
X190535Y87569D01*
X190765Y87514D01*
X191000Y87500D01*
X191319Y87501D01*
X179000Y75182D01*
Y80507D01*
X182235Y80514D01*
X182465Y80569D01*
X182683Y80659D01*
X182884Y80783D01*
X183064Y80936D01*
X183217Y81116D01*
X183341Y81317D01*
X183431Y81535D01*
X183486Y81765D01*
X183500Y82000D01*
X183486Y88235D01*
X183431Y88465D01*
X183341Y88683D01*
X183217Y88884D01*
X183064Y89064D01*
X182884Y89217D01*
X182683Y89341D01*
X182465Y89431D01*
X182235Y89486D01*
X182000Y89500D01*
X179000Y89493D01*
Y96750D01*
X199068D01*
X200387Y95431D01*
Y94147D01*
X200344Y94140D01*
X200232Y94103D01*
X200127Y94048D01*
X200032Y93978D01*
X199949Y93894D01*
X199881Y93798D01*
X199830Y93692D01*
X199682Y93284D01*
X199578Y92863D01*
X199516Y92433D01*
X199495Y92000D01*
X199516Y91567D01*
X199578Y91137D01*
X199682Y90716D01*
X199825Y90306D01*
X199878Y90200D01*
X199947Y90104D01*
X200030Y90019D01*
X200125Y89949D01*
X200231Y89894D01*
X200343Y89857D01*
X200387Y89849D01*
Y72569D01*
G37*
G36*
X179000Y75182D02*X176068Y72250D01*
X158993D01*
Y80487D01*
X159000Y80486D01*
X159706Y80542D01*
X160395Y80707D01*
X161049Y80978D01*
X161653Y81348D01*
X162192Y81808D01*
X162652Y82347D01*
X163022Y82951D01*
X163293Y83605D01*
X163458Y84294D01*
X163500Y85000D01*
X163458Y85706D01*
X163293Y86395D01*
X163022Y87049D01*
X162652Y87653D01*
X162192Y88192D01*
X161653Y88652D01*
X161049Y89022D01*
X160395Y89293D01*
X159706Y89458D01*
X159000Y89514D01*
X158993Y89513D01*
Y91750D01*
X166750D01*
Y88899D01*
X166347Y88652D01*
X165808Y88192D01*
X165348Y87653D01*
X164978Y87049D01*
X164707Y86395D01*
X164542Y85706D01*
X164486Y85000D01*
X164542Y84294D01*
X164707Y83605D01*
X164978Y82951D01*
X165348Y82347D01*
X165808Y81808D01*
X166347Y81348D01*
X166951Y80978D01*
X167605Y80707D01*
X168294Y80542D01*
X169000Y80486D01*
X169706Y80542D01*
X170395Y80707D01*
X171049Y80978D01*
X171653Y81348D01*
X172192Y81808D01*
X172652Y82347D01*
X173022Y82951D01*
X173293Y83605D01*
X173458Y84294D01*
X173500Y85000D01*
X173458Y85706D01*
X173293Y86395D01*
X173022Y87049D01*
X172652Y87653D01*
X172192Y88192D01*
X171653Y88652D01*
X171250Y88899D01*
Y92068D01*
X175932Y96750D01*
X179000D01*
Y89493D01*
X175765Y89486D01*
X175535Y89431D01*
X175317Y89341D01*
X175116Y89217D01*
X174936Y89064D01*
X174783Y88884D01*
X174659Y88683D01*
X174569Y88465D01*
X174514Y88235D01*
X174500Y88000D01*
X174514Y81765D01*
X174569Y81535D01*
X174659Y81317D01*
X174783Y81116D01*
X174936Y80936D01*
X175116Y80783D01*
X175317Y80659D01*
X175535Y80569D01*
X175765Y80514D01*
X176000Y80500D01*
X179000Y80507D01*
Y75182D01*
G37*
G36*
X158993Y72250D02*X109993D01*
Y75004D01*
X116735Y75014D01*
X116965Y75069D01*
X117183Y75159D01*
X117384Y75283D01*
X117564Y75436D01*
X117717Y75616D01*
X117841Y75817D01*
X117931Y76035D01*
X117986Y76265D01*
X118000Y76500D01*
X118000Y76526D01*
X118462Y76131D01*
X119268Y75637D01*
X120140Y75276D01*
X121058Y75056D01*
X122000Y74981D01*
X122942Y75056D01*
X123860Y75276D01*
X124732Y75637D01*
X125538Y76131D01*
X126256Y76744D01*
X126869Y77462D01*
X127000Y77676D01*
X127131Y77462D01*
X127744Y76744D01*
X128462Y76131D01*
X129268Y75637D01*
X130140Y75276D01*
X131058Y75056D01*
X132000Y74981D01*
X132942Y75056D01*
X133860Y75276D01*
X134732Y75637D01*
X135538Y76131D01*
X136256Y76744D01*
X136869Y77462D01*
X137363Y78268D01*
X137724Y79140D01*
X137944Y80058D01*
X138000Y81000D01*
X137944Y81942D01*
X137724Y82860D01*
X137524Y83342D01*
X145932Y91750D01*
X158993D01*
Y89513D01*
X158294Y89458D01*
X157605Y89293D01*
X156951Y89022D01*
X156347Y88652D01*
X155808Y88192D01*
X155348Y87653D01*
X154978Y87049D01*
X154707Y86395D01*
X154542Y85706D01*
X154486Y85000D01*
X154542Y84294D01*
X154707Y83605D01*
X154978Y82951D01*
X155348Y82347D01*
X155808Y81808D01*
X156347Y81348D01*
X156951Y80978D01*
X157605Y80707D01*
X158294Y80542D01*
X158993Y80487D01*
Y72250D01*
G37*
G36*
X139993Y400000D02*X204002D01*
Y142180D01*
X202653Y143529D01*
X202596Y143596D01*
X202327Y143826D01*
X202327Y143826D01*
X202212Y143896D01*
X202025Y144011D01*
X201793Y144107D01*
X201697Y144146D01*
X201353Y144229D01*
X201000Y144257D01*
X200912Y144250D01*
X184588D01*
X184558Y144322D01*
X184139Y145007D01*
X183617Y145617D01*
X183007Y146139D01*
X182322Y146558D01*
X181581Y146865D01*
X180800Y147053D01*
X180000Y147116D01*
X179200Y147053D01*
X178419Y146865D01*
X177678Y146558D01*
X176993Y146139D01*
X176383Y145617D01*
X175861Y145007D01*
X175442Y144322D01*
X175135Y143581D01*
X174947Y142800D01*
X174884Y142000D01*
X174947Y141200D01*
X175135Y140419D01*
X175442Y139678D01*
X175861Y138993D01*
X176383Y138383D01*
X176993Y137861D01*
X177678Y137442D01*
X178419Y137135D01*
X178980Y137000D01*
X178419Y136865D01*
X177678Y136558D01*
X176993Y136139D01*
X176383Y135617D01*
X175861Y135007D01*
X175442Y134322D01*
X175135Y133581D01*
X174947Y132800D01*
X174884Y132000D01*
X174947Y131200D01*
X175135Y130419D01*
X175442Y129678D01*
X175861Y128993D01*
X176383Y128383D01*
X176993Y127861D01*
X177678Y127442D01*
X178419Y127135D01*
X178602Y127091D01*
X176165Y127086D01*
X175935Y127031D01*
X175717Y126941D01*
X175516Y126817D01*
X175336Y126664D01*
X175183Y126484D01*
X175059Y126283D01*
X174969Y126065D01*
X174914Y125835D01*
X174900Y125600D01*
X174914Y118165D01*
X174969Y117935D01*
X175059Y117717D01*
X175183Y117516D01*
X175336Y117336D01*
X175516Y117183D01*
X175717Y117059D01*
X175935Y116969D01*
X176165Y116914D01*
X176400Y116900D01*
X183835Y116914D01*
X184065Y116969D01*
X184283Y117059D01*
X184484Y117183D01*
X184664Y117336D01*
X184817Y117516D01*
X184941Y117717D01*
X185031Y117935D01*
X185086Y118165D01*
X185100Y118400D01*
X185086Y125835D01*
X185031Y126065D01*
X184941Y126283D01*
X184817Y126484D01*
X184664Y126664D01*
X184484Y126817D01*
X184283Y126941D01*
X184065Y127031D01*
X183835Y127086D01*
X183600Y127100D01*
X181420Y127096D01*
X181581Y127135D01*
X182322Y127442D01*
X183007Y127861D01*
X183617Y128383D01*
X184139Y128993D01*
X184558Y129678D01*
X184865Y130419D01*
X185053Y131200D01*
X185100Y132000D01*
X185053Y132800D01*
X184865Y133581D01*
X184558Y134322D01*
X184139Y135007D01*
X183617Y135617D01*
X183007Y136139D01*
X182322Y136558D01*
X181581Y136865D01*
X181020Y137000D01*
X181581Y137135D01*
X182322Y137442D01*
X183007Y137861D01*
X183617Y138383D01*
X184139Y138993D01*
X184558Y139678D01*
X184588Y139750D01*
X200068D01*
X204002Y135816D01*
Y98180D01*
X201653Y100529D01*
X201596Y100596D01*
X201327Y100826D01*
X201327Y100826D01*
X201212Y100896D01*
X201025Y101011D01*
X200793Y101107D01*
X200697Y101146D01*
X200353Y101229D01*
X200000Y101257D01*
X199912Y101250D01*
X175088D01*
X175000Y101257D01*
X174647Y101229D01*
X174303Y101146D01*
X173975Y101011D01*
X173673Y100826D01*
X173673Y100826D01*
X173404Y100596D01*
X173347Y100529D01*
X171250Y98432D01*
Y100912D01*
X171257Y101000D01*
X171229Y101353D01*
X171146Y101697D01*
X171107Y101793D01*
X171011Y102025D01*
X170896Y102212D01*
X170826Y102327D01*
X170826Y102327D01*
X170596Y102596D01*
X170529Y102653D01*
X166653Y106529D01*
X166596Y106596D01*
X166327Y106826D01*
X166327Y106826D01*
X166212Y106896D01*
X166025Y107011D01*
X165793Y107107D01*
X165697Y107146D01*
X165353Y107229D01*
X165000Y107257D01*
X164912Y107250D01*
X151238D01*
X151236Y107985D01*
X151181Y108215D01*
X151091Y108433D01*
X150967Y108634D01*
X150814Y108814D01*
X150634Y108967D01*
X150433Y109091D01*
X150215Y109181D01*
X149985Y109236D01*
X149750Y109250D01*
X144015Y109236D01*
X143785Y109181D01*
X143567Y109091D01*
X143366Y108967D01*
X143186Y108814D01*
X143033Y108634D01*
X142909Y108433D01*
X142819Y108215D01*
X142764Y107985D01*
X142750Y107750D01*
X142764Y102015D01*
X142819Y101785D01*
X142909Y101567D01*
X143033Y101366D01*
X143186Y101186D01*
X143366Y101033D01*
X143567Y100909D01*
X143785Y100819D01*
X144015Y100764D01*
X144250Y100750D01*
X149985Y100764D01*
X150215Y100819D01*
X150433Y100909D01*
X150634Y101033D01*
X150814Y101186D01*
X150967Y101366D01*
X151091Y101567D01*
X151181Y101785D01*
X151236Y102015D01*
X151250Y102250D01*
X151249Y102750D01*
X164068D01*
X166750Y100068D01*
Y96250D01*
X145088D01*
X145000Y96257D01*
X144647Y96229D01*
X144303Y96146D01*
X143975Y96011D01*
X143673Y95826D01*
X143673Y95826D01*
X143404Y95596D01*
X143347Y95529D01*
X139993Y92175D01*
Y126750D01*
X146085D01*
X146173Y126674D01*
X146173Y126674D01*
X146361Y126559D01*
X146475Y126489D01*
X146803Y126354D01*
X147147Y126271D01*
X147500Y126243D01*
X147500D01*
X147853Y126271D01*
X148197Y126354D01*
X148293Y126393D01*
X148525Y126489D01*
X148712Y126604D01*
X148827Y126674D01*
X148951Y126780D01*
X149096Y126904D01*
X149202Y127028D01*
X149326Y127173D01*
X149441Y127361D01*
X149511Y127475D01*
X149646Y127803D01*
X149729Y128147D01*
Y128147D01*
X149757Y128500D01*
X149750Y128588D01*
Y197412D01*
X149757Y197500D01*
X149729Y197853D01*
X149646Y198197D01*
X149607Y198293D01*
X149511Y198525D01*
X149396Y198712D01*
X149326Y198827D01*
X149326Y198827D01*
X149096Y199096D01*
X149029Y199153D01*
X146653Y201529D01*
X146596Y201596D01*
X146327Y201826D01*
X146327Y201826D01*
X146212Y201896D01*
X146025Y202011D01*
X145793Y202107D01*
X145697Y202146D01*
X145353Y202229D01*
X145000Y202257D01*
X144912Y202250D01*
X143899D01*
X143652Y202653D01*
X143192Y203192D01*
X142653Y203652D01*
X142049Y204022D01*
X141395Y204293D01*
X140706Y204458D01*
X140000Y204514D01*
X139993Y204513D01*
Y205487D01*
X140000Y205486D01*
X140706Y205542D01*
X141395Y205707D01*
X142049Y205978D01*
X142653Y206348D01*
X143192Y206808D01*
X143652Y207347D01*
X144022Y207951D01*
X144293Y208605D01*
X144458Y209294D01*
X144500Y210000D01*
X144458Y210706D01*
X144293Y211395D01*
X144022Y212049D01*
X143652Y212653D01*
X143192Y213192D01*
X142653Y213652D01*
X142049Y214022D01*
X141395Y214293D01*
X140706Y214458D01*
X140000Y214514D01*
X139993Y214513D01*
Y215487D01*
X140000Y215486D01*
X140706Y215542D01*
X141395Y215707D01*
X142049Y215978D01*
X142653Y216348D01*
X143192Y216808D01*
X143652Y217347D01*
X144022Y217951D01*
X144293Y218605D01*
X144458Y219294D01*
X144500Y220000D01*
X144458Y220706D01*
X144293Y221395D01*
X144022Y222049D01*
X143652Y222653D01*
X143192Y223192D01*
X142653Y223652D01*
X142049Y224022D01*
X141395Y224293D01*
X140706Y224458D01*
X140000Y224514D01*
X139993Y224513D01*
Y225487D01*
X140000Y225486D01*
X140706Y225542D01*
X141395Y225707D01*
X142049Y225978D01*
X142653Y226348D01*
X143192Y226808D01*
X143652Y227347D01*
X144022Y227951D01*
X144293Y228605D01*
X144458Y229294D01*
X144500Y230000D01*
X144458Y230706D01*
X144293Y231395D01*
X144022Y232049D01*
X143652Y232653D01*
X143192Y233192D01*
X142653Y233652D01*
X142049Y234022D01*
X141395Y234293D01*
X140706Y234458D01*
X140000Y234514D01*
X139993Y234513D01*
Y235487D01*
X140000Y235486D01*
X140706Y235542D01*
X141395Y235707D01*
X142049Y235978D01*
X142653Y236348D01*
X143192Y236808D01*
X143652Y237347D01*
X144022Y237951D01*
X144293Y238605D01*
X144458Y239294D01*
X144500Y240000D01*
X144458Y240706D01*
X144293Y241395D01*
X144022Y242049D01*
X143652Y242653D01*
X143192Y243192D01*
X142653Y243652D01*
X142049Y244022D01*
X141395Y244293D01*
X140706Y244458D01*
X140000Y244514D01*
X139993Y244513D01*
Y264911D01*
X175434Y300352D01*
X175894Y300242D01*
X176600Y300186D01*
X177306Y300242D01*
X177995Y300407D01*
X178649Y300678D01*
X179253Y301048D01*
X179792Y301508D01*
X180252Y302047D01*
X180622Y302651D01*
X180893Y303305D01*
X181058Y303994D01*
X181100Y304700D01*
X181058Y305406D01*
X180893Y306095D01*
X180622Y306749D01*
X180252Y307353D01*
X179792Y307892D01*
X179253Y308352D01*
X178767Y308650D01*
X179253Y308948D01*
X179792Y309408D01*
X180252Y309947D01*
X180622Y310551D01*
X180893Y311205D01*
X181058Y311894D01*
X181100Y312600D01*
X181058Y313306D01*
X180893Y313995D01*
X180622Y314649D01*
X180252Y315253D01*
X179792Y315792D01*
X179253Y316252D01*
X178767Y316550D01*
X179253Y316848D01*
X179792Y317308D01*
X180252Y317847D01*
X180622Y318451D01*
X180893Y319105D01*
X181058Y319794D01*
X181100Y320500D01*
X181058Y321206D01*
X180893Y321895D01*
X180622Y322549D01*
X180252Y323153D01*
X179792Y323692D01*
X179253Y324152D01*
X178767Y324450D01*
X179253Y324748D01*
X179792Y325208D01*
X180252Y325747D01*
X180622Y326351D01*
X180893Y327005D01*
X181058Y327694D01*
X181100Y328400D01*
X181058Y329106D01*
X180893Y329795D01*
X180622Y330449D01*
X180252Y331053D01*
X179792Y331592D01*
X179253Y332052D01*
X178767Y332350D01*
X179253Y332648D01*
X179792Y333108D01*
X180252Y333647D01*
X180622Y334251D01*
X180893Y334905D01*
X181058Y335594D01*
X181100Y336300D01*
X181058Y337006D01*
X180893Y337695D01*
X180622Y338349D01*
X180252Y338953D01*
X179792Y339492D01*
X179253Y339952D01*
X178767Y340250D01*
X179253Y340548D01*
X179792Y341008D01*
X180252Y341547D01*
X180622Y342151D01*
X180893Y342805D01*
X181058Y343494D01*
X181100Y344200D01*
X181058Y344906D01*
X180893Y345595D01*
X180622Y346249D01*
X180252Y346853D01*
X179792Y347392D01*
X179253Y347852D01*
X178767Y348150D01*
X179253Y348448D01*
X179792Y348908D01*
X180252Y349447D01*
X180622Y350051D01*
X180893Y350705D01*
X181058Y351394D01*
X181100Y352100D01*
X181058Y352806D01*
X180893Y353495D01*
X180622Y354149D01*
X180252Y354753D01*
X179792Y355292D01*
X179253Y355752D01*
X178767Y356050D01*
X179253Y356348D01*
X179792Y356808D01*
X180252Y357347D01*
X180622Y357951D01*
X180893Y358605D01*
X181058Y359294D01*
X181100Y360000D01*
X181058Y360706D01*
X180893Y361395D01*
X180622Y362049D01*
X180252Y362653D01*
X179792Y363192D01*
X179253Y363652D01*
X178767Y363950D01*
X179253Y364248D01*
X179792Y364708D01*
X180252Y365247D01*
X180622Y365851D01*
X180893Y366505D01*
X181058Y367194D01*
X181100Y367900D01*
X181058Y368606D01*
X180893Y369295D01*
X180622Y369949D01*
X180252Y370553D01*
X179792Y371092D01*
X179253Y371552D01*
X178767Y371850D01*
X179253Y372148D01*
X179792Y372608D01*
X180252Y373147D01*
X180622Y373751D01*
X180893Y374405D01*
X181058Y375094D01*
X181100Y375800D01*
X181058Y376506D01*
X180893Y377195D01*
X180622Y377849D01*
X180252Y378453D01*
X179792Y378992D01*
X179253Y379452D01*
X178649Y379822D01*
X177995Y380093D01*
X177306Y380258D01*
X176600Y380314D01*
X175894Y380258D01*
X175205Y380093D01*
X174551Y379822D01*
X173947Y379452D01*
X173408Y378992D01*
X172948Y378453D01*
X172578Y377849D01*
X172307Y377195D01*
X172142Y376506D01*
X172086Y375800D01*
X172142Y375094D01*
X172307Y374405D01*
X172578Y373751D01*
X172948Y373147D01*
X173408Y372608D01*
X173947Y372148D01*
X174433Y371850D01*
X173947Y371552D01*
X173408Y371092D01*
X172948Y370553D01*
X172701Y370150D01*
X160488D01*
X160400Y370157D01*
X160047Y370129D01*
X159703Y370046D01*
X159375Y369911D01*
X159073Y369726D01*
X159073Y369726D01*
X158804Y369496D01*
X158747Y369429D01*
X139993Y350675D01*
Y400000D01*
G37*
G36*
Y204513D02*X139294Y204458D01*
X138834Y204348D01*
X134750Y208432D01*
Y259668D01*
X139993Y264911D01*
Y244513D01*
X139294Y244458D01*
X138605Y244293D01*
X137951Y244022D01*
X137347Y243652D01*
X136808Y243192D01*
X136348Y242653D01*
X135978Y242049D01*
X135707Y241395D01*
X135542Y240706D01*
X135486Y240000D01*
X135542Y239294D01*
X135707Y238605D01*
X135978Y237951D01*
X136348Y237347D01*
X136808Y236808D01*
X137347Y236348D01*
X137951Y235978D01*
X138605Y235707D01*
X139294Y235542D01*
X139993Y235487D01*
Y234513D01*
X139294Y234458D01*
X138605Y234293D01*
X137951Y234022D01*
X137347Y233652D01*
X136808Y233192D01*
X136348Y232653D01*
X135978Y232049D01*
X135707Y231395D01*
X135542Y230706D01*
X135486Y230000D01*
X135542Y229294D01*
X135707Y228605D01*
X135978Y227951D01*
X136348Y227347D01*
X136808Y226808D01*
X137347Y226348D01*
X137951Y225978D01*
X138605Y225707D01*
X139294Y225542D01*
X139993Y225487D01*
Y224513D01*
X139294Y224458D01*
X138605Y224293D01*
X137951Y224022D01*
X137347Y223652D01*
X136808Y223192D01*
X136348Y222653D01*
X135978Y222049D01*
X135707Y221395D01*
X135542Y220706D01*
X135486Y220000D01*
X135542Y219294D01*
X135707Y218605D01*
X135978Y217951D01*
X136348Y217347D01*
X136808Y216808D01*
X137347Y216348D01*
X137951Y215978D01*
X138605Y215707D01*
X139294Y215542D01*
X139993Y215487D01*
Y214513D01*
X139294Y214458D01*
X138605Y214293D01*
X137951Y214022D01*
X137347Y213652D01*
X136808Y213192D01*
X136348Y212653D01*
X135978Y212049D01*
X135707Y211395D01*
X135542Y210706D01*
X135486Y210000D01*
X135542Y209294D01*
X135707Y208605D01*
X135978Y207951D01*
X136348Y207347D01*
X136808Y206808D01*
X137347Y206348D01*
X137951Y205978D01*
X138605Y205707D01*
X139294Y205542D01*
X139993Y205487D01*
Y204513D01*
G37*
G36*
Y92175D02*X134342Y86524D01*
X133860Y86724D01*
X132942Y86944D01*
X132000Y87019D01*
X131058Y86944D01*
X130140Y86724D01*
X129268Y86363D01*
X128462Y85869D01*
X127744Y85256D01*
X127131Y84538D01*
X127000Y84324D01*
X126869Y84538D01*
X126256Y85256D01*
X125538Y85869D01*
X124732Y86363D01*
X123860Y86724D01*
X122942Y86944D01*
X122000Y87019D01*
X121058Y86944D01*
X120140Y86724D01*
X119268Y86363D01*
X118462Y85869D01*
X117987Y85463D01*
X117986Y85735D01*
X117931Y85965D01*
X117841Y86183D01*
X117717Y86384D01*
X117564Y86564D01*
X117384Y86717D01*
X117183Y86841D01*
X116965Y86931D01*
X116735Y86986D01*
X116500Y87000D01*
X109993Y86990D01*
Y115230D01*
X120964Y126750D01*
X139993D01*
Y92175D01*
G37*
G36*
X109993Y400000D02*X139993D01*
Y350675D01*
X114971Y325653D01*
X114904Y325596D01*
X114674Y325327D01*
X114489Y325025D01*
X114354Y324697D01*
X114271Y324353D01*
X114271Y324353D01*
X114243Y324000D01*
X114250Y323912D01*
Y247432D01*
X111314Y244496D01*
X109993Y244493D01*
Y400000D01*
G37*
G36*
X99677Y27556D02*X104590Y32469D01*
X105111Y32024D01*
X105769Y31621D01*
X106481Y31325D01*
X107231Y31145D01*
X108000Y31085D01*
X108769Y31145D01*
X109519Y31325D01*
X109993Y31522D01*
Y0D01*
X99677D01*
Y4985D01*
X99685Y4985D01*
X100470Y5046D01*
X101235Y5230D01*
X101962Y5531D01*
X102633Y5942D01*
X103231Y6454D01*
X103743Y7052D01*
X104154Y7723D01*
X104455Y8450D01*
X104639Y9215D01*
X104685Y10000D01*
X104639Y10785D01*
X104455Y11550D01*
X104154Y12277D01*
X103743Y12948D01*
X103231Y13546D01*
X102633Y14058D01*
X101962Y14469D01*
X101235Y14770D01*
X100470Y14954D01*
X99685Y15015D01*
X99677Y15015D01*
Y27556D01*
G37*
G36*
Y67768D02*X100000Y67743D01*
X100088Y67750D01*
X109993D01*
Y40478D01*
X109519Y40675D01*
X108769Y40855D01*
X108000Y40915D01*
X107231Y40855D01*
X106481Y40675D01*
X105769Y40379D01*
X105111Y39976D01*
X104524Y39476D01*
X104024Y38889D01*
X103621Y38231D01*
X103325Y37519D01*
X103145Y36769D01*
X103085Y36000D01*
X103143Y35264D01*
X99677Y31799D01*
Y45512D01*
X100000Y45486D01*
X100706Y45542D01*
X101395Y45707D01*
X102049Y45978D01*
X102653Y46348D01*
X103192Y46808D01*
X103652Y47347D01*
X104022Y47951D01*
X104293Y48605D01*
X104458Y49294D01*
X104500Y50000D01*
X104458Y50706D01*
X104293Y51395D01*
X104022Y52049D01*
X103652Y52653D01*
X103192Y53192D01*
X102653Y53652D01*
X102049Y54022D01*
X101395Y54293D01*
X100706Y54458D01*
X100000Y54514D01*
X99677Y54488D01*
Y67768D01*
G37*
G36*
Y75512D02*X100000Y75486D01*
X100706Y75542D01*
X101395Y75707D01*
X102049Y75978D01*
X102653Y76348D01*
X103192Y76808D01*
X103652Y77347D01*
X104022Y77951D01*
X104293Y78605D01*
X104458Y79294D01*
X104500Y80000D01*
X104458Y80706D01*
X104293Y81395D01*
X104022Y82049D01*
X103652Y82653D01*
X103192Y83192D01*
X102653Y83652D01*
X102250Y83899D01*
Y107100D01*
X109993Y115230D01*
Y86990D01*
X107265Y86986D01*
X107035Y86931D01*
X106817Y86841D01*
X106616Y86717D01*
X106436Y86564D01*
X106283Y86384D01*
X106159Y86183D01*
X106069Y85965D01*
X106014Y85735D01*
X106000Y85500D01*
X106014Y76265D01*
X106069Y76035D01*
X106159Y75817D01*
X106283Y75616D01*
X106436Y75436D01*
X106616Y75283D01*
X106817Y75159D01*
X107035Y75069D01*
X107265Y75014D01*
X107500Y75000D01*
X109993Y75004D01*
Y72250D01*
X100932D01*
X99677Y73505D01*
Y75512D01*
G37*
G36*
Y166495D02*X108834Y175652D01*
X109294Y175542D01*
X109993Y175487D01*
Y121755D01*
X99677Y110924D01*
Y166495D01*
G37*
G36*
Y226495D02*X108686Y235504D01*
X109993Y235507D01*
Y234513D01*
X109294Y234458D01*
X108605Y234293D01*
X107951Y234022D01*
X107347Y233652D01*
X106808Y233192D01*
X106348Y232653D01*
X105978Y232049D01*
X105707Y231395D01*
X105542Y230706D01*
X105486Y230000D01*
X105542Y229294D01*
X105707Y228605D01*
X105978Y227951D01*
X106348Y227347D01*
X106808Y226808D01*
X107347Y226348D01*
X107951Y225978D01*
X108605Y225707D01*
X109294Y225542D01*
X109993Y225487D01*
Y224513D01*
X109294Y224458D01*
X108605Y224293D01*
X107951Y224022D01*
X107347Y223652D01*
X106808Y223192D01*
X106348Y222653D01*
X105978Y222049D01*
X105707Y221395D01*
X105542Y220706D01*
X105486Y220000D01*
X105542Y219294D01*
X105707Y218605D01*
X105978Y217951D01*
X106348Y217347D01*
X106808Y216808D01*
X107347Y216348D01*
X107750Y216101D01*
Y213899D01*
X107347Y213652D01*
X106808Y213192D01*
X106348Y212653D01*
X105978Y212049D01*
X105707Y211395D01*
X105542Y210706D01*
X105486Y210000D01*
X105542Y209294D01*
X105707Y208605D01*
X105978Y207951D01*
X106348Y207347D01*
X106808Y206808D01*
X107347Y206348D01*
X107951Y205978D01*
X108605Y205707D01*
X109294Y205542D01*
X109993Y205487D01*
Y204513D01*
X109294Y204458D01*
X108605Y204293D01*
X107951Y204022D01*
X107347Y203652D01*
X106808Y203192D01*
X106348Y202653D01*
X105978Y202049D01*
X105707Y201395D01*
X105542Y200706D01*
X105486Y200000D01*
X105542Y199294D01*
X105707Y198605D01*
X105978Y197951D01*
X106348Y197347D01*
X106808Y196808D01*
X107347Y196348D01*
X107951Y195978D01*
X108605Y195707D01*
X109294Y195542D01*
X109993Y195487D01*
Y194513D01*
X109294Y194458D01*
X108605Y194293D01*
X107951Y194022D01*
X107347Y193652D01*
X106808Y193192D01*
X106348Y192653D01*
X105978Y192049D01*
X105707Y191395D01*
X105542Y190706D01*
X105486Y190000D01*
X105542Y189294D01*
X105707Y188605D01*
X105978Y187951D01*
X106348Y187347D01*
X106808Y186808D01*
X107347Y186348D01*
X107951Y185978D01*
X108605Y185707D01*
X109294Y185542D01*
X109993Y185487D01*
Y184513D01*
X109294Y184458D01*
X108605Y184293D01*
X107951Y184022D01*
X107347Y183652D01*
X106808Y183192D01*
X106348Y182653D01*
X105978Y182049D01*
X105707Y181395D01*
X105542Y180706D01*
X105486Y180000D01*
X105542Y179294D01*
X105652Y178834D01*
X99677Y172859D01*
Y226495D01*
G37*
G36*
X79993Y4985D02*X80000Y4985D01*
X80785Y5046D01*
X81550Y5230D01*
X82277Y5531D01*
X82948Y5942D01*
X83546Y6454D01*
X84058Y7052D01*
X84469Y7723D01*
X84770Y8450D01*
X84954Y9215D01*
X85000Y10000D01*
X84954Y10785D01*
X84770Y11550D01*
X84469Y12277D01*
X84442Y12321D01*
X99677Y27556D01*
Y15015D01*
X98900Y14954D01*
X98135Y14770D01*
X97408Y14469D01*
X96737Y14058D01*
X96139Y13546D01*
X95627Y12948D01*
X95216Y12277D01*
X94915Y11550D01*
X94731Y10785D01*
X94670Y10000D01*
X94731Y9215D01*
X94915Y8450D01*
X95216Y7723D01*
X95627Y7052D01*
X96139Y6454D01*
X96737Y5942D01*
X97408Y5531D01*
X98135Y5230D01*
X98900Y5046D01*
X99677Y4985D01*
Y0D01*
X79993D01*
Y4985D01*
G37*
G36*
X89993Y75487D02*X90000Y75486D01*
X90706Y75542D01*
X91166Y75652D01*
X98347Y68471D01*
X98404Y68404D01*
X98673Y68174D01*
X98673Y68174D01*
X98861Y68059D01*
X98975Y67989D01*
X99303Y67854D01*
X99647Y67771D01*
X99647D01*
X99677Y67768D01*
Y54488D01*
X99294Y54458D01*
X98605Y54293D01*
X97951Y54022D01*
X97347Y53652D01*
X96808Y53192D01*
X96348Y52653D01*
X95978Y52049D01*
X95707Y51395D01*
X95542Y50706D01*
X95486Y50000D01*
X95542Y49294D01*
X95707Y48605D01*
X95978Y47951D01*
X96348Y47347D01*
X96808Y46808D01*
X97347Y46348D01*
X97951Y45978D01*
X98605Y45707D01*
X99294Y45542D01*
X99677Y45512D01*
Y31799D01*
X89993Y22114D01*
Y45487D01*
X90000Y45486D01*
X90706Y45542D01*
X91395Y45707D01*
X92049Y45978D01*
X92653Y46348D01*
X93192Y46808D01*
X93652Y47347D01*
X94022Y47951D01*
X94293Y48605D01*
X94458Y49294D01*
X94500Y50000D01*
X94458Y50706D01*
X94293Y51395D01*
X94022Y52049D01*
X93652Y52653D01*
X93192Y53192D01*
X92653Y53652D01*
X92049Y54022D01*
X91395Y54293D01*
X90706Y54458D01*
X90000Y54514D01*
X89993Y54513D01*
Y75487D01*
G37*
G36*
Y156811D02*X99677Y166495D01*
Y110924D01*
X98450Y109636D01*
X98404Y109596D01*
X98174Y109327D01*
X98158Y109300D01*
X98142Y109282D01*
X98067Y109152D01*
X97989Y109025D01*
X97978Y108999D01*
X97965Y108975D01*
X97911Y108836D01*
X97854Y108697D01*
X97847Y108671D01*
X97837Y108645D01*
X97806Y108499D01*
X97771Y108353D01*
X97769Y108329D01*
X97763Y108299D01*
X97744Y107945D01*
X97750Y107884D01*
Y83899D01*
X97347Y83652D01*
X96808Y83192D01*
X96348Y82653D01*
X95978Y82049D01*
X95707Y81395D01*
X95542Y80706D01*
X95486Y80000D01*
X95542Y79294D01*
X95707Y78605D01*
X95978Y77951D01*
X96348Y77347D01*
X96808Y76808D01*
X97347Y76348D01*
X97951Y75978D01*
X98605Y75707D01*
X99294Y75542D01*
X99677Y75512D01*
Y73505D01*
X94348Y78834D01*
X94458Y79294D01*
X94500Y80000D01*
X94458Y80706D01*
X94293Y81395D01*
X94022Y82049D01*
X93652Y82653D01*
X93192Y83192D01*
X92653Y83652D01*
X92049Y84022D01*
X91395Y84293D01*
X90706Y84458D01*
X90000Y84514D01*
X89993Y84513D01*
Y156811D01*
G37*
G36*
X79993Y146811D02*X89993Y156811D01*
Y84513D01*
X89294Y84458D01*
X88605Y84293D01*
X87951Y84022D01*
X87347Y83652D01*
X86808Y83192D01*
X86348Y82653D01*
X85978Y82049D01*
X85707Y81395D01*
X85542Y80706D01*
X85486Y80000D01*
X85542Y79294D01*
X85707Y78605D01*
X85978Y77951D01*
X86348Y77347D01*
X86808Y76808D01*
X87347Y76348D01*
X87951Y75978D01*
X88605Y75707D01*
X89294Y75542D01*
X89993Y75487D01*
Y54513D01*
X89294Y54458D01*
X88605Y54293D01*
X87951Y54022D01*
X87347Y53652D01*
X86808Y53192D01*
X86348Y52653D01*
X85978Y52049D01*
X85707Y51395D01*
X85542Y50706D01*
X85486Y50000D01*
X85542Y49294D01*
X85707Y48605D01*
X85978Y47951D01*
X86348Y47347D01*
X86808Y46808D01*
X87347Y46348D01*
X87951Y45978D01*
X88605Y45707D01*
X89294Y45542D01*
X89993Y45487D01*
Y22114D01*
X82321Y14442D01*
X82277Y14469D01*
X81550Y14770D01*
X80785Y14954D01*
X80000Y15015D01*
X79993Y15015D01*
Y45507D01*
X83235Y45514D01*
X83465Y45569D01*
X83683Y45659D01*
X83884Y45783D01*
X84064Y45936D01*
X84217Y46116D01*
X84341Y46317D01*
X84431Y46535D01*
X84486Y46765D01*
X84500Y47000D01*
X84486Y53235D01*
X84431Y53465D01*
X84341Y53683D01*
X84217Y53884D01*
X84064Y54064D01*
X83884Y54217D01*
X83683Y54341D01*
X83465Y54431D01*
X83235Y54486D01*
X83000Y54500D01*
X79993Y54493D01*
Y75487D01*
X80000Y75486D01*
X80706Y75542D01*
X81395Y75707D01*
X82049Y75978D01*
X82653Y76348D01*
X83192Y76808D01*
X83652Y77347D01*
X84022Y77951D01*
X84293Y78605D01*
X84458Y79294D01*
X84500Y80000D01*
X84458Y80706D01*
X84293Y81395D01*
X84022Y82049D01*
X83652Y82653D01*
X83192Y83192D01*
X82653Y83652D01*
X82049Y84022D01*
X81395Y84293D01*
X80706Y84458D01*
X80000Y84514D01*
X79993Y84513D01*
Y146811D01*
G37*
G36*
Y206811D02*X99677Y226495D01*
Y172859D01*
X79993Y153175D01*
Y206811D01*
G37*
G36*
Y15015D02*X79215Y14954D01*
X78450Y14770D01*
X77723Y14469D01*
X77679Y14442D01*
X74400Y17721D01*
Y36000D01*
X74386Y36235D01*
X74331Y36465D01*
X74241Y36683D01*
X74117Y36884D01*
X73964Y37064D01*
X73784Y37217D01*
X73583Y37341D01*
X73365Y37431D01*
X73135Y37486D01*
X72900Y37505D01*
X72890Y37504D01*
X72886Y39635D01*
X72831Y39865D01*
X72741Y40083D01*
X72617Y40284D01*
X72520Y40398D01*
X77623Y45501D01*
X79993Y45507D01*
Y15015D01*
G37*
G36*
X65000Y31101D02*X71400Y31113D01*
Y17159D01*
X71395Y17100D01*
X71414Y16865D01*
X71469Y16635D01*
X71559Y16417D01*
X71683Y16216D01*
X71836Y16036D01*
X71881Y15998D01*
X75558Y12321D01*
X75531Y12277D01*
X75230Y11550D01*
X75046Y10785D01*
X74985Y10000D01*
X75046Y9215D01*
X75230Y8450D01*
X75531Y7723D01*
X75942Y7052D01*
X76454Y6454D01*
X77052Y5942D01*
X77723Y5531D01*
X78450Y5230D01*
X79215Y5046D01*
X79993Y4985D01*
Y0D01*
X65000D01*
Y31101D01*
G37*
G36*
Y108237D02*X65667Y108289D01*
X66317Y108446D01*
X66935Y108702D01*
X67506Y109051D01*
X68014Y109486D01*
X68449Y109994D01*
X68798Y110565D01*
X69054Y111183D01*
X69211Y111833D01*
X69250Y112500D01*
X69211Y113167D01*
X69054Y113817D01*
X68798Y114435D01*
X68449Y115006D01*
X68014Y115514D01*
X67506Y115949D01*
X67250Y116106D01*
Y134068D01*
X79993Y146811D01*
Y84513D01*
X79294Y84458D01*
X78605Y84293D01*
X77951Y84022D01*
X77347Y83652D01*
X76808Y83192D01*
X76348Y82653D01*
X75978Y82049D01*
X75707Y81395D01*
X75542Y80706D01*
X75486Y80000D01*
X75542Y79294D01*
X75707Y78605D01*
X75978Y77951D01*
X76348Y77347D01*
X76808Y76808D01*
X77347Y76348D01*
X77951Y75978D01*
X78605Y75707D01*
X79294Y75542D01*
X79993Y75487D01*
Y54493D01*
X76765Y54486D01*
X76535Y54431D01*
X76317Y54341D01*
X76116Y54217D01*
X75936Y54064D01*
X75783Y53884D01*
X75659Y53683D01*
X75569Y53465D01*
X75514Y53235D01*
X75500Y53000D01*
X75512Y47633D01*
X68773Y40895D01*
X65000Y40887D01*
Y58257D01*
X67985Y58264D01*
X68215Y58319D01*
X68433Y58409D01*
X68634Y58533D01*
X68814Y58686D01*
X68967Y58866D01*
X69091Y59067D01*
X69181Y59285D01*
X69236Y59515D01*
X69250Y59750D01*
X69236Y65485D01*
X69181Y65715D01*
X69091Y65933D01*
X68967Y66134D01*
X68814Y66314D01*
X68634Y66467D01*
X68433Y66591D01*
X68215Y66681D01*
X67985Y66736D01*
X67750Y66750D01*
X65000Y66743D01*
Y108237D01*
G37*
G36*
Y191818D02*X79993Y206811D01*
Y153175D01*
X65000Y138182D01*
Y191818D01*
G37*
G36*
Y0D02*X59992D01*
Y4985D01*
X60000Y4985D01*
X60785Y5046D01*
X61550Y5230D01*
X62277Y5531D01*
X62948Y5942D01*
X63546Y6454D01*
X64058Y7052D01*
X64469Y7723D01*
X64770Y8450D01*
X64954Y9215D01*
X65000Y10000D01*
Y0D01*
G37*
G36*
X59992Y186810D02*X65000Y191818D01*
Y138182D01*
X63471Y136653D01*
X63404Y136596D01*
X63174Y136327D01*
X62989Y136025D01*
X62854Y135697D01*
X62771Y135353D01*
X62771Y135353D01*
X62743Y135000D01*
X62750Y134912D01*
Y116106D01*
X62494Y115949D01*
X61986Y115514D01*
X61551Y115006D01*
X61202Y114435D01*
X60946Y113817D01*
X60789Y113167D01*
X60737Y112500D01*
X60789Y111833D01*
X60946Y111183D01*
X61202Y110565D01*
X61551Y109994D01*
X61986Y109486D01*
X62494Y109051D01*
X63065Y108702D01*
X63683Y108446D01*
X64333Y108289D01*
X65000Y108237D01*
Y66743D01*
X62015Y66736D01*
X61785Y66681D01*
X61567Y66591D01*
X61366Y66467D01*
X61186Y66314D01*
X61033Y66134D01*
X60909Y65933D01*
X60819Y65715D01*
X60764Y65485D01*
X60750Y65250D01*
X60764Y59515D01*
X60819Y59285D01*
X60909Y59067D01*
X61033Y58866D01*
X61186Y58686D01*
X61366Y58533D01*
X61567Y58409D01*
X61785Y58319D01*
X62015Y58264D01*
X62250Y58250D01*
X65000Y58257D01*
Y40887D01*
X64365Y40886D01*
X64135Y40831D01*
X63917Y40741D01*
X63716Y40617D01*
X63536Y40464D01*
X63383Y40284D01*
X63259Y40083D01*
X63169Y39865D01*
X63114Y39635D01*
X63100Y39400D01*
X63114Y32365D01*
X63169Y32135D01*
X63259Y31917D01*
X63383Y31716D01*
X63536Y31536D01*
X63716Y31383D01*
X63917Y31259D01*
X64135Y31169D01*
X64365Y31114D01*
X64600Y31100D01*
X65000Y31101D01*
Y10000D01*
X64954Y10785D01*
X64770Y11550D01*
X64469Y12277D01*
X64058Y12948D01*
X63546Y13546D01*
X62948Y14058D01*
X62277Y14469D01*
X61550Y14770D01*
X60785Y14954D01*
X60000Y15015D01*
X59992Y15015D01*
Y186810D01*
G37*
G36*
X38983Y5178D02*X39530Y5046D01*
X40315Y4985D01*
X41100Y5046D01*
X41865Y5230D01*
X42592Y5531D01*
X43263Y5942D01*
X43861Y6454D01*
X44373Y7052D01*
X44784Y7723D01*
X45085Y8450D01*
X45269Y9215D01*
X45315Y10000D01*
X45269Y10785D01*
X45085Y11550D01*
X45074Y11577D01*
X55529Y22032D01*
X55596Y22089D01*
X55826Y22358D01*
X55826Y22358D01*
X56011Y22660D01*
X56146Y22988D01*
X56229Y23332D01*
X56257Y23685D01*
X56250Y23773D01*
Y183068D01*
X59992Y186810D01*
Y15015D01*
X59215Y14954D01*
X58450Y14770D01*
X57723Y14469D01*
X57052Y14058D01*
X56454Y13546D01*
X55942Y12948D01*
X55531Y12277D01*
X55230Y11550D01*
X55046Y10785D01*
X54985Y10000D01*
X55046Y9215D01*
X55230Y8450D01*
X55531Y7723D01*
X55942Y7052D01*
X56454Y6454D01*
X57052Y5942D01*
X57723Y5531D01*
X58450Y5230D01*
X59215Y5046D01*
X59992Y4985D01*
Y0D01*
X38983D01*
Y5178D01*
G37*
G36*
X89993Y400000D02*X109993D01*
Y244493D01*
X106765Y244486D01*
X106535Y244431D01*
X106317Y244341D01*
X106116Y244217D01*
X105936Y244064D01*
X105783Y243884D01*
X105659Y243683D01*
X105569Y243465D01*
X105514Y243235D01*
X105500Y243000D01*
X105510Y238692D01*
X89993Y223175D01*
Y300187D01*
X90000Y300186D01*
X90706Y300242D01*
X91395Y300407D01*
X92049Y300678D01*
X92653Y301048D01*
X93192Y301508D01*
X93652Y302047D01*
X94022Y302651D01*
X94293Y303305D01*
X94458Y303994D01*
X94500Y304700D01*
X94458Y305406D01*
X94293Y306095D01*
X94022Y306749D01*
X93652Y307353D01*
X93192Y307892D01*
X92653Y308352D01*
X92167Y308650D01*
X92653Y308948D01*
X93192Y309408D01*
X93652Y309947D01*
X94022Y310551D01*
X94293Y311205D01*
X94458Y311894D01*
X94500Y312600D01*
X94458Y313306D01*
X94293Y313995D01*
X94022Y314649D01*
X93652Y315253D01*
X93192Y315792D01*
X92653Y316252D01*
X92167Y316550D01*
X92653Y316848D01*
X93192Y317308D01*
X93652Y317847D01*
X94022Y318451D01*
X94293Y319105D01*
X94458Y319794D01*
X94500Y320500D01*
X94458Y321206D01*
X94293Y321895D01*
X94022Y322549D01*
X93652Y323153D01*
X93192Y323692D01*
X92653Y324152D01*
X92167Y324450D01*
X92653Y324748D01*
X93192Y325208D01*
X93652Y325747D01*
X94022Y326351D01*
X94293Y327005D01*
X94458Y327694D01*
X94500Y328400D01*
X94458Y329106D01*
X94293Y329795D01*
X94022Y330449D01*
X93652Y331053D01*
X93192Y331592D01*
X92653Y332052D01*
X92167Y332350D01*
X92653Y332648D01*
X93192Y333108D01*
X93652Y333647D01*
X94022Y334251D01*
X94293Y334905D01*
X94458Y335594D01*
X94500Y336300D01*
X94458Y337006D01*
X94293Y337695D01*
X94022Y338349D01*
X93652Y338953D01*
X93192Y339492D01*
X92653Y339952D01*
X92167Y340250D01*
X92653Y340548D01*
X93192Y341008D01*
X93652Y341547D01*
X94022Y342151D01*
X94293Y342805D01*
X94458Y343494D01*
X94500Y344200D01*
X94458Y344906D01*
X94293Y345595D01*
X94022Y346249D01*
X93652Y346853D01*
X93192Y347392D01*
X92653Y347852D01*
X92167Y348150D01*
X92653Y348448D01*
X93192Y348908D01*
X93652Y349447D01*
X94022Y350051D01*
X94293Y350705D01*
X94458Y351394D01*
X94500Y352100D01*
X94458Y352806D01*
X94293Y353495D01*
X94022Y354149D01*
X93652Y354753D01*
X93192Y355292D01*
X92653Y355752D01*
X92167Y356050D01*
X92653Y356348D01*
X93192Y356808D01*
X93652Y357347D01*
X94022Y357951D01*
X94293Y358605D01*
X94458Y359294D01*
X94500Y360000D01*
X94458Y360706D01*
X94293Y361395D01*
X94022Y362049D01*
X93652Y362653D01*
X93192Y363192D01*
X92653Y363652D01*
X92167Y363950D01*
X92653Y364248D01*
X93192Y364708D01*
X93652Y365247D01*
X94022Y365851D01*
X94293Y366505D01*
X94458Y367194D01*
X94500Y367900D01*
X94458Y368606D01*
X94293Y369295D01*
X94022Y369949D01*
X93652Y370553D01*
X93192Y371092D01*
X92933Y371313D01*
X93235Y371314D01*
X93465Y371369D01*
X93683Y371459D01*
X93884Y371583D01*
X94064Y371736D01*
X94217Y371916D01*
X94341Y372117D01*
X94431Y372335D01*
X94486Y372565D01*
X94500Y372800D01*
X94486Y379035D01*
X94431Y379265D01*
X94341Y379483D01*
X94217Y379684D01*
X94064Y379864D01*
X93884Y380017D01*
X93683Y380141D01*
X93465Y380231D01*
X93235Y380286D01*
X93000Y380300D01*
X89993Y380293D01*
Y400000D01*
G37*
G36*
X38983D02*X89993D01*
Y380293D01*
X86765Y380286D01*
X86535Y380231D01*
X86317Y380141D01*
X86116Y380017D01*
X85936Y379864D01*
X85783Y379684D01*
X85659Y379483D01*
X85569Y379265D01*
X85514Y379035D01*
X85500Y378800D01*
X85514Y372565D01*
X85569Y372335D01*
X85659Y372117D01*
X85783Y371916D01*
X85936Y371736D01*
X86116Y371583D01*
X86317Y371459D01*
X86535Y371369D01*
X86765Y371314D01*
X87000Y371300D01*
X87052Y371300D01*
X86808Y371092D01*
X86348Y370553D01*
X85978Y369949D01*
X85707Y369295D01*
X85542Y368606D01*
X85486Y367900D01*
X85542Y367194D01*
X85707Y366505D01*
X85978Y365851D01*
X86348Y365247D01*
X86808Y364708D01*
X87347Y364248D01*
X87833Y363950D01*
X87347Y363652D01*
X86808Y363192D01*
X86348Y362653D01*
X85978Y362049D01*
X85707Y361395D01*
X85542Y360706D01*
X85486Y360000D01*
X85542Y359294D01*
X85707Y358605D01*
X85978Y357951D01*
X86348Y357347D01*
X86808Y356808D01*
X87347Y356348D01*
X87833Y356050D01*
X87347Y355752D01*
X86808Y355292D01*
X86348Y354753D01*
X85978Y354149D01*
X85707Y353495D01*
X85542Y352806D01*
X85486Y352100D01*
X85542Y351394D01*
X85707Y350705D01*
X85978Y350051D01*
X86348Y349447D01*
X86808Y348908D01*
X87347Y348448D01*
X87833Y348150D01*
X87347Y347852D01*
X86808Y347392D01*
X86348Y346853D01*
X85978Y346249D01*
X85707Y345595D01*
X85542Y344906D01*
X85486Y344200D01*
X85542Y343494D01*
X85707Y342805D01*
X85978Y342151D01*
X86348Y341547D01*
X86808Y341008D01*
X87347Y340548D01*
X87833Y340250D01*
X87347Y339952D01*
X86808Y339492D01*
X86348Y338953D01*
X85978Y338349D01*
X85707Y337695D01*
X85542Y337006D01*
X85486Y336300D01*
X85542Y335594D01*
X85707Y334905D01*
X85978Y334251D01*
X86348Y333647D01*
X86808Y333108D01*
X87347Y332648D01*
X87833Y332350D01*
X87347Y332052D01*
X86808Y331592D01*
X86348Y331053D01*
X85978Y330449D01*
X85707Y329795D01*
X85542Y329106D01*
X85486Y328400D01*
X85542Y327694D01*
X85707Y327005D01*
X85978Y326351D01*
X86348Y325747D01*
X86808Y325208D01*
X87347Y324748D01*
X87833Y324450D01*
X87347Y324152D01*
X86808Y323692D01*
X86348Y323153D01*
X85978Y322549D01*
X85707Y321895D01*
X85542Y321206D01*
X85486Y320500D01*
X85542Y319794D01*
X85707Y319105D01*
X85978Y318451D01*
X86348Y317847D01*
X86808Y317308D01*
X87347Y316848D01*
X87833Y316550D01*
X87347Y316252D01*
X86808Y315792D01*
X86348Y315253D01*
X85978Y314649D01*
X85707Y313995D01*
X85542Y313306D01*
X85486Y312600D01*
X85542Y311894D01*
X85707Y311205D01*
X85978Y310551D01*
X86348Y309947D01*
X86808Y309408D01*
X87347Y308948D01*
X87833Y308650D01*
X87347Y308352D01*
X86808Y307892D01*
X86348Y307353D01*
X85978Y306749D01*
X85707Y306095D01*
X85542Y305406D01*
X85486Y304700D01*
X85542Y303994D01*
X85707Y303305D01*
X85978Y302651D01*
X86348Y302047D01*
X86808Y301508D01*
X87347Y301048D01*
X87951Y300678D01*
X88605Y300407D01*
X89294Y300242D01*
X89993Y300187D01*
Y223175D01*
X52471Y185653D01*
X52404Y185596D01*
X52174Y185327D01*
X51989Y185025D01*
X51854Y184697D01*
X51771Y184353D01*
X51771Y184353D01*
X51743Y184000D01*
X51750Y183912D01*
Y24617D01*
X41892Y14759D01*
X41865Y14770D01*
X41100Y14954D01*
X40315Y15015D01*
X39530Y14954D01*
X38983Y14822D01*
Y30967D01*
X39000Y30966D01*
X40726Y31102D01*
X42410Y31506D01*
X44009Y32169D01*
X45486Y33073D01*
X46802Y34198D01*
X47927Y35514D01*
X48831Y36991D01*
X49494Y38590D01*
X49898Y40274D01*
X50000Y42000D01*
X49898Y43726D01*
X49494Y45410D01*
X48831Y47009D01*
X47927Y48486D01*
X46802Y49802D01*
X45486Y50927D01*
X44009Y51831D01*
X42410Y52494D01*
X40726Y52898D01*
X39000Y53034D01*
X38983Y53033D01*
Y188967D01*
X39000Y188966D01*
X40726Y189102D01*
X42410Y189506D01*
X44009Y190169D01*
X45486Y191073D01*
X46802Y192198D01*
X47927Y193514D01*
X48831Y194991D01*
X49494Y196590D01*
X49898Y198274D01*
X50000Y200000D01*
X49898Y201726D01*
X49494Y203410D01*
X48831Y205009D01*
X47927Y206486D01*
X46802Y207802D01*
X45486Y208927D01*
X44009Y209831D01*
X42410Y210494D01*
X40726Y210898D01*
X39000Y211034D01*
X38983Y211033D01*
Y306967D01*
X39000Y306966D01*
X40726Y307102D01*
X42410Y307506D01*
X44009Y308169D01*
X45486Y309073D01*
X46802Y310198D01*
X47927Y311514D01*
X48831Y312991D01*
X49494Y314590D01*
X49898Y316274D01*
X50000Y318000D01*
X49898Y319726D01*
X49494Y321410D01*
X48831Y323009D01*
X47927Y324486D01*
X46802Y325802D01*
X45486Y326927D01*
X44009Y327831D01*
X42410Y328494D01*
X40726Y328898D01*
X39000Y329034D01*
X38983Y329033D01*
Y400000D01*
G37*
G36*
X19980D02*X38983D01*
Y329033D01*
X37274Y328898D01*
X35590Y328494D01*
X33991Y327831D01*
X32514Y326927D01*
X31198Y325802D01*
X30073Y324486D01*
X29169Y323009D01*
X28506Y321410D01*
X28102Y319726D01*
X27966Y318000D01*
X28102Y316274D01*
X28506Y314590D01*
X29169Y312991D01*
X30073Y311514D01*
X31198Y310198D01*
X32514Y309073D01*
X33991Y308169D01*
X35590Y307506D01*
X37274Y307102D01*
X38983Y306967D01*
Y211033D01*
X37274Y210898D01*
X35590Y210494D01*
X33991Y209831D01*
X32514Y208927D01*
X31198Y207802D01*
X30073Y206486D01*
X29169Y205009D01*
X28506Y203410D01*
X28102Y201726D01*
X27966Y200000D01*
X28102Y198274D01*
X28506Y196590D01*
X29169Y194991D01*
X30073Y193514D01*
X31198Y192198D01*
X32514Y191073D01*
X33991Y190169D01*
X35590Y189506D01*
X37274Y189102D01*
X38983Y188967D01*
Y53033D01*
X37274Y52898D01*
X35590Y52494D01*
X33991Y51831D01*
X32514Y50927D01*
X31198Y49802D01*
X30073Y48486D01*
X29169Y47009D01*
X28506Y45410D01*
X28102Y43726D01*
X27966Y42000D01*
X28102Y40274D01*
X28506Y38590D01*
X29169Y36991D01*
X30073Y35514D01*
X31198Y34198D01*
X32514Y33073D01*
X33991Y32169D01*
X35590Y31506D01*
X37274Y31102D01*
X38983Y30967D01*
Y14822D01*
X38765Y14770D01*
X38038Y14469D01*
X37367Y14058D01*
X36769Y13546D01*
X36257Y12948D01*
X35846Y12277D01*
X35545Y11550D01*
X35361Y10785D01*
X35300Y10000D01*
X35361Y9215D01*
X35545Y8450D01*
X35846Y7723D01*
X36257Y7052D01*
X36769Y6454D01*
X37367Y5942D01*
X38038Y5531D01*
X38765Y5230D01*
X38983Y5178D01*
Y0D01*
X19980D01*
Y210760D01*
X20000Y210758D01*
X22071Y210921D01*
X24092Y211406D01*
X26012Y212202D01*
X27783Y213287D01*
X29363Y214637D01*
X30713Y216217D01*
X31798Y217988D01*
X32594Y219908D01*
X33079Y221929D01*
X33201Y224000D01*
X33079Y226071D01*
X32594Y228092D01*
X31798Y230012D01*
X30713Y231783D01*
X29363Y233363D01*
X27783Y234713D01*
X26012Y235798D01*
X24092Y236594D01*
X22071Y237079D01*
X20000Y237242D01*
X19980Y237240D01*
Y400000D01*
G37*
G36*
X15000Y211783D02*X15908Y211406D01*
X17929Y210921D01*
X19980Y210760D01*
Y0D01*
X15000D01*
Y5486D01*
X15706Y5542D01*
X16395Y5707D01*
X17049Y5978D01*
X17653Y6348D01*
X18192Y6808D01*
X18652Y7347D01*
X19022Y7951D01*
X19293Y8605D01*
X19458Y9294D01*
X19500Y10000D01*
X19458Y10706D01*
X19293Y11395D01*
X19022Y12049D01*
X18652Y12653D01*
X18192Y13192D01*
X17653Y13652D01*
X17049Y14022D01*
X16395Y14293D01*
X15706Y14458D01*
X15000Y14514D01*
Y15507D01*
X18235Y15514D01*
X18465Y15569D01*
X18683Y15659D01*
X18884Y15783D01*
X19064Y15936D01*
X19217Y16116D01*
X19341Y16317D01*
X19431Y16535D01*
X19486Y16765D01*
X19500Y17000D01*
X19486Y23235D01*
X19431Y23465D01*
X19341Y23683D01*
X19217Y23884D01*
X19064Y24064D01*
X18884Y24217D01*
X18683Y24341D01*
X18465Y24431D01*
X18235Y24486D01*
X18000Y24500D01*
X15000Y24493D01*
Y211783D01*
G37*
G36*
Y400000D02*X19980D01*
Y237240D01*
X17929Y237079D01*
X15908Y236594D01*
X15000Y236217D01*
Y400000D01*
G37*
G36*
X0D02*X15000D01*
Y236217D01*
X13988Y235798D01*
X12217Y234713D01*
X10637Y233363D01*
X9287Y231783D01*
X8202Y230012D01*
X7406Y228092D01*
X6921Y226071D01*
X6758Y224000D01*
X6921Y221929D01*
X7406Y219908D01*
X8202Y217988D01*
X9287Y216217D01*
X10637Y214637D01*
X12217Y213287D01*
X13988Y212202D01*
X15000Y211783D01*
Y24493D01*
X11765Y24486D01*
X11535Y24431D01*
X11317Y24341D01*
X11116Y24217D01*
X10936Y24064D01*
X10783Y23884D01*
X10659Y23683D01*
X10569Y23465D01*
X10514Y23235D01*
X10500Y23000D01*
X10514Y16765D01*
X10569Y16535D01*
X10659Y16317D01*
X10783Y16116D01*
X10936Y15936D01*
X11116Y15783D01*
X11317Y15659D01*
X11535Y15569D01*
X11765Y15514D01*
X12000Y15500D01*
X15000Y15507D01*
Y14514D01*
X14294Y14458D01*
X13605Y14293D01*
X12951Y14022D01*
X12347Y13652D01*
X11808Y13192D01*
X11348Y12653D01*
X10978Y12049D01*
X10707Y11395D01*
X10542Y10706D01*
X10486Y10000D01*
X10542Y9294D01*
X10707Y8605D01*
X10978Y7951D01*
X11348Y7347D01*
X11808Y6808D01*
X12347Y6348D01*
X12951Y5978D01*
X13605Y5707D01*
X14294Y5542D01*
X15000Y5486D01*
Y0D01*
X0D01*
Y400000D01*
G37*
G54D33*X176600Y304700D02*X132500Y260600D01*
X125250Y322750D02*Y265550D01*
X120000Y322500D02*Y240000D01*
X116500Y246500D02*Y324000D01*
X176600Y352100D02*X176200Y352500D01*
X155000D01*
X125250Y322750D01*
X176600Y360000D02*X157500D01*
X160400Y367900D02*X176600D01*
X157500Y360000D02*X120000Y322500D01*
X116500Y324000D02*X160400Y367900D01*
X147500Y197500D02*X145000Y200000D01*
X140000D01*
Y190000D02*X110000D01*
X140000Y200000D02*X132500Y207500D01*
X110000Y220000D02*Y210000D01*
X132500Y207500D02*Y260000D01*
X110000Y200000D02*X125250Y215250D01*
X120000Y240000D02*X110000Y230000D01*
X125250Y215250D02*Y267750D01*
X116500Y246500D02*X54000Y184000D01*
X99685Y10000D02*X100000Y10315D01*
X220000Y10000D02*X244000Y34000D01*
X120315Y10000D02*X122000Y11685D01*
X194000Y92000D02*Y63000D01*
X180000Y142000D02*X201000D01*
X241000Y102000D01*
X177000Y70000D02*X194000Y87000D01*
Y92000D01*
X147000Y105000D02*X165000D01*
X175000Y99000D02*X200000D01*
X204000Y95000D01*
Y92000D01*
X100000Y80000D02*Y108000D01*
X120000Y129000D01*
X147500Y128500D02*Y197500D01*
Y128500D02*X147000Y129000D01*
X120000D01*
X240000Y103000D02*X244000Y99000D01*
X194000Y63000D02*X230000Y99000D01*
Y103000D01*
X244000Y99000D02*Y34000D01*
Y82000D02*Y73000D01*
Y62000D01*
X54000Y184000D02*Y23685D01*
X110000Y180000D02*X65000Y135000D01*
Y113000D01*
G54D34*X80000Y50000D02*X68000Y38000D01*
Y36000D01*
G54D33*X54000Y23685D02*X40315Y10000D01*
G54D34*X80000D02*X72900Y17100D01*
G54D33*X165000Y105000D02*X169000Y101000D01*
Y85000D01*
Y93000D02*X175000Y99000D01*
X132000Y81000D02*X145000Y94000D01*
X169000D01*
X100000Y70000D02*X177000D01*
X90000Y80000D02*X100000Y70000D01*
G54D34*X72900Y17100D02*Y36000D01*
X80000Y10000D02*X106000Y36000D01*
X108000D01*
G54D32*G36*
X190000Y67000D02*Y59000D01*
X198000D01*
Y67000D01*
X190000D01*
G37*
G36*
X191000Y95000D02*Y89000D01*
X197000D01*
Y95000D01*
X191000D01*
G37*
G54D35*X204000Y92000D03*
G54D36*X220000Y10000D03*
X244000Y63000D03*
G54D32*G36*
X241000Y85000D02*Y79000D01*
X247000D01*
Y85000D01*
X241000D01*
G37*
G54D35*X234000Y82000D03*
G54D32*G36*
X215500Y107500D02*Y98500D01*
X224500D01*
Y107500D01*
X215500D01*
G37*
G54D37*X230000Y103000D03*
X240000D03*
G54D32*G36*
X176000Y88000D02*Y82000D01*
X182000D01*
Y88000D01*
X176000D01*
G37*
G54D35*X179000Y55000D03*
G54D36*X200315Y10000D03*
X160315D03*
X180000D03*
X99685D03*
X120315D03*
X140000D03*
G54D35*X169000Y85000D03*
X159000D03*
Y55000D03*
X169000D03*
G54D32*G36*
X144250Y107750D02*Y102250D01*
X149750D01*
Y107750D01*
X144250D01*
G37*
G54D38*X147000Y55000D03*
G54D32*G36*
X107500Y85500D02*Y76500D01*
X116500D01*
Y85500D01*
X107500D01*
G37*
G54D39*X108000Y36000D03*
G54D37*X122000Y81000D03*
X132000D03*
G54D32*G36*
X176400Y125600D02*Y118400D01*
X183600D01*
Y125600D01*
X176400D01*
G37*
G54D40*X180000Y132000D03*
Y142000D03*
G54D41*X230000Y170000D03*
G54D32*G36*
X107000Y243000D02*Y237000D01*
X113000D01*
Y243000D01*
X107000D01*
G37*
G54D35*X110000Y230000D03*
Y220000D03*
Y210000D03*
Y200000D03*
X140000D03*
Y210000D03*
Y220000D03*
Y230000D03*
Y240000D03*
X110000Y190000D03*
X140000D03*
X110000Y180000D03*
X140000D03*
G54D41*X122000Y148000D03*
G54D32*G36*
X87000Y378800D02*Y372800D01*
X93000D01*
Y378800D01*
X87000D01*
G37*
G54D35*X90000Y367900D03*
Y360000D03*
Y352100D03*
Y344200D03*
Y336300D03*
Y328400D03*
Y320500D03*
Y312600D03*
Y304700D03*
X176600Y375800D03*
Y367900D03*
Y360000D03*
Y352100D03*
Y344200D03*
Y336300D03*
Y328400D03*
Y320500D03*
Y312600D03*
Y304700D03*
G54D36*X80000Y10000D03*
G54D32*G36*
X12000Y23000D02*Y17000D01*
X18000D01*
Y23000D01*
X12000D01*
G37*
G54D35*X15000Y10000D03*
G54D36*X40315D03*
X60000D03*
G54D32*G36*
X77000Y53000D02*Y47000D01*
X83000D01*
Y53000D01*
X77000D01*
G37*
G54D35*X80000Y80000D03*
G54D32*G36*
X62250Y65250D02*Y59750D01*
X67750D01*
Y65250D01*
X62250D01*
G37*
G54D38*X65000Y112500D03*
G54D35*X90000Y50000D03*
Y80000D03*
X100000Y50000D03*
Y80000D03*
G54D32*G36*
X64600Y39400D02*Y32600D01*
X71400D01*
Y39400D01*
X64600D01*
G37*
G54D42*X221000Y200000D03*
X39000D03*
Y318000D03*
X221000D03*
G54D43*X20000Y224000D03*
G54D42*X39000Y42000D03*
X221000D03*
G54D43*X240000Y224000D03*
G54D44*G54D45*G54D44*G54D45*G54D46*G54D47*G54D48*G54D46*G54D47*G54D35*G54D49*G54D48*G54D49*G54D47*G54D35*G54D50*G54D35*G54D51*G54D52*G54D49*G54D52*G54D50*G54D48*G54D50*G54D48*G54D49*G54D47*G54D49*G54D50*M02*
