G04 start of page 3 for group 1 idx 1 *
G04 Title: (unknown), solder *
G04 Creator: pcb 20091103 *
G04 CreationDate: Tue 03 Apr 2012 04:10:51 AM GMT UTC *
G04 For: ed *
G04 Format: Gerber/RS-274X *
G04 PCB-Dimensions: 600000 500000 *
G04 PCB-Coordinate-Origin: lower left *
%MOIN*%
%FSLAX25Y25*%
%LNBACK*%
%ADD11C,0.0200*%
%ADD12C,0.0250*%
%ADD13C,0.0160*%
%ADD14C,0.0600*%
%ADD16C,0.0900*%
%ADD17C,0.1500*%
%ADD18C,0.0800*%
%ADD19C,0.0680*%
%ADD20C,0.0720*%
%ADD21C,0.0550*%
%ADD22C,0.0380*%
%ADD23C,0.0280*%
%ADD24C,0.1300*%
%ADD25C,0.0300*%
%ADD26C,0.0150*%
%ADD27C,0.0420*%
%ADD28C,0.0350*%
G54D11*G36*
X225000Y307885D02*X233200D01*
Y261485D01*
X225000D01*
Y290185D01*
X225781Y290253D01*
X226539Y290456D01*
X227250Y290788D01*
X227893Y291238D01*
X228447Y291792D01*
X228897Y292435D01*
X229229Y293146D01*
X229432Y293904D01*
X229500Y294685D01*
X229432Y295466D01*
X229229Y296224D01*
X228897Y296935D01*
X228447Y297578D01*
X227893Y298132D01*
X227250Y298582D01*
X226539Y298914D01*
X225781Y299117D01*
X225000Y299185D01*
Y307885D01*
G37*
G36*
Y320185D02*X228000D01*
X228260Y320208D01*
X228513Y320275D01*
X228750Y320386D01*
X228964Y320536D01*
X229149Y320721D01*
X229299Y320935D01*
X229410Y321172D01*
X229477Y321425D01*
X229500Y321685D01*
Y322435D01*
X237750D01*
Y256935D01*
X225000D01*
Y257885D01*
X235000D01*
X235313Y257912D01*
X235616Y257994D01*
X235900Y258126D01*
X236157Y258306D01*
X236379Y258528D01*
X236559Y258785D01*
X236691Y259069D01*
X236773Y259372D01*
X236800Y259685D01*
Y309685D01*
X236773Y309998D01*
X236691Y310301D01*
X236559Y310585D01*
X236379Y310842D01*
X236157Y311064D01*
X235900Y311244D01*
X235616Y311376D01*
X235313Y311458D01*
X235000Y311485D01*
X225000D01*
Y320185D01*
G37*
G36*
X290000Y374435D02*X290391Y374469D01*
X290770Y374571D01*
X291125Y374736D01*
X291195Y374785D01*
X293400D01*
X293660Y374808D01*
X293913Y374875D01*
X294150Y374986D01*
X294364Y375136D01*
X294549Y375321D01*
X294699Y375535D01*
X294810Y375772D01*
X294877Y376025D01*
X294900Y376285D01*
Y383085D01*
X294877Y383345D01*
X294810Y383598D01*
X294699Y383835D01*
X294549Y384049D01*
X294364Y384234D01*
X294150Y384384D01*
X293913Y384495D01*
X293660Y384562D01*
X293400Y384585D01*
X292250D01*
Y391685D01*
X299500D01*
X299760Y391708D01*
X300013Y391775D01*
X300250Y391886D01*
X300464Y392036D01*
X300649Y392221D01*
X300799Y392435D01*
X300910Y392672D01*
X300977Y392925D01*
X301000Y393185D01*
Y393232D01*
X301143Y393089D01*
X302000Y392489D01*
X302948Y392047D01*
X303958Y391776D01*
X305000Y391685D01*
X306042Y391776D01*
X307052Y392047D01*
X308000Y392489D01*
X308857Y393089D01*
X309596Y393828D01*
X310000Y394405D01*
X310404Y393828D01*
X311143Y393089D01*
X312000Y392489D01*
X312750Y392139D01*
Y381935D01*
X310000D01*
X309609Y381901D01*
X309230Y381799D01*
X308875Y381634D01*
X308554Y381409D01*
X308276Y381131D01*
X308051Y380810D01*
X307886Y380455D01*
X307784Y380076D01*
X307750Y379685D01*
Y362974D01*
X307429Y362749D01*
X306936Y362256D01*
X306711Y361935D01*
X290000D01*
Y374435D01*
G37*
G36*
X315842Y317254D02*X316170Y316786D01*
X316786Y316170D01*
X317500Y315670D01*
X317750Y315554D01*
Y271935D01*
X315842D01*
Y317254D01*
G37*
G36*
X324158Y485000D02*X330000D01*
Y225000D01*
X324158D01*
Y317254D01*
X324330Y317500D01*
X324698Y318290D01*
X324924Y319132D01*
X325000Y320000D01*
X324924Y320868D01*
X324698Y321710D01*
X324330Y322500D01*
X324158Y322746D01*
Y336938D01*
X324188Y336966D01*
X324240Y337036D01*
X324468Y337442D01*
X324657Y337867D01*
X324806Y338307D01*
X324913Y338760D01*
X324978Y339221D01*
X325000Y339685D01*
X324978Y340150D01*
X324913Y340611D01*
X324806Y341064D01*
X324657Y341504D01*
X324468Y341929D01*
X324240Y342335D01*
X324188Y342405D01*
X324158Y342433D01*
Y367972D01*
X324172Y368000D01*
X324314Y368407D01*
X324417Y368827D01*
X324479Y369254D01*
X324500Y369685D01*
X324479Y370117D01*
X324417Y370544D01*
X324314Y370964D01*
X324172Y371371D01*
X324171D01*
X324158Y371397D01*
Y375734D01*
X324299Y375935D01*
X324410Y376172D01*
X324477Y376425D01*
X324500Y376685D01*
Y382685D01*
X324477Y382945D01*
X324410Y383198D01*
X324299Y383435D01*
X324158Y383636D01*
Y485000D01*
G37*
G36*
Y322746D02*X323830Y323214D01*
X323214Y323830D01*
X322500Y324330D01*
X321710Y324698D01*
X320868Y324924D01*
X320000Y325000D01*
Y334685D01*
X320464Y334707D01*
X320925Y334772D01*
X321378Y334879D01*
X321818Y335028D01*
X322243Y335217D01*
X322649Y335445D01*
X322719Y335497D01*
X322778Y335561D01*
X322825Y335634D01*
X322860Y335715D01*
X322879Y335799D01*
X322884Y335886D01*
X322873Y335973D01*
X322848Y336056D01*
X322808Y336134D01*
X322756Y336204D01*
X322692Y336263D01*
X322619Y336310D01*
X322538Y336345D01*
X322454Y336364D01*
X322367Y336369D01*
X322280Y336358D01*
X322197Y336333D01*
X322119Y336293D01*
X321795Y336111D01*
X321455Y335960D01*
X321102Y335840D01*
X320740Y335755D01*
X320371Y335703D01*
X320000Y335685D01*
Y343685D01*
X320371Y343668D01*
X320740Y343616D01*
X321102Y343531D01*
X321455Y343411D01*
X321795Y343260D01*
X322119Y343078D01*
X322197Y343038D01*
X322280Y343013D01*
X322367Y343002D01*
X322454Y343007D01*
X322538Y343026D01*
X322619Y343061D01*
X322692Y343108D01*
X322756Y343167D01*
X322808Y343237D01*
X322848Y343315D01*
X322873Y343398D01*
X322884Y343485D01*
X322879Y343572D01*
X322860Y343656D01*
X322825Y343737D01*
X322778Y343810D01*
X322719Y343874D01*
X322649Y343926D01*
X322243Y344154D01*
X321818Y344343D01*
X321378Y344492D01*
X320925Y344599D01*
X320464Y344664D01*
X320000Y344685D01*
Y365185D01*
X320431Y365206D01*
X320858Y365268D01*
X321278Y365371D01*
X321685Y365513D01*
Y365514D01*
X321801Y365573D01*
X321906Y365652D01*
X321995Y365748D01*
X322066Y365857D01*
X322117Y365978D01*
X322146Y366105D01*
X322153Y366235D01*
X322137Y366365D01*
X322099Y366490D01*
X322040Y366606D01*
X321961Y366711D01*
X321865Y366800D01*
X321756Y366871D01*
X321635Y366922D01*
X321508Y366951D01*
X321378Y366958D01*
X321248Y366942D01*
X321123Y366904D01*
X320852Y366809D01*
X320572Y366741D01*
X320287Y366699D01*
X320000Y366685D01*
Y372685D01*
X320287Y372672D01*
X320572Y372630D01*
X320852Y372562D01*
X321123Y372467D01*
Y372466D01*
X321248Y372428D01*
X321378Y372412D01*
X321509Y372419D01*
X321636Y372448D01*
X321757Y372499D01*
X321866Y372571D01*
X321962Y372660D01*
X322041Y372764D01*
X322100Y372881D01*
X322138Y373006D01*
X322154Y373136D01*
X322147Y373267D01*
X322118Y373394D01*
X322067Y373515D01*
X321995Y373624D01*
X321906Y373720D01*
X321802Y373799D01*
X321685Y373858D01*
X321278Y374000D01*
X320858Y374103D01*
X320431Y374165D01*
X320000Y374185D01*
Y375185D01*
X323000D01*
X323260Y375208D01*
X323513Y375275D01*
X323750Y375386D01*
X323964Y375536D01*
X324149Y375721D01*
X324158Y375734D01*
Y371397D01*
X324112Y371487D01*
X324033Y371592D01*
X323937Y371681D01*
X323828Y371752D01*
X323707Y371803D01*
X323580Y371832D01*
X323450Y371839D01*
X323320Y371823D01*
X323195Y371785D01*
X323079Y371726D01*
X322974Y371647D01*
X322885Y371551D01*
X322814Y371442D01*
X322763Y371321D01*
X322734Y371194D01*
X322727Y371064D01*
X322743Y370934D01*
X322781Y370809D01*
X322876Y370538D01*
X322944Y370258D01*
X322986Y369973D01*
X323000Y369685D01*
X322986Y369398D01*
X322944Y369113D01*
X322876Y368833D01*
X322781Y368562D01*
X322780D01*
X322742Y368437D01*
X322726Y368307D01*
X322733Y368176D01*
X322762Y368049D01*
X322813Y367928D01*
X322885Y367819D01*
X322974Y367723D01*
X323078Y367644D01*
X323195Y367585D01*
X323320Y367547D01*
X323450Y367531D01*
X323581Y367538D01*
X323708Y367567D01*
X323829Y367618D01*
X323938Y367690D01*
X324034Y367779D01*
X324113Y367883D01*
X324158Y367972D01*
Y342433D01*
X324124Y342464D01*
X324051Y342511D01*
X323970Y342546D01*
X323886Y342565D01*
X323799Y342570D01*
X323712Y342559D01*
X323629Y342534D01*
X323551Y342494D01*
X323481Y342442D01*
X323422Y342378D01*
X323375Y342305D01*
X323340Y342224D01*
X323321Y342140D01*
X323316Y342053D01*
X323327Y341966D01*
X323352Y341883D01*
X323392Y341805D01*
X323574Y341481D01*
X323725Y341141D01*
X323845Y340788D01*
X323930Y340426D01*
X323982Y340057D01*
X324000Y339686D01*
X323982Y339314D01*
X323930Y338945D01*
X323845Y338583D01*
X323725Y338230D01*
X323574Y337890D01*
X323392Y337566D01*
X323352Y337488D01*
X323327Y337405D01*
X323316Y337318D01*
X323321Y337231D01*
X323340Y337147D01*
X323375Y337066D01*
X323422Y336993D01*
X323481Y336929D01*
X323551Y336877D01*
X323629Y336837D01*
X323712Y336812D01*
X323799Y336801D01*
X323886Y336806D01*
X323970Y336825D01*
X324051Y336860D01*
X324124Y336907D01*
X324158Y336938D01*
Y322746D01*
G37*
G36*
Y225000D02*X320000D01*
Y267435D01*
X320391Y267469D01*
X320770Y267571D01*
X321125Y267736D01*
X321446Y267961D01*
X321724Y268239D01*
X321949Y268560D01*
X322114Y268915D01*
X322216Y269294D01*
X322250Y269685D01*
Y315554D01*
X322500Y315670D01*
X323214Y316170D01*
X323830Y316786D01*
X324158Y317254D01*
Y225000D01*
G37*
G36*
X320000Y485000D02*X324158D01*
Y383636D01*
X324149Y383649D01*
X323964Y383834D01*
X323750Y383984D01*
X323513Y384095D01*
X323260Y384162D01*
X323000Y384185D01*
X320000D01*
Y394405D01*
X320196Y394685D01*
X320638Y395633D01*
X320909Y396643D01*
X321000Y397685D01*
X320909Y398727D01*
X320638Y399737D01*
X320196Y400685D01*
X320000Y400965D01*
Y485000D01*
G37*
G36*
Y384185D02*X317250D01*
Y392139D01*
X318000Y392489D01*
X318857Y393089D01*
X319596Y393828D01*
X320000Y394405D01*
Y384185D01*
G37*
G36*
Y325000D02*X319132Y324924D01*
X318290Y324698D01*
X317500Y324330D01*
X316786Y323830D01*
X316170Y323214D01*
X315842Y322746D01*
Y336937D01*
X315875Y336907D01*
X315948Y336860D01*
X316029Y336825D01*
X316113Y336806D01*
X316200Y336801D01*
X316287Y336812D01*
X316370Y336837D01*
X316448Y336877D01*
X316518Y336929D01*
X316577Y336993D01*
X316624Y337066D01*
X316659Y337147D01*
X316678Y337231D01*
X316683Y337318D01*
X316672Y337405D01*
X316647Y337488D01*
X316607Y337566D01*
X316425Y337890D01*
X316274Y338230D01*
X316154Y338583D01*
X316069Y338945D01*
X316017Y339314D01*
X316000Y339686D01*
X316017Y340057D01*
X316069Y340426D01*
X316154Y340788D01*
X316274Y341141D01*
X316425Y341481D01*
X316607Y341805D01*
X316647Y341883D01*
X316672Y341966D01*
X316683Y342053D01*
X316678Y342140D01*
X316659Y342224D01*
X316624Y342305D01*
X316577Y342378D01*
X316518Y342442D01*
X316448Y342494D01*
X316370Y342534D01*
X316287Y342559D01*
X316200Y342570D01*
X316113Y342565D01*
X316029Y342546D01*
X315948Y342511D01*
X315875Y342464D01*
X315842Y342434D01*
Y367972D01*
X315887Y367884D01*
X315966Y367779D01*
X316062Y367690D01*
X316171Y367619D01*
X316292Y367568D01*
X316419Y367539D01*
X316549Y367532D01*
X316679Y367548D01*
X316804Y367586D01*
X316920Y367645D01*
X317025Y367724D01*
X317114Y367820D01*
X317185Y367929D01*
X317236Y368050D01*
X317265Y368177D01*
X317272Y368307D01*
X317256Y368437D01*
X317218Y368562D01*
X317123Y368833D01*
X317055Y369113D01*
X317013Y369398D01*
X317000Y369686D01*
X317013Y369973D01*
X317055Y370258D01*
X317123Y370538D01*
X317218Y370809D01*
X317219D01*
X317257Y370934D01*
X317273Y371064D01*
X317266Y371195D01*
X317237Y371322D01*
X317186Y371443D01*
X317114Y371552D01*
X317025Y371648D01*
X316921Y371727D01*
X316804Y371786D01*
X316679Y371824D01*
X316549Y371840D01*
X316418Y371833D01*
X316291Y371804D01*
X316170Y371753D01*
X316061Y371681D01*
X315965Y371592D01*
X315886Y371488D01*
X315842Y371401D01*
Y375734D01*
X315851Y375721D01*
X316036Y375536D01*
X316250Y375386D01*
X316487Y375275D01*
X316740Y375208D01*
X317000Y375185D01*
X320000D01*
Y374185D01*
X319568Y374165D01*
X319141Y374103D01*
X318721Y374000D01*
X318314Y373858D01*
Y373857D01*
X318198Y373798D01*
X318093Y373719D01*
X318004Y373623D01*
X317933Y373514D01*
X317882Y373393D01*
X317853Y373266D01*
X317846Y373136D01*
X317862Y373006D01*
X317900Y372881D01*
X317959Y372765D01*
X318038Y372660D01*
X318134Y372571D01*
X318243Y372500D01*
X318364Y372449D01*
X318491Y372420D01*
X318621Y372413D01*
X318751Y372429D01*
X318876Y372467D01*
X319147Y372562D01*
X319427Y372630D01*
X319712Y372672D01*
X320000Y372685D01*
Y366685D01*
X319999D01*
X319712Y366699D01*
X319427Y366741D01*
X319147Y366809D01*
X318876Y366904D01*
Y366905D01*
X318751Y366943D01*
X318621Y366959D01*
X318490Y366952D01*
X318363Y366923D01*
X318242Y366872D01*
X318133Y366800D01*
X318037Y366711D01*
X317958Y366607D01*
X317899Y366490D01*
X317861Y366365D01*
X317845Y366235D01*
X317852Y366104D01*
X317881Y365977D01*
X317932Y365856D01*
X318004Y365747D01*
X318093Y365651D01*
X318197Y365572D01*
X318314Y365513D01*
X318721Y365371D01*
X319141Y365268D01*
X319568Y365206D01*
X319999Y365185D01*
X320000D01*
Y344685D01*
X319999D01*
X319535Y344664D01*
X319074Y344599D01*
X318621Y344492D01*
X318181Y344343D01*
X317756Y344154D01*
X317350Y343926D01*
X317280Y343874D01*
X317221Y343810D01*
X317174Y343737D01*
X317139Y343656D01*
X317120Y343572D01*
X317115Y343485D01*
X317126Y343398D01*
X317151Y343315D01*
X317191Y343237D01*
X317243Y343167D01*
X317307Y343108D01*
X317380Y343061D01*
X317461Y343026D01*
X317545Y343007D01*
X317632Y343002D01*
X317719Y343013D01*
X317802Y343038D01*
X317880Y343078D01*
X318204Y343260D01*
X318544Y343411D01*
X318897Y343531D01*
X319259Y343616D01*
X319628Y343668D01*
X320000Y343685D01*
Y335685D01*
X319999D01*
X319628Y335703D01*
X319259Y335755D01*
X318897Y335840D01*
X318544Y335960D01*
X318204Y336111D01*
X317880Y336293D01*
X317802Y336333D01*
X317719Y336358D01*
X317632Y336369D01*
X317545Y336364D01*
X317461Y336345D01*
X317380Y336310D01*
X317307Y336263D01*
X317243Y336204D01*
X317191Y336134D01*
X317151Y336056D01*
X317126Y335973D01*
X317115Y335886D01*
X317120Y335799D01*
X317139Y335715D01*
X317174Y335634D01*
X317221Y335561D01*
X317280Y335497D01*
X317350Y335445D01*
X317756Y335217D01*
X318181Y335028D01*
X318621Y334879D01*
X319074Y334772D01*
X319535Y334707D01*
X320000Y334685D01*
Y325000D01*
G37*
G36*
Y225000D02*X315842D01*
Y267435D01*
X320000D01*
Y225000D01*
G37*
G36*
X315842Y485000D02*X320000D01*
Y400965D01*
X319596Y401542D01*
X318857Y402281D01*
X318000Y402881D01*
X317052Y403323D01*
X316042Y403594D01*
X315842Y403611D01*
Y485000D01*
G37*
G36*
Y322746D02*X315670Y322500D01*
X315488Y322109D01*
X312250Y322007D01*
Y356396D01*
X312571Y356621D01*
X313064Y357114D01*
X313464Y357685D01*
X313759Y358317D01*
X313939Y358990D01*
X314000Y359685D01*
X313939Y360380D01*
X313759Y361053D01*
X313464Y361685D01*
X313064Y362256D01*
X312571Y362749D01*
X312250Y362974D01*
Y377435D01*
X315500D01*
Y376685D01*
X315523Y376425D01*
X315590Y376172D01*
X315701Y375935D01*
X315842Y375734D01*
Y371401D01*
X315827Y371371D01*
X315685Y370964D01*
X315582Y370544D01*
X315520Y370117D01*
X315500Y369686D01*
X315520Y369254D01*
X315582Y368827D01*
X315685Y368407D01*
X315827Y368000D01*
X315828D01*
X315842Y367972D01*
Y342434D01*
X315811Y342405D01*
X315759Y342335D01*
X315531Y341929D01*
X315342Y341504D01*
X315193Y341064D01*
X315086Y340611D01*
X315021Y340150D01*
X315000Y339685D01*
X315021Y339221D01*
X315086Y338760D01*
X315193Y338307D01*
X315342Y337867D01*
X315531Y337442D01*
X315759Y337036D01*
X315811Y336966D01*
X315842Y336937D01*
Y322746D01*
G37*
G36*
X300000Y357435D02*X306711D01*
X306936Y357114D01*
X307429Y356621D01*
X307750Y356396D01*
Y319685D01*
X307754Y319644D01*
X307752Y319615D01*
X307768Y319482D01*
X307784Y319294D01*
X307795Y319255D01*
X307798Y319226D01*
X307839Y319091D01*
X307886Y318915D01*
X307904Y318876D01*
X307912Y318850D01*
X307966Y318742D01*
X308051Y318560D01*
X308075Y318526D01*
X308088Y318500D01*
X308169Y318391D01*
X308276Y318239D01*
X308305Y318210D01*
X308323Y318186D01*
X308417Y318098D01*
X308554Y317961D01*
X308590Y317936D01*
X308609Y317918D01*
X308713Y317850D01*
X308875Y317736D01*
X308915Y317717D01*
X308937Y317703D01*
X309041Y317659D01*
X309230Y317571D01*
X309272Y317560D01*
X309297Y317549D01*
X309422Y317520D01*
X309609Y317469D01*
X309653Y317465D01*
X309679Y317459D01*
X309799Y317452D01*
X310000Y317435D01*
X310041Y317439D01*
X310070Y317437D01*
X315618Y317612D01*
X315670Y317500D01*
X315842Y317254D01*
Y271935D01*
X304996D01*
X304763Y272435D01*
X304213Y273220D01*
X303535Y273898D01*
X302750Y274448D01*
X301881Y274853D01*
X300955Y275101D01*
X300000Y275185D01*
Y314185D01*
X304000D01*
X304260Y314208D01*
X304513Y314275D01*
X304750Y314386D01*
X304964Y314536D01*
X305149Y314721D01*
X305299Y314935D01*
X305410Y315172D01*
X305477Y315425D01*
X305500Y315685D01*
Y323685D01*
X305477Y323945D01*
X305410Y324198D01*
X305299Y324435D01*
X305149Y324649D01*
X304964Y324834D01*
X304750Y324984D01*
X304513Y325095D01*
X304260Y325162D01*
X304000Y325185D01*
X300000D01*
Y357435D01*
G37*
G36*
X315842Y225000D02*X300000D01*
Y264185D01*
X300955Y264269D01*
X301881Y264517D01*
X302750Y264922D01*
X303535Y265472D01*
X304213Y266150D01*
X304763Y266935D01*
X304996Y267435D01*
X315842D01*
Y225000D01*
G37*
G36*
X300000D02*X290000D01*
Y334785D01*
X290851Y334859D01*
X291676Y335081D01*
X292450Y335441D01*
X293150Y335931D01*
X293754Y336535D01*
X294244Y337235D01*
X294604Y338009D01*
X294826Y338834D01*
X294900Y339685D01*
X294826Y340536D01*
X294604Y341361D01*
X294244Y342135D01*
X293754Y342835D01*
X293150Y343439D01*
X292450Y343929D01*
X291676Y344289D01*
X290851Y344511D01*
X290000Y344585D01*
Y357435D01*
X300000D01*
Y325185D01*
X296000D01*
X295740Y325162D01*
X295487Y325095D01*
X295250Y324984D01*
X295036Y324834D01*
X294851Y324649D01*
X294701Y324435D01*
X294590Y324198D01*
X294523Y323945D01*
X294500Y323685D01*
Y315685D01*
X294523Y315425D01*
X294590Y315172D01*
X294701Y314935D01*
X294851Y314721D01*
X295036Y314536D01*
X295250Y314386D01*
X295487Y314275D01*
X295740Y314208D01*
X296000Y314185D01*
X300000D01*
Y275185D01*
X299045Y275101D01*
X298119Y274853D01*
X297250Y274448D01*
X296465Y273898D01*
X295787Y273220D01*
X295237Y272435D01*
X294832Y271566D01*
X294584Y270640D01*
X294500Y269685D01*
X294584Y268730D01*
X294832Y267804D01*
X295237Y266935D01*
X295787Y266150D01*
X296465Y265472D01*
X297250Y264922D01*
X298119Y264517D01*
X299045Y264269D01*
X300000Y264185D01*
Y225000D01*
G37*
G36*
X305000Y485000D02*X315842D01*
Y403611D01*
X315000Y403685D01*
X313958Y403594D01*
X312948Y403323D01*
X312000Y402881D01*
X311143Y402281D01*
X310404Y401542D01*
X310000Y400965D01*
X309596Y401542D01*
X308857Y402281D01*
X308000Y402881D01*
X307052Y403323D01*
X306042Y403594D01*
X305000Y403685D01*
Y455685D01*
X306563Y455822D01*
X308078Y456228D01*
X309500Y456891D01*
X310785Y457791D01*
X311894Y458900D01*
X312794Y460185D01*
X313457Y461607D01*
X313863Y463122D01*
X314000Y464685D01*
X313863Y466248D01*
X313457Y467763D01*
X312794Y469185D01*
X311894Y470470D01*
X310785Y471579D01*
X309500Y472479D01*
X308078Y473142D01*
X306563Y473548D01*
X305000Y473685D01*
Y485000D01*
G37*
G36*
X290000D02*X305000D01*
Y473685D01*
X303437Y473548D01*
X301922Y473142D01*
X300500Y472479D01*
X299215Y471579D01*
X298106Y470470D01*
X297206Y469185D01*
X296543Y467763D01*
X296137Y466248D01*
X296000Y464685D01*
X296137Y463122D01*
X296543Y461607D01*
X297206Y460185D01*
X298106Y458900D01*
X299215Y457791D01*
X300500Y456891D01*
X301922Y456228D01*
X303437Y455822D01*
X305000Y455685D01*
Y403685D01*
X303958Y403594D01*
X302948Y403323D01*
X302000Y402881D01*
X301143Y402281D01*
X301000Y402138D01*
Y402185D01*
X300977Y402445D01*
X300910Y402698D01*
X300799Y402935D01*
X300649Y403149D01*
X300464Y403334D01*
X300250Y403484D01*
X300013Y403595D01*
X299760Y403662D01*
X299500Y403685D01*
X290500D01*
X290240Y403662D01*
X290000Y403598D01*
Y485000D01*
G37*
G36*
X265000Y357435D02*X290000D01*
Y344585D01*
X289149Y344511D01*
X288324Y344289D01*
X287550Y343929D01*
X286850Y343439D01*
X286246Y342835D01*
X285756Y342135D01*
X285396Y341361D01*
X285174Y340536D01*
X285100Y339685D01*
X285174Y338834D01*
X285396Y338009D01*
X285756Y337235D01*
X286246Y336535D01*
X286850Y335931D01*
X287550Y335441D01*
X288324Y335081D01*
X289149Y334859D01*
X290000Y334785D01*
Y225000D01*
X265000D01*
Y335185D01*
X265781Y335253D01*
X266539Y335456D01*
X267250Y335788D01*
X267893Y336238D01*
X268447Y336792D01*
X268897Y337435D01*
X269229Y338146D01*
X269432Y338904D01*
X269500Y339685D01*
X269432Y340466D01*
X269229Y341224D01*
X268897Y341935D01*
X268447Y342578D01*
X267893Y343132D01*
X267250Y343582D01*
X266539Y343914D01*
X265781Y344117D01*
X265000Y344185D01*
Y345185D01*
X268000D01*
X268260Y345208D01*
X268513Y345275D01*
X268750Y345386D01*
X268964Y345536D01*
X269149Y345721D01*
X269299Y345935D01*
X269410Y346172D01*
X269477Y346425D01*
X269500Y346685D01*
Y352685D01*
X269477Y352945D01*
X269410Y353198D01*
X269299Y353435D01*
X269149Y353649D01*
X268964Y353834D01*
X268750Y353984D01*
X268513Y354095D01*
X268260Y354162D01*
X268000Y354185D01*
X265000D01*
Y357435D01*
G37*
G36*
X270000Y371785D02*X270851Y371859D01*
X271676Y372081D01*
X272450Y372441D01*
X273150Y372931D01*
X273754Y373535D01*
X274244Y374235D01*
X274604Y375009D01*
X274630Y375105D01*
X285100Y376675D01*
Y376285D01*
X285123Y376025D01*
X285190Y375772D01*
X285301Y375535D01*
X285451Y375321D01*
X285636Y375136D01*
X285850Y374986D01*
X286087Y374875D01*
X286340Y374808D01*
X286600Y374785D01*
X288805D01*
X288875Y374736D01*
X289230Y374571D01*
X289609Y374469D01*
X290000Y374435D01*
Y361935D01*
X270000D01*
Y371785D01*
G37*
G36*
Y485000D02*X290000D01*
Y403598D01*
X289987Y403595D01*
X289750Y403484D01*
X289536Y403334D01*
X289351Y403149D01*
X289201Y402935D01*
X289090Y402698D01*
X289023Y402445D01*
X289000Y402185D01*
Y396710D01*
X288842Y396615D01*
X288843Y396614D01*
X288744Y396542D01*
X288554Y396409D01*
X288537Y396392D01*
X288526Y396384D01*
X288438Y396293D01*
X288276Y396131D01*
X288263Y396112D01*
X288253Y396102D01*
X288178Y395991D01*
X288051Y395810D01*
X288039Y395785D01*
X288034Y395777D01*
X288001Y395702D01*
X287886Y395455D01*
X287880Y395432D01*
X287874Y395419D01*
X287843Y395296D01*
X287784Y395076D01*
X287782Y395050D01*
X287779Y395039D01*
X287771Y394923D01*
X287750Y394685D01*
Y384585D01*
X286600D01*
X286340Y384562D01*
X286087Y384495D01*
X285850Y384384D01*
X285636Y384234D01*
X285451Y384049D01*
X285301Y383835D01*
X285190Y383598D01*
X285123Y383345D01*
X285100Y383085D01*
Y381226D01*
X273951Y379554D01*
X273754Y379835D01*
X273150Y380439D01*
X272450Y380929D01*
X271676Y381289D01*
X270851Y381511D01*
X270000Y381585D01*
Y411785D01*
X273400D01*
X273660Y411808D01*
X273913Y411875D01*
X274150Y411986D01*
X274364Y412136D01*
X274549Y412321D01*
X274699Y412535D01*
X274810Y412772D01*
X274877Y413025D01*
X274900Y413285D01*
Y420085D01*
X274877Y420345D01*
X274810Y420598D01*
X274699Y420835D01*
X274549Y421049D01*
X274364Y421234D01*
X274150Y421384D01*
X273913Y421495D01*
X273660Y421562D01*
X273400Y421585D01*
X270000D01*
Y485000D01*
G37*
G36*
X265000D02*X270000D01*
Y421585D01*
X266600D01*
X266340Y421562D01*
X266087Y421495D01*
X265850Y421384D01*
X265636Y421234D01*
X265451Y421049D01*
X265301Y420835D01*
X265190Y420598D01*
X265123Y420345D01*
X265100Y420085D01*
Y413285D01*
X265123Y413025D01*
X265190Y412772D01*
X265301Y412535D01*
X265451Y412321D01*
X265636Y412136D01*
X265850Y411986D01*
X266087Y411875D01*
X266340Y411808D01*
X266600Y411785D01*
X270000D01*
Y381585D01*
X269149Y381511D01*
X268324Y381289D01*
X267550Y380929D01*
X266850Y380439D01*
X266246Y379835D01*
X265756Y379135D01*
X265396Y378361D01*
X265174Y377536D01*
X265100Y376685D01*
X265174Y375834D01*
X265396Y375009D01*
X265756Y374235D01*
X266246Y373535D01*
X266850Y372931D01*
X267550Y372441D01*
X268324Y372081D01*
X269149Y371859D01*
X270000Y371785D01*
Y361935D01*
X265000D01*
Y485000D01*
G37*
G36*
X251600Y356034D02*X252000Y356221D01*
X252571Y356621D01*
X253064Y357114D01*
X253289Y357435D01*
X265000D01*
Y354185D01*
X262000D01*
X261740Y354162D01*
X261487Y354095D01*
X261250Y353984D01*
X261036Y353834D01*
X260851Y353649D01*
X260701Y353435D01*
X260590Y353198D01*
X260523Y352945D01*
X260500Y352685D01*
Y346685D01*
X260523Y346425D01*
X260590Y346172D01*
X260701Y345935D01*
X260851Y345721D01*
X261036Y345536D01*
X261250Y345386D01*
X261487Y345275D01*
X261740Y345208D01*
X262000Y345185D01*
X265000D01*
Y344185D01*
X264219Y344117D01*
X263461Y343914D01*
X262750Y343582D01*
X262107Y343132D01*
X261553Y342578D01*
X261103Y341935D01*
X260771Y341224D01*
X260568Y340466D01*
X260500Y339685D01*
X260568Y338904D01*
X260771Y338146D01*
X261103Y337435D01*
X261553Y336792D01*
X262107Y336238D01*
X262750Y335788D01*
X263461Y335456D01*
X264219Y335253D01*
X265000Y335185D01*
Y225000D01*
X251600D01*
Y356034D01*
G37*
G36*
Y485000D02*X265000D01*
Y361935D01*
X253289D01*
X253064Y362256D01*
X252571Y362749D01*
X252000Y363149D01*
X251600Y363336D01*
Y380185D01*
X252381Y380253D01*
X253139Y380456D01*
X253850Y380788D01*
X254493Y381238D01*
X255047Y381792D01*
X255497Y382435D01*
X255829Y383146D01*
X256032Y383904D01*
X256100Y384685D01*
X256032Y385466D01*
X255829Y386224D01*
X255497Y386935D01*
X255047Y387578D01*
X254493Y388132D01*
X253850Y388582D01*
X253139Y388914D01*
X252381Y389117D01*
X251600Y389185D01*
Y390185D01*
X252381Y390253D01*
X253139Y390456D01*
X253850Y390788D01*
X254493Y391238D01*
X255047Y391792D01*
X255497Y392435D01*
X255829Y393146D01*
X256032Y393904D01*
X256100Y394685D01*
X256032Y395466D01*
X255829Y396224D01*
X255497Y396935D01*
X255047Y397578D01*
X254493Y398132D01*
X253850Y398582D01*
X253139Y398914D01*
X252381Y399117D01*
X251600Y399185D01*
Y400185D01*
X252381Y400253D01*
X253139Y400456D01*
X253850Y400788D01*
X254493Y401238D01*
X255047Y401792D01*
X255497Y402435D01*
X255829Y403146D01*
X256032Y403904D01*
X256100Y404685D01*
X256032Y405466D01*
X255829Y406224D01*
X255497Y406935D01*
X255047Y407578D01*
X254493Y408132D01*
X253850Y408582D01*
X253139Y408914D01*
X252381Y409117D01*
X251600Y409185D01*
Y410185D01*
X252381Y410253D01*
X253139Y410456D01*
X253850Y410788D01*
X254493Y411238D01*
X255047Y411792D01*
X255497Y412435D01*
X255829Y413146D01*
X256032Y413904D01*
X256100Y414685D01*
X256032Y415466D01*
X255829Y416224D01*
X255497Y416935D01*
X255047Y417578D01*
X254493Y418132D01*
X253850Y418582D01*
X253139Y418914D01*
X252381Y419117D01*
X251600Y419185D01*
Y420185D01*
X252381Y420253D01*
X253139Y420456D01*
X253850Y420788D01*
X254493Y421238D01*
X255047Y421792D01*
X255497Y422435D01*
X255829Y423146D01*
X256032Y423904D01*
X256100Y424685D01*
X256032Y425466D01*
X255829Y426224D01*
X255497Y426935D01*
X255047Y427578D01*
X254493Y428132D01*
X253850Y428582D01*
X253139Y428914D01*
X252381Y429117D01*
X251600Y429185D01*
Y430185D01*
X252381Y430253D01*
X253139Y430456D01*
X253850Y430788D01*
X254493Y431238D01*
X255047Y431792D01*
X255497Y432435D01*
X255829Y433146D01*
X256032Y433904D01*
X256100Y434685D01*
X256032Y435466D01*
X255829Y436224D01*
X255497Y436935D01*
X255047Y437578D01*
X254493Y438132D01*
X253850Y438582D01*
X253139Y438914D01*
X252381Y439117D01*
X251600Y439185D01*
Y440185D01*
X252381Y440253D01*
X253139Y440456D01*
X253850Y440788D01*
X254493Y441238D01*
X255047Y441792D01*
X255497Y442435D01*
X255829Y443146D01*
X256032Y443904D01*
X256100Y444685D01*
X256032Y445466D01*
X255829Y446224D01*
X255497Y446935D01*
X255047Y447578D01*
X254493Y448132D01*
X253850Y448582D01*
X253139Y448914D01*
X252381Y449117D01*
X251600Y449185D01*
Y450185D01*
X252381Y450253D01*
X253139Y450456D01*
X253850Y450788D01*
X254493Y451238D01*
X255047Y451792D01*
X255497Y452435D01*
X255829Y453146D01*
X256032Y453904D01*
X256100Y454685D01*
X256032Y455466D01*
X255829Y456224D01*
X255497Y456935D01*
X255047Y457578D01*
X254493Y458132D01*
X253850Y458582D01*
X253139Y458914D01*
X252381Y459117D01*
X251600Y459185D01*
Y460185D01*
X252381Y460253D01*
X253139Y460456D01*
X253850Y460788D01*
X254493Y461238D01*
X255047Y461792D01*
X255497Y462435D01*
X255829Y463146D01*
X256032Y463904D01*
X256100Y464685D01*
X256032Y465466D01*
X255829Y466224D01*
X255497Y466935D01*
X255047Y467578D01*
X254493Y468132D01*
X253850Y468582D01*
X253139Y468914D01*
X252381Y469117D01*
X251600Y469185D01*
Y470185D01*
X252381Y470253D01*
X253139Y470456D01*
X253850Y470788D01*
X254493Y471238D01*
X255047Y471792D01*
X255497Y472435D01*
X255829Y473146D01*
X256032Y473904D01*
X256100Y474685D01*
X256032Y475466D01*
X255829Y476224D01*
X255497Y476935D01*
X255047Y477578D01*
X254493Y478132D01*
X253850Y478582D01*
X253139Y478914D01*
X252381Y479117D01*
X251600Y479185D01*
Y485000D01*
G37*
G36*
Y419185D02*X250819Y419117D01*
X250061Y418914D01*
X249350Y418582D01*
X248707Y418132D01*
X248153Y417578D01*
X247703Y416935D01*
X247493Y416485D01*
X225000D01*
Y472885D01*
X247493D01*
X247703Y472435D01*
X248153Y471792D01*
X248707Y471238D01*
X249350Y470788D01*
X250061Y470456D01*
X250819Y470253D01*
X251600Y470185D01*
Y469185D01*
X250819Y469117D01*
X250061Y468914D01*
X249350Y468582D01*
X248707Y468132D01*
X248153Y467578D01*
X247703Y466935D01*
X247371Y466224D01*
X247168Y465466D01*
X247100Y464685D01*
X247168Y463904D01*
X247371Y463146D01*
X247703Y462435D01*
X248153Y461792D01*
X248707Y461238D01*
X249350Y460788D01*
X250061Y460456D01*
X250819Y460253D01*
X251600Y460185D01*
Y459185D01*
X250819Y459117D01*
X250061Y458914D01*
X249350Y458582D01*
X248707Y458132D01*
X248153Y457578D01*
X247703Y456935D01*
X247371Y456224D01*
X247168Y455466D01*
X247100Y454685D01*
X247168Y453904D01*
X247371Y453146D01*
X247703Y452435D01*
X248153Y451792D01*
X248707Y451238D01*
X249350Y450788D01*
X250061Y450456D01*
X250819Y450253D01*
X251600Y450185D01*
Y449185D01*
X250819Y449117D01*
X250061Y448914D01*
X249350Y448582D01*
X248707Y448132D01*
X248153Y447578D01*
X247703Y446935D01*
X247371Y446224D01*
X247168Y445466D01*
X247100Y444685D01*
X247168Y443904D01*
X247371Y443146D01*
X247703Y442435D01*
X248153Y441792D01*
X248707Y441238D01*
X249350Y440788D01*
X250061Y440456D01*
X250819Y440253D01*
X251600Y440185D01*
Y439185D01*
X250819Y439117D01*
X250061Y438914D01*
X249350Y438582D01*
X248707Y438132D01*
X248153Y437578D01*
X247703Y436935D01*
X247371Y436224D01*
X247168Y435466D01*
X247100Y434685D01*
X247168Y433904D01*
X247371Y433146D01*
X247703Y432435D01*
X248153Y431792D01*
X248707Y431238D01*
X249350Y430788D01*
X250061Y430456D01*
X250819Y430253D01*
X251600Y430185D01*
Y429185D01*
X250819Y429117D01*
X250061Y428914D01*
X249350Y428582D01*
X248707Y428132D01*
X248153Y427578D01*
X247703Y426935D01*
X247371Y426224D01*
X247168Y425466D01*
X247100Y424685D01*
X247168Y423904D01*
X247371Y423146D01*
X247703Y422435D01*
X248153Y421792D01*
X248707Y421238D01*
X249350Y420788D01*
X250061Y420456D01*
X250819Y420253D01*
X251600Y420185D01*
Y419185D01*
G37*
G36*
Y409185D02*X250819Y409117D01*
X250061Y408914D01*
X249350Y408582D01*
X248707Y408132D01*
X248153Y407578D01*
X247703Y406935D01*
X247493Y406485D01*
X225000D01*
Y412885D01*
X247493D01*
X247703Y412435D01*
X248153Y411792D01*
X248707Y411238D01*
X249350Y410788D01*
X250061Y410456D01*
X250819Y410253D01*
X251600Y410185D01*
Y409185D01*
G37*
G36*
Y399185D02*X250819Y399117D01*
X250061Y398914D01*
X249350Y398582D01*
X248707Y398132D01*
X248153Y397578D01*
X247703Y396935D01*
X225000D01*
Y402885D01*
X247493D01*
X247703Y402435D01*
X248153Y401792D01*
X248707Y401238D01*
X249350Y400788D01*
X250061Y400456D01*
X250819Y400253D01*
X251600Y400185D01*
Y399185D01*
G37*
G36*
Y363336D02*X251368Y363444D01*
X250695Y363624D01*
X250000Y363685D01*
X249305Y363624D01*
X248632Y363444D01*
X248000Y363149D01*
X247429Y362749D01*
X246936Y362256D01*
X246536Y361685D01*
X246241Y361053D01*
X246061Y360380D01*
X246000Y359685D01*
X246061Y358990D01*
X246241Y358317D01*
X246536Y357685D01*
X246936Y357114D01*
X247429Y356621D01*
X248000Y356221D01*
X248632Y355926D01*
X249305Y355746D01*
X250000Y355685D01*
X250695Y355746D01*
X251368Y355926D01*
X251600Y356034D01*
Y225000D01*
X225000D01*
Y252435D01*
X240000D01*
X240391Y252469D01*
X240770Y252571D01*
X241125Y252736D01*
X241446Y252961D01*
X241724Y253239D01*
X241949Y253560D01*
X242114Y253915D01*
X242216Y254294D01*
X242250Y254685D01*
Y324685D01*
X242216Y325076D01*
X242114Y325455D01*
X241949Y325810D01*
X241724Y326131D01*
X241446Y326409D01*
X241125Y326634D01*
X240770Y326799D01*
X240391Y326901D01*
X240000Y326935D01*
X229500D01*
Y327685D01*
X229477Y327945D01*
X229410Y328198D01*
X229299Y328435D01*
X229149Y328649D01*
X228964Y328834D01*
X228750Y328984D01*
X228513Y329095D01*
X228260Y329162D01*
X228000Y329185D01*
X227250D01*
Y392435D01*
X247703D01*
X248153Y391792D01*
X248707Y391238D01*
X249350Y390788D01*
X250061Y390456D01*
X250819Y390253D01*
X251600Y390185D01*
Y389185D01*
X250819Y389117D01*
X250061Y388914D01*
X249350Y388582D01*
X248707Y388132D01*
X248153Y387578D01*
X247703Y386935D01*
X247371Y386224D01*
X247168Y385466D01*
X247100Y384685D01*
X247168Y383904D01*
X247371Y383146D01*
X247703Y382435D01*
X248153Y381792D01*
X248707Y381238D01*
X249350Y380788D01*
X250061Y380456D01*
X250819Y380253D01*
X251600Y380185D01*
Y363336D01*
G37*
G36*
X225000Y485000D02*X251600D01*
Y479185D01*
X250819Y479117D01*
X250061Y478914D01*
X249350Y478582D01*
X248707Y478132D01*
X248153Y477578D01*
X247703Y476935D01*
X247493Y476485D01*
X225000D01*
Y485000D01*
G37*
G36*
Y416485D02*X195800D01*
Y472885D01*
X225000D01*
Y416485D01*
G37*
G36*
X215000Y307885D02*X225000D01*
Y299185D01*
X224219Y299117D01*
X223461Y298914D01*
X222750Y298582D01*
X222107Y298132D01*
X221553Y297578D01*
X221103Y296935D01*
X220771Y296224D01*
X220568Y295466D01*
X220500Y294685D01*
X220568Y293904D01*
X220771Y293146D01*
X221103Y292435D01*
X221553Y291792D01*
X222107Y291238D01*
X222750Y290788D01*
X223461Y290456D01*
X224219Y290253D01*
X225000Y290185D01*
Y261485D01*
X215000D01*
Y290185D01*
X215781Y290253D01*
X216539Y290456D01*
X217250Y290788D01*
X217893Y291238D01*
X218447Y291792D01*
X218897Y292435D01*
X219229Y293146D01*
X219432Y293904D01*
X219500Y294685D01*
X219432Y295466D01*
X219229Y296224D01*
X218897Y296935D01*
X218447Y297578D01*
X217893Y298132D01*
X217250Y298582D01*
X216539Y298914D01*
X215781Y299117D01*
X215000Y299185D01*
Y307885D01*
G37*
G36*
X225000Y406485D02*X215000D01*
Y412885D01*
X225000D01*
Y406485D01*
G37*
G36*
X215000D02*X214687Y406458D01*
X214384Y406376D01*
X214100Y406244D01*
X213843Y406064D01*
X213621Y405842D01*
X213441Y405585D01*
X213309Y405301D01*
X213227Y404998D01*
X213200Y404685D01*
Y328792D01*
X212750Y328582D01*
X212107Y328132D01*
X211553Y327578D01*
X211103Y326935D01*
X210771Y326224D01*
X210568Y325466D01*
X210500Y324685D01*
X210568Y323904D01*
X210771Y323146D01*
X211103Y322435D01*
X211553Y321792D01*
X212107Y321238D01*
X212750Y320788D01*
X213200Y320578D01*
Y309685D01*
X213227Y309372D01*
X213309Y309069D01*
X213441Y308785D01*
X213621Y308528D01*
X213843Y308306D01*
X214100Y308126D01*
X214384Y307994D01*
X214687Y307912D01*
X215000Y307885D01*
Y299185D01*
X214219Y299117D01*
X213461Y298914D01*
X212750Y298582D01*
X212107Y298132D01*
X211553Y297578D01*
X211103Y296935D01*
X210771Y296224D01*
X210568Y295466D01*
X210500Y294685D01*
X210568Y293904D01*
X210771Y293146D01*
X211103Y292435D01*
X211553Y291792D01*
X212107Y291238D01*
X212750Y290788D01*
X213461Y290456D01*
X214219Y290253D01*
X215000Y290185D01*
Y261485D01*
X205000D01*
Y290185D01*
X205781Y290253D01*
X206539Y290456D01*
X207250Y290788D01*
X207893Y291238D01*
X208447Y291792D01*
X208897Y292435D01*
X209229Y293146D01*
X209432Y293904D01*
X209500Y294685D01*
X209432Y295466D01*
X209229Y296224D01*
X208897Y296935D01*
X208447Y297578D01*
X207893Y298132D01*
X207250Y298582D01*
X206539Y298914D01*
X205781Y299117D01*
X205000Y299185D01*
Y312885D01*
X205313Y312912D01*
X205616Y312994D01*
X205900Y313126D01*
X206157Y313306D01*
X206379Y313528D01*
X206559Y313785D01*
X206691Y314069D01*
X206773Y314372D01*
X206800Y314685D01*
Y320578D01*
X207250Y320788D01*
X207893Y321238D01*
X208447Y321792D01*
X208897Y322435D01*
X209229Y323146D01*
X209432Y323904D01*
X209500Y324685D01*
X209432Y325466D01*
X209229Y326224D01*
X208897Y326935D01*
X208447Y327578D01*
X207893Y328132D01*
X207250Y328582D01*
X206539Y328914D01*
X205781Y329117D01*
X205000Y329185D01*
Y412885D01*
X215000D01*
Y406485D01*
G37*
G36*
X205000Y329185D02*X204219Y329117D01*
X203461Y328914D01*
X202750Y328582D01*
X202107Y328132D01*
X201553Y327578D01*
X201103Y326935D01*
X200771Y326224D01*
X200568Y325466D01*
X200500Y324685D01*
X200568Y323904D01*
X200771Y323146D01*
X201103Y322435D01*
X201553Y321792D01*
X202107Y321238D01*
X202750Y320788D01*
X203200Y320578D01*
Y316485D01*
X195800D01*
Y320258D01*
X196539Y320456D01*
X197250Y320788D01*
X197893Y321238D01*
X198447Y321792D01*
X198897Y322435D01*
X199229Y323146D01*
X199432Y323904D01*
X199500Y324685D01*
X199432Y325466D01*
X199229Y326224D01*
X198897Y326935D01*
X198447Y327578D01*
X197893Y328132D01*
X197250Y328582D01*
Y339785D01*
X198400D01*
X198660Y339808D01*
X198913Y339875D01*
X199150Y339986D01*
X199364Y340136D01*
X199549Y340321D01*
X199699Y340535D01*
X199810Y340772D01*
X199877Y341025D01*
X199900Y341285D01*
Y348085D01*
X199877Y348345D01*
X199810Y348598D01*
X199699Y348835D01*
X199549Y349049D01*
X199364Y349234D01*
X199150Y349384D01*
X198913Y349495D01*
X198660Y349562D01*
X198400Y349585D01*
X195800D01*
Y412885D01*
X205000D01*
Y329185D01*
G37*
G36*
Y261485D02*X195800D01*
Y290258D01*
X196539Y290456D01*
X197250Y290788D01*
X197893Y291238D01*
X198447Y291792D01*
X198897Y292435D01*
X199229Y293146D01*
X199432Y293904D01*
X199500Y294685D01*
X199432Y295466D01*
X199229Y296224D01*
X198897Y296935D01*
X198447Y297578D01*
X197893Y298132D01*
X197250Y298582D01*
X196539Y298914D01*
X195800Y299112D01*
Y312885D01*
X205000D01*
Y299185D01*
X204219Y299117D01*
X203461Y298914D01*
X202750Y298582D01*
X202107Y298132D01*
X201553Y297578D01*
X201103Y296935D01*
X200771Y296224D01*
X200568Y295466D01*
X200500Y294685D01*
X200568Y293904D01*
X200771Y293146D01*
X201103Y292435D01*
X201553Y291792D01*
X202107Y291238D01*
X202750Y290788D01*
X203461Y290456D01*
X204219Y290253D01*
X205000Y290185D01*
Y261485D01*
G37*
G36*
X225000Y256935D02*X195800D01*
Y257885D01*
X225000D01*
Y256935D01*
G37*
G36*
Y396935D02*X224609Y396901D01*
X224230Y396799D01*
X223875Y396634D01*
X223554Y396409D01*
X223276Y396131D01*
X223051Y395810D01*
X222886Y395455D01*
X222784Y395076D01*
X222750Y394685D01*
Y329185D01*
X222000D01*
X221740Y329162D01*
X221487Y329095D01*
X221250Y328984D01*
X221036Y328834D01*
X220851Y328649D01*
X220701Y328435D01*
X220590Y328198D01*
X220523Y327945D01*
X220500Y327685D01*
Y321685D01*
X220523Y321425D01*
X220590Y321172D01*
X220701Y320935D01*
X220851Y320721D01*
X221036Y320536D01*
X221250Y320386D01*
X221487Y320275D01*
X221740Y320208D01*
X222000Y320185D01*
X225000D01*
Y311485D01*
X216800D01*
Y320578D01*
X217250Y320788D01*
X217893Y321238D01*
X218447Y321792D01*
X218897Y322435D01*
X219229Y323146D01*
X219432Y323904D01*
X219500Y324685D01*
X219432Y325466D01*
X219229Y326224D01*
X218897Y326935D01*
X218447Y327578D01*
X217893Y328132D01*
X217250Y328582D01*
X216800Y328792D01*
Y402885D01*
X225000D01*
Y396935D01*
G37*
G36*
Y225000D02*X195800D01*
Y252435D01*
X225000D01*
Y225000D01*
G37*
G36*
X195800Y485000D02*X225000D01*
Y476485D01*
X195800D01*
Y485000D01*
G37*
G36*
X156375Y252435D02*X195800D01*
Y225000D01*
X156375D01*
Y252435D01*
G37*
G36*
Y257885D02*X195800D01*
Y256935D01*
X156375D01*
Y257885D01*
G37*
G36*
X175000Y312885D02*X195800D01*
Y299112D01*
X195781Y299117D01*
X195000Y299185D01*
X194219Y299117D01*
X193461Y298914D01*
X192750Y298582D01*
X192107Y298132D01*
X191553Y297578D01*
X191103Y296935D01*
X190771Y296224D01*
X190568Y295466D01*
X190500Y294685D01*
X190568Y293904D01*
X190771Y293146D01*
X191103Y292435D01*
X191553Y291792D01*
X192107Y291238D01*
X192750Y290788D01*
X193461Y290456D01*
X194219Y290253D01*
X195000Y290185D01*
X195781Y290253D01*
X195800Y290258D01*
Y261485D01*
X175000D01*
Y290185D01*
X175781Y290253D01*
X176539Y290456D01*
X177250Y290788D01*
X177893Y291238D01*
X178447Y291792D01*
X178897Y292435D01*
X179229Y293146D01*
X179432Y293904D01*
X179500Y294685D01*
X179432Y295466D01*
X179229Y296224D01*
X178897Y296935D01*
X178447Y297578D01*
X177893Y298132D01*
X177250Y298582D01*
X176539Y298914D01*
X175781Y299117D01*
X175000Y299185D01*
Y307885D01*
X183200D01*
Y298792D01*
X182750Y298582D01*
X182107Y298132D01*
X181553Y297578D01*
X181103Y296935D01*
X180771Y296224D01*
X180568Y295466D01*
X180500Y294685D01*
X180568Y293904D01*
X180771Y293146D01*
X181103Y292435D01*
X181553Y291792D01*
X182107Y291238D01*
X182750Y290788D01*
X183461Y290456D01*
X184219Y290253D01*
X185000Y290185D01*
X185781Y290253D01*
X186539Y290456D01*
X187250Y290788D01*
X187893Y291238D01*
X188447Y291792D01*
X188897Y292435D01*
X189229Y293146D01*
X189432Y293904D01*
X189500Y294685D01*
X189432Y295466D01*
X189229Y296224D01*
X188897Y296935D01*
X188447Y297578D01*
X187893Y298132D01*
X187250Y298582D01*
X186800Y298792D01*
Y309685D01*
X186773Y309998D01*
X186691Y310301D01*
X186559Y310585D01*
X186379Y310842D01*
X186157Y311064D01*
X185900Y311244D01*
X185616Y311376D01*
X185313Y311458D01*
X185000Y311485D01*
X175000D01*
Y312885D01*
G37*
G36*
Y332885D02*X180000D01*
X180313Y332912D01*
X180616Y332994D01*
X180900Y333126D01*
X181157Y333306D01*
X181379Y333528D01*
X181559Y333785D01*
X181691Y334069D01*
X181773Y334372D01*
X181800Y334685D01*
Y472885D01*
X195800D01*
Y416485D01*
X185000D01*
X184687Y416458D01*
X184384Y416376D01*
X184100Y416244D01*
X183843Y416064D01*
X183621Y415842D01*
X183441Y415585D01*
X183309Y415301D01*
X183227Y414998D01*
X183200Y414685D01*
Y328792D01*
X182750Y328582D01*
X182107Y328132D01*
X181553Y327578D01*
X181103Y326935D01*
X180771Y326224D01*
X180568Y325466D01*
X180500Y324685D01*
X180568Y323904D01*
X180771Y323146D01*
X181103Y322435D01*
X181553Y321792D01*
X182107Y321238D01*
X182750Y320788D01*
X183461Y320456D01*
X184219Y320253D01*
X185000Y320185D01*
X185781Y320253D01*
X186539Y320456D01*
X187250Y320788D01*
X187893Y321238D01*
X188447Y321792D01*
X188897Y322435D01*
X189229Y323146D01*
X189432Y323904D01*
X189500Y324685D01*
X189432Y325466D01*
X189229Y326224D01*
X188897Y326935D01*
X188447Y327578D01*
X187893Y328132D01*
X187250Y328582D01*
X186800Y328792D01*
Y412885D01*
X195800D01*
Y349585D01*
X191600D01*
X191340Y349562D01*
X191087Y349495D01*
X190850Y349384D01*
X190636Y349234D01*
X190451Y349049D01*
X190301Y348835D01*
X190190Y348598D01*
X190123Y348345D01*
X190100Y348085D01*
Y341285D01*
X190123Y341025D01*
X190190Y340772D01*
X190301Y340535D01*
X190451Y340321D01*
X190636Y340136D01*
X190850Y339986D01*
X191087Y339875D01*
X191340Y339808D01*
X191600Y339785D01*
X192750D01*
Y328582D01*
X192107Y328132D01*
X191553Y327578D01*
X191103Y326935D01*
X190771Y326224D01*
X190568Y325466D01*
X190500Y324685D01*
X190568Y323904D01*
X190771Y323146D01*
X191103Y322435D01*
X191553Y321792D01*
X192107Y321238D01*
X192750Y320788D01*
X193461Y320456D01*
X194219Y320253D01*
X195000Y320185D01*
X195781Y320253D01*
X195800Y320258D01*
Y316485D01*
X176800D01*
Y320578D01*
X177250Y320788D01*
X177893Y321238D01*
X178447Y321792D01*
X178897Y322435D01*
X179229Y323146D01*
X179432Y323904D01*
X179500Y324685D01*
X179432Y325466D01*
X179229Y326224D01*
X178897Y326935D01*
X178447Y327578D01*
X177893Y328132D01*
X177250Y328582D01*
X176539Y328914D01*
X175781Y329117D01*
X175000Y329185D01*
Y332885D01*
G37*
G36*
Y261485D02*X165000D01*
Y290185D01*
X165781Y290253D01*
X166539Y290456D01*
X167250Y290788D01*
X167893Y291238D01*
X168447Y291792D01*
X168897Y292435D01*
X169229Y293146D01*
X169432Y293904D01*
X169500Y294685D01*
X169432Y295466D01*
X169229Y296224D01*
X168897Y296935D01*
X168447Y297578D01*
X167893Y298132D01*
X167250Y298582D01*
X166539Y298914D01*
X165781Y299117D01*
X165000Y299185D01*
Y307885D01*
X175000D01*
Y299185D01*
X174219Y299117D01*
X173461Y298914D01*
X172750Y298582D01*
X172107Y298132D01*
X171553Y297578D01*
X171103Y296935D01*
X170771Y296224D01*
X170568Y295466D01*
X170500Y294685D01*
X170568Y293904D01*
X170771Y293146D01*
X171103Y292435D01*
X171553Y291792D01*
X172107Y291238D01*
X172750Y290788D01*
X173461Y290456D01*
X174219Y290253D01*
X175000Y290185D01*
Y261485D01*
G37*
G36*
X165000Y332885D02*X175000D01*
Y329185D01*
X174219Y329117D01*
X173461Y328914D01*
X172750Y328582D01*
X172107Y328132D01*
X171553Y327578D01*
X171103Y326935D01*
X170771Y326224D01*
X170568Y325466D01*
X170500Y324685D01*
X170568Y323904D01*
X170771Y323146D01*
X171103Y322435D01*
X171553Y321792D01*
X172107Y321238D01*
X172750Y320788D01*
X173200Y320578D01*
Y314685D01*
X173227Y314372D01*
X173309Y314069D01*
X173441Y313785D01*
X173621Y313528D01*
X173843Y313306D01*
X174100Y313126D01*
X174384Y312994D01*
X174687Y312912D01*
X175000Y312885D01*
Y311485D01*
X165000D01*
Y320185D01*
X165781Y320253D01*
X166539Y320456D01*
X167250Y320788D01*
X167893Y321238D01*
X168447Y321792D01*
X168897Y322435D01*
X169229Y323146D01*
X169432Y323904D01*
X169500Y324685D01*
X169432Y325466D01*
X169229Y326224D01*
X168897Y326935D01*
X168447Y327578D01*
X167893Y328132D01*
X167250Y328582D01*
X166539Y328914D01*
X165781Y329117D01*
X165000Y329185D01*
Y332885D01*
G37*
G36*
Y261485D02*X156375D01*
Y307885D01*
X165000D01*
Y299185D01*
X164219Y299117D01*
X163461Y298914D01*
X162750Y298582D01*
X162107Y298132D01*
X161553Y297578D01*
X161103Y296935D01*
X160771Y296224D01*
X160568Y295466D01*
X160500Y294685D01*
X160568Y293904D01*
X160771Y293146D01*
X161103Y292435D01*
X161553Y291792D01*
X162107Y291238D01*
X162750Y290788D01*
X163461Y290456D01*
X164219Y290253D01*
X165000Y290185D01*
Y261485D01*
G37*
G36*
X156375Y332885D02*X165000D01*
Y329185D01*
X164219Y329117D01*
X163461Y328914D01*
X162750Y328582D01*
X162107Y328132D01*
X161553Y327578D01*
X161103Y326935D01*
X160771Y326224D01*
X160568Y325466D01*
X160500Y324685D01*
X160568Y323904D01*
X160771Y323146D01*
X161103Y322435D01*
X161553Y321792D01*
X162107Y321238D01*
X162750Y320788D01*
X163461Y320456D01*
X164219Y320253D01*
X165000Y320185D01*
Y311485D01*
X156375D01*
Y332885D01*
G37*
G36*
Y372885D02*X178200D01*
Y336485D01*
X156375D01*
Y340000D01*
X156676Y340081D01*
X157450Y340441D01*
X158150Y340931D01*
X158754Y341535D01*
X159244Y342235D01*
X159604Y343009D01*
X159826Y343834D01*
X159900Y344685D01*
X159826Y345536D01*
X159604Y346361D01*
X159244Y347135D01*
X158754Y347835D01*
X158150Y348439D01*
X157450Y348929D01*
X156676Y349289D01*
X156375Y349370D01*
Y354794D01*
X156744Y354893D01*
X157550Y355268D01*
X158278Y355778D01*
X158907Y356407D01*
X159417Y357135D01*
X159792Y357941D01*
X160023Y358799D01*
X160100Y359685D01*
X160023Y360571D01*
X159792Y361429D01*
X159417Y362235D01*
X158907Y362963D01*
X158278Y363592D01*
X157550Y364102D01*
X156744Y364477D01*
X156375Y364576D01*
Y372885D01*
G37*
G36*
X165000Y470185D02*X168000D01*
X168260Y470208D01*
X168513Y470275D01*
X168750Y470386D01*
X168964Y470536D01*
X169149Y470721D01*
X169299Y470935D01*
X169410Y471172D01*
X169477Y471425D01*
X169500Y471685D01*
Y472435D01*
X172750D01*
Y436935D01*
X168897D01*
X168447Y437578D01*
X167893Y438132D01*
X167250Y438582D01*
X166539Y438914D01*
X165781Y439117D01*
X165000Y439185D01*
Y440185D01*
X165781Y440253D01*
X166539Y440456D01*
X167250Y440788D01*
X167893Y441238D01*
X168447Y441792D01*
X168897Y442435D01*
X169229Y443146D01*
X169432Y443904D01*
X169500Y444685D01*
X169432Y445466D01*
X169229Y446224D01*
X168897Y446935D01*
X168447Y447578D01*
X167893Y448132D01*
X167250Y448582D01*
X166539Y448914D01*
X165781Y449117D01*
X165000Y449185D01*
Y450185D01*
X165781Y450253D01*
X166539Y450456D01*
X167250Y450788D01*
X167893Y451238D01*
X168447Y451792D01*
X168897Y452435D01*
X169229Y453146D01*
X169432Y453904D01*
X169500Y454685D01*
X169432Y455466D01*
X169229Y456224D01*
X168897Y456935D01*
X168447Y457578D01*
X167893Y458132D01*
X167250Y458582D01*
X166539Y458914D01*
X165781Y459117D01*
X165000Y459185D01*
Y460185D01*
X165781Y460253D01*
X166539Y460456D01*
X167250Y460788D01*
X167893Y461238D01*
X168447Y461792D01*
X168897Y462435D01*
X169229Y463146D01*
X169432Y463904D01*
X169500Y464685D01*
X169432Y465466D01*
X169229Y466224D01*
X168897Y466935D01*
X168447Y467578D01*
X167893Y468132D01*
X167250Y468582D01*
X166539Y468914D01*
X165781Y469117D01*
X165000Y469185D01*
Y470185D01*
G37*
G36*
Y485000D02*X195800D01*
Y476485D01*
X180000D01*
X179687Y476458D01*
X179384Y476376D01*
X179100Y476244D01*
X178843Y476064D01*
X178621Y475842D01*
X178441Y475585D01*
X178309Y475301D01*
X178227Y474998D01*
X178200Y474685D01*
Y376485D01*
X165000D01*
Y380185D01*
X165781Y380253D01*
X166539Y380456D01*
X167250Y380788D01*
X167893Y381238D01*
X168447Y381792D01*
X168897Y382435D01*
X169229Y383146D01*
X169432Y383904D01*
X169500Y384685D01*
X169432Y385466D01*
X169229Y386224D01*
X168897Y386935D01*
X168447Y387578D01*
X167893Y388132D01*
X167250Y388582D01*
X166539Y388914D01*
X165781Y389117D01*
X165000Y389185D01*
Y390185D01*
X165781Y390253D01*
X166539Y390456D01*
X167250Y390788D01*
X167893Y391238D01*
X168447Y391792D01*
X168897Y392435D01*
X169229Y393146D01*
X169432Y393904D01*
X169500Y394685D01*
X169432Y395466D01*
X169229Y396224D01*
X168897Y396935D01*
X168447Y397578D01*
X167893Y398132D01*
X167250Y398582D01*
X166539Y398914D01*
X165781Y399117D01*
X165000Y399185D01*
Y400185D01*
X165781Y400253D01*
X166539Y400456D01*
X167250Y400788D01*
X167893Y401238D01*
X168447Y401792D01*
X168897Y402435D01*
X169229Y403146D01*
X169432Y403904D01*
X169500Y404685D01*
X169432Y405466D01*
X169229Y406224D01*
X168897Y406935D01*
X168447Y407578D01*
X167893Y408132D01*
X167250Y408582D01*
X166539Y408914D01*
X165781Y409117D01*
X165000Y409185D01*
Y410185D01*
X165781Y410253D01*
X166539Y410456D01*
X167250Y410788D01*
X167893Y411238D01*
X168447Y411792D01*
X168897Y412435D01*
X169229Y413146D01*
X169432Y413904D01*
X169500Y414685D01*
X169432Y415466D01*
X169229Y416224D01*
X168897Y416935D01*
X168447Y417578D01*
X167893Y418132D01*
X167250Y418582D01*
X166539Y418914D01*
X165781Y419117D01*
X165000Y419185D01*
Y420185D01*
X165781Y420253D01*
X166539Y420456D01*
X167250Y420788D01*
X167893Y421238D01*
X168447Y421792D01*
X168897Y422435D01*
X169229Y423146D01*
X169432Y423904D01*
X169500Y424685D01*
X169432Y425466D01*
X169229Y426224D01*
X168897Y426935D01*
X168447Y427578D01*
X167893Y428132D01*
X167250Y428582D01*
X166539Y428914D01*
X165781Y429117D01*
X165000Y429185D01*
Y430185D01*
X165781Y430253D01*
X166539Y430456D01*
X167250Y430788D01*
X167893Y431238D01*
X168447Y431792D01*
X168897Y432435D01*
X175000D01*
X175391Y432469D01*
X175770Y432571D01*
X176125Y432736D01*
X176446Y432961D01*
X176724Y433239D01*
X176949Y433560D01*
X177114Y433915D01*
X177216Y434294D01*
X177250Y434685D01*
Y474685D01*
X177216Y475076D01*
X177114Y475455D01*
X176949Y475810D01*
X176724Y476131D01*
X176446Y476409D01*
X176125Y476634D01*
X175770Y476799D01*
X175391Y476901D01*
X175000Y476935D01*
X169500D01*
Y477685D01*
X169477Y477945D01*
X169410Y478198D01*
X169299Y478435D01*
X169149Y478649D01*
X168964Y478834D01*
X168750Y478984D01*
X168513Y479095D01*
X168260Y479162D01*
X168000Y479185D01*
X165000D01*
Y485000D01*
G37*
G36*
Y376485D02*X156800D01*
Y449685D01*
X156773Y449998D01*
X156691Y450301D01*
X156559Y450585D01*
X156379Y450842D01*
X156375Y450846D01*
Y457911D01*
X156446Y457961D01*
X156724Y458239D01*
X156949Y458560D01*
X157114Y458915D01*
X157216Y459294D01*
X157250Y459685D01*
Y472435D01*
X160500D01*
Y471685D01*
X160523Y471425D01*
X160590Y471172D01*
X160701Y470935D01*
X160851Y470721D01*
X161036Y470536D01*
X161250Y470386D01*
X161487Y470275D01*
X161740Y470208D01*
X162000Y470185D01*
X165000D01*
Y469185D01*
X164219Y469117D01*
X163461Y468914D01*
X162750Y468582D01*
X162107Y468132D01*
X161553Y467578D01*
X161103Y466935D01*
X160771Y466224D01*
X160568Y465466D01*
X160500Y464685D01*
X160568Y463904D01*
X160771Y463146D01*
X161103Y462435D01*
X161553Y461792D01*
X162107Y461238D01*
X162750Y460788D01*
X163461Y460456D01*
X164219Y460253D01*
X165000Y460185D01*
Y459185D01*
X164219Y459117D01*
X163461Y458914D01*
X162750Y458582D01*
X162107Y458132D01*
X161553Y457578D01*
X161103Y456935D01*
X160771Y456224D01*
X160568Y455466D01*
X160500Y454685D01*
X160568Y453904D01*
X160771Y453146D01*
X161103Y452435D01*
X161553Y451792D01*
X162107Y451238D01*
X162750Y450788D01*
X163461Y450456D01*
X164219Y450253D01*
X165000Y450185D01*
Y449185D01*
X164219Y449117D01*
X163461Y448914D01*
X162750Y448582D01*
X162107Y448132D01*
X161553Y447578D01*
X161103Y446935D01*
X160771Y446224D01*
X160568Y445466D01*
X160500Y444685D01*
X160568Y443904D01*
X160771Y443146D01*
X161103Y442435D01*
X161553Y441792D01*
X162107Y441238D01*
X162750Y440788D01*
X163461Y440456D01*
X164219Y440253D01*
X165000Y440185D01*
Y439185D01*
X164219Y439117D01*
X163461Y438914D01*
X162750Y438582D01*
X162107Y438132D01*
X161553Y437578D01*
X161103Y436935D01*
X160771Y436224D01*
X160568Y435466D01*
X160500Y434685D01*
X160568Y433904D01*
X160771Y433146D01*
X161103Y432435D01*
X161553Y431792D01*
X162107Y431238D01*
X162750Y430788D01*
X163461Y430456D01*
X164219Y430253D01*
X165000Y430185D01*
Y429185D01*
X164219Y429117D01*
X163461Y428914D01*
X162750Y428582D01*
X162107Y428132D01*
X161553Y427578D01*
X161103Y426935D01*
X160771Y426224D01*
X160568Y425466D01*
X160500Y424685D01*
X160568Y423904D01*
X160771Y423146D01*
X161103Y422435D01*
X161553Y421792D01*
X162107Y421238D01*
X162750Y420788D01*
X163461Y420456D01*
X164219Y420253D01*
X165000Y420185D01*
Y419185D01*
X164219Y419117D01*
X163461Y418914D01*
X162750Y418582D01*
X162107Y418132D01*
X161553Y417578D01*
X161103Y416935D01*
X160771Y416224D01*
X160568Y415466D01*
X160500Y414685D01*
X160568Y413904D01*
X160771Y413146D01*
X161103Y412435D01*
X161553Y411792D01*
X162107Y411238D01*
X162750Y410788D01*
X163461Y410456D01*
X164219Y410253D01*
X165000Y410185D01*
Y409185D01*
X164219Y409117D01*
X163461Y408914D01*
X162750Y408582D01*
X162107Y408132D01*
X161553Y407578D01*
X161103Y406935D01*
X160771Y406224D01*
X160568Y405466D01*
X160500Y404685D01*
X160568Y403904D01*
X160771Y403146D01*
X161103Y402435D01*
X161553Y401792D01*
X162107Y401238D01*
X162750Y400788D01*
X163461Y400456D01*
X164219Y400253D01*
X165000Y400185D01*
Y399185D01*
X164219Y399117D01*
X163461Y398914D01*
X162750Y398582D01*
X162107Y398132D01*
X161553Y397578D01*
X161103Y396935D01*
X160771Y396224D01*
X160568Y395466D01*
X160500Y394685D01*
X160568Y393904D01*
X160771Y393146D01*
X161103Y392435D01*
X161553Y391792D01*
X162107Y391238D01*
X162750Y390788D01*
X163461Y390456D01*
X164219Y390253D01*
X165000Y390185D01*
Y389185D01*
X164219Y389117D01*
X163461Y388914D01*
X162750Y388582D01*
X162107Y388132D01*
X161553Y387578D01*
X161103Y386935D01*
X160771Y386224D01*
X160568Y385466D01*
X160500Y384685D01*
X160568Y383904D01*
X160771Y383146D01*
X161103Y382435D01*
X161553Y381792D01*
X162107Y381238D01*
X162750Y380788D01*
X163461Y380456D01*
X164219Y380253D01*
X165000Y380185D01*
Y376485D01*
G37*
G36*
X156375Y485000D02*X165000D01*
Y479185D01*
X162000D01*
X161740Y479162D01*
X161487Y479095D01*
X161250Y478984D01*
X161036Y478834D01*
X160851Y478649D01*
X160701Y478435D01*
X160590Y478198D01*
X160523Y477945D01*
X160500Y477685D01*
Y476935D01*
X156375D01*
Y485000D01*
G37*
G36*
Y349370D02*X155851Y349511D01*
X155000Y349585D01*
X154149Y349511D01*
X153324Y349289D01*
X152550Y348929D01*
X151850Y348439D01*
X151246Y347835D01*
X150756Y347135D01*
X150663Y346935D01*
X147250D01*
Y355128D01*
X147550Y355268D01*
X148278Y355778D01*
X148907Y356407D01*
X149417Y357135D01*
X149792Y357941D01*
X150000Y358714D01*
X150208Y357941D01*
X150583Y357135D01*
X151093Y356407D01*
X151722Y355778D01*
X152450Y355268D01*
X153256Y354893D01*
X154114Y354662D01*
X155000Y354585D01*
X155886Y354662D01*
X156375Y354794D01*
Y349370D01*
G37*
G36*
X70000Y292435D02*X77750D01*
Y254685D01*
X77784Y254294D01*
X77886Y253915D01*
X78051Y253560D01*
X78276Y253239D01*
X78554Y252961D01*
X78875Y252736D01*
X79230Y252571D01*
X79609Y252469D01*
X80000Y252435D01*
X156375D01*
Y225000D01*
X70000D01*
Y259785D01*
X73400D01*
X73660Y259808D01*
X73913Y259875D01*
X74150Y259986D01*
X74364Y260136D01*
X74549Y260321D01*
X74699Y260535D01*
X74810Y260772D01*
X74877Y261025D01*
X74900Y261285D01*
Y268085D01*
X74877Y268345D01*
X74810Y268598D01*
X74699Y268835D01*
X74549Y269049D01*
X74364Y269234D01*
X74150Y269384D01*
X73913Y269495D01*
X73660Y269562D01*
X73400Y269585D01*
X70000D01*
Y292435D01*
G37*
G36*
Y312885D02*X83200D01*
Y259685D01*
X83227Y259372D01*
X83309Y259069D01*
X83441Y258785D01*
X83621Y258528D01*
X83843Y258306D01*
X84100Y258126D01*
X84384Y257994D01*
X84687Y257912D01*
X85000Y257885D01*
X156375D01*
Y256935D01*
X82250D01*
Y294685D01*
X82216Y295076D01*
X82114Y295455D01*
X81949Y295810D01*
X81724Y296131D01*
X81446Y296409D01*
X81125Y296634D01*
X80770Y296799D01*
X80391Y296901D01*
X80000Y296935D01*
X70000D01*
Y312885D01*
G37*
G36*
X44950Y287885D02*X55000D01*
X55313Y287912D01*
X55616Y287994D01*
X55900Y288126D01*
X56157Y288306D01*
X56379Y288528D01*
X56559Y288785D01*
X56691Y289069D01*
X56773Y289372D01*
X56800Y289685D01*
Y312885D01*
X70000D01*
Y296935D01*
X67250D01*
Y300348D01*
X67450Y300441D01*
X68150Y300931D01*
X68754Y301535D01*
X69244Y302235D01*
X69604Y303009D01*
X69826Y303834D01*
X69900Y304685D01*
X69826Y305536D01*
X69604Y306361D01*
X69244Y307135D01*
X68754Y307835D01*
X68150Y308439D01*
X67450Y308929D01*
X66676Y309289D01*
X65851Y309511D01*
X65000Y309585D01*
X64149Y309511D01*
X63324Y309289D01*
X62550Y308929D01*
X61850Y308439D01*
X61246Y307835D01*
X60756Y307135D01*
X60396Y306361D01*
X60174Y305536D01*
X60100Y304685D01*
X60174Y303834D01*
X60396Y303009D01*
X60756Y302235D01*
X61246Y301535D01*
X61850Y300931D01*
X62550Y300441D01*
X62750Y300348D01*
Y294685D01*
X62784Y294294D01*
X62886Y293915D01*
X63051Y293560D01*
X63276Y293239D01*
X63554Y292961D01*
X63875Y292736D01*
X64230Y292571D01*
X64609Y292469D01*
X65000Y292435D01*
X70000D01*
Y269585D01*
X66600D01*
X66340Y269562D01*
X66087Y269495D01*
X65850Y269384D01*
X65636Y269234D01*
X65451Y269049D01*
X65301Y268835D01*
X65190Y268598D01*
X65123Y268345D01*
X65100Y268085D01*
Y261285D01*
X65123Y261025D01*
X65190Y260772D01*
X65301Y260535D01*
X65451Y260321D01*
X65636Y260136D01*
X65850Y259986D01*
X66087Y259875D01*
X66340Y259808D01*
X66600Y259785D01*
X70000D01*
Y225000D01*
X44950D01*
Y287885D01*
G37*
G36*
X60000Y358714D02*X60208Y357941D01*
X60583Y357135D01*
X61093Y356407D01*
X61722Y355778D01*
X62450Y355268D01*
X63256Y354893D01*
X63657Y354785D01*
X61400D01*
X61140Y354762D01*
X60887Y354695D01*
X60650Y354584D01*
X60436Y354434D01*
X60251Y354249D01*
X60101Y354035D01*
X60000Y353819D01*
Y358714D01*
G37*
G36*
Y367885D02*X60234D01*
X60583Y367135D01*
X61093Y366407D01*
X61722Y365778D01*
X62450Y365268D01*
X63256Y364893D01*
X64029Y364685D01*
X63256Y364477D01*
X62450Y364102D01*
X61722Y363592D01*
X61093Y362963D01*
X60583Y362235D01*
X60208Y361429D01*
X60000Y360656D01*
Y367885D01*
G37*
G36*
X149150Y307885D02*X156375D01*
Y261485D01*
X149150D01*
Y292035D01*
X149900D01*
Y297335D01*
X149150D01*
Y307885D01*
G37*
G36*
X145000D02*X149150D01*
Y297335D01*
X148400D01*
Y292035D01*
X149150D01*
Y261485D01*
X145000D01*
Y289785D01*
X147650D01*
Y291285D01*
X145000D01*
Y298085D01*
X147650D01*
Y299585D01*
X145000D01*
Y307885D01*
G37*
G36*
X140850D02*X145000D01*
Y299585D01*
X142350D01*
Y298085D01*
X145000D01*
Y291285D01*
X142350D01*
Y289785D01*
X145000D01*
Y261485D01*
X140850D01*
Y292035D01*
X141600D01*
Y297335D01*
X140850D01*
Y307885D01*
G37*
G36*
X140000D02*X140850D01*
Y297335D01*
X140100D01*
Y292035D01*
X140850D01*
Y261485D01*
X140000D01*
Y307885D01*
G37*
G36*
Y355551D02*X140010Y355572D01*
X140077Y355825D01*
X140100Y356085D01*
Y358342D01*
X140208Y357941D01*
X140583Y357135D01*
X141093Y356407D01*
X141722Y355778D01*
X142450Y355268D01*
X142750Y355128D01*
Y344685D01*
X142784Y344294D01*
X142886Y343915D01*
X143051Y343560D01*
X143276Y343239D01*
X143554Y342961D01*
X143875Y342736D01*
X144230Y342571D01*
X144609Y342469D01*
X145000Y342435D01*
X150663D01*
X150756Y342235D01*
X151246Y341535D01*
X151850Y340931D01*
X152550Y340441D01*
X153324Y340081D01*
X154149Y339859D01*
X155000Y339785D01*
X155851Y339859D01*
X156375Y340000D01*
Y336485D01*
X149546D01*
X149244Y337135D01*
X148754Y337835D01*
X148150Y338439D01*
X147450Y338929D01*
X146676Y339289D01*
X145851Y339511D01*
X145000Y339585D01*
X144149Y339511D01*
X143324Y339289D01*
X142550Y338929D01*
X141850Y338439D01*
X141246Y337835D01*
X140756Y337135D01*
X140396Y336361D01*
X140174Y335536D01*
X140100Y334685D01*
X140174Y333834D01*
X140396Y333009D01*
X140756Y332235D01*
X141246Y331535D01*
X141850Y330931D01*
X142550Y330441D01*
X143324Y330081D01*
X144149Y329859D01*
X145000Y329785D01*
X145851Y329859D01*
X146676Y330081D01*
X147450Y330441D01*
X148150Y330931D01*
X148754Y331535D01*
X149244Y332235D01*
X149546Y332885D01*
X156375D01*
Y311485D01*
X140000D01*
Y355551D01*
G37*
G36*
Y445185D02*X140781Y445253D01*
X141539Y445456D01*
X142250Y445788D01*
X142893Y446238D01*
X143447Y446792D01*
X143897Y447435D01*
X144107Y447885D01*
X153200D01*
Y374685D01*
X153227Y374372D01*
X153309Y374069D01*
X153441Y373785D01*
X153621Y373528D01*
X153843Y373306D01*
X154100Y373126D01*
X154384Y372994D01*
X154687Y372912D01*
X155000Y372885D01*
X156375D01*
Y364576D01*
X155886Y364708D01*
X155000Y364785D01*
X154114Y364708D01*
X153256Y364477D01*
X152450Y364102D01*
X151722Y363592D01*
X151093Y362963D01*
X150583Y362235D01*
X150208Y361429D01*
X150000Y360656D01*
X149792Y361429D01*
X149417Y362235D01*
X148907Y362963D01*
X148278Y363592D01*
X147550Y364102D01*
X146744Y364477D01*
X145886Y364708D01*
X145000Y364785D01*
X144114Y364708D01*
X143256Y364477D01*
X142450Y364102D01*
X141722Y363592D01*
X141093Y362963D01*
X140583Y362235D01*
X140208Y361429D01*
X140100Y361028D01*
Y363285D01*
X140077Y363545D01*
X140010Y363798D01*
X140000Y363819D01*
Y445185D01*
G37*
G36*
Y455185D02*X140781Y455253D01*
X141539Y455456D01*
X142250Y455788D01*
X142893Y456238D01*
X143447Y456792D01*
X143897Y457435D01*
X155000D01*
X155391Y457469D01*
X155770Y457571D01*
X156125Y457736D01*
X156375Y457911D01*
Y450846D01*
X156157Y451064D01*
X155900Y451244D01*
X155616Y451376D01*
X155313Y451458D01*
X155000Y451485D01*
X144107D01*
X143897Y451935D01*
X143447Y452578D01*
X142893Y453132D01*
X142250Y453582D01*
X141539Y453914D01*
X140781Y454117D01*
X140000Y454185D01*
Y455185D01*
G37*
G36*
Y485000D02*X156375D01*
Y476935D01*
X155000D01*
X154609Y476901D01*
X154230Y476799D01*
X153875Y476634D01*
X153554Y476409D01*
X153276Y476131D01*
X153051Y475810D01*
X152886Y475455D01*
X152784Y475076D01*
X152750Y474685D01*
Y461935D01*
X143897D01*
X143447Y462578D01*
X142893Y463132D01*
X142250Y463582D01*
X141539Y463914D01*
X140781Y464117D01*
X140000Y464185D01*
Y465185D01*
X140781Y465253D01*
X141539Y465456D01*
X142250Y465788D01*
X142893Y466238D01*
X143447Y466792D01*
X143897Y467435D01*
X144229Y468146D01*
X144432Y468904D01*
X144500Y469685D01*
X144432Y470466D01*
X144229Y471224D01*
X143897Y471935D01*
X143447Y472578D01*
X142893Y473132D01*
X142250Y473582D01*
X141539Y473914D01*
X140781Y474117D01*
X140000Y474185D01*
Y485000D01*
G37*
G36*
X129999Y307885D02*X140000D01*
Y261485D01*
X129999D01*
Y307885D01*
G37*
G36*
Y355553D02*X130101Y355335D01*
X130251Y355121D01*
X130436Y354936D01*
X130650Y354786D01*
X130887Y354675D01*
X131140Y354608D01*
X131400Y354585D01*
X138600D01*
X138860Y354608D01*
X139113Y354675D01*
X139350Y354786D01*
X139564Y354936D01*
X139749Y355121D01*
X139899Y355335D01*
X140000Y355551D01*
Y311485D01*
X129999D01*
Y355553D01*
G37*
G36*
X133394Y485000D02*X140000D01*
Y474185D01*
X139219Y474117D01*
X138461Y473914D01*
X137750Y473582D01*
X137107Y473132D01*
X136553Y472578D01*
X136103Y471935D01*
X135771Y471224D01*
X135568Y470466D01*
X135500Y469685D01*
X135568Y468904D01*
X135771Y468146D01*
X136103Y467435D01*
X136553Y466792D01*
X137107Y466238D01*
X137750Y465788D01*
X138461Y465456D01*
X139219Y465253D01*
X140000Y465185D01*
Y464185D01*
X139219Y464117D01*
X138461Y463914D01*
X137750Y463582D01*
X137107Y463132D01*
X136553Y462578D01*
X136103Y461935D01*
X135771Y461224D01*
X135568Y460466D01*
X135500Y459685D01*
X135568Y458904D01*
X135771Y458146D01*
X136103Y457435D01*
X136553Y456792D01*
X137107Y456238D01*
X137750Y455788D01*
X138461Y455456D01*
X139219Y455253D01*
X140000Y455185D01*
Y454185D01*
X139219Y454117D01*
X138461Y453914D01*
X137750Y453582D01*
X137107Y453132D01*
X136553Y452578D01*
X136103Y451935D01*
X135771Y451224D01*
X135568Y450466D01*
X135500Y449685D01*
X135568Y448904D01*
X135771Y448146D01*
X136103Y447435D01*
X136553Y446792D01*
X137107Y446238D01*
X137750Y445788D01*
X138461Y445456D01*
X139219Y445253D01*
X140000Y445185D01*
Y363819D01*
X139899Y364035D01*
X139749Y364249D01*
X139564Y364434D01*
X139350Y364584D01*
X139113Y364695D01*
X138860Y364762D01*
X138600Y364785D01*
X136800D01*
Y374785D01*
X138400D01*
X138660Y374808D01*
X138913Y374875D01*
X139150Y374986D01*
X139364Y375136D01*
X139549Y375321D01*
X139699Y375535D01*
X139810Y375772D01*
X139877Y376025D01*
X139900Y376285D01*
Y383085D01*
X139877Y383345D01*
X139810Y383598D01*
X139699Y383835D01*
X139549Y384049D01*
X139364Y384234D01*
X139150Y384384D01*
X138913Y384495D01*
X138660Y384562D01*
X138400Y384585D01*
X133394D01*
Y432747D01*
X133419Y432749D01*
X133545Y432783D01*
X133664Y432839D01*
X133771Y432914D01*
X133863Y433006D01*
X133938Y433113D01*
X133993Y433232D01*
X134105Y433586D01*
X134185Y433947D01*
X134233Y434315D01*
X134250Y434685D01*
X134233Y435056D01*
X134185Y435424D01*
X134105Y435785D01*
X133993Y436139D01*
X133992Y436140D01*
X133937Y436258D01*
X133862Y436365D01*
X133769Y436458D01*
X133662Y436532D01*
X133544Y436587D01*
X133417Y436621D01*
X133394Y436623D01*
Y485000D01*
G37*
G36*
X129999D02*X133394D01*
Y436623D01*
X133287Y436632D01*
X133157Y436621D01*
X133031Y436587D01*
X132913Y436532D01*
X132806Y436457D01*
X132713Y436364D01*
X132639Y436257D01*
X132584Y436139D01*
X132550Y436012D01*
X132539Y435882D01*
X132550Y435752D01*
X132584Y435626D01*
X132656Y435397D01*
X132708Y435163D01*
X132739Y434925D01*
X132750Y434685D01*
X132739Y434446D01*
X132708Y434208D01*
X132656Y433974D01*
X132584Y433745D01*
X132583Y433744D01*
X132549Y433618D01*
X132538Y433487D01*
X132549Y433357D01*
X132583Y433231D01*
X132639Y433112D01*
X132714Y433005D01*
X132806Y432913D01*
X132913Y432838D01*
X133032Y432783D01*
X133158Y432749D01*
X133289Y432738D01*
X133394Y432747D01*
Y384585D01*
X131600D01*
X131340Y384562D01*
X131087Y384495D01*
X130850Y384384D01*
X130636Y384234D01*
X130451Y384049D01*
X130301Y383835D01*
X130190Y383598D01*
X130123Y383345D01*
X130100Y383085D01*
Y376285D01*
X130123Y376025D01*
X130190Y375772D01*
X130301Y375535D01*
X130451Y375321D01*
X130636Y375136D01*
X130850Y374986D01*
X131087Y374875D01*
X131340Y374808D01*
X131600Y374785D01*
X133200D01*
Y364785D01*
X131400D01*
X131140Y364762D01*
X130887Y364695D01*
X130650Y364584D01*
X130436Y364434D01*
X130251Y364249D01*
X130101Y364035D01*
X129999Y363817D01*
Y430435D01*
X130370Y430452D01*
X130738Y430500D01*
X131099Y430580D01*
X131453Y430692D01*
X131454Y430693D01*
X131572Y430748D01*
X131679Y430823D01*
X131772Y430916D01*
X131846Y431023D01*
X131901Y431141D01*
X131935Y431268D01*
X131946Y431398D01*
X131935Y431528D01*
X131901Y431654D01*
X131846Y431772D01*
X131771Y431879D01*
X131678Y431972D01*
X131571Y432046D01*
X131453Y432101D01*
X131326Y432135D01*
X131196Y432146D01*
X131066Y432135D01*
X130940Y432101D01*
X130711Y432029D01*
X130477Y431977D01*
X130239Y431946D01*
X129999Y431935D01*
Y437435D01*
X130000D01*
X130239Y437425D01*
X130477Y437394D01*
X130711Y437342D01*
X130940Y437270D01*
X130941Y437269D01*
X131067Y437235D01*
X131198Y437224D01*
X131328Y437235D01*
X131454Y437269D01*
X131573Y437325D01*
X131680Y437400D01*
X131772Y437492D01*
X131847Y437599D01*
X131902Y437718D01*
X131936Y437844D01*
X131947Y437975D01*
X131936Y438105D01*
X131902Y438231D01*
X131846Y438350D01*
X131771Y438457D01*
X131679Y438549D01*
X131572Y438624D01*
X131453Y438679D01*
X131099Y438791D01*
X130738Y438871D01*
X130370Y438919D01*
X130000Y438935D01*
X129999D01*
Y485000D01*
G37*
G36*
X126606Y307885D02*X129999D01*
Y261485D01*
X126606D01*
Y307885D01*
G37*
G36*
Y485000D02*X129999D01*
Y438935D01*
X129629Y438919D01*
X129261Y438871D01*
X128900Y438791D01*
X128546Y438679D01*
X128545Y438678D01*
X128427Y438623D01*
X128320Y438548D01*
X128227Y438455D01*
X128153Y438348D01*
X128098Y438230D01*
X128064Y438103D01*
X128053Y437973D01*
X128064Y437843D01*
X128098Y437717D01*
X128153Y437599D01*
X128228Y437492D01*
X128321Y437399D01*
X128428Y437325D01*
X128546Y437270D01*
X128673Y437236D01*
X128803Y437225D01*
X128933Y437236D01*
X129059Y437270D01*
X129288Y437342D01*
X129522Y437394D01*
X129760Y437425D01*
X129999Y437435D01*
Y431935D01*
X129760Y431946D01*
X129522Y431977D01*
X129288Y432029D01*
X129059Y432101D01*
X129058Y432102D01*
X128932Y432136D01*
X128801Y432147D01*
X128671Y432136D01*
X128545Y432102D01*
X128426Y432046D01*
X128319Y431971D01*
X128227Y431879D01*
X128152Y431772D01*
X128097Y431653D01*
X128063Y431527D01*
X128052Y431396D01*
X128063Y431266D01*
X128097Y431140D01*
X128153Y431021D01*
X128228Y430914D01*
X128320Y430822D01*
X128427Y430747D01*
X128546Y430692D01*
X128900Y430580D01*
X129261Y430500D01*
X129629Y430452D01*
X129999Y430435D01*
Y363817D01*
X129990Y363798D01*
X129923Y363545D01*
X129900Y363285D01*
Y356085D01*
X129923Y355825D01*
X129990Y355572D01*
X129999Y355553D01*
Y311485D01*
X126800D01*
Y358347D01*
X126949Y358560D01*
X127114Y358915D01*
X127216Y359294D01*
X127250Y359685D01*
X127216Y360076D01*
X127114Y360455D01*
X126949Y360810D01*
X126724Y361131D01*
X126606Y361249D01*
Y432748D01*
X126712Y432739D01*
X126842Y432750D01*
X126968Y432784D01*
X127086Y432839D01*
X127193Y432914D01*
X127286Y433007D01*
X127360Y433114D01*
X127415Y433232D01*
X127449Y433359D01*
X127460Y433489D01*
X127449Y433619D01*
X127415Y433745D01*
X127343Y433974D01*
X127291Y434208D01*
X127260Y434446D01*
X127250Y434686D01*
X127260Y434925D01*
X127291Y435163D01*
X127343Y435397D01*
X127415Y435626D01*
X127416Y435627D01*
X127450Y435753D01*
X127461Y435884D01*
X127450Y436014D01*
X127416Y436140D01*
X127360Y436259D01*
X127285Y436366D01*
X127193Y436458D01*
X127086Y436533D01*
X126967Y436588D01*
X126841Y436622D01*
X126710Y436633D01*
X126606Y436624D01*
Y485000D01*
G37*
G36*
X110000D02*X126606D01*
Y436624D01*
X126580Y436622D01*
X126454Y436588D01*
X126335Y436532D01*
X126228Y436457D01*
X126136Y436365D01*
X126061Y436258D01*
X126006Y436139D01*
X125894Y435785D01*
X125814Y435424D01*
X125766Y435056D01*
X125750Y434686D01*
X125766Y434315D01*
X125814Y433947D01*
X125894Y433586D01*
X126006Y433232D01*
X126007Y433231D01*
X126062Y433113D01*
X126137Y433006D01*
X126230Y432913D01*
X126337Y432839D01*
X126455Y432784D01*
X126582Y432750D01*
X126606Y432748D01*
Y361249D01*
X126446Y361409D01*
X126125Y361634D01*
X125770Y361799D01*
X125391Y361901D01*
X125000Y361935D01*
X124900D01*
Y363085D01*
X124877Y363345D01*
X124810Y363598D01*
X124699Y363835D01*
X124549Y364049D01*
X124364Y364234D01*
X124150Y364384D01*
X123913Y364495D01*
X123660Y364562D01*
X123400Y364585D01*
X116600D01*
X116340Y364562D01*
X116087Y364495D01*
X115850Y364384D01*
X115636Y364234D01*
X115451Y364049D01*
X115301Y363835D01*
X115190Y363598D01*
X115123Y363345D01*
X115100Y363085D01*
Y356285D01*
X115123Y356025D01*
X115190Y355772D01*
X115301Y355535D01*
X115451Y355321D01*
X115636Y355136D01*
X115850Y354986D01*
X116087Y354875D01*
X116340Y354808D01*
X116600Y354785D01*
X123200D01*
Y309685D01*
X123227Y309372D01*
X123309Y309069D01*
X123441Y308785D01*
X123621Y308528D01*
X123843Y308306D01*
X124100Y308126D01*
X124384Y307994D01*
X124687Y307912D01*
X125000Y307885D01*
X126606D01*
Y261485D01*
X110000D01*
Y445185D01*
X110781Y445253D01*
X111539Y445456D01*
X112250Y445788D01*
X112893Y446238D01*
X113447Y446792D01*
X113897Y447435D01*
X114229Y448146D01*
X114432Y448904D01*
X114500Y449685D01*
X114432Y450466D01*
X114229Y451224D01*
X113897Y451935D01*
X113447Y452578D01*
X112893Y453132D01*
X112250Y453582D01*
X111539Y453914D01*
X110781Y454117D01*
X110000Y454185D01*
Y455185D01*
X110781Y455253D01*
X111539Y455456D01*
X112250Y455788D01*
X112893Y456238D01*
X113447Y456792D01*
X113897Y457435D01*
X114229Y458146D01*
X114432Y458904D01*
X114500Y459685D01*
X114432Y460466D01*
X114229Y461224D01*
X113897Y461935D01*
X113447Y462578D01*
X112893Y463132D01*
X112250Y463582D01*
X111539Y463914D01*
X110781Y464117D01*
X110000Y464185D01*
Y465185D01*
X113000D01*
X113260Y465208D01*
X113513Y465275D01*
X113750Y465386D01*
X113964Y465536D01*
X114149Y465721D01*
X114299Y465935D01*
X114410Y466172D01*
X114477Y466425D01*
X114500Y466685D01*
Y472685D01*
X114477Y472945D01*
X114410Y473198D01*
X114299Y473435D01*
X114149Y473649D01*
X113964Y473834D01*
X113750Y473984D01*
X113513Y474095D01*
X113260Y474162D01*
X113000Y474185D01*
X110000D01*
Y485000D01*
G37*
G36*
Y464185D02*X109219Y464117D01*
X108461Y463914D01*
X107750Y463582D01*
X107107Y463132D01*
X106553Y462578D01*
X106103Y461935D01*
X105893Y461485D01*
X102300D01*
Y467885D01*
X105500D01*
Y466685D01*
X105523Y466425D01*
X105590Y466172D01*
X105701Y465935D01*
X105851Y465721D01*
X106036Y465536D01*
X106250Y465386D01*
X106487Y465275D01*
X106740Y465208D01*
X107000Y465185D01*
X110000D01*
Y464185D01*
G37*
G36*
X108613Y455415D02*X109219Y455253D01*
X110000Y455185D01*
Y454185D01*
X109219Y454117D01*
X108613Y453955D01*
Y455415D01*
G37*
G36*
X110000Y261485D02*X108613D01*
Y299804D01*
X108660Y299808D01*
X108913Y299875D01*
X109150Y299986D01*
X109364Y300136D01*
X109549Y300321D01*
X109699Y300535D01*
X109810Y300772D01*
X109877Y301025D01*
X109900Y301285D01*
Y308085D01*
X109877Y308345D01*
X109810Y308598D01*
X109699Y308835D01*
X109549Y309049D01*
X109364Y309234D01*
X109150Y309384D01*
X108913Y309495D01*
X108660Y309562D01*
X108613Y309566D01*
Y395322D01*
X108750Y395386D01*
X108964Y395536D01*
X109149Y395721D01*
X109299Y395935D01*
X109410Y396172D01*
X109477Y396425D01*
X109500Y396685D01*
Y402685D01*
X109477Y402945D01*
X109410Y403198D01*
X109299Y403435D01*
X109149Y403649D01*
X108964Y403834D01*
X108750Y403984D01*
X108613Y404048D01*
Y407545D01*
X108708Y407567D01*
X108829Y407618D01*
X108938Y407690D01*
X109034Y407779D01*
X109113Y407883D01*
X109172Y408000D01*
X109314Y408407D01*
X109417Y408827D01*
X109479Y409254D01*
X109500Y409685D01*
X109479Y410117D01*
X109417Y410544D01*
X109314Y410964D01*
X109172Y411371D01*
X109171D01*
X109112Y411487D01*
X109033Y411592D01*
X108937Y411681D01*
X108828Y411752D01*
X108707Y411803D01*
X108613Y411824D01*
Y417029D01*
X108897Y417435D01*
X109229Y418146D01*
X109432Y418904D01*
X109500Y419685D01*
X109432Y420466D01*
X109229Y421224D01*
X108897Y421935D01*
X108613Y422341D01*
Y445415D01*
X109219Y445253D01*
X110000Y445185D01*
Y261485D01*
G37*
G36*
X108613Y422341D02*X108447Y422578D01*
X107893Y423132D01*
X107250Y423582D01*
X106539Y423914D01*
X105781Y424117D01*
X105000Y424185D01*
X104999D01*
Y457885D01*
X105893D01*
X106103Y457435D01*
X106553Y456792D01*
X107107Y456238D01*
X107750Y455788D01*
X108461Y455456D01*
X108613Y455415D01*
Y453955D01*
X108461Y453914D01*
X107750Y453582D01*
X107107Y453132D01*
X106553Y452578D01*
X106103Y451935D01*
X105771Y451224D01*
X105568Y450466D01*
X105500Y449685D01*
X105568Y448904D01*
X105771Y448146D01*
X106103Y447435D01*
X106553Y446792D01*
X107107Y446238D01*
X107750Y445788D01*
X108461Y445456D01*
X108613Y445415D01*
Y422341D01*
G37*
G36*
Y404048D02*X108513Y404095D01*
X108260Y404162D01*
X108000Y404185D01*
X104999D01*
Y405185D01*
X105431Y405206D01*
X105858Y405268D01*
X106278Y405371D01*
X106685Y405513D01*
Y405514D01*
X106801Y405573D01*
X106906Y405652D01*
X106995Y405748D01*
X107066Y405857D01*
X107117Y405978D01*
X107146Y406105D01*
X107153Y406235D01*
X107137Y406365D01*
X107099Y406490D01*
X107040Y406606D01*
X106961Y406711D01*
X106865Y406800D01*
X106756Y406871D01*
X106635Y406922D01*
X106508Y406951D01*
X106378Y406958D01*
X106248Y406942D01*
X106123Y406904D01*
X105852Y406809D01*
X105572Y406741D01*
X105287Y406699D01*
X104999Y406685D01*
Y412685D01*
X105000D01*
X105287Y412672D01*
X105572Y412630D01*
X105852Y412562D01*
X106123Y412467D01*
Y412466D01*
X106248Y412428D01*
X106378Y412412D01*
X106509Y412419D01*
X106636Y412448D01*
X106757Y412499D01*
X106866Y412571D01*
X106962Y412660D01*
X107041Y412764D01*
X107100Y412881D01*
X107138Y413006D01*
X107154Y413136D01*
X107147Y413267D01*
X107118Y413394D01*
X107067Y413515D01*
X106995Y413624D01*
X106906Y413720D01*
X106802Y413799D01*
X106685Y413858D01*
X106278Y414000D01*
X105858Y414103D01*
X105431Y414165D01*
X105000Y414185D01*
X104999D01*
Y415185D01*
X105000D01*
X105781Y415253D01*
X106539Y415456D01*
X107250Y415788D01*
X107893Y416238D01*
X108447Y416792D01*
X108613Y417029D01*
Y411824D01*
X108580Y411832D01*
X108450Y411839D01*
X108320Y411823D01*
X108195Y411785D01*
X108079Y411726D01*
X107974Y411647D01*
X107885Y411551D01*
X107814Y411442D01*
X107763Y411321D01*
X107734Y411194D01*
X107727Y411064D01*
X107743Y410934D01*
X107781Y410809D01*
X107876Y410538D01*
X107944Y410258D01*
X107986Y409973D01*
X108000Y409685D01*
X107986Y409398D01*
X107944Y409113D01*
X107876Y408833D01*
X107781Y408562D01*
X107780D01*
X107742Y408437D01*
X107726Y408307D01*
X107733Y408176D01*
X107762Y408049D01*
X107813Y407928D01*
X107885Y407819D01*
X107974Y407723D01*
X108078Y407644D01*
X108195Y407585D01*
X108320Y407547D01*
X108450Y407531D01*
X108581Y407538D01*
X108613Y407545D01*
Y404048D01*
G37*
G36*
Y309566D02*X108400Y309585D01*
X104999D01*
Y395185D01*
X108000D01*
X108260Y395208D01*
X108513Y395275D01*
X108613Y395322D01*
Y309566D01*
G37*
G36*
Y261485D02*X104999D01*
Y299785D01*
X108400D01*
X108613Y299804D01*
Y261485D01*
G37*
G36*
X104999Y424185D02*X104219Y424117D01*
X103461Y423914D01*
X102750Y423582D01*
X102300Y423267D01*
Y457885D01*
X104999D01*
Y424185D01*
G37*
G36*
Y404185D02*X102300D01*
Y416103D01*
X102750Y415788D01*
X103461Y415456D01*
X104219Y415253D01*
X104999Y415185D01*
Y414185D01*
X104568Y414165D01*
X104141Y414103D01*
X103721Y414000D01*
X103314Y413858D01*
Y413857D01*
X103198Y413798D01*
X103093Y413719D01*
X103004Y413623D01*
X102933Y413514D01*
X102882Y413393D01*
X102853Y413266D01*
X102846Y413136D01*
X102862Y413006D01*
X102900Y412881D01*
X102959Y412765D01*
X103038Y412660D01*
X103134Y412571D01*
X103243Y412500D01*
X103364Y412449D01*
X103491Y412420D01*
X103621Y412413D01*
X103751Y412429D01*
X103876Y412467D01*
X104147Y412562D01*
X104427Y412630D01*
X104712Y412672D01*
X104999Y412685D01*
Y406685D01*
X104712Y406699D01*
X104427Y406741D01*
X104147Y406809D01*
X103876Y406904D01*
Y406905D01*
X103751Y406943D01*
X103621Y406959D01*
X103490Y406952D01*
X103363Y406923D01*
X103242Y406872D01*
X103133Y406800D01*
X103037Y406711D01*
X102958Y406607D01*
X102899Y406490D01*
X102861Y406365D01*
X102845Y406235D01*
X102852Y406104D01*
X102881Y405977D01*
X102932Y405856D01*
X103004Y405747D01*
X103093Y405651D01*
X103197Y405572D01*
X103314Y405513D01*
X103721Y405371D01*
X104141Y405268D01*
X104568Y405206D01*
X104999Y405185D01*
Y404185D01*
G37*
G36*
Y309585D02*X102300D01*
Y395185D01*
X104999D01*
Y309585D01*
G37*
G36*
Y261485D02*X102300D01*
Y299785D01*
X104999D01*
Y261485D01*
G37*
G36*
X102300Y485000D02*X110000D01*
Y474185D01*
X107000D01*
X106740Y474162D01*
X106487Y474095D01*
X106250Y473984D01*
X106036Y473834D01*
X105851Y473649D01*
X105701Y473435D01*
X105590Y473198D01*
X105523Y472945D01*
X105500Y472685D01*
Y471485D01*
X102300D01*
Y485000D01*
G37*
G36*
X101387Y395322D02*X101487Y395275D01*
X101740Y395208D01*
X102000Y395185D01*
X102300D01*
Y309585D01*
X101600D01*
X101387Y309566D01*
Y395322D01*
G37*
G36*
Y417029D02*X101553Y416792D01*
X102107Y416238D01*
X102300Y416103D01*
Y404185D01*
X102000D01*
X101740Y404162D01*
X101487Y404095D01*
X101387Y404048D01*
Y407546D01*
X101419Y407539D01*
X101549Y407532D01*
X101679Y407548D01*
X101804Y407586D01*
X101920Y407645D01*
X102025Y407724D01*
X102114Y407820D01*
X102185Y407929D01*
X102236Y408050D01*
X102265Y408177D01*
X102272Y408307D01*
X102256Y408437D01*
X102218Y408562D01*
X102123Y408833D01*
X102055Y409113D01*
X102013Y409398D01*
X102000Y409686D01*
X102013Y409973D01*
X102055Y410258D01*
X102123Y410538D01*
X102218Y410809D01*
X102219D01*
X102257Y410934D01*
X102273Y411064D01*
X102266Y411195D01*
X102237Y411322D01*
X102186Y411443D01*
X102114Y411552D01*
X102025Y411648D01*
X101921Y411727D01*
X101804Y411786D01*
X101679Y411824D01*
X101549Y411840D01*
X101418Y411833D01*
X101387Y411826D01*
Y417029D01*
G37*
G36*
Y457885D02*X102300D01*
Y423267D01*
X102107Y423132D01*
X101553Y422578D01*
X101387Y422341D01*
Y457885D01*
G37*
G36*
X102300Y261485D02*X101387D01*
Y299804D01*
X101600Y299785D01*
X102300D01*
Y261485D01*
G37*
G36*
X101387D02*X95000D01*
Y374785D01*
X95851Y374859D01*
X96676Y375081D01*
X97450Y375441D01*
X98150Y375931D01*
X98754Y376535D01*
X99244Y377235D01*
X99604Y378009D01*
X99826Y378834D01*
X99900Y379685D01*
X99826Y380536D01*
X99604Y381361D01*
X99244Y382135D01*
X98754Y382835D01*
X98150Y383439D01*
X97450Y383929D01*
X96800Y384231D01*
Y399685D01*
X96773Y399998D01*
X96691Y400301D01*
X96559Y400585D01*
X96379Y400842D01*
X96157Y401064D01*
X95900Y401244D01*
X95616Y401376D01*
X95313Y401458D01*
X95000Y401485D01*
Y457885D01*
X101387D01*
Y422341D01*
X101103Y421935D01*
X100771Y421224D01*
X100568Y420466D01*
X100500Y419685D01*
X100568Y418904D01*
X100771Y418146D01*
X101103Y417435D01*
X101387Y417029D01*
Y411826D01*
X101291Y411804D01*
X101170Y411753D01*
X101061Y411681D01*
X100965Y411592D01*
X100886Y411488D01*
X100827Y411371D01*
X100685Y410964D01*
X100582Y410544D01*
X100520Y410117D01*
X100500Y409686D01*
X100520Y409254D01*
X100582Y408827D01*
X100685Y408407D01*
X100827Y408000D01*
X100828D01*
X100887Y407884D01*
X100966Y407779D01*
X101062Y407690D01*
X101171Y407619D01*
X101292Y407568D01*
X101387Y407546D01*
Y404048D01*
X101250Y403984D01*
X101036Y403834D01*
X100851Y403649D01*
X100701Y403435D01*
X100590Y403198D01*
X100523Y402945D01*
X100500Y402685D01*
Y396685D01*
X100523Y396425D01*
X100590Y396172D01*
X100701Y395935D01*
X100851Y395721D01*
X101036Y395536D01*
X101250Y395386D01*
X101387Y395322D01*
Y309566D01*
X101340Y309562D01*
X101087Y309495D01*
X100850Y309384D01*
X100636Y309234D01*
X100451Y309049D01*
X100301Y308835D01*
X100190Y308598D01*
X100123Y308345D01*
X100100Y308085D01*
Y301285D01*
X100123Y301025D01*
X100190Y300772D01*
X100301Y300535D01*
X100451Y300321D01*
X100636Y300136D01*
X100850Y299986D01*
X101087Y299875D01*
X101340Y299808D01*
X101387Y299804D01*
Y261485D01*
G37*
G36*
X95000D02*X86800D01*
Y314685D01*
X86773Y314998D01*
X86691Y315301D01*
X86559Y315585D01*
X86379Y315842D01*
X86157Y316064D01*
X85900Y316244D01*
X85616Y316376D01*
X85313Y316458D01*
X85000Y316485D01*
X75000D01*
Y357435D01*
X75663D01*
X75756Y357235D01*
X76246Y356535D01*
X76850Y355931D01*
X77550Y355441D01*
X78324Y355081D01*
X79149Y354859D01*
X80000Y354785D01*
X80851Y354859D01*
X81676Y355081D01*
X82450Y355441D01*
X83150Y355931D01*
X83754Y356535D01*
X84244Y357235D01*
X84604Y358009D01*
X84826Y358834D01*
X84900Y359685D01*
X84826Y360536D01*
X84604Y361361D01*
X84244Y362135D01*
X83754Y362835D01*
X83150Y363439D01*
X82450Y363929D01*
X81676Y364289D01*
X80851Y364511D01*
X80000Y364585D01*
X79149Y364511D01*
X78324Y364289D01*
X77550Y363929D01*
X76850Y363439D01*
X76246Y362835D01*
X75756Y362135D01*
X75663Y361935D01*
X75000D01*
Y395185D01*
X75781Y395253D01*
X76539Y395456D01*
X77250Y395788D01*
X77893Y396238D01*
X78447Y396792D01*
X78897Y397435D01*
X79229Y398146D01*
X79432Y398904D01*
X79500Y399685D01*
X79432Y400466D01*
X79229Y401224D01*
X78897Y401935D01*
X78447Y402578D01*
X77893Y403132D01*
X77250Y403582D01*
X76539Y403914D01*
X75781Y404117D01*
X75000Y404185D01*
Y405185D01*
X75781Y405253D01*
X76539Y405456D01*
X77250Y405788D01*
X77893Y406238D01*
X78447Y406792D01*
X78897Y407435D01*
X79229Y408146D01*
X79432Y408904D01*
X79500Y409685D01*
X79432Y410466D01*
X79229Y411224D01*
X78897Y411935D01*
X78447Y412578D01*
X77893Y413132D01*
X77250Y413582D01*
X76539Y413914D01*
X75781Y414117D01*
X75000Y414185D01*
Y415185D01*
X75781Y415253D01*
X76539Y415456D01*
X77250Y415788D01*
X77893Y416238D01*
X78447Y416792D01*
X78897Y417435D01*
X79229Y418146D01*
X79432Y418904D01*
X79500Y419685D01*
X79432Y420466D01*
X79229Y421224D01*
X78897Y421935D01*
X78447Y422578D01*
X77893Y423132D01*
X77250Y423582D01*
X76539Y423914D01*
X75781Y424117D01*
X75000Y424185D01*
Y457885D01*
X77750D01*
Y438935D01*
X77250D01*
X76990Y438912D01*
X76737Y438845D01*
X76500Y438734D01*
X76286Y438584D01*
X76101Y438399D01*
X75951Y438185D01*
X75840Y437948D01*
X75773Y437695D01*
X75750Y437435D01*
Y431935D01*
X75773Y431675D01*
X75840Y431422D01*
X75951Y431185D01*
X76101Y430971D01*
X76286Y430786D01*
X76500Y430636D01*
X76737Y430525D01*
X76990Y430458D01*
X77250Y430435D01*
X82750D01*
X83010Y430458D01*
X83263Y430525D01*
X83500Y430636D01*
X83714Y430786D01*
X83899Y430971D01*
X84049Y431185D01*
X84160Y431422D01*
X84227Y431675D01*
X84250Y431935D01*
Y437435D01*
X84227Y437695D01*
X84160Y437948D01*
X84049Y438185D01*
X83899Y438399D01*
X83714Y438584D01*
X83500Y438734D01*
X83263Y438845D01*
X83010Y438912D01*
X82750Y438935D01*
X82250D01*
Y457885D01*
X95000D01*
Y401485D01*
X94687Y401458D01*
X94384Y401376D01*
X94100Y401244D01*
X93843Y401064D01*
X93621Y400842D01*
X93441Y400585D01*
X93309Y400301D01*
X93227Y399998D01*
X93200Y399685D01*
Y384231D01*
X92550Y383929D01*
X91850Y383439D01*
X91246Y382835D01*
X90756Y382135D01*
X90396Y381361D01*
X90174Y380536D01*
X90100Y379685D01*
X90174Y378834D01*
X90396Y378009D01*
X90756Y377235D01*
X91246Y376535D01*
X91850Y375931D01*
X92550Y375441D01*
X93324Y375081D01*
X94149Y374859D01*
X95000Y374785D01*
Y261485D01*
G37*
G36*
X75000Y424185D02*X74219Y424117D01*
X73461Y423914D01*
X72750Y423582D01*
X72107Y423132D01*
X71553Y422578D01*
X71103Y421935D01*
X70893Y421485D01*
X63500D01*
Y447685D01*
X64250D01*
Y451685D01*
X63500D01*
Y457885D01*
X75000D01*
Y424185D01*
G37*
G36*
Y414185D02*X74219Y414117D01*
X73461Y413914D01*
X72750Y413582D01*
X72107Y413132D01*
X71553Y412578D01*
X71103Y411935D01*
X70893Y411485D01*
X63500D01*
Y417885D01*
X70893D01*
X71103Y417435D01*
X71553Y416792D01*
X72107Y416238D01*
X72750Y415788D01*
X73461Y415456D01*
X74219Y415253D01*
X75000Y415185D01*
Y414185D01*
G37*
G36*
Y361935D02*X69557D01*
X69417Y362235D01*
X68907Y362963D01*
X68278Y363592D01*
X67550Y364102D01*
X66744Y364477D01*
X65971Y364685D01*
X66744Y364893D01*
X67550Y365268D01*
X68278Y365778D01*
X68907Y366407D01*
X69417Y367135D01*
X69792Y367941D01*
X70023Y368799D01*
X70100Y369685D01*
X70023Y370571D01*
X69792Y371429D01*
X69417Y372235D01*
X68907Y372963D01*
X68278Y373592D01*
X67550Y374102D01*
X66744Y374477D01*
X65886Y374708D01*
X65000Y374785D01*
X64114Y374708D01*
X63500Y374543D01*
Y397301D01*
X63681Y397560D01*
X63994Y398231D01*
X64185Y398947D01*
X64250Y399685D01*
X64185Y400423D01*
X63994Y401139D01*
X63681Y401810D01*
X63500Y402069D01*
Y407885D01*
X70893D01*
X71103Y407435D01*
X71553Y406792D01*
X72107Y406238D01*
X72750Y405788D01*
X73461Y405456D01*
X74219Y405253D01*
X75000Y405185D01*
Y404185D01*
X74219Y404117D01*
X73461Y403914D01*
X72750Y403582D01*
X72107Y403132D01*
X71553Y402578D01*
X71103Y401935D01*
X70771Y401224D01*
X70568Y400466D01*
X70500Y399685D01*
X70568Y398904D01*
X70771Y398146D01*
X71103Y397435D01*
X71553Y396792D01*
X72107Y396238D01*
X72750Y395788D01*
X73461Y395456D01*
X74219Y395253D01*
X75000Y395185D01*
Y361935D01*
G37*
G36*
Y316485D02*X63500D01*
Y344585D01*
X68600D01*
X68860Y344608D01*
X69113Y344675D01*
X69350Y344786D01*
X69564Y344936D01*
X69749Y345121D01*
X69899Y345335D01*
X70010Y345572D01*
X70077Y345825D01*
X70100Y346085D01*
Y353285D01*
X70077Y353545D01*
X70010Y353798D01*
X69899Y354035D01*
X69749Y354249D01*
X69564Y354434D01*
X69350Y354584D01*
X69113Y354695D01*
X68860Y354762D01*
X68600Y354785D01*
X66343D01*
X66744Y354893D01*
X67550Y355268D01*
X68278Y355778D01*
X68907Y356407D01*
X69417Y357135D01*
X69557Y357435D01*
X75000D01*
Y316485D01*
G37*
G36*
X63500Y485000D02*X102300D01*
Y471485D01*
X99900D01*
Y473085D01*
X99877Y473345D01*
X99810Y473598D01*
X99699Y473835D01*
X99549Y474049D01*
X99364Y474234D01*
X99150Y474384D01*
X98913Y474495D01*
X98660Y474562D01*
X98400Y474585D01*
X91600D01*
X91340Y474562D01*
X91087Y474495D01*
X90850Y474384D01*
X90636Y474234D01*
X90451Y474049D01*
X90301Y473835D01*
X90190Y473598D01*
X90123Y473345D01*
X90100Y473085D01*
Y466285D01*
X90123Y466025D01*
X90190Y465772D01*
X90301Y465535D01*
X90451Y465321D01*
X90636Y465136D01*
X90850Y464986D01*
X91087Y464875D01*
X91340Y464808D01*
X91600Y464785D01*
X98400D01*
X98660Y464808D01*
X98913Y464875D01*
X99150Y464986D01*
X99364Y465136D01*
X99549Y465321D01*
X99699Y465535D01*
X99810Y465772D01*
X99877Y466025D01*
X99900Y466285D01*
Y467885D01*
X102300D01*
Y461485D01*
X81338D01*
X81125Y461634D01*
X80770Y461799D01*
X80391Y461901D01*
X80000Y461935D01*
X79609Y461901D01*
X79230Y461799D01*
X78875Y461634D01*
X78662Y461485D01*
X63500D01*
Y485000D01*
G37*
G36*
Y421485D02*X60000D01*
Y445435D01*
X62000D01*
Y446935D01*
X60000D01*
Y452435D01*
X62000D01*
Y453935D01*
X60000D01*
Y457885D01*
X63500D01*
Y451685D01*
X62750D01*
Y447685D01*
X63500D01*
Y421485D01*
G37*
G36*
Y411485D02*X60000D01*
Y417885D01*
X63500D01*
Y411485D01*
G37*
G36*
Y402069D02*X63256Y402417D01*
X62732Y402941D01*
X62125Y403366D01*
X61454Y403679D01*
X60738Y403870D01*
X60000Y403935D01*
Y407885D01*
X63500D01*
Y402069D01*
G37*
G36*
Y374543D02*X63256Y374477D01*
X62450Y374102D01*
X61722Y373592D01*
X61093Y372963D01*
X60583Y372235D01*
X60234Y371485D01*
X60000D01*
Y395435D01*
X60738Y395500D01*
X61454Y395691D01*
X62125Y396004D01*
X62732Y396429D01*
X63256Y396953D01*
X63500Y397301D01*
Y374543D01*
G37*
G36*
Y316485D02*X60000D01*
Y345551D01*
X60101Y345335D01*
X60251Y345121D01*
X60436Y344936D01*
X60650Y344786D01*
X60887Y344675D01*
X61140Y344608D01*
X61400Y344585D01*
X63500D01*
Y316485D01*
G37*
G36*
X60000Y485000D02*X63500D01*
Y461485D01*
X60000D01*
Y485000D01*
G37*
G36*
Y421485D02*X56500D01*
Y447685D01*
X57250D01*
Y451685D01*
X56500D01*
Y457885D01*
X60000D01*
Y453935D01*
X58000D01*
Y452435D01*
X60000D01*
Y446935D01*
X58000D01*
Y445435D01*
X60000D01*
Y421485D01*
G37*
G36*
Y411485D02*X56500D01*
Y417885D01*
X60000D01*
Y411485D01*
G37*
G36*
Y403935D02*X59262Y403870D01*
X58546Y403679D01*
X57875Y403366D01*
X57268Y402941D01*
X56800Y402473D01*
Y407885D01*
X60000D01*
Y403935D01*
G37*
G36*
Y371485D02*X56500D01*
Y397301D01*
X56744Y396953D01*
X57268Y396429D01*
X57875Y396004D01*
X58546Y395691D01*
X59262Y395500D01*
X60000Y395435D01*
Y371485D01*
G37*
G36*
Y316485D02*X56500D01*
Y367885D01*
X60000D01*
Y360656D01*
X59977Y360571D01*
X59900Y359685D01*
X59977Y358799D01*
X60000Y358714D01*
Y353819D01*
X59990Y353798D01*
X59923Y353545D01*
X59900Y353285D01*
Y346085D01*
X59923Y345825D01*
X59990Y345572D01*
X60000Y345551D01*
Y316485D01*
G37*
G36*
X56500Y485000D02*X60000D01*
Y461485D01*
X56500D01*
Y465034D01*
X56676Y465081D01*
X57450Y465441D01*
X58150Y465931D01*
X58754Y466535D01*
X59244Y467235D01*
X59604Y468009D01*
X59826Y468834D01*
X59900Y469685D01*
X59826Y470536D01*
X59604Y471361D01*
X59244Y472135D01*
X58754Y472835D01*
X58150Y473439D01*
X57450Y473929D01*
X56676Y474289D01*
X56500Y474336D01*
Y485000D01*
G37*
G36*
Y461485D02*X50000D01*
X49687Y461458D01*
X49384Y461376D01*
X49100Y461244D01*
X48843Y461064D01*
X48621Y460842D01*
X48441Y460585D01*
X48309Y460301D01*
X48227Y459998D01*
X48200Y459685D01*
Y451485D01*
X44950D01*
Y467727D01*
X50487Y467814D01*
X50756Y467235D01*
X51246Y466535D01*
X51850Y465931D01*
X52550Y465441D01*
X53324Y465081D01*
X54149Y464859D01*
X55000Y464785D01*
X55851Y464859D01*
X56500Y465034D01*
Y461485D01*
G37*
G36*
Y421485D02*X44950D01*
Y447885D01*
X50000D01*
X50313Y447912D01*
X50616Y447994D01*
X50900Y448126D01*
X51157Y448306D01*
X51379Y448528D01*
X51559Y448785D01*
X51691Y449069D01*
X51773Y449372D01*
X51800Y449685D01*
Y457885D01*
X56500D01*
Y451685D01*
X55750D01*
Y447685D01*
X56500D01*
Y421485D01*
G37*
G36*
Y411485D02*X55000D01*
X54687Y411458D01*
X54384Y411376D01*
X54100Y411244D01*
X53843Y411064D01*
X53621Y410842D01*
X53441Y410585D01*
X53309Y410301D01*
X53227Y409998D01*
X53200Y409685D01*
Y401514D01*
X44950Y401644D01*
Y417885D01*
X56500D01*
Y411485D01*
G37*
G36*
Y371485D02*X44950D01*
Y397889D01*
X45000Y397885D01*
X56167D01*
X56319Y397560D01*
X56500Y397301D01*
Y371485D01*
G37*
G36*
Y316485D02*X55000D01*
X54687Y316458D01*
X54384Y316376D01*
X54100Y316244D01*
X53843Y316064D01*
X53621Y315842D01*
X53441Y315585D01*
X53309Y315301D01*
X53227Y314998D01*
X53200Y314685D01*
Y291485D01*
X44950D01*
Y367885D01*
X56500D01*
Y316485D01*
G37*
G36*
X44950Y485000D02*X56500D01*
Y474336D01*
X55851Y474511D01*
X55000Y474585D01*
X54149Y474511D01*
X53324Y474289D01*
X52550Y473929D01*
X51850Y473439D01*
X51246Y472835D01*
X50756Y472135D01*
X50420Y471413D01*
X44950Y471327D01*
Y485000D01*
G37*
G36*
X40000Y287885D02*X44950D01*
Y225000D01*
X40000D01*
Y275185D01*
X40781Y275253D01*
X41539Y275456D01*
X42250Y275788D01*
X42893Y276238D01*
X43447Y276792D01*
X43897Y277435D01*
X44229Y278146D01*
X44432Y278904D01*
X44500Y279685D01*
X44432Y280466D01*
X44229Y281224D01*
X43897Y281935D01*
X43447Y282578D01*
X42893Y283132D01*
X42250Y283582D01*
X41539Y283914D01*
X40781Y284117D01*
X40000Y284185D01*
Y287885D01*
G37*
G36*
X35000D02*X40000D01*
Y284185D01*
X39219Y284117D01*
X38461Y283914D01*
X37750Y283582D01*
X37107Y283132D01*
X36553Y282578D01*
X36103Y281935D01*
X35771Y281224D01*
X35568Y280466D01*
X35500Y279685D01*
X35568Y278904D01*
X35771Y278146D01*
X36103Y277435D01*
X36553Y276792D01*
X37107Y276238D01*
X37750Y275788D01*
X38461Y275456D01*
X39219Y275253D01*
X40000Y275185D01*
Y225000D01*
X35000D01*
Y287885D01*
G37*
G36*
Y364685D02*X35868Y364761D01*
X36710Y364987D01*
X37500Y365355D01*
X38214Y365855D01*
X38830Y366471D01*
X39330Y367185D01*
X39656Y367885D01*
X44950D01*
Y291485D01*
X35000D01*
Y300000D01*
X35868Y300076D01*
X36710Y300302D01*
X37500Y300670D01*
X38214Y301170D01*
X38830Y301786D01*
X39330Y302500D01*
X39698Y303290D01*
X39924Y304132D01*
X40000Y305000D01*
X39924Y305868D01*
X39698Y306710D01*
X39330Y307500D01*
X38830Y308214D01*
X38214Y308830D01*
X37500Y309330D01*
X36710Y309698D01*
X35868Y309924D01*
X35000Y310000D01*
Y319685D01*
X35868Y319761D01*
X36710Y319987D01*
X37500Y320355D01*
X38214Y320855D01*
X38830Y321471D01*
X39330Y322185D01*
X39698Y322975D01*
X39924Y323817D01*
X40000Y324685D01*
X39924Y325553D01*
X39698Y326395D01*
X39330Y327185D01*
X38830Y327899D01*
X38214Y328515D01*
X37500Y329015D01*
X36710Y329383D01*
X35868Y329609D01*
X35000Y329685D01*
Y345000D01*
X35868Y345076D01*
X36710Y345302D01*
X37500Y345670D01*
X38214Y346170D01*
X38830Y346786D01*
X39330Y347500D01*
X39698Y348290D01*
X39924Y349132D01*
X40000Y350000D01*
X39924Y350868D01*
X39698Y351710D01*
X39330Y352500D01*
X38830Y353214D01*
X38214Y353830D01*
X37500Y354330D01*
X36710Y354698D01*
X35868Y354924D01*
X35000Y355000D01*
Y364685D01*
G37*
G36*
Y395000D02*X35868Y395076D01*
X36710Y395302D01*
X37500Y395670D01*
X38214Y396170D01*
X38830Y396786D01*
X39330Y397500D01*
X39622Y398128D01*
X44253Y398055D01*
X44384Y397994D01*
X44687Y397912D01*
X44950Y397889D01*
Y371485D01*
X39656D01*
X39330Y372185D01*
X38830Y372899D01*
X38214Y373515D01*
X37500Y374015D01*
X36710Y374383D01*
X35868Y374609D01*
X35000Y374685D01*
Y395000D01*
G37*
G36*
Y414685D02*X35868Y414761D01*
X36710Y414987D01*
X37500Y415355D01*
X38214Y415855D01*
X38830Y416471D01*
X39330Y417185D01*
X39656Y417885D01*
X44950D01*
Y401644D01*
X39690Y401727D01*
X39330Y402500D01*
X38830Y403214D01*
X38214Y403830D01*
X37500Y404330D01*
X36710Y404698D01*
X35868Y404924D01*
X35000Y405000D01*
Y414685D01*
G37*
G36*
Y444685D02*X35868Y444761D01*
X36710Y444987D01*
X37500Y445355D01*
X38214Y445855D01*
X38830Y446471D01*
X39330Y447185D01*
X39656Y447885D01*
X44950D01*
Y421485D01*
X39656D01*
X39330Y422185D01*
X38830Y422899D01*
X38214Y423515D01*
X37500Y424015D01*
X36710Y424383D01*
X35868Y424609D01*
X35000Y424685D01*
Y444685D01*
G37*
G36*
Y464370D02*X35868Y464446D01*
X36710Y464672D01*
X37500Y465040D01*
X38214Y465540D01*
X38830Y466156D01*
X39330Y466870D01*
X39691Y467644D01*
X44950Y467727D01*
Y451485D01*
X39656D01*
X39330Y452185D01*
X38830Y452899D01*
X38214Y453515D01*
X37500Y454015D01*
X36710Y454383D01*
X35868Y454609D01*
X35000Y454685D01*
Y464370D01*
G37*
G36*
Y485000D02*X44950D01*
Y471327D01*
X39622Y471243D01*
X39330Y471870D01*
X38830Y472584D01*
X38214Y473200D01*
X37500Y473700D01*
X36710Y474068D01*
X35868Y474294D01*
X35000Y474370D01*
Y485000D01*
G37*
G36*
X15000Y225000D02*Y485000D01*
X35000D01*
Y474370D01*
X34132Y474294D01*
X33290Y474068D01*
X32500Y473700D01*
X31786Y473200D01*
X31170Y472584D01*
X30670Y471870D01*
X30302Y471080D01*
X30076Y470238D01*
X30000Y469370D01*
X30076Y468502D01*
X30302Y467660D01*
X30670Y466870D01*
X31170Y466156D01*
X31786Y465540D01*
X32500Y465040D01*
X33290Y464672D01*
X34132Y464446D01*
X35000Y464370D01*
Y454685D01*
X34132Y454609D01*
X33290Y454383D01*
X32500Y454015D01*
X31786Y453515D01*
X31170Y452899D01*
X30670Y452185D01*
X30302Y451395D01*
X30076Y450553D01*
X30000Y449685D01*
X30076Y448817D01*
X30302Y447975D01*
X30670Y447185D01*
X31170Y446471D01*
X31786Y445855D01*
X32500Y445355D01*
X33290Y444987D01*
X34132Y444761D01*
X35000Y444685D01*
Y424685D01*
X34132Y424609D01*
X33290Y424383D01*
X32500Y424015D01*
X31786Y423515D01*
X31170Y422899D01*
X30670Y422185D01*
X30302Y421395D01*
X30076Y420553D01*
X30000Y419685D01*
X30076Y418817D01*
X30302Y417975D01*
X30670Y417185D01*
X31170Y416471D01*
X31786Y415855D01*
X32500Y415355D01*
X33290Y414987D01*
X34132Y414761D01*
X35000Y414685D01*
Y405000D01*
X34132Y404924D01*
X33290Y404698D01*
X32500Y404330D01*
X31786Y403830D01*
X31170Y403214D01*
X30670Y402500D01*
X30302Y401710D01*
X30076Y400868D01*
X30000Y400000D01*
X30076Y399132D01*
X30302Y398290D01*
X30670Y397500D01*
X31170Y396786D01*
X31786Y396170D01*
X32500Y395670D01*
X33290Y395302D01*
X34132Y395076D01*
X35000Y395000D01*
Y374685D01*
X34132Y374609D01*
X33290Y374383D01*
X32500Y374015D01*
X31786Y373515D01*
X31170Y372899D01*
X30670Y372185D01*
X30344Y371485D01*
X30000D01*
X29687Y371458D01*
X29384Y371376D01*
X29100Y371244D01*
X28843Y371064D01*
X28621Y370842D01*
X28441Y370585D01*
X28309Y370301D01*
X28227Y369998D01*
X28200Y369685D01*
X28227Y369372D01*
X28309Y369069D01*
X28441Y368785D01*
X28621Y368528D01*
X28843Y368306D01*
X29100Y368126D01*
X29384Y367994D01*
X29687Y367912D01*
X30000Y367885D01*
X30344D01*
X30670Y367185D01*
X31170Y366471D01*
X31786Y365855D01*
X32500Y365355D01*
X33290Y364987D01*
X34132Y364761D01*
X35000Y364685D01*
Y355000D01*
X34132Y354924D01*
X33290Y354698D01*
X32500Y354330D01*
X31786Y353830D01*
X31170Y353214D01*
X30670Y352500D01*
X30302Y351710D01*
X30076Y350868D01*
X30000Y350000D01*
X30076Y349132D01*
X30302Y348290D01*
X30670Y347500D01*
X31170Y346786D01*
X31786Y346170D01*
X32500Y345670D01*
X33290Y345302D01*
X34132Y345076D01*
X35000Y345000D01*
Y329685D01*
X34132Y329609D01*
X33290Y329383D01*
X32500Y329015D01*
X31786Y328515D01*
X31170Y327899D01*
X30670Y327185D01*
X30302Y326395D01*
X30076Y325553D01*
X30000Y324685D01*
X30076Y323817D01*
X30302Y322975D01*
X30670Y322185D01*
X31170Y321471D01*
X31786Y320855D01*
X32500Y320355D01*
X33290Y319987D01*
X34132Y319761D01*
X35000Y319685D01*
Y310000D01*
X34132Y309924D01*
X33290Y309698D01*
X32500Y309330D01*
X31786Y308830D01*
X31170Y308214D01*
X30670Y307500D01*
X30302Y306710D01*
X30076Y305868D01*
X30000Y305000D01*
X30076Y304132D01*
X30302Y303290D01*
X30670Y302500D01*
X31170Y301786D01*
X31786Y301170D01*
X32500Y300670D01*
X33290Y300302D01*
X34132Y300076D01*
X35000Y300000D01*
Y291485D01*
X30000D01*
X29687Y291458D01*
X29384Y291376D01*
X29100Y291244D01*
X28843Y291064D01*
X28621Y290842D01*
X28441Y290585D01*
X28309Y290301D01*
X28227Y289998D01*
X28200Y289685D01*
Y284185D01*
X27000D01*
X26740Y284162D01*
X26487Y284095D01*
X26250Y283984D01*
X26036Y283834D01*
X25851Y283649D01*
X25701Y283435D01*
X25590Y283198D01*
X25523Y282945D01*
X25500Y282685D01*
Y276685D01*
X25523Y276425D01*
X25590Y276172D01*
X25701Y275935D01*
X25851Y275721D01*
X26036Y275536D01*
X26250Y275386D01*
X26487Y275275D01*
X26740Y275208D01*
X27000Y275185D01*
X28200D01*
Y269231D01*
X27550Y268929D01*
X26850Y268439D01*
X26246Y267835D01*
X25756Y267135D01*
X25396Y266361D01*
X25174Y265536D01*
X25100Y264685D01*
X25174Y263834D01*
X25396Y263009D01*
X25756Y262235D01*
X26246Y261535D01*
X26850Y260931D01*
X27550Y260441D01*
X28324Y260081D01*
X29149Y259859D01*
X30000Y259785D01*
X30851Y259859D01*
X31676Y260081D01*
X32450Y260441D01*
X33150Y260931D01*
X33754Y261535D01*
X34244Y262235D01*
X34604Y263009D01*
X34826Y263834D01*
X34900Y264685D01*
X34826Y265536D01*
X34604Y266361D01*
X34244Y267135D01*
X33754Y267835D01*
X33150Y268439D01*
X32450Y268929D01*
X31800Y269231D01*
Y275185D01*
X33000D01*
X33260Y275208D01*
X33513Y275275D01*
X33750Y275386D01*
X33964Y275536D01*
X34149Y275721D01*
X34299Y275935D01*
X34410Y276172D01*
X34477Y276425D01*
X34500Y276685D01*
Y282685D01*
X34477Y282945D01*
X34410Y283198D01*
X34299Y283435D01*
X34149Y283649D01*
X33964Y283834D01*
X33750Y283984D01*
X33513Y284095D01*
X33260Y284162D01*
X33000Y284185D01*
X31800D01*
Y287885D01*
X35000D01*
Y225000D01*
X15000D01*
G37*
G36*
X325000D02*Y485000D01*
X345000D01*
Y225000D01*
X325000D01*
G37*
G36*
X5000D02*Y485000D01*
X25000D01*
Y225000D01*
X5000D01*
G37*
G54D13*X253200Y474685D02*X180000D01*
X155000Y449685D02*X140000D01*
G54D12*X175000Y434685D02*Y474685D01*
X155000Y459685D02*Y474685D01*
X175000D01*
X165000Y434685D02*X175000D01*
X155000Y459685D02*X140000D01*
G54D13*X95000Y469685D02*X110000D01*
X55000Y409685D02*X75000D01*
G54D12*X80000Y434685D02*Y459685D01*
G54D13*X55000Y469685D02*X35000Y469370D01*
X50000Y459685D02*Y449685D01*
X35000D01*
X110000Y459685D02*X50000D01*
G54D12*X240000Y324685D02*Y254685D01*
G54D13*X235000Y259685D02*Y309685D01*
G54D12*X240000Y254685D02*X80000D01*
G54D13*X85000Y259685D02*X235000D01*
G54D12*X80000Y254685D02*Y294685D01*
G54D13*X85000Y314685D02*Y259685D01*
G54D12*X80000Y294685D02*X65000D01*
G54D13*X55000Y314685D02*X85000D01*
X55000Y289685D02*Y314685D01*
G54D12*X65000Y294685D02*Y304685D01*
G54D13*X30000Y289685D02*X55000D01*
X30000Y264685D02*Y289685D01*
X185000Y309685D02*Y294685D01*
X235000Y309685D02*X215000D01*
X205000Y324685D02*Y314685D01*
X175000D01*
Y324685D01*
X125000Y309685D02*X185000D01*
X180000Y374685D02*X155000D01*
Y449685D01*
X55000Y399685D02*Y409685D01*
G54D12*X290000Y394685D02*X295000Y397685D01*
G54D13*X251600Y404685D02*X215000D01*
X251600Y414685D02*X185000D01*
G54D12*X225000Y394685D02*X251600D01*
G54D13*X185000Y414685D02*Y324685D01*
X180000Y474685D02*Y334685D01*
G54D12*X290000Y376685D02*Y394685D01*
G54D13*X215000Y404685D02*Y309685D01*
G54D12*X270000Y376685D02*X290000Y379685D01*
X315000Y397685D02*Y379685D01*
X320000Y320000D02*X310000Y319685D01*
X320000Y379685D02*X310000D01*
Y319685D01*
X250000Y359685D02*X310000D01*
X300000Y269685D02*X320000D01*
Y320000D02*Y269685D01*
G54D13*X95000Y399685D02*Y379685D01*
X30000Y369685D02*X65000D01*
G54D12*X80000Y359685D02*X65000D01*
G54D13*X180000Y334685D02*X145000D01*
G54D12*X195000Y344685D02*Y324685D01*
X225000D02*Y394685D01*
Y324685D02*X240000D01*
G54D13*X135000Y379685D02*Y359685D01*
X125000D02*Y309685D01*
G54D12*Y359685D02*X120000D01*
X155000Y344685D02*X145000D01*
Y359685D01*
G54D13*X35000Y400000D02*X55000Y399685D01*
X45000D01*
X35000Y419685D02*X75000D01*
X60000Y399685D02*X50000D01*
G54D14*X251600Y474685D03*
Y464685D03*
Y454685D03*
Y444685D03*
G54D17*X305000Y464685D03*
G54D14*X251600Y434685D03*
Y424685D03*
Y414685D03*
G54D11*G36*
X266600Y420085D02*Y413285D01*
X273400D01*
Y420085D01*
X266600D01*
G37*
G54D14*X251600Y404685D03*
Y394685D03*
Y384685D03*
G54D11*G36*
X262000Y352685D02*Y346685D01*
X268000D01*
Y352685D01*
X262000D01*
G37*
G54D14*X265000Y339685D03*
G54D19*X270000Y376685D03*
G54D18*X300000Y269685D03*
G54D11*G36*
X290500Y402185D02*Y393185D01*
X299500D01*
Y402185D01*
X290500D01*
G37*
G54D16*X305000Y397685D03*
X315000D03*
G54D11*G36*
X317000Y382685D02*Y376685D01*
X323000D01*
Y382685D01*
X317000D01*
G37*
G54D14*X320000Y369685D03*
G54D11*G36*
X286600Y383085D02*Y376285D01*
X293400D01*
Y383085D01*
X286600D01*
G37*
G54D18*X320000Y339685D03*
Y320000D03*
G54D11*G36*
X296000Y323685D02*Y315685D01*
X304000D01*
Y323685D01*
X296000D01*
G37*
G54D19*X290000Y339685D03*
G54D11*G36*
X141600Y298085D02*Y291285D01*
X148400D01*
Y298085D01*
X141600D01*
G37*
G54D19*X145000Y334685D03*
G54D11*G36*
X101600Y308085D02*Y301285D01*
X108400D01*
Y308085D01*
X101600D01*
G37*
G36*
X222000Y327685D02*Y321685D01*
X228000D01*
Y327685D01*
X222000D01*
G37*
G54D14*X215000Y324685D03*
X205000D03*
X195000D03*
Y294685D03*
X205000D03*
X215000D03*
X225000D03*
X185000Y324685D03*
Y294685D03*
G54D11*G36*
X191600Y348085D02*Y341285D01*
X198400D01*
Y348085D01*
X191600D01*
G37*
G54D14*X175000Y324685D03*
Y294685D03*
X165000Y324685D03*
Y294685D03*
G54D19*X155000Y344685D03*
G54D11*G36*
X131600Y383085D02*Y376285D01*
X138400D01*
Y383085D01*
X131600D01*
G37*
G54D19*X95000Y379685D03*
G54D11*G36*
X102000Y402685D02*Y396685D01*
X108000D01*
Y402685D01*
X102000D01*
G37*
G36*
X107000Y472685D02*Y466685D01*
X113000D01*
Y472685D01*
X107000D01*
G37*
G54D14*X110000Y459685D03*
Y449685D03*
G54D21*X130000Y434685D03*
G54D14*X105000Y409685D03*
Y419685D03*
X140000Y449685D03*
G54D11*G36*
X131400Y363285D02*Y356085D01*
X138600D01*
Y363285D01*
X131400D01*
G37*
G54D20*X145000Y359685D03*
G54D11*G36*
X116600Y363085D02*Y356285D01*
X123400D01*
Y363085D01*
X116600D01*
G37*
G54D14*X140000Y459685D03*
Y469685D03*
G54D11*G36*
X162000Y477685D02*Y471685D01*
X168000D01*
Y477685D01*
X162000D01*
G37*
G54D14*X165000Y464685D03*
Y454685D03*
Y444685D03*
Y434685D03*
Y424685D03*
Y414685D03*
Y404685D03*
Y394685D03*
Y384685D03*
G54D20*X155000Y359685D03*
G54D18*X35000Y305000D03*
Y324685D03*
G54D19*X30000Y264685D03*
G54D11*G36*
X27000Y282685D02*Y276685D01*
X33000D01*
Y282685D01*
X27000D01*
G37*
G54D14*X40000Y279685D03*
G54D11*G36*
X66600Y268085D02*Y261285D01*
X73400D01*
Y268085D01*
X66600D01*
G37*
G54D19*X65000Y304685D03*
G54D11*G36*
X61400Y353285D02*Y346085D01*
X68600D01*
Y353285D01*
X61400D01*
G37*
G54D20*X65000Y359685D03*
G54D19*X80000D03*
G54D20*X65000Y369685D03*
G54D18*X35000Y350000D03*
Y369685D03*
G54D11*G36*
X77250Y437435D02*Y431935D01*
X82750D01*
Y437435D01*
X77250D01*
G37*
G54D14*X75000Y419685D03*
Y409685D03*
Y399685D03*
G54D11*G36*
X91600Y473085D02*Y466285D01*
X98400D01*
Y473085D01*
X91600D01*
G37*
G54D19*X55000Y469685D03*
G54D11*G36*
X57250Y452435D02*Y446935D01*
X62750D01*
Y452435D01*
X57250D01*
G37*
G54D18*X35000Y400000D03*
Y419685D03*
G54D21*X60000Y399685D03*
G54D18*X35000Y449685D03*
Y469370D03*
G54D14*X250000Y359685D03*
X310000D03*
G54D22*G54D24*G54D22*G54D25*G54D22*G54D11*G54D14*G54D25*G54D22*G54D26*G54D11*G54D22*G54D23*G54D22*G54D23*G54D22*G54D23*G54D25*G54D23*G54D27*G54D22*G54D23*G54D22*G54D27*G54D26*G54D22*G54D27*G54D22*G54D27*G54D26*G54D25*G54D23*G54D22*G54D25*G54D26*G54D25*G54D26*G54D28*M02*
