G04 start of page 12 for group -3984 idx -3984 *
G04 Title: (unknown), fab *
G04 Creator: pcb 20091103 *
G04 CreationDate: Tue 03 Apr 2012 04:10:51 AM GMT UTC *
G04 For: ed *
G04 Format: Gerber/RS-274X *
G04 PCB-Dimensions: 600000 500000 *
G04 PCB-Coordinate-Origin: lower left *
%MOIN*%
%FSLAX25Y25*%
%LNFAB*%
%ADD36C,0.0100*%
%ADD38C,0.0080*%
%ADD39C,0.0060*%
G54D38*X304200Y464685D02*G75*G03X305800Y464685I800J0D01*G01*
G75*G03X304200Y464685I-800J0D01*G01*
X302600D02*G75*G03X307400Y464685I2400J0D01*G01*
G75*G03X302600Y464685I-2400J0D01*G01*
X14200Y511250D02*G75*G03X15800Y511250I800J0D01*G01*
G75*G03X14200Y511250I-800J0D01*G01*
X12600D02*G75*G03X17400Y511250I2400J0D01*G01*
G75*G03X12600Y511250I-2400J0D01*G01*
G54D39*X135000Y513500D02*Y512750D01*
X136500Y511250D01*
X138000Y512750D01*
Y513500D02*Y512750D01*
X136500Y511250D02*Y507500D01*
X139801Y510500D02*X142051D01*
X139801Y507500D02*X142801D01*
X139801Y513500D02*Y507500D01*
Y513500D02*X142801D01*
X147603D02*X148353Y512750D01*
X145353Y513500D02*X147603D01*
X144603Y512750D02*X145353Y513500D01*
X144603Y512750D02*Y511250D01*
X145353Y510500D01*
X147603D01*
X148353Y509750D01*
Y508250D01*
X147603Y507500D02*X148353Y508250D01*
X145353Y507500D02*X147603D01*
X144603Y508250D02*X145353Y507500D01*
X135000Y504249D02*X150154D01*
X98750Y507500D02*X100250D01*
X99500Y513500D02*Y507500D01*
X98000Y512000D02*X99500Y513500D01*
X98000Y504249D02*X102051D01*
X45000Y508250D02*X45750Y507500D01*
X45000Y512750D02*Y508250D01*
Y512750D02*X45750Y513500D01*
X47250D01*
X48000Y512750D01*
Y508250D01*
X47250Y507500D02*X48000Y508250D01*
X45750Y507500D02*X47250D01*
X45000Y509000D02*X48000Y512000D01*
X49801Y507500D02*X50551D01*
X53103D02*X54603D01*
X53853Y513500D02*Y507500D01*
X52353Y512000D02*X53853Y513500D01*
X56404Y512750D02*X57154Y513500D01*
X58654D01*
X59404Y512750D01*
Y508250D01*
X58654Y507500D02*X59404Y508250D01*
X57154Y507500D02*X58654D01*
X56404Y508250D02*X57154Y507500D01*
Y510500D02*X59404D01*
X61206Y508250D02*X61956Y507500D01*
X61206Y512750D02*Y508250D01*
Y512750D02*X61956Y513500D01*
X63456D01*
X64206Y512750D01*
Y508250D01*
X63456Y507500D02*X64206Y508250D01*
X61956Y507500D02*X63456D01*
X61206Y509000D02*X64206Y512000D01*
X45000Y504249D02*X66007D01*
X292600Y400085D02*X297400Y395285D01*
X292600D02*X297400Y400085D01*
X293400Y399285D02*X296600D01*
X293400D02*Y396085D01*
X296600D01*
Y399285D02*Y396085D01*
X302600Y400085D02*X307400Y395285D01*
X302600D02*X307400Y400085D01*
X303400Y399285D02*X306600D01*
X303400D02*Y396085D01*
X306600D01*
Y399285D02*Y396085D01*
X312600Y400085D02*X317400Y395285D01*
X312600D02*X317400Y400085D01*
X313400Y399285D02*X316600D01*
X313400D02*Y396085D01*
X316600D01*
Y399285D02*Y396085D01*
X12600Y528650D02*X17400Y523850D01*
X12600D02*X17400Y528650D01*
X13400Y527850D02*X16600D01*
X13400D02*Y524650D01*
X16600D01*
Y527850D02*Y524650D01*
X135000Y528500D02*Y527750D01*
X136500Y526250D01*
X138000Y527750D01*
Y528500D02*Y527750D01*
X136500Y526250D02*Y522500D01*
X139801Y525500D02*X142051D01*
X139801Y522500D02*X142801D01*
X139801Y528500D02*Y522500D01*
Y528500D02*X142801D01*
X147603D02*X148353Y527750D01*
X145353Y528500D02*X147603D01*
X144603Y527750D02*X145353Y528500D01*
X144603Y527750D02*Y526250D01*
X145353Y525500D01*
X147603D01*
X148353Y524750D01*
Y523250D01*
X147603Y522500D02*X148353Y523250D01*
X145353Y522500D02*X147603D01*
X144603Y523250D02*X145353Y522500D01*
X135000Y519249D02*X150154D01*
X98000Y527750D02*X98750Y528500D01*
X100250D01*
X101000Y527750D01*
Y523250D01*
X100250Y522500D02*X101000Y523250D01*
X98750Y522500D02*X100250D01*
X98000Y523250D02*X98750Y522500D01*
Y525500D02*X101000D01*
X98000Y519249D02*X102801D01*
X45000Y523250D02*X45750Y522500D01*
X45000Y527750D02*Y523250D01*
Y527750D02*X45750Y528500D01*
X47250D01*
X48000Y527750D01*
Y523250D01*
X47250Y522500D02*X48000Y523250D01*
X45750Y522500D02*X47250D01*
X45000Y524000D02*X48000Y527000D01*
X49801Y522500D02*X50551D01*
X52353Y523250D02*X53103Y522500D01*
X52353Y527750D02*Y523250D01*
Y527750D02*X53103Y528500D01*
X54603D01*
X55353Y527750D01*
Y523250D01*
X54603Y522500D02*X55353Y523250D01*
X53103Y522500D02*X54603D01*
X52353Y524000D02*X55353Y527000D01*
X59404Y528500D02*X60154Y527750D01*
X57904Y528500D02*X59404D01*
X57154Y527750D02*X57904Y528500D01*
X57154Y527750D02*Y523250D01*
X57904Y522500D01*
X59404Y525500D02*X60154Y524750D01*
X57154Y525500D02*X59404D01*
X57904Y522500D02*X59404D01*
X60154Y523250D01*
Y524750D02*Y523250D01*
X61956D02*X62706Y522500D01*
X61956Y527750D02*Y523250D01*
Y527750D02*X62706Y528500D01*
X64206D01*
X64956Y527750D01*
Y523250D01*
X64206Y522500D02*X64956Y523250D01*
X62706Y522500D02*X64206D01*
X61956Y524000D02*X64956Y527000D01*
X45000Y519249D02*X66757D01*
X65000Y352885D02*Y346485D01*
X61800Y349685D02*X68200D01*
X63400Y351285D02*X66600D01*
X63400D02*Y348085D01*
X66600D01*
Y351285D02*Y348085D01*
X65000Y362885D02*Y356485D01*
X61800Y359685D02*X68200D01*
X63400Y361285D02*X66600D01*
X63400D02*Y358085D01*
X66600D01*
Y361285D02*Y358085D01*
X65000Y372885D02*Y366485D01*
X61800Y369685D02*X68200D01*
X63400Y371285D02*X66600D01*
X63400D02*Y368085D01*
X66600D01*
Y371285D02*Y368085D01*
X135000Y362885D02*Y356485D01*
X131800Y359685D02*X138200D01*
X133400Y361285D02*X136600D01*
X133400D02*Y358085D01*
X136600D01*
Y361285D02*Y358085D01*
X145000Y362885D02*Y356485D01*
X141800Y359685D02*X148200D01*
X143400Y361285D02*X146600D01*
X143400D02*Y358085D01*
X146600D01*
Y361285D02*Y358085D01*
X155000Y362885D02*Y356485D01*
X151800Y359685D02*X158200D01*
X153400Y361285D02*X156600D01*
X153400D02*Y358085D01*
X156600D01*
Y361285D02*Y358085D01*
X15000Y544450D02*Y538050D01*
X11800Y541250D02*X18200D01*
X13400Y542850D02*X16600D01*
X13400D02*Y539650D01*
X16600D01*
Y542850D02*Y539650D01*
X135000Y543500D02*Y542750D01*
X136500Y541250D01*
X138000Y542750D01*
Y543500D02*Y542750D01*
X136500Y541250D02*Y537500D01*
X139801Y540500D02*X142051D01*
X139801Y537500D02*X142801D01*
X139801Y543500D02*Y537500D01*
Y543500D02*X142801D01*
X147603D02*X148353Y542750D01*
X145353Y543500D02*X147603D01*
X144603Y542750D02*X145353Y543500D01*
X144603Y542750D02*Y541250D01*
X145353Y540500D01*
X147603D01*
X148353Y539750D01*
Y538250D01*
X147603Y537500D02*X148353Y538250D01*
X145353Y537500D02*X147603D01*
X144603Y538250D02*X145353Y537500D01*
X135000Y534249D02*X150154D01*
X100250Y543500D02*X101000Y542750D01*
X98750Y543500D02*X100250D01*
X98000Y542750D02*X98750Y543500D01*
X98000Y542750D02*Y538250D01*
X98750Y537500D01*
X100250Y540500D02*X101000Y539750D01*
X98000Y540500D02*X100250D01*
X98750Y537500D02*X100250D01*
X101000Y538250D01*
Y539750D02*Y538250D01*
X98000Y534249D02*X102801D01*
X45000Y538250D02*X45750Y537500D01*
X45000Y542750D02*Y538250D01*
Y542750D02*X45750Y543500D01*
X47250D01*
X48000Y542750D01*
Y538250D01*
X47250Y537500D02*X48000Y538250D01*
X45750Y537500D02*X47250D01*
X45000Y539000D02*X48000Y542000D01*
X49801Y537500D02*X50551D01*
X52353Y538250D02*X53103Y537500D01*
X52353Y542750D02*Y538250D01*
Y542750D02*X53103Y543500D01*
X54603D01*
X55353Y542750D01*
Y538250D01*
X54603Y537500D02*X55353Y538250D01*
X53103Y537500D02*X54603D01*
X52353Y539000D02*X55353Y542000D01*
X57154Y540500D02*X60154Y543500D01*
X57154Y540500D02*X60904D01*
X60154Y543500D02*Y537500D01*
X62706Y542750D02*X63456Y543500D01*
X65706D01*
X66456Y542750D01*
Y541250D01*
X62706Y537500D02*X66456Y541250D01*
X62706Y537500D02*X66456D01*
X45000Y534249D02*X68257D01*
X195000Y344685D02*Y341485D01*
Y344685D02*X197773Y346285D01*
X195000Y344685D02*X192227Y346285D01*
X193400Y344685D02*G75*G03X196600Y344685I1600J0D01*G01*
G75*G03X193400Y344685I-1600J0D01*G01*
X155000D02*Y341485D01*
Y344685D02*X157773Y346285D01*
X155000Y344685D02*X152227Y346285D01*
X153400Y344685D02*G75*G03X156600Y344685I1600J0D01*G01*
G75*G03X153400Y344685I-1600J0D01*G01*
X120000Y359685D02*Y356485D01*
Y359685D02*X122773Y361285D01*
X120000Y359685D02*X117227Y361285D01*
X118400Y359685D02*G75*G03X121600Y359685I1600J0D01*G01*
G75*G03X118400Y359685I-1600J0D01*G01*
X80000D02*Y356485D01*
Y359685D02*X82773Y361285D01*
X80000Y359685D02*X77227Y361285D01*
X78400Y359685D02*G75*G03X81600Y359685I1600J0D01*G01*
G75*G03X78400Y359685I-1600J0D01*G01*
X290000Y379685D02*Y376485D01*
Y379685D02*X292773Y381285D01*
X290000Y379685D02*X287227Y381285D01*
X288400Y379685D02*G75*G03X291600Y379685I1600J0D01*G01*
G75*G03X288400Y379685I-1600J0D01*G01*
X290000Y339685D02*Y336485D01*
Y339685D02*X292773Y341285D01*
X290000Y339685D02*X287227Y341285D01*
X288400Y339685D02*G75*G03X291600Y339685I1600J0D01*G01*
G75*G03X288400Y339685I-1600J0D01*G01*
X270000Y416685D02*Y413485D01*
Y416685D02*X272773Y418285D01*
X270000Y416685D02*X267227Y418285D01*
X268400Y416685D02*G75*G03X271600Y416685I1600J0D01*G01*
G75*G03X268400Y416685I-1600J0D01*G01*
X270000Y376685D02*Y373485D01*
Y376685D02*X272773Y378285D01*
X270000Y376685D02*X267227Y378285D01*
X268400Y376685D02*G75*G03X271600Y376685I1600J0D01*G01*
G75*G03X268400Y376685I-1600J0D01*G01*
X105000Y304685D02*Y301485D01*
Y304685D02*X107773Y306285D01*
X105000Y304685D02*X102227Y306285D01*
X103400Y304685D02*G75*G03X106600Y304685I1600J0D01*G01*
G75*G03X103400Y304685I-1600J0D01*G01*
X65000D02*Y301485D01*
Y304685D02*X67773Y306285D01*
X65000Y304685D02*X62227Y306285D01*
X63400Y304685D02*G75*G03X66600Y304685I1600J0D01*G01*
G75*G03X63400Y304685I-1600J0D01*G01*
X30000Y279685D02*Y276485D01*
Y279685D02*X32773Y281285D01*
X30000Y279685D02*X27227Y281285D01*
X28400Y279685D02*G75*G03X31600Y279685I1600J0D01*G01*
G75*G03X28400Y279685I-1600J0D01*G01*
X40000D02*Y276485D01*
Y279685D02*X42773Y281285D01*
X40000Y279685D02*X37227Y281285D01*
X38400Y279685D02*G75*G03X41600Y279685I1600J0D01*G01*
G75*G03X38400Y279685I-1600J0D01*G01*
X165000Y474685D02*Y471485D01*
Y474685D02*X167773Y476285D01*
X165000Y474685D02*X162227Y476285D01*
X163400Y474685D02*G75*G03X166600Y474685I1600J0D01*G01*
G75*G03X163400Y474685I-1600J0D01*G01*
X165000Y464685D02*Y461485D01*
Y464685D02*X167773Y466285D01*
X165000Y464685D02*X162227Y466285D01*
X163400Y464685D02*G75*G03X166600Y464685I1600J0D01*G01*
G75*G03X163400Y464685I-1600J0D01*G01*
X165000Y454685D02*Y451485D01*
Y454685D02*X167773Y456285D01*
X165000Y454685D02*X162227Y456285D01*
X163400Y454685D02*G75*G03X166600Y454685I1600J0D01*G01*
G75*G03X163400Y454685I-1600J0D01*G01*
X165000Y444685D02*Y441485D01*
Y444685D02*X167773Y446285D01*
X165000Y444685D02*X162227Y446285D01*
X163400Y444685D02*G75*G03X166600Y444685I1600J0D01*G01*
G75*G03X163400Y444685I-1600J0D01*G01*
X165000Y434685D02*Y431485D01*
Y434685D02*X167773Y436285D01*
X165000Y434685D02*X162227Y436285D01*
X163400Y434685D02*G75*G03X166600Y434685I1600J0D01*G01*
G75*G03X163400Y434685I-1600J0D01*G01*
X165000Y424685D02*Y421485D01*
Y424685D02*X167773Y426285D01*
X165000Y424685D02*X162227Y426285D01*
X163400Y424685D02*G75*G03X166600Y424685I1600J0D01*G01*
G75*G03X163400Y424685I-1600J0D01*G01*
X165000Y414685D02*Y411485D01*
Y414685D02*X167773Y416285D01*
X165000Y414685D02*X162227Y416285D01*
X163400Y414685D02*G75*G03X166600Y414685I1600J0D01*G01*
G75*G03X163400Y414685I-1600J0D01*G01*
X165000Y404685D02*Y401485D01*
Y404685D02*X167773Y406285D01*
X165000Y404685D02*X162227Y406285D01*
X163400Y404685D02*G75*G03X166600Y404685I1600J0D01*G01*
G75*G03X163400Y404685I-1600J0D01*G01*
X165000Y394685D02*Y391485D01*
Y394685D02*X167773Y396285D01*
X165000Y394685D02*X162227Y396285D01*
X163400Y394685D02*G75*G03X166600Y394685I1600J0D01*G01*
G75*G03X163400Y394685I-1600J0D01*G01*
X165000Y384685D02*Y381485D01*
Y384685D02*X167773Y386285D01*
X165000Y384685D02*X162227Y386285D01*
X163400Y384685D02*G75*G03X166600Y384685I1600J0D01*G01*
G75*G03X163400Y384685I-1600J0D01*G01*
X251600Y474685D02*Y471485D01*
Y474685D02*X254373Y476285D01*
X251600Y474685D02*X248827Y476285D01*
X250000Y474685D02*G75*G03X253200Y474685I1600J0D01*G01*
G75*G03X250000Y474685I-1600J0D01*G01*
X251600Y464685D02*Y461485D01*
Y464685D02*X254373Y466285D01*
X251600Y464685D02*X248827Y466285D01*
X250000Y464685D02*G75*G03X253200Y464685I1600J0D01*G01*
G75*G03X250000Y464685I-1600J0D01*G01*
X251600Y454685D02*Y451485D01*
Y454685D02*X254373Y456285D01*
X251600Y454685D02*X248827Y456285D01*
X250000Y454685D02*G75*G03X253200Y454685I1600J0D01*G01*
G75*G03X250000Y454685I-1600J0D01*G01*
X251600Y444685D02*Y441485D01*
Y444685D02*X254373Y446285D01*
X251600Y444685D02*X248827Y446285D01*
X250000Y444685D02*G75*G03X253200Y444685I1600J0D01*G01*
G75*G03X250000Y444685I-1600J0D01*G01*
X251600Y434685D02*Y431485D01*
Y434685D02*X254373Y436285D01*
X251600Y434685D02*X248827Y436285D01*
X250000Y434685D02*G75*G03X253200Y434685I1600J0D01*G01*
G75*G03X250000Y434685I-1600J0D01*G01*
X251600Y424685D02*Y421485D01*
Y424685D02*X254373Y426285D01*
X251600Y424685D02*X248827Y426285D01*
X250000Y424685D02*G75*G03X253200Y424685I1600J0D01*G01*
G75*G03X250000Y424685I-1600J0D01*G01*
X251600Y414685D02*Y411485D01*
Y414685D02*X254373Y416285D01*
X251600Y414685D02*X248827Y416285D01*
X250000Y414685D02*G75*G03X253200Y414685I1600J0D01*G01*
G75*G03X250000Y414685I-1600J0D01*G01*
X251600Y404685D02*Y401485D01*
Y404685D02*X254373Y406285D01*
X251600Y404685D02*X248827Y406285D01*
X250000Y404685D02*G75*G03X253200Y404685I1600J0D01*G01*
G75*G03X250000Y404685I-1600J0D01*G01*
X251600Y394685D02*Y391485D01*
Y394685D02*X254373Y396285D01*
X251600Y394685D02*X248827Y396285D01*
X250000Y394685D02*G75*G03X253200Y394685I1600J0D01*G01*
G75*G03X250000Y394685I-1600J0D01*G01*
X251600Y384685D02*Y381485D01*
Y384685D02*X254373Y386285D01*
X251600Y384685D02*X248827Y386285D01*
X250000Y384685D02*G75*G03X253200Y384685I1600J0D01*G01*
G75*G03X250000Y384685I-1600J0D01*G01*
X70000Y264685D02*Y261485D01*
Y264685D02*X72773Y266285D01*
X70000Y264685D02*X67227Y266285D01*
X68400Y264685D02*G75*G03X71600Y264685I1600J0D01*G01*
G75*G03X68400Y264685I-1600J0D01*G01*
X30000D02*Y261485D01*
Y264685D02*X32773Y266285D01*
X30000Y264685D02*X27227Y266285D01*
X28400Y264685D02*G75*G03X31600Y264685I1600J0D01*G01*
G75*G03X28400Y264685I-1600J0D01*G01*
X95000Y469685D02*Y466485D01*
Y469685D02*X97773Y471285D01*
X95000Y469685D02*X92227Y471285D01*
X93400Y469685D02*G75*G03X96600Y469685I1600J0D01*G01*
G75*G03X93400Y469685I-1600J0D01*G01*
X55000D02*Y466485D01*
Y469685D02*X57773Y471285D01*
X55000Y469685D02*X52227Y471285D01*
X53400Y469685D02*G75*G03X56600Y469685I1600J0D01*G01*
G75*G03X53400Y469685I-1600J0D01*G01*
X135000Y379685D02*Y376485D01*
Y379685D02*X137773Y381285D01*
X135000Y379685D02*X132227Y381285D01*
X133400Y379685D02*G75*G03X136600Y379685I1600J0D01*G01*
G75*G03X133400Y379685I-1600J0D01*G01*
X95000D02*Y376485D01*
Y379685D02*X97773Y381285D01*
X95000Y379685D02*X92227Y381285D01*
X93400Y379685D02*G75*G03X96600Y379685I1600J0D01*G01*
G75*G03X93400Y379685I-1600J0D01*G01*
X145000Y294685D02*Y291485D01*
Y294685D02*X147773Y296285D01*
X145000Y294685D02*X142227Y296285D01*
X143400Y294685D02*G75*G03X146600Y294685I1600J0D01*G01*
G75*G03X143400Y294685I-1600J0D01*G01*
X145000Y334685D02*Y331485D01*
Y334685D02*X147773Y336285D01*
X145000Y334685D02*X142227Y336285D01*
X143400Y334685D02*G75*G03X146600Y334685I1600J0D01*G01*
G75*G03X143400Y334685I-1600J0D01*G01*
X15000Y556250D02*Y553050D01*
Y556250D02*X17773Y557850D01*
X15000Y556250D02*X12227Y557850D01*
X13400Y556250D02*G75*G03X16600Y556250I1600J0D01*G01*
G75*G03X13400Y556250I-1600J0D01*G01*
X135000Y558500D02*Y557750D01*
X136500Y556250D01*
X138000Y557750D01*
Y558500D02*Y557750D01*
X136500Y556250D02*Y552500D01*
X139801Y555500D02*X142051D01*
X139801Y552500D02*X142801D01*
X139801Y558500D02*Y552500D01*
Y558500D02*X142801D01*
X147603D02*X148353Y557750D01*
X145353Y558500D02*X147603D01*
X144603Y557750D02*X145353Y558500D01*
X144603Y557750D02*Y556250D01*
X145353Y555500D01*
X147603D01*
X148353Y554750D01*
Y553250D01*
X147603Y552500D02*X148353Y553250D01*
X145353Y552500D02*X147603D01*
X144603Y553250D02*X145353Y552500D01*
X135000Y549249D02*X150154D01*
X98000Y555500D02*X101000Y558500D01*
X98000Y555500D02*X101750D01*
X101000Y558500D02*Y552500D01*
X103551Y553250D02*X104301Y552500D01*
X103551Y557750D02*Y553250D01*
Y557750D02*X104301Y558500D01*
X105801D01*
X106551Y557750D01*
Y553250D01*
X105801Y552500D02*X106551Y553250D01*
X104301Y552500D02*X105801D01*
X103551Y554000D02*X106551Y557000D01*
X98000Y549249D02*X108353D01*
X45000Y553250D02*X45750Y552500D01*
X45000Y557750D02*Y553250D01*
Y557750D02*X45750Y558500D01*
X47250D01*
X48000Y557750D01*
Y553250D01*
X47250Y552500D02*X48000Y553250D01*
X45750Y552500D02*X47250D01*
X45000Y554000D02*X48000Y557000D01*
X49801Y552500D02*X50551D01*
X52353Y553250D02*X53103Y552500D01*
X52353Y557750D02*Y553250D01*
Y557750D02*X53103Y558500D01*
X54603D01*
X55353Y557750D01*
Y553250D01*
X54603Y552500D02*X55353Y553250D01*
X53103Y552500D02*X54603D01*
X52353Y554000D02*X55353Y557000D01*
X57154Y557750D02*X57904Y558500D01*
X59404D01*
X60154Y557750D01*
Y553250D01*
X59404Y552500D02*X60154Y553250D01*
X57904Y552500D02*X59404D01*
X57154Y553250D02*X57904Y552500D01*
Y555500D02*X60154D01*
X61956Y553250D02*X62706Y552500D01*
X61956Y554750D02*Y553250D01*
Y554750D02*X62706Y555500D01*
X64206D01*
X64956Y554750D01*
Y553250D01*
X64206Y552500D02*X64956Y553250D01*
X62706Y552500D02*X64206D01*
X61956Y556250D02*X62706Y555500D01*
X61956Y557750D02*Y556250D01*
Y557750D02*X62706Y558500D01*
X64206D01*
X64956Y557750D01*
Y556250D01*
X64206Y555500D02*X64956Y556250D01*
X45000Y549249D02*X66757D01*
X248400Y361285D02*X251600D01*
X248400D02*Y358085D01*
X251600D01*
Y361285D02*Y358085D01*
X308400Y361285D02*X311600D01*
X308400D02*Y358085D01*
X311600D01*
Y361285D02*Y358085D01*
X13400Y572850D02*X16600D01*
X13400D02*Y569650D01*
X16600D01*
Y572850D02*Y569650D01*
X135000Y573500D02*Y572750D01*
X136500Y571250D01*
X138000Y572750D01*
Y573500D02*Y572750D01*
X136500Y571250D02*Y567500D01*
X139801Y570500D02*X142051D01*
X139801Y567500D02*X142801D01*
X139801Y573500D02*Y567500D01*
Y573500D02*X142801D01*
X147603D02*X148353Y572750D01*
X145353Y573500D02*X147603D01*
X144603Y572750D02*X145353Y573500D01*
X144603Y572750D02*Y571250D01*
X145353Y570500D01*
X147603D01*
X148353Y569750D01*
Y568250D01*
X147603Y567500D02*X148353Y568250D01*
X145353Y567500D02*X147603D01*
X144603Y568250D02*X145353Y567500D01*
X135000Y564249D02*X150154D01*
X98000Y572750D02*X98750Y573500D01*
X101000D01*
X101750Y572750D01*
Y571250D01*
X98000Y567500D02*X101750Y571250D01*
X98000Y567500D02*X101750D01*
X98000Y564249D02*X103551D01*
X45000Y568250D02*X45750Y567500D01*
X45000Y572750D02*Y568250D01*
Y572750D02*X45750Y573500D01*
X47250D01*
X48000Y572750D01*
Y568250D01*
X47250Y567500D02*X48000Y568250D01*
X45750Y567500D02*X47250D01*
X45000Y569000D02*X48000Y572000D01*
X49801Y567500D02*X50551D01*
X52353Y568250D02*X53103Y567500D01*
X52353Y572750D02*Y568250D01*
Y572750D02*X53103Y573500D01*
X54603D01*
X55353Y572750D01*
Y568250D01*
X54603Y567500D02*X55353Y568250D01*
X53103Y567500D02*X54603D01*
X52353Y569000D02*X55353Y572000D01*
X57154Y572750D02*X57904Y573500D01*
X59404D01*
X60154Y572750D01*
Y568250D01*
X59404Y567500D02*X60154Y568250D01*
X57904Y567500D02*X59404D01*
X57154Y568250D02*X57904Y567500D01*
Y570500D02*X60154D01*
X61956Y573500D02*X64956D01*
X61956D02*Y570500D01*
X62706Y571250D01*
X64206D01*
X64956Y570500D01*
Y568250D01*
X64206Y567500D02*X64956Y568250D01*
X62706Y567500D02*X64206D01*
X61956Y568250D02*X62706Y567500D01*
X45000Y564249D02*X66757D01*
X319200Y379685D02*G75*G03X320800Y379685I800J0D01*G01*
G75*G03X319200Y379685I-800J0D01*G01*
Y369685D02*G75*G03X320800Y369685I800J0D01*G01*
G75*G03X319200Y369685I-800J0D01*G01*
X59200Y449685D02*G75*G03X60800Y449685I800J0D01*G01*
G75*G03X59200Y449685I-800J0D01*G01*
Y399685D02*G75*G03X60800Y399685I800J0D01*G01*
G75*G03X59200Y399685I-800J0D01*G01*
X264200Y349685D02*G75*G03X265800Y349685I800J0D01*G01*
G75*G03X264200Y349685I-800J0D01*G01*
Y339685D02*G75*G03X265800Y339685I800J0D01*G01*
G75*G03X264200Y339685I-800J0D01*G01*
X79200Y434685D02*G75*G03X80800Y434685I800J0D01*G01*
G75*G03X79200Y434685I-800J0D01*G01*
X129200D02*G75*G03X130800Y434685I800J0D01*G01*
G75*G03X129200Y434685I-800J0D01*G01*
X14200Y586250D02*G75*G03X15800Y586250I800J0D01*G01*
G75*G03X14200Y586250I-800J0D01*G01*
X135000Y588500D02*Y587750D01*
X136500Y586250D01*
X138000Y587750D01*
Y588500D02*Y587750D01*
X136500Y586250D02*Y582500D01*
X139801Y585500D02*X142051D01*
X139801Y582500D02*X142801D01*
X139801Y588500D02*Y582500D01*
Y588500D02*X142801D01*
X147603D02*X148353Y587750D01*
X145353Y588500D02*X147603D01*
X144603Y587750D02*X145353Y588500D01*
X144603Y587750D02*Y586250D01*
X145353Y585500D01*
X147603D01*
X148353Y584750D01*
Y583250D01*
X147603Y582500D02*X148353Y583250D01*
X145353Y582500D02*X147603D01*
X144603Y583250D02*X145353Y582500D01*
X135000Y579249D02*X150154D01*
X98000Y583250D02*X98750Y582500D01*
X98000Y584750D02*Y583250D01*
Y584750D02*X98750Y585500D01*
X100250D01*
X101000Y584750D01*
Y583250D01*
X100250Y582500D02*X101000Y583250D01*
X98750Y582500D02*X100250D01*
X98000Y586250D02*X98750Y585500D01*
X98000Y587750D02*Y586250D01*
Y587750D02*X98750Y588500D01*
X100250D01*
X101000Y587750D01*
Y586250D01*
X100250Y585500D02*X101000Y586250D01*
X98000Y579249D02*X102801D01*
X45000Y583250D02*X45750Y582500D01*
X45000Y587750D02*Y583250D01*
Y587750D02*X45750Y588500D01*
X47250D01*
X48000Y587750D01*
Y583250D01*
X47250Y582500D02*X48000Y583250D01*
X45750Y582500D02*X47250D01*
X45000Y584000D02*X48000Y587000D01*
X49801Y582500D02*X50551D01*
X52353Y583250D02*X53103Y582500D01*
X52353Y587750D02*Y583250D01*
Y587750D02*X53103Y588500D01*
X54603D01*
X55353Y587750D01*
Y583250D01*
X54603Y582500D02*X55353Y583250D01*
X53103Y582500D02*X54603D01*
X52353Y584000D02*X55353Y587000D01*
X57154Y587750D02*X57904Y588500D01*
X59404D01*
X60154Y587750D01*
Y583250D01*
X59404Y582500D02*X60154Y583250D01*
X57904Y582500D02*X59404D01*
X57154Y583250D02*X57904Y582500D01*
Y585500D02*X60154D01*
X61956Y583250D02*X62706Y582500D01*
X61956Y587750D02*Y583250D01*
Y587750D02*X62706Y588500D01*
X64206D01*
X64956Y587750D01*
Y583250D01*
X64206Y582500D02*X64956Y583250D01*
X62706Y582500D02*X64206D01*
X61956Y584000D02*X64956Y587000D01*
X45000Y579249D02*X66757D01*
X103800Y400885D02*X106200Y398485D01*
X103800D02*X106200Y400885D01*
X103800Y410885D02*X106200Y408485D01*
X103800D02*X106200Y410885D01*
X103800Y420885D02*X106200Y418485D01*
X103800D02*X106200Y420885D01*
X73800D02*X76200Y418485D01*
X73800D02*X76200Y420885D01*
X73800Y410885D02*X76200Y408485D01*
X73800D02*X76200Y410885D01*
X73800Y400885D02*X76200Y398485D01*
X73800D02*X76200Y400885D01*
X223800Y325885D02*X226200Y323485D01*
X223800D02*X226200Y325885D01*
X213800D02*X216200Y323485D01*
X213800D02*X216200Y325885D01*
X203800D02*X206200Y323485D01*
X203800D02*X206200Y325885D01*
X193800D02*X196200Y323485D01*
X193800D02*X196200Y325885D01*
X183800D02*X186200Y323485D01*
X183800D02*X186200Y325885D01*
X173800D02*X176200Y323485D01*
X173800D02*X176200Y325885D01*
X163800D02*X166200Y323485D01*
X163800D02*X166200Y325885D01*
X163800Y295885D02*X166200Y293485D01*
X163800D02*X166200Y295885D01*
X173800D02*X176200Y293485D01*
X173800D02*X176200Y295885D01*
X183800D02*X186200Y293485D01*
X183800D02*X186200Y295885D01*
X193800D02*X196200Y293485D01*
X193800D02*X196200Y295885D01*
X203800D02*X206200Y293485D01*
X203800D02*X206200Y295885D01*
X213800D02*X216200Y293485D01*
X213800D02*X216200Y295885D01*
X223800D02*X226200Y293485D01*
X223800D02*X226200Y295885D01*
X108800Y470885D02*X111200Y468485D01*
X108800D02*X111200Y470885D01*
X108800Y460885D02*X111200Y458485D01*
X108800D02*X111200Y460885D01*
X108800Y450885D02*X111200Y448485D01*
X108800D02*X111200Y450885D01*
X138800D02*X141200Y448485D01*
X138800D02*X141200Y450885D01*
X138800Y460885D02*X141200Y458485D01*
X138800D02*X141200Y460885D01*
X138800Y470885D02*X141200Y468485D01*
X138800D02*X141200Y470885D01*
X13800Y602450D02*X16200Y600050D01*
X13800D02*X16200Y602450D01*
X135000Y603500D02*Y602750D01*
X136500Y601250D01*
X138000Y602750D01*
Y603500D02*Y602750D01*
X136500Y601250D02*Y597500D01*
X139801Y600500D02*X142051D01*
X139801Y597500D02*X142801D01*
X139801Y603500D02*Y597500D01*
Y603500D02*X142801D01*
X147603D02*X148353Y602750D01*
X145353Y603500D02*X147603D01*
X144603Y602750D02*X145353Y603500D01*
X144603Y602750D02*Y601250D01*
X145353Y600500D01*
X147603D01*
X148353Y599750D01*
Y598250D01*
X147603Y597500D02*X148353Y598250D01*
X145353Y597500D02*X147603D01*
X144603Y598250D02*X145353Y597500D01*
X135000Y594249D02*X150154D01*
X98000Y602750D02*X98750Y603500D01*
X101000D01*
X101750Y602750D01*
Y601250D01*
X98000Y597500D02*X101750Y601250D01*
X98000Y597500D02*X101750D01*
X105801Y603500D02*X106551Y602750D01*
X104301Y603500D02*X105801D01*
X103551Y602750D02*X104301Y603500D01*
X103551Y602750D02*Y598250D01*
X104301Y597500D01*
X105801Y600500D02*X106551Y599750D01*
X103551Y600500D02*X105801D01*
X104301Y597500D02*X105801D01*
X106551Y598250D01*
Y599750D02*Y598250D01*
X98000Y594249D02*X108353D01*
X45000Y598250D02*X45750Y597500D01*
X45000Y602750D02*Y598250D01*
Y602750D02*X45750Y603500D01*
X47250D01*
X48000Y602750D01*
Y598250D01*
X47250Y597500D02*X48000Y598250D01*
X45750Y597500D02*X47250D01*
X45000Y599000D02*X48000Y602000D01*
X49801Y597500D02*X50551D01*
X52353Y598250D02*X53103Y597500D01*
X52353Y602750D02*Y598250D01*
Y602750D02*X53103Y603500D01*
X54603D01*
X55353Y602750D01*
Y598250D01*
X54603Y597500D02*X55353Y598250D01*
X53103Y597500D02*X54603D01*
X52353Y599000D02*X55353Y602000D01*
X57154Y602750D02*X57904Y603500D01*
X60154D01*
X60904Y602750D01*
Y601250D01*
X57154Y597500D02*X60904Y601250D01*
X57154Y597500D02*X60904D01*
X62706Y598250D02*X63456Y597500D01*
X62706Y599750D02*Y598250D01*
Y599750D02*X63456Y600500D01*
X64956D01*
X65706Y599750D01*
Y598250D01*
X64956Y597500D02*X65706Y598250D01*
X63456Y597500D02*X64956D01*
X62706Y601250D02*X63456Y600500D01*
X62706Y602750D02*Y601250D01*
Y602750D02*X63456Y603500D01*
X64956D01*
X65706Y602750D01*
Y601250D01*
X64956Y600500D02*X65706Y601250D01*
X45000Y594249D02*X67507D01*
X300000Y321285D02*Y318085D01*
X298400Y319685D02*X301600D01*
X300000Y271285D02*Y268085D01*
X298400Y269685D02*X301600D01*
X15000Y617850D02*Y614650D01*
X13400Y616250D02*X16600D01*
X135000Y618500D02*Y617750D01*
X136500Y616250D01*
X138000Y617750D01*
Y618500D02*Y617750D01*
X136500Y616250D02*Y612500D01*
X139801Y615500D02*X142051D01*
X139801Y612500D02*X142801D01*
X139801Y618500D02*Y612500D01*
Y618500D02*X142801D01*
X147603D02*X148353Y617750D01*
X145353Y618500D02*X147603D01*
X144603Y617750D02*X145353Y618500D01*
X144603Y617750D02*Y616250D01*
X145353Y615500D01*
X147603D01*
X148353Y614750D01*
Y613250D01*
X147603Y612500D02*X148353Y613250D01*
X145353Y612500D02*X147603D01*
X144603Y613250D02*X145353Y612500D01*
X135000Y609249D02*X150154D01*
X98000Y617750D02*X98750Y618500D01*
X101000D01*
X101750Y617750D01*
Y616250D01*
X98000Y612500D02*X101750Y616250D01*
X98000Y612500D02*X101750D01*
X98000Y609249D02*X103551D01*
X45000Y613250D02*X45750Y612500D01*
X45000Y617750D02*Y613250D01*
Y617750D02*X45750Y618500D01*
X47250D01*
X48000Y617750D01*
Y613250D01*
X47250Y612500D02*X48000Y613250D01*
X45750Y612500D02*X47250D01*
X45000Y614000D02*X48000Y617000D01*
X49801Y612500D02*X50551D01*
X52353Y613250D02*X53103Y612500D01*
X52353Y617750D02*Y613250D01*
Y617750D02*X53103Y618500D01*
X54603D01*
X55353Y617750D01*
Y613250D01*
X54603Y612500D02*X55353Y613250D01*
X53103Y612500D02*X54603D01*
X52353Y614000D02*X55353Y617000D01*
X57154Y617750D02*X57904Y618500D01*
X60154D01*
X60904Y617750D01*
Y616250D01*
X57154Y612500D02*X60904Y616250D01*
X57154Y612500D02*X60904D01*
X62706Y613250D02*X63456Y612500D01*
X62706Y617750D02*Y613250D01*
Y617750D02*X63456Y618500D01*
X64956D01*
X65706Y617750D01*
Y613250D01*
X64956Y612500D02*X65706Y613250D01*
X63456Y612500D02*X64956D01*
X62706Y614000D02*X65706Y617000D01*
X45000Y609249D02*X67507D01*
X35000Y449685D02*Y448085D01*
Y449685D02*X36386Y450485D01*
X35000Y449685D02*X33614Y450485D01*
X35000Y469370D02*Y467770D01*
Y469370D02*X36386Y470170D01*
X35000Y469370D02*X33614Y470170D01*
X320000Y339685D02*Y338085D01*
Y339685D02*X321386Y340485D01*
X320000Y339685D02*X318614Y340485D01*
X320000Y320000D02*Y318400D01*
Y320000D02*X321386Y320800D01*
X320000Y320000D02*X318614Y320800D01*
X35000Y350000D02*Y348400D01*
Y350000D02*X36386Y350800D01*
X35000Y350000D02*X33614Y350800D01*
X35000Y369685D02*Y368085D01*
Y369685D02*X36386Y370485D01*
X35000Y369685D02*X33614Y370485D01*
X35000Y400000D02*Y398400D01*
Y400000D02*X36386Y400800D01*
X35000Y400000D02*X33614Y400800D01*
X35000Y419685D02*Y418085D01*
Y419685D02*X36386Y420485D01*
X35000Y419685D02*X33614Y420485D01*
X35000Y305000D02*Y303400D01*
Y305000D02*X36386Y305800D01*
X35000Y305000D02*X33614Y305800D01*
X35000Y324685D02*Y323085D01*
Y324685D02*X36386Y325485D01*
X35000Y324685D02*X33614Y325485D01*
X15000Y631250D02*Y629650D01*
Y631250D02*X16386Y632050D01*
X15000Y631250D02*X13614Y632050D01*
X135000Y633500D02*Y632750D01*
X136500Y631250D01*
X138000Y632750D01*
Y633500D02*Y632750D01*
X136500Y631250D02*Y627500D01*
X139801Y630500D02*X142051D01*
X139801Y627500D02*X142801D01*
X139801Y633500D02*Y627500D01*
Y633500D02*X142801D01*
X147603D02*X148353Y632750D01*
X145353Y633500D02*X147603D01*
X144603Y632750D02*X145353Y633500D01*
X144603Y632750D02*Y631250D01*
X145353Y630500D01*
X147603D01*
X148353Y629750D01*
Y628250D01*
X147603Y627500D02*X148353Y628250D01*
X145353Y627500D02*X147603D01*
X144603Y628250D02*X145353Y627500D01*
X135000Y624249D02*X150154D01*
X98750Y627500D02*X100250D01*
X99500Y633500D02*Y627500D01*
X98000Y632000D02*X99500Y633500D01*
X102051Y628250D02*X102801Y627500D01*
X102051Y632750D02*Y628250D01*
Y632750D02*X102801Y633500D01*
X104301D01*
X105051Y632750D01*
Y628250D01*
X104301Y627500D02*X105051Y628250D01*
X102801Y627500D02*X104301D01*
X102051Y629000D02*X105051Y632000D01*
X98000Y624249D02*X106853D01*
X45000Y628250D02*X45750Y627500D01*
X45000Y632750D02*Y628250D01*
Y632750D02*X45750Y633500D01*
X47250D01*
X48000Y632750D01*
Y628250D01*
X47250Y627500D02*X48000Y628250D01*
X45750Y627500D02*X47250D01*
X45000Y629000D02*X48000Y632000D01*
X49801Y627500D02*X50551D01*
X52353Y628250D02*X53103Y627500D01*
X52353Y632750D02*Y628250D01*
Y632750D02*X53103Y633500D01*
X54603D01*
X55353Y632750D01*
Y628250D01*
X54603Y627500D02*X55353Y628250D01*
X53103Y627500D02*X54603D01*
X52353Y629000D02*X55353Y632000D01*
X57904Y627500D02*X59404D01*
X58654Y633500D02*Y627500D01*
X57154Y632000D02*X58654Y633500D01*
X61206D02*X64206D01*
X61206D02*Y630500D01*
X61956Y631250D01*
X63456D01*
X64206Y630500D01*
Y628250D01*
X63456Y627500D02*X64206Y628250D01*
X61956Y627500D02*X63456D01*
X61206Y628250D02*X61956Y627500D01*
X45000Y624249D02*X66007D01*
X3000Y648500D02*X3750Y647750D01*
X750Y648500D02*X3000D01*
X0Y647750D02*X750Y648500D01*
X0Y647750D02*Y646250D01*
X750Y645500D01*
X3000D01*
X3750Y644750D01*
Y643250D01*
X3000Y642500D02*X3750Y643250D01*
X750Y642500D02*X3000D01*
X0Y643250D02*X750Y642500D01*
X5551Y645500D02*Y643250D01*
X6301Y642500D01*
X8551Y645500D02*Y641000D01*
X7801Y640250D02*X8551Y641000D01*
X6301Y640250D02*X7801D01*
X5551Y641000D02*X6301Y640250D01*
Y642500D02*X7801D01*
X8551Y643250D01*
X11103Y644750D02*Y642500D01*
Y644750D02*X11853Y645500D01*
X12603D01*
X13353Y644750D01*
Y642500D01*
Y644750D02*X14103Y645500D01*
X14853D01*
X15603Y644750D01*
Y642500D01*
X10353Y645500D02*X11103Y644750D01*
X17404Y648500D02*Y642500D01*
Y643250D02*X18154Y642500D01*
X19654D01*
X20404Y643250D01*
Y644750D02*Y643250D01*
X19654Y645500D02*X20404Y644750D01*
X18154Y645500D02*X19654D01*
X17404Y644750D02*X18154Y645500D01*
X22206Y644750D02*Y643250D01*
Y644750D02*X22956Y645500D01*
X24456D01*
X25206Y644750D01*
Y643250D01*
X24456Y642500D02*X25206Y643250D01*
X22956Y642500D02*X24456D01*
X22206Y643250D02*X22956Y642500D01*
X27007Y648500D02*Y643250D01*
X27757Y642500D01*
X41750Y648500D02*Y642500D01*
X44000Y648500D02*X44750Y647750D01*
Y643250D01*
X44000Y642500D02*X44750Y643250D01*
X41000Y642500D02*X44000D01*
X41000Y648500D02*X44000D01*
X46551Y647000D02*Y646250D01*
Y644750D02*Y642500D01*
X50303Y645500D02*X51053Y644750D01*
X48803Y645500D02*X50303D01*
X48053Y644750D02*X48803Y645500D01*
X48053Y644750D02*Y643250D01*
X48803Y642500D01*
X51053Y645500D02*Y643250D01*
X51803Y642500D01*
X48803D02*X50303D01*
X51053Y643250D01*
X54354Y644750D02*Y642500D01*
Y644750D02*X55104Y645500D01*
X55854D01*
X56604Y644750D01*
Y642500D01*
Y644750D02*X57354Y645500D01*
X58104D01*
X58854Y644750D01*
Y642500D01*
X53604Y645500D02*X54354Y644750D01*
X60656Y642500D02*X61406D01*
X65907Y643250D02*X66657Y642500D01*
X65907Y647750D02*X66657Y648500D01*
X65907Y647750D02*Y643250D01*
X68459Y648500D02*X69959D01*
X69209D02*Y642500D01*
X68459D02*X69959D01*
X72510Y644750D02*Y642500D01*
Y644750D02*X73260Y645500D01*
X74010D01*
X74760Y644750D01*
Y642500D01*
X71760Y645500D02*X72510Y644750D01*
X77312Y645500D02*X79562D01*
X76562Y644750D02*X77312Y645500D01*
X76562Y644750D02*Y643250D01*
X77312Y642500D01*
X79562D01*
X81363Y648500D02*Y642500D01*
Y644750D02*X82113Y645500D01*
X83613D01*
X84363Y644750D01*
Y642500D01*
X86165Y648500D02*X86915Y647750D01*
Y643250D01*
X86165Y642500D02*X86915Y643250D01*
X95750Y642500D02*X98000D01*
X95000Y643250D02*X95750Y642500D01*
X95000Y647750D02*Y643250D01*
Y647750D02*X95750Y648500D01*
X98000D01*
X99801Y644750D02*Y643250D01*
Y644750D02*X100551Y645500D01*
X102051D01*
X102801Y644750D01*
Y643250D01*
X102051Y642500D02*X102801Y643250D01*
X100551Y642500D02*X102051D01*
X99801Y643250D02*X100551Y642500D01*
X104603Y645500D02*Y643250D01*
X105353Y642500D01*
X106853D01*
X107603Y643250D01*
Y645500D02*Y643250D01*
X110154Y644750D02*Y642500D01*
Y644750D02*X110904Y645500D01*
X111654D01*
X112404Y644750D01*
Y642500D01*
X109404Y645500D02*X110154Y644750D01*
X114956Y648500D02*Y643250D01*
X115706Y642500D01*
X114206Y646250D02*X115706D01*
X130750Y648500D02*Y642500D01*
X130000Y648500D02*X133000D01*
X133750Y647750D01*
Y646250D01*
X133000Y645500D02*X133750Y646250D01*
X130750Y645500D02*X133000D01*
X135551Y648500D02*Y643250D01*
X136301Y642500D01*
X140053Y645500D02*X140803Y644750D01*
X138553Y645500D02*X140053D01*
X137803Y644750D02*X138553Y645500D01*
X137803Y644750D02*Y643250D01*
X138553Y642500D01*
X140803Y645500D02*Y643250D01*
X141553Y642500D01*
X138553D02*X140053D01*
X140803Y643250D01*
X144104Y648500D02*Y643250D01*
X144854Y642500D01*
X143354Y646250D02*X144854D01*
X147106Y642500D02*X149356D01*
X146356Y643250D02*X147106Y642500D01*
X146356Y644750D02*Y643250D01*
Y644750D02*X147106Y645500D01*
X148606D01*
X149356Y644750D01*
X146356Y644000D02*X149356D01*
Y644750D02*Y644000D01*
X154157Y648500D02*Y642500D01*
X153407D02*X154157Y643250D01*
X151907Y642500D02*X153407D01*
X151157Y643250D02*X151907Y642500D01*
X151157Y644750D02*Y643250D01*
Y644750D02*X151907Y645500D01*
X153407D01*
X154157Y644750D01*
X157459Y645500D02*Y644750D01*
Y643250D02*Y642500D01*
X155959Y647750D02*Y647000D01*
Y647750D02*X156709Y648500D01*
X158209D01*
X158959Y647750D01*
Y647000D01*
X157459Y645500D02*X158959Y647000D01*
X0Y663500D02*X3000D01*
X1500D02*Y657500D01*
X4801Y663500D02*Y657500D01*
Y659750D02*X5551Y660500D01*
X7051D01*
X7801Y659750D01*
Y657500D01*
X10353D02*X12603D01*
X9603Y658250D02*X10353Y657500D01*
X9603Y659750D02*Y658250D01*
Y659750D02*X10353Y660500D01*
X11853D01*
X12603Y659750D01*
X9603Y659000D02*X12603D01*
Y659750D02*Y659000D01*
X15154Y659750D02*Y657500D01*
Y659750D02*X15904Y660500D01*
X17404D01*
X14404D02*X15154Y659750D01*
X19956Y657500D02*X22206D01*
X19206Y658250D02*X19956Y657500D01*
X19206Y659750D02*Y658250D01*
Y659750D02*X19956Y660500D01*
X21456D01*
X22206Y659750D01*
X19206Y659000D02*X22206D01*
Y659750D02*Y659000D01*
X28957Y660500D02*X29707Y659750D01*
X27457Y660500D02*X28957D01*
X26707Y659750D02*X27457Y660500D01*
X26707Y659750D02*Y658250D01*
X27457Y657500D01*
X29707Y660500D02*Y658250D01*
X30457Y657500D01*
X27457D02*X28957D01*
X29707Y658250D01*
X33009Y659750D02*Y657500D01*
Y659750D02*X33759Y660500D01*
X35259D01*
X32259D02*X33009Y659750D01*
X37810Y657500D02*X40060D01*
X37060Y658250D02*X37810Y657500D01*
X37060Y659750D02*Y658250D01*
Y659750D02*X37810Y660500D01*
X39310D01*
X40060Y659750D01*
X37060Y659000D02*X40060D01*
Y659750D02*Y659000D01*
X44562Y657500D02*X47562Y660500D01*
Y662750D02*Y660500D01*
X46812Y663500D02*X47562Y662750D01*
X45312Y663500D02*X46812D01*
X44562Y662750D02*X45312Y663500D01*
X44562Y662750D02*Y661250D01*
X45312Y660500D01*
X47562D01*
X55063Y663500D02*Y657500D01*
X54313D02*X55063Y658250D01*
X52813Y657500D02*X54313D01*
X52063Y658250D02*X52813Y657500D01*
X52063Y659750D02*Y658250D01*
Y659750D02*X52813Y660500D01*
X54313D01*
X55063Y659750D01*
X56865Y662000D02*Y661250D01*
Y659750D02*Y657500D01*
X59116Y662750D02*Y657500D01*
Y662750D02*X59866Y663500D01*
X60616D01*
X58366Y660500D02*X59866D01*
X62868Y662750D02*Y657500D01*
Y662750D02*X63618Y663500D01*
X64368D01*
X62118Y660500D02*X63618D01*
X66619Y657500D02*X68869D01*
X65869Y658250D02*X66619Y657500D01*
X65869Y659750D02*Y658250D01*
Y659750D02*X66619Y660500D01*
X68119D01*
X68869Y659750D01*
X65869Y659000D02*X68869D01*
Y659750D02*Y659000D01*
X71421Y659750D02*Y657500D01*
Y659750D02*X72171Y660500D01*
X73671D01*
X70671D02*X71421Y659750D01*
X76222Y657500D02*X78472D01*
X75472Y658250D02*X76222Y657500D01*
X75472Y659750D02*Y658250D01*
Y659750D02*X76222Y660500D01*
X77722D01*
X78472Y659750D01*
X75472Y659000D02*X78472D01*
Y659750D02*Y659000D01*
X81024Y659750D02*Y657500D01*
Y659750D02*X81774Y660500D01*
X82524D01*
X83274Y659750D01*
Y657500D01*
X80274Y660500D02*X81024Y659750D01*
X85825Y663500D02*Y658250D01*
X86575Y657500D01*
X85075Y661250D02*X86575D01*
X93777Y663500D02*Y657500D01*
X93027D02*X93777Y658250D01*
X91527Y657500D02*X93027D01*
X90777Y658250D02*X91527Y657500D01*
X90777Y659750D02*Y658250D01*
Y659750D02*X91527Y660500D01*
X93027D01*
X93777Y659750D01*
X96328D02*Y657500D01*
Y659750D02*X97078Y660500D01*
X98578D01*
X95578D02*X96328Y659750D01*
X100380Y662000D02*Y661250D01*
Y659750D02*Y657500D01*
X101881Y663500D02*Y658250D01*
X102631Y657500D01*
X104133Y663500D02*Y658250D01*
X104883Y657500D01*
X109834D02*X112084D01*
X112834Y658250D01*
X112084Y659000D02*X112834Y658250D01*
X109834Y659000D02*X112084D01*
X109084Y659750D02*X109834Y659000D01*
X109084Y659750D02*X109834Y660500D01*
X112084D01*
X112834Y659750D01*
X109084Y658250D02*X109834Y657500D01*
X114636Y662000D02*Y661250D01*
Y659750D02*Y657500D01*
X116137Y660500D02*X119137D01*
X116137Y657500D02*X119137Y660500D01*
X116137Y657500D02*X119137D01*
X121689D02*X123939D01*
X120939Y658250D02*X121689Y657500D01*
X120939Y659750D02*Y658250D01*
Y659750D02*X121689Y660500D01*
X123189D01*
X123939Y659750D01*
X120939Y659000D02*X123939D01*
Y659750D02*Y659000D01*
X126490Y657500D02*X128740D01*
X129490Y658250D01*
X128740Y659000D02*X129490Y658250D01*
X126490Y659000D02*X128740D01*
X125740Y659750D02*X126490Y659000D01*
X125740Y659750D02*X126490Y660500D01*
X128740D01*
X129490Y659750D01*
X125740Y658250D02*X126490Y657500D01*
X133992Y660500D02*Y658250D01*
X134742Y657500D01*
X136242D01*
X136992Y658250D01*
Y660500D02*Y658250D01*
X139543Y657500D02*X141793D01*
X142543Y658250D01*
X141793Y659000D02*X142543Y658250D01*
X139543Y659000D02*X141793D01*
X138793Y659750D02*X139543Y659000D01*
X138793Y659750D02*X139543Y660500D01*
X141793D01*
X142543Y659750D01*
X138793Y658250D02*X139543Y657500D01*
X145095D02*X147345D01*
X144345Y658250D02*X145095Y657500D01*
X144345Y659750D02*Y658250D01*
Y659750D02*X145095Y660500D01*
X146595D01*
X147345Y659750D01*
X144345Y659000D02*X147345D01*
Y659750D02*Y659000D01*
X152146Y663500D02*Y657500D01*
X151396D02*X152146Y658250D01*
X149896Y657500D02*X151396D01*
X149146Y658250D02*X149896Y657500D01*
X149146Y659750D02*Y658250D01*
Y659750D02*X149896Y660500D01*
X151396D01*
X152146Y659750D01*
X156648Y662000D02*Y661250D01*
Y659750D02*Y657500D01*
X158899Y659750D02*Y657500D01*
Y659750D02*X159649Y660500D01*
X160399D01*
X161149Y659750D01*
Y657500D01*
X158149Y660500D02*X158899Y659750D01*
X166401Y663500D02*Y658250D01*
X167151Y657500D01*
X165651Y661250D02*X167151D01*
X168652Y663500D02*Y657500D01*
Y659750D02*X169402Y660500D01*
X170902D01*
X171652Y659750D01*
Y657500D01*
X173454Y662000D02*Y661250D01*
Y659750D02*Y657500D01*
X175705D02*X177955D01*
X178705Y658250D01*
X177955Y659000D02*X178705Y658250D01*
X175705Y659000D02*X177955D01*
X174955Y659750D02*X175705Y659000D01*
X174955Y659750D02*X175705Y660500D01*
X177955D01*
X178705Y659750D01*
X174955Y658250D02*X175705Y657500D01*
X183207Y663500D02*Y658250D01*
X183957Y657500D01*
X187708Y660500D02*X188458Y659750D01*
X186208Y660500D02*X187708D01*
X185458Y659750D02*X186208Y660500D01*
X185458Y659750D02*Y658250D01*
X186208Y657500D01*
X188458Y660500D02*Y658250D01*
X189208Y657500D01*
X186208D02*X187708D01*
X188458Y658250D01*
X191010Y660500D02*Y658250D01*
X191760Y657500D01*
X194010Y660500D02*Y656000D01*
X193260Y655250D02*X194010Y656000D01*
X191760Y655250D02*X193260D01*
X191010Y656000D02*X191760Y655250D01*
Y657500D02*X193260D01*
X194010Y658250D01*
X195811Y659750D02*Y658250D01*
Y659750D02*X196561Y660500D01*
X198061D01*
X198811Y659750D01*
Y658250D01*
X198061Y657500D02*X198811Y658250D01*
X196561Y657500D02*X198061D01*
X195811Y658250D02*X196561Y657500D01*
X200613Y660500D02*Y658250D01*
X201363Y657500D01*
X202863D01*
X203613Y658250D01*
Y660500D02*Y658250D01*
X206164Y663500D02*Y658250D01*
X206914Y657500D01*
X205414Y661250D02*X206914D01*
X208416Y656000D02*X209916Y657500D01*
X214417D02*X217417Y660500D01*
Y662750D02*Y660500D01*
X216667Y663500D02*X217417Y662750D01*
X215167Y663500D02*X216667D01*
X214417Y662750D02*X215167Y663500D01*
X214417Y662750D02*Y661250D01*
X215167Y660500D01*
X217417D01*
X219219Y658250D02*X219969Y657500D01*
X219219Y659750D02*Y658250D01*
Y659750D02*X219969Y660500D01*
X221469D01*
X222219Y659750D01*
Y658250D01*
X221469Y657500D02*X222219Y658250D01*
X219969Y657500D02*X221469D01*
X219219Y661250D02*X219969Y660500D01*
X219219Y662750D02*Y661250D01*
Y662750D02*X219969Y663500D01*
X221469D01*
X222219Y662750D01*
Y661250D01*
X221469Y660500D02*X222219Y661250D01*
X226720Y663500D02*Y657500D01*
Y659750D02*X227470Y660500D01*
X228970D01*
X229720Y659750D01*
Y657500D01*
X231522Y659750D02*Y658250D01*
Y659750D02*X232272Y660500D01*
X233772D01*
X234522Y659750D01*
Y658250D01*
X233772Y657500D02*X234522Y658250D01*
X232272Y657500D02*X233772D01*
X231522Y658250D02*X232272Y657500D01*
X236323Y663500D02*Y658250D01*
X237073Y657500D01*
X239325D02*X241575D01*
X238575Y658250D02*X239325Y657500D01*
X238575Y659750D02*Y658250D01*
Y659750D02*X239325Y660500D01*
X240825D01*
X241575Y659750D01*
X238575Y659000D02*X241575D01*
Y659750D02*Y659000D01*
X244126Y657500D02*X246376D01*
X247126Y658250D01*
X246376Y659000D02*X247126Y658250D01*
X244126Y659000D02*X246376D01*
X243376Y659750D02*X244126Y659000D01*
X243376Y659750D02*X244126Y660500D01*
X246376D01*
X247126Y659750D01*
X243376Y658250D02*X244126Y657500D01*
X252378Y663500D02*Y658250D01*
X253128Y657500D01*
X251628Y661250D02*X253128D01*
X254629Y659750D02*Y658250D01*
Y659750D02*X255379Y660500D01*
X256879D01*
X257629Y659750D01*
Y658250D01*
X256879Y657500D02*X257629Y658250D01*
X255379Y657500D02*X256879D01*
X254629Y658250D02*X255379Y657500D01*
X260181Y663500D02*Y658250D01*
X260931Y657500D01*
X259431Y661250D02*X260931D01*
X264682Y660500D02*X265432Y659750D01*
X263182Y660500D02*X264682D01*
X262432Y659750D02*X263182Y660500D01*
X262432Y659750D02*Y658250D01*
X263182Y657500D01*
X265432Y660500D02*Y658250D01*
X266182Y657500D01*
X263182D02*X264682D01*
X265432Y658250D01*
X267984Y663500D02*Y658250D01*
X268734Y657500D01*
G54D36*X0Y500000D02*X600000D01*
X0D02*Y0D01*
X600000Y500000D02*Y0D01*
X0D02*X600000D01*
G54D39*X200000Y513500D02*Y507500D01*
Y513500D02*X202250Y511250D01*
X204500Y513500D01*
Y507500D01*
X208551Y510500D02*X209301Y509750D01*
X207051Y510500D02*X208551D01*
X206301Y509750D02*X207051Y510500D01*
X206301Y509750D02*Y508250D01*
X207051Y507500D01*
X209301Y510500D02*Y508250D01*
X210051Y507500D01*
X207051D02*X208551D01*
X209301Y508250D01*
X211853Y510500D02*X214853Y507500D01*
X211853D02*X214853Y510500D01*
X216654Y512000D02*Y511250D01*
Y509750D02*Y507500D01*
X218906Y509750D02*Y507500D01*
Y509750D02*X219656Y510500D01*
X220406D01*
X221156Y509750D01*
Y507500D01*
Y509750D02*X221906Y510500D01*
X222656D01*
X223406Y509750D01*
Y507500D01*
X218156Y510500D02*X218906Y509750D01*
X225207Y510500D02*Y508250D01*
X225957Y507500D01*
X227457D01*
X228207Y508250D01*
Y510500D02*Y508250D01*
X230759Y509750D02*Y507500D01*
Y509750D02*X231509Y510500D01*
X232259D01*
X233009Y509750D01*
Y507500D01*
Y509750D02*X233759Y510500D01*
X234509D01*
X235259Y509750D01*
Y507500D01*
X230009Y510500D02*X230759Y509750D01*
X240510Y513500D02*Y507500D01*
X242760Y513500D02*X243510Y512750D01*
Y508250D01*
X242760Y507500D02*X243510Y508250D01*
X239760Y507500D02*X242760D01*
X239760Y513500D02*X242760D01*
X245312Y512000D02*Y511250D01*
Y509750D02*Y507500D01*
X247563Y509750D02*Y507500D01*
Y509750D02*X248313Y510500D01*
X249063D01*
X249813Y509750D01*
Y507500D01*
Y509750D02*X250563Y510500D01*
X251313D01*
X252063Y509750D01*
Y507500D01*
X246813Y510500D02*X247563Y509750D01*
X254615Y507500D02*X256865D01*
X253865Y508250D02*X254615Y507500D01*
X253865Y509750D02*Y508250D01*
Y509750D02*X254615Y510500D01*
X256115D01*
X256865Y509750D01*
X253865Y509000D02*X256865D01*
Y509750D02*Y509000D01*
X259416Y509750D02*Y507500D01*
Y509750D02*X260166Y510500D01*
X260916D01*
X261666Y509750D01*
Y507500D01*
X258666Y510500D02*X259416Y509750D01*
X264218Y507500D02*X266468D01*
X267218Y508250D01*
X266468Y509000D02*X267218Y508250D01*
X264218Y509000D02*X266468D01*
X263468Y509750D02*X264218Y509000D01*
X263468Y509750D02*X264218Y510500D01*
X266468D01*
X267218Y509750D01*
X263468Y508250D02*X264218Y507500D01*
X269019Y512000D02*Y511250D01*
Y509750D02*Y507500D01*
X270521Y509750D02*Y508250D01*
Y509750D02*X271271Y510500D01*
X272771D01*
X273521Y509750D01*
Y508250D01*
X272771Y507500D02*X273521Y508250D01*
X271271Y507500D02*X272771D01*
X270521Y508250D02*X271271Y507500D01*
X276072Y509750D02*Y507500D01*
Y509750D02*X276822Y510500D01*
X277572D01*
X278322Y509750D01*
Y507500D01*
X275322Y510500D02*X276072Y509750D01*
X280874Y507500D02*X283124D01*
X283874Y508250D01*
X283124Y509000D02*X283874Y508250D01*
X280874Y509000D02*X283124D01*
X280124Y509750D02*X280874Y509000D01*
X280124Y509750D02*X280874Y510500D01*
X283124D01*
X283874Y509750D01*
X280124Y508250D02*X280874Y507500D01*
X285675Y511250D02*X286425D01*
X285675Y509750D02*X286425D01*
X293177Y513500D02*X293927Y512750D01*
X291677Y513500D02*X293177D01*
X290927Y512750D02*X291677Y513500D01*
X290927Y512750D02*Y508250D01*
X291677Y507500D01*
X293177Y510500D02*X293927Y509750D01*
X290927Y510500D02*X293177D01*
X291677Y507500D02*X293177D01*
X293927Y508250D01*
Y509750D02*Y508250D01*
X295728D02*X296478Y507500D01*
X295728Y512750D02*Y508250D01*
Y512750D02*X296478Y513500D01*
X297978D01*
X298728Y512750D01*
Y508250D01*
X297978Y507500D02*X298728Y508250D01*
X296478Y507500D02*X297978D01*
X295728Y509000D02*X298728Y512000D01*
X300530Y508250D02*X301280Y507500D01*
X300530Y512750D02*Y508250D01*
Y512750D02*X301280Y513500D01*
X302780D01*
X303530Y512750D01*
Y508250D01*
X302780Y507500D02*X303530Y508250D01*
X301280Y507500D02*X302780D01*
X300530Y509000D02*X303530Y512000D01*
X305331Y508250D02*X306081Y507500D01*
X305331Y512750D02*Y508250D01*
Y512750D02*X306081Y513500D01*
X307581D01*
X308331Y512750D01*
Y508250D01*
X307581Y507500D02*X308331Y508250D01*
X306081Y507500D02*X307581D01*
X305331Y509000D02*X308331Y512000D01*
X313583Y509750D02*Y507500D01*
Y509750D02*X314333Y510500D01*
X315083D01*
X315833Y509750D01*
Y507500D01*
Y509750D02*X316583Y510500D01*
X317333D01*
X318083Y509750D01*
Y507500D01*
X312833Y510500D02*X313583Y509750D01*
X319884Y512000D02*Y511250D01*
Y509750D02*Y507500D01*
X321386Y513500D02*Y508250D01*
X322136Y507500D01*
X324387D02*X326637D01*
X327387Y508250D01*
X326637Y509000D02*X327387Y508250D01*
X324387Y509000D02*X326637D01*
X323637Y509750D02*X324387Y509000D01*
X323637Y509750D02*X324387Y510500D01*
X326637D01*
X327387Y509750D01*
X323637Y508250D02*X324387Y507500D01*
X331889Y510500D02*Y508250D01*
X332639Y507500D01*
X333389D01*
X334139Y508250D01*
Y510500D02*Y508250D01*
X334889Y507500D01*
X335639D01*
X336389Y508250D01*
Y510500D02*Y508250D01*
X338190Y512000D02*Y511250D01*
Y509750D02*Y507500D01*
X342692Y513500D02*Y507500D01*
X341942D02*X342692Y508250D01*
X340442Y507500D02*X341942D01*
X339692Y508250D02*X340442Y507500D01*
X339692Y509750D02*Y508250D01*
Y509750D02*X340442Y510500D01*
X341942D01*
X342692Y509750D01*
X345243Y507500D02*X347493D01*
X344493Y508250D02*X345243Y507500D01*
X344493Y509750D02*Y508250D01*
Y509750D02*X345243Y510500D01*
X346743D01*
X347493Y509750D01*
X344493Y509000D02*X347493D01*
Y509750D02*Y509000D01*
X349295Y506000D02*X350795Y507500D01*
X355296Y513500D02*X358296D01*
X355296D02*Y510500D01*
X356046Y511250D01*
X357546D01*
X358296Y510500D01*
Y508250D01*
X357546Y507500D02*X358296Y508250D01*
X356046Y507500D02*X357546D01*
X355296Y508250D02*X356046Y507500D01*
X360098Y508250D02*X360848Y507500D01*
X360098Y512750D02*Y508250D01*
Y512750D02*X360848Y513500D01*
X362348D01*
X363098Y512750D01*
Y508250D01*
X362348Y507500D02*X363098Y508250D01*
X360848Y507500D02*X362348D01*
X360098Y509000D02*X363098Y512000D01*
X364899Y508250D02*X365649Y507500D01*
X364899Y512750D02*Y508250D01*
Y512750D02*X365649Y513500D01*
X367149D01*
X367899Y512750D01*
Y508250D01*
X367149Y507500D02*X367899Y508250D01*
X365649Y507500D02*X367149D01*
X364899Y509000D02*X367899Y512000D01*
X369701Y508250D02*X370451Y507500D01*
X369701Y512750D02*Y508250D01*
Y512750D02*X370451Y513500D01*
X371951D01*
X372701Y512750D01*
Y508250D01*
X371951Y507500D02*X372701Y508250D01*
X370451Y507500D02*X371951D01*
X369701Y509000D02*X372701Y512000D01*
X377952Y509750D02*Y507500D01*
Y509750D02*X378702Y510500D01*
X379452D01*
X380202Y509750D01*
Y507500D01*
Y509750D02*X380952Y510500D01*
X381702D01*
X382452Y509750D01*
Y507500D01*
X377202Y510500D02*X377952Y509750D01*
X384254Y512000D02*Y511250D01*
Y509750D02*Y507500D01*
X385755Y513500D02*Y508250D01*
X386505Y507500D01*
X388757D02*X391007D01*
X391757Y508250D01*
X391007Y509000D02*X391757Y508250D01*
X388757Y509000D02*X391007D01*
X388007Y509750D02*X388757Y509000D01*
X388007Y509750D02*X388757Y510500D01*
X391007D01*
X391757Y509750D01*
X388007Y508250D02*X388757Y507500D01*
X396258Y513500D02*Y507500D01*
Y509750D02*X397008Y510500D01*
X398508D01*
X399258Y509750D01*
Y507500D01*
X401060Y512000D02*Y511250D01*
Y509750D02*Y507500D01*
X404811Y510500D02*X405561Y509750D01*
X403311Y510500D02*X404811D01*
X402561Y509750D02*X403311Y510500D01*
X402561Y509750D02*Y508250D01*
X403311Y507500D01*
X404811D01*
X405561Y508250D01*
X402561Y506000D02*X403311Y505250D01*
X404811D01*
X405561Y506000D01*
Y510500D02*Y506000D01*
X407363Y513500D02*Y507500D01*
Y509750D02*X408113Y510500D01*
X409613D01*
X410363Y509750D01*
Y507500D01*
X142226Y-9500D02*X145226D01*
X145976Y-8750D01*
Y-7250D02*Y-8750D01*
X145226Y-6500D02*X145976Y-7250D01*
X142976Y-6500D02*X145226D01*
X142976Y-3500D02*Y-9500D01*
X142226Y-3500D02*X145226D01*
X145976Y-4250D01*
Y-5750D01*
X145226Y-6500D02*X145976Y-5750D01*
X147777Y-7250D02*Y-8750D01*
Y-7250D02*X148527Y-6500D01*
X150027D01*
X150777Y-7250D01*
Y-8750D01*
X150027Y-9500D02*X150777Y-8750D01*
X148527Y-9500D02*X150027D01*
X147777Y-8750D02*X148527Y-9500D01*
X154829Y-6500D02*X155579Y-7250D01*
X153329Y-6500D02*X154829D01*
X152579Y-7250D02*X153329Y-6500D01*
X152579Y-7250D02*Y-8750D01*
X153329Y-9500D01*
X155579Y-6500D02*Y-8750D01*
X156329Y-9500D01*
X153329D02*X154829D01*
X155579Y-8750D01*
X158880Y-7250D02*Y-9500D01*
Y-7250D02*X159630Y-6500D01*
X161130D01*
X158130D02*X158880Y-7250D01*
X165932Y-3500D02*Y-9500D01*
X165182D02*X165932Y-8750D01*
X163682Y-9500D02*X165182D01*
X162932Y-8750D02*X163682Y-9500D01*
X162932Y-7250D02*Y-8750D01*
Y-7250D02*X163682Y-6500D01*
X165182D01*
X165932Y-7250D01*
X170433D02*Y-8750D01*
Y-7250D02*X171183Y-6500D01*
X172683D01*
X173433Y-7250D01*
Y-8750D01*
X172683Y-9500D02*X173433Y-8750D01*
X171183Y-9500D02*X172683D01*
X170433Y-8750D02*X171183Y-9500D01*
X175235Y-6500D02*Y-8750D01*
X175985Y-9500D01*
X177485D01*
X178235Y-8750D01*
Y-6500D02*Y-8750D01*
X180786Y-3500D02*Y-8750D01*
X181536Y-9500D01*
X180036Y-5750D02*X181536D01*
X183038Y-3500D02*Y-8750D01*
X183788Y-9500D01*
X185289Y-5000D02*Y-5750D01*
Y-7250D02*Y-9500D01*
X187541Y-7250D02*Y-9500D01*
Y-7250D02*X188291Y-6500D01*
X189041D01*
X189791Y-7250D01*
Y-9500D01*
X186791Y-6500D02*X187541Y-7250D01*
X192342Y-9500D02*X194592D01*
X191592Y-8750D02*X192342Y-9500D01*
X191592Y-7250D02*Y-8750D01*
Y-7250D02*X192342Y-6500D01*
X193842D01*
X194592Y-7250D01*
X191592Y-8000D02*X194592D01*
Y-7250D02*Y-8000D01*
X199094Y-5000D02*Y-5750D01*
Y-7250D02*Y-9500D01*
X201345D02*X203595D01*
X204345Y-8750D01*
X203595Y-8000D02*X204345Y-8750D01*
X201345Y-8000D02*X203595D01*
X200595Y-7250D02*X201345Y-8000D01*
X200595Y-7250D02*X201345Y-6500D01*
X203595D01*
X204345Y-7250D01*
X200595Y-8750D02*X201345Y-9500D01*
X209597Y-3500D02*Y-8750D01*
X210347Y-9500D01*
X208847Y-5750D02*X210347D01*
X211848Y-3500D02*Y-9500D01*
Y-7250D02*X212598Y-6500D01*
X214098D01*
X214848Y-7250D01*
Y-9500D01*
X217400D02*X219650D01*
X216650Y-8750D02*X217400Y-9500D01*
X216650Y-7250D02*Y-8750D01*
Y-7250D02*X217400Y-6500D01*
X218900D01*
X219650Y-7250D01*
X216650Y-8000D02*X219650D01*
Y-7250D02*Y-8000D01*
X224901Y-6500D02*X227151D01*
X224151Y-7250D02*X224901Y-6500D01*
X224151Y-7250D02*Y-8750D01*
X224901Y-9500D01*
X227151D01*
X229703D02*X231953D01*
X228953Y-8750D02*X229703Y-9500D01*
X228953Y-7250D02*Y-8750D01*
Y-7250D02*X229703Y-6500D01*
X231203D01*
X231953Y-7250D01*
X228953Y-8000D02*X231953D01*
Y-7250D02*Y-8000D01*
X234504Y-7250D02*Y-9500D01*
Y-7250D02*X235254Y-6500D01*
X236004D01*
X236754Y-7250D01*
Y-9500D01*
X233754Y-6500D02*X234504Y-7250D01*
X239306Y-3500D02*Y-8750D01*
X240056Y-9500D01*
X238556Y-5750D02*X240056D01*
X242307Y-9500D02*X244557D01*
X241557Y-8750D02*X242307Y-9500D01*
X241557Y-7250D02*Y-8750D01*
Y-7250D02*X242307Y-6500D01*
X243807D01*
X244557Y-7250D01*
X241557Y-8000D02*X244557D01*
Y-7250D02*Y-8000D01*
X247109Y-7250D02*Y-9500D01*
Y-7250D02*X247859Y-6500D01*
X249359D01*
X246359D02*X247109Y-7250D01*
X251160Y-3500D02*Y-8750D01*
X251910Y-9500D01*
X253412Y-5000D02*Y-5750D01*
Y-7250D02*Y-9500D01*
X255663Y-7250D02*Y-9500D01*
Y-7250D02*X256413Y-6500D01*
X257163D01*
X257913Y-7250D01*
Y-9500D01*
X254913Y-6500D02*X255663Y-7250D01*
X260465Y-9500D02*X262715D01*
X259715Y-8750D02*X260465Y-9500D01*
X259715Y-7250D02*Y-8750D01*
Y-7250D02*X260465Y-6500D01*
X261965D01*
X262715Y-7250D01*
X259715Y-8000D02*X262715D01*
Y-7250D02*Y-8000D01*
X267216Y-7250D02*Y-8750D01*
Y-7250D02*X267966Y-6500D01*
X269466D01*
X270216Y-7250D01*
Y-8750D01*
X269466Y-9500D02*X270216Y-8750D01*
X267966Y-9500D02*X269466D01*
X267216Y-8750D02*X267966Y-9500D01*
X272768Y-4250D02*Y-9500D01*
Y-4250D02*X273518Y-3500D01*
X274268D01*
X272018Y-6500D02*X273518D01*
X279219Y-3500D02*Y-8750D01*
X279969Y-9500D01*
X278469Y-5750D02*X279969D01*
X281471Y-3500D02*Y-9500D01*
Y-7250D02*X282221Y-6500D01*
X283721D01*
X284471Y-7250D01*
Y-9500D01*
X286272Y-5000D02*Y-5750D01*
Y-7250D02*Y-9500D01*
X288524D02*X290774D01*
X291524Y-8750D01*
X290774Y-8000D02*X291524Y-8750D01*
X288524Y-8000D02*X290774D01*
X287774Y-7250D02*X288524Y-8000D01*
X287774Y-7250D02*X288524Y-6500D01*
X290774D01*
X291524Y-7250D01*
X287774Y-8750D02*X288524Y-9500D01*
X296775D02*X298275D01*
X297525Y-3500D02*Y-9500D01*
X296025Y-5000D02*X297525Y-3500D01*
X300077Y-8750D02*X300827Y-9500D01*
X300077Y-4250D02*Y-8750D01*
Y-4250D02*X300827Y-3500D01*
X302327D01*
X303077Y-4250D01*
Y-8750D01*
X302327Y-9500D02*X303077Y-8750D01*
X300827Y-9500D02*X302327D01*
X300077Y-8000D02*X303077Y-5000D01*
X308328Y-7250D02*Y-9500D01*
Y-7250D02*X309078Y-6500D01*
X309828D01*
X310578Y-7250D01*
Y-9500D01*
Y-7250D02*X311328Y-6500D01*
X312078D01*
X312828Y-7250D01*
Y-9500D01*
X307578Y-6500D02*X308328Y-7250D01*
X314630Y-5000D02*Y-5750D01*
Y-7250D02*Y-9500D01*
X316131Y-3500D02*Y-8750D01*
X316881Y-9500D01*
X321833Y-7250D02*Y-9500D01*
Y-7250D02*X322583Y-6500D01*
X324083D01*
X321083D02*X321833Y-7250D01*
X326634Y-9500D02*X328884D01*
X325884Y-8750D02*X326634Y-9500D01*
X325884Y-7250D02*Y-8750D01*
Y-7250D02*X326634Y-6500D01*
X328134D01*
X328884Y-7250D01*
X325884Y-8000D02*X328884D01*
Y-7250D02*Y-8000D01*
X331436Y-6500D02*X333686D01*
X330686Y-7250D02*X331436Y-6500D01*
X330686Y-7250D02*Y-8750D01*
X331436Y-9500D01*
X333686D01*
X336237Y-3500D02*Y-8750D01*
X336987Y-9500D01*
X335487Y-5750D02*X336987D01*
X340739Y-6500D02*X341489Y-7250D01*
X339239Y-6500D02*X340739D01*
X338489Y-7250D02*X339239Y-6500D01*
X338489Y-7250D02*Y-8750D01*
X339239Y-9500D01*
X341489Y-6500D02*Y-8750D01*
X342239Y-9500D01*
X339239D02*X340739D01*
X341489Y-8750D01*
X344790Y-7250D02*Y-9500D01*
Y-7250D02*X345540Y-6500D01*
X346290D01*
X347040Y-7250D01*
Y-9500D01*
X344040Y-6500D02*X344790Y-7250D01*
X351092Y-6500D02*X351842Y-7250D01*
X349592Y-6500D02*X351092D01*
X348842Y-7250D02*X349592Y-6500D01*
X348842Y-7250D02*Y-8750D01*
X349592Y-9500D01*
X351092D01*
X351842Y-8750D01*
X348842Y-11000D02*X349592Y-11750D01*
X351092D01*
X351842Y-11000D01*
Y-6500D02*Y-11000D01*
X353643Y-3500D02*Y-8750D01*
X354393Y-9500D01*
X356645D02*X358895D01*
X355895Y-8750D02*X356645Y-9500D01*
X355895Y-7250D02*Y-8750D01*
Y-7250D02*X356645Y-6500D01*
X358145D01*
X358895Y-7250D01*
X355895Y-8000D02*X358895D01*
Y-7250D02*Y-8000D01*
X363396Y-6500D02*X366396D01*
X370898Y-8750D02*X371648Y-9500D01*
X370898Y-4250D02*Y-8750D01*
Y-4250D02*X371648Y-3500D01*
X373148D01*
X373898Y-4250D01*
Y-8750D01*
X373148Y-9500D02*X373898Y-8750D01*
X371648Y-9500D02*X373148D01*
X370898Y-8000D02*X373898Y-5000D01*
X375699Y-11000D02*X377199Y-9500D01*
X379001Y-8750D02*X379751Y-9500D01*
X379001Y-4250D02*Y-8750D01*
Y-4250D02*X379751Y-3500D01*
X381251D01*
X382001Y-4250D01*
Y-8750D01*
X381251Y-9500D02*X382001Y-8750D01*
X379751Y-9500D02*X381251D01*
X379001Y-8000D02*X382001Y-5000D01*
X387252Y-3500D02*Y-8750D01*
X388002Y-9500D01*
X386502Y-5750D02*X388002D01*
X389504Y-7250D02*Y-8750D01*
Y-7250D02*X390254Y-6500D01*
X391754D01*
X392504Y-7250D01*
Y-8750D01*
X391754Y-9500D02*X392504Y-8750D01*
X390254Y-9500D02*X391754D01*
X389504Y-8750D02*X390254Y-9500D01*
X399255Y-3500D02*X400005Y-4250D01*
X397755Y-3500D02*X399255D01*
X397005Y-4250D02*X397755Y-3500D01*
X397005Y-4250D02*Y-8750D01*
X397755Y-9500D01*
X399255Y-6500D02*X400005Y-7250D01*
X397005Y-6500D02*X399255D01*
X397755Y-9500D02*X399255D01*
X400005Y-8750D01*
Y-7250D02*Y-8750D01*
X401807D02*X402557Y-9500D01*
X401807Y-4250D02*Y-8750D01*
Y-4250D02*X402557Y-3500D01*
X404057D01*
X404807Y-4250D01*
Y-8750D01*
X404057Y-9500D02*X404807Y-8750D01*
X402557Y-9500D02*X404057D01*
X401807Y-8000D02*X404807Y-5000D01*
X406608Y-8750D02*X407358Y-9500D01*
X406608Y-4250D02*Y-8750D01*
Y-4250D02*X407358Y-3500D01*
X408858D01*
X409608Y-4250D01*
Y-8750D01*
X408858Y-9500D02*X409608Y-8750D01*
X407358Y-9500D02*X408858D01*
X406608Y-8000D02*X409608Y-5000D01*
X411410Y-8750D02*X412160Y-9500D01*
X411410Y-4250D02*Y-8750D01*
Y-4250D02*X412160Y-3500D01*
X413660D01*
X414410Y-4250D01*
Y-8750D01*
X413660Y-9500D02*X414410Y-8750D01*
X412160Y-9500D02*X413660D01*
X411410Y-8000D02*X414410Y-5000D01*
X416211Y-11000D02*X417711Y-9500D01*
X419513Y-3500D02*X422513D01*
X419513D02*Y-6500D01*
X420263Y-5750D01*
X421763D01*
X422513Y-6500D01*
Y-8750D01*
X421763Y-9500D02*X422513Y-8750D01*
X420263Y-9500D02*X421763D01*
X419513Y-8750D02*X420263Y-9500D01*
X424314Y-8750D02*X425064Y-9500D01*
X424314Y-4250D02*Y-8750D01*
Y-4250D02*X425064Y-3500D01*
X426564D01*
X427314Y-4250D01*
Y-8750D01*
X426564Y-9500D02*X427314Y-8750D01*
X425064Y-9500D02*X426564D01*
X424314Y-8000D02*X427314Y-5000D01*
X429116Y-8750D02*X429866Y-9500D01*
X429116Y-4250D02*Y-8750D01*
Y-4250D02*X429866Y-3500D01*
X431366D01*
X432116Y-4250D01*
Y-8750D01*
X431366Y-9500D02*X432116Y-8750D01*
X429866Y-9500D02*X431366D01*
X429116Y-8000D02*X432116Y-5000D01*
X433917Y-8750D02*X434667Y-9500D01*
X433917Y-4250D02*Y-8750D01*
Y-4250D02*X434667Y-3500D01*
X436167D01*
X436917Y-4250D01*
Y-8750D01*
X436167Y-9500D02*X436917Y-8750D01*
X434667Y-9500D02*X436167D01*
X433917Y-8000D02*X436917Y-5000D01*
X442169Y-7250D02*Y-9500D01*
Y-7250D02*X442919Y-6500D01*
X443669D01*
X444419Y-7250D01*
Y-9500D01*
Y-7250D02*X445169Y-6500D01*
X445919D01*
X446669Y-7250D01*
Y-9500D01*
X441419Y-6500D02*X442169Y-7250D01*
X448470Y-5000D02*Y-5750D01*
Y-7250D02*Y-9500D01*
X449972Y-3500D02*Y-8750D01*
X450722Y-9500D01*
X452973D02*X455223D01*
X455973Y-8750D01*
X455223Y-8000D02*X455973Y-8750D01*
X452973Y-8000D02*X455223D01*
X452223Y-7250D02*X452973Y-8000D01*
X452223Y-7250D02*X452973Y-6500D01*
X455223D01*
X455973Y-7250D01*
X452223Y-8750D02*X452973Y-9500D01*
X200750Y528500D02*Y522500D01*
X203000Y528500D02*X203750Y527750D01*
Y523250D01*
X203000Y522500D02*X203750Y523250D01*
X200000Y522500D02*X203000D01*
X200000Y528500D02*X203000D01*
X207801Y525500D02*X208551Y524750D01*
X206301Y525500D02*X207801D01*
X205551Y524750D02*X206301Y525500D01*
X205551Y524750D02*Y523250D01*
X206301Y522500D01*
X208551Y525500D02*Y523250D01*
X209301Y522500D01*
X206301D02*X207801D01*
X208551Y523250D01*
X211853Y528500D02*Y523250D01*
X212603Y522500D01*
X211103Y526250D02*X212603D01*
X214854Y522500D02*X217104D01*
X214104Y523250D02*X214854Y522500D01*
X214104Y524750D02*Y523250D01*
Y524750D02*X214854Y525500D01*
X216354D01*
X217104Y524750D01*
X214104Y524000D02*X217104D01*
Y524750D02*Y524000D01*
X218906Y526250D02*X219656D01*
X218906Y524750D02*X219656D01*
X224157Y528500D02*X227157D01*
X225657D02*Y522500D01*
X228959Y525500D02*Y523250D01*
X229709Y522500D01*
X231209D01*
X231959Y523250D01*
Y525500D02*Y523250D01*
X234510Y522500D02*X236760D01*
X233760Y523250D02*X234510Y522500D01*
X233760Y524750D02*Y523250D01*
Y524750D02*X234510Y525500D01*
X236010D01*
X236760Y524750D01*
X233760Y524000D02*X236760D01*
Y524750D02*Y524000D01*
X241262Y523250D02*X242012Y522500D01*
X241262Y527750D02*Y523250D01*
Y527750D02*X242012Y528500D01*
X243512D01*
X244262Y527750D01*
Y523250D01*
X243512Y522500D02*X244262Y523250D01*
X242012Y522500D02*X243512D01*
X241262Y524000D02*X244262Y527000D01*
X246063Y527750D02*X246813Y528500D01*
X248313D01*
X249063Y527750D01*
Y523250D01*
X248313Y522500D02*X249063Y523250D01*
X246813Y522500D02*X248313D01*
X246063Y523250D02*X246813Y522500D01*
Y525500D02*X249063D01*
X253565Y527750D02*Y522500D01*
Y527750D02*X254315Y528500D01*
X256565D01*
X257315Y527750D01*
Y522500D01*
X253565Y525500D02*X257315D01*
X259866Y524750D02*Y520250D01*
X259116Y525500D02*X259866Y524750D01*
X260616Y525500D01*
X262116D01*
X262866Y524750D01*
Y523250D01*
X262116Y522500D02*X262866Y523250D01*
X260616Y522500D02*X262116D01*
X259866Y523250D02*X260616Y522500D01*
X265418Y524750D02*Y522500D01*
Y524750D02*X266168Y525500D01*
X267668D01*
X264668D02*X265418Y524750D01*
X272169Y527750D02*X272919Y528500D01*
X275169D01*
X275919Y527750D01*
Y526250D01*
X272169Y522500D02*X275919Y526250D01*
X272169Y522500D02*X275919D01*
X277721Y523250D02*X278471Y522500D01*
X277721Y527750D02*Y523250D01*
Y527750D02*X278471Y528500D01*
X279971D01*
X280721Y527750D01*
Y523250D01*
X279971Y522500D02*X280721Y523250D01*
X278471Y522500D02*X279971D01*
X277721Y524000D02*X280721Y527000D01*
X283272Y522500D02*X284772D01*
X284022Y528500D02*Y522500D01*
X282522Y527000D02*X284022Y528500D01*
X286574Y527750D02*X287324Y528500D01*
X289574D01*
X290324Y527750D01*
Y526250D01*
X286574Y522500D02*X290324Y526250D01*
X286574Y522500D02*X290324D01*
X294825Y523250D02*X295575Y522500D01*
X294825Y527750D02*Y523250D01*
Y527750D02*X295575Y528500D01*
X297075D01*
X297825Y527750D01*
Y523250D01*
X297075Y522500D02*X297825Y523250D01*
X295575Y522500D02*X297075D01*
X294825Y524000D02*X297825Y527000D01*
X299627Y525500D02*X302627Y528500D01*
X299627Y525500D02*X303377D01*
X302627Y528500D02*Y522500D01*
X305178Y526250D02*X305928D01*
X305178Y524750D02*X305928D01*
X308480Y522500D02*X309980D01*
X309230Y528500D02*Y522500D01*
X307730Y527000D02*X309230Y528500D01*
X311781Y523250D02*X312531Y522500D01*
X311781Y527750D02*Y523250D01*
Y527750D02*X312531Y528500D01*
X314031D01*
X314781Y527750D01*
Y523250D01*
X314031Y522500D02*X314781Y523250D01*
X312531Y522500D02*X314031D01*
X311781Y524000D02*X314781Y527000D01*
X316583Y526250D02*X317333D01*
X316583Y524750D02*X317333D01*
X319134Y528500D02*X322134D01*
X319134D02*Y525500D01*
X319884Y526250D01*
X321384D01*
X322134Y525500D01*
Y523250D01*
X321384Y522500D02*X322134Y523250D01*
X319884Y522500D02*X321384D01*
X319134Y523250D02*X319884Y522500D01*
X324686D02*X326186D01*
X325436Y528500D02*Y522500D01*
X323936Y527000D02*X325436Y528500D01*
X330687Y527750D02*Y522500D01*
Y527750D02*X331437Y528500D01*
X333687D01*
X334437Y527750D01*
Y522500D01*
X330687Y525500D02*X334437D01*
X336239Y528500D02*Y522500D01*
Y528500D02*X338489Y526250D01*
X340739Y528500D01*
Y522500D01*
X348240Y528500D02*X348990Y527750D01*
X345990Y528500D02*X348240D01*
X345240Y527750D02*X345990Y528500D01*
X345240Y527750D02*Y523250D01*
X345990Y522500D01*
X348240D01*
X348990Y523250D01*
Y524750D02*Y523250D01*
X348240Y525500D02*X348990Y524750D01*
X346740Y525500D02*X348240D01*
X350792Y528500D02*Y522500D01*
Y528500D02*X353042Y526250D01*
X355292Y528500D01*
Y522500D01*
X357093Y528500D02*X360093D01*
X358593D02*Y522500D01*
X364595Y528500D02*Y523250D01*
X365345Y522500D01*
X366845D01*
X367595Y523250D01*
Y528500D02*Y523250D01*
X369396Y528500D02*X372396D01*
X370896D02*Y522500D01*
X374948D02*X377198D01*
X374198Y523250D02*X374948Y522500D01*
X374198Y527750D02*Y523250D01*
Y527750D02*X374948Y528500D01*
X377198D01*
X200000Y542750D02*Y537500D01*
Y542750D02*X200750Y543500D01*
X203000D01*
X203750Y542750D01*
Y537500D01*
X200000Y540500D02*X203750D01*
X205551D02*Y538250D01*
X206301Y537500D01*
X207801D01*
X208551Y538250D01*
Y540500D02*Y538250D01*
X211103Y543500D02*Y538250D01*
X211853Y537500D01*
X210353Y541250D02*X211853D01*
X213354Y543500D02*Y537500D01*
Y539750D02*X214104Y540500D01*
X215604D01*
X216354Y539750D01*
Y537500D01*
X218156Y539750D02*Y538250D01*
Y539750D02*X218906Y540500D01*
X220406D01*
X221156Y539750D01*
Y538250D01*
X220406Y537500D02*X221156Y538250D01*
X218906Y537500D02*X220406D01*
X218156Y538250D02*X218906Y537500D01*
X223707Y539750D02*Y537500D01*
Y539750D02*X224457Y540500D01*
X225957D01*
X222957D02*X223707Y539750D01*
X227759Y541250D02*X228509D01*
X227759Y539750D02*X228509D01*
X233010Y540500D02*X235260D01*
X233010Y537500D02*X236010D01*
X233010Y543500D02*Y537500D01*
Y543500D02*X236010D01*
X240812D02*Y537500D01*
X240062D02*X240812Y538250D01*
X238562Y537500D02*X240062D01*
X237812Y538250D02*X238562Y537500D01*
X237812Y539750D02*Y538250D01*
Y539750D02*X238562Y540500D01*
X240062D01*
X240812Y539750D01*
X242613Y540500D02*Y538250D01*
X243363Y537500D01*
X244113D01*
X244863Y538250D01*
Y540500D02*Y538250D01*
X245613Y537500D01*
X246363D01*
X247113Y538250D01*
Y540500D02*Y538250D01*
X251165Y540500D02*X251915Y539750D01*
X249665Y540500D02*X251165D01*
X248915Y539750D02*X249665Y540500D01*
X248915Y539750D02*Y538250D01*
X249665Y537500D01*
X251915Y540500D02*Y538250D01*
X252665Y537500D01*
X249665D02*X251165D01*
X251915Y538250D01*
X255216Y539750D02*Y537500D01*
Y539750D02*X255966Y540500D01*
X257466D01*
X254466D02*X255216Y539750D01*
X262268Y543500D02*Y537500D01*
X261518D02*X262268Y538250D01*
X260018Y537500D02*X261518D01*
X259268Y538250D02*X260018Y537500D01*
X259268Y539750D02*Y538250D01*
Y539750D02*X260018Y540500D01*
X261518D01*
X262268Y539750D01*
X266769Y543500D02*Y539000D01*
X268269Y537500D01*
X269769Y539000D01*
Y543500D02*Y539000D01*
X272321Y537500D02*X274571D01*
X271571Y538250D02*X272321Y537500D01*
X271571Y539750D02*Y538250D01*
Y539750D02*X272321Y540500D01*
X273821D01*
X274571Y539750D01*
X271571Y539000D02*X274571D01*
Y539750D02*Y539000D01*
X277122Y539750D02*Y537500D01*
Y539750D02*X277872Y540500D01*
X278622D01*
X279372Y539750D01*
Y537500D01*
X276372Y540500D02*X277122Y539750D01*
X283424Y540500D02*X284174Y539750D01*
X281924Y540500D02*X283424D01*
X281174Y539750D02*X281924Y540500D01*
X281174Y539750D02*Y538250D01*
X281924Y537500D01*
X284174Y540500D02*Y538250D01*
X284924Y537500D01*
X281924D02*X283424D01*
X284174Y538250D01*
X287475Y543500D02*Y538250D01*
X288225Y537500D01*
X286725Y541250D02*X288225D01*
X289727Y539750D02*Y538250D01*
Y539750D02*X290477Y540500D01*
X291977D01*
X292727Y539750D01*
Y538250D01*
X291977Y537500D02*X292727Y538250D01*
X290477Y537500D02*X291977D01*
X289727Y538250D02*X290477Y537500D01*
X295278Y539750D02*Y537500D01*
Y539750D02*X296028Y540500D01*
X297528D01*
X294528D02*X295278Y539750D01*
X200000Y558500D02*X203000D01*
X201500D02*Y552500D01*
X204801Y557000D02*Y556250D01*
Y554750D02*Y552500D01*
X207053Y558500D02*Y553250D01*
X207803Y552500D01*
X206303Y556250D02*X207803D01*
X209304Y558500D02*Y553250D01*
X210054Y552500D01*
X212306D02*X214556D01*
X211556Y553250D02*X212306Y552500D01*
X211556Y554750D02*Y553250D01*
Y554750D02*X212306Y555500D01*
X213806D01*
X214556Y554750D01*
X211556Y554000D02*X214556D01*
Y554750D02*Y554000D01*
X216357Y556250D02*X217107D01*
X216357Y554750D02*X217107D01*
X221609Y553250D02*X222359Y552500D01*
X221609Y557750D02*X222359Y558500D01*
X221609Y557750D02*Y553250D01*
X224160Y555500D02*Y553250D01*
X224910Y552500D01*
X226410D01*
X227160Y553250D01*
Y555500D02*Y553250D01*
X229712Y554750D02*Y552500D01*
Y554750D02*X230462Y555500D01*
X231212D01*
X231962Y554750D01*
Y552500D01*
X228962Y555500D02*X229712Y554750D01*
X233763Y558500D02*Y552500D01*
Y554750D02*X236013Y552500D01*
X233763Y554750D02*X235263Y556250D01*
X238565Y554750D02*Y552500D01*
Y554750D02*X239315Y555500D01*
X240065D01*
X240815Y554750D01*
Y552500D01*
X237815Y555500D02*X238565Y554750D01*
X242616D02*Y553250D01*
Y554750D02*X243366Y555500D01*
X244866D01*
X245616Y554750D01*
Y553250D01*
X244866Y552500D02*X245616Y553250D01*
X243366Y552500D02*X244866D01*
X242616Y553250D02*X243366Y552500D01*
X247418Y555500D02*Y553250D01*
X248168Y552500D01*
X248918D01*
X249668Y553250D01*
Y555500D02*Y553250D01*
X250418Y552500D01*
X251168D01*
X251918Y553250D01*
Y555500D02*Y553250D01*
X254469Y554750D02*Y552500D01*
Y554750D02*X255219Y555500D01*
X255969D01*
X256719Y554750D01*
Y552500D01*
X253719Y555500D02*X254469Y554750D01*
X258521Y558500D02*X259271Y557750D01*
Y553250D01*
X258521Y552500D02*X259271Y553250D01*
X263772Y555500D02*X266772D01*
X271274Y558500D02*Y552500D01*
Y558500D02*X274274D01*
X271274Y555500D02*X273524D01*
X278325D02*X279075Y554750D01*
X276825Y555500D02*X278325D01*
X276075Y554750D02*X276825Y555500D01*
X276075Y554750D02*Y553250D01*
X276825Y552500D01*
X279075Y555500D02*Y553250D01*
X279825Y552500D01*
X276825D02*X278325D01*
X279075Y553250D01*
X281627Y558500D02*Y552500D01*
Y553250D02*X282377Y552500D01*
X283877D01*
X284627Y553250D01*
Y554750D02*Y553250D01*
X283877Y555500D02*X284627Y554750D01*
X282377Y555500D02*X283877D01*
X281627Y554750D02*X282377Y555500D01*
X287178Y554750D02*Y552500D01*
Y554750D02*X287928Y555500D01*
X289428D01*
X286428D02*X287178Y554750D01*
X291230Y557000D02*Y556250D01*
Y554750D02*Y552500D01*
X293481Y555500D02*X295731D01*
X292731Y554750D02*X293481Y555500D01*
X292731Y554750D02*Y553250D01*
X293481Y552500D01*
X295731D01*
X299783Y555500D02*X300533Y554750D01*
X298283Y555500D02*X299783D01*
X297533Y554750D02*X298283Y555500D01*
X297533Y554750D02*Y553250D01*
X298283Y552500D01*
X300533Y555500D02*Y553250D01*
X301283Y552500D01*
X298283D02*X299783D01*
X300533Y553250D01*
X303834Y558500D02*Y553250D01*
X304584Y552500D01*
X303084Y556250D02*X304584D01*
X306086Y557000D02*Y556250D01*
Y554750D02*Y552500D01*
X307587Y554750D02*Y553250D01*
Y554750D02*X308337Y555500D01*
X309837D01*
X310587Y554750D01*
Y553250D01*
X309837Y552500D02*X310587Y553250D01*
X308337Y552500D02*X309837D01*
X307587Y553250D02*X308337Y552500D01*
X313139Y554750D02*Y552500D01*
Y554750D02*X313889Y555500D01*
X314639D01*
X315389Y554750D01*
Y552500D01*
X312389Y555500D02*X313139Y554750D01*
X320640Y558500D02*Y552500D01*
X322890Y558500D02*X323640Y557750D01*
Y553250D01*
X322890Y552500D02*X323640Y553250D01*
X319890Y552500D02*X322890D01*
X319890Y558500D02*X322890D01*
X326192Y554750D02*Y552500D01*
Y554750D02*X326942Y555500D01*
X328442D01*
X325442D02*X326192Y554750D01*
X332493Y555500D02*X333243Y554750D01*
X330993Y555500D02*X332493D01*
X330243Y554750D02*X330993Y555500D01*
X330243Y554750D02*Y553250D01*
X330993Y552500D01*
X333243Y555500D02*Y553250D01*
X333993Y552500D01*
X330993D02*X332493D01*
X333243Y553250D01*
X335795Y555500D02*Y553250D01*
X336545Y552500D01*
X337295D01*
X338045Y553250D01*
Y555500D02*Y553250D01*
X338795Y552500D01*
X339545D01*
X340295Y553250D01*
Y555500D02*Y553250D01*
X342096Y557000D02*Y556250D01*
Y554750D02*Y552500D01*
X344348Y554750D02*Y552500D01*
Y554750D02*X345098Y555500D01*
X345848D01*
X346598Y554750D01*
Y552500D01*
X343598Y555500D02*X344348Y554750D01*
X350649Y555500D02*X351399Y554750D01*
X349149Y555500D02*X350649D01*
X348399Y554750D02*X349149Y555500D01*
X348399Y554750D02*Y553250D01*
X349149Y552500D01*
X350649D01*
X351399Y553250D01*
X348399Y551000D02*X349149Y550250D01*
X350649D01*
X351399Y551000D01*
Y555500D02*Y551000D01*
M02*
