G04 start of page 3 for group 1 idx 1 *
G04 Title: (unknown), solder *
G04 Creator: pcb 20110918 *
G04 CreationDate: Tue 12 Jun 2012 04:03:48 PM GMT UTC *
G04 For: ed *
G04 Format: Gerber/RS-274X *
G04 PCB-Dimensions: 260000 400000 *
G04 PCB-Coordinate-Origin: lower left *
%MOIN*%
%FSLAX25Y25*%
%LNBOTTOM*%
%ADD53C,0.1300*%
%ADD52C,0.0420*%
%ADD51C,0.0380*%
%ADD50C,0.0280*%
%ADD49C,0.0150*%
%ADD48C,0.0300*%
%ADD47C,0.0200*%
%ADD46C,0.2600*%
%ADD45C,0.1000*%
%ADD44C,0.2640*%
%ADD43C,0.2000*%
%ADD42R,0.0295X0.0295*%
%ADD41C,0.0680*%
%ADD40C,0.1500*%
%ADD39C,0.0720*%
%ADD38C,0.0550*%
%ADD37C,0.0900*%
%ADD36C,0.0800*%
%ADD35C,0.0600*%
%ADD34C,0.0001*%
%ADD33C,0.0100*%
%ADD32C,0.0250*%
G54D32*X176600Y304700D02*X132500Y260600D01*
X125250Y322750D02*Y265550D01*
X120000Y322500D02*Y240000D01*
X116500Y246500D02*Y324000D01*
X176600Y352100D02*X176200Y352500D01*
X155000D01*
X125250Y322750D01*
X176600Y360000D02*X157500D01*
X160400Y367900D02*X176600D01*
X157500Y360000D02*X120000Y322500D01*
X116500Y324000D02*X160400Y367900D01*
X147500Y197500D02*X145000Y200000D01*
X140000D01*
Y190000D02*X110000D01*
X140000Y200000D02*X132500Y207500D01*
X110000Y220000D02*Y210000D01*
X132500Y207500D02*Y260000D01*
X110000Y200000D02*X125250Y215250D01*
X120000Y240000D02*X110000Y230000D01*
X125250Y215250D02*Y267750D01*
X116500Y246500D02*X54000Y184000D01*
X99685Y10000D02*X100000Y10315D01*
X120315Y10000D02*X122000Y11685D01*
X140000Y10000D02*X153000Y23000D01*
X186000D01*
X194000Y92000D02*Y63000D01*
X180000Y142000D02*X201000D01*
X241000Y102000D01*
X177000Y70000D02*X194000Y87000D01*
Y92000D01*
X147000Y105000D02*X165000D01*
X175000Y99000D02*X200000D01*
X204000Y95000D01*
Y92000D01*
X132000Y81000D02*X145000Y94000D01*
X220000Y10000D02*X244000Y34000D01*
X186000Y23000D02*X199000Y10000D01*
X200315D01*
X140000D02*X123000Y27000D01*
G54D33*X109000Y36000D02*Y38000D01*
G54D32*X100000Y80000D02*Y108000D01*
X120000Y129000D01*
X147500Y128500D02*Y197500D01*
Y128500D02*X147000Y129000D01*
X120000D01*
X130000Y167492D02*X130492Y167000D01*
X147500D01*
X124882Y167492D02*X124374Y168000D01*
X240000Y103000D02*X244000Y99000D01*
X194000Y63000D02*X230000Y99000D01*
Y103000D01*
X244000Y99000D02*Y34000D01*
Y82000D02*Y73000D01*
Y62000D01*
X54000Y184000D02*Y23685D01*
X58000Y32000D02*Y105000D01*
X54000Y23685D02*X40315Y10000D01*
X90000Y80000D02*X100000Y70000D01*
X123000Y27000D02*X63000D01*
X65000Y135000D02*Y113000D01*
X63000Y27000D02*X58000Y32000D01*
X65000Y112500D02*X58000Y105500D01*
Y104000D01*
G54D33*X71000Y38000D02*X69000D01*
G54D32*X80000Y50000D02*X92000Y38000D01*
X109000D01*
X165000Y105000D02*X169000Y101000D01*
Y85000D01*
Y93000D02*X175000Y99000D01*
X145000Y94000D02*X169000D01*
X100000Y70000D02*X177000D01*
X124374Y168000D02*X98000D01*
X110000Y180000D02*X65000Y135000D01*
G54D34*G36*
X190000Y67000D02*Y59000D01*
X198000D01*
Y67000D01*
X190000D01*
G37*
G36*
X191000Y95000D02*Y89000D01*
X197000D01*
Y95000D01*
X191000D01*
G37*
G54D35*X204000Y92000D03*
G54D36*X220000Y10000D03*
X244000Y63000D03*
G54D34*G36*
X241000Y85000D02*Y79000D01*
X247000D01*
Y85000D01*
X241000D01*
G37*
G54D35*X234000Y82000D03*
G54D34*G36*
X215500Y107500D02*Y98500D01*
X224500D01*
Y107500D01*
X215500D01*
G37*
G54D37*X230000Y103000D03*
X240000D03*
G54D34*G36*
X176000Y88000D02*Y82000D01*
X182000D01*
Y88000D01*
X176000D01*
G37*
G54D35*X179000Y55000D03*
G54D36*X200315Y10000D03*
X160315D03*
X180000D03*
X99685D03*
X120315D03*
X140000D03*
G54D35*X169000Y85000D03*
X159000D03*
Y55000D03*
X169000D03*
G54D34*G36*
X144250Y107750D02*Y102250D01*
X149750D01*
Y107750D01*
X144250D01*
G37*
G54D38*X147000Y55000D03*
G54D34*G36*
X105600Y41400D02*Y34600D01*
X112400D01*
Y41400D01*
X105600D01*
G37*
G36*
X107500Y85500D02*Y76500D01*
X116500D01*
Y85500D01*
X107500D01*
G37*
G54D37*X122000Y81000D03*
X132000D03*
G54D34*G36*
X176400Y125600D02*Y118400D01*
X183600D01*
Y125600D01*
X176400D01*
G37*
G54D39*X180000Y132000D03*
Y142000D03*
G54D40*X230000Y170000D03*
G54D34*G36*
X107000Y243000D02*Y237000D01*
X113000D01*
Y243000D01*
X107000D01*
G37*
G54D35*X110000Y230000D03*
Y220000D03*
Y210000D03*
Y200000D03*
X140000D03*
Y210000D03*
Y220000D03*
Y230000D03*
Y240000D03*
X110000Y190000D03*
X140000D03*
X110000Y180000D03*
X140000D03*
G54D40*X122000Y148000D03*
G54D34*G36*
X87000Y378800D02*Y372800D01*
X93000D01*
Y378800D01*
X87000D01*
G37*
G54D35*X90000Y367900D03*
Y360000D03*
Y352100D03*
Y344200D03*
Y336300D03*
Y328400D03*
Y320500D03*
Y312600D03*
Y304700D03*
X176600Y375800D03*
Y367900D03*
Y360000D03*
Y352100D03*
Y344200D03*
Y336300D03*
Y328400D03*
Y320500D03*
Y312600D03*
Y304700D03*
G54D36*X80000Y10000D03*
G54D34*G36*
X12000Y23000D02*Y17000D01*
X18000D01*
Y23000D01*
X12000D01*
G37*
G54D35*X15000Y10000D03*
G54D36*X40315D03*
X60000D03*
G54D34*G36*
X77000Y53000D02*Y47000D01*
X83000D01*
Y53000D01*
X77000D01*
G37*
G54D35*X80000Y80000D03*
G54D34*G36*
X62250Y65250D02*Y59750D01*
X67750D01*
Y65250D01*
X62250D01*
G37*
G54D38*X65000Y112500D03*
G54D35*X90000Y50000D03*
Y80000D03*
X100000Y50000D03*
Y80000D03*
G54D41*X69000Y38000D03*
G54D42*X124882Y167984D02*Y167000D01*
X130000Y167984D02*Y167000D01*
G54D43*X221000Y200000D03*
X39000D03*
Y318000D03*
X221000D03*
G54D44*X20000Y224000D03*
G54D43*X39000Y42000D03*
X221000D03*
G54D44*X240000Y224000D03*
G54D45*G54D46*G54D45*G54D46*G54D47*G54D48*G54D49*G54D47*G54D48*G54D35*G54D50*G54D49*G54D50*G54D48*G54D51*G54D35*G54D52*G54D53*G54D50*G54D53*G54D51*G54D49*G54D51*G54D49*G54D50*G54D48*G54D50*G54D51*M02*
