G04 start of page 10 for group -3984 idx -3984 *
G04 Title: (unknown), fab *
G04 Creator: pcb 20110918 *
G04 CreationDate: Fri 08 Jun 2012 08:05:57 PM GMT UTC *
G04 For: ed *
G04 Format: Gerber/RS-274X *
G04 PCB-Dimensions: 260000 400000 *
G04 PCB-Coordinate-Origin: lower left *
%MOIN*%
%FSLAX25Y25*%
%LNFAB*%
%ADD90C,0.0100*%
%ADD89C,0.0075*%
%ADD88C,0.0060*%
%ADD87R,0.0080X0.0080*%
G54D87*X18400Y225600D02*X21600D01*
X18400D02*Y222400D01*
X21600D01*
Y225600D02*Y222400D01*
X16800Y227200D02*X23200D01*
X16800D02*Y220800D01*
X23200D01*
Y227200D02*Y220800D01*
X238400Y225600D02*X241600D01*
X238400D02*Y222400D01*
X241600D01*
Y225600D02*Y222400D01*
X236800Y227200D02*X243200D01*
X236800D02*Y220800D01*
X243200D01*
Y227200D02*Y220800D01*
X13400Y412850D02*X16600D01*
X13400D02*Y409650D01*
X16600D01*
Y412850D02*Y409650D01*
X11800Y414450D02*X18200D01*
X11800D02*Y408050D01*
X18200D01*
Y414450D02*Y408050D01*
G54D88*X135000Y413500D02*X136500Y410500D01*
X138000Y413500D01*
X136500Y410500D02*Y407500D01*
X139800Y410800D02*X142050D01*
X139800Y407500D02*X142800D01*
X139800Y413500D02*Y407500D01*
Y413500D02*X142800D01*
X147600D02*X148350Y412750D01*
X145350Y413500D02*X147600D01*
X144600Y412750D02*X145350Y413500D01*
X144600Y412750D02*Y411250D01*
X145350Y410500D01*
X147600D01*
X148350Y409750D01*
Y408250D01*
X147600Y407500D02*X148350Y408250D01*
X145350Y407500D02*X147600D01*
X144600Y408250D02*X145350Y407500D01*
X98000Y412750D02*X98750Y413500D01*
X101000D01*
X101750Y412750D01*
Y411250D01*
X98000Y407500D02*X101750Y411250D01*
X98000Y407500D02*X101750D01*
X45000Y408250D02*X45750Y407500D01*
X45000Y412750D02*Y408250D01*
Y412750D02*X45750Y413500D01*
X47250D01*
X48000Y412750D01*
Y408250D01*
X47250Y407500D02*X48000Y408250D01*
X45750Y407500D02*X47250D01*
X45000Y409000D02*X48000Y412000D01*
X49800Y407500D02*X50550D01*
X52350Y412750D02*X53100Y413500D01*
X55350D01*
X56100Y412750D01*
Y411250D01*
X52350Y407500D02*X56100Y411250D01*
X52350Y407500D02*X56100D01*
X60150Y413500D02*X60900Y412750D01*
X58650Y413500D02*X60150D01*
X57900Y412750D02*X58650Y413500D01*
X57900Y412750D02*Y408250D01*
X58650Y407500D01*
X60150Y410800D02*X60900Y410050D01*
X57900Y410800D02*X60150D01*
X58650Y407500D02*X60150D01*
X60900Y408250D01*
Y410050D02*Y408250D01*
X62700D02*X63450Y407500D01*
X62700Y412750D02*Y408250D01*
Y412750D02*X63450Y413500D01*
X64950D01*
X65700Y412750D01*
Y408250D01*
X64950Y407500D02*X65700Y408250D01*
X63450Y407500D02*X64950D01*
X62700Y409000D02*X65700Y412000D01*
X229200Y170000D02*G75*G03X230800Y170000I800J0D01*G01*
G75*G03X229200Y170000I-800J0D01*G01*
X227600D02*G75*G03X232400Y170000I2400J0D01*G01*
G75*G03X227600Y170000I-2400J0D01*G01*
X121200Y148000D02*G75*G03X122800Y148000I800J0D01*G01*
G75*G03X121200Y148000I-800J0D01*G01*
X119600D02*G75*G03X124400Y148000I2400J0D01*G01*
G75*G03X119600Y148000I-2400J0D01*G01*
X14200Y426250D02*G75*G03X15800Y426250I800J0D01*G01*
G75*G03X14200Y426250I-800J0D01*G01*
X12600D02*G75*G03X17400Y426250I2400J0D01*G01*
G75*G03X12600Y426250I-2400J0D01*G01*
X135000Y428500D02*X136500Y425500D01*
X138000Y428500D01*
X136500Y425500D02*Y422500D01*
X139800Y425800D02*X142050D01*
X139800Y422500D02*X142800D01*
X139800Y428500D02*Y422500D01*
Y428500D02*X142800D01*
X147600D02*X148350Y427750D01*
X145350Y428500D02*X147600D01*
X144600Y427750D02*X145350Y428500D01*
X144600Y427750D02*Y426250D01*
X145350Y425500D01*
X147600D01*
X148350Y424750D01*
Y423250D01*
X147600Y422500D02*X148350Y423250D01*
X145350Y422500D02*X147600D01*
X144600Y423250D02*X145350Y422500D01*
X98000Y427750D02*X98750Y428500D01*
X101000D01*
X101750Y427750D01*
Y426250D01*
X98000Y422500D02*X101750Y426250D01*
X98000Y422500D02*X101750D01*
X45000Y423250D02*X45750Y422500D01*
X45000Y427750D02*Y423250D01*
Y427750D02*X45750Y428500D01*
X47250D01*
X48000Y427750D01*
Y423250D01*
X47250Y422500D02*X48000Y423250D01*
X45750Y422500D02*X47250D01*
X45000Y424000D02*X48000Y427000D01*
X49800Y422500D02*X50550D01*
X52350Y427300D02*X53550Y428500D01*
Y422500D01*
X52350D02*X54600D01*
X56400Y427750D02*X57150Y428500D01*
X58650D01*
X59400Y427750D01*
X58650Y422500D02*X59400Y423250D01*
X57150Y422500D02*X58650D01*
X56400Y423250D02*X57150Y422500D01*
Y425800D02*X58650D01*
X59400Y427750D02*Y426550D01*
Y425050D02*Y423250D01*
Y425050D02*X58650Y425800D01*
X59400Y426550D02*X58650Y425800D01*
X61200Y423250D02*X61950Y422500D01*
X61200Y427750D02*Y423250D01*
Y427750D02*X61950Y428500D01*
X63450D01*
X64200Y427750D01*
Y423250D01*
X63450Y422500D02*X64200Y423250D01*
X61950Y422500D02*X63450D01*
X61200Y424000D02*X64200Y427000D01*
X36600Y44400D02*X41400Y39600D01*
X36600D02*X41400Y44400D01*
X37400Y43600D02*X40600D01*
X37400D02*Y40400D01*
X40600D01*
Y43600D02*Y40400D01*
X218600Y44400D02*X223400Y39600D01*
X218600D02*X223400Y44400D01*
X219400Y43600D02*X222600D01*
X219400D02*Y40400D01*
X222600D01*
Y43600D02*Y40400D01*
X218600Y202400D02*X223400Y197600D01*
X218600D02*X223400Y202400D01*
X219400Y201600D02*X222600D01*
X219400D02*Y198400D01*
X222600D01*
Y201600D02*Y198400D01*
X36600Y202400D02*X41400Y197600D01*
X36600D02*X41400Y202400D01*
X37400Y201600D02*X40600D01*
X37400D02*Y198400D01*
X40600D01*
Y201600D02*Y198400D01*
X36600Y320400D02*X41400Y315600D01*
X36600D02*X41400Y320400D01*
X37400Y319600D02*X40600D01*
X37400D02*Y316400D01*
X40600D01*
Y319600D02*Y316400D01*
X218600Y320400D02*X223400Y315600D01*
X218600D02*X223400Y320400D01*
X219400Y319600D02*X222600D01*
X219400D02*Y316400D01*
X222600D01*
Y319600D02*Y316400D01*
X12600Y443650D02*X17400Y438850D01*
X12600D02*X17400Y443650D01*
X13400Y442850D02*X16600D01*
X13400D02*Y439650D01*
X16600D01*
Y442850D02*Y439650D01*
X135000Y443500D02*X136500Y440500D01*
X138000Y443500D01*
X136500Y440500D02*Y437500D01*
X139800Y440800D02*X142050D01*
X139800Y437500D02*X142800D01*
X139800Y443500D02*Y437500D01*
Y443500D02*X142800D01*
X147600D02*X148350Y442750D01*
X145350Y443500D02*X147600D01*
X144600Y442750D02*X145350Y443500D01*
X144600Y442750D02*Y441250D01*
X145350Y440500D01*
X147600D01*
X148350Y439750D01*
Y438250D01*
X147600Y437500D02*X148350Y438250D01*
X145350Y437500D02*X147600D01*
X144600Y438250D02*X145350Y437500D01*
X100250Y443500D02*X101000Y442750D01*
X98750Y443500D02*X100250D01*
X98000Y442750D02*X98750Y443500D01*
X98000Y442750D02*Y438250D01*
X98750Y437500D01*
X100250Y440800D02*X101000Y440050D01*
X98000Y440800D02*X100250D01*
X98750Y437500D02*X100250D01*
X101000Y438250D01*
Y440050D02*Y438250D01*
X45000D02*X45750Y437500D01*
X45000Y442750D02*Y438250D01*
Y442750D02*X45750Y443500D01*
X47250D01*
X48000Y442750D01*
Y438250D01*
X47250Y437500D02*X48000Y438250D01*
X45750Y437500D02*X47250D01*
X45000Y439000D02*X48000Y442000D01*
X49800Y437500D02*X50550D01*
X52350Y442300D02*X53550Y443500D01*
Y437500D01*
X52350D02*X54600D01*
X56400Y438250D02*X57150Y437500D01*
X56400Y442750D02*Y438250D01*
Y442750D02*X57150Y443500D01*
X58650D01*
X59400Y442750D01*
Y438250D01*
X58650Y437500D02*X59400Y438250D01*
X57150Y437500D02*X58650D01*
X56400Y439000D02*X59400Y442000D01*
X61200Y438250D02*X61950Y437500D01*
X61200Y442750D02*Y438250D01*
Y442750D02*X61950Y443500D01*
X63450D01*
X64200Y442750D01*
Y438250D01*
X63450Y437500D02*X64200Y438250D01*
X61950Y437500D02*X63450D01*
X61200Y439000D02*X64200Y442000D01*
X220000Y106200D02*Y99800D01*
X216800Y103000D02*X223200D01*
X218400Y104600D02*X221600D01*
X218400D02*Y101400D01*
X221600D01*
Y104600D02*Y101400D01*
X230000Y106200D02*Y99800D01*
X226800Y103000D02*X233200D01*
X228400Y104600D02*X231600D01*
X228400D02*Y101400D01*
X231600D01*
Y104600D02*Y101400D01*
X240000Y106200D02*Y99800D01*
X236800Y103000D02*X243200D01*
X238400Y104600D02*X241600D01*
X238400D02*Y101400D01*
X241600D01*
Y104600D02*Y101400D01*
X112000Y84200D02*Y77800D01*
X108800Y81000D02*X115200D01*
X110400Y82600D02*X113600D01*
X110400D02*Y79400D01*
X113600D01*
Y82600D02*Y79400D01*
X122000Y84200D02*Y77800D01*
X118800Y81000D02*X125200D01*
X120400Y82600D02*X123600D01*
X120400D02*Y79400D01*
X123600D01*
Y82600D02*Y79400D01*
X132000Y84200D02*Y77800D01*
X128800Y81000D02*X135200D01*
X130400Y82600D02*X133600D01*
X130400D02*Y79400D01*
X133600D01*
Y82600D02*Y79400D01*
X15000Y459450D02*Y453050D01*
X11800Y456250D02*X18200D01*
X13400Y457850D02*X16600D01*
X13400D02*Y454650D01*
X16600D01*
Y457850D02*Y454650D01*
X135000Y458500D02*X136500Y455500D01*
X138000Y458500D01*
X136500Y455500D02*Y452500D01*
X139800Y455800D02*X142050D01*
X139800Y452500D02*X142800D01*
X139800Y458500D02*Y452500D01*
Y458500D02*X142800D01*
X147600D02*X148350Y457750D01*
X145350Y458500D02*X147600D01*
X144600Y457750D02*X145350Y458500D01*
X144600Y457750D02*Y456250D01*
X145350Y455500D01*
X147600D01*
X148350Y454750D01*
Y453250D01*
X147600Y452500D02*X148350Y453250D01*
X145350Y452500D02*X147600D01*
X144600Y453250D02*X145350Y452500D01*
X100250Y458500D02*X101000Y457750D01*
X98750Y458500D02*X100250D01*
X98000Y457750D02*X98750Y458500D01*
X98000Y457750D02*Y453250D01*
X98750Y452500D01*
X100250Y455800D02*X101000Y455050D01*
X98000Y455800D02*X100250D01*
X98750Y452500D02*X100250D01*
X101000Y453250D01*
Y455050D02*Y453250D01*
X45000D02*X45750Y452500D01*
X45000Y457750D02*Y453250D01*
Y457750D02*X45750Y458500D01*
X47250D01*
X48000Y457750D01*
Y453250D01*
X47250Y452500D02*X48000Y453250D01*
X45750Y452500D02*X47250D01*
X45000Y454000D02*X48000Y457000D01*
X49800Y452500D02*X50550D01*
X52350Y453250D02*X53100Y452500D01*
X52350Y457750D02*Y453250D01*
Y457750D02*X53100Y458500D01*
X54600D01*
X55350Y457750D01*
Y453250D01*
X54600Y452500D02*X55350Y453250D01*
X53100Y452500D02*X54600D01*
X52350Y454000D02*X55350Y457000D01*
X59400Y458500D02*X60150Y457750D01*
X57900Y458500D02*X59400D01*
X57150Y457750D02*X57900Y458500D01*
X57150Y457750D02*Y453250D01*
X57900Y452500D01*
X59400Y455800D02*X60150Y455050D01*
X57150Y455800D02*X59400D01*
X57900Y452500D02*X59400D01*
X60150Y453250D01*
Y455050D02*Y453250D01*
X61950D02*X62700Y452500D01*
X61950Y457750D02*Y453250D01*
Y457750D02*X62700Y458500D01*
X64200D01*
X64950Y457750D01*
Y453250D01*
X64200Y452500D02*X64950Y453250D01*
X62700Y452500D02*X64200D01*
X61950Y454000D02*X64950Y457000D01*
X180000Y122000D02*Y118800D01*
Y122000D02*X182773Y123600D01*
X180000Y122000D02*X177227Y123600D01*
X178400Y122000D02*G75*G03X181600Y122000I1600J0D01*G01*
G75*G03X178400Y122000I-1600J0D01*G01*
X180000Y132000D02*Y128800D01*
Y132000D02*X182773Y133600D01*
X180000Y132000D02*X177227Y133600D01*
X178400Y132000D02*G75*G03X181600Y132000I1600J0D01*G01*
G75*G03X178400Y132000I-1600J0D01*G01*
X180000Y142000D02*Y138800D01*
Y142000D02*X182773Y143600D01*
X180000Y142000D02*X177227Y143600D01*
X178400Y142000D02*G75*G03X181600Y142000I1600J0D01*G01*
G75*G03X178400Y142000I-1600J0D01*G01*
X15000Y471250D02*Y468050D01*
Y471250D02*X17773Y472850D01*
X15000Y471250D02*X12227Y472850D01*
X13400Y471250D02*G75*G03X16600Y471250I1600J0D01*G01*
G75*G03X13400Y471250I-1600J0D01*G01*
X135000Y473500D02*X136500Y470500D01*
X138000Y473500D01*
X136500Y470500D02*Y467500D01*
X139800Y470800D02*X142050D01*
X139800Y467500D02*X142800D01*
X139800Y473500D02*Y467500D01*
Y473500D02*X142800D01*
X147600D02*X148350Y472750D01*
X145350Y473500D02*X147600D01*
X144600Y472750D02*X145350Y473500D01*
X144600Y472750D02*Y471250D01*
X145350Y470500D01*
X147600D01*
X148350Y469750D01*
Y468250D01*
X147600Y467500D02*X148350Y468250D01*
X145350Y467500D02*X147600D01*
X144600Y468250D02*X145350Y467500D01*
X98000Y472750D02*X98750Y473500D01*
X100250D01*
X101000Y472750D01*
X100250Y467500D02*X101000Y468250D01*
X98750Y467500D02*X100250D01*
X98000Y468250D02*X98750Y467500D01*
Y470800D02*X100250D01*
X101000Y472750D02*Y471550D01*
Y470050D02*Y468250D01*
Y470050D02*X100250Y470800D01*
X101000Y471550D02*X100250Y470800D01*
X45000Y468250D02*X45750Y467500D01*
X45000Y472750D02*Y468250D01*
Y472750D02*X45750Y473500D01*
X47250D01*
X48000Y472750D01*
Y468250D01*
X47250Y467500D02*X48000Y468250D01*
X45750Y467500D02*X47250D01*
X45000Y469000D02*X48000Y472000D01*
X49800Y467500D02*X50550D01*
X52350Y468250D02*X53100Y467500D01*
X52350Y472750D02*Y468250D01*
Y472750D02*X53100Y473500D01*
X54600D01*
X55350Y472750D01*
Y468250D01*
X54600Y467500D02*X55350Y468250D01*
X53100Y467500D02*X54600D01*
X52350Y469000D02*X55350Y472000D01*
X57150Y469750D02*X60150Y473500D01*
X57150Y469750D02*X60900D01*
X60150Y473500D02*Y467500D01*
X62700Y472750D02*X63450Y473500D01*
X65700D01*
X66450Y472750D01*
Y471250D01*
X62700Y467500D02*X66450Y471250D01*
X62700Y467500D02*X66450D01*
X13400Y21600D02*X16600D01*
X13400D02*Y18400D01*
X16600D01*
Y21600D02*Y18400D01*
X13400Y11600D02*X16600D01*
X13400D02*Y8400D01*
X16600D01*
Y11600D02*Y8400D01*
X88400Y377400D02*X91600D01*
X88400D02*Y374200D01*
X91600D01*
Y377400D02*Y374200D01*
X88400Y369500D02*X91600D01*
X88400D02*Y366300D01*
X91600D01*
Y369500D02*Y366300D01*
X88400Y361600D02*X91600D01*
X88400D02*Y358400D01*
X91600D01*
Y361600D02*Y358400D01*
X88400Y353700D02*X91600D01*
X88400D02*Y350500D01*
X91600D01*
Y353700D02*Y350500D01*
X88400Y345800D02*X91600D01*
X88400D02*Y342600D01*
X91600D01*
Y345800D02*Y342600D01*
X88400Y337900D02*X91600D01*
X88400D02*Y334700D01*
X91600D01*
Y337900D02*Y334700D01*
X88400Y330000D02*X91600D01*
X88400D02*Y326800D01*
X91600D01*
Y330000D02*Y326800D01*
X88400Y322100D02*X91600D01*
X88400D02*Y318900D01*
X91600D01*
Y322100D02*Y318900D01*
X88400Y314200D02*X91600D01*
X88400D02*Y311000D01*
X91600D01*
Y314200D02*Y311000D01*
X88400Y306300D02*X91600D01*
X88400D02*Y303100D01*
X91600D01*
Y306300D02*Y303100D01*
X175000Y377400D02*X178200D01*
X175000D02*Y374200D01*
X178200D01*
Y377400D02*Y374200D01*
X175000Y369500D02*X178200D01*
X175000D02*Y366300D01*
X178200D01*
Y369500D02*Y366300D01*
X175000Y361600D02*X178200D01*
X175000D02*Y358400D01*
X178200D01*
Y361600D02*Y358400D01*
X175000Y353700D02*X178200D01*
X175000D02*Y350500D01*
X178200D01*
Y353700D02*Y350500D01*
X175000Y345800D02*X178200D01*
X175000D02*Y342600D01*
X178200D01*
Y345800D02*Y342600D01*
X175000Y337900D02*X178200D01*
X175000D02*Y334700D01*
X178200D01*
Y337900D02*Y334700D01*
X175000Y330000D02*X178200D01*
X175000D02*Y326800D01*
X178200D01*
Y330000D02*Y326800D01*
X175000Y322100D02*X178200D01*
X175000D02*Y318900D01*
X178200D01*
Y322100D02*Y318900D01*
X175000Y314200D02*X178200D01*
X175000D02*Y311000D01*
X178200D01*
Y314200D02*Y311000D01*
X175000Y306300D02*X178200D01*
X175000D02*Y303100D01*
X178200D01*
Y306300D02*Y303100D01*
X66400Y37600D02*X69600D01*
X66400D02*Y34400D01*
X69600D01*
Y37600D02*Y34400D01*
X106400Y37600D02*X109600D01*
X106400D02*Y34400D01*
X109600D01*
Y37600D02*Y34400D01*
X13400Y487850D02*X16600D01*
X13400D02*Y484650D01*
X16600D01*
Y487850D02*Y484650D01*
X135000Y488500D02*X136500Y485500D01*
X138000Y488500D01*
X136500Y485500D02*Y482500D01*
X139800Y485800D02*X142050D01*
X139800Y482500D02*X142800D01*
X139800Y488500D02*Y482500D01*
Y488500D02*X142800D01*
X147600D02*X148350Y487750D01*
X145350Y488500D02*X147600D01*
X144600Y487750D02*X145350Y488500D01*
X144600Y487750D02*Y486250D01*
X145350Y485500D01*
X147600D01*
X148350Y484750D01*
Y483250D01*
X147600Y482500D02*X148350Y483250D01*
X145350Y482500D02*X147600D01*
X144600Y483250D02*X145350Y482500D01*
X98000Y487750D02*X98750Y488500D01*
X101000D01*
X101750Y487750D01*
Y486250D01*
X98000Y482500D02*X101750Y486250D01*
X98000Y482500D02*X101750D01*
X103550Y484750D02*X106550Y488500D01*
X103550Y484750D02*X107300D01*
X106550Y488500D02*Y482500D01*
X45000Y483250D02*X45750Y482500D01*
X45000Y487750D02*Y483250D01*
Y487750D02*X45750Y488500D01*
X47250D01*
X48000Y487750D01*
Y483250D01*
X47250Y482500D02*X48000Y483250D01*
X45750Y482500D02*X47250D01*
X45000Y484000D02*X48000Y487000D01*
X49800Y482500D02*X50550D01*
X52350Y483250D02*X53100Y482500D01*
X52350Y487750D02*Y483250D01*
Y487750D02*X53100Y488500D01*
X54600D01*
X55350Y487750D01*
Y483250D01*
X54600Y482500D02*X55350Y483250D01*
X53100Y482500D02*X54600D01*
X52350Y484000D02*X55350Y487000D01*
X57150Y487750D02*X57900Y488500D01*
X59400D01*
X60150Y487750D01*
X59400Y482500D02*X60150Y483250D01*
X57900Y482500D02*X59400D01*
X57150Y483250D02*X57900Y482500D01*
Y485800D02*X59400D01*
X60150Y487750D02*Y486550D01*
Y485050D02*Y483250D01*
Y485050D02*X59400Y485800D01*
X60150Y486550D02*X59400Y485800D01*
X61950Y483250D02*X62700Y482500D01*
X61950Y484450D02*Y483250D01*
Y484450D02*X63000Y485500D01*
X63900D01*
X64950Y484450D01*
Y483250D01*
X64200Y482500D02*X64950Y483250D01*
X62700Y482500D02*X64200D01*
X61950Y486550D02*X63000Y485500D01*
X61950Y487750D02*Y486550D01*
Y487750D02*X62700Y488500D01*
X64200D01*
X64950Y487750D01*
Y486550D01*
X63900Y485500D02*X64950Y486550D01*
X193200Y92000D02*G75*G03X194800Y92000I800J0D01*G01*
G75*G03X193200Y92000I-800J0D01*G01*
X203200D02*G75*G03X204800Y92000I800J0D01*G01*
G75*G03X203200Y92000I-800J0D01*G01*
X243200Y82000D02*G75*G03X244800Y82000I800J0D01*G01*
G75*G03X243200Y82000I-800J0D01*G01*
X233200D02*G75*G03X234800Y82000I800J0D01*G01*
G75*G03X233200Y82000I-800J0D01*G01*
X64200Y62500D02*G75*G03X65800Y62500I800J0D01*G01*
G75*G03X64200Y62500I-800J0D01*G01*
Y112500D02*G75*G03X65800Y112500I800J0D01*G01*
G75*G03X64200Y112500I-800J0D01*G01*
X146200Y105000D02*G75*G03X147800Y105000I800J0D01*G01*
G75*G03X146200Y105000I-800J0D01*G01*
Y55000D02*G75*G03X147800Y55000I800J0D01*G01*
G75*G03X146200Y55000I-800J0D01*G01*
X14200Y501250D02*G75*G03X15800Y501250I800J0D01*G01*
G75*G03X14200Y501250I-800J0D01*G01*
X135000Y503500D02*X136500Y500500D01*
X138000Y503500D01*
X136500Y500500D02*Y497500D01*
X139800Y500800D02*X142050D01*
X139800Y497500D02*X142800D01*
X139800Y503500D02*Y497500D01*
Y503500D02*X142800D01*
X147600D02*X148350Y502750D01*
X145350Y503500D02*X147600D01*
X144600Y502750D02*X145350Y503500D01*
X144600Y502750D02*Y501250D01*
X145350Y500500D01*
X147600D01*
X148350Y499750D01*
Y498250D01*
X147600Y497500D02*X148350Y498250D01*
X145350Y497500D02*X147600D01*
X144600Y498250D02*X145350Y497500D01*
X98000Y498250D02*X98750Y497500D01*
X98000Y499450D02*Y498250D01*
Y499450D02*X99050Y500500D01*
X99950D01*
X101000Y499450D01*
Y498250D01*
X100250Y497500D02*X101000Y498250D01*
X98750Y497500D02*X100250D01*
X98000Y501550D02*X99050Y500500D01*
X98000Y502750D02*Y501550D01*
Y502750D02*X98750Y503500D01*
X100250D01*
X101000Y502750D01*
Y501550D01*
X99950Y500500D02*X101000Y501550D01*
X45000Y498250D02*X45750Y497500D01*
X45000Y502750D02*Y498250D01*
Y502750D02*X45750Y503500D01*
X47250D01*
X48000Y502750D01*
Y498250D01*
X47250Y497500D02*X48000Y498250D01*
X45750Y497500D02*X47250D01*
X45000Y499000D02*X48000Y502000D01*
X49800Y497500D02*X50550D01*
X52350Y498250D02*X53100Y497500D01*
X52350Y502750D02*Y498250D01*
Y502750D02*X53100Y503500D01*
X54600D01*
X55350Y502750D01*
Y498250D01*
X54600Y497500D02*X55350Y498250D01*
X53100Y497500D02*X54600D01*
X52350Y499000D02*X55350Y502000D01*
X57150Y502750D02*X57900Y503500D01*
X59400D01*
X60150Y502750D01*
X59400Y497500D02*X60150Y498250D01*
X57900Y497500D02*X59400D01*
X57150Y498250D02*X57900Y497500D01*
Y500800D02*X59400D01*
X60150Y502750D02*Y501550D01*
Y500050D02*Y498250D01*
Y500050D02*X59400Y500800D01*
X60150Y501550D02*X59400Y500800D01*
X61950Y498250D02*X62700Y497500D01*
X61950Y502750D02*Y498250D01*
Y502750D02*X62700Y503500D01*
X64200D01*
X64950Y502750D01*
Y498250D01*
X64200Y497500D02*X64950Y498250D01*
X62700Y497500D02*X64200D01*
X61950Y499000D02*X64950Y502000D01*
X78800Y51200D02*X81200Y48800D01*
X78800D02*X81200Y51200D01*
X88800D02*X91200Y48800D01*
X88800D02*X91200Y51200D01*
X98800D02*X101200Y48800D01*
X98800D02*X101200Y51200D01*
X98800Y81200D02*X101200Y78800D01*
X98800D02*X101200Y81200D01*
X88800D02*X91200Y78800D01*
X88800D02*X91200Y81200D01*
X78800D02*X81200Y78800D01*
X78800D02*X81200Y81200D01*
X177800Y86200D02*X180200Y83800D01*
X177800D02*X180200Y86200D01*
X167800D02*X170200Y83800D01*
X167800D02*X170200Y86200D01*
X157800D02*X160200Y83800D01*
X157800D02*X160200Y86200D01*
X157800Y56200D02*X160200Y53800D01*
X157800D02*X160200Y56200D01*
X167800D02*X170200Y53800D01*
X167800D02*X170200Y56200D01*
X177800D02*X180200Y53800D01*
X177800D02*X180200Y56200D01*
X108800Y241200D02*X111200Y238800D01*
X108800D02*X111200Y241200D01*
X108800Y231200D02*X111200Y228800D01*
X108800D02*X111200Y231200D01*
X108800Y221200D02*X111200Y218800D01*
X108800D02*X111200Y221200D01*
X108800Y211200D02*X111200Y208800D01*
X108800D02*X111200Y211200D01*
X108800Y201200D02*X111200Y198800D01*
X108800D02*X111200Y201200D01*
X108800Y191200D02*X111200Y188800D01*
X108800D02*X111200Y191200D01*
X108800Y181200D02*X111200Y178800D01*
X108800D02*X111200Y181200D01*
X138800D02*X141200Y178800D01*
X138800D02*X141200Y181200D01*
X138800Y191200D02*X141200Y188800D01*
X138800D02*X141200Y191200D01*
X138800Y201200D02*X141200Y198800D01*
X138800D02*X141200Y201200D01*
X138800Y211200D02*X141200Y208800D01*
X138800D02*X141200Y211200D01*
X138800Y221200D02*X141200Y218800D01*
X138800D02*X141200Y221200D01*
X138800Y231200D02*X141200Y228800D01*
X138800D02*X141200Y231200D01*
X138800Y241200D02*X141200Y238800D01*
X138800D02*X141200Y241200D01*
X13800Y517450D02*X16200Y515050D01*
X13800D02*X16200Y517450D01*
X135000Y518500D02*X136500Y515500D01*
X138000Y518500D01*
X136500Y515500D02*Y512500D01*
X139800Y515800D02*X142050D01*
X139800Y512500D02*X142800D01*
X139800Y518500D02*Y512500D01*
Y518500D02*X142800D01*
X147600D02*X148350Y517750D01*
X145350Y518500D02*X147600D01*
X144600Y517750D02*X145350Y518500D01*
X144600Y517750D02*Y516250D01*
X145350Y515500D01*
X147600D01*
X148350Y514750D01*
Y513250D01*
X147600Y512500D02*X148350Y513250D01*
X145350Y512500D02*X147600D01*
X144600Y513250D02*X145350Y512500D01*
X98000Y517750D02*X98750Y518500D01*
X101000D01*
X101750Y517750D01*
Y516250D01*
X98000Y512500D02*X101750Y516250D01*
X98000Y512500D02*X101750D01*
X105800Y518500D02*X106550Y517750D01*
X104300Y518500D02*X105800D01*
X103550Y517750D02*X104300Y518500D01*
X103550Y517750D02*Y513250D01*
X104300Y512500D01*
X105800Y515800D02*X106550Y515050D01*
X103550Y515800D02*X105800D01*
X104300Y512500D02*X105800D01*
X106550Y513250D01*
Y515050D02*Y513250D01*
X45000D02*X45750Y512500D01*
X45000Y517750D02*Y513250D01*
Y517750D02*X45750Y518500D01*
X47250D01*
X48000Y517750D01*
Y513250D01*
X47250Y512500D02*X48000Y513250D01*
X45750Y512500D02*X47250D01*
X45000Y514000D02*X48000Y517000D01*
X49800Y512500D02*X50550D01*
X52350Y513250D02*X53100Y512500D01*
X52350Y517750D02*Y513250D01*
Y517750D02*X53100Y518500D01*
X54600D01*
X55350Y517750D01*
Y513250D01*
X54600Y512500D02*X55350Y513250D01*
X53100Y512500D02*X54600D01*
X52350Y514000D02*X55350Y517000D01*
X57150Y517750D02*X57900Y518500D01*
X60150D01*
X60900Y517750D01*
Y516250D01*
X57150Y512500D02*X60900Y516250D01*
X57150Y512500D02*X60900D01*
X62700Y513250D02*X63450Y512500D01*
X62700Y514450D02*Y513250D01*
Y514450D02*X63750Y515500D01*
X64650D01*
X65700Y514450D01*
Y513250D01*
X64950Y512500D02*X65700Y513250D01*
X63450Y512500D02*X64950D01*
X62700Y516550D02*X63750Y515500D01*
X62700Y517750D02*Y516550D01*
Y517750D02*X63450Y518500D01*
X64950D01*
X65700Y517750D01*
Y516550D01*
X64650Y515500D02*X65700Y516550D01*
X194000Y64600D02*Y61400D01*
X192400Y63000D02*X195600D01*
X244000Y64600D02*Y61400D01*
X242400Y63000D02*X245600D01*
X15000Y532850D02*Y529650D01*
X13400Y531250D02*X16600D01*
X135000Y533500D02*X136500Y530500D01*
X138000Y533500D01*
X136500Y530500D02*Y527500D01*
X139800Y530800D02*X142050D01*
X139800Y527500D02*X142800D01*
X139800Y533500D02*Y527500D01*
Y533500D02*X142800D01*
X147600D02*X148350Y532750D01*
X145350Y533500D02*X147600D01*
X144600Y532750D02*X145350Y533500D01*
X144600Y532750D02*Y531250D01*
X145350Y530500D01*
X147600D01*
X148350Y529750D01*
Y528250D01*
X147600Y527500D02*X148350Y528250D01*
X145350Y527500D02*X147600D01*
X144600Y528250D02*X145350Y527500D01*
X98000Y532750D02*X98750Y533500D01*
X101000D01*
X101750Y532750D01*
Y531250D01*
X98000Y527500D02*X101750Y531250D01*
X98000Y527500D02*X101750D01*
X45000Y528250D02*X45750Y527500D01*
X45000Y532750D02*Y528250D01*
Y532750D02*X45750Y533500D01*
X47250D01*
X48000Y532750D01*
Y528250D01*
X47250Y527500D02*X48000Y528250D01*
X45750Y527500D02*X47250D01*
X45000Y529000D02*X48000Y532000D01*
X49800Y527500D02*X50550D01*
X52350Y528250D02*X53100Y527500D01*
X52350Y532750D02*Y528250D01*
Y532750D02*X53100Y533500D01*
X54600D01*
X55350Y532750D01*
Y528250D01*
X54600Y527500D02*X55350Y528250D01*
X53100Y527500D02*X54600D01*
X52350Y529000D02*X55350Y532000D01*
X57150Y532750D02*X57900Y533500D01*
X60150D01*
X60900Y532750D01*
Y531250D01*
X57150Y527500D02*X60900Y531250D01*
X57150Y527500D02*X60900D01*
X62700Y528250D02*X63450Y527500D01*
X62700Y532750D02*Y528250D01*
Y532750D02*X63450Y533500D01*
X64950D01*
X65700Y532750D01*
Y528250D01*
X64950Y527500D02*X65700Y528250D01*
X63450Y527500D02*X64950D01*
X62700Y529000D02*X65700Y532000D01*
X200315Y10000D02*Y8400D01*
Y10000D02*X201702Y10800D01*
X200315Y10000D02*X198928Y10800D01*
X220000Y10000D02*Y8400D01*
Y10000D02*X221387Y10800D01*
X220000Y10000D02*X218613Y10800D01*
X80000Y10000D02*Y8400D01*
Y10000D02*X81387Y10800D01*
X80000Y10000D02*X78613Y10800D01*
X99685Y10000D02*Y8400D01*
Y10000D02*X101072Y10800D01*
X99685Y10000D02*X98298Y10800D01*
X160315Y10000D02*Y8400D01*
Y10000D02*X161702Y10800D01*
X160315Y10000D02*X158928Y10800D01*
X180000Y10000D02*Y8400D01*
Y10000D02*X181387Y10800D01*
X180000Y10000D02*X178613Y10800D01*
X120315Y10000D02*Y8400D01*
Y10000D02*X121702Y10800D01*
X120315Y10000D02*X118928Y10800D01*
X140000Y10000D02*Y8400D01*
Y10000D02*X141387Y10800D01*
X140000Y10000D02*X138613Y10800D01*
X40315Y10000D02*Y8400D01*
Y10000D02*X41702Y10800D01*
X40315Y10000D02*X38928Y10800D01*
X60000Y10000D02*Y8400D01*
Y10000D02*X61387Y10800D01*
X60000Y10000D02*X58613Y10800D01*
X15000Y546250D02*Y544650D01*
Y546250D02*X16387Y547050D01*
X15000Y546250D02*X13613Y547050D01*
X135000Y548500D02*X136500Y545500D01*
X138000Y548500D01*
X136500Y545500D02*Y542500D01*
X139800Y545800D02*X142050D01*
X139800Y542500D02*X142800D01*
X139800Y548500D02*Y542500D01*
Y548500D02*X142800D01*
X147600D02*X148350Y547750D01*
X145350Y548500D02*X147600D01*
X144600Y547750D02*X145350Y548500D01*
X144600Y547750D02*Y546250D01*
X145350Y545500D01*
X147600D01*
X148350Y544750D01*
Y543250D01*
X147600Y542500D02*X148350Y543250D01*
X145350Y542500D02*X147600D01*
X144600Y543250D02*X145350Y542500D01*
X98000Y547300D02*X99200Y548500D01*
Y542500D01*
X98000D02*X100250D01*
X102050Y543250D02*X102800Y542500D01*
X102050Y547750D02*Y543250D01*
Y547750D02*X102800Y548500D01*
X104300D01*
X105050Y547750D01*
Y543250D01*
X104300Y542500D02*X105050Y543250D01*
X102800Y542500D02*X104300D01*
X102050Y544000D02*X105050Y547000D01*
X45000Y543250D02*X45750Y542500D01*
X45000Y547750D02*Y543250D01*
Y547750D02*X45750Y548500D01*
X47250D01*
X48000Y547750D01*
Y543250D01*
X47250Y542500D02*X48000Y543250D01*
X45750Y542500D02*X47250D01*
X45000Y544000D02*X48000Y547000D01*
X49800Y542500D02*X50550D01*
X52350Y543250D02*X53100Y542500D01*
X52350Y547750D02*Y543250D01*
Y547750D02*X53100Y548500D01*
X54600D01*
X55350Y547750D01*
Y543250D01*
X54600Y542500D02*X55350Y543250D01*
X53100Y542500D02*X54600D01*
X52350Y544000D02*X55350Y547000D01*
X57150Y547300D02*X58350Y548500D01*
Y542500D01*
X57150D02*X59400D01*
X61200Y548500D02*X64200D01*
X61200D02*Y545500D01*
X61950Y546250D01*
X63450D01*
X64200Y545500D01*
Y543250D01*
X63450Y542500D02*X64200Y543250D01*
X61950Y542500D02*X63450D01*
X61200Y543250D02*X61950Y542500D01*
X3000Y563500D02*X3750Y562750D01*
X750Y563500D02*X3000D01*
X0Y562750D02*X750Y563500D01*
X0Y562750D02*Y561250D01*
X750Y560500D01*
X3000D01*
X3750Y559750D01*
Y558250D01*
X3000Y557500D02*X3750Y558250D01*
X750Y557500D02*X3000D01*
X0Y558250D02*X750Y557500D01*
X5550Y560500D02*Y558250D01*
X6300Y557500D01*
X8550Y560500D02*Y556000D01*
X7800Y555250D02*X8550Y556000D01*
X6300Y555250D02*X7800D01*
X5550Y556000D02*X6300Y555250D01*
Y557500D02*X7800D01*
X8550Y558250D01*
X11100Y559750D02*Y557500D01*
Y559750D02*X11850Y560500D01*
X12600D01*
X13350Y559750D01*
Y557500D01*
Y559750D02*X14100Y560500D01*
X14850D01*
X15600Y559750D01*
Y557500D01*
X10350Y560500D02*X11100Y559750D01*
X17400Y563500D02*Y557500D01*
Y558250D02*X18150Y557500D01*
X19650D01*
X20400Y558250D01*
Y559750D02*Y558250D01*
X19650Y560500D02*X20400Y559750D01*
X18150Y560500D02*X19650D01*
X17400Y559750D02*X18150Y560500D01*
X22200Y559750D02*Y558250D01*
Y559750D02*X22950Y560500D01*
X24450D01*
X25200Y559750D01*
Y558250D01*
X24450Y557500D02*X25200Y558250D01*
X22950Y557500D02*X24450D01*
X22200Y558250D02*X22950Y557500D01*
X27000Y563500D02*Y558250D01*
X27750Y557500D01*
X0Y554250D02*X29250D01*
X41750Y563500D02*Y557500D01*
X43700Y563500D02*X44750Y562450D01*
Y558550D01*
X43700Y557500D02*X44750Y558550D01*
X41000Y557500D02*X43700D01*
X41000Y563500D02*X43700D01*
G54D89*X46550Y562000D02*Y561850D01*
G54D88*Y559750D02*Y557500D01*
X50300Y560500D02*X51050Y559750D01*
X48800Y560500D02*X50300D01*
X48050Y559750D02*X48800Y560500D01*
X48050Y559750D02*Y558250D01*
X48800Y557500D01*
X51050Y560500D02*Y558250D01*
X51800Y557500D01*
X48800D02*X50300D01*
X51050Y558250D01*
X54350Y559750D02*Y557500D01*
Y559750D02*X55100Y560500D01*
X55850D01*
X56600Y559750D01*
Y557500D01*
Y559750D02*X57350Y560500D01*
X58100D01*
X58850Y559750D01*
Y557500D01*
X53600Y560500D02*X54350Y559750D01*
X60650Y557500D02*X61400D01*
X65900Y558250D02*X66650Y557500D01*
X65900Y562750D02*X66650Y563500D01*
X65900Y562750D02*Y558250D01*
X68450Y563500D02*X69950D01*
X69200D02*Y557500D01*
X68450D02*X69950D01*
X72500Y559750D02*Y557500D01*
Y559750D02*X73250Y560500D01*
X74000D01*
X74750Y559750D01*
Y557500D01*
X71750Y560500D02*X72500Y559750D01*
X77300Y560500D02*X79550D01*
X76550Y559750D02*X77300Y560500D01*
X76550Y559750D02*Y558250D01*
X77300Y557500D01*
X79550D01*
X81350Y563500D02*Y557500D01*
Y559750D02*X82100Y560500D01*
X83600D01*
X84350Y559750D01*
Y557500D01*
X86150Y563500D02*X86900Y562750D01*
Y558250D01*
X86150Y557500D02*X86900Y558250D01*
X41000Y554250D02*X88700D01*
X96050Y557500D02*X98000D01*
X95000Y558550D02*X96050Y557500D01*
X95000Y562450D02*Y558550D01*
Y562450D02*X96050Y563500D01*
X98000D01*
X99800Y559750D02*Y558250D01*
Y559750D02*X100550Y560500D01*
X102050D01*
X102800Y559750D01*
Y558250D01*
X102050Y557500D02*X102800Y558250D01*
X100550Y557500D02*X102050D01*
X99800Y558250D02*X100550Y557500D01*
X104600Y560500D02*Y558250D01*
X105350Y557500D01*
X106850D01*
X107600Y558250D01*
Y560500D02*Y558250D01*
X110150Y559750D02*Y557500D01*
Y559750D02*X110900Y560500D01*
X111650D01*
X112400Y559750D01*
Y557500D01*
X109400Y560500D02*X110150Y559750D01*
X114950Y563500D02*Y558250D01*
X115700Y557500D01*
X114200Y561250D02*X115700D01*
X95000Y554250D02*X117200D01*
X130750Y563500D02*Y557500D01*
X130000Y563500D02*X133000D01*
X133750Y562750D01*
Y561250D01*
X133000Y560500D02*X133750Y561250D01*
X130750Y560500D02*X133000D01*
X135550Y563500D02*Y558250D01*
X136300Y557500D01*
X140050Y560500D02*X140800Y559750D01*
X138550Y560500D02*X140050D01*
X137800Y559750D02*X138550Y560500D01*
X137800Y559750D02*Y558250D01*
X138550Y557500D01*
X140800Y560500D02*Y558250D01*
X141550Y557500D01*
X138550D02*X140050D01*
X140800Y558250D01*
X144100Y563500D02*Y558250D01*
X144850Y557500D01*
X143350Y561250D02*X144850D01*
X147100Y557500D02*X149350D01*
X146350Y558250D02*X147100Y557500D01*
X146350Y559750D02*Y558250D01*
Y559750D02*X147100Y560500D01*
X148600D01*
X149350Y559750D01*
X146350Y559000D02*X149350D01*
Y559750D02*Y559000D01*
X154150Y563500D02*Y557500D01*
X153400D02*X154150Y558250D01*
X151900Y557500D02*X153400D01*
X151150Y558250D02*X151900Y557500D01*
X151150Y559750D02*Y558250D01*
Y559750D02*X151900Y560500D01*
X153400D01*
X154150Y559750D01*
X157450Y560500D02*Y559750D01*
Y558250D02*Y557500D01*
X155950Y562750D02*Y562000D01*
Y562750D02*X156700Y563500D01*
X158200D01*
X158950Y562750D01*
Y562000D01*
X157450Y560500D02*X158950Y562000D01*
X130000Y554250D02*X160750D01*
X0Y578500D02*X3000D01*
X1500D02*Y572500D01*
X4800Y578500D02*Y572500D01*
Y574750D02*X5550Y575500D01*
X7050D01*
X7800Y574750D01*
Y572500D01*
X10350D02*X12600D01*
X9600Y573250D02*X10350Y572500D01*
X9600Y574750D02*Y573250D01*
Y574750D02*X10350Y575500D01*
X11850D01*
X12600Y574750D01*
X9600Y574000D02*X12600D01*
Y574750D02*Y574000D01*
X15150Y574750D02*Y572500D01*
Y574750D02*X15900Y575500D01*
X17400D01*
X14400D02*X15150Y574750D01*
X19950Y572500D02*X22200D01*
X19200Y573250D02*X19950Y572500D01*
X19200Y574750D02*Y573250D01*
Y574750D02*X19950Y575500D01*
X21450D01*
X22200Y574750D01*
X19200Y574000D02*X22200D01*
Y574750D02*Y574000D01*
X28950Y575500D02*X29700Y574750D01*
X27450Y575500D02*X28950D01*
X26700Y574750D02*X27450Y575500D01*
X26700Y574750D02*Y573250D01*
X27450Y572500D01*
X29700Y575500D02*Y573250D01*
X30450Y572500D01*
X27450D02*X28950D01*
X29700Y573250D01*
X33000Y574750D02*Y572500D01*
Y574750D02*X33750Y575500D01*
X35250D01*
X32250D02*X33000Y574750D01*
X37800Y572500D02*X40050D01*
X37050Y573250D02*X37800Y572500D01*
X37050Y574750D02*Y573250D01*
Y574750D02*X37800Y575500D01*
X39300D01*
X40050Y574750D01*
X37050Y574000D02*X40050D01*
Y574750D02*Y574000D01*
X44550Y577300D02*X45750Y578500D01*
Y572500D01*
X44550D02*X46800D01*
X48600Y573250D02*X49350Y572500D01*
X48600Y577750D02*Y573250D01*
Y577750D02*X49350Y578500D01*
X50850D01*
X51600Y577750D01*
Y573250D01*
X50850Y572500D02*X51600Y573250D01*
X49350Y572500D02*X50850D01*
X48600Y574000D02*X51600Y577000D01*
X59100Y578500D02*Y572500D01*
X58350D02*X59100Y573250D01*
X56850Y572500D02*X58350D01*
X56100Y573250D02*X56850Y572500D01*
X56100Y574750D02*Y573250D01*
Y574750D02*X56850Y575500D01*
X58350D01*
X59100Y574750D01*
G54D89*X60900Y577000D02*Y576850D01*
G54D88*Y574750D02*Y572500D01*
X63150Y577750D02*Y572500D01*
Y577750D02*X63900Y578500D01*
X64650D01*
X62400Y575500D02*X63900D01*
X66900Y577750D02*Y572500D01*
Y577750D02*X67650Y578500D01*
X68400D01*
X66150Y575500D02*X67650D01*
X70650Y572500D02*X72900D01*
X69900Y573250D02*X70650Y572500D01*
X69900Y574750D02*Y573250D01*
Y574750D02*X70650Y575500D01*
X72150D01*
X72900Y574750D01*
X69900Y574000D02*X72900D01*
Y574750D02*Y574000D01*
X75450Y574750D02*Y572500D01*
Y574750D02*X76200Y575500D01*
X77700D01*
X74700D02*X75450Y574750D01*
X80250Y572500D02*X82500D01*
X79500Y573250D02*X80250Y572500D01*
X79500Y574750D02*Y573250D01*
Y574750D02*X80250Y575500D01*
X81750D01*
X82500Y574750D01*
X79500Y574000D02*X82500D01*
Y574750D02*Y574000D01*
X85050Y574750D02*Y572500D01*
Y574750D02*X85800Y575500D01*
X86550D01*
X87300Y574750D01*
Y572500D01*
X84300Y575500D02*X85050Y574750D01*
X89850Y578500D02*Y573250D01*
X90600Y572500D01*
X89100Y576250D02*X90600D01*
X97800Y578500D02*Y572500D01*
X97050D02*X97800Y573250D01*
X95550Y572500D02*X97050D01*
X94800Y573250D02*X95550Y572500D01*
X94800Y574750D02*Y573250D01*
Y574750D02*X95550Y575500D01*
X97050D01*
X97800Y574750D01*
X100350D02*Y572500D01*
Y574750D02*X101100Y575500D01*
X102600D01*
X99600D02*X100350Y574750D01*
G54D89*X104400Y577000D02*Y576850D01*
G54D88*Y574750D02*Y572500D01*
X105900Y578500D02*Y573250D01*
X106650Y572500D01*
X108150Y578500D02*Y573250D01*
X108900Y572500D01*
X113850D02*X116100D01*
X116850Y573250D01*
X116100Y574000D02*X116850Y573250D01*
X113850Y574000D02*X116100D01*
X113100Y574750D02*X113850Y574000D01*
X113100Y574750D02*X113850Y575500D01*
X116100D01*
X116850Y574750D01*
X113100Y573250D02*X113850Y572500D01*
G54D89*X118650Y577000D02*Y576850D01*
G54D88*Y574750D02*Y572500D01*
X120150Y575500D02*X123150D01*
X120150Y572500D02*X123150Y575500D01*
X120150Y572500D02*X123150D01*
X125700D02*X127950D01*
X124950Y573250D02*X125700Y572500D01*
X124950Y574750D02*Y573250D01*
Y574750D02*X125700Y575500D01*
X127200D01*
X127950Y574750D01*
X124950Y574000D02*X127950D01*
Y574750D02*Y574000D01*
X130500Y572500D02*X132750D01*
X133500Y573250D01*
X132750Y574000D02*X133500Y573250D01*
X130500Y574000D02*X132750D01*
X129750Y574750D02*X130500Y574000D01*
X129750Y574750D02*X130500Y575500D01*
X132750D01*
X133500Y574750D01*
X129750Y573250D02*X130500Y572500D01*
X138000Y575500D02*Y573250D01*
X138750Y572500D01*
X140250D01*
X141000Y573250D01*
Y575500D02*Y573250D01*
X143550Y572500D02*X145800D01*
X146550Y573250D01*
X145800Y574000D02*X146550Y573250D01*
X143550Y574000D02*X145800D01*
X142800Y574750D02*X143550Y574000D01*
X142800Y574750D02*X143550Y575500D01*
X145800D01*
X146550Y574750D01*
X142800Y573250D02*X143550Y572500D01*
X149100D02*X151350D01*
X148350Y573250D02*X149100Y572500D01*
X148350Y574750D02*Y573250D01*
Y574750D02*X149100Y575500D01*
X150600D01*
X151350Y574750D01*
X148350Y574000D02*X151350D01*
Y574750D02*Y574000D01*
X156150Y578500D02*Y572500D01*
X155400D02*X156150Y573250D01*
X153900Y572500D02*X155400D01*
X153150Y573250D02*X153900Y572500D01*
X153150Y574750D02*Y573250D01*
Y574750D02*X153900Y575500D01*
X155400D01*
X156150Y574750D01*
G54D89*X160650Y577000D02*Y576850D01*
G54D88*Y574750D02*Y572500D01*
X162900Y574750D02*Y572500D01*
Y574750D02*X163650Y575500D01*
X164400D01*
X165150Y574750D01*
Y572500D01*
X162150Y575500D02*X162900Y574750D01*
X170400Y578500D02*Y573250D01*
X171150Y572500D01*
X169650Y576250D02*X171150D01*
X172650Y578500D02*Y572500D01*
Y574750D02*X173400Y575500D01*
X174900D01*
X175650Y574750D01*
Y572500D01*
G54D89*X177450Y577000D02*Y576850D01*
G54D88*Y574750D02*Y572500D01*
X179700D02*X181950D01*
X182700Y573250D01*
X181950Y574000D02*X182700Y573250D01*
X179700Y574000D02*X181950D01*
X178950Y574750D02*X179700Y574000D01*
X178950Y574750D02*X179700Y575500D01*
X181950D01*
X182700Y574750D01*
X178950Y573250D02*X179700Y572500D01*
X187200Y578500D02*Y573250D01*
X187950Y572500D01*
X191700Y575500D02*X192450Y574750D01*
X190200Y575500D02*X191700D01*
X189450Y574750D02*X190200Y575500D01*
X189450Y574750D02*Y573250D01*
X190200Y572500D01*
X192450Y575500D02*Y573250D01*
X193200Y572500D01*
X190200D02*X191700D01*
X192450Y573250D01*
X195000Y575500D02*Y573250D01*
X195750Y572500D01*
X198000Y575500D02*Y571000D01*
X197250Y570250D02*X198000Y571000D01*
X195750Y570250D02*X197250D01*
X195000Y571000D02*X195750Y570250D01*
Y572500D02*X197250D01*
X198000Y573250D01*
X199800Y574750D02*Y573250D01*
Y574750D02*X200550Y575500D01*
X202050D01*
X202800Y574750D01*
Y573250D01*
X202050Y572500D02*X202800Y573250D01*
X200550Y572500D02*X202050D01*
X199800Y573250D02*X200550Y572500D01*
X204600Y575500D02*Y573250D01*
X205350Y572500D01*
X206850D01*
X207600Y573250D01*
Y575500D02*Y573250D01*
X210150Y578500D02*Y573250D01*
X210900Y572500D01*
X209400Y576250D02*X210900D01*
X212400Y571000D02*X213900Y572500D01*
X218400Y573250D02*X219150Y572500D01*
X218400Y574450D02*Y573250D01*
Y574450D02*X219450Y575500D01*
X220350D01*
X221400Y574450D01*
Y573250D01*
X220650Y572500D02*X221400Y573250D01*
X219150Y572500D02*X220650D01*
X218400Y576550D02*X219450Y575500D01*
X218400Y577750D02*Y576550D01*
Y577750D02*X219150Y578500D01*
X220650D01*
X221400Y577750D01*
Y576550D01*
X220350Y575500D02*X221400Y576550D01*
X223950Y572500D02*X226200Y575500D01*
Y577750D02*Y575500D01*
X225450Y578500D02*X226200Y577750D01*
X223950Y578500D02*X225450D01*
X223200Y577750D02*X223950Y578500D01*
X223200Y577750D02*Y576250D01*
X223950Y575500D01*
X226200D01*
X230700Y578500D02*Y572500D01*
Y574750D02*X231450Y575500D01*
X232950D01*
X233700Y574750D01*
Y572500D01*
X235500Y574750D02*Y573250D01*
Y574750D02*X236250Y575500D01*
X237750D01*
X238500Y574750D01*
Y573250D01*
X237750Y572500D02*X238500Y573250D01*
X236250Y572500D02*X237750D01*
X235500Y573250D02*X236250Y572500D01*
X240300Y578500D02*Y573250D01*
X241050Y572500D01*
X243300D02*X245550D01*
X242550Y573250D02*X243300Y572500D01*
X242550Y574750D02*Y573250D01*
Y574750D02*X243300Y575500D01*
X244800D01*
X245550Y574750D01*
X242550Y574000D02*X245550D01*
Y574750D02*Y574000D01*
X248100Y572500D02*X250350D01*
X251100Y573250D01*
X250350Y574000D02*X251100Y573250D01*
X248100Y574000D02*X250350D01*
X247350Y574750D02*X248100Y574000D01*
X247350Y574750D02*X248100Y575500D01*
X250350D01*
X251100Y574750D01*
X247350Y573250D02*X248100Y572500D01*
X256350Y578500D02*Y573250D01*
X257100Y572500D01*
X255600Y576250D02*X257100D01*
X258600Y574750D02*Y573250D01*
Y574750D02*X259350Y575500D01*
X260850D01*
X261600Y574750D01*
Y573250D01*
X260850Y572500D02*X261600Y573250D01*
X259350Y572500D02*X260850D01*
X258600Y573250D02*X259350Y572500D01*
X264150Y578500D02*Y573250D01*
X264900Y572500D01*
X263400Y576250D02*X264900D01*
X268650Y575500D02*X269400Y574750D01*
X267150Y575500D02*X268650D01*
X266400Y574750D02*X267150Y575500D01*
X266400Y574750D02*Y573250D01*
X267150Y572500D01*
X269400Y575500D02*Y573250D01*
X270150Y572500D01*
X267150D02*X268650D01*
X269400Y573250D01*
X271950Y578500D02*Y573250D01*
X272700Y572500D01*
G54D90*X0Y400000D02*X260000D01*
X0D02*Y0D01*
X260000Y400000D02*Y0D01*
X0D02*X260000D01*
G54D88*X200000Y413500D02*Y407500D01*
Y413500D02*X202250Y410500D01*
X204500Y413500D01*
Y407500D01*
X208550Y410500D02*X209300Y409750D01*
X207050Y410500D02*X208550D01*
X206300Y409750D02*X207050Y410500D01*
X206300Y409750D02*Y408250D01*
X207050Y407500D01*
X209300Y410500D02*Y408250D01*
X210050Y407500D01*
X207050D02*X208550D01*
X209300Y408250D01*
X211850Y410500D02*X214850Y407500D01*
X211850D02*X214850Y410500D01*
G54D89*X216650Y412000D02*Y411850D01*
G54D88*Y409750D02*Y407500D01*
X218900Y409750D02*Y407500D01*
Y409750D02*X219650Y410500D01*
X220400D01*
X221150Y409750D01*
Y407500D01*
Y409750D02*X221900Y410500D01*
X222650D01*
X223400Y409750D01*
Y407500D01*
X218150Y410500D02*X218900Y409750D01*
X225200Y410500D02*Y408250D01*
X225950Y407500D01*
X227450D01*
X228200Y408250D01*
Y410500D02*Y408250D01*
X230750Y409750D02*Y407500D01*
Y409750D02*X231500Y410500D01*
X232250D01*
X233000Y409750D01*
Y407500D01*
Y409750D02*X233750Y410500D01*
X234500D01*
X235250Y409750D01*
Y407500D01*
X230000Y410500D02*X230750Y409750D01*
X240500Y413500D02*Y407500D01*
X242450Y413500D02*X243500Y412450D01*
Y408550D01*
X242450Y407500D02*X243500Y408550D01*
X239750Y407500D02*X242450D01*
X239750Y413500D02*X242450D01*
G54D89*X245300Y412000D02*Y411850D01*
G54D88*Y409750D02*Y407500D01*
X247550Y409750D02*Y407500D01*
Y409750D02*X248300Y410500D01*
X249050D01*
X249800Y409750D01*
Y407500D01*
Y409750D02*X250550Y410500D01*
X251300D01*
X252050Y409750D01*
Y407500D01*
X246800Y410500D02*X247550Y409750D01*
X254600Y407500D02*X256850D01*
X253850Y408250D02*X254600Y407500D01*
X253850Y409750D02*Y408250D01*
Y409750D02*X254600Y410500D01*
X256100D01*
X256850Y409750D01*
X253850Y409000D02*X256850D01*
Y409750D02*Y409000D01*
X259400Y409750D02*Y407500D01*
Y409750D02*X260150Y410500D01*
X260900D01*
X261650Y409750D01*
Y407500D01*
X258650Y410500D02*X259400Y409750D01*
X264200Y407500D02*X266450D01*
X267200Y408250D01*
X266450Y409000D02*X267200Y408250D01*
X264200Y409000D02*X266450D01*
X263450Y409750D02*X264200Y409000D01*
X263450Y409750D02*X264200Y410500D01*
X266450D01*
X267200Y409750D01*
X263450Y408250D02*X264200Y407500D01*
G54D89*X269000Y412000D02*Y411850D01*
G54D88*Y409750D02*Y407500D01*
X270500Y409750D02*Y408250D01*
Y409750D02*X271250Y410500D01*
X272750D01*
X273500Y409750D01*
Y408250D01*
X272750Y407500D02*X273500Y408250D01*
X271250Y407500D02*X272750D01*
X270500Y408250D02*X271250Y407500D01*
X276050Y409750D02*Y407500D01*
Y409750D02*X276800Y410500D01*
X277550D01*
X278300Y409750D01*
Y407500D01*
X275300Y410500D02*X276050Y409750D01*
X280850Y407500D02*X283100D01*
X283850Y408250D01*
X283100Y409000D02*X283850Y408250D01*
X280850Y409000D02*X283100D01*
X280100Y409750D02*X280850Y409000D01*
X280100Y409750D02*X280850Y410500D01*
X283100D01*
X283850Y409750D01*
X280100Y408250D02*X280850Y407500D01*
X285650Y411250D02*X286400D01*
X285650Y409750D02*X286400D01*
X290900Y412750D02*X291650Y413500D01*
X293900D01*
X294650Y412750D01*
Y411250D01*
X290900Y407500D02*X294650Y411250D01*
X290900Y407500D02*X294650D01*
X298700Y413500D02*X299450Y412750D01*
X297200Y413500D02*X298700D01*
X296450Y412750D02*X297200Y413500D01*
X296450Y412750D02*Y408250D01*
X297200Y407500D01*
X298700Y410800D02*X299450Y410050D01*
X296450Y410800D02*X298700D01*
X297200Y407500D02*X298700D01*
X299450Y408250D01*
Y410050D02*Y408250D01*
X301250D02*X302000Y407500D01*
X301250Y412750D02*Y408250D01*
Y412750D02*X302000Y413500D01*
X303500D01*
X304250Y412750D01*
Y408250D01*
X303500Y407500D02*X304250Y408250D01*
X302000Y407500D02*X303500D01*
X301250Y409000D02*X304250Y412000D01*
X306050Y408250D02*X306800Y407500D01*
X306050Y412750D02*Y408250D01*
Y412750D02*X306800Y413500D01*
X308300D01*
X309050Y412750D01*
Y408250D01*
X308300Y407500D02*X309050Y408250D01*
X306800Y407500D02*X308300D01*
X306050Y409000D02*X309050Y412000D01*
X310850Y407500D02*X311600D01*
X313400Y408250D02*X314150Y407500D01*
X313400Y412750D02*Y408250D01*
Y412750D02*X314150Y413500D01*
X315650D01*
X316400Y412750D01*
Y408250D01*
X315650Y407500D02*X316400Y408250D01*
X314150Y407500D02*X315650D01*
X313400Y409000D02*X316400Y412000D01*
X318200Y408250D02*X318950Y407500D01*
X318200Y412750D02*Y408250D01*
Y412750D02*X318950Y413500D01*
X320450D01*
X321200Y412750D01*
Y408250D01*
X320450Y407500D02*X321200Y408250D01*
X318950Y407500D02*X320450D01*
X318200Y409000D02*X321200Y412000D01*
X323000Y408250D02*X323750Y407500D01*
X323000Y412750D02*Y408250D01*
Y412750D02*X323750Y413500D01*
X325250D01*
X326000Y412750D01*
Y408250D01*
X325250Y407500D02*X326000Y408250D01*
X323750Y407500D02*X325250D01*
X323000Y409000D02*X326000Y412000D01*
X327800Y408250D02*X328550Y407500D01*
X327800Y412750D02*Y408250D01*
Y412750D02*X328550Y413500D01*
X330050D01*
X330800Y412750D01*
Y408250D01*
X330050Y407500D02*X330800Y408250D01*
X328550Y407500D02*X330050D01*
X327800Y409000D02*X330800Y412000D01*
X332600Y408250D02*X333350Y407500D01*
X332600Y412750D02*Y408250D01*
Y412750D02*X333350Y413500D01*
X334850D01*
X335600Y412750D01*
Y408250D01*
X334850Y407500D02*X335600Y408250D01*
X333350Y407500D02*X334850D01*
X332600Y409000D02*X335600Y412000D01*
X337400Y408250D02*X338150Y407500D01*
X337400Y412750D02*Y408250D01*
Y412750D02*X338150Y413500D01*
X339650D01*
X340400Y412750D01*
Y408250D01*
X339650Y407500D02*X340400Y408250D01*
X338150Y407500D02*X339650D01*
X337400Y409000D02*X340400Y412000D01*
X345650Y409750D02*Y407500D01*
Y409750D02*X346400Y410500D01*
X347150D01*
X347900Y409750D01*
Y407500D01*
Y409750D02*X348650Y410500D01*
X349400D01*
X350150Y409750D01*
Y407500D01*
X344900Y410500D02*X345650Y409750D01*
G54D89*X351950Y412000D02*Y411850D01*
G54D88*Y409750D02*Y407500D01*
X353450Y413500D02*Y408250D01*
X354200Y407500D01*
X356450D02*X358700D01*
X359450Y408250D01*
X358700Y409000D02*X359450Y408250D01*
X356450Y409000D02*X358700D01*
X355700Y409750D02*X356450Y409000D01*
X355700Y409750D02*X356450Y410500D01*
X358700D01*
X359450Y409750D01*
X355700Y408250D02*X356450Y407500D01*
X363950Y410500D02*Y408250D01*
X364700Y407500D01*
X365450D01*
X366200Y408250D01*
Y410500D02*Y408250D01*
X366950Y407500D01*
X367700D01*
X368450Y408250D01*
Y410500D02*Y408250D01*
G54D89*X370250Y412000D02*Y411850D01*
G54D88*Y409750D02*Y407500D01*
X374750Y413500D02*Y407500D01*
X374000D02*X374750Y408250D01*
X372500Y407500D02*X374000D01*
X371750Y408250D02*X372500Y407500D01*
X371750Y409750D02*Y408250D01*
Y409750D02*X372500Y410500D01*
X374000D01*
X374750Y409750D01*
X377300Y407500D02*X379550D01*
X376550Y408250D02*X377300Y407500D01*
X376550Y409750D02*Y408250D01*
Y409750D02*X377300Y410500D01*
X378800D01*
X379550Y409750D01*
X376550Y409000D02*X379550D01*
Y409750D02*Y409000D01*
X381350Y406000D02*X382850Y407500D01*
X387350Y409750D02*X390350Y413500D01*
X387350Y409750D02*X391100D01*
X390350Y413500D02*Y407500D01*
X392900Y408250D02*X393650Y407500D01*
X392900Y412750D02*Y408250D01*
Y412750D02*X393650Y413500D01*
X395150D01*
X395900Y412750D01*
Y408250D01*
X395150Y407500D02*X395900Y408250D01*
X393650Y407500D02*X395150D01*
X392900Y409000D02*X395900Y412000D01*
X397700Y408250D02*X398450Y407500D01*
X397700Y412750D02*Y408250D01*
Y412750D02*X398450Y413500D01*
X399950D01*
X400700Y412750D01*
Y408250D01*
X399950Y407500D02*X400700Y408250D01*
X398450Y407500D02*X399950D01*
X397700Y409000D02*X400700Y412000D01*
X402500Y408250D02*X403250Y407500D01*
X402500Y412750D02*Y408250D01*
Y412750D02*X403250Y413500D01*
X404750D01*
X405500Y412750D01*
Y408250D01*
X404750Y407500D02*X405500Y408250D01*
X403250Y407500D02*X404750D01*
X402500Y409000D02*X405500Y412000D01*
X407300Y407500D02*X408050D01*
X409850Y408250D02*X410600Y407500D01*
X409850Y412750D02*Y408250D01*
Y412750D02*X410600Y413500D01*
X412100D01*
X412850Y412750D01*
Y408250D01*
X412100Y407500D02*X412850Y408250D01*
X410600Y407500D02*X412100D01*
X409850Y409000D02*X412850Y412000D01*
X414650Y408250D02*X415400Y407500D01*
X414650Y412750D02*Y408250D01*
Y412750D02*X415400Y413500D01*
X416900D01*
X417650Y412750D01*
Y408250D01*
X416900Y407500D02*X417650Y408250D01*
X415400Y407500D02*X416900D01*
X414650Y409000D02*X417650Y412000D01*
X419450Y408250D02*X420200Y407500D01*
X419450Y412750D02*Y408250D01*
Y412750D02*X420200Y413500D01*
X421700D01*
X422450Y412750D01*
Y408250D01*
X421700Y407500D02*X422450Y408250D01*
X420200Y407500D02*X421700D01*
X419450Y409000D02*X422450Y412000D01*
X424250Y408250D02*X425000Y407500D01*
X424250Y412750D02*Y408250D01*
Y412750D02*X425000Y413500D01*
X426500D01*
X427250Y412750D01*
Y408250D01*
X426500Y407500D02*X427250Y408250D01*
X425000Y407500D02*X426500D01*
X424250Y409000D02*X427250Y412000D01*
X429050Y408250D02*X429800Y407500D01*
X429050Y412750D02*Y408250D01*
Y412750D02*X429800Y413500D01*
X431300D01*
X432050Y412750D01*
Y408250D01*
X431300Y407500D02*X432050Y408250D01*
X429800Y407500D02*X431300D01*
X429050Y409000D02*X432050Y412000D01*
X433850Y408250D02*X434600Y407500D01*
X433850Y412750D02*Y408250D01*
Y412750D02*X434600Y413500D01*
X436100D01*
X436850Y412750D01*
Y408250D01*
X436100Y407500D02*X436850Y408250D01*
X434600Y407500D02*X436100D01*
X433850Y409000D02*X436850Y412000D01*
X442100Y409750D02*Y407500D01*
Y409750D02*X442850Y410500D01*
X443600D01*
X444350Y409750D01*
Y407500D01*
Y409750D02*X445100Y410500D01*
X445850D01*
X446600Y409750D01*
Y407500D01*
X441350Y410500D02*X442100Y409750D01*
G54D89*X448400Y412000D02*Y411850D01*
G54D88*Y409750D02*Y407500D01*
X449900Y413500D02*Y408250D01*
X450650Y407500D01*
X452900D02*X455150D01*
X455900Y408250D01*
X455150Y409000D02*X455900Y408250D01*
X452900Y409000D02*X455150D01*
X452150Y409750D02*X452900Y409000D01*
X452150Y409750D02*X452900Y410500D01*
X455150D01*
X455900Y409750D01*
X452150Y408250D02*X452900Y407500D01*
X460400Y413500D02*Y407500D01*
Y409750D02*X461150Y410500D01*
X462650D01*
X463400Y409750D01*
Y407500D01*
G54D89*X465200Y412000D02*Y411850D01*
G54D88*Y409750D02*Y407500D01*
X468950Y410500D02*X469700Y409750D01*
X467450Y410500D02*X468950D01*
X466700Y409750D02*X467450Y410500D01*
X466700Y409750D02*Y408250D01*
X467450Y407500D01*
X468950D01*
X469700Y408250D01*
X466700Y406000D02*X467450Y405250D01*
X468950D01*
X469700Y406000D01*
Y410500D02*Y406000D01*
X471500Y413500D02*Y407500D01*
Y409750D02*X472250Y410500D01*
X473750D01*
X474500Y409750D01*
Y407500D01*
X0Y-9500D02*X3000D01*
X3750Y-8750D01*
Y-6950D02*Y-8750D01*
X3000Y-6200D02*X3750Y-6950D01*
X750Y-6200D02*X3000D01*
X750Y-3500D02*Y-9500D01*
X0Y-3500D02*X3000D01*
X3750Y-4250D01*
Y-5450D01*
X3000Y-6200D02*X3750Y-5450D01*
X5550Y-7250D02*Y-8750D01*
Y-7250D02*X6300Y-6500D01*
X7800D01*
X8550Y-7250D01*
Y-8750D01*
X7800Y-9500D02*X8550Y-8750D01*
X6300Y-9500D02*X7800D01*
X5550Y-8750D02*X6300Y-9500D01*
X12600Y-6500D02*X13350Y-7250D01*
X11100Y-6500D02*X12600D01*
X10350Y-7250D02*X11100Y-6500D01*
X10350Y-7250D02*Y-8750D01*
X11100Y-9500D01*
X13350Y-6500D02*Y-8750D01*
X14100Y-9500D01*
X11100D02*X12600D01*
X13350Y-8750D01*
X16650Y-7250D02*Y-9500D01*
Y-7250D02*X17400Y-6500D01*
X18900D01*
X15900D02*X16650Y-7250D01*
X23700Y-3500D02*Y-9500D01*
X22950D02*X23700Y-8750D01*
X21450Y-9500D02*X22950D01*
X20700Y-8750D02*X21450Y-9500D01*
X20700Y-7250D02*Y-8750D01*
Y-7250D02*X21450Y-6500D01*
X22950D01*
X23700Y-7250D01*
X28200D02*Y-8750D01*
Y-7250D02*X28950Y-6500D01*
X30450D01*
X31200Y-7250D01*
Y-8750D01*
X30450Y-9500D02*X31200Y-8750D01*
X28950Y-9500D02*X30450D01*
X28200Y-8750D02*X28950Y-9500D01*
X33000Y-6500D02*Y-8750D01*
X33750Y-9500D01*
X35250D01*
X36000Y-8750D01*
Y-6500D02*Y-8750D01*
X38550Y-3500D02*Y-8750D01*
X39300Y-9500D01*
X37800Y-5750D02*X39300D01*
X40800Y-3500D02*Y-8750D01*
X41550Y-9500D01*
G54D89*X43050Y-5000D02*Y-5150D01*
G54D88*Y-7250D02*Y-9500D01*
X45300Y-7250D02*Y-9500D01*
Y-7250D02*X46050Y-6500D01*
X46800D01*
X47550Y-7250D01*
Y-9500D01*
X44550Y-6500D02*X45300Y-7250D01*
X50100Y-9500D02*X52350D01*
X49350Y-8750D02*X50100Y-9500D01*
X49350Y-7250D02*Y-8750D01*
Y-7250D02*X50100Y-6500D01*
X51600D01*
X52350Y-7250D01*
X49350Y-8000D02*X52350D01*
Y-7250D02*Y-8000D01*
G54D89*X56850Y-5000D02*Y-5150D01*
G54D88*Y-7250D02*Y-9500D01*
X59100D02*X61350D01*
X62100Y-8750D01*
X61350Y-8000D02*X62100Y-8750D01*
X59100Y-8000D02*X61350D01*
X58350Y-7250D02*X59100Y-8000D01*
X58350Y-7250D02*X59100Y-6500D01*
X61350D01*
X62100Y-7250D01*
X58350Y-8750D02*X59100Y-9500D01*
X67350Y-3500D02*Y-8750D01*
X68100Y-9500D01*
X66600Y-5750D02*X68100D01*
X69600Y-3500D02*Y-9500D01*
Y-7250D02*X70350Y-6500D01*
X71850D01*
X72600Y-7250D01*
Y-9500D01*
X75150D02*X77400D01*
X74400Y-8750D02*X75150Y-9500D01*
X74400Y-7250D02*Y-8750D01*
Y-7250D02*X75150Y-6500D01*
X76650D01*
X77400Y-7250D01*
X74400Y-8000D02*X77400D01*
Y-7250D02*Y-8000D01*
X82650Y-6500D02*X84900D01*
X81900Y-7250D02*X82650Y-6500D01*
X81900Y-7250D02*Y-8750D01*
X82650Y-9500D01*
X84900D01*
X87450D02*X89700D01*
X86700Y-8750D02*X87450Y-9500D01*
X86700Y-7250D02*Y-8750D01*
Y-7250D02*X87450Y-6500D01*
X88950D01*
X89700Y-7250D01*
X86700Y-8000D02*X89700D01*
Y-7250D02*Y-8000D01*
X92250Y-7250D02*Y-9500D01*
Y-7250D02*X93000Y-6500D01*
X93750D01*
X94500Y-7250D01*
Y-9500D01*
X91500Y-6500D02*X92250Y-7250D01*
X97050Y-3500D02*Y-8750D01*
X97800Y-9500D01*
X96300Y-5750D02*X97800D01*
X100050Y-9500D02*X102300D01*
X99300Y-8750D02*X100050Y-9500D01*
X99300Y-7250D02*Y-8750D01*
Y-7250D02*X100050Y-6500D01*
X101550D01*
X102300Y-7250D01*
X99300Y-8000D02*X102300D01*
Y-7250D02*Y-8000D01*
X104850Y-7250D02*Y-9500D01*
Y-7250D02*X105600Y-6500D01*
X107100D01*
X104100D02*X104850Y-7250D01*
X108900Y-3500D02*Y-8750D01*
X109650Y-9500D01*
G54D89*X111150Y-5000D02*Y-5150D01*
G54D88*Y-7250D02*Y-9500D01*
X113400Y-7250D02*Y-9500D01*
Y-7250D02*X114150Y-6500D01*
X114900D01*
X115650Y-7250D01*
Y-9500D01*
X112650Y-6500D02*X113400Y-7250D01*
X118200Y-9500D02*X120450D01*
X117450Y-8750D02*X118200Y-9500D01*
X117450Y-7250D02*Y-8750D01*
Y-7250D02*X118200Y-6500D01*
X119700D01*
X120450Y-7250D01*
X117450Y-8000D02*X120450D01*
Y-7250D02*Y-8000D01*
X124950Y-7250D02*Y-8750D01*
Y-7250D02*X125700Y-6500D01*
X127200D01*
X127950Y-7250D01*
Y-8750D01*
X127200Y-9500D02*X127950Y-8750D01*
X125700Y-9500D02*X127200D01*
X124950Y-8750D02*X125700Y-9500D01*
X130500Y-4250D02*Y-9500D01*
Y-4250D02*X131250Y-3500D01*
X132000D01*
X129750Y-6500D02*X131250D01*
X136950Y-3500D02*Y-8750D01*
X137700Y-9500D01*
X136200Y-5750D02*X137700D01*
X139200Y-3500D02*Y-9500D01*
Y-7250D02*X139950Y-6500D01*
X141450D01*
X142200Y-7250D01*
Y-9500D01*
G54D89*X144000Y-5000D02*Y-5150D01*
G54D88*Y-7250D02*Y-9500D01*
X146250D02*X148500D01*
X149250Y-8750D01*
X148500Y-8000D02*X149250Y-8750D01*
X146250Y-8000D02*X148500D01*
X145500Y-7250D02*X146250Y-8000D01*
X145500Y-7250D02*X146250Y-6500D01*
X148500D01*
X149250Y-7250D01*
X145500Y-8750D02*X146250Y-9500D01*
X153750Y-8750D02*X154500Y-9500D01*
X153750Y-7550D02*Y-8750D01*
Y-7550D02*X154800Y-6500D01*
X155700D01*
X156750Y-7550D01*
Y-8750D01*
X156000Y-9500D02*X156750Y-8750D01*
X154500Y-9500D02*X156000D01*
X153750Y-5450D02*X154800Y-6500D01*
X153750Y-4250D02*Y-5450D01*
Y-4250D02*X154500Y-3500D01*
X156000D01*
X156750Y-4250D01*
Y-5450D01*
X155700Y-6500D02*X156750Y-5450D01*
X158550Y-9500D02*X159300D01*
X161100Y-8750D02*X161850Y-9500D01*
X161100Y-4250D02*Y-8750D01*
Y-4250D02*X161850Y-3500D01*
X163350D01*
X164100Y-4250D01*
Y-8750D01*
X163350Y-9500D02*X164100Y-8750D01*
X161850Y-9500D02*X163350D01*
X161100Y-8000D02*X164100Y-5000D01*
X165900Y-8750D02*X166650Y-9500D01*
X165900Y-4250D02*Y-8750D01*
Y-4250D02*X166650Y-3500D01*
X168150D01*
X168900Y-4250D01*
Y-8750D01*
X168150Y-9500D02*X168900Y-8750D01*
X166650Y-9500D02*X168150D01*
X165900Y-8000D02*X168900Y-5000D01*
X170700Y-8750D02*X171450Y-9500D01*
X170700Y-4250D02*Y-8750D01*
Y-4250D02*X171450Y-3500D01*
X172950D01*
X173700Y-4250D01*
Y-8750D01*
X172950Y-9500D02*X173700Y-8750D01*
X171450Y-9500D02*X172950D01*
X170700Y-8000D02*X173700Y-5000D01*
X175500Y-8750D02*X176250Y-9500D01*
X175500Y-4250D02*Y-8750D01*
Y-4250D02*X176250Y-3500D01*
X177750D01*
X178500Y-4250D01*
Y-8750D01*
X177750Y-9500D02*X178500Y-8750D01*
X176250Y-9500D02*X177750D01*
X175500Y-8000D02*X178500Y-5000D01*
X180300Y-8750D02*X181050Y-9500D01*
X180300Y-4250D02*Y-8750D01*
Y-4250D02*X181050Y-3500D01*
X182550D01*
X183300Y-4250D01*
Y-8750D01*
X182550Y-9500D02*X183300Y-8750D01*
X181050Y-9500D02*X182550D01*
X180300Y-8000D02*X183300Y-5000D01*
X185100Y-8750D02*X185850Y-9500D01*
X185100Y-4250D02*Y-8750D01*
Y-4250D02*X185850Y-3500D01*
X187350D01*
X188100Y-4250D01*
Y-8750D01*
X187350Y-9500D02*X188100Y-8750D01*
X185850Y-9500D02*X187350D01*
X185100Y-8000D02*X188100Y-5000D01*
X193350Y-7250D02*Y-9500D01*
Y-7250D02*X194100Y-6500D01*
X194850D01*
X195600Y-7250D01*
Y-9500D01*
Y-7250D02*X196350Y-6500D01*
X197100D01*
X197850Y-7250D01*
Y-9500D01*
X192600Y-6500D02*X193350Y-7250D01*
G54D89*X199650Y-5000D02*Y-5150D01*
G54D88*Y-7250D02*Y-9500D01*
X201150Y-3500D02*Y-8750D01*
X201900Y-9500D01*
X206850Y-7250D02*Y-9500D01*
Y-7250D02*X207600Y-6500D01*
X209100D01*
X206100D02*X206850Y-7250D01*
X211650Y-9500D02*X213900D01*
X210900Y-8750D02*X211650Y-9500D01*
X210900Y-7250D02*Y-8750D01*
Y-7250D02*X211650Y-6500D01*
X213150D01*
X213900Y-7250D01*
X210900Y-8000D02*X213900D01*
Y-7250D02*Y-8000D01*
X216450Y-6500D02*X218700D01*
X215700Y-7250D02*X216450Y-6500D01*
X215700Y-7250D02*Y-8750D01*
X216450Y-9500D01*
X218700D01*
X221250Y-3500D02*Y-8750D01*
X222000Y-9500D01*
X220500Y-5750D02*X222000D01*
X225750Y-6500D02*X226500Y-7250D01*
X224250Y-6500D02*X225750D01*
X223500Y-7250D02*X224250Y-6500D01*
X223500Y-7250D02*Y-8750D01*
X224250Y-9500D01*
X226500Y-6500D02*Y-8750D01*
X227250Y-9500D01*
X224250D02*X225750D01*
X226500Y-8750D01*
X229800Y-7250D02*Y-9500D01*
Y-7250D02*X230550Y-6500D01*
X231300D01*
X232050Y-7250D01*
Y-9500D01*
X229050Y-6500D02*X229800Y-7250D01*
X236100Y-6500D02*X236850Y-7250D01*
X234600Y-6500D02*X236100D01*
X233850Y-7250D02*X234600Y-6500D01*
X233850Y-7250D02*Y-8750D01*
X234600Y-9500D01*
X236100D01*
X236850Y-8750D01*
X233850Y-11000D02*X234600Y-11750D01*
X236100D01*
X236850Y-11000D01*
Y-6500D02*Y-11000D01*
X238650Y-3500D02*Y-8750D01*
X239400Y-9500D01*
X241650D02*X243900D01*
X240900Y-8750D02*X241650Y-9500D01*
X240900Y-7250D02*Y-8750D01*
Y-7250D02*X241650Y-6500D01*
X243150D01*
X243900Y-7250D01*
X240900Y-8000D02*X243900D01*
Y-7250D02*Y-8000D01*
X248400Y-6500D02*X251400D01*
X255900Y-8750D02*X256650Y-9500D01*
X255900Y-4250D02*Y-8750D01*
Y-4250D02*X256650Y-3500D01*
X258150D01*
X258900Y-4250D01*
Y-8750D01*
X258150Y-9500D02*X258900Y-8750D01*
X256650Y-9500D02*X258150D01*
X255900Y-8000D02*X258900Y-5000D01*
X260700Y-11000D02*X262200Y-9500D01*
X264000Y-8750D02*X264750Y-9500D01*
X264000Y-4250D02*Y-8750D01*
Y-4250D02*X264750Y-3500D01*
X266250D01*
X267000Y-4250D01*
Y-8750D01*
X266250Y-9500D02*X267000Y-8750D01*
X264750Y-9500D02*X266250D01*
X264000Y-8000D02*X267000Y-5000D01*
X272250Y-3500D02*Y-8750D01*
X273000Y-9500D01*
X271500Y-5750D02*X273000D01*
X274500Y-7250D02*Y-8750D01*
Y-7250D02*X275250Y-6500D01*
X276750D01*
X277500Y-7250D01*
Y-8750D01*
X276750Y-9500D02*X277500Y-8750D01*
X275250Y-9500D02*X276750D01*
X274500Y-8750D02*X275250Y-9500D01*
X282000Y-4250D02*X282750Y-3500D01*
X285000D01*
X285750Y-4250D01*
Y-5750D01*
X282000Y-9500D02*X285750Y-5750D01*
X282000Y-9500D02*X285750D01*
X289800Y-3500D02*X290550Y-4250D01*
X288300Y-3500D02*X289800D01*
X287550Y-4250D02*X288300Y-3500D01*
X287550Y-4250D02*Y-8750D01*
X288300Y-9500D01*
X289800Y-6200D02*X290550Y-6950D01*
X287550Y-6200D02*X289800D01*
X288300Y-9500D02*X289800D01*
X290550Y-8750D01*
Y-6950D02*Y-8750D01*
X292350D02*X293100Y-9500D01*
X292350Y-4250D02*Y-8750D01*
Y-4250D02*X293100Y-3500D01*
X294600D01*
X295350Y-4250D01*
Y-8750D01*
X294600Y-9500D02*X295350Y-8750D01*
X293100Y-9500D02*X294600D01*
X292350Y-8000D02*X295350Y-5000D01*
X297150Y-8750D02*X297900Y-9500D01*
X297150Y-4250D02*Y-8750D01*
Y-4250D02*X297900Y-3500D01*
X299400D01*
X300150Y-4250D01*
Y-8750D01*
X299400Y-9500D02*X300150Y-8750D01*
X297900Y-9500D02*X299400D01*
X297150Y-8000D02*X300150Y-5000D01*
X301950Y-9500D02*X302700D01*
X304500Y-8750D02*X305250Y-9500D01*
X304500Y-4250D02*Y-8750D01*
Y-4250D02*X305250Y-3500D01*
X306750D01*
X307500Y-4250D01*
Y-8750D01*
X306750Y-9500D02*X307500Y-8750D01*
X305250Y-9500D02*X306750D01*
X304500Y-8000D02*X307500Y-5000D01*
X309300Y-8750D02*X310050Y-9500D01*
X309300Y-4250D02*Y-8750D01*
Y-4250D02*X310050Y-3500D01*
X311550D01*
X312300Y-4250D01*
Y-8750D01*
X311550Y-9500D02*X312300Y-8750D01*
X310050Y-9500D02*X311550D01*
X309300Y-8000D02*X312300Y-5000D01*
X314100Y-8750D02*X314850Y-9500D01*
X314100Y-4250D02*Y-8750D01*
Y-4250D02*X314850Y-3500D01*
X316350D01*
X317100Y-4250D01*
Y-8750D01*
X316350Y-9500D02*X317100Y-8750D01*
X314850Y-9500D02*X316350D01*
X314100Y-8000D02*X317100Y-5000D01*
X318900Y-8750D02*X319650Y-9500D01*
X318900Y-4250D02*Y-8750D01*
Y-4250D02*X319650Y-3500D01*
X321150D01*
X321900Y-4250D01*
Y-8750D01*
X321150Y-9500D02*X321900Y-8750D01*
X319650Y-9500D02*X321150D01*
X318900Y-8000D02*X321900Y-5000D01*
X323700Y-8750D02*X324450Y-9500D01*
X323700Y-4250D02*Y-8750D01*
Y-4250D02*X324450Y-3500D01*
X325950D01*
X326700Y-4250D01*
Y-8750D01*
X325950Y-9500D02*X326700Y-8750D01*
X324450Y-9500D02*X325950D01*
X323700Y-8000D02*X326700Y-5000D01*
X328500Y-8750D02*X329250Y-9500D01*
X328500Y-4250D02*Y-8750D01*
Y-4250D02*X329250Y-3500D01*
X330750D01*
X331500Y-4250D01*
Y-8750D01*
X330750Y-9500D02*X331500Y-8750D01*
X329250Y-9500D02*X330750D01*
X328500Y-8000D02*X331500Y-5000D01*
X333300Y-11000D02*X334800Y-9500D01*
X336600Y-7250D02*X339600Y-3500D01*
X336600Y-7250D02*X340350D01*
X339600Y-3500D02*Y-9500D01*
X342150Y-8750D02*X342900Y-9500D01*
X342150Y-4250D02*Y-8750D01*
Y-4250D02*X342900Y-3500D01*
X344400D01*
X345150Y-4250D01*
Y-8750D01*
X344400Y-9500D02*X345150Y-8750D01*
X342900Y-9500D02*X344400D01*
X342150Y-8000D02*X345150Y-5000D01*
X346950Y-8750D02*X347700Y-9500D01*
X346950Y-4250D02*Y-8750D01*
Y-4250D02*X347700Y-3500D01*
X349200D01*
X349950Y-4250D01*
Y-8750D01*
X349200Y-9500D02*X349950Y-8750D01*
X347700Y-9500D02*X349200D01*
X346950Y-8000D02*X349950Y-5000D01*
X351750Y-8750D02*X352500Y-9500D01*
X351750Y-4250D02*Y-8750D01*
Y-4250D02*X352500Y-3500D01*
X354000D01*
X354750Y-4250D01*
Y-8750D01*
X354000Y-9500D02*X354750Y-8750D01*
X352500Y-9500D02*X354000D01*
X351750Y-8000D02*X354750Y-5000D01*
X356550Y-9500D02*X357300D01*
X359100Y-8750D02*X359850Y-9500D01*
X359100Y-4250D02*Y-8750D01*
Y-4250D02*X359850Y-3500D01*
X361350D01*
X362100Y-4250D01*
Y-8750D01*
X361350Y-9500D02*X362100Y-8750D01*
X359850Y-9500D02*X361350D01*
X359100Y-8000D02*X362100Y-5000D01*
X363900Y-8750D02*X364650Y-9500D01*
X363900Y-4250D02*Y-8750D01*
Y-4250D02*X364650Y-3500D01*
X366150D01*
X366900Y-4250D01*
Y-8750D01*
X366150Y-9500D02*X366900Y-8750D01*
X364650Y-9500D02*X366150D01*
X363900Y-8000D02*X366900Y-5000D01*
X368700Y-8750D02*X369450Y-9500D01*
X368700Y-4250D02*Y-8750D01*
Y-4250D02*X369450Y-3500D01*
X370950D01*
X371700Y-4250D01*
Y-8750D01*
X370950Y-9500D02*X371700Y-8750D01*
X369450Y-9500D02*X370950D01*
X368700Y-8000D02*X371700Y-5000D01*
X373500Y-8750D02*X374250Y-9500D01*
X373500Y-4250D02*Y-8750D01*
Y-4250D02*X374250Y-3500D01*
X375750D01*
X376500Y-4250D01*
Y-8750D01*
X375750Y-9500D02*X376500Y-8750D01*
X374250Y-9500D02*X375750D01*
X373500Y-8000D02*X376500Y-5000D01*
X378300Y-8750D02*X379050Y-9500D01*
X378300Y-4250D02*Y-8750D01*
Y-4250D02*X379050Y-3500D01*
X380550D01*
X381300Y-4250D01*
Y-8750D01*
X380550Y-9500D02*X381300Y-8750D01*
X379050Y-9500D02*X380550D01*
X378300Y-8000D02*X381300Y-5000D01*
X383100Y-8750D02*X383850Y-9500D01*
X383100Y-4250D02*Y-8750D01*
Y-4250D02*X383850Y-3500D01*
X385350D01*
X386100Y-4250D01*
Y-8750D01*
X385350Y-9500D02*X386100Y-8750D01*
X383850Y-9500D02*X385350D01*
X383100Y-8000D02*X386100Y-5000D01*
X391350Y-7250D02*Y-9500D01*
Y-7250D02*X392100Y-6500D01*
X392850D01*
X393600Y-7250D01*
Y-9500D01*
Y-7250D02*X394350Y-6500D01*
X395100D01*
X395850Y-7250D01*
Y-9500D01*
X390600Y-6500D02*X391350Y-7250D01*
G54D89*X397650Y-5000D02*Y-5150D01*
G54D88*Y-7250D02*Y-9500D01*
X399150Y-3500D02*Y-8750D01*
X399900Y-9500D01*
X402150D02*X404400D01*
X405150Y-8750D01*
X404400Y-8000D02*X405150Y-8750D01*
X402150Y-8000D02*X404400D01*
X401400Y-7250D02*X402150Y-8000D01*
X401400Y-7250D02*X402150Y-6500D01*
X404400D01*
X405150Y-7250D01*
X401400Y-8750D02*X402150Y-9500D01*
X200750Y428500D02*Y422500D01*
X202700Y428500D02*X203750Y427450D01*
Y423550D01*
X202700Y422500D02*X203750Y423550D01*
X200000Y422500D02*X202700D01*
X200000Y428500D02*X202700D01*
X207800Y425500D02*X208550Y424750D01*
X206300Y425500D02*X207800D01*
X205550Y424750D02*X206300Y425500D01*
X205550Y424750D02*Y423250D01*
X206300Y422500D01*
X208550Y425500D02*Y423250D01*
X209300Y422500D01*
X206300D02*X207800D01*
X208550Y423250D01*
X211850Y428500D02*Y423250D01*
X212600Y422500D01*
X211100Y426250D02*X212600D01*
X214850Y422500D02*X217100D01*
X214100Y423250D02*X214850Y422500D01*
X214100Y424750D02*Y423250D01*
Y424750D02*X214850Y425500D01*
X216350D01*
X217100Y424750D01*
X214100Y424000D02*X217100D01*
Y424750D02*Y424000D01*
X218900Y426250D02*X219650D01*
X218900Y424750D02*X219650D01*
X224150Y428500D02*Y422500D01*
Y428500D02*X227150D01*
X224150Y425800D02*X226400D01*
X229700Y424750D02*Y422500D01*
Y424750D02*X230450Y425500D01*
X231950D01*
X228950D02*X229700Y424750D01*
G54D89*X233750Y427000D02*Y426850D01*
G54D88*Y424750D02*Y422500D01*
X237950Y423250D02*X238700Y422500D01*
X237950Y427750D02*Y423250D01*
Y427750D02*X238700Y428500D01*
X240200D01*
X240950Y427750D01*
Y423250D01*
X240200Y422500D02*X240950Y423250D01*
X238700Y422500D02*X240200D01*
X237950Y424000D02*X240950Y427000D01*
X242750Y423250D02*X243500Y422500D01*
X242750Y424450D02*Y423250D01*
Y424450D02*X243800Y425500D01*
X244700D01*
X245750Y424450D01*
Y423250D01*
X245000Y422500D02*X245750Y423250D01*
X243500Y422500D02*X245000D01*
X242750Y426550D02*X243800Y425500D01*
X242750Y427750D02*Y426550D01*
Y427750D02*X243500Y428500D01*
X245000D01*
X245750Y427750D01*
Y426550D01*
X244700Y425500D02*X245750Y426550D01*
X251300Y428500D02*X252500D01*
Y423250D01*
X251750Y422500D02*X252500Y423250D01*
X251000Y422500D02*X251750D01*
X250250Y423250D02*X251000Y422500D01*
X250250Y424000D02*Y423250D01*
X254300Y425500D02*Y423250D01*
X255050Y422500D01*
X256550D01*
X257300Y423250D01*
Y425500D02*Y423250D01*
X259850Y424750D02*Y422500D01*
Y424750D02*X260600Y425500D01*
X261350D01*
X262100Y424750D01*
Y422500D01*
X259100Y425500D02*X259850Y424750D01*
X266600Y427750D02*X267350Y428500D01*
X269600D01*
X270350Y427750D01*
Y426250D01*
X266600Y422500D02*X270350Y426250D01*
X266600Y422500D02*X270350D01*
X272150Y423250D02*X272900Y422500D01*
X272150Y427750D02*Y423250D01*
Y427750D02*X272900Y428500D01*
X274400D01*
X275150Y427750D01*
Y423250D01*
X274400Y422500D02*X275150Y423250D01*
X272900Y422500D02*X274400D01*
X272150Y424000D02*X275150Y427000D01*
X276950Y427300D02*X278150Y428500D01*
Y422500D01*
X276950D02*X279200D01*
X281000Y427750D02*X281750Y428500D01*
X284000D01*
X284750Y427750D01*
Y426250D01*
X281000Y422500D02*X284750Y426250D01*
X281000Y422500D02*X284750D01*
X289250Y423250D02*X290000Y422500D01*
X289250Y427750D02*Y423250D01*
Y427750D02*X290000Y428500D01*
X291500D01*
X292250Y427750D01*
Y423250D01*
X291500Y422500D02*X292250Y423250D01*
X290000Y422500D02*X291500D01*
X289250Y424000D02*X292250Y427000D01*
X294050Y423250D02*X294800Y422500D01*
X294050Y424450D02*Y423250D01*
Y424450D02*X295100Y425500D01*
X296000D01*
X297050Y424450D01*
Y423250D01*
X296300Y422500D02*X297050Y423250D01*
X294800Y422500D02*X296300D01*
X294050Y426550D02*X295100Y425500D01*
X294050Y427750D02*Y426550D01*
Y427750D02*X294800Y428500D01*
X296300D01*
X297050Y427750D01*
Y426550D01*
X296000Y425500D02*X297050Y426550D01*
X298850Y426250D02*X299600D01*
X298850Y424750D02*X299600D01*
X301400Y423250D02*X302150Y422500D01*
X301400Y427750D02*Y423250D01*
Y427750D02*X302150Y428500D01*
X303650D01*
X304400Y427750D01*
Y423250D01*
X303650Y422500D02*X304400Y423250D01*
X302150Y422500D02*X303650D01*
X301400Y424000D02*X304400Y427000D01*
X306200Y428500D02*X309200D01*
X306200D02*Y425500D01*
X306950Y426250D01*
X308450D01*
X309200Y425500D01*
Y423250D01*
X308450Y422500D02*X309200Y423250D01*
X306950Y422500D02*X308450D01*
X306200Y423250D02*X306950Y422500D01*
X311000Y426250D02*X311750D01*
X311000Y424750D02*X311750D01*
X313550Y428500D02*X316550D01*
X313550D02*Y425500D01*
X314300Y426250D01*
X315800D01*
X316550Y425500D01*
Y423250D01*
X315800Y422500D02*X316550Y423250D01*
X314300Y422500D02*X315800D01*
X313550Y423250D02*X314300Y422500D01*
X319100D02*X322100Y428500D01*
X318350D02*X322100D01*
X327350D02*Y422500D01*
X326600Y428500D02*X329600D01*
X330350Y427750D01*
Y426250D01*
X329600Y425500D02*X330350Y426250D01*
X327350Y425500D02*X329600D01*
X332150Y428500D02*Y422500D01*
Y428500D02*X334400Y425500D01*
X336650Y428500D01*
Y422500D01*
X344150Y428500D02*X344900Y427750D01*
X341900Y428500D02*X344150D01*
X341150Y427750D02*X341900Y428500D01*
X341150Y427750D02*Y423250D01*
X341900Y422500D01*
X344150D01*
X344900Y423250D01*
Y424750D02*Y423250D01*
X344150Y425500D02*X344900Y424750D01*
X342650Y425500D02*X344150D01*
X346700Y428500D02*Y422500D01*
Y428500D02*X348950Y425500D01*
X351200Y428500D01*
Y422500D01*
X353000Y428500D02*X356000D01*
X354500D02*Y422500D01*
X360500Y428500D02*Y423250D01*
X361250Y422500D01*
X362750D01*
X363500Y423250D01*
Y428500D02*Y423250D01*
X365300Y428500D02*X368300D01*
X366800D02*Y422500D01*
X371150D02*X373100D01*
X370100Y423550D02*X371150Y422500D01*
X370100Y427450D02*Y423550D01*
Y427450D02*X371150Y428500D01*
X373100D01*
X200000Y442000D02*Y437500D01*
Y442000D02*X201050Y443500D01*
X202700D01*
X203750Y442000D01*
Y437500D01*
X200000Y440500D02*X203750D01*
X205550D02*Y438250D01*
X206300Y437500D01*
X207800D01*
X208550Y438250D01*
Y440500D02*Y438250D01*
X211100Y443500D02*Y438250D01*
X211850Y437500D01*
X210350Y441250D02*X211850D01*
X213350Y443500D02*Y437500D01*
Y439750D02*X214100Y440500D01*
X215600D01*
X216350Y439750D01*
Y437500D01*
X218150Y439750D02*Y438250D01*
Y439750D02*X218900Y440500D01*
X220400D01*
X221150Y439750D01*
Y438250D01*
X220400Y437500D02*X221150Y438250D01*
X218900Y437500D02*X220400D01*
X218150Y438250D02*X218900Y437500D01*
X223700Y439750D02*Y437500D01*
Y439750D02*X224450Y440500D01*
X225950D01*
X222950D02*X223700Y439750D01*
X227750Y441250D02*X228500D01*
X227750Y439750D02*X228500D01*
X233000Y440800D02*X235250D01*
X233000Y437500D02*X236000D01*
X233000Y443500D02*Y437500D01*
Y443500D02*X236000D01*
X240800D02*Y437500D01*
X240050D02*X240800Y438250D01*
X238550Y437500D02*X240050D01*
X237800Y438250D02*X238550Y437500D01*
X237800Y439750D02*Y438250D01*
Y439750D02*X238550Y440500D01*
X240050D01*
X240800Y439750D01*
X200000Y458500D02*X203000D01*
X201500D02*Y452500D01*
G54D89*X204800Y457000D02*Y456850D01*
G54D88*Y454750D02*Y452500D01*
X207050Y458500D02*Y453250D01*
X207800Y452500D01*
X206300Y456250D02*X207800D01*
X209300Y458500D02*Y453250D01*
X210050Y452500D01*
X212300D02*X214550D01*
X211550Y453250D02*X212300Y452500D01*
X211550Y454750D02*Y453250D01*
Y454750D02*X212300Y455500D01*
X213800D01*
X214550Y454750D01*
X211550Y454000D02*X214550D01*
Y454750D02*Y454000D01*
X216350Y456250D02*X217100D01*
X216350Y454750D02*X217100D01*
X221600Y453250D02*X222350Y452500D01*
X221600Y457750D02*X222350Y458500D01*
X221600Y457750D02*Y453250D01*
X224150Y455500D02*Y453250D01*
X224900Y452500D01*
X226400D01*
X227150Y453250D01*
Y455500D02*Y453250D01*
X229700Y454750D02*Y452500D01*
Y454750D02*X230450Y455500D01*
X231200D01*
X231950Y454750D01*
Y452500D01*
X228950Y455500D02*X229700Y454750D01*
X233750Y458500D02*Y452500D01*
Y454750D02*X236000Y452500D01*
X233750Y454750D02*X235250Y456250D01*
X238550Y454750D02*Y452500D01*
Y454750D02*X239300Y455500D01*
X240050D01*
X240800Y454750D01*
Y452500D01*
X237800Y455500D02*X238550Y454750D01*
X242600D02*Y453250D01*
Y454750D02*X243350Y455500D01*
X244850D01*
X245600Y454750D01*
Y453250D01*
X244850Y452500D02*X245600Y453250D01*
X243350Y452500D02*X244850D01*
X242600Y453250D02*X243350Y452500D01*
X247400Y455500D02*Y453250D01*
X248150Y452500D01*
X248900D01*
X249650Y453250D01*
Y455500D02*Y453250D01*
X250400Y452500D01*
X251150D01*
X251900Y453250D01*
Y455500D02*Y453250D01*
X254450Y454750D02*Y452500D01*
Y454750D02*X255200Y455500D01*
X255950D01*
X256700Y454750D01*
Y452500D01*
X253700Y455500D02*X254450Y454750D01*
X258500Y458500D02*X259250Y457750D01*
Y453250D01*
X258500Y452500D02*X259250Y453250D01*
X263750Y455500D02*X266750D01*
X271250Y458500D02*Y452500D01*
Y458500D02*X274250D01*
X271250Y455800D02*X273500D01*
X278300Y455500D02*X279050Y454750D01*
X276800Y455500D02*X278300D01*
X276050Y454750D02*X276800Y455500D01*
X276050Y454750D02*Y453250D01*
X276800Y452500D01*
X279050Y455500D02*Y453250D01*
X279800Y452500D01*
X276800D02*X278300D01*
X279050Y453250D01*
X281600Y458500D02*Y452500D01*
Y453250D02*X282350Y452500D01*
X283850D01*
X284600Y453250D01*
Y454750D02*Y453250D01*
X283850Y455500D02*X284600Y454750D01*
X282350Y455500D02*X283850D01*
X281600Y454750D02*X282350Y455500D01*
X287150Y454750D02*Y452500D01*
Y454750D02*X287900Y455500D01*
X289400D01*
X286400D02*X287150Y454750D01*
G54D89*X291200Y457000D02*Y456850D01*
G54D88*Y454750D02*Y452500D01*
X293450Y455500D02*X295700D01*
X292700Y454750D02*X293450Y455500D01*
X292700Y454750D02*Y453250D01*
X293450Y452500D01*
X295700D01*
X299750Y455500D02*X300500Y454750D01*
X298250Y455500D02*X299750D01*
X297500Y454750D02*X298250Y455500D01*
X297500Y454750D02*Y453250D01*
X298250Y452500D01*
X300500Y455500D02*Y453250D01*
X301250Y452500D01*
X298250D02*X299750D01*
X300500Y453250D01*
X303800Y458500D02*Y453250D01*
X304550Y452500D01*
X303050Y456250D02*X304550D01*
G54D89*X306050Y457000D02*Y456850D01*
G54D88*Y454750D02*Y452500D01*
X307550Y454750D02*Y453250D01*
Y454750D02*X308300Y455500D01*
X309800D01*
X310550Y454750D01*
Y453250D01*
X309800Y452500D02*X310550Y453250D01*
X308300Y452500D02*X309800D01*
X307550Y453250D02*X308300Y452500D01*
X313100Y454750D02*Y452500D01*
Y454750D02*X313850Y455500D01*
X314600D01*
X315350Y454750D01*
Y452500D01*
X312350Y455500D02*X313100Y454750D01*
X320600Y458500D02*Y452500D01*
X322550Y458500D02*X323600Y457450D01*
Y453550D01*
X322550Y452500D02*X323600Y453550D01*
X319850Y452500D02*X322550D01*
X319850Y458500D02*X322550D01*
X326150Y454750D02*Y452500D01*
Y454750D02*X326900Y455500D01*
X328400D01*
X325400D02*X326150Y454750D01*
X332450Y455500D02*X333200Y454750D01*
X330950Y455500D02*X332450D01*
X330200Y454750D02*X330950Y455500D01*
X330200Y454750D02*Y453250D01*
X330950Y452500D01*
X333200Y455500D02*Y453250D01*
X333950Y452500D01*
X330950D02*X332450D01*
X333200Y453250D01*
X335750Y455500D02*Y453250D01*
X336500Y452500D01*
X337250D01*
X338000Y453250D01*
Y455500D02*Y453250D01*
X338750Y452500D01*
X339500D01*
X340250Y453250D01*
Y455500D02*Y453250D01*
G54D89*X342050Y457000D02*Y456850D01*
G54D88*Y454750D02*Y452500D01*
X344300Y454750D02*Y452500D01*
Y454750D02*X345050Y455500D01*
X345800D01*
X346550Y454750D01*
Y452500D01*
X343550Y455500D02*X344300Y454750D01*
X350600Y455500D02*X351350Y454750D01*
X349100Y455500D02*X350600D01*
X348350Y454750D02*X349100Y455500D01*
X348350Y454750D02*Y453250D01*
X349100Y452500D01*
X350600D01*
X351350Y453250D01*
X348350Y451000D02*X349100Y450250D01*
X350600D01*
X351350Y451000D01*
Y455500D02*Y451000D01*
M02*
