G04 start of page 2 for group 0 idx 0 *
G04 Title: (unknown), component *
G04 Creator: pcb 20091103 *
G04 CreationDate: Tue 03 Apr 2012 04:10:51 AM GMT UTC *
G04 For: ed *
G04 Format: Gerber/RS-274X *
G04 PCB-Dimensions: 600000 500000 *
G04 PCB-Coordinate-Origin: lower left *
%MOIN*%
%FSLAX25Y25*%
%LNFRONT*%
%ADD11C,0.0200*%
%ADD12C,0.0250*%
%ADD13C,0.0160*%
%ADD14C,0.0600*%
%ADD16C,0.0900*%
%ADD17C,0.1500*%
%ADD18C,0.0800*%
%ADD19C,0.0680*%
%ADD20C,0.0720*%
%ADD21C,0.0550*%
%ADD22C,0.0380*%
%ADD23C,0.0280*%
%ADD24C,0.1300*%
%ADD25C,0.0300*%
%ADD26C,0.0150*%
%ADD27C,0.0420*%
%ADD28C,0.0350*%
G54D11*G36*
X320000Y484685D02*X330000D01*
Y224685D01*
X320000D01*
Y315000D01*
X320868Y315076D01*
X321710Y315302D01*
X322500Y315670D01*
X323214Y316170D01*
X323830Y316786D01*
X324330Y317500D01*
X324698Y318290D01*
X324924Y319132D01*
X325000Y320000D01*
X324924Y320868D01*
X324698Y321710D01*
X324330Y322500D01*
X323830Y323214D01*
X323214Y323830D01*
X322500Y324330D01*
X321710Y324698D01*
X320868Y324924D01*
X320000Y325000D01*
Y334685D01*
X320868Y334761D01*
X321710Y334987D01*
X322500Y335355D01*
X323214Y335855D01*
X323830Y336471D01*
X324330Y337185D01*
X324698Y337975D01*
X324924Y338817D01*
X325000Y339685D01*
X324924Y340553D01*
X324698Y341395D01*
X324330Y342185D01*
X323830Y342899D01*
X323214Y343515D01*
X322500Y344015D01*
X321710Y344383D01*
X320868Y344609D01*
X320000Y344685D01*
Y365185D01*
X320781Y365253D01*
X321539Y365456D01*
X322250Y365788D01*
X322893Y366238D01*
X323447Y366792D01*
X323897Y367435D01*
X324229Y368146D01*
X324432Y368904D01*
X324500Y369685D01*
X324432Y370466D01*
X324229Y371224D01*
X323897Y371935D01*
X323447Y372578D01*
X322893Y373132D01*
X322250Y373582D01*
X321539Y373914D01*
X320781Y374117D01*
X320000Y374185D01*
Y375185D01*
X323000D01*
X323260Y375208D01*
X323513Y375275D01*
X323750Y375386D01*
X323964Y375536D01*
X324149Y375721D01*
X324299Y375935D01*
X324410Y376172D01*
X324477Y376425D01*
X324500Y376685D01*
Y382685D01*
X324477Y382945D01*
X324410Y383198D01*
X324299Y383435D01*
X324149Y383649D01*
X323964Y383834D01*
X323750Y383984D01*
X323513Y384095D01*
X323260Y384162D01*
X323000Y384185D01*
X320000D01*
Y394405D01*
X320196Y394685D01*
X320638Y395633D01*
X320909Y396643D01*
X321000Y397685D01*
X320909Y398727D01*
X320638Y399737D01*
X320196Y400685D01*
X320000Y400965D01*
Y484685D01*
G37*
G36*
Y224685D02*X310000D01*
Y355685D01*
X310695Y355746D01*
X311368Y355926D01*
X312000Y356221D01*
X312571Y356621D01*
X313064Y357114D01*
X313464Y357685D01*
X313759Y358317D01*
X313939Y358990D01*
X314000Y359685D01*
X313939Y360380D01*
X313759Y361053D01*
X313464Y361685D01*
X313064Y362256D01*
X312571Y362749D01*
X312000Y363149D01*
X311368Y363444D01*
X310695Y363624D01*
X310000Y363685D01*
Y394405D01*
X310404Y393828D01*
X311143Y393089D01*
X312000Y392489D01*
X312948Y392047D01*
X313958Y391776D01*
X315000Y391685D01*
X316042Y391776D01*
X317052Y392047D01*
X318000Y392489D01*
X318857Y393089D01*
X319596Y393828D01*
X320000Y394405D01*
Y384185D01*
X317000D01*
X316740Y384162D01*
X316487Y384095D01*
X316250Y383984D01*
X316036Y383834D01*
X315851Y383649D01*
X315701Y383435D01*
X315590Y383198D01*
X315523Y382945D01*
X315500Y382685D01*
Y376685D01*
X315523Y376425D01*
X315590Y376172D01*
X315701Y375935D01*
X315851Y375721D01*
X316036Y375536D01*
X316250Y375386D01*
X316487Y375275D01*
X316740Y375208D01*
X317000Y375185D01*
X320000D01*
Y374185D01*
X319219Y374117D01*
X318461Y373914D01*
X317750Y373582D01*
X317107Y373132D01*
X316553Y372578D01*
X316103Y371935D01*
X315771Y371224D01*
X315568Y370466D01*
X315500Y369685D01*
X315568Y368904D01*
X315771Y368146D01*
X316103Y367435D01*
X316553Y366792D01*
X317107Y366238D01*
X317750Y365788D01*
X318461Y365456D01*
X319219Y365253D01*
X320000Y365185D01*
Y344685D01*
X319132Y344609D01*
X318290Y344383D01*
X317500Y344015D01*
X316786Y343515D01*
X316170Y342899D01*
X315670Y342185D01*
X315302Y341395D01*
X315076Y340553D01*
X315000Y339685D01*
X315076Y338817D01*
X315302Y337975D01*
X315670Y337185D01*
X316170Y336471D01*
X316786Y335855D01*
X317500Y335355D01*
X318290Y334987D01*
X319132Y334761D01*
X320000Y334685D01*
Y325000D01*
X319132Y324924D01*
X318290Y324698D01*
X317500Y324330D01*
X316786Y323830D01*
X316170Y323214D01*
X315670Y322500D01*
X315302Y321710D01*
X315076Y320868D01*
X315000Y320000D01*
X315076Y319132D01*
X315302Y318290D01*
X315670Y317500D01*
X316170Y316786D01*
X316786Y316170D01*
X317500Y315670D01*
X318290Y315302D01*
X319132Y315076D01*
X320000Y315000D01*
Y224685D01*
G37*
G36*
X310000D02*X300000D01*
Y264185D01*
X300955Y264269D01*
X301881Y264517D01*
X302750Y264922D01*
X303535Y265472D01*
X304213Y266150D01*
X304763Y266935D01*
X305168Y267804D01*
X305416Y268730D01*
X305500Y269685D01*
X305416Y270640D01*
X305168Y271566D01*
X304763Y272435D01*
X304213Y273220D01*
X303535Y273898D01*
X302750Y274448D01*
X301881Y274853D01*
X300955Y275101D01*
X300000Y275185D01*
Y314185D01*
X304000D01*
X304260Y314208D01*
X304513Y314275D01*
X304750Y314386D01*
X304964Y314536D01*
X305149Y314721D01*
X305299Y314935D01*
X305410Y315172D01*
X305477Y315425D01*
X305500Y315685D01*
Y323685D01*
X305477Y323945D01*
X305410Y324198D01*
X305299Y324435D01*
X305149Y324649D01*
X304964Y324834D01*
X304750Y324984D01*
X304513Y325095D01*
X304260Y325162D01*
X304000Y325185D01*
X300000D01*
Y361505D01*
X306590Y368095D01*
X306591Y368094D01*
X306654Y368169D01*
X306724Y368239D01*
X306779Y368318D01*
X306843Y368394D01*
X306891Y368478D01*
X306949Y368560D01*
X306992Y368652D01*
X307039Y368734D01*
X307072Y368825D01*
X307114Y368915D01*
X307141Y369014D01*
X307173Y369103D01*
X307189Y369193D01*
X307216Y369294D01*
X307225Y369399D01*
X307241Y369489D01*
Y369581D01*
X307250Y369685D01*
Y392139D01*
X308000Y392489D01*
X308857Y393089D01*
X309596Y393828D01*
X310000Y394405D01*
Y363685D01*
X309305Y363624D01*
X308632Y363444D01*
X308000Y363149D01*
X307429Y362749D01*
X306936Y362256D01*
X306536Y361685D01*
X306241Y361053D01*
X306061Y360380D01*
X306000Y359685D01*
X306061Y358990D01*
X306241Y358317D01*
X306536Y357685D01*
X306936Y357114D01*
X307429Y356621D01*
X308000Y356221D01*
X308632Y355926D01*
X309305Y355746D01*
X310000Y355685D01*
Y224685D01*
G37*
G36*
X300000Y325185D02*X296000D01*
X295740Y325162D01*
X295487Y325095D01*
X295250Y324984D01*
X295036Y324834D01*
X294851Y324649D01*
X294701Y324435D01*
X294590Y324198D01*
X294523Y323945D01*
X294500Y323685D01*
Y321935D01*
X282250D01*
Y337435D01*
X285663D01*
X285756Y337235D01*
X286246Y336535D01*
X286850Y335931D01*
X287550Y335441D01*
X288324Y335081D01*
X289149Y334859D01*
X290000Y334785D01*
X290851Y334859D01*
X291676Y335081D01*
X292450Y335441D01*
X293150Y335931D01*
X293754Y336535D01*
X294244Y337235D01*
X294604Y338009D01*
X294826Y338834D01*
X294900Y339685D01*
X294826Y340536D01*
X294604Y341361D01*
X294244Y342135D01*
X293754Y342835D01*
X293150Y343439D01*
X292450Y343929D01*
X291676Y344289D01*
X290851Y344511D01*
X290000Y344585D01*
X289149Y344511D01*
X288324Y344289D01*
X287550Y343929D01*
X286850Y343439D01*
X286246Y342835D01*
X285756Y342135D01*
X285663Y341935D01*
X282250D01*
Y357435D01*
X295000D01*
X295115Y357445D01*
X295196D01*
X295275Y357459D01*
X295391Y357469D01*
X295504Y357499D01*
X295582Y357513D01*
X295660Y357541D01*
X295770Y357571D01*
X295872Y357618D01*
X295950Y357647D01*
X296019Y357687D01*
X296125Y357736D01*
X296221Y357803D01*
X296290Y357843D01*
X296352Y357895D01*
X296446Y357961D01*
X296527Y358042D01*
X296590Y358095D01*
X300000Y361505D01*
Y325185D01*
G37*
G36*
Y224685D02*X225000D01*
Y272435D01*
X280000D01*
X280391Y272469D01*
X280770Y272571D01*
X281125Y272736D01*
X281446Y272961D01*
X281724Y273239D01*
X281949Y273560D01*
X282114Y273915D01*
X282216Y274294D01*
X282250Y274685D01*
Y317435D01*
X294500D01*
Y315685D01*
X294523Y315425D01*
X294590Y315172D01*
X294701Y314935D01*
X294851Y314721D01*
X295036Y314536D01*
X295250Y314386D01*
X295487Y314275D01*
X295740Y314208D01*
X296000Y314185D01*
X300000D01*
Y275185D01*
X299045Y275101D01*
X298119Y274853D01*
X297250Y274448D01*
X296465Y273898D01*
X295787Y273220D01*
X295237Y272435D01*
X294832Y271566D01*
X294584Y270640D01*
X294500Y269685D01*
X294584Y268730D01*
X294832Y267804D01*
X295237Y266935D01*
X295787Y266150D01*
X296465Y265472D01*
X297250Y264922D01*
X298119Y264517D01*
X299045Y264269D01*
X300000Y264185D01*
Y224685D01*
G37*
G36*
X290000Y391772D02*X290240Y391708D01*
X290500Y391685D01*
X299500D01*
X299760Y391708D01*
X300013Y391775D01*
X300250Y391886D01*
X300464Y392036D01*
X300649Y392221D01*
X300799Y392435D01*
X300910Y392672D01*
X300977Y392925D01*
X301000Y393185D01*
Y393232D01*
X301143Y393089D01*
X302000Y392489D01*
X302750Y392139D01*
Y370617D01*
X294068Y361935D01*
X290000D01*
Y374785D01*
X293400D01*
X293660Y374808D01*
X293913Y374875D01*
X294150Y374986D01*
X294364Y375136D01*
X294549Y375321D01*
X294699Y375535D01*
X294810Y375772D01*
X294877Y376025D01*
X294900Y376285D01*
Y383085D01*
X294877Y383345D01*
X294810Y383598D01*
X294699Y383835D01*
X294549Y384049D01*
X294364Y384234D01*
X294150Y384384D01*
X293913Y384495D01*
X293660Y384562D01*
X293400Y384585D01*
X290000D01*
Y391772D01*
G37*
G36*
X312502Y484685D02*X320000D01*
Y400965D01*
X319596Y401542D01*
X318857Y402281D01*
X318000Y402881D01*
X317052Y403323D01*
X316042Y403594D01*
X315000Y403685D01*
X313958Y403594D01*
X312948Y403323D01*
X312502Y403115D01*
Y459720D01*
X312894Y460365D01*
X313260Y461113D01*
X313555Y461893D01*
X313777Y462696D01*
X313923Y463517D01*
X313993Y464347D01*
X313986Y465181D01*
X313902Y466010D01*
X313741Y466828D01*
X313505Y467627D01*
X313197Y468401D01*
X312818Y469144D01*
X312502Y469643D01*
Y484685D01*
G37*
G36*
X304940D02*X312502D01*
Y469643D01*
X312372Y469848D01*
X312373Y469849D01*
X312289Y469949D01*
X312189Y470033D01*
X312075Y470099D01*
X311952Y470143D01*
X311823Y470166D01*
X311692D01*
X311563Y470143D01*
X311440Y470098D01*
X311327Y470033D01*
X311227Y469949D01*
X311143Y469849D01*
X311077Y469735D01*
X311033Y469612D01*
X311010Y469483D01*
Y469352D01*
X311033Y469223D01*
X311078Y469100D01*
X311143Y468987D01*
X311515Y468401D01*
X311830Y467782D01*
X312088Y467137D01*
X312284Y466471D01*
X312418Y465789D01*
X312488Y465098D01*
X312494Y464404D01*
X312436Y463712D01*
X312314Y463028D01*
X312129Y462358D01*
X311883Y461709D01*
X311579Y461085D01*
X311217Y460492D01*
Y460491D01*
X311154Y460377D01*
X311111Y460253D01*
X311091Y460124D01*
X311093Y459993D01*
X311118Y459865D01*
X311165Y459743D01*
X311233Y459631D01*
X311318Y459532D01*
X311420Y459450D01*
X311534Y459387D01*
X311658Y459344D01*
X311787Y459324D01*
X311918Y459326D01*
X312046Y459351D01*
X312168Y459398D01*
X312280Y459466D01*
X312379Y459551D01*
X312461Y459653D01*
X312502Y459720D01*
Y403115D01*
X312000Y402881D01*
X311143Y402281D01*
X310404Y401542D01*
X310000Y400965D01*
X309596Y401542D01*
X308857Y402281D01*
X308000Y402881D01*
X307052Y403323D01*
X306042Y403594D01*
X305000Y403685D01*
X304940Y403680D01*
Y455694D01*
X305495Y455699D01*
X306324Y455783D01*
X307142Y455944D01*
X307941Y456180D01*
X308715Y456488D01*
X309458Y456867D01*
X310162Y457313D01*
X310163Y457312D01*
X310263Y457396D01*
X310347Y457496D01*
X310413Y457610D01*
X310457Y457733D01*
X310480Y457862D01*
Y457993D01*
X310457Y458122D01*
X310412Y458245D01*
X310347Y458358D01*
X310263Y458458D01*
X310163Y458542D01*
X310049Y458608D01*
X309926Y458652D01*
X309797Y458675D01*
X309666D01*
X309537Y458652D01*
X309414Y458607D01*
X309301Y458542D01*
X308715Y458170D01*
X308096Y457855D01*
X307451Y457597D01*
X306785Y457401D01*
X306103Y457267D01*
X305412Y457197D01*
X304940Y457193D01*
Y472177D01*
X305281Y472180D01*
X305973Y472122D01*
X306657Y472000D01*
X307327Y471815D01*
X307976Y471569D01*
X308600Y471265D01*
X309193Y470903D01*
X309194D01*
X309308Y470840D01*
X309432Y470797D01*
X309561Y470777D01*
X309692Y470779D01*
X309820Y470804D01*
X309942Y470851D01*
X310054Y470919D01*
X310153Y471004D01*
X310235Y471106D01*
X310298Y471220D01*
X310341Y471344D01*
X310361Y471473D01*
X310359Y471604D01*
X310334Y471732D01*
X310287Y471854D01*
X310219Y471966D01*
X310134Y472065D01*
X310032Y472147D01*
X309320Y472580D01*
X308572Y472946D01*
X307792Y473241D01*
X306989Y473463D01*
X306168Y473609D01*
X305338Y473679D01*
X304940Y473676D01*
Y484685D01*
G37*
G36*
X297498D02*X304940D01*
Y473676D01*
X304504Y473672D01*
X303675Y473588D01*
X302857Y473427D01*
X302058Y473191D01*
X301284Y472883D01*
X300541Y472504D01*
X299837Y472058D01*
X299836Y472059D01*
X299736Y471975D01*
X299652Y471875D01*
X299586Y471761D01*
X299542Y471638D01*
X299519Y471509D01*
Y471378D01*
X299542Y471249D01*
X299587Y471126D01*
X299652Y471013D01*
X299736Y470913D01*
X299836Y470829D01*
X299950Y470763D01*
X300073Y470719D01*
X300202Y470696D01*
X300333D01*
X300462Y470719D01*
X300585Y470764D01*
X300698Y470829D01*
X301284Y471201D01*
X301903Y471516D01*
X302548Y471774D01*
X303214Y471970D01*
X303896Y472104D01*
X304587Y472174D01*
X304940Y472177D01*
Y457193D01*
X304718Y457191D01*
X304026Y457249D01*
X303342Y457371D01*
X302672Y457556D01*
X302023Y457802D01*
X301399Y458106D01*
X300806Y458468D01*
X300805D01*
X300691Y458531D01*
X300567Y458574D01*
X300438Y458594D01*
X300307Y458592D01*
X300179Y458567D01*
X300057Y458520D01*
X299945Y458452D01*
X299846Y458367D01*
X299764Y458265D01*
X299701Y458151D01*
X299658Y458027D01*
X299638Y457898D01*
X299640Y457767D01*
X299665Y457639D01*
X299712Y457517D01*
X299780Y457405D01*
X299865Y457306D01*
X299967Y457224D01*
X300679Y456791D01*
X301427Y456425D01*
X302207Y456130D01*
X303010Y455908D01*
X303831Y455762D01*
X304661Y455692D01*
X304940Y455694D01*
Y403680D01*
X303958Y403594D01*
X302948Y403323D01*
X302000Y402881D01*
X301143Y402281D01*
X301000Y402138D01*
Y402185D01*
X300977Y402445D01*
X300910Y402698D01*
X300799Y402935D01*
X300649Y403149D01*
X300464Y403334D01*
X300250Y403484D01*
X300013Y403595D01*
X299760Y403662D01*
X299500Y403685D01*
X297498D01*
Y459727D01*
X297627Y459523D01*
X297626Y459522D01*
X297710Y459422D01*
X297810Y459338D01*
X297924Y459272D01*
X298047Y459228D01*
X298176Y459205D01*
X298307D01*
X298436Y459228D01*
X298559Y459273D01*
X298672Y459338D01*
X298772Y459422D01*
X298856Y459522D01*
X298922Y459636D01*
X298966Y459759D01*
X298989Y459888D01*
Y460019D01*
X298966Y460148D01*
X298921Y460271D01*
X298856Y460384D01*
X298484Y460970D01*
X298169Y461589D01*
X297911Y462234D01*
X297715Y462900D01*
X297581Y463582D01*
X297511Y464273D01*
X297505Y464967D01*
X297563Y465659D01*
X297685Y466343D01*
X297870Y467013D01*
X298116Y467662D01*
X298420Y468286D01*
X298782Y468879D01*
Y468880D01*
X298845Y468994D01*
X298888Y469118D01*
X298908Y469247D01*
X298906Y469378D01*
X298881Y469506D01*
X298834Y469628D01*
X298766Y469740D01*
X298681Y469839D01*
X298579Y469921D01*
X298465Y469984D01*
X298341Y470027D01*
X298212Y470047D01*
X298081Y470045D01*
X297953Y470020D01*
X297831Y469973D01*
X297719Y469905D01*
X297620Y469820D01*
X297538Y469718D01*
X297498Y469652D01*
Y484685D01*
G37*
G36*
X290000D02*X297498D01*
Y469652D01*
X297105Y469006D01*
X296739Y468258D01*
X296444Y467478D01*
X296222Y466675D01*
X296076Y465854D01*
X296006Y465024D01*
X296013Y464190D01*
X296097Y463361D01*
X296258Y462543D01*
X296494Y461744D01*
X296802Y460970D01*
X297181Y460227D01*
X297498Y459727D01*
Y403685D01*
X290500D01*
X290240Y403662D01*
X290000Y403598D01*
Y484685D01*
G37*
G36*
X270000Y347435D02*X277750D01*
Y276935D01*
X270000D01*
Y347435D01*
G37*
G36*
X274150Y484685D02*X290000D01*
Y403598D01*
X289987Y403595D01*
X289750Y403484D01*
X289536Y403334D01*
X289351Y403149D01*
X289201Y402935D01*
X289090Y402698D01*
X289023Y402445D01*
X289000Y402185D01*
Y393185D01*
X289023Y392925D01*
X289090Y392672D01*
X289201Y392435D01*
X289351Y392221D01*
X289536Y392036D01*
X289750Y391886D01*
X289987Y391775D01*
X290000Y391772D01*
Y384585D01*
X286600D01*
X286340Y384562D01*
X286087Y384495D01*
X285850Y384384D01*
X285636Y384234D01*
X285451Y384049D01*
X285301Y383835D01*
X285190Y383598D01*
X285123Y383345D01*
X285100Y383085D01*
Y376285D01*
X285123Y376025D01*
X285190Y375772D01*
X285301Y375535D01*
X285451Y375321D01*
X285636Y375136D01*
X285850Y374986D01*
X286087Y374875D01*
X286340Y374808D01*
X286600Y374785D01*
X290000D01*
Y361935D01*
X280000D01*
X279609Y361901D01*
X279230Y361799D01*
X278875Y361634D01*
X278554Y361409D01*
X278276Y361131D01*
X278051Y360810D01*
X277886Y360455D01*
X277784Y360076D01*
X277750Y359685D01*
Y351935D01*
X274150D01*
Y374101D01*
X274244Y374235D01*
X274604Y375009D01*
X274826Y375834D01*
X274900Y376685D01*
X274826Y377536D01*
X274604Y378361D01*
X274244Y379135D01*
X274150Y379269D01*
Y414035D01*
X274900D01*
Y419335D01*
X274150D01*
Y484685D01*
G37*
G36*
Y351935D02*X270000D01*
Y371785D01*
X270851Y371859D01*
X271676Y372081D01*
X272450Y372441D01*
X273150Y372931D01*
X273754Y373535D01*
X274150Y374101D01*
Y351935D01*
G37*
G36*
X270000Y484685D02*X274150D01*
Y419335D01*
X273400D01*
Y414035D01*
X274150D01*
Y379269D01*
X273754Y379835D01*
X273150Y380439D01*
X272450Y380929D01*
X271676Y381289D01*
X270851Y381511D01*
X270000Y381585D01*
Y411785D01*
X272650D01*
Y413285D01*
X270000D01*
Y420085D01*
X272650D01*
Y421585D01*
X270000D01*
Y484685D01*
G37*
G36*
X268613Y345322D02*X268750Y345386D01*
X268964Y345536D01*
X269149Y345721D01*
X269299Y345935D01*
X269410Y346172D01*
X269477Y346425D01*
X269500Y346685D01*
Y347435D01*
X270000D01*
Y276935D01*
X268613D01*
Y337545D01*
X268708Y337567D01*
X268829Y337618D01*
X268938Y337690D01*
X269034Y337779D01*
X269113Y337883D01*
X269172Y338000D01*
X269314Y338407D01*
X269417Y338827D01*
X269479Y339254D01*
X269500Y339685D01*
X269479Y340117D01*
X269417Y340544D01*
X269314Y340964D01*
X269172Y341371D01*
X269171D01*
X269112Y341487D01*
X269033Y341592D01*
X268937Y341681D01*
X268828Y341752D01*
X268707Y341803D01*
X268613Y341824D01*
Y345322D01*
G37*
G36*
X265850Y345185D02*X268000D01*
X268260Y345208D01*
X268513Y345275D01*
X268613Y345322D01*
Y341824D01*
X268580Y341832D01*
X268450Y341839D01*
X268320Y341823D01*
X268195Y341785D01*
X268079Y341726D01*
X267974Y341647D01*
X267885Y341551D01*
X267814Y341442D01*
X267763Y341321D01*
X267734Y341194D01*
X267727Y341064D01*
X267743Y340934D01*
X267781Y340809D01*
X267876Y340538D01*
X267944Y340258D01*
X267986Y339973D01*
X268000Y339685D01*
X267986Y339398D01*
X267944Y339113D01*
X267876Y338833D01*
X267781Y338562D01*
X267780D01*
X267742Y338437D01*
X267726Y338307D01*
X267733Y338176D01*
X267762Y338049D01*
X267813Y337928D01*
X267885Y337819D01*
X267974Y337723D01*
X268078Y337644D01*
X268195Y337585D01*
X268320Y337547D01*
X268450Y337531D01*
X268581Y337538D01*
X268613Y337545D01*
Y276935D01*
X265850D01*
Y335267D01*
X265858Y335268D01*
X266278Y335371D01*
X266685Y335513D01*
Y335514D01*
X266801Y335573D01*
X266906Y335652D01*
X266995Y335748D01*
X267066Y335857D01*
X267117Y335978D01*
X267146Y336105D01*
X267153Y336235D01*
X267137Y336365D01*
X267099Y336490D01*
X267040Y336606D01*
X266961Y336711D01*
X266865Y336800D01*
X266756Y336871D01*
X266635Y336922D01*
X266508Y336951D01*
X266378Y336958D01*
X266248Y336942D01*
X266123Y336904D01*
X265852Y336809D01*
X265850D01*
Y342562D01*
X265852D01*
X266123Y342467D01*
Y342466D01*
X266248Y342428D01*
X266378Y342412D01*
X266509Y342419D01*
X266636Y342448D01*
X266757Y342499D01*
X266866Y342571D01*
X266962Y342660D01*
X267041Y342764D01*
X267100Y342881D01*
X267138Y343006D01*
X267154Y343136D01*
X267147Y343267D01*
X267118Y343394D01*
X267067Y343515D01*
X266995Y343624D01*
X266906Y343720D01*
X266802Y343799D01*
X266685Y343858D01*
X266278Y344000D01*
X265858Y344103D01*
X265850Y344104D01*
Y345185D01*
G37*
G36*
Y374101D02*X266246Y373535D01*
X266850Y372931D01*
X267550Y372441D01*
X268324Y372081D01*
X269149Y371859D01*
X270000Y371785D01*
Y351935D01*
X269500D01*
Y352685D01*
X269477Y352945D01*
X269410Y353198D01*
X269299Y353435D01*
X269149Y353649D01*
X268964Y353834D01*
X268750Y353984D01*
X268513Y354095D01*
X268260Y354162D01*
X268000Y354185D01*
X265850D01*
Y374101D01*
G37*
G36*
Y484685D02*X270000D01*
Y421585D01*
X267350D01*
Y420085D01*
X270000D01*
Y413285D01*
X267350D01*
Y411785D01*
X270000D01*
Y381585D01*
X269149Y381511D01*
X268324Y381289D01*
X267550Y380929D01*
X266850Y380439D01*
X266246Y379835D01*
X265850Y379269D01*
Y414035D01*
X266600D01*
Y419335D01*
X265850D01*
Y484685D01*
G37*
G36*
X261387Y345322D02*X261487Y345275D01*
X261740Y345208D01*
X262000Y345185D01*
X265850D01*
Y344104D01*
X265431Y344165D01*
X265000Y344185D01*
X264568Y344165D01*
X264141Y344103D01*
X263721Y344000D01*
X263314Y343858D01*
Y343857D01*
X263198Y343798D01*
X263093Y343719D01*
X263004Y343623D01*
X262933Y343514D01*
X262882Y343393D01*
X262853Y343266D01*
X262846Y343136D01*
X262862Y343006D01*
X262900Y342881D01*
X262959Y342765D01*
X263038Y342660D01*
X263134Y342571D01*
X263243Y342500D01*
X263364Y342449D01*
X263491Y342420D01*
X263621Y342413D01*
X263751Y342429D01*
X263876Y342467D01*
X264147Y342562D01*
X264427Y342630D01*
X264712Y342672D01*
X265000Y342685D01*
X265287Y342672D01*
X265572Y342630D01*
X265850Y342562D01*
Y336809D01*
X265572Y336741D01*
X265287Y336699D01*
X264999Y336685D01*
X264712Y336699D01*
X264427Y336741D01*
X264147Y336809D01*
X263876Y336904D01*
Y336905D01*
X263751Y336943D01*
X263621Y336959D01*
X263490Y336952D01*
X263363Y336923D01*
X263242Y336872D01*
X263133Y336800D01*
X263037Y336711D01*
X262958Y336607D01*
X262899Y336490D01*
X262861Y336365D01*
X262845Y336235D01*
X262852Y336104D01*
X262881Y335977D01*
X262932Y335856D01*
X263004Y335747D01*
X263093Y335651D01*
X263197Y335572D01*
X263314Y335513D01*
X263721Y335371D01*
X264141Y335268D01*
X264568Y335206D01*
X264999Y335185D01*
X265431Y335206D01*
X265850Y335267D01*
Y276935D01*
X261387D01*
Y337546D01*
X261419Y337539D01*
X261549Y337532D01*
X261679Y337548D01*
X261804Y337586D01*
X261920Y337645D01*
X262025Y337724D01*
X262114Y337820D01*
X262185Y337929D01*
X262236Y338050D01*
X262265Y338177D01*
X262272Y338307D01*
X262256Y338437D01*
X262218Y338562D01*
X262123Y338833D01*
X262055Y339113D01*
X262013Y339398D01*
X262000Y339686D01*
X262013Y339973D01*
X262055Y340258D01*
X262123Y340538D01*
X262218Y340809D01*
X262219D01*
X262257Y340934D01*
X262273Y341064D01*
X262266Y341195D01*
X262237Y341322D01*
X262186Y341443D01*
X262114Y341552D01*
X262025Y341648D01*
X261921Y341727D01*
X261804Y341786D01*
X261679Y341824D01*
X261549Y341840D01*
X261418Y341833D01*
X261387Y341826D01*
Y345322D01*
G37*
G36*
Y484685D02*X265850D01*
Y419335D01*
X265100D01*
Y414035D01*
X265850D01*
Y379269D01*
X265756Y379135D01*
X265396Y378361D01*
X265174Y377536D01*
X265100Y376685D01*
X265174Y375834D01*
X265396Y375009D01*
X265756Y374235D01*
X265850Y374101D01*
Y354185D01*
X262000D01*
X261740Y354162D01*
X261487Y354095D01*
X261387Y354048D01*
Y484685D01*
G37*
G36*
X251600D02*X261387D01*
Y354048D01*
X261250Y353984D01*
X261036Y353834D01*
X260851Y353649D01*
X260701Y353435D01*
X260590Y353198D01*
X260523Y352945D01*
X260500Y352685D01*
Y346685D01*
X260523Y346425D01*
X260590Y346172D01*
X260701Y345935D01*
X260851Y345721D01*
X261036Y345536D01*
X261250Y345386D01*
X261387Y345322D01*
Y341826D01*
X261291Y341804D01*
X261170Y341753D01*
X261061Y341681D01*
X260965Y341592D01*
X260886Y341488D01*
X260827Y341371D01*
X260685Y340964D01*
X260582Y340544D01*
X260520Y340117D01*
X260500Y339686D01*
X260520Y339254D01*
X260582Y338827D01*
X260685Y338407D01*
X260827Y338000D01*
X260828D01*
X260887Y337884D01*
X260966Y337779D01*
X261062Y337690D01*
X261171Y337619D01*
X261292Y337568D01*
X261387Y337546D01*
Y276935D01*
X251600D01*
Y356034D01*
X252000Y356221D01*
X252571Y356621D01*
X253064Y357114D01*
X253464Y357685D01*
X253759Y358317D01*
X253939Y358990D01*
X254000Y359685D01*
X253939Y360380D01*
X253759Y361053D01*
X253464Y361685D01*
X253064Y362256D01*
X252571Y362749D01*
X252000Y363149D01*
X251600Y363336D01*
Y380185D01*
X252381Y380253D01*
X253139Y380456D01*
X253850Y380788D01*
X254493Y381238D01*
X255047Y381792D01*
X255497Y382435D01*
X255829Y383146D01*
X256032Y383904D01*
X256100Y384685D01*
X256032Y385466D01*
X255829Y386224D01*
X255497Y386935D01*
X255047Y387578D01*
X254493Y388132D01*
X253850Y388582D01*
X253139Y388914D01*
X252381Y389117D01*
X251600Y389185D01*
Y390185D01*
X252381Y390253D01*
X253139Y390456D01*
X253850Y390788D01*
X254493Y391238D01*
X255047Y391792D01*
X255497Y392435D01*
X255829Y393146D01*
X256032Y393904D01*
X256100Y394685D01*
X256032Y395466D01*
X255829Y396224D01*
X255497Y396935D01*
X255047Y397578D01*
X254493Y398132D01*
X253850Y398582D01*
X253139Y398914D01*
X252381Y399117D01*
X251600Y399185D01*
Y400185D01*
X252381Y400253D01*
X253139Y400456D01*
X253850Y400788D01*
X254493Y401238D01*
X255047Y401792D01*
X255497Y402435D01*
X255829Y403146D01*
X256032Y403904D01*
X256100Y404685D01*
X256032Y405466D01*
X255829Y406224D01*
X255497Y406935D01*
X255047Y407578D01*
X254493Y408132D01*
X253850Y408582D01*
X253139Y408914D01*
X252381Y409117D01*
X251600Y409185D01*
Y410185D01*
X252381Y410253D01*
X253139Y410456D01*
X253850Y410788D01*
X254493Y411238D01*
X255047Y411792D01*
X255497Y412435D01*
X255829Y413146D01*
X256032Y413904D01*
X256100Y414685D01*
X256032Y415466D01*
X255829Y416224D01*
X255497Y416935D01*
X255047Y417578D01*
X254493Y418132D01*
X253850Y418582D01*
X253139Y418914D01*
X252381Y419117D01*
X251600Y419185D01*
Y420185D01*
X252381Y420253D01*
X253139Y420456D01*
X253850Y420788D01*
X254493Y421238D01*
X255047Y421792D01*
X255497Y422435D01*
X255829Y423146D01*
X256032Y423904D01*
X256100Y424685D01*
X256032Y425466D01*
X255829Y426224D01*
X255497Y426935D01*
X255047Y427578D01*
X254493Y428132D01*
X253850Y428582D01*
X253139Y428914D01*
X252381Y429117D01*
X251600Y429185D01*
Y430185D01*
X252381Y430253D01*
X253139Y430456D01*
X253850Y430788D01*
X254493Y431238D01*
X255047Y431792D01*
X255497Y432435D01*
X255829Y433146D01*
X256032Y433904D01*
X256100Y434685D01*
X256032Y435466D01*
X255829Y436224D01*
X255497Y436935D01*
X255047Y437578D01*
X254493Y438132D01*
X253850Y438582D01*
X253139Y438914D01*
X252381Y439117D01*
X251600Y439185D01*
Y440185D01*
X252381Y440253D01*
X253139Y440456D01*
X253850Y440788D01*
X254493Y441238D01*
X255047Y441792D01*
X255497Y442435D01*
X255829Y443146D01*
X256032Y443904D01*
X256100Y444685D01*
X256032Y445466D01*
X255829Y446224D01*
X255497Y446935D01*
X255047Y447578D01*
X254493Y448132D01*
X253850Y448582D01*
X253139Y448914D01*
X252381Y449117D01*
X251600Y449185D01*
Y450185D01*
X252381Y450253D01*
X253139Y450456D01*
X253850Y450788D01*
X254493Y451238D01*
X255047Y451792D01*
X255497Y452435D01*
X255829Y453146D01*
X256032Y453904D01*
X256100Y454685D01*
X256032Y455466D01*
X255829Y456224D01*
X255497Y456935D01*
X255047Y457578D01*
X254493Y458132D01*
X253850Y458582D01*
X253139Y458914D01*
X252381Y459117D01*
X251600Y459185D01*
Y460185D01*
X252381Y460253D01*
X253139Y460456D01*
X253850Y460788D01*
X254493Y461238D01*
X255047Y461792D01*
X255497Y462435D01*
X255829Y463146D01*
X256032Y463904D01*
X256100Y464685D01*
X256032Y465466D01*
X255829Y466224D01*
X255497Y466935D01*
X255047Y467578D01*
X254493Y468132D01*
X253850Y468582D01*
X253139Y468914D01*
X252381Y469117D01*
X251600Y469185D01*
Y470185D01*
X252381Y470253D01*
X253139Y470456D01*
X253850Y470788D01*
X254493Y471238D01*
X255047Y471792D01*
X255497Y472435D01*
X255829Y473146D01*
X256032Y473904D01*
X256100Y474685D01*
X256032Y475466D01*
X255829Y476224D01*
X255497Y476935D01*
X255047Y477578D01*
X254493Y478132D01*
X253850Y478582D01*
X253139Y478914D01*
X252381Y479117D01*
X251600Y479185D01*
Y484685D01*
G37*
G36*
Y363336D02*X251368Y363444D01*
X250695Y363624D01*
X250000Y363685D01*
X249305Y363624D01*
X248632Y363444D01*
X248000Y363149D01*
X247429Y362749D01*
X246936Y362256D01*
X246711Y361935D01*
X225000D01*
Y472435D01*
X232750D01*
Y454685D01*
X232784Y454294D01*
X232886Y453915D01*
X233051Y453560D01*
X233276Y453239D01*
X233554Y452961D01*
X233875Y452736D01*
X234230Y452571D01*
X234609Y452469D01*
X235000Y452435D01*
X247703D01*
X248153Y451792D01*
X248707Y451238D01*
X249350Y450788D01*
X250061Y450456D01*
X250819Y450253D01*
X251600Y450185D01*
Y449185D01*
X250819Y449117D01*
X250061Y448914D01*
X249350Y448582D01*
X248707Y448132D01*
X248153Y447578D01*
X247703Y446935D01*
X247371Y446224D01*
X247168Y445466D01*
X247100Y444685D01*
X247168Y443904D01*
X247371Y443146D01*
X247703Y442435D01*
X248153Y441792D01*
X248707Y441238D01*
X249350Y440788D01*
X250061Y440456D01*
X250819Y440253D01*
X251600Y440185D01*
Y439185D01*
X250819Y439117D01*
X250061Y438914D01*
X249350Y438582D01*
X248707Y438132D01*
X248153Y437578D01*
X247703Y436935D01*
X247371Y436224D01*
X247168Y435466D01*
X247100Y434685D01*
X247168Y433904D01*
X247371Y433146D01*
X247703Y432435D01*
X248153Y431792D01*
X248707Y431238D01*
X249350Y430788D01*
X250061Y430456D01*
X250819Y430253D01*
X251600Y430185D01*
Y429185D01*
X250819Y429117D01*
X250061Y428914D01*
X249350Y428582D01*
X248707Y428132D01*
X248153Y427578D01*
X247703Y426935D01*
X247371Y426224D01*
X247168Y425466D01*
X247100Y424685D01*
X247168Y423904D01*
X247371Y423146D01*
X247703Y422435D01*
X248153Y421792D01*
X248707Y421238D01*
X249350Y420788D01*
X250061Y420456D01*
X250819Y420253D01*
X251600Y420185D01*
Y419185D01*
X250819Y419117D01*
X250061Y418914D01*
X249350Y418582D01*
X248707Y418132D01*
X248153Y417578D01*
X247703Y416935D01*
X247371Y416224D01*
X247168Y415466D01*
X247100Y414685D01*
X247168Y413904D01*
X247371Y413146D01*
X247703Y412435D01*
X248153Y411792D01*
X248707Y411238D01*
X249350Y410788D01*
X250061Y410456D01*
X250819Y410253D01*
X251600Y410185D01*
Y409185D01*
X250819Y409117D01*
X250061Y408914D01*
X249350Y408582D01*
X248707Y408132D01*
X248153Y407578D01*
X247703Y406935D01*
X247371Y406224D01*
X247168Y405466D01*
X247100Y404685D01*
X247168Y403904D01*
X247371Y403146D01*
X247703Y402435D01*
X248153Y401792D01*
X248707Y401238D01*
X249350Y400788D01*
X250061Y400456D01*
X250819Y400253D01*
X251600Y400185D01*
Y399185D01*
X250819Y399117D01*
X250061Y398914D01*
X249350Y398582D01*
X248707Y398132D01*
X248153Y397578D01*
X247703Y396935D01*
X247371Y396224D01*
X247168Y395466D01*
X247100Y394685D01*
X247168Y393904D01*
X247371Y393146D01*
X247703Y392435D01*
X248153Y391792D01*
X248707Y391238D01*
X249350Y390788D01*
X250061Y390456D01*
X250819Y390253D01*
X251600Y390185D01*
Y389185D01*
X250819Y389117D01*
X250061Y388914D01*
X249350Y388582D01*
X248707Y388132D01*
X248153Y387578D01*
X247703Y386935D01*
X247371Y386224D01*
X247168Y385466D01*
X247100Y384685D01*
X247168Y383904D01*
X247371Y383146D01*
X247703Y382435D01*
X248153Y381792D01*
X248707Y381238D01*
X249350Y380788D01*
X250061Y380456D01*
X250819Y380253D01*
X251600Y380185D01*
Y363336D01*
G37*
G36*
Y276935D02*X225000D01*
Y290185D01*
X225781Y290253D01*
X226539Y290456D01*
X227250Y290788D01*
X227893Y291238D01*
X228447Y291792D01*
X228897Y292435D01*
X229229Y293146D01*
X229432Y293904D01*
X229500Y294685D01*
X229432Y295466D01*
X229229Y296224D01*
X228897Y296935D01*
X228447Y297578D01*
X227893Y298132D01*
X227250Y298582D01*
X226539Y298914D01*
X225781Y299117D01*
X225000Y299185D01*
Y320185D01*
X228000D01*
X228260Y320208D01*
X228513Y320275D01*
X228750Y320386D01*
X228964Y320536D01*
X229149Y320721D01*
X229299Y320935D01*
X229410Y321172D01*
X229477Y321425D01*
X229500Y321685D01*
Y327685D01*
X229477Y327945D01*
X229410Y328198D01*
X229299Y328435D01*
X229149Y328649D01*
X228964Y328834D01*
X228750Y328984D01*
X228513Y329095D01*
X228260Y329162D01*
X228000Y329185D01*
X225000D01*
Y357435D01*
X246711D01*
X246936Y357114D01*
X247429Y356621D01*
X248000Y356221D01*
X248632Y355926D01*
X249305Y355746D01*
X250000Y355685D01*
X250695Y355746D01*
X251368Y355926D01*
X251600Y356034D01*
Y276935D01*
G37*
G36*
X225000Y484685D02*X251600D01*
Y479185D01*
X250819Y479117D01*
X250061Y478914D01*
X249350Y478582D01*
X248707Y478132D01*
X248153Y477578D01*
X247703Y476935D01*
X247371Y476224D01*
X247168Y475466D01*
X247100Y474685D01*
X247168Y473904D01*
X247371Y473146D01*
X247703Y472435D01*
X248153Y471792D01*
X248707Y471238D01*
X249350Y470788D01*
X250061Y470456D01*
X250819Y470253D01*
X251600Y470185D01*
Y469185D01*
X250819Y469117D01*
X250061Y468914D01*
X249350Y468582D01*
X248707Y468132D01*
X248153Y467578D01*
X247703Y466935D01*
X247371Y466224D01*
X247168Y465466D01*
X247100Y464685D01*
X247168Y463904D01*
X247371Y463146D01*
X247703Y462435D01*
X248153Y461792D01*
X248707Y461238D01*
X249350Y460788D01*
X250061Y460456D01*
X250819Y460253D01*
X251600Y460185D01*
Y459185D01*
X250819Y459117D01*
X250061Y458914D01*
X249350Y458582D01*
X248707Y458132D01*
X248153Y457578D01*
X247703Y456935D01*
X237250D01*
Y474685D01*
X237216Y475076D01*
X237114Y475455D01*
X236949Y475810D01*
X236724Y476131D01*
X236446Y476409D01*
X236125Y476634D01*
X235770Y476799D01*
X235391Y476901D01*
X235000Y476935D01*
X225000D01*
Y484685D01*
G37*
G36*
Y361935D02*X215000D01*
Y472435D01*
X225000D01*
Y361935D01*
G37*
G36*
Y276935D02*X215000D01*
Y290185D01*
X215781Y290253D01*
X216539Y290456D01*
X217250Y290788D01*
X217893Y291238D01*
X218447Y291792D01*
X218897Y292435D01*
X219229Y293146D01*
X219432Y293904D01*
X219500Y294685D01*
X219432Y295466D01*
X219229Y296224D01*
X218897Y296935D01*
X218447Y297578D01*
X217893Y298132D01*
X217250Y298582D01*
X216539Y298914D01*
X215781Y299117D01*
X215000Y299185D01*
Y320185D01*
X215781Y320253D01*
X216539Y320456D01*
X217250Y320788D01*
X217893Y321238D01*
X218447Y321792D01*
X218897Y322435D01*
X219229Y323146D01*
X219432Y323904D01*
X219500Y324685D01*
X219432Y325466D01*
X219229Y326224D01*
X218897Y326935D01*
X218447Y327578D01*
X217893Y328132D01*
X217250Y328582D01*
X216539Y328914D01*
X215781Y329117D01*
X215000Y329185D01*
Y357435D01*
X225000D01*
Y329185D01*
X222000D01*
X221740Y329162D01*
X221487Y329095D01*
X221250Y328984D01*
X221036Y328834D01*
X220851Y328649D01*
X220701Y328435D01*
X220590Y328198D01*
X220523Y327945D01*
X220500Y327685D01*
Y321685D01*
X220523Y321425D01*
X220590Y321172D01*
X220701Y320935D01*
X220851Y320721D01*
X221036Y320536D01*
X221250Y320386D01*
X221487Y320275D01*
X221740Y320208D01*
X222000Y320185D01*
X225000D01*
Y299185D01*
X224219Y299117D01*
X223461Y298914D01*
X222750Y298582D01*
X222107Y298132D01*
X221553Y297578D01*
X221103Y296935D01*
X220771Y296224D01*
X220568Y295466D01*
X220500Y294685D01*
X220568Y293904D01*
X220771Y293146D01*
X221103Y292435D01*
X221553Y291792D01*
X222107Y291238D01*
X222750Y290788D01*
X223461Y290456D01*
X224219Y290253D01*
X225000Y290185D01*
Y276935D01*
G37*
G36*
Y224685D02*X215000D01*
Y272435D01*
X225000D01*
Y224685D01*
G37*
G36*
X215000Y484685D02*X225000D01*
Y476935D01*
X215000D01*
Y484685D01*
G37*
G36*
Y361935D02*X195000D01*
Y472435D01*
X215000D01*
Y361935D01*
G37*
G36*
Y276935D02*X205000D01*
Y290185D01*
X205781Y290253D01*
X206539Y290456D01*
X207250Y290788D01*
X207893Y291238D01*
X208447Y291792D01*
X208897Y292435D01*
X209229Y293146D01*
X209432Y293904D01*
X209500Y294685D01*
X209432Y295466D01*
X209229Y296224D01*
X208897Y296935D01*
X208447Y297578D01*
X207893Y298132D01*
X207250Y298582D01*
X206539Y298914D01*
X205781Y299117D01*
X205000Y299185D01*
Y320185D01*
X205781Y320253D01*
X206539Y320456D01*
X207250Y320788D01*
X207893Y321238D01*
X208447Y321792D01*
X208897Y322435D01*
X209229Y323146D01*
X209432Y323904D01*
X209500Y324685D01*
X209432Y325466D01*
X209229Y326224D01*
X208897Y326935D01*
X208447Y327578D01*
X207893Y328132D01*
X207250Y328582D01*
X206539Y328914D01*
X205781Y329117D01*
X205000Y329185D01*
Y357435D01*
X215000D01*
Y329185D01*
X214219Y329117D01*
X213461Y328914D01*
X212750Y328582D01*
X212107Y328132D01*
X211553Y327578D01*
X211103Y326935D01*
X210771Y326224D01*
X210568Y325466D01*
X210500Y324685D01*
X210568Y323904D01*
X210771Y323146D01*
X211103Y322435D01*
X211553Y321792D01*
X212107Y321238D01*
X212750Y320788D01*
X213461Y320456D01*
X214219Y320253D01*
X215000Y320185D01*
Y299185D01*
X214219Y299117D01*
X213461Y298914D01*
X212750Y298582D01*
X212107Y298132D01*
X211553Y297578D01*
X211103Y296935D01*
X210771Y296224D01*
X210568Y295466D01*
X210500Y294685D01*
X210568Y293904D01*
X210771Y293146D01*
X211103Y292435D01*
X211553Y291792D01*
X212107Y291238D01*
X212750Y290788D01*
X213461Y290456D01*
X214219Y290253D01*
X215000Y290185D01*
Y276935D01*
G37*
G36*
X205000D02*X195000D01*
Y290185D01*
X195781Y290253D01*
X196539Y290456D01*
X197250Y290788D01*
X197893Y291238D01*
X198447Y291792D01*
X198897Y292435D01*
X199229Y293146D01*
X199432Y293904D01*
X199500Y294685D01*
X199432Y295466D01*
X199229Y296224D01*
X198897Y296935D01*
X198447Y297578D01*
X197893Y298132D01*
X197250Y298582D01*
X196539Y298914D01*
X195781Y299117D01*
X195000Y299185D01*
Y307435D01*
X195391Y307469D01*
X195770Y307571D01*
X196125Y307736D01*
X196446Y307961D01*
X196724Y308239D01*
X196949Y308560D01*
X197114Y308915D01*
X197216Y309294D01*
X197250Y309685D01*
Y320788D01*
X197893Y321238D01*
X198447Y321792D01*
X198897Y322435D01*
X199229Y323146D01*
X199432Y323904D01*
X199500Y324685D01*
X199432Y325466D01*
X199229Y326224D01*
X198897Y326935D01*
X198447Y327578D01*
X197893Y328132D01*
X197250Y328582D01*
X196539Y328914D01*
X195781Y329117D01*
X195000Y329185D01*
Y339785D01*
X198400D01*
X198660Y339808D01*
X198913Y339875D01*
X199150Y339986D01*
X199364Y340136D01*
X199549Y340321D01*
X199699Y340535D01*
X199810Y340772D01*
X199877Y341025D01*
X199900Y341285D01*
Y348085D01*
X199877Y348345D01*
X199810Y348598D01*
X199699Y348835D01*
X199549Y349049D01*
X199364Y349234D01*
X199150Y349384D01*
X198913Y349495D01*
X198660Y349562D01*
X198400Y349585D01*
X195000D01*
Y357435D01*
X205000D01*
Y329185D01*
X204219Y329117D01*
X203461Y328914D01*
X202750Y328582D01*
X202107Y328132D01*
X201553Y327578D01*
X201103Y326935D01*
X200771Y326224D01*
X200568Y325466D01*
X200500Y324685D01*
X200568Y323904D01*
X200771Y323146D01*
X201103Y322435D01*
X201553Y321792D01*
X202107Y321238D01*
X202750Y320788D01*
X203461Y320456D01*
X204219Y320253D01*
X205000Y320185D01*
Y299185D01*
X204219Y299117D01*
X203461Y298914D01*
X202750Y298582D01*
X202107Y298132D01*
X201553Y297578D01*
X201103Y296935D01*
X200771Y296224D01*
X200568Y295466D01*
X200500Y294685D01*
X200568Y293904D01*
X200771Y293146D01*
X201103Y292435D01*
X201553Y291792D01*
X202107Y291238D01*
X202750Y290788D01*
X203461Y290456D01*
X204219Y290253D01*
X205000Y290185D01*
Y276935D01*
G37*
G36*
X215000Y224685D02*X195000D01*
Y272435D01*
X215000D01*
Y224685D01*
G37*
G36*
X195000Y484685D02*X215000D01*
Y476935D01*
X195000D01*
Y484685D01*
G37*
G36*
Y361935D02*X175500D01*
Y472435D01*
X195000D01*
Y361935D01*
G37*
G36*
Y329185D02*X194219Y329117D01*
X193461Y328914D01*
X192750Y328582D01*
X192107Y328132D01*
X191553Y327578D01*
X191103Y326935D01*
X190771Y326224D01*
X190568Y325466D01*
X190500Y324685D01*
X190568Y323904D01*
X190771Y323146D01*
X191103Y322435D01*
X191553Y321792D01*
X192107Y321238D01*
X192750Y320788D01*
Y311485D01*
X185000D01*
Y320185D01*
X185781Y320253D01*
X186539Y320456D01*
X187250Y320788D01*
X187893Y321238D01*
X188447Y321792D01*
X188897Y322435D01*
X189229Y323146D01*
X189432Y323904D01*
X189500Y324685D01*
X189432Y325466D01*
X189229Y326224D01*
X188897Y326935D01*
X188447Y327578D01*
X187893Y328132D01*
X187250Y328582D01*
X186539Y328914D01*
X185781Y329117D01*
X185000Y329185D01*
Y357435D01*
X195000D01*
Y349585D01*
X191600D01*
X191340Y349562D01*
X191087Y349495D01*
X190850Y349384D01*
X190636Y349234D01*
X190451Y349049D01*
X190301Y348835D01*
X190190Y348598D01*
X190123Y348345D01*
X190100Y348085D01*
Y341285D01*
X190123Y341025D01*
X190190Y340772D01*
X190301Y340535D01*
X190451Y340321D01*
X190636Y340136D01*
X190850Y339986D01*
X191087Y339875D01*
X191340Y339808D01*
X191600Y339785D01*
X195000D01*
Y329185D01*
G37*
G36*
X185000Y311485D02*X175500D01*
Y320229D01*
X175781Y320253D01*
X176539Y320456D01*
X177250Y320788D01*
X177893Y321238D01*
X178447Y321792D01*
X178897Y322435D01*
X179229Y323146D01*
X179432Y323904D01*
X179500Y324685D01*
X179432Y325466D01*
X179229Y326224D01*
X178897Y326935D01*
X178447Y327578D01*
X177893Y328132D01*
X177250Y328582D01*
X176539Y328914D01*
X175781Y329117D01*
X175500Y329141D01*
Y357435D01*
X185000D01*
Y329185D01*
X184219Y329117D01*
X183461Y328914D01*
X182750Y328582D01*
X182107Y328132D01*
X181553Y327578D01*
X181103Y326935D01*
X180771Y326224D01*
X180568Y325466D01*
X180500Y324685D01*
X180568Y323904D01*
X180771Y323146D01*
X181103Y322435D01*
X181553Y321792D01*
X182107Y321238D01*
X182750Y320788D01*
X183461Y320456D01*
X184219Y320253D01*
X185000Y320185D01*
Y311485D01*
G37*
G36*
X195000Y276935D02*X185000D01*
Y290185D01*
X185781Y290253D01*
X186539Y290456D01*
X187250Y290788D01*
X187893Y291238D01*
X188447Y291792D01*
X188897Y292435D01*
X189229Y293146D01*
X189432Y293904D01*
X189500Y294685D01*
X189432Y295466D01*
X189229Y296224D01*
X188897Y296935D01*
X188447Y297578D01*
X187893Y298132D01*
X187250Y298582D01*
X186539Y298914D01*
X185781Y299117D01*
X185000Y299185D01*
Y307885D01*
X193662D01*
X193875Y307736D01*
X194230Y307571D01*
X194609Y307469D01*
X195000Y307435D01*
Y299185D01*
X194219Y299117D01*
X193461Y298914D01*
X192750Y298582D01*
X192107Y298132D01*
X191553Y297578D01*
X191103Y296935D01*
X190771Y296224D01*
X190568Y295466D01*
X190500Y294685D01*
X190568Y293904D01*
X190771Y293146D01*
X191103Y292435D01*
X191553Y291792D01*
X192107Y291238D01*
X192750Y290788D01*
X193461Y290456D01*
X194219Y290253D01*
X195000Y290185D01*
Y276935D01*
G37*
G36*
X185000D02*X175500D01*
Y282963D01*
X175616Y282994D01*
X175900Y283126D01*
X176157Y283306D01*
X176379Y283528D01*
X176559Y283785D01*
X176691Y284069D01*
X176773Y284372D01*
X176800Y284685D01*
Y290578D01*
X177250Y290788D01*
X177893Y291238D01*
X178447Y291792D01*
X178897Y292435D01*
X179229Y293146D01*
X179432Y293904D01*
X179500Y294685D01*
X179432Y295466D01*
X179229Y296224D01*
X178897Y296935D01*
X178447Y297578D01*
X177893Y298132D01*
X177250Y298582D01*
X176539Y298914D01*
X175781Y299117D01*
X175500Y299141D01*
Y307885D01*
X185000D01*
Y299185D01*
X184219Y299117D01*
X183461Y298914D01*
X182750Y298582D01*
X182107Y298132D01*
X181553Y297578D01*
X181103Y296935D01*
X180771Y296224D01*
X180568Y295466D01*
X180500Y294685D01*
X180568Y293904D01*
X180771Y293146D01*
X181103Y292435D01*
X181553Y291792D01*
X182107Y291238D01*
X182750Y290788D01*
X183461Y290456D01*
X184219Y290253D01*
X185000Y290185D01*
Y276935D01*
G37*
G36*
X195000Y224685D02*X175500D01*
Y272435D01*
X195000D01*
Y224685D01*
G37*
G36*
X175500Y484685D02*X195000D01*
Y476935D01*
X175500D01*
Y484685D01*
G37*
G36*
X105000Y322435D02*X117750D01*
Y274685D01*
X117784Y274294D01*
X117886Y273915D01*
X118051Y273560D01*
X118276Y273239D01*
X118554Y272961D01*
X118875Y272736D01*
X119230Y272571D01*
X119609Y272469D01*
X120000Y272435D01*
X175500D01*
Y224685D01*
X105000D01*
Y299785D01*
X108400D01*
X108660Y299808D01*
X108913Y299875D01*
X109150Y299986D01*
X109364Y300136D01*
X109549Y300321D01*
X109699Y300535D01*
X109810Y300772D01*
X109877Y301025D01*
X109900Y301285D01*
Y308085D01*
X109877Y308345D01*
X109810Y308598D01*
X109699Y308835D01*
X109549Y309049D01*
X109364Y309234D01*
X109150Y309384D01*
X108913Y309495D01*
X108660Y309562D01*
X108400Y309585D01*
X105000D01*
Y322435D01*
G37*
G36*
X70000D02*X105000D01*
Y309585D01*
X101600D01*
X101340Y309562D01*
X101087Y309495D01*
X100850Y309384D01*
X100636Y309234D01*
X100451Y309049D01*
X100301Y308835D01*
X100190Y308598D01*
X100123Y308345D01*
X100100Y308085D01*
Y301285D01*
X100123Y301025D01*
X100190Y300772D01*
X100301Y300535D01*
X100451Y300321D01*
X100636Y300136D01*
X100850Y299986D01*
X101087Y299875D01*
X101340Y299808D01*
X101600Y299785D01*
X105000D01*
Y224685D01*
X70000D01*
Y259785D01*
X73400D01*
X73660Y259808D01*
X73913Y259875D01*
X74150Y259986D01*
X74364Y260136D01*
X74549Y260321D01*
X74699Y260535D01*
X74810Y260772D01*
X74877Y261025D01*
X74900Y261285D01*
Y268085D01*
X74877Y268345D01*
X74810Y268598D01*
X74699Y268835D01*
X74549Y269049D01*
X74364Y269234D01*
X74150Y269384D01*
X73913Y269495D01*
X73660Y269562D01*
X73400Y269585D01*
X70000D01*
Y322435D01*
G37*
G36*
X40000D02*X70000D01*
Y269585D01*
X66600D01*
X66340Y269562D01*
X66087Y269495D01*
X65850Y269384D01*
X65636Y269234D01*
X65451Y269049D01*
X65301Y268835D01*
X65190Y268598D01*
X65123Y268345D01*
X65100Y268085D01*
Y261285D01*
X65123Y261025D01*
X65190Y260772D01*
X65301Y260535D01*
X65451Y260321D01*
X65636Y260136D01*
X65850Y259986D01*
X66087Y259875D01*
X66340Y259808D01*
X66600Y259785D01*
X70000D01*
Y224685D01*
X40000D01*
Y275185D01*
X40781Y275253D01*
X41539Y275456D01*
X42250Y275788D01*
X42893Y276238D01*
X43447Y276792D01*
X43897Y277435D01*
X44229Y278146D01*
X44432Y278904D01*
X44500Y279685D01*
X44432Y280466D01*
X44229Y281224D01*
X43897Y281935D01*
X43447Y282578D01*
X42893Y283132D01*
X42250Y283582D01*
X41539Y283914D01*
X40781Y284117D01*
X40000Y284185D01*
Y302698D01*
X60641Y302481D01*
X60756Y302235D01*
X61246Y301535D01*
X61850Y300931D01*
X62550Y300441D01*
X63324Y300081D01*
X64149Y299859D01*
X65000Y299785D01*
X65851Y299859D01*
X66676Y300081D01*
X67450Y300441D01*
X68150Y300931D01*
X68754Y301535D01*
X69244Y302235D01*
X69604Y303009D01*
X69826Y303834D01*
X69900Y304685D01*
X69826Y305536D01*
X69604Y306361D01*
X69244Y307135D01*
X68754Y307835D01*
X68150Y308439D01*
X67450Y308929D01*
X66676Y309289D01*
X65851Y309511D01*
X65000Y309585D01*
X64149Y309511D01*
X63324Y309289D01*
X62550Y308929D01*
X61850Y308439D01*
X61246Y307835D01*
X60756Y307135D01*
X60684Y306981D01*
X40000Y307197D01*
Y322435D01*
G37*
G36*
Y224685D02*X35000D01*
Y300000D01*
X35868Y300076D01*
X36710Y300302D01*
X37500Y300670D01*
X38214Y301170D01*
X38830Y301786D01*
X39330Y302500D01*
X39425Y302704D01*
X40000Y302698D01*
Y284185D01*
X39219Y284117D01*
X38461Y283914D01*
X37750Y283582D01*
X37107Y283132D01*
X36553Y282578D01*
X36103Y281935D01*
X35771Y281224D01*
X35568Y280466D01*
X35500Y279685D01*
X35568Y278904D01*
X35771Y278146D01*
X36103Y277435D01*
X36553Y276792D01*
X37107Y276238D01*
X37750Y275788D01*
X38461Y275456D01*
X39219Y275253D01*
X40000Y275185D01*
Y224685D01*
G37*
G36*
X35000Y319685D02*X35868Y319761D01*
X36710Y319987D01*
X37500Y320355D01*
X38214Y320855D01*
X38830Y321471D01*
X39330Y322185D01*
X39446Y322435D01*
X40000D01*
Y307197D01*
X39468Y307203D01*
X39330Y307500D01*
X38830Y308214D01*
X38214Y308830D01*
X37500Y309330D01*
X36710Y309698D01*
X35868Y309924D01*
X35000Y310000D01*
Y319685D01*
G37*
G36*
X60000Y368714D02*X60208Y367941D01*
X60583Y367135D01*
X61093Y366407D01*
X61722Y365778D01*
X62450Y365268D01*
X63256Y364893D01*
X64029Y364685D01*
X63256Y364477D01*
X62450Y364102D01*
X61722Y363592D01*
X61093Y362963D01*
X60583Y362235D01*
X60208Y361429D01*
X60000Y360656D01*
Y368714D01*
G37*
G36*
X165000Y282885D02*X175000D01*
X175313Y282912D01*
X175500Y282963D01*
Y276935D01*
X165000D01*
Y282885D01*
G37*
G36*
Y290185D02*X165781Y290253D01*
X166539Y290456D01*
X167250Y290788D01*
X167893Y291238D01*
X168447Y291792D01*
X168897Y292435D01*
X169229Y293146D01*
X169432Y293904D01*
X169500Y294685D01*
X169432Y295466D01*
X169229Y296224D01*
X168897Y296935D01*
X168447Y297578D01*
X167893Y298132D01*
X167250Y298582D01*
X166800Y298792D01*
Y307885D01*
X175500D01*
Y299141D01*
X175000Y299185D01*
X174219Y299117D01*
X173461Y298914D01*
X172750Y298582D01*
X172107Y298132D01*
X171553Y297578D01*
X171103Y296935D01*
X170771Y296224D01*
X170568Y295466D01*
X170500Y294685D01*
X170568Y293904D01*
X170771Y293146D01*
X171103Y292435D01*
X171553Y291792D01*
X172107Y291238D01*
X172750Y290788D01*
X173200Y290578D01*
Y286485D01*
X165000D01*
Y290185D01*
G37*
G36*
Y357435D02*X175500D01*
Y329141D01*
X175000Y329185D01*
X174219Y329117D01*
X173461Y328914D01*
X172750Y328582D01*
X172107Y328132D01*
X171553Y327578D01*
X171103Y326935D01*
X170771Y326224D01*
X170568Y325466D01*
X170500Y324685D01*
X170568Y323904D01*
X170771Y323146D01*
X171103Y322435D01*
X171553Y321792D01*
X172107Y321238D01*
X172750Y320788D01*
X173461Y320456D01*
X174219Y320253D01*
X175000Y320185D01*
X175500Y320229D01*
Y311485D01*
X165000D01*
Y320185D01*
X165781Y320253D01*
X166539Y320456D01*
X167250Y320788D01*
X167893Y321238D01*
X168447Y321792D01*
X168897Y322435D01*
X169229Y323146D01*
X169432Y323904D01*
X169500Y324685D01*
X169432Y325466D01*
X169229Y326224D01*
X168897Y326935D01*
X168447Y327578D01*
X167893Y328132D01*
X167250Y328582D01*
X166539Y328914D01*
X165781Y329117D01*
X165000Y329185D01*
Y357435D01*
G37*
G36*
Y470185D02*X168000D01*
X168260Y470208D01*
X168513Y470275D01*
X168750Y470386D01*
X168964Y470536D01*
X169149Y470721D01*
X169299Y470935D01*
X169410Y471172D01*
X169477Y471425D01*
X169500Y471685D01*
Y472435D01*
X175500D01*
Y361935D01*
X165000D01*
Y380185D01*
X165781Y380253D01*
X166539Y380456D01*
X167250Y380788D01*
X167893Y381238D01*
X168447Y381792D01*
X168897Y382435D01*
X169229Y383146D01*
X169432Y383904D01*
X169500Y384685D01*
X169432Y385466D01*
X169229Y386224D01*
X168897Y386935D01*
X168447Y387578D01*
X167893Y388132D01*
X167250Y388582D01*
X166539Y388914D01*
X165781Y389117D01*
X165000Y389185D01*
Y390185D01*
X165781Y390253D01*
X166539Y390456D01*
X167250Y390788D01*
X167893Y391238D01*
X168447Y391792D01*
X168897Y392435D01*
X169229Y393146D01*
X169432Y393904D01*
X169500Y394685D01*
X169432Y395466D01*
X169229Y396224D01*
X168897Y396935D01*
X168447Y397578D01*
X167893Y398132D01*
X167250Y398582D01*
X166539Y398914D01*
X165781Y399117D01*
X165000Y399185D01*
Y400185D01*
X165781Y400253D01*
X166539Y400456D01*
X167250Y400788D01*
X167893Y401238D01*
X168447Y401792D01*
X168897Y402435D01*
X169229Y403146D01*
X169432Y403904D01*
X169500Y404685D01*
X169432Y405466D01*
X169229Y406224D01*
X168897Y406935D01*
X168447Y407578D01*
X167893Y408132D01*
X167250Y408582D01*
X166539Y408914D01*
X165781Y409117D01*
X165000Y409185D01*
Y410185D01*
X165781Y410253D01*
X166539Y410456D01*
X167250Y410788D01*
X167893Y411238D01*
X168447Y411792D01*
X168897Y412435D01*
X169229Y413146D01*
X169432Y413904D01*
X169500Y414685D01*
X169432Y415466D01*
X169229Y416224D01*
X168897Y416935D01*
X168447Y417578D01*
X167893Y418132D01*
X167250Y418582D01*
X166539Y418914D01*
X165781Y419117D01*
X165000Y419185D01*
Y420185D01*
X165781Y420253D01*
X166539Y420456D01*
X167250Y420788D01*
X167893Y421238D01*
X168447Y421792D01*
X168897Y422435D01*
X169229Y423146D01*
X169432Y423904D01*
X169500Y424685D01*
X169432Y425466D01*
X169229Y426224D01*
X168897Y426935D01*
X168447Y427578D01*
X167893Y428132D01*
X167250Y428582D01*
X166539Y428914D01*
X165781Y429117D01*
X165000Y429185D01*
Y430185D01*
X165781Y430253D01*
X166539Y430456D01*
X167250Y430788D01*
X167893Y431238D01*
X168447Y431792D01*
X168897Y432435D01*
X169229Y433146D01*
X169432Y433904D01*
X169500Y434685D01*
X169432Y435466D01*
X169229Y436224D01*
X168897Y436935D01*
X168447Y437578D01*
X167893Y438132D01*
X167250Y438582D01*
X166539Y438914D01*
X165781Y439117D01*
X165000Y439185D01*
Y440185D01*
X165781Y440253D01*
X166539Y440456D01*
X167250Y440788D01*
X167893Y441238D01*
X168447Y441792D01*
X168897Y442435D01*
X169229Y443146D01*
X169432Y443904D01*
X169500Y444685D01*
X169432Y445466D01*
X169229Y446224D01*
X168897Y446935D01*
X168447Y447578D01*
X167893Y448132D01*
X167250Y448582D01*
X166539Y448914D01*
X165781Y449117D01*
X165000Y449185D01*
Y450185D01*
X165781Y450253D01*
X166539Y450456D01*
X167250Y450788D01*
X167893Y451238D01*
X168447Y451792D01*
X168897Y452435D01*
X169229Y453146D01*
X169432Y453904D01*
X169500Y454685D01*
X169432Y455466D01*
X169229Y456224D01*
X168897Y456935D01*
X168447Y457578D01*
X167893Y458132D01*
X167250Y458582D01*
X166539Y458914D01*
X165781Y459117D01*
X165000Y459185D01*
Y460185D01*
X165781Y460253D01*
X166539Y460456D01*
X167250Y460788D01*
X167893Y461238D01*
X168447Y461792D01*
X168897Y462435D01*
X169229Y463146D01*
X169432Y463904D01*
X169500Y464685D01*
X169432Y465466D01*
X169229Y466224D01*
X168897Y466935D01*
X168447Y467578D01*
X167893Y468132D01*
X167250Y468582D01*
X166539Y468914D01*
X165781Y469117D01*
X165000Y469185D01*
Y470185D01*
G37*
G36*
Y484685D02*X175500D01*
Y476935D01*
X169500D01*
Y477685D01*
X169477Y477945D01*
X169410Y478198D01*
X169299Y478435D01*
X169149Y478649D01*
X168964Y478834D01*
X168750Y478984D01*
X168513Y479095D01*
X168260Y479162D01*
X168000Y479185D01*
X165000D01*
Y484685D01*
G37*
G36*
X145000Y329785D02*X145851Y329859D01*
X146676Y330081D01*
X147450Y330441D01*
X148150Y330931D01*
X148754Y331535D01*
X149244Y332235D01*
X149546Y332885D01*
X153200D01*
Y284685D01*
X153227Y284372D01*
X153309Y284069D01*
X153441Y283785D01*
X153621Y283528D01*
X153843Y283306D01*
X154100Y283126D01*
X154384Y282994D01*
X154687Y282912D01*
X155000Y282885D01*
X165000D01*
Y276935D01*
X145000D01*
Y289785D01*
X148400D01*
X148660Y289808D01*
X148913Y289875D01*
X149150Y289986D01*
X149364Y290136D01*
X149549Y290321D01*
X149699Y290535D01*
X149810Y290772D01*
X149877Y291025D01*
X149900Y291285D01*
Y298085D01*
X149877Y298345D01*
X149810Y298598D01*
X149699Y298835D01*
X149549Y299049D01*
X149364Y299234D01*
X149150Y299384D01*
X148913Y299495D01*
X148660Y299562D01*
X148400Y299585D01*
X145000D01*
Y329785D01*
G37*
G36*
X155000Y354585D02*X155886Y354662D01*
X156744Y354893D01*
X157550Y355268D01*
X158278Y355778D01*
X158907Y356407D01*
X159417Y357135D01*
X159557Y357435D01*
X165000D01*
Y329185D01*
X164219Y329117D01*
X163461Y328914D01*
X162750Y328582D01*
X162107Y328132D01*
X161553Y327578D01*
X161103Y326935D01*
X160771Y326224D01*
X160568Y325466D01*
X160500Y324685D01*
X160568Y323904D01*
X160771Y323146D01*
X161103Y322435D01*
X161553Y321792D01*
X162107Y321238D01*
X162750Y320788D01*
X163461Y320456D01*
X164219Y320253D01*
X165000Y320185D01*
Y311485D01*
X164687Y311458D01*
X164384Y311376D01*
X164100Y311244D01*
X163843Y311064D01*
X163621Y310842D01*
X163441Y310585D01*
X163309Y310301D01*
X163227Y309998D01*
X163200Y309685D01*
Y298792D01*
X162750Y298582D01*
X162107Y298132D01*
X161553Y297578D01*
X161103Y296935D01*
X160771Y296224D01*
X160568Y295466D01*
X160500Y294685D01*
X160568Y293904D01*
X160771Y293146D01*
X161103Y292435D01*
X161553Y291792D01*
X162107Y291238D01*
X162750Y290788D01*
X163461Y290456D01*
X164219Y290253D01*
X165000Y290185D01*
Y286485D01*
X156800D01*
Y334685D01*
X156773Y334998D01*
X156691Y335301D01*
X156559Y335585D01*
X156379Y335842D01*
X156157Y336064D01*
X155900Y336244D01*
X155616Y336376D01*
X155313Y336458D01*
X155000Y336485D01*
Y339785D01*
X155851Y339859D01*
X156676Y340081D01*
X157450Y340441D01*
X158150Y340931D01*
X158754Y341535D01*
X159244Y342235D01*
X159604Y343009D01*
X159826Y343834D01*
X159900Y344685D01*
X159826Y345536D01*
X159604Y346361D01*
X159244Y347135D01*
X158754Y347835D01*
X158150Y348439D01*
X157450Y348929D01*
X156676Y349289D01*
X155851Y349511D01*
X155000Y349585D01*
Y354585D01*
G37*
G36*
X145000D02*X145886Y354662D01*
X146744Y354893D01*
X147550Y355268D01*
X148278Y355778D01*
X148907Y356407D01*
X149417Y357135D01*
X149792Y357941D01*
X150000Y358714D01*
X150208Y357941D01*
X150583Y357135D01*
X151093Y356407D01*
X151722Y355778D01*
X152450Y355268D01*
X153256Y354893D01*
X154114Y354662D01*
X155000Y354585D01*
Y349585D01*
X154149Y349511D01*
X153324Y349289D01*
X152550Y348929D01*
X151850Y348439D01*
X151246Y347835D01*
X150756Y347135D01*
X150396Y346361D01*
X150174Y345536D01*
X150100Y344685D01*
X150174Y343834D01*
X150396Y343009D01*
X150756Y342235D01*
X151246Y341535D01*
X151850Y340931D01*
X152550Y340441D01*
X153324Y340081D01*
X154149Y339859D01*
X155000Y339785D01*
Y336485D01*
X149546D01*
X149244Y337135D01*
X148754Y337835D01*
X148150Y338439D01*
X147450Y338929D01*
X146676Y339289D01*
X145851Y339511D01*
X145000Y339585D01*
Y354585D01*
G37*
G36*
X140000Y355551D02*X140010Y355572D01*
X140077Y355825D01*
X140100Y356085D01*
Y358342D01*
X140208Y357941D01*
X140583Y357135D01*
X141093Y356407D01*
X141722Y355778D01*
X142450Y355268D01*
X143256Y354893D01*
X144114Y354662D01*
X145000Y354585D01*
Y339585D01*
X144149Y339511D01*
X143324Y339289D01*
X142550Y338929D01*
X141850Y338439D01*
X141246Y337835D01*
X140756Y337135D01*
X140396Y336361D01*
X140174Y335536D01*
X140100Y334685D01*
X140174Y333834D01*
X140396Y333009D01*
X140756Y332235D01*
X141246Y331535D01*
X141850Y330931D01*
X142550Y330441D01*
X143324Y330081D01*
X144149Y329859D01*
X145000Y329785D01*
Y299585D01*
X141600D01*
X141340Y299562D01*
X141087Y299495D01*
X140850Y299384D01*
X140636Y299234D01*
X140451Y299049D01*
X140301Y298835D01*
X140190Y298598D01*
X140123Y298345D01*
X140100Y298085D01*
Y291285D01*
X140123Y291025D01*
X140190Y290772D01*
X140301Y290535D01*
X140451Y290321D01*
X140636Y290136D01*
X140850Y289986D01*
X141087Y289875D01*
X141340Y289808D01*
X141600Y289785D01*
X145000D01*
Y276935D01*
X140000D01*
Y355551D01*
G37*
G36*
Y484685D02*X165000D01*
Y479185D01*
X162000D01*
X161740Y479162D01*
X161487Y479095D01*
X161250Y478984D01*
X161036Y478834D01*
X160851Y478649D01*
X160701Y478435D01*
X160590Y478198D01*
X160523Y477945D01*
X160500Y477685D01*
Y471685D01*
X160523Y471425D01*
X160590Y471172D01*
X160701Y470935D01*
X160851Y470721D01*
X161036Y470536D01*
X161250Y470386D01*
X161487Y470275D01*
X161740Y470208D01*
X162000Y470185D01*
X165000D01*
Y469185D01*
X164219Y469117D01*
X163461Y468914D01*
X162750Y468582D01*
X162107Y468132D01*
X161553Y467578D01*
X161103Y466935D01*
X160771Y466224D01*
X160568Y465466D01*
X160500Y464685D01*
X160568Y463904D01*
X160771Y463146D01*
X161103Y462435D01*
X161553Y461792D01*
X162107Y461238D01*
X162750Y460788D01*
X163461Y460456D01*
X164219Y460253D01*
X165000Y460185D01*
Y459185D01*
X164219Y459117D01*
X163461Y458914D01*
X162750Y458582D01*
X162107Y458132D01*
X161553Y457578D01*
X161103Y456935D01*
X160771Y456224D01*
X160568Y455466D01*
X160500Y454685D01*
X160568Y453904D01*
X160771Y453146D01*
X161103Y452435D01*
X161553Y451792D01*
X162107Y451238D01*
X162750Y450788D01*
X163461Y450456D01*
X164219Y450253D01*
X165000Y450185D01*
Y449185D01*
X164219Y449117D01*
X163461Y448914D01*
X162750Y448582D01*
X162107Y448132D01*
X161553Y447578D01*
X161103Y446935D01*
X160771Y446224D01*
X160568Y445466D01*
X160500Y444685D01*
X160568Y443904D01*
X160771Y443146D01*
X161103Y442435D01*
X161553Y441792D01*
X162107Y441238D01*
X162750Y440788D01*
X163461Y440456D01*
X164219Y440253D01*
X165000Y440185D01*
Y439185D01*
X164219Y439117D01*
X163461Y438914D01*
X162750Y438582D01*
X162107Y438132D01*
X161553Y437578D01*
X161103Y436935D01*
X160771Y436224D01*
X160568Y435466D01*
X160500Y434685D01*
X160568Y433904D01*
X160771Y433146D01*
X161103Y432435D01*
X161553Y431792D01*
X162107Y431238D01*
X162750Y430788D01*
X163461Y430456D01*
X164219Y430253D01*
X165000Y430185D01*
Y429185D01*
X164219Y429117D01*
X163461Y428914D01*
X162750Y428582D01*
X162107Y428132D01*
X161553Y427578D01*
X161103Y426935D01*
X160771Y426224D01*
X160568Y425466D01*
X160500Y424685D01*
X160568Y423904D01*
X160771Y423146D01*
X161103Y422435D01*
X161553Y421792D01*
X162107Y421238D01*
X162750Y420788D01*
X163461Y420456D01*
X164219Y420253D01*
X165000Y420185D01*
Y419185D01*
X164219Y419117D01*
X163461Y418914D01*
X162750Y418582D01*
X162107Y418132D01*
X161553Y417578D01*
X161103Y416935D01*
X160771Y416224D01*
X160568Y415466D01*
X160500Y414685D01*
X160568Y413904D01*
X160771Y413146D01*
X161103Y412435D01*
X161553Y411792D01*
X162107Y411238D01*
X162750Y410788D01*
X163461Y410456D01*
X164219Y410253D01*
X165000Y410185D01*
Y409185D01*
X164219Y409117D01*
X163461Y408914D01*
X162750Y408582D01*
X162107Y408132D01*
X161553Y407578D01*
X161103Y406935D01*
X160771Y406224D01*
X160568Y405466D01*
X160500Y404685D01*
X160568Y403904D01*
X160771Y403146D01*
X161103Y402435D01*
X161553Y401792D01*
X162107Y401238D01*
X162750Y400788D01*
X163461Y400456D01*
X164219Y400253D01*
X165000Y400185D01*
Y399185D01*
X164219Y399117D01*
X163461Y398914D01*
X162750Y398582D01*
X162107Y398132D01*
X161553Y397578D01*
X161103Y396935D01*
X160771Y396224D01*
X160568Y395466D01*
X160500Y394685D01*
X160568Y393904D01*
X160771Y393146D01*
X161103Y392435D01*
X161553Y391792D01*
X162107Y391238D01*
X162750Y390788D01*
X163461Y390456D01*
X164219Y390253D01*
X165000Y390185D01*
Y389185D01*
X164219Y389117D01*
X163461Y388914D01*
X162750Y388582D01*
X162107Y388132D01*
X161553Y387578D01*
X161103Y386935D01*
X160771Y386224D01*
X160568Y385466D01*
X160500Y384685D01*
X160568Y383904D01*
X160771Y383146D01*
X161103Y382435D01*
X161553Y381792D01*
X162107Y381238D01*
X162750Y380788D01*
X163461Y380456D01*
X164219Y380253D01*
X165000Y380185D01*
Y361935D01*
X159557D01*
X159417Y362235D01*
X158907Y362963D01*
X158278Y363592D01*
X157550Y364102D01*
X156744Y364477D01*
X155886Y364708D01*
X155000Y364785D01*
X154114Y364708D01*
X153256Y364477D01*
X152450Y364102D01*
X151722Y363592D01*
X151093Y362963D01*
X150583Y362235D01*
X150208Y361429D01*
X150000Y360656D01*
X149792Y361429D01*
X149417Y362235D01*
X148907Y362963D01*
X148278Y363592D01*
X147550Y364102D01*
X146744Y364477D01*
X145886Y364708D01*
X145000Y364785D01*
X144114Y364708D01*
X143256Y364477D01*
X142450Y364102D01*
X141722Y363592D01*
X141093Y362963D01*
X140583Y362235D01*
X140208Y361429D01*
X140100Y361028D01*
Y363285D01*
X140077Y363545D01*
X140010Y363798D01*
X140000Y363819D01*
Y445185D01*
X140781Y445253D01*
X141539Y445456D01*
X142250Y445788D01*
X142893Y446238D01*
X143447Y446792D01*
X143897Y447435D01*
X144229Y448146D01*
X144432Y448904D01*
X144500Y449685D01*
X144432Y450466D01*
X144229Y451224D01*
X143897Y451935D01*
X143447Y452578D01*
X142893Y453132D01*
X142250Y453582D01*
X141539Y453914D01*
X140781Y454117D01*
X140000Y454185D01*
Y455185D01*
X140781Y455253D01*
X141539Y455456D01*
X142250Y455788D01*
X142893Y456238D01*
X143447Y456792D01*
X143897Y457435D01*
X144229Y458146D01*
X144432Y458904D01*
X144500Y459685D01*
X144432Y460466D01*
X144229Y461224D01*
X143897Y461935D01*
X143447Y462578D01*
X142893Y463132D01*
X142250Y463582D01*
X141539Y463914D01*
X140781Y464117D01*
X140000Y464185D01*
Y465185D01*
X140781Y465253D01*
X141539Y465456D01*
X142250Y465788D01*
X142893Y466238D01*
X143447Y466792D01*
X143897Y467435D01*
X144229Y468146D01*
X144432Y468904D01*
X144500Y469685D01*
X144432Y470466D01*
X144229Y471224D01*
X143897Y471935D01*
X143447Y472578D01*
X142893Y473132D01*
X142250Y473582D01*
X141539Y473914D01*
X140781Y474117D01*
X140000Y474185D01*
Y484685D01*
G37*
G36*
X130000Y355551D02*X130101Y355335D01*
X130251Y355121D01*
X130436Y354936D01*
X130650Y354786D01*
X130887Y354675D01*
X131140Y354608D01*
X131400Y354585D01*
X138600D01*
X138860Y354608D01*
X139113Y354675D01*
X139350Y354786D01*
X139564Y354936D01*
X139749Y355121D01*
X139899Y355335D01*
X140000Y355551D01*
Y276935D01*
X130000D01*
Y355551D01*
G37*
G36*
X135000Y484685D02*X140000D01*
Y474185D01*
X139219Y474117D01*
X138461Y473914D01*
X137750Y473582D01*
X137107Y473132D01*
X136553Y472578D01*
X136103Y471935D01*
X135771Y471224D01*
X135568Y470466D01*
X135500Y469685D01*
X135568Y468904D01*
X135771Y468146D01*
X136103Y467435D01*
X136553Y466792D01*
X137107Y466238D01*
X137750Y465788D01*
X138461Y465456D01*
X139219Y465253D01*
X140000Y465185D01*
Y464185D01*
X139219Y464117D01*
X138461Y463914D01*
X137750Y463582D01*
X137107Y463132D01*
X136553Y462578D01*
X136103Y461935D01*
X135771Y461224D01*
X135568Y460466D01*
X135500Y459685D01*
X135568Y458904D01*
X135771Y458146D01*
X136103Y457435D01*
X136553Y456792D01*
X137107Y456238D01*
X137750Y455788D01*
X138461Y455456D01*
X139219Y455253D01*
X140000Y455185D01*
Y454185D01*
X139219Y454117D01*
X138461Y453914D01*
X137750Y453582D01*
X137107Y453132D01*
X136553Y452578D01*
X136103Y451935D01*
X135771Y451224D01*
X135568Y450466D01*
X135500Y449685D01*
X135568Y448904D01*
X135771Y448146D01*
X136103Y447435D01*
X136553Y446792D01*
X137107Y446238D01*
X137750Y445788D01*
X138461Y445456D01*
X139219Y445253D01*
X140000Y445185D01*
Y363819D01*
X139899Y364035D01*
X139749Y364249D01*
X139564Y364434D01*
X139350Y364584D01*
X139113Y364695D01*
X138860Y364762D01*
X138600Y364785D01*
X135000D01*
Y374785D01*
X138400D01*
X138660Y374808D01*
X138913Y374875D01*
X139150Y374986D01*
X139364Y375136D01*
X139549Y375321D01*
X139699Y375535D01*
X139810Y375772D01*
X139877Y376025D01*
X139900Y376285D01*
Y383085D01*
X139877Y383345D01*
X139810Y383598D01*
X139699Y383835D01*
X139549Y384049D01*
X139364Y384234D01*
X139150Y384384D01*
X138913Y384495D01*
X138660Y384562D01*
X138400Y384585D01*
X135000D01*
Y484685D01*
G37*
G36*
X130000D02*X135000D01*
Y384585D01*
X131600D01*
X131340Y384562D01*
X131087Y384495D01*
X130850Y384384D01*
X130636Y384234D01*
X130451Y384049D01*
X130301Y383835D01*
X130190Y383598D01*
X130123Y383345D01*
X130100Y383085D01*
Y376285D01*
X130123Y376025D01*
X130190Y375772D01*
X130301Y375535D01*
X130451Y375321D01*
X130636Y375136D01*
X130850Y374986D01*
X131087Y374875D01*
X131340Y374808D01*
X131600Y374785D01*
X135000D01*
Y364785D01*
X131400D01*
X131140Y364762D01*
X130887Y364695D01*
X130650Y364584D01*
X130436Y364434D01*
X130251Y364249D01*
X130101Y364035D01*
X130000Y363819D01*
Y430435D01*
X130738Y430500D01*
X131454Y430691D01*
X132125Y431004D01*
X132732Y431429D01*
X133256Y431953D01*
X133681Y432560D01*
X133994Y433231D01*
X134185Y433947D01*
X134250Y434685D01*
X134185Y435423D01*
X133994Y436139D01*
X133681Y436810D01*
X133256Y437417D01*
X132732Y437941D01*
X132125Y438366D01*
X131454Y438679D01*
X130738Y438870D01*
X130000Y438935D01*
Y484685D01*
G37*
G36*
X120000D02*X130000D01*
Y438935D01*
X129262Y438870D01*
X128546Y438679D01*
X127875Y438366D01*
X127268Y437941D01*
X126744Y437417D01*
X126319Y436810D01*
X126006Y436139D01*
X125815Y435423D01*
X125750Y434685D01*
X125815Y433947D01*
X126006Y433231D01*
X126319Y432560D01*
X126744Y431953D01*
X127268Y431429D01*
X127875Y431004D01*
X128546Y430691D01*
X129262Y430500D01*
X130000Y430435D01*
Y363819D01*
X129990Y363798D01*
X129923Y363545D01*
X129900Y363285D01*
Y356085D01*
X129923Y355825D01*
X129990Y355572D01*
X130000Y355551D01*
Y276935D01*
X122250D01*
Y324685D01*
X122216Y325076D01*
X122114Y325455D01*
X121949Y325810D01*
X121724Y326131D01*
X121446Y326409D01*
X121125Y326634D01*
X120770Y326799D01*
X120391Y326901D01*
X120000Y326935D01*
Y354785D01*
X123400D01*
X123660Y354808D01*
X123913Y354875D01*
X124150Y354986D01*
X124364Y355136D01*
X124549Y355321D01*
X124699Y355535D01*
X124810Y355772D01*
X124877Y356025D01*
X124900Y356285D01*
Y363085D01*
X124877Y363345D01*
X124810Y363598D01*
X124699Y363835D01*
X124549Y364049D01*
X124364Y364234D01*
X124150Y364384D01*
X123913Y364495D01*
X123660Y364562D01*
X123400Y364585D01*
X120000D01*
Y484685D01*
G37*
G36*
X110000D02*X120000D01*
Y364585D01*
X116600D01*
X116340Y364562D01*
X116087Y364495D01*
X115850Y364384D01*
X115636Y364234D01*
X115451Y364049D01*
X115301Y363835D01*
X115190Y363598D01*
X115123Y363345D01*
X115100Y363085D01*
Y356285D01*
X115123Y356025D01*
X115190Y355772D01*
X115301Y355535D01*
X115451Y355321D01*
X115636Y355136D01*
X115850Y354986D01*
X116087Y354875D01*
X116340Y354808D01*
X116600Y354785D01*
X120000D01*
Y326935D01*
X110000D01*
Y445185D01*
X110781Y445253D01*
X111539Y445456D01*
X112250Y445788D01*
X112893Y446238D01*
X113447Y446792D01*
X113897Y447435D01*
X114229Y448146D01*
X114432Y448904D01*
X114500Y449685D01*
X114432Y450466D01*
X114229Y451224D01*
X113897Y451935D01*
X113447Y452578D01*
X112893Y453132D01*
X112250Y453582D01*
X111539Y453914D01*
X110781Y454117D01*
X110000Y454185D01*
Y455185D01*
X110781Y455253D01*
X111539Y455456D01*
X112250Y455788D01*
X112893Y456238D01*
X113447Y456792D01*
X113897Y457435D01*
X114229Y458146D01*
X114432Y458904D01*
X114500Y459685D01*
X114432Y460466D01*
X114229Y461224D01*
X113897Y461935D01*
X113447Y462578D01*
X112893Y463132D01*
X112250Y463582D01*
X111539Y463914D01*
X110781Y464117D01*
X110000Y464185D01*
Y465185D01*
X113000D01*
X113260Y465208D01*
X113513Y465275D01*
X113750Y465386D01*
X113964Y465536D01*
X114149Y465721D01*
X114299Y465935D01*
X114410Y466172D01*
X114477Y466425D01*
X114500Y466685D01*
Y472685D01*
X114477Y472945D01*
X114410Y473198D01*
X114299Y473435D01*
X114149Y473649D01*
X113964Y473834D01*
X113750Y473984D01*
X113513Y474095D01*
X113260Y474162D01*
X113000Y474185D01*
X110000D01*
Y484685D01*
G37*
G36*
X108613Y445415D02*X109219Y445253D01*
X110000Y445185D01*
Y326935D01*
X108613D01*
Y395322D01*
X108750Y395386D01*
X108964Y395536D01*
X109149Y395721D01*
X109299Y395935D01*
X109410Y396172D01*
X109477Y396425D01*
X109500Y396685D01*
Y402685D01*
X109477Y402945D01*
X109410Y403198D01*
X109299Y403435D01*
X109149Y403649D01*
X108964Y403834D01*
X108750Y403984D01*
X108613Y404048D01*
Y407545D01*
X108708Y407567D01*
X108829Y407618D01*
X108938Y407690D01*
X109034Y407779D01*
X109113Y407883D01*
X109172Y408000D01*
X109314Y408407D01*
X109417Y408827D01*
X109479Y409254D01*
X109500Y409685D01*
X109479Y410117D01*
X109417Y410544D01*
X109314Y410964D01*
X109172Y411371D01*
X109171D01*
X109112Y411487D01*
X109033Y411592D01*
X108937Y411681D01*
X108828Y411752D01*
X108707Y411803D01*
X108613Y411824D01*
Y417029D01*
X108897Y417435D01*
X109229Y418146D01*
X109432Y418904D01*
X109500Y419685D01*
X109432Y420466D01*
X109229Y421224D01*
X108897Y421935D01*
X108613Y422341D01*
Y445415D01*
G37*
G36*
Y455415D02*X109219Y455253D01*
X110000Y455185D01*
Y454185D01*
X109219Y454117D01*
X108613Y453955D01*
Y455415D01*
G37*
G36*
Y465185D02*X110000D01*
Y464185D01*
X109219Y464117D01*
X108613Y463955D01*
Y465185D01*
G37*
G36*
Y484685D02*X110000D01*
Y474185D01*
X108613D01*
Y484685D01*
G37*
G36*
Y404048D02*X108513Y404095D01*
X108260Y404162D01*
X108000Y404185D01*
X105000D01*
Y405185D01*
X105431Y405206D01*
X105858Y405268D01*
X106278Y405371D01*
X106685Y405513D01*
Y405514D01*
X106801Y405573D01*
X106906Y405652D01*
X106995Y405748D01*
X107066Y405857D01*
X107117Y405978D01*
X107146Y406105D01*
X107153Y406235D01*
X107137Y406365D01*
X107099Y406490D01*
X107040Y406606D01*
X106961Y406711D01*
X106865Y406800D01*
X106756Y406871D01*
X106635Y406922D01*
X106508Y406951D01*
X106378Y406958D01*
X106248Y406942D01*
X106123Y406904D01*
X105852Y406809D01*
X105572Y406741D01*
X105287Y406699D01*
X105000Y406685D01*
Y412685D01*
X105287Y412672D01*
X105572Y412630D01*
X105852Y412562D01*
X106123Y412467D01*
Y412466D01*
X106248Y412428D01*
X106378Y412412D01*
X106509Y412419D01*
X106636Y412448D01*
X106757Y412499D01*
X106866Y412571D01*
X106962Y412660D01*
X107041Y412764D01*
X107100Y412881D01*
X107138Y413006D01*
X107154Y413136D01*
X107147Y413267D01*
X107118Y413394D01*
X107067Y413515D01*
X106995Y413624D01*
X106906Y413720D01*
X106802Y413799D01*
X106685Y413858D01*
X106278Y414000D01*
X105858Y414103D01*
X105431Y414165D01*
X105000Y414185D01*
Y415185D01*
X105781Y415253D01*
X106539Y415456D01*
X107250Y415788D01*
X107893Y416238D01*
X108447Y416792D01*
X108613Y417029D01*
Y411824D01*
X108580Y411832D01*
X108450Y411839D01*
X108320Y411823D01*
X108195Y411785D01*
X108079Y411726D01*
X107974Y411647D01*
X107885Y411551D01*
X107814Y411442D01*
X107763Y411321D01*
X107734Y411194D01*
X107727Y411064D01*
X107743Y410934D01*
X107781Y410809D01*
X107876Y410538D01*
X107944Y410258D01*
X107986Y409973D01*
X108000Y409685D01*
X107986Y409398D01*
X107944Y409113D01*
X107876Y408833D01*
X107781Y408562D01*
X107780D01*
X107742Y408437D01*
X107726Y408307D01*
X107733Y408176D01*
X107762Y408049D01*
X107813Y407928D01*
X107885Y407819D01*
X107974Y407723D01*
X108078Y407644D01*
X108195Y407585D01*
X108320Y407547D01*
X108450Y407531D01*
X108581Y407538D01*
X108613Y407545D01*
Y404048D01*
G37*
G36*
Y326935D02*X105000D01*
Y395185D01*
X108000D01*
X108260Y395208D01*
X108513Y395275D01*
X108613Y395322D01*
Y326935D01*
G37*
G36*
X105000Y484685D02*X108613D01*
Y474185D01*
X107000D01*
X106740Y474162D01*
X106487Y474095D01*
X106250Y473984D01*
X106036Y473834D01*
X105851Y473649D01*
X105701Y473435D01*
X105590Y473198D01*
X105523Y472945D01*
X105500Y472685D01*
Y466685D01*
X105523Y466425D01*
X105590Y466172D01*
X105701Y465935D01*
X105851Y465721D01*
X106036Y465536D01*
X106250Y465386D01*
X106487Y465275D01*
X106740Y465208D01*
X107000Y465185D01*
X108613D01*
Y463955D01*
X108461Y463914D01*
X107750Y463582D01*
X107107Y463132D01*
X106553Y462578D01*
X106103Y461935D01*
X105771Y461224D01*
X105568Y460466D01*
X105500Y459685D01*
X105568Y458904D01*
X105771Y458146D01*
X106103Y457435D01*
X106553Y456792D01*
X107107Y456238D01*
X107750Y455788D01*
X108461Y455456D01*
X108613Y455415D01*
Y453955D01*
X108461Y453914D01*
X107750Y453582D01*
X107107Y453132D01*
X106553Y452578D01*
X106103Y451935D01*
X105771Y451224D01*
X105568Y450466D01*
X105500Y449685D01*
X105568Y448904D01*
X105771Y448146D01*
X106103Y447435D01*
X106553Y446792D01*
X107107Y446238D01*
X107750Y445788D01*
X108461Y445456D01*
X108613Y445415D01*
Y422341D01*
X108447Y422578D01*
X107893Y423132D01*
X107250Y423582D01*
X106539Y423914D01*
X105781Y424117D01*
X105000Y424185D01*
Y484685D01*
G37*
G36*
X101387Y395322D02*X101487Y395275D01*
X101740Y395208D01*
X102000Y395185D01*
X105000D01*
Y326935D01*
X101387D01*
Y395322D01*
G37*
G36*
Y417029D02*X101553Y416792D01*
X102107Y416238D01*
X102750Y415788D01*
X103461Y415456D01*
X104219Y415253D01*
X105000Y415185D01*
Y414185D01*
X104568Y414165D01*
X104141Y414103D01*
X103721Y414000D01*
X103314Y413858D01*
Y413857D01*
X103198Y413798D01*
X103093Y413719D01*
X103004Y413623D01*
X102933Y413514D01*
X102882Y413393D01*
X102853Y413266D01*
X102846Y413136D01*
X102862Y413006D01*
X102900Y412881D01*
X102959Y412765D01*
X103038Y412660D01*
X103134Y412571D01*
X103243Y412500D01*
X103364Y412449D01*
X103491Y412420D01*
X103621Y412413D01*
X103751Y412429D01*
X103876Y412467D01*
X104147Y412562D01*
X104427Y412630D01*
X104712Y412672D01*
X105000Y412685D01*
Y406685D01*
X104999D01*
X104712Y406699D01*
X104427Y406741D01*
X104147Y406809D01*
X103876Y406904D01*
Y406905D01*
X103751Y406943D01*
X103621Y406959D01*
X103490Y406952D01*
X103363Y406923D01*
X103242Y406872D01*
X103133Y406800D01*
X103037Y406711D01*
X102958Y406607D01*
X102899Y406490D01*
X102861Y406365D01*
X102845Y406235D01*
X102852Y406104D01*
X102881Y405977D01*
X102932Y405856D01*
X103004Y405747D01*
X103093Y405651D01*
X103197Y405572D01*
X103314Y405513D01*
X103721Y405371D01*
X104141Y405268D01*
X104568Y405206D01*
X104999Y405185D01*
X105000D01*
Y404185D01*
X102000D01*
X101740Y404162D01*
X101487Y404095D01*
X101387Y404048D01*
Y407546D01*
X101419Y407539D01*
X101549Y407532D01*
X101679Y407548D01*
X101804Y407586D01*
X101920Y407645D01*
X102025Y407724D01*
X102114Y407820D01*
X102185Y407929D01*
X102236Y408050D01*
X102265Y408177D01*
X102272Y408307D01*
X102256Y408437D01*
X102218Y408562D01*
X102123Y408833D01*
X102055Y409113D01*
X102013Y409398D01*
X102000Y409686D01*
X102013Y409973D01*
X102055Y410258D01*
X102123Y410538D01*
X102218Y410809D01*
X102219D01*
X102257Y410934D01*
X102273Y411064D01*
X102266Y411195D01*
X102237Y411322D01*
X102186Y411443D01*
X102114Y411552D01*
X102025Y411648D01*
X101921Y411727D01*
X101804Y411786D01*
X101679Y411824D01*
X101549Y411840D01*
X101418Y411833D01*
X101387Y411826D01*
Y417029D01*
G37*
G36*
Y484685D02*X105000D01*
Y424185D01*
X104219Y424117D01*
X103461Y423914D01*
X102750Y423582D01*
X102107Y423132D01*
X101553Y422578D01*
X101387Y422341D01*
Y484685D01*
G37*
G36*
X95000D02*X101387D01*
Y422341D01*
X101103Y421935D01*
X100771Y421224D01*
X100568Y420466D01*
X100500Y419685D01*
X100568Y418904D01*
X100771Y418146D01*
X101103Y417435D01*
X101387Y417029D01*
Y411826D01*
X101291Y411804D01*
X101170Y411753D01*
X101061Y411681D01*
X100965Y411592D01*
X100886Y411488D01*
X100827Y411371D01*
X100685Y410964D01*
X100582Y410544D01*
X100520Y410117D01*
X100500Y409686D01*
X100520Y409254D01*
X100582Y408827D01*
X100685Y408407D01*
X100827Y408000D01*
X100828D01*
X100887Y407884D01*
X100966Y407779D01*
X101062Y407690D01*
X101171Y407619D01*
X101292Y407568D01*
X101387Y407546D01*
Y404048D01*
X101250Y403984D01*
X101036Y403834D01*
X100851Y403649D01*
X100701Y403435D01*
X100590Y403198D01*
X100523Y402945D01*
X100500Y402685D01*
Y396685D01*
X100523Y396425D01*
X100590Y396172D01*
X100701Y395935D01*
X100851Y395721D01*
X101036Y395536D01*
X101250Y395386D01*
X101387Y395322D01*
Y326935D01*
X95000D01*
Y374785D01*
X95851Y374859D01*
X96676Y375081D01*
X97450Y375441D01*
X98150Y375931D01*
X98754Y376535D01*
X99244Y377235D01*
X99604Y378009D01*
X99826Y378834D01*
X99900Y379685D01*
X99826Y380536D01*
X99604Y381361D01*
X99244Y382135D01*
X98754Y382835D01*
X98150Y383439D01*
X97450Y383929D01*
X96676Y384289D01*
X95851Y384511D01*
X95000Y384585D01*
Y464785D01*
X98400D01*
X98660Y464808D01*
X98913Y464875D01*
X99150Y464986D01*
X99364Y465136D01*
X99549Y465321D01*
X99699Y465535D01*
X99810Y465772D01*
X99877Y466025D01*
X99900Y466285D01*
Y473085D01*
X99877Y473345D01*
X99810Y473598D01*
X99699Y473835D01*
X99549Y474049D01*
X99364Y474234D01*
X99150Y474384D01*
X98913Y474495D01*
X98660Y474562D01*
X98400Y474585D01*
X95000D01*
Y484685D01*
G37*
G36*
X80000D02*X95000D01*
Y474585D01*
X91600D01*
X91340Y474562D01*
X91087Y474495D01*
X90850Y474384D01*
X90636Y474234D01*
X90451Y474049D01*
X90301Y473835D01*
X90190Y473598D01*
X90123Y473345D01*
X90100Y473085D01*
Y466285D01*
X90123Y466025D01*
X90190Y465772D01*
X90301Y465535D01*
X90451Y465321D01*
X90636Y465136D01*
X90850Y464986D01*
X91087Y464875D01*
X91340Y464808D01*
X91600Y464785D01*
X95000D01*
Y384585D01*
X94149Y384511D01*
X93324Y384289D01*
X92550Y383929D01*
X91850Y383439D01*
X91246Y382835D01*
X90756Y382135D01*
X90396Y381361D01*
X90174Y380536D01*
X90100Y379685D01*
X90174Y378834D01*
X90396Y378009D01*
X90756Y377235D01*
X91246Y376535D01*
X91850Y375931D01*
X92550Y375441D01*
X93324Y375081D01*
X94149Y374859D01*
X95000Y374785D01*
Y326935D01*
X80000D01*
Y354785D01*
X80851Y354859D01*
X81676Y355081D01*
X82450Y355441D01*
X83150Y355931D01*
X83754Y356535D01*
X84244Y357235D01*
X84604Y358009D01*
X84826Y358834D01*
X84900Y359685D01*
X84826Y360536D01*
X84604Y361361D01*
X84244Y362135D01*
X83754Y362835D01*
X83150Y363439D01*
X82450Y363929D01*
X81676Y364289D01*
X80851Y364511D01*
X80000Y364585D01*
Y430435D01*
X82750D01*
X83010Y430458D01*
X83263Y430525D01*
X83500Y430636D01*
X83714Y430786D01*
X83899Y430971D01*
X84049Y431185D01*
X84160Y431422D01*
X84227Y431675D01*
X84250Y431935D01*
Y437435D01*
X84227Y437695D01*
X84160Y437948D01*
X84049Y438185D01*
X83899Y438399D01*
X83714Y438584D01*
X83500Y438734D01*
X83263Y438845D01*
X83010Y438912D01*
X82750Y438935D01*
X80000D01*
Y484685D01*
G37*
G36*
X75000D02*X80000D01*
Y438935D01*
X77250D01*
X76990Y438912D01*
X76737Y438845D01*
X76500Y438734D01*
X76286Y438584D01*
X76101Y438399D01*
X75951Y438185D01*
X75840Y437948D01*
X75773Y437695D01*
X75750Y437435D01*
Y431935D01*
X75773Y431675D01*
X75840Y431422D01*
X75951Y431185D01*
X76101Y430971D01*
X76286Y430786D01*
X76500Y430636D01*
X76737Y430525D01*
X76990Y430458D01*
X77250Y430435D01*
X80000D01*
Y364585D01*
X79149Y364511D01*
X78324Y364289D01*
X77550Y363929D01*
X76850Y363439D01*
X76246Y362835D01*
X75756Y362135D01*
X75396Y361361D01*
X75174Y360536D01*
X75100Y359685D01*
X75174Y358834D01*
X75396Y358009D01*
X75756Y357235D01*
X76246Y356535D01*
X76850Y355931D01*
X77550Y355441D01*
X78324Y355081D01*
X79149Y354859D01*
X80000Y354785D01*
Y326935D01*
X75000D01*
Y395185D01*
X75781Y395253D01*
X76539Y395456D01*
X77250Y395788D01*
X77893Y396238D01*
X78447Y396792D01*
X78897Y397435D01*
X79229Y398146D01*
X79432Y398904D01*
X79500Y399685D01*
X79432Y400466D01*
X79229Y401224D01*
X78897Y401935D01*
X78447Y402578D01*
X77893Y403132D01*
X77250Y403582D01*
X76539Y403914D01*
X75781Y404117D01*
X75000Y404185D01*
Y405185D01*
X75781Y405253D01*
X76539Y405456D01*
X77250Y405788D01*
X77893Y406238D01*
X78447Y406792D01*
X78897Y407435D01*
X79229Y408146D01*
X79432Y408904D01*
X79500Y409685D01*
X79432Y410466D01*
X79229Y411224D01*
X78897Y411935D01*
X78447Y412578D01*
X77893Y413132D01*
X77250Y413582D01*
X76539Y413914D01*
X75781Y414117D01*
X75000Y414185D01*
Y415185D01*
X75781Y415253D01*
X76539Y415456D01*
X77250Y415788D01*
X77893Y416238D01*
X78447Y416792D01*
X78897Y417435D01*
X79229Y418146D01*
X79432Y418904D01*
X79500Y419685D01*
X79432Y420466D01*
X79229Y421224D01*
X78897Y421935D01*
X78447Y422578D01*
X77893Y423132D01*
X77250Y423582D01*
X76539Y423914D01*
X75781Y424117D01*
X75000Y424185D01*
Y484685D01*
G37*
G36*
X69350D02*X75000D01*
Y424185D01*
X74219Y424117D01*
X73461Y423914D01*
X72750Y423582D01*
X72107Y423132D01*
X71553Y422578D01*
X71103Y421935D01*
X70771Y421224D01*
X70568Y420466D01*
X70500Y419685D01*
X70568Y418904D01*
X70771Y418146D01*
X71103Y417435D01*
X71553Y416792D01*
X72107Y416238D01*
X72750Y415788D01*
X73461Y415456D01*
X74219Y415253D01*
X75000Y415185D01*
Y414185D01*
X74219Y414117D01*
X73461Y413914D01*
X72750Y413582D01*
X72107Y413132D01*
X71553Y412578D01*
X71103Y411935D01*
X70771Y411224D01*
X70568Y410466D01*
X70500Y409685D01*
X70568Y408904D01*
X70771Y408146D01*
X71103Y407435D01*
X71553Y406792D01*
X72107Y406238D01*
X72750Y405788D01*
X73461Y405456D01*
X74219Y405253D01*
X75000Y405185D01*
Y404185D01*
X74219Y404117D01*
X73461Y403914D01*
X72750Y403582D01*
X72107Y403132D01*
X71553Y402578D01*
X71103Y401935D01*
X70771Y401224D01*
X70568Y400466D01*
X70500Y399685D01*
X70568Y398904D01*
X70771Y398146D01*
X71103Y397435D01*
X71553Y396792D01*
X72107Y396238D01*
X72750Y395788D01*
X73461Y395456D01*
X74219Y395253D01*
X75000Y395185D01*
Y326935D01*
X69350D01*
Y346835D01*
X70100D01*
Y352535D01*
X69350D01*
Y357039D01*
X69417Y357135D01*
X69792Y357941D01*
X70023Y358799D01*
X70100Y359685D01*
X70023Y360571D01*
X69792Y361429D01*
X69417Y362235D01*
X69350Y362331D01*
Y367039D01*
X69417Y367135D01*
X69792Y367941D01*
X70023Y368799D01*
X70100Y369685D01*
X70023Y370571D01*
X69792Y371429D01*
X69417Y372235D01*
X69350Y372331D01*
Y484685D01*
G37*
G36*
Y362331D02*X68907Y362963D01*
X68278Y363592D01*
X67550Y364102D01*
X66744Y364477D01*
X65971Y364685D01*
X66744Y364893D01*
X67550Y365268D01*
X68278Y365778D01*
X68907Y366407D01*
X69350Y367039D01*
Y362331D01*
G37*
G36*
Y326935D02*X65000D01*
Y344585D01*
X67850D01*
Y346085D01*
X65000D01*
Y353285D01*
X67850D01*
Y354785D01*
X66343D01*
X66744Y354893D01*
X67550Y355268D01*
X68278Y355778D01*
X68907Y356407D01*
X69350Y357039D01*
Y352535D01*
X68600D01*
Y346835D01*
X69350D01*
Y326935D01*
G37*
G36*
X65000D02*X60000D01*
Y346835D01*
X61400D01*
Y352535D01*
X60000D01*
Y358714D01*
X60208Y357941D01*
X60583Y357135D01*
X61093Y356407D01*
X61722Y355778D01*
X62450Y355268D01*
X63256Y354893D01*
X63657Y354785D01*
X62150D01*
Y353285D01*
X65000D01*
Y346085D01*
X62150D01*
Y344585D01*
X65000D01*
Y326935D01*
G37*
G36*
X60000Y484685D02*X69350D01*
Y372331D01*
X68907Y372963D01*
X68278Y373592D01*
X67550Y374102D01*
X66744Y374477D01*
X65886Y374708D01*
X65000Y374785D01*
X64114Y374708D01*
X63256Y374477D01*
X62450Y374102D01*
X61722Y373592D01*
X61093Y372963D01*
X60583Y372235D01*
X60208Y371429D01*
X60000Y370656D01*
Y395435D01*
X60738Y395500D01*
X61454Y395691D01*
X62125Y396004D01*
X62732Y396429D01*
X63256Y396953D01*
X63681Y397560D01*
X63994Y398231D01*
X64185Y398947D01*
X64250Y399685D01*
X64185Y400423D01*
X63994Y401139D01*
X63681Y401810D01*
X63256Y402417D01*
X62732Y402941D01*
X62125Y403366D01*
X61454Y403679D01*
X60738Y403870D01*
X60000Y403935D01*
Y445435D01*
X62750D01*
X63010Y445458D01*
X63263Y445525D01*
X63500Y445636D01*
X63714Y445786D01*
X63899Y445971D01*
X64049Y446185D01*
X64160Y446422D01*
X64227Y446675D01*
X64250Y446935D01*
Y452435D01*
X64227Y452695D01*
X64160Y452948D01*
X64049Y453185D01*
X63899Y453399D01*
X63714Y453584D01*
X63500Y453734D01*
X63263Y453845D01*
X63010Y453912D01*
X62750Y453935D01*
X60000D01*
Y484685D01*
G37*
G36*
X55000D02*X60000D01*
Y453935D01*
X57250D01*
X56990Y453912D01*
X56737Y453845D01*
X56500Y453734D01*
X56286Y453584D01*
X56101Y453399D01*
X55951Y453185D01*
X55840Y452948D01*
X55773Y452695D01*
X55750Y452435D01*
Y446935D01*
X55773Y446675D01*
X55840Y446422D01*
X55951Y446185D01*
X56101Y445971D01*
X56286Y445786D01*
X56500Y445636D01*
X56737Y445525D01*
X56990Y445458D01*
X57250Y445435D01*
X60000D01*
Y403935D01*
X59262Y403870D01*
X58546Y403679D01*
X57875Y403366D01*
X57268Y402941D01*
X56744Y402417D01*
X56319Y401810D01*
X56006Y401139D01*
X55815Y400423D01*
X55750Y399685D01*
X55815Y398947D01*
X56006Y398231D01*
X56319Y397560D01*
X56744Y396953D01*
X57268Y396429D01*
X57875Y396004D01*
X58546Y395691D01*
X59262Y395500D01*
X60000Y395435D01*
Y370656D01*
X59977Y370571D01*
X59900Y369685D01*
X59977Y368799D01*
X60000Y368714D01*
Y360656D01*
X59977Y360571D01*
X59900Y359685D01*
X59977Y358799D01*
X60000Y358714D01*
Y352535D01*
X59900D01*
Y346835D01*
X60000D01*
Y326935D01*
X55000D01*
Y464785D01*
X55851Y464859D01*
X56676Y465081D01*
X57450Y465441D01*
X58150Y465931D01*
X58754Y466535D01*
X59244Y467235D01*
X59604Y468009D01*
X59826Y468834D01*
X59900Y469685D01*
X59826Y470536D01*
X59604Y471361D01*
X59244Y472135D01*
X58754Y472835D01*
X58150Y473439D01*
X57450Y473929D01*
X56676Y474289D01*
X55851Y474511D01*
X55000Y474585D01*
Y484685D01*
G37*
G36*
X39158D02*X55000D01*
Y474585D01*
X54149Y474511D01*
X53324Y474289D01*
X52550Y473929D01*
X51850Y473439D01*
X51246Y472835D01*
X50756Y472135D01*
X50396Y471361D01*
X50174Y470536D01*
X50100Y469685D01*
X50174Y468834D01*
X50396Y468009D01*
X50756Y467235D01*
X51246Y466535D01*
X51850Y465931D01*
X52550Y465441D01*
X53324Y465081D01*
X54149Y464859D01*
X55000Y464785D01*
Y326935D01*
X39446D01*
X39330Y327185D01*
X39158Y327431D01*
Y347253D01*
X39188Y347281D01*
X39240Y347351D01*
X39468Y347757D01*
X39657Y348182D01*
X39806Y348622D01*
X39913Y349075D01*
X39978Y349536D01*
X40000Y350000D01*
X39978Y350465D01*
X39913Y350926D01*
X39806Y351379D01*
X39657Y351819D01*
X39468Y352244D01*
X39240Y352650D01*
X39188Y352720D01*
X39158Y352748D01*
Y366939D01*
X39330Y367185D01*
X39698Y367975D01*
X39924Y368817D01*
X40000Y369685D01*
X39924Y370553D01*
X39698Y371395D01*
X39330Y372185D01*
X39158Y372431D01*
Y397254D01*
X39330Y397500D01*
X39698Y398290D01*
X39924Y399132D01*
X40000Y400000D01*
X39924Y400868D01*
X39698Y401710D01*
X39330Y402500D01*
X39158Y402746D01*
Y416939D01*
X39330Y417185D01*
X39698Y417975D01*
X39924Y418817D01*
X40000Y419685D01*
X39924Y420553D01*
X39698Y421395D01*
X39330Y422185D01*
X39158Y422431D01*
Y446939D01*
X39330Y447185D01*
X39698Y447975D01*
X39924Y448817D01*
X40000Y449685D01*
X39924Y450553D01*
X39698Y451395D01*
X39330Y452185D01*
X39158Y452431D01*
Y466624D01*
X39330Y466870D01*
X39698Y467660D01*
X39924Y468502D01*
X40000Y469370D01*
X39924Y470238D01*
X39698Y471080D01*
X39330Y471870D01*
X39158Y472116D01*
Y484685D01*
G37*
G36*
Y452431D02*X38830Y452899D01*
X38214Y453515D01*
X37500Y454015D01*
X36710Y454383D01*
X35868Y454609D01*
X35000Y454685D01*
Y464370D01*
X35868Y464446D01*
X36710Y464672D01*
X37500Y465040D01*
X38214Y465540D01*
X38830Y466156D01*
X39158Y466624D01*
Y452431D01*
G37*
G36*
Y422431D02*X38830Y422899D01*
X38214Y423515D01*
X37500Y424015D01*
X36710Y424383D01*
X35868Y424609D01*
X35000Y424685D01*
Y444685D01*
X35868Y444761D01*
X36710Y444987D01*
X37500Y445355D01*
X38214Y445855D01*
X38830Y446471D01*
X39158Y446939D01*
Y422431D01*
G37*
G36*
Y402746D02*X38830Y403214D01*
X38214Y403830D01*
X37500Y404330D01*
X36710Y404698D01*
X35868Y404924D01*
X35000Y405000D01*
Y414685D01*
X35868Y414761D01*
X36710Y414987D01*
X37500Y415355D01*
X38214Y415855D01*
X38830Y416471D01*
X39158Y416939D01*
Y402746D01*
G37*
G36*
Y372431D02*X38830Y372899D01*
X38214Y373515D01*
X37500Y374015D01*
X36710Y374383D01*
X35868Y374609D01*
X35000Y374685D01*
Y395000D01*
X35868Y395076D01*
X36710Y395302D01*
X37500Y395670D01*
X38214Y396170D01*
X38830Y396786D01*
X39158Y397254D01*
Y372431D01*
G37*
G36*
Y327431D02*X38830Y327899D01*
X38214Y328515D01*
X37500Y329015D01*
X36710Y329383D01*
X35868Y329609D01*
X35000Y329685D01*
Y345000D01*
X35464Y345022D01*
X35925Y345087D01*
X36378Y345194D01*
X36818Y345343D01*
X37243Y345532D01*
X37649Y345760D01*
X37719Y345812D01*
X37778Y345876D01*
X37825Y345949D01*
X37860Y346030D01*
X37879Y346114D01*
X37884Y346201D01*
X37873Y346288D01*
X37848Y346371D01*
X37808Y346449D01*
X37756Y346519D01*
X37692Y346578D01*
X37619Y346625D01*
X37538Y346660D01*
X37454Y346679D01*
X37367Y346684D01*
X37280Y346673D01*
X37197Y346648D01*
X37119Y346608D01*
X36795Y346426D01*
X36455Y346275D01*
X36102Y346155D01*
X35740Y346070D01*
X35371Y346018D01*
X35000Y346000D01*
Y354000D01*
X35371Y353983D01*
X35740Y353931D01*
X36102Y353846D01*
X36455Y353726D01*
X36795Y353575D01*
X37119Y353393D01*
X37197Y353353D01*
X37280Y353328D01*
X37367Y353317D01*
X37454Y353322D01*
X37538Y353341D01*
X37619Y353376D01*
X37692Y353423D01*
X37756Y353482D01*
X37808Y353552D01*
X37848Y353630D01*
X37873Y353713D01*
X37884Y353800D01*
X37879Y353887D01*
X37860Y353971D01*
X37825Y354052D01*
X37778Y354125D01*
X37719Y354189D01*
X37649Y354241D01*
X37243Y354469D01*
X36818Y354658D01*
X36378Y354807D01*
X35925Y354914D01*
X35464Y354979D01*
X35000Y355000D01*
Y364685D01*
X35868Y364761D01*
X36710Y364987D01*
X37500Y365355D01*
X38214Y365855D01*
X38830Y366471D01*
X39158Y366939D01*
Y352748D01*
X39124Y352779D01*
X39051Y352826D01*
X38970Y352861D01*
X38886Y352880D01*
X38799Y352885D01*
X38712Y352874D01*
X38629Y352849D01*
X38551Y352809D01*
X38481Y352757D01*
X38422Y352693D01*
X38375Y352620D01*
X38340Y352539D01*
X38321Y352455D01*
X38316Y352368D01*
X38327Y352281D01*
X38352Y352198D01*
X38392Y352120D01*
X38574Y351796D01*
X38725Y351456D01*
X38845Y351103D01*
X38930Y350741D01*
X38982Y350372D01*
X39000Y350001D01*
X38982Y349629D01*
X38930Y349260D01*
X38845Y348898D01*
X38725Y348545D01*
X38574Y348205D01*
X38392Y347881D01*
X38352Y347803D01*
X38327Y347720D01*
X38316Y347633D01*
X38321Y347546D01*
X38340Y347462D01*
X38375Y347381D01*
X38422Y347308D01*
X38481Y347244D01*
X38551Y347192D01*
X38629Y347152D01*
X38712Y347127D01*
X38799Y347116D01*
X38886Y347121D01*
X38970Y347140D01*
X39051Y347175D01*
X39124Y347222D01*
X39158Y347253D01*
Y327431D01*
G37*
G36*
X35000Y484685D02*X39158D01*
Y472116D01*
X38830Y472584D01*
X38214Y473200D01*
X37500Y473700D01*
X36710Y474068D01*
X35868Y474294D01*
X35000Y474370D01*
Y484685D01*
G37*
G36*
X30000Y305000D02*X30076Y304132D01*
X30302Y303290D01*
X30670Y302500D01*
X31170Y301786D01*
X31786Y301170D01*
X32500Y300670D01*
X33290Y300302D01*
X34132Y300076D01*
X35000Y300000D01*
Y224685D01*
X30000D01*
Y259785D01*
X30851Y259859D01*
X31676Y260081D01*
X32450Y260441D01*
X33150Y260931D01*
X33754Y261535D01*
X34244Y262235D01*
X34604Y263009D01*
X34826Y263834D01*
X34900Y264685D01*
X34826Y265536D01*
X34604Y266361D01*
X34244Y267135D01*
X33754Y267835D01*
X33150Y268439D01*
X32450Y268929D01*
X31676Y269289D01*
X30851Y269511D01*
X30000Y269585D01*
Y275185D01*
X33000D01*
X33260Y275208D01*
X33513Y275275D01*
X33750Y275386D01*
X33964Y275536D01*
X34149Y275721D01*
X34299Y275935D01*
X34410Y276172D01*
X34477Y276425D01*
X34500Y276685D01*
Y282685D01*
X34477Y282945D01*
X34410Y283198D01*
X34299Y283435D01*
X34149Y283649D01*
X33964Y283834D01*
X33750Y283984D01*
X33513Y284095D01*
X33260Y284162D01*
X33000Y284185D01*
X30000D01*
Y305000D01*
G37*
G36*
Y324685D02*X30076Y323817D01*
X30302Y322975D01*
X30670Y322185D01*
X31170Y321471D01*
X31786Y320855D01*
X32500Y320355D01*
X33290Y319987D01*
X34132Y319761D01*
X35000Y319685D01*
Y310000D01*
X34132Y309924D01*
X33290Y309698D01*
X32500Y309330D01*
X31786Y308830D01*
X31170Y308214D01*
X30670Y307500D01*
X30302Y306710D01*
X30076Y305868D01*
X30000Y305000D01*
Y324685D01*
G37*
G36*
Y369685D02*X30076Y368817D01*
X30302Y367975D01*
X30670Y367185D01*
X31170Y366471D01*
X31786Y365855D01*
X32500Y365355D01*
X33290Y364987D01*
X34132Y364761D01*
X35000Y364685D01*
Y355000D01*
X34999D01*
X34535Y354979D01*
X34074Y354914D01*
X33621Y354807D01*
X33181Y354658D01*
X32756Y354469D01*
X32350Y354241D01*
X32280Y354189D01*
X32221Y354125D01*
X32174Y354052D01*
X32139Y353971D01*
X32120Y353887D01*
X32115Y353800D01*
X32126Y353713D01*
X32151Y353630D01*
X32191Y353552D01*
X32243Y353482D01*
X32307Y353423D01*
X32380Y353376D01*
X32461Y353341D01*
X32545Y353322D01*
X32632Y353317D01*
X32719Y353328D01*
X32802Y353353D01*
X32880Y353393D01*
X33204Y353575D01*
X33544Y353726D01*
X33897Y353846D01*
X34259Y353931D01*
X34628Y353983D01*
X35000Y354000D01*
Y346000D01*
X34999D01*
X34628Y346018D01*
X34259Y346070D01*
X33897Y346155D01*
X33544Y346275D01*
X33204Y346426D01*
X32880Y346608D01*
X32802Y346648D01*
X32719Y346673D01*
X32632Y346684D01*
X32545Y346679D01*
X32461Y346660D01*
X32380Y346625D01*
X32307Y346578D01*
X32243Y346519D01*
X32191Y346449D01*
X32151Y346371D01*
X32126Y346288D01*
X32115Y346201D01*
X32120Y346114D01*
X32139Y346030D01*
X32174Y345949D01*
X32221Y345876D01*
X32280Y345812D01*
X32350Y345760D01*
X32756Y345532D01*
X33181Y345343D01*
X33621Y345194D01*
X34074Y345087D01*
X34535Y345022D01*
X35000Y345000D01*
Y329685D01*
X34132Y329609D01*
X33290Y329383D01*
X32500Y329015D01*
X31786Y328515D01*
X31170Y327899D01*
X30670Y327185D01*
X30302Y326395D01*
X30076Y325553D01*
X30000Y324685D01*
Y350000D01*
X30021Y349536D01*
X30086Y349075D01*
X30193Y348622D01*
X30342Y348182D01*
X30531Y347757D01*
X30759Y347351D01*
X30811Y347281D01*
X30875Y347222D01*
X30948Y347175D01*
X31029Y347140D01*
X31113Y347121D01*
X31200Y347116D01*
X31287Y347127D01*
X31370Y347152D01*
X31448Y347192D01*
X31518Y347244D01*
X31577Y347308D01*
X31624Y347381D01*
X31659Y347462D01*
X31678Y347546D01*
X31683Y347633D01*
X31672Y347720D01*
X31647Y347803D01*
X31607Y347881D01*
X31425Y348205D01*
X31274Y348545D01*
X31154Y348898D01*
X31069Y349260D01*
X31017Y349629D01*
X31000Y350001D01*
X31017Y350372D01*
X31069Y350741D01*
X31154Y351103D01*
X31274Y351456D01*
X31425Y351796D01*
X31607Y352120D01*
X31647Y352198D01*
X31672Y352281D01*
X31683Y352368D01*
X31678Y352455D01*
X31659Y352539D01*
X31624Y352620D01*
X31577Y352693D01*
X31518Y352757D01*
X31448Y352809D01*
X31370Y352849D01*
X31287Y352874D01*
X31200Y352885D01*
X31113Y352880D01*
X31029Y352861D01*
X30948Y352826D01*
X30875Y352779D01*
X30811Y352720D01*
X30759Y352650D01*
X30531Y352244D01*
X30342Y351819D01*
X30193Y351379D01*
X30086Y350926D01*
X30021Y350465D01*
X30000Y350000D01*
Y369685D01*
G37*
G36*
Y400000D02*X30076Y399132D01*
X30302Y398290D01*
X30670Y397500D01*
X31170Y396786D01*
X31786Y396170D01*
X32500Y395670D01*
X33290Y395302D01*
X34132Y395076D01*
X35000Y395000D01*
Y374685D01*
X34132Y374609D01*
X33290Y374383D01*
X32500Y374015D01*
X31786Y373515D01*
X31170Y372899D01*
X30670Y372185D01*
X30302Y371395D01*
X30076Y370553D01*
X30000Y369685D01*
Y400000D01*
G37*
G36*
Y419685D02*X30076Y418817D01*
X30302Y417975D01*
X30670Y417185D01*
X31170Y416471D01*
X31786Y415855D01*
X32500Y415355D01*
X33290Y414987D01*
X34132Y414761D01*
X35000Y414685D01*
Y405000D01*
X34132Y404924D01*
X33290Y404698D01*
X32500Y404330D01*
X31786Y403830D01*
X31170Y403214D01*
X30670Y402500D01*
X30302Y401710D01*
X30076Y400868D01*
X30000Y400000D01*
Y419685D01*
G37*
G36*
Y449685D02*X30076Y448817D01*
X30302Y447975D01*
X30670Y447185D01*
X31170Y446471D01*
X31786Y445855D01*
X32500Y445355D01*
X33290Y444987D01*
X34132Y444761D01*
X35000Y444685D01*
Y424685D01*
X34132Y424609D01*
X33290Y424383D01*
X32500Y424015D01*
X31786Y423515D01*
X31170Y422899D01*
X30670Y422185D01*
X30302Y421395D01*
X30076Y420553D01*
X30000Y419685D01*
Y449685D01*
G37*
G36*
Y469370D02*X30076Y468502D01*
X30302Y467660D01*
X30670Y466870D01*
X31170Y466156D01*
X31786Y465540D01*
X32500Y465040D01*
X33290Y464672D01*
X34132Y464446D01*
X35000Y464370D01*
Y454685D01*
X34132Y454609D01*
X33290Y454383D01*
X32500Y454015D01*
X31786Y453515D01*
X31170Y452899D01*
X30670Y452185D01*
X30302Y451395D01*
X30076Y450553D01*
X30000Y449685D01*
Y469370D01*
G37*
G36*
Y484685D02*X35000D01*
Y474370D01*
X34132Y474294D01*
X33290Y474068D01*
X32500Y473700D01*
X31786Y473200D01*
X31170Y472584D01*
X30670Y471870D01*
X30302Y471080D01*
X30076Y470238D01*
X30000Y469370D01*
Y484685D01*
G37*
G36*
X15000Y224685D02*Y484685D01*
X30000D01*
Y284185D01*
X27000D01*
X26740Y284162D01*
X26487Y284095D01*
X26250Y283984D01*
X26036Y283834D01*
X25851Y283649D01*
X25701Y283435D01*
X25590Y283198D01*
X25523Y282945D01*
X25500Y282685D01*
Y276685D01*
X25523Y276425D01*
X25590Y276172D01*
X25701Y275935D01*
X25851Y275721D01*
X26036Y275536D01*
X26250Y275386D01*
X26487Y275275D01*
X26740Y275208D01*
X27000Y275185D01*
X30000D01*
Y269585D01*
X29149Y269511D01*
X28324Y269289D01*
X27550Y268929D01*
X26850Y268439D01*
X26246Y267835D01*
X25756Y267135D01*
X25396Y266361D01*
X25174Y265536D01*
X25100Y264685D01*
X25174Y263834D01*
X25396Y263009D01*
X25756Y262235D01*
X26246Y261535D01*
X26850Y260931D01*
X27550Y260441D01*
X28324Y260081D01*
X29149Y259859D01*
X30000Y259785D01*
Y224685D01*
X15000D01*
G37*
G36*
X312502Y479685D02*X325000D01*
Y429685D01*
X312502D01*
Y459720D01*
X312894Y460365D01*
X313260Y461113D01*
X313555Y461893D01*
X313777Y462696D01*
X313923Y463517D01*
X313993Y464347D01*
X313986Y465181D01*
X313902Y466010D01*
X313741Y466828D01*
X313505Y467627D01*
X313197Y468401D01*
X312818Y469144D01*
X312502Y469643D01*
Y479685D01*
G37*
G36*
X305059D02*X312502D01*
Y469643D01*
X312372Y469848D01*
X312373Y469849D01*
X312289Y469949D01*
X312189Y470033D01*
X312075Y470099D01*
X311952Y470143D01*
X311823Y470166D01*
X311692D01*
X311563Y470143D01*
X311440Y470098D01*
X311327Y470033D01*
X311227Y469949D01*
X311143Y469849D01*
X311077Y469735D01*
X311033Y469612D01*
X311010Y469483D01*
Y469352D01*
X311033Y469223D01*
X311078Y469100D01*
X311143Y468987D01*
X311515Y468401D01*
X311830Y467782D01*
X312088Y467137D01*
X312284Y466471D01*
X312418Y465789D01*
X312488Y465098D01*
X312494Y464404D01*
X312436Y463712D01*
X312314Y463028D01*
X312129Y462358D01*
X311883Y461709D01*
X311579Y461085D01*
X311217Y460492D01*
Y460491D01*
X311154Y460377D01*
X311111Y460253D01*
X311091Y460124D01*
X311093Y459993D01*
X311118Y459865D01*
X311165Y459743D01*
X311233Y459631D01*
X311318Y459532D01*
X311420Y459450D01*
X311534Y459387D01*
X311658Y459344D01*
X311787Y459324D01*
X311918Y459326D01*
X312046Y459351D01*
X312168Y459398D01*
X312280Y459466D01*
X312379Y459551D01*
X312461Y459653D01*
X312502Y459720D01*
Y429685D01*
X305059D01*
Y455695D01*
X305495Y455699D01*
X306324Y455783D01*
X307142Y455944D01*
X307941Y456180D01*
X308715Y456488D01*
X309458Y456867D01*
X310162Y457313D01*
X310163Y457312D01*
X310263Y457396D01*
X310347Y457496D01*
X310413Y457610D01*
X310457Y457733D01*
X310480Y457862D01*
Y457993D01*
X310457Y458122D01*
X310412Y458245D01*
X310347Y458358D01*
X310263Y458458D01*
X310163Y458542D01*
X310049Y458608D01*
X309926Y458652D01*
X309797Y458675D01*
X309666D01*
X309537Y458652D01*
X309414Y458607D01*
X309301Y458542D01*
X308715Y458170D01*
X308096Y457855D01*
X307451Y457597D01*
X306785Y457401D01*
X306103Y457267D01*
X305412Y457197D01*
X305059Y457194D01*
Y472178D01*
X305281Y472180D01*
X305973Y472122D01*
X306657Y472000D01*
X307327Y471815D01*
X307976Y471569D01*
X308600Y471265D01*
X309193Y470903D01*
X309194D01*
X309308Y470840D01*
X309432Y470797D01*
X309561Y470777D01*
X309692Y470779D01*
X309820Y470804D01*
X309942Y470851D01*
X310054Y470919D01*
X310153Y471004D01*
X310235Y471106D01*
X310298Y471220D01*
X310341Y471344D01*
X310361Y471473D01*
X310359Y471604D01*
X310334Y471732D01*
X310287Y471854D01*
X310219Y471966D01*
X310134Y472065D01*
X310032Y472147D01*
X309320Y472580D01*
X308572Y472946D01*
X307792Y473241D01*
X306989Y473463D01*
X306168Y473609D01*
X305338Y473679D01*
X305059Y473677D01*
Y479685D01*
G37*
G36*
X297498D02*X305059D01*
Y473677D01*
X304504Y473672D01*
X303675Y473588D01*
X302857Y473427D01*
X302058Y473191D01*
X301284Y472883D01*
X300541Y472504D01*
X299837Y472058D01*
X299836Y472059D01*
X299736Y471975D01*
X299652Y471875D01*
X299586Y471761D01*
X299542Y471638D01*
X299519Y471509D01*
Y471378D01*
X299542Y471249D01*
X299587Y471126D01*
X299652Y471013D01*
X299736Y470913D01*
X299836Y470829D01*
X299950Y470763D01*
X300073Y470719D01*
X300202Y470696D01*
X300333D01*
X300462Y470719D01*
X300585Y470764D01*
X300698Y470829D01*
X301284Y471201D01*
X301903Y471516D01*
X302548Y471774D01*
X303214Y471970D01*
X303896Y472104D01*
X304587Y472174D01*
X305059Y472178D01*
Y457194D01*
X304718Y457191D01*
X304026Y457249D01*
X303342Y457371D01*
X302672Y457556D01*
X302023Y457802D01*
X301399Y458106D01*
X300806Y458468D01*
X300805D01*
X300691Y458531D01*
X300567Y458574D01*
X300438Y458594D01*
X300307Y458592D01*
X300179Y458567D01*
X300057Y458520D01*
X299945Y458452D01*
X299846Y458367D01*
X299764Y458265D01*
X299701Y458151D01*
X299658Y458027D01*
X299638Y457898D01*
X299640Y457767D01*
X299665Y457639D01*
X299712Y457517D01*
X299780Y457405D01*
X299865Y457306D01*
X299967Y457224D01*
X300679Y456791D01*
X301427Y456425D01*
X302207Y456130D01*
X303010Y455908D01*
X303831Y455762D01*
X304661Y455692D01*
X305059Y455695D01*
Y429685D01*
X297498D01*
Y459727D01*
X297627Y459523D01*
X297626Y459522D01*
X297710Y459422D01*
X297810Y459338D01*
X297924Y459272D01*
X298047Y459228D01*
X298176Y459205D01*
X298307D01*
X298436Y459228D01*
X298559Y459273D01*
X298672Y459338D01*
X298772Y459422D01*
X298856Y459522D01*
X298922Y459636D01*
X298966Y459759D01*
X298989Y459888D01*
Y460019D01*
X298966Y460148D01*
X298921Y460271D01*
X298856Y460384D01*
X298484Y460970D01*
X298169Y461589D01*
X297911Y462234D01*
X297715Y462900D01*
X297581Y463582D01*
X297511Y464273D01*
X297505Y464967D01*
X297563Y465659D01*
X297685Y466343D01*
X297870Y467013D01*
X298116Y467662D01*
X298420Y468286D01*
X298782Y468879D01*
Y468880D01*
X298845Y468994D01*
X298888Y469118D01*
X298908Y469247D01*
X298906Y469378D01*
X298881Y469506D01*
X298834Y469628D01*
X298766Y469740D01*
X298681Y469839D01*
X298579Y469921D01*
X298465Y469984D01*
X298341Y470027D01*
X298212Y470047D01*
X298081Y470045D01*
X297953Y470020D01*
X297831Y469973D01*
X297719Y469905D01*
X297620Y469820D01*
X297538Y469718D01*
X297498Y469652D01*
Y479685D01*
G37*
G36*
X251600D02*X297498D01*
Y469652D01*
X297105Y469006D01*
X296739Y468258D01*
X296444Y467478D01*
X296222Y466675D01*
X296076Y465854D01*
X296006Y465024D01*
X296013Y464190D01*
X296097Y463361D01*
X296258Y462543D01*
X296494Y461744D01*
X296802Y460970D01*
X297181Y460227D01*
X297498Y459727D01*
Y429685D01*
X251600D01*
Y430185D01*
X252381Y430253D01*
X253139Y430456D01*
X253850Y430788D01*
X254493Y431238D01*
X255047Y431792D01*
X255497Y432435D01*
X255829Y433146D01*
X256032Y433904D01*
X256100Y434685D01*
X256032Y435466D01*
X255829Y436224D01*
X255497Y436935D01*
X255047Y437578D01*
X254493Y438132D01*
X253850Y438582D01*
X253139Y438914D01*
X252381Y439117D01*
X251600Y439185D01*
Y440185D01*
X252381Y440253D01*
X253139Y440456D01*
X253850Y440788D01*
X254493Y441238D01*
X255047Y441792D01*
X255497Y442435D01*
X255829Y443146D01*
X256032Y443904D01*
X256100Y444685D01*
X256032Y445466D01*
X255829Y446224D01*
X255497Y446935D01*
X255047Y447578D01*
X254493Y448132D01*
X253850Y448582D01*
X253139Y448914D01*
X252381Y449117D01*
X251600Y449185D01*
Y450185D01*
X252381Y450253D01*
X253139Y450456D01*
X253850Y450788D01*
X254493Y451238D01*
X255047Y451792D01*
X255497Y452435D01*
X255829Y453146D01*
X256032Y453904D01*
X256100Y454685D01*
X256032Y455466D01*
X255829Y456224D01*
X255497Y456935D01*
X255047Y457578D01*
X254493Y458132D01*
X253850Y458582D01*
X253139Y458914D01*
X252381Y459117D01*
X251600Y459185D01*
Y460185D01*
X252381Y460253D01*
X253139Y460456D01*
X253850Y460788D01*
X254493Y461238D01*
X255047Y461792D01*
X255497Y462435D01*
X255829Y463146D01*
X256032Y463904D01*
X256100Y464685D01*
X256032Y465466D01*
X255829Y466224D01*
X255497Y466935D01*
X255047Y467578D01*
X254493Y468132D01*
X253850Y468582D01*
X253139Y468914D01*
X252381Y469117D01*
X251600Y469185D01*
Y470185D01*
X252381Y470253D01*
X253139Y470456D01*
X253850Y470788D01*
X254493Y471238D01*
X255047Y471792D01*
X255497Y472435D01*
X255829Y473146D01*
X256032Y473904D01*
X256100Y474685D01*
X256032Y475466D01*
X255829Y476224D01*
X255497Y476935D01*
X255047Y477578D01*
X254493Y478132D01*
X253850Y478582D01*
X253139Y478914D01*
X252381Y479117D01*
X251600Y479185D01*
Y479685D01*
G37*
G36*
Y429685D02*X165000D01*
Y430185D01*
X165781Y430253D01*
X166539Y430456D01*
X167250Y430788D01*
X167893Y431238D01*
X168447Y431792D01*
X168897Y432435D01*
X169229Y433146D01*
X169432Y433904D01*
X169500Y434685D01*
X169432Y435466D01*
X169229Y436224D01*
X168897Y436935D01*
X168447Y437578D01*
X167893Y438132D01*
X167250Y438582D01*
X166539Y438914D01*
X165781Y439117D01*
X165000Y439185D01*
Y440185D01*
X165781Y440253D01*
X166539Y440456D01*
X167250Y440788D01*
X167893Y441238D01*
X168447Y441792D01*
X168897Y442435D01*
X169229Y443146D01*
X169432Y443904D01*
X169500Y444685D01*
X169432Y445466D01*
X169229Y446224D01*
X168897Y446935D01*
X168447Y447578D01*
X167893Y448132D01*
X167250Y448582D01*
X166539Y448914D01*
X165781Y449117D01*
X165000Y449185D01*
Y450185D01*
X165781Y450253D01*
X166539Y450456D01*
X167250Y450788D01*
X167893Y451238D01*
X168447Y451792D01*
X168897Y452435D01*
X169229Y453146D01*
X169432Y453904D01*
X169500Y454685D01*
X169432Y455466D01*
X169229Y456224D01*
X168897Y456935D01*
X168447Y457578D01*
X167893Y458132D01*
X167250Y458582D01*
X166539Y458914D01*
X165781Y459117D01*
X165000Y459185D01*
Y460185D01*
X165781Y460253D01*
X166539Y460456D01*
X167250Y460788D01*
X167893Y461238D01*
X168447Y461792D01*
X168897Y462435D01*
X169229Y463146D01*
X169432Y463904D01*
X169500Y464685D01*
X169432Y465466D01*
X169229Y466224D01*
X168897Y466935D01*
X168447Y467578D01*
X167893Y468132D01*
X167250Y468582D01*
X166539Y468914D01*
X165781Y469117D01*
X165000Y469185D01*
Y470185D01*
X168000D01*
X168260Y470208D01*
X168513Y470275D01*
X168750Y470386D01*
X168964Y470536D01*
X169149Y470721D01*
X169299Y470935D01*
X169410Y471172D01*
X169477Y471425D01*
X169500Y471685D01*
Y472435D01*
X232750D01*
Y454685D01*
X232784Y454294D01*
X232886Y453915D01*
X233051Y453560D01*
X233276Y453239D01*
X233554Y452961D01*
X233875Y452736D01*
X234230Y452571D01*
X234609Y452469D01*
X235000Y452435D01*
X247703D01*
X248153Y451792D01*
X248707Y451238D01*
X249350Y450788D01*
X250061Y450456D01*
X250819Y450253D01*
X251600Y450185D01*
Y449185D01*
X250819Y449117D01*
X250061Y448914D01*
X249350Y448582D01*
X248707Y448132D01*
X248153Y447578D01*
X247703Y446935D01*
X247371Y446224D01*
X247168Y445466D01*
X247100Y444685D01*
X247168Y443904D01*
X247371Y443146D01*
X247703Y442435D01*
X248153Y441792D01*
X248707Y441238D01*
X249350Y440788D01*
X250061Y440456D01*
X250819Y440253D01*
X251600Y440185D01*
Y439185D01*
X250819Y439117D01*
X250061Y438914D01*
X249350Y438582D01*
X248707Y438132D01*
X248153Y437578D01*
X247703Y436935D01*
X247371Y436224D01*
X247168Y435466D01*
X247100Y434685D01*
X247168Y433904D01*
X247371Y433146D01*
X247703Y432435D01*
X248153Y431792D01*
X248707Y431238D01*
X249350Y430788D01*
X250061Y430456D01*
X250819Y430253D01*
X251600Y430185D01*
Y429685D01*
G37*
G36*
X165000Y479685D02*X251600D01*
Y479185D01*
X250819Y479117D01*
X250061Y478914D01*
X249350Y478582D01*
X248707Y478132D01*
X248153Y477578D01*
X247703Y476935D01*
X247371Y476224D01*
X247168Y475466D01*
X247100Y474685D01*
X247168Y473904D01*
X247371Y473146D01*
X247703Y472435D01*
X248153Y471792D01*
X248707Y471238D01*
X249350Y470788D01*
X250061Y470456D01*
X250819Y470253D01*
X251600Y470185D01*
Y469185D01*
X250819Y469117D01*
X250061Y468914D01*
X249350Y468582D01*
X248707Y468132D01*
X248153Y467578D01*
X247703Y466935D01*
X247371Y466224D01*
X247168Y465466D01*
X247100Y464685D01*
X247168Y463904D01*
X247371Y463146D01*
X247703Y462435D01*
X248153Y461792D01*
X248707Y461238D01*
X249350Y460788D01*
X250061Y460456D01*
X250819Y460253D01*
X251600Y460185D01*
Y459185D01*
X250819Y459117D01*
X250061Y458914D01*
X249350Y458582D01*
X248707Y458132D01*
X248153Y457578D01*
X247703Y456935D01*
X237250D01*
Y474685D01*
X237216Y475076D01*
X237114Y475455D01*
X236949Y475810D01*
X236724Y476131D01*
X236446Y476409D01*
X236125Y476634D01*
X235770Y476799D01*
X235391Y476901D01*
X235000Y476935D01*
X169500D01*
Y477685D01*
X169477Y477945D01*
X169410Y478198D01*
X169299Y478435D01*
X169149Y478649D01*
X168964Y478834D01*
X168750Y478984D01*
X168513Y479095D01*
X168260Y479162D01*
X168000Y479185D01*
X165000D01*
Y479685D01*
G37*
G36*
X145000Y429685D02*Y479685D01*
X165000D01*
Y479185D01*
X162000D01*
X161740Y479162D01*
X161487Y479095D01*
X161250Y478984D01*
X161036Y478834D01*
X160851Y478649D01*
X160701Y478435D01*
X160590Y478198D01*
X160523Y477945D01*
X160500Y477685D01*
Y471685D01*
X160523Y471425D01*
X160590Y471172D01*
X160701Y470935D01*
X160851Y470721D01*
X161036Y470536D01*
X161250Y470386D01*
X161487Y470275D01*
X161740Y470208D01*
X162000Y470185D01*
X165000D01*
Y469185D01*
X164219Y469117D01*
X163461Y468914D01*
X162750Y468582D01*
X162107Y468132D01*
X161553Y467578D01*
X161103Y466935D01*
X160771Y466224D01*
X160568Y465466D01*
X160500Y464685D01*
X160568Y463904D01*
X160771Y463146D01*
X161103Y462435D01*
X161553Y461792D01*
X162107Y461238D01*
X162750Y460788D01*
X163461Y460456D01*
X164219Y460253D01*
X165000Y460185D01*
Y459185D01*
X164219Y459117D01*
X163461Y458914D01*
X162750Y458582D01*
X162107Y458132D01*
X161553Y457578D01*
X161103Y456935D01*
X160771Y456224D01*
X160568Y455466D01*
X160500Y454685D01*
X160568Y453904D01*
X160771Y453146D01*
X161103Y452435D01*
X161553Y451792D01*
X162107Y451238D01*
X162750Y450788D01*
X163461Y450456D01*
X164219Y450253D01*
X165000Y450185D01*
Y449185D01*
X164219Y449117D01*
X163461Y448914D01*
X162750Y448582D01*
X162107Y448132D01*
X161553Y447578D01*
X161103Y446935D01*
X160771Y446224D01*
X160568Y445466D01*
X160500Y444685D01*
X160568Y443904D01*
X160771Y443146D01*
X161103Y442435D01*
X161553Y441792D01*
X162107Y441238D01*
X162750Y440788D01*
X163461Y440456D01*
X164219Y440253D01*
X165000Y440185D01*
Y439185D01*
X164219Y439117D01*
X163461Y438914D01*
X162750Y438582D01*
X162107Y438132D01*
X161553Y437578D01*
X161103Y436935D01*
X160771Y436224D01*
X160568Y435466D01*
X160500Y434685D01*
X160568Y433904D01*
X160771Y433146D01*
X161103Y432435D01*
X161553Y431792D01*
X162107Y431238D01*
X162750Y430788D01*
X163461Y430456D01*
X164219Y430253D01*
X165000Y430185D01*
Y429685D01*
X145000D01*
G37*
G36*
X320000Y315000D02*X320868Y315076D01*
X321710Y315302D01*
X322500Y315670D01*
X323214Y316170D01*
X323830Y316786D01*
X324330Y317500D01*
X324698Y318290D01*
X324924Y319132D01*
X325000Y320000D01*
X324924Y320868D01*
X324698Y321710D01*
X324330Y322500D01*
X323830Y323214D01*
X323214Y323830D01*
X322500Y324330D01*
X321710Y324698D01*
X320868Y324924D01*
X320000Y325000D01*
Y334685D01*
X320868Y334761D01*
X321710Y334987D01*
X322500Y335355D01*
X323214Y335855D01*
X323830Y336471D01*
X324330Y337185D01*
X324698Y337975D01*
X324924Y338817D01*
X325000Y339685D01*
X324924Y340553D01*
X324698Y341395D01*
X324330Y342185D01*
X323830Y342899D01*
X323214Y343515D01*
X322500Y344015D01*
X321710Y344383D01*
X320868Y344609D01*
X320000Y344685D01*
Y365185D01*
X320781Y365253D01*
X321539Y365456D01*
X322250Y365788D01*
X322893Y366238D01*
X323447Y366792D01*
X323897Y367435D01*
X324229Y368146D01*
X324432Y368904D01*
X324500Y369685D01*
X324432Y370466D01*
X324229Y371224D01*
X323897Y371935D01*
X323447Y372578D01*
X322893Y373132D01*
X322250Y373582D01*
X321539Y373914D01*
X320781Y374117D01*
X320000Y374185D01*
Y375185D01*
X323000D01*
X323260Y375208D01*
X323513Y375275D01*
X323750Y375386D01*
X323964Y375536D01*
X324149Y375721D01*
X324299Y375935D01*
X324410Y376172D01*
X324477Y376425D01*
X324500Y376685D01*
Y382685D01*
X324477Y382945D01*
X324410Y383198D01*
X324299Y383435D01*
X324149Y383649D01*
X323964Y383834D01*
X323750Y383984D01*
X323513Y384095D01*
X323260Y384162D01*
X323000Y384185D01*
X320000D01*
Y394405D01*
X320196Y394685D01*
X320638Y395633D01*
X320909Y396643D01*
X321000Y397685D01*
X320909Y398727D01*
X320638Y399737D01*
X320196Y400685D01*
X320000Y400965D01*
Y485000D01*
X345000D01*
Y225000D01*
X320000D01*
Y315000D01*
G37*
G36*
Y400965D02*X319596Y401542D01*
X318857Y402281D01*
X318000Y402881D01*
X317052Y403323D01*
X316042Y403594D01*
X315000Y403685D01*
Y485000D01*
X320000D01*
Y400965D01*
G37*
G36*
X315000Y339685D02*Y391685D01*
X316042Y391776D01*
X317052Y392047D01*
X318000Y392489D01*
X318857Y393089D01*
X319596Y393828D01*
X320000Y394405D01*
Y384185D01*
X317000D01*
X316740Y384162D01*
X316487Y384095D01*
X316250Y383984D01*
X316036Y383834D01*
X315851Y383649D01*
X315701Y383435D01*
X315590Y383198D01*
X315523Y382945D01*
X315500Y382685D01*
Y376685D01*
X315523Y376425D01*
X315590Y376172D01*
X315701Y375935D01*
X315851Y375721D01*
X316036Y375536D01*
X316250Y375386D01*
X316487Y375275D01*
X316740Y375208D01*
X317000Y375185D01*
X320000D01*
Y374185D01*
X319219Y374117D01*
X318461Y373914D01*
X317750Y373582D01*
X317107Y373132D01*
X316553Y372578D01*
X316103Y371935D01*
X315771Y371224D01*
X315568Y370466D01*
X315500Y369685D01*
X315568Y368904D01*
X315771Y368146D01*
X316103Y367435D01*
X316553Y366792D01*
X317107Y366238D01*
X317750Y365788D01*
X318461Y365456D01*
X319219Y365253D01*
X320000Y365185D01*
Y344685D01*
X319132Y344609D01*
X318290Y344383D01*
X317500Y344015D01*
X316786Y343515D01*
X316170Y342899D01*
X315670Y342185D01*
X315302Y341395D01*
X315076Y340553D01*
X315000Y339685D01*
G37*
G36*
Y320000D02*Y339685D01*
X315076Y338817D01*
X315302Y337975D01*
X315670Y337185D01*
X316170Y336471D01*
X316786Y335855D01*
X317500Y335355D01*
X318290Y334987D01*
X319132Y334761D01*
X320000Y334685D01*
Y325000D01*
X319132Y324924D01*
X318290Y324698D01*
X317500Y324330D01*
X316786Y323830D01*
X316170Y323214D01*
X315670Y322500D01*
X315302Y321710D01*
X315076Y320868D01*
X315000Y320000D01*
G37*
G36*
Y225000D02*Y320000D01*
X315076Y319132D01*
X315302Y318290D01*
X315670Y317500D01*
X316170Y316786D01*
X316786Y316170D01*
X317500Y315670D01*
X318290Y315302D01*
X319132Y315076D01*
X320000Y315000D01*
Y225000D01*
X315000D01*
G37*
G36*
X30000Y305000D02*X30076Y304132D01*
X30302Y303290D01*
X30670Y302500D01*
X31170Y301786D01*
X31786Y301170D01*
X32500Y300670D01*
X33290Y300302D01*
X34132Y300076D01*
X35000Y300000D01*
X35868Y300076D01*
X36710Y300302D01*
X37500Y300670D01*
X38214Y301170D01*
X38830Y301786D01*
X39330Y302500D01*
X39425Y302704D01*
X40000Y302698D01*
Y284185D01*
X39219Y284117D01*
X38461Y283914D01*
X37750Y283582D01*
X37107Y283132D01*
X36553Y282578D01*
X36103Y281935D01*
X35771Y281224D01*
X35568Y280466D01*
X35500Y279685D01*
X35568Y278904D01*
X35771Y278146D01*
X36103Y277435D01*
X36553Y276792D01*
X37107Y276238D01*
X37750Y275788D01*
X38461Y275456D01*
X39219Y275253D01*
X40000Y275185D01*
Y225000D01*
X30000D01*
Y259785D01*
X30851Y259859D01*
X31676Y260081D01*
X32450Y260441D01*
X33150Y260931D01*
X33754Y261535D01*
X34244Y262235D01*
X34604Y263009D01*
X34826Y263834D01*
X34900Y264685D01*
X34826Y265536D01*
X34604Y266361D01*
X34244Y267135D01*
X33754Y267835D01*
X33150Y268439D01*
X32450Y268929D01*
X31676Y269289D01*
X30851Y269511D01*
X30000Y269585D01*
Y275185D01*
X33000D01*
X33260Y275208D01*
X33513Y275275D01*
X33750Y275386D01*
X33964Y275536D01*
X34149Y275721D01*
X34299Y275935D01*
X34410Y276172D01*
X34477Y276425D01*
X34500Y276685D01*
Y282685D01*
X34477Y282945D01*
X34410Y283198D01*
X34299Y283435D01*
X34149Y283649D01*
X33964Y283834D01*
X33750Y283984D01*
X33513Y284095D01*
X33260Y284162D01*
X33000Y284185D01*
X30000D01*
Y305000D01*
G37*
G36*
Y324685D02*X30076Y323817D01*
X30302Y322975D01*
X30670Y322185D01*
X31170Y321471D01*
X31786Y320855D01*
X32500Y320355D01*
X33290Y319987D01*
X34132Y319761D01*
X35000Y319685D01*
X35868Y319761D01*
X36710Y319987D01*
X37500Y320355D01*
X38214Y320855D01*
X38830Y321471D01*
X39330Y322185D01*
X39446Y322435D01*
X40000D01*
Y307198D01*
X39468Y307204D01*
X39330Y307500D01*
X38830Y308214D01*
X38214Y308830D01*
X37500Y309330D01*
X36710Y309698D01*
X35868Y309924D01*
X35000Y310000D01*
X34132Y309924D01*
X33290Y309698D01*
X32500Y309330D01*
X31786Y308830D01*
X31170Y308214D01*
X30670Y307500D01*
X30302Y306710D01*
X30076Y305868D01*
X30000Y305000D01*
Y324685D01*
G37*
G36*
X35000Y364685D02*X35868Y364761D01*
X36710Y364987D01*
X37500Y365355D01*
X38214Y365855D01*
X38830Y366471D01*
X39330Y367185D01*
X39698Y367975D01*
X39924Y368817D01*
X40000Y369685D01*
Y350000D01*
X39978Y350465D01*
X39913Y350926D01*
X39806Y351379D01*
X39657Y351819D01*
X39468Y352244D01*
X39240Y352650D01*
X39188Y352720D01*
X39124Y352779D01*
X39051Y352826D01*
X38970Y352861D01*
X38886Y352880D01*
X38799Y352885D01*
X38712Y352874D01*
X38629Y352849D01*
X38551Y352809D01*
X38481Y352757D01*
X38422Y352693D01*
X38375Y352620D01*
X38340Y352539D01*
X38321Y352455D01*
X38316Y352368D01*
X38327Y352281D01*
X38352Y352198D01*
X38392Y352120D01*
X38574Y351796D01*
X38725Y351456D01*
X38845Y351103D01*
X38930Y350741D01*
X38982Y350372D01*
X39000Y350001D01*
X38982Y349629D01*
X38930Y349260D01*
X38845Y348898D01*
X38725Y348545D01*
X38574Y348205D01*
X38392Y347881D01*
X38352Y347803D01*
X38327Y347720D01*
X38316Y347633D01*
X38321Y347546D01*
X38340Y347462D01*
X38375Y347381D01*
X38422Y347308D01*
X38481Y347244D01*
X38551Y347192D01*
X38629Y347152D01*
X38712Y347127D01*
X38799Y347116D01*
X38886Y347121D01*
X38970Y347140D01*
X39051Y347175D01*
X39124Y347222D01*
X39188Y347281D01*
X39240Y347351D01*
X39468Y347757D01*
X39657Y348182D01*
X39806Y348622D01*
X39913Y349075D01*
X39978Y349536D01*
X40000Y350000D01*
Y326935D01*
X39446D01*
X39330Y327185D01*
X38830Y327899D01*
X38214Y328515D01*
X37500Y329015D01*
X36710Y329383D01*
X35868Y329609D01*
X35000Y329685D01*
Y345000D01*
X35464Y345022D01*
X35925Y345087D01*
X36378Y345194D01*
X36818Y345343D01*
X37243Y345532D01*
X37649Y345760D01*
X37719Y345812D01*
X37778Y345876D01*
X37825Y345949D01*
X37860Y346030D01*
X37879Y346114D01*
X37884Y346201D01*
X37873Y346288D01*
X37848Y346371D01*
X37808Y346449D01*
X37756Y346519D01*
X37692Y346578D01*
X37619Y346625D01*
X37538Y346660D01*
X37454Y346679D01*
X37367Y346684D01*
X37280Y346673D01*
X37197Y346648D01*
X37119Y346608D01*
X36795Y346426D01*
X36455Y346275D01*
X36102Y346155D01*
X35740Y346070D01*
X35371Y346018D01*
X35000Y346000D01*
Y354000D01*
X35371Y353983D01*
X35740Y353931D01*
X36102Y353846D01*
X36455Y353726D01*
X36795Y353575D01*
X37119Y353393D01*
X37197Y353353D01*
X37280Y353328D01*
X37367Y353317D01*
X37454Y353322D01*
X37538Y353341D01*
X37619Y353376D01*
X37692Y353423D01*
X37756Y353482D01*
X37808Y353552D01*
X37848Y353630D01*
X37873Y353713D01*
X37884Y353800D01*
X37879Y353887D01*
X37860Y353971D01*
X37825Y354052D01*
X37778Y354125D01*
X37719Y354189D01*
X37649Y354241D01*
X37243Y354469D01*
X36818Y354658D01*
X36378Y354807D01*
X35925Y354914D01*
X35464Y354979D01*
X35000Y355000D01*
Y364685D01*
G37*
G36*
X30000Y369685D02*X30076Y368817D01*
X30302Y367975D01*
X30670Y367185D01*
X31170Y366471D01*
X31786Y365855D01*
X32500Y365355D01*
X33290Y364987D01*
X34132Y364761D01*
X35000Y364685D01*
Y355000D01*
X34999D01*
X34535Y354979D01*
X34074Y354914D01*
X33621Y354807D01*
X33181Y354658D01*
X32756Y354469D01*
X32350Y354241D01*
X32280Y354189D01*
X32221Y354125D01*
X32174Y354052D01*
X32139Y353971D01*
X32120Y353887D01*
X32115Y353800D01*
X32126Y353713D01*
X32151Y353630D01*
X32191Y353552D01*
X32243Y353482D01*
X32307Y353423D01*
X32380Y353376D01*
X32461Y353341D01*
X32545Y353322D01*
X32632Y353317D01*
X32719Y353328D01*
X32802Y353353D01*
X32880Y353393D01*
X33204Y353575D01*
X33544Y353726D01*
X33897Y353846D01*
X34259Y353931D01*
X34628Y353983D01*
X35000Y354000D01*
Y346000D01*
X34999D01*
X34628Y346018D01*
X34259Y346070D01*
X33897Y346155D01*
X33544Y346275D01*
X33204Y346426D01*
X32880Y346608D01*
X32802Y346648D01*
X32719Y346673D01*
X32632Y346684D01*
X32545Y346679D01*
X32461Y346660D01*
X32380Y346625D01*
X32307Y346578D01*
X32243Y346519D01*
X32191Y346449D01*
X32151Y346371D01*
X32126Y346288D01*
X32115Y346201D01*
X32120Y346114D01*
X32139Y346030D01*
X32174Y345949D01*
X32221Y345876D01*
X32280Y345812D01*
X32350Y345760D01*
X32756Y345532D01*
X33181Y345343D01*
X33621Y345194D01*
X34074Y345087D01*
X34535Y345022D01*
X35000Y345000D01*
Y329685D01*
X34132Y329609D01*
X33290Y329383D01*
X32500Y329015D01*
X31786Y328515D01*
X31170Y327899D01*
X30670Y327185D01*
X30302Y326395D01*
X30076Y325553D01*
X30000Y324685D01*
Y350000D01*
X30021Y349536D01*
X30086Y349075D01*
X30193Y348622D01*
X30342Y348182D01*
X30531Y347757D01*
X30759Y347351D01*
X30811Y347281D01*
X30875Y347222D01*
X30948Y347175D01*
X31029Y347140D01*
X31113Y347121D01*
X31200Y347116D01*
X31287Y347127D01*
X31370Y347152D01*
X31448Y347192D01*
X31518Y347244D01*
X31577Y347308D01*
X31624Y347381D01*
X31659Y347462D01*
X31678Y347546D01*
X31683Y347633D01*
X31672Y347720D01*
X31647Y347803D01*
X31607Y347881D01*
X31425Y348205D01*
X31274Y348545D01*
X31154Y348898D01*
X31069Y349260D01*
X31017Y349629D01*
X31000Y350001D01*
X31017Y350372D01*
X31069Y350741D01*
X31154Y351103D01*
X31274Y351456D01*
X31425Y351796D01*
X31607Y352120D01*
X31647Y352198D01*
X31672Y352281D01*
X31683Y352368D01*
X31678Y352455D01*
X31659Y352539D01*
X31624Y352620D01*
X31577Y352693D01*
X31518Y352757D01*
X31448Y352809D01*
X31370Y352849D01*
X31287Y352874D01*
X31200Y352885D01*
X31113Y352880D01*
X31029Y352861D01*
X30948Y352826D01*
X30875Y352779D01*
X30811Y352720D01*
X30759Y352650D01*
X30531Y352244D01*
X30342Y351819D01*
X30193Y351379D01*
X30086Y350926D01*
X30021Y350465D01*
X30000Y350000D01*
Y369685D01*
G37*
G36*
Y400000D02*X30076Y399132D01*
X30302Y398290D01*
X30670Y397500D01*
X31170Y396786D01*
X31786Y396170D01*
X32500Y395670D01*
X33290Y395302D01*
X34132Y395076D01*
X35000Y395000D01*
X35868Y395076D01*
X36710Y395302D01*
X37500Y395670D01*
X38214Y396170D01*
X38830Y396786D01*
X39330Y397500D01*
X39698Y398290D01*
X39924Y399132D01*
X40000Y400000D01*
Y369685D01*
X39924Y370553D01*
X39698Y371395D01*
X39330Y372185D01*
X38830Y372899D01*
X38214Y373515D01*
X37500Y374015D01*
X36710Y374383D01*
X35868Y374609D01*
X35000Y374685D01*
X34132Y374609D01*
X33290Y374383D01*
X32500Y374015D01*
X31786Y373515D01*
X31170Y372899D01*
X30670Y372185D01*
X30302Y371395D01*
X30076Y370553D01*
X30000Y369685D01*
Y400000D01*
G37*
G36*
Y419685D02*X30076Y418817D01*
X30302Y417975D01*
X30670Y417185D01*
X31170Y416471D01*
X31786Y415855D01*
X32500Y415355D01*
X33290Y414987D01*
X34132Y414761D01*
X35000Y414685D01*
X35868Y414761D01*
X36710Y414987D01*
X37500Y415355D01*
X38214Y415855D01*
X38830Y416471D01*
X39330Y417185D01*
X39698Y417975D01*
X39924Y418817D01*
X40000Y419685D01*
Y400000D01*
X39924Y400868D01*
X39698Y401710D01*
X39330Y402500D01*
X38830Y403214D01*
X38214Y403830D01*
X37500Y404330D01*
X36710Y404698D01*
X35868Y404924D01*
X35000Y405000D01*
X34132Y404924D01*
X33290Y404698D01*
X32500Y404330D01*
X31786Y403830D01*
X31170Y403214D01*
X30670Y402500D01*
X30302Y401710D01*
X30076Y400868D01*
X30000Y400000D01*
Y419685D01*
G37*
G36*
Y449685D02*X30076Y448817D01*
X30302Y447975D01*
X30670Y447185D01*
X31170Y446471D01*
X31786Y445855D01*
X32500Y445355D01*
X33290Y444987D01*
X34132Y444761D01*
X35000Y444685D01*
X35868Y444761D01*
X36710Y444987D01*
X37500Y445355D01*
X38214Y445855D01*
X38830Y446471D01*
X39330Y447185D01*
X39698Y447975D01*
X39924Y448817D01*
X40000Y449685D01*
Y419685D01*
X39924Y420553D01*
X39698Y421395D01*
X39330Y422185D01*
X38830Y422899D01*
X38214Y423515D01*
X37500Y424015D01*
X36710Y424383D01*
X35868Y424609D01*
X35000Y424685D01*
X34132Y424609D01*
X33290Y424383D01*
X32500Y424015D01*
X31786Y423515D01*
X31170Y422899D01*
X30670Y422185D01*
X30302Y421395D01*
X30076Y420553D01*
X30000Y419685D01*
Y449685D01*
G37*
G36*
Y469370D02*X30076Y468502D01*
X30302Y467660D01*
X30670Y466870D01*
X31170Y466156D01*
X31786Y465540D01*
X32500Y465040D01*
X33290Y464672D01*
X34132Y464446D01*
X35000Y464370D01*
X35868Y464446D01*
X36710Y464672D01*
X37500Y465040D01*
X38214Y465540D01*
X38830Y466156D01*
X39330Y466870D01*
X39698Y467660D01*
X39924Y468502D01*
X40000Y469370D01*
Y449685D01*
X39924Y450553D01*
X39698Y451395D01*
X39330Y452185D01*
X38830Y452899D01*
X38214Y453515D01*
X37500Y454015D01*
X36710Y454383D01*
X35868Y454609D01*
X35000Y454685D01*
X34132Y454609D01*
X33290Y454383D01*
X32500Y454015D01*
X31786Y453515D01*
X31170Y452899D01*
X30670Y452185D01*
X30302Y451395D01*
X30076Y450553D01*
X30000Y449685D01*
Y469370D01*
G37*
G36*
Y485000D02*X40000D01*
Y469370D01*
X39924Y470238D01*
X39698Y471080D01*
X39330Y471870D01*
X38830Y472584D01*
X38214Y473200D01*
X37500Y473700D01*
X36710Y474068D01*
X35868Y474294D01*
X35000Y474370D01*
X34132Y474294D01*
X33290Y474068D01*
X32500Y473700D01*
X31786Y473200D01*
X31170Y472584D01*
X30670Y471870D01*
X30302Y471080D01*
X30076Y470238D01*
X30000Y469370D01*
Y485000D01*
G37*
G36*
X5000Y225000D02*Y485000D01*
X30000D01*
Y284185D01*
X27000D01*
X26740Y284162D01*
X26487Y284095D01*
X26250Y283984D01*
X26036Y283834D01*
X25851Y283649D01*
X25701Y283435D01*
X25590Y283198D01*
X25523Y282945D01*
X25500Y282685D01*
Y276685D01*
X25523Y276425D01*
X25590Y276172D01*
X25701Y275935D01*
X25851Y275721D01*
X26036Y275536D01*
X26250Y275386D01*
X26487Y275275D01*
X26740Y275208D01*
X27000Y275185D01*
X30000D01*
Y269585D01*
X29149Y269511D01*
X28324Y269289D01*
X27550Y268929D01*
X26850Y268439D01*
X26246Y267835D01*
X25756Y267135D01*
X25396Y266361D01*
X25174Y265536D01*
X25100Y264685D01*
X25174Y263834D01*
X25396Y263009D01*
X25756Y262235D01*
X26246Y261535D01*
X26850Y260931D01*
X27550Y260441D01*
X28324Y260081D01*
X29149Y259859D01*
X30000Y259785D01*
Y225000D01*
X5000D01*
G37*
G54D12*X165000Y474685D02*X235000D01*
Y454685D01*
X251600D01*
X295000Y359685D02*X280000D01*
X290000Y339685D02*X280000D01*
X300000Y319685D02*X280000D01*
X305000Y397685D02*Y369685D01*
X295000Y359685D02*X305000Y369685D01*
X35000Y305000D02*X65000Y304685D01*
X155000Y359685D02*X250000D01*
X265000Y349685D02*X280000D01*
Y359685D02*Y274685D01*
X195000Y309685D02*Y324685D01*
X120000Y274685D02*X280000D01*
G54D13*X165000Y309685D02*X195000D01*
X165000Y294685D02*Y309685D01*
X175000Y294685D02*Y284685D01*
X155000D01*
G54D12*X35000Y324685D02*X120000D01*
G54D13*X155000Y284685D02*Y334685D01*
X145000D01*
G54D12*X120000Y324685D02*Y274685D01*
G54D14*X251600Y474685D03*
Y464685D03*
Y454685D03*
Y444685D03*
G54D17*X305000Y464685D03*
G54D14*X251600Y434685D03*
Y424685D03*
Y414685D03*
G54D11*G36*
X266600Y420085D02*Y413285D01*
X273400D01*
Y420085D01*
X266600D01*
G37*
G54D14*X251600Y404685D03*
Y394685D03*
Y384685D03*
G54D11*G36*
X262000Y352685D02*Y346685D01*
X268000D01*
Y352685D01*
X262000D01*
G37*
G54D14*X265000Y339685D03*
G54D19*X270000Y376685D03*
G54D18*X300000Y269685D03*
G54D11*G36*
X290500Y402185D02*Y393185D01*
X299500D01*
Y402185D01*
X290500D01*
G37*
G54D16*X305000Y397685D03*
X315000D03*
G54D11*G36*
X317000Y382685D02*Y376685D01*
X323000D01*
Y382685D01*
X317000D01*
G37*
G54D14*X320000Y369685D03*
G54D11*G36*
X286600Y383085D02*Y376285D01*
X293400D01*
Y383085D01*
X286600D01*
G37*
G54D18*X320000Y339685D03*
Y320000D03*
G54D11*G36*
X296000Y323685D02*Y315685D01*
X304000D01*
Y323685D01*
X296000D01*
G37*
G54D19*X290000Y339685D03*
G54D11*G36*
X141600Y298085D02*Y291285D01*
X148400D01*
Y298085D01*
X141600D01*
G37*
G54D19*X145000Y334685D03*
G54D11*G36*
X101600Y308085D02*Y301285D01*
X108400D01*
Y308085D01*
X101600D01*
G37*
G36*
X222000Y327685D02*Y321685D01*
X228000D01*
Y327685D01*
X222000D01*
G37*
G54D14*X215000Y324685D03*
X205000D03*
X195000D03*
Y294685D03*
X205000D03*
X215000D03*
X225000D03*
X185000Y324685D03*
Y294685D03*
G54D11*G36*
X191600Y348085D02*Y341285D01*
X198400D01*
Y348085D01*
X191600D01*
G37*
G54D14*X175000Y324685D03*
Y294685D03*
X165000Y324685D03*
Y294685D03*
G54D19*X155000Y344685D03*
G54D11*G36*
X131600Y383085D02*Y376285D01*
X138400D01*
Y383085D01*
X131600D01*
G37*
G54D19*X95000Y379685D03*
G54D11*G36*
X102000Y402685D02*Y396685D01*
X108000D01*
Y402685D01*
X102000D01*
G37*
G36*
X107000Y472685D02*Y466685D01*
X113000D01*
Y472685D01*
X107000D01*
G37*
G54D14*X110000Y459685D03*
Y449685D03*
G54D21*X130000Y434685D03*
G54D14*X105000Y409685D03*
Y419685D03*
X140000Y449685D03*
G54D11*G36*
X131400Y363285D02*Y356085D01*
X138600D01*
Y363285D01*
X131400D01*
G37*
G54D20*X145000Y359685D03*
G54D11*G36*
X116600Y363085D02*Y356285D01*
X123400D01*
Y363085D01*
X116600D01*
G37*
G54D14*X140000Y459685D03*
Y469685D03*
G54D11*G36*
X162000Y477685D02*Y471685D01*
X168000D01*
Y477685D01*
X162000D01*
G37*
G54D14*X165000Y464685D03*
Y454685D03*
Y444685D03*
Y434685D03*
Y424685D03*
Y414685D03*
Y404685D03*
Y394685D03*
Y384685D03*
G54D20*X155000Y359685D03*
G54D18*X35000Y305000D03*
Y324685D03*
G54D19*X30000Y264685D03*
G54D11*G36*
X27000Y282685D02*Y276685D01*
X33000D01*
Y282685D01*
X27000D01*
G37*
G54D14*X40000Y279685D03*
G54D11*G36*
X66600Y268085D02*Y261285D01*
X73400D01*
Y268085D01*
X66600D01*
G37*
G54D19*X65000Y304685D03*
G54D11*G36*
X61400Y353285D02*Y346085D01*
X68600D01*
Y353285D01*
X61400D01*
G37*
G54D20*X65000Y359685D03*
G54D19*X80000D03*
G54D20*X65000Y369685D03*
G54D18*X35000Y350000D03*
Y369685D03*
G54D11*G36*
X77250Y437435D02*Y431935D01*
X82750D01*
Y437435D01*
X77250D01*
G37*
G54D14*X75000Y419685D03*
Y409685D03*
Y399685D03*
G54D11*G36*
X91600Y473085D02*Y466285D01*
X98400D01*
Y473085D01*
X91600D01*
G37*
G54D19*X55000Y469685D03*
G54D11*G36*
X57250Y452435D02*Y446935D01*
X62750D01*
Y452435D01*
X57250D01*
G37*
G54D18*X35000Y400000D03*
Y419685D03*
G54D21*X60000Y399685D03*
G54D18*X35000Y449685D03*
Y469370D03*
G54D14*X250000Y359685D03*
X310000D03*
G54D22*G54D24*G54D22*G54D25*G54D22*G54D11*G54D14*G54D25*G54D22*G54D26*G54D11*G54D22*G54D23*G54D22*G54D23*G54D22*G54D23*G54D25*G54D23*G54D27*G54D22*G54D23*G54D22*G54D27*G54D26*G54D22*G54D27*G54D22*G54D27*G54D26*G54D25*G54D23*G54D22*G54D25*G54D26*G54D25*G54D26*G54D28*M02*
