M48
INCH
T63C0.260
T62C0.100
T61C0.130
T60C0.042
T59C0.038
T58C0.028
T57C0.060
T56C0.015
T55C0.030
T54C0.020
%
T56
X022000Y001000
X020032Y001000
X016032Y001000
X018000Y001000
X009968Y001000
X012032Y001000
X014000Y001000
X008000Y001000
X004032Y001000
X006000Y001000
T54
X019400Y006300
X024400Y006300
T58
X017900Y008500
X017900Y005500
X016900Y008500
X015900Y008500
X015900Y005500
X016900Y005500
X011000Y024000
X011000Y023000
X011000Y022000
X011000Y021000
X011000Y020000
X014000Y020000
X014000Y021000
X014000Y022000
X014000Y023000
X014000Y024000
X011000Y019000
X014000Y019000
X011000Y018000
X014000Y018000
X008000Y005000
X008000Y008000
X009000Y005000
X009000Y008000
X010000Y005000
X010000Y008000
T55
X019400Y009200
X020400Y009200
X024400Y008200
X023400Y008200
X014700Y010500
X014700Y005500
X006500Y006250
X006500Y011250
T59
X010900Y003800
X009000Y037580
X009000Y036790
X009000Y036000
X009000Y035210
X009000Y034420
X009000Y033630
X009000Y032840
X009000Y032050
X009000Y031260
X009000Y030470
X017660Y037580
X017660Y036790
X017660Y036000
X017660Y035210
X017660Y034420
X017660Y033630
X017660Y032840
X017660Y032050
X017660Y031260
X017660Y030470
X001500Y002000
X001500Y001000
X006900Y003800
T60
X018000Y012200
X018000Y013200
X018000Y014200
T57
X022000Y010300
X023000Y010300
X024000Y010300
X011200Y008100
X012200Y008100
X013200Y008100
T62
X022100Y020000
X003900Y020000
X003900Y031800
X022100Y031800
X003900Y004200
X022100Y004200
T61
X023000Y017000
X012200Y014800
T63
X002000Y022400
X024000Y022400
M30
