G04 start of page 7 for group -4079 idx -4079 *
G04 Title: (unknown), topsilk *
G04 Creator: pcb 20110918 *
G04 CreationDate: Tue 12 Jun 2012 04:03:48 PM GMT UTC *
G04 For: ed *
G04 Format: Gerber/RS-274X *
G04 PCB-Dimensions: 260000 400000 *
G04 PCB-Coordinate-Origin: lower left *
%MOIN*%
%FSLAX25Y25*%
%LNTOPSILK*%
%ADD87C,0.0200*%
%ADD86C,0.0300*%
%ADD85C,0.0050*%
%ADD84C,0.0150*%
%ADD83C,0.0100*%
%ADD82C,0.0250*%
G54D82*X0Y0D02*Y400000D01*
X258000D01*
X260000Y398000D01*
Y0D01*
X0D01*
G54D83*X187000Y139000D02*Y125000D01*
X187071Y139071D02*G75*G03X187071Y124929I-7071J-7071D01*G01*
X189000Y92000D02*G75*G03X189000Y92000I10000J0D01*G01*
X249000Y82000D02*G75*G03X249000Y82000I-10000J0D01*G01*
G54D84*X150472Y25748D02*X189842D01*
X150472Y-1811D02*X189842D01*
X150472Y19843D02*X189842D01*
Y25748D02*Y-1811D01*
X150472Y25748D02*Y-1811D01*
Y2126D02*X189842D01*
X185905Y8032D02*X177047Y16890D01*
X182952Y5079D02*X182953D01*
X182952D02*X174094Y13937D01*
X166220Y8032D02*X157362Y16890D01*
X163267Y5079D02*X163268D01*
X163267D02*X154409Y13937D01*
X190827Y23780D02*X191811Y24764D01*
Y22796D01*
X190827Y23780D01*
G54D85*X180000Y22795D02*G75*G03X180000Y22795I0J-984D01*G01*
X160315D02*G75*G03X160315Y22795I0J-984D01*G01*
G54D84*X180000Y17875D02*G75*G03X180000Y17875I0J-6890D01*G01*
X160315D02*G75*G03X160315Y17875I0J-6890D01*G01*
G54D86*X220000Y103000D02*Y121000D01*
X230000Y103000D02*Y121000D01*
X240000Y103000D02*Y121000D01*
G54D87*X210000D02*X250000D01*
Y158500D01*
X210000D01*
Y121000D01*
Y158500D02*X250000D01*
Y171000D01*
X248500D01*
Y178000D01*
X250000D01*
Y182000D01*
X210000D01*
Y178000D01*
X211500D01*
Y171000D01*
X210000D01*
Y158500D01*
G54D83*X194000Y63000D02*X210600D01*
X227400D02*X244000D01*
X210600D02*X227400Y71300D01*
Y54700D01*
X210600Y63000D01*
Y71300D02*Y54700D01*
G54D84*X190472Y25748D02*X229842D01*
X190472Y-1811D02*X229842D01*
X190472Y19843D02*X229842D01*
Y25748D02*Y-1811D01*
X190472Y25748D02*Y-1811D01*
Y2126D02*X229842D01*
X225905Y8032D02*X217047Y16890D01*
X222952Y5079D02*X222953D01*
X222952D02*X214094Y13937D01*
X206220Y8032D02*X197362Y16890D01*
X203267Y5079D02*X203268D01*
X203267D02*X194409Y13937D01*
X230827Y23780D02*X231811Y24764D01*
Y22796D01*
X230827Y23780D01*
G54D85*X220000Y22795D02*G75*G03X220000Y22795I0J-984D01*G01*
X200315D02*G75*G03X200315Y22795I0J-984D01*G01*
G54D84*X220000Y17875D02*G75*G03X220000Y17875I0J-6890D01*G01*
X200315D02*G75*G03X200315Y17875I0J-6890D01*G01*
G54D83*X154000Y90000D02*X184000D01*
X154000D02*Y50000D01*
X184000D01*
Y90000D02*Y75000D01*
Y65000D02*Y50000D01*
Y75000D02*G75*G03X184000Y65000I0J-5000D01*G01*
G54D84*X70157Y25748D02*X109527D01*
X70157Y-1811D02*X109527D01*
X70157Y19843D02*X109527D01*
Y25748D02*Y-1811D01*
X70157Y25748D02*Y-1811D01*
Y2126D02*X109527D01*
X105590Y8032D02*X96732Y16890D01*
X102637Y5079D02*X102638D01*
X102637D02*X93779Y13937D01*
X85905Y8032D02*X77047Y16890D01*
X82952Y5079D02*X82953D01*
X82952D02*X74094Y13937D01*
X110512Y23780D02*X111496Y24764D01*
Y22796D01*
X110512Y23780D01*
G54D85*X99685Y22795D02*G75*G03X99685Y22795I0J-984D01*G01*
X80000D02*G75*G03X80000Y22795I0J-984D01*G01*
G54D84*X99685Y17875D02*G75*G03X99685Y17875I0J-6890D01*G01*
X80000D02*G75*G03X80000Y17875I0J-6890D01*G01*
G54D83*X10000Y25000D02*Y5000D01*
X20000D01*
Y25000D01*
X10000D01*
Y15000D02*X20000D01*
Y25000D01*
G54D84*X30472Y25748D02*X69842D01*
X30472Y-1811D02*X69842D01*
X30472Y19843D02*X69842D01*
Y25748D02*Y-1811D01*
X30472Y25748D02*Y-1811D01*
Y2126D02*X69842D01*
X65905Y8032D02*X57047Y16890D01*
X62952Y5079D02*X62953D01*
X62952D02*X54094Y13937D01*
X46220Y8032D02*X37362Y16890D01*
X43267Y5079D02*X43268D01*
X43267D02*X34409Y13937D01*
X70827Y23780D02*X71811Y24764D01*
Y22796D01*
X70827Y23780D01*
G54D85*X60000Y22795D02*G75*G03X60000Y22795I0J-984D01*G01*
X40315D02*G75*G03X40315Y22795I0J-984D01*G01*
G54D84*X60000Y17875D02*G75*G03X60000Y17875I0J-6890D01*G01*
X40315D02*G75*G03X40315Y17875I0J-6890D01*G01*
X110472Y25748D02*X149842D01*
X110472Y-1811D02*X149842D01*
X110472Y19843D02*X149842D01*
Y25748D02*Y-1811D01*
X110472Y25748D02*Y-1811D01*
Y2126D02*X149842D01*
X145905Y8032D02*X137047Y16890D01*
X142952Y5079D02*X142953D01*
X142952D02*X134094Y13937D01*
X126220Y8032D02*X117362Y16890D01*
X123267Y5079D02*X123268D01*
X123267D02*X114409Y13937D01*
X150827Y23780D02*X151811Y24764D01*
Y22796D01*
X150827Y23780D01*
G54D85*X140000Y22795D02*G75*G03X140000Y22795I0J-984D01*G01*
X120315D02*G75*G03X120315Y22795I0J-984D01*G01*
G54D84*X140000Y17875D02*G75*G03X140000Y17875I0J-6890D01*G01*
X120315D02*G75*G03X120315Y17875I0J-6890D01*G01*
G54D83*X75000Y45000D02*X105000D01*
Y85000D02*Y45000D01*
X75000Y85000D02*X105000D01*
X75000Y60000D02*Y45000D01*
Y85000D02*Y70000D01*
Y60000D02*G75*G03X75000Y70000I0J5000D01*G01*
X147000Y105000D02*Y92500D01*
Y67500D02*Y55000D01*
X151100Y92500D02*Y67500D01*
X142900D02*X151100D01*
X142900Y92500D02*Y67500D01*
Y92500D02*X151100D01*
G54D87*X79000Y33000D02*X99000D01*
X79000Y43000D02*Y33000D01*
Y43000D02*X99000D01*
Y33000D01*
Y38000D02*X109000D01*
X69000D02*X79000D01*
G54D83*X65000Y75000D02*Y62500D01*
Y112500D02*Y100000D01*
X60900D02*Y75000D01*
Y100000D02*X69100D01*
Y75000D01*
X60900D02*X69100D01*
X105000Y245000D02*Y175000D01*
X145000D01*
Y245000D01*
X105000D02*X120000D01*
X130000D02*X145000D01*
X120000D02*G75*G03X130000Y245000I5000J0D01*G01*
G54D86*X112000Y99000D02*Y81000D01*
X122000Y99000D02*Y81000D01*
X132000Y99000D02*Y81000D01*
G54D87*X102000Y99000D02*X142000D01*
Y136500D02*Y99000D01*
X102000Y136500D02*X142000D01*
X102000D02*Y99000D01*
Y136500D02*X142000D01*
Y149000D02*Y136500D01*
X140500Y149000D02*X142000D01*
X140500Y156000D02*Y149000D01*
Y156000D02*X142000D01*
Y160000D02*Y156000D01*
X102000Y160000D02*X142000D01*
X102000D02*Y156000D01*
X103500D01*
Y149000D01*
X102000D02*X103500D01*
X102000D02*Y136500D01*
G54D83*X85300Y376100D02*X115200Y401800D01*
X151400D01*
X181300Y376100D01*
Y272100D01*
X85300D01*
Y376100D01*
X73200Y386300D02*Y382800D01*
X73700Y382300D01*
X74700D01*
X75200Y382800D01*
Y386300D02*Y382800D01*
X76400Y385500D02*X77200Y386300D01*
Y382300D01*
X76400D02*X77900D01*
X77409Y251150D02*X79409D01*
X79909Y250650D01*
Y249650D01*
X79409Y249150D02*X79909Y249650D01*
X77909Y249150D02*X79409D01*
X77909Y251150D02*Y247150D01*
X78709Y249150D02*X79909Y247150D01*
X81109Y250650D02*X81609Y251150D01*
X83109D01*
X83609Y250650D01*
Y249650D01*
X81109Y247150D02*X83609Y249650D01*
X81109Y247150D02*X83609D01*
X79409Y260150D02*X81409D01*
X81909Y259650D01*
Y258650D01*
X81409Y258150D02*X81909Y258650D01*
X79909Y258150D02*X81409D01*
X79909Y260150D02*Y256150D01*
X80709Y258150D02*X81909Y256150D01*
X83109Y259350D02*X83909Y260150D01*
Y256150D01*
X83109D02*X84609D01*
X95000Y241000D02*Y237500D01*
X95500Y237000D01*
X96500D01*
X97000Y237500D01*
Y241000D02*Y237500D01*
X98200Y240500D02*X98700Y241000D01*
X99700D01*
X100200Y240500D01*
X99700Y237000D02*X100200Y237500D01*
X98700Y237000D02*X99700D01*
X98200Y237500D02*X98700Y237000D01*
Y239200D02*X99700D01*
X100200Y240500D02*Y239700D01*
Y238700D02*Y237500D01*
Y238700D02*X99700Y239200D01*
X100200Y239700D02*X99700Y239200D01*
X81291Y147032D02*X83291D01*
X83791Y146532D01*
Y145532D01*
X83291Y145032D02*X83791Y145532D01*
X81791Y145032D02*X83291D01*
X81791Y147032D02*Y143032D01*
X82591Y145032D02*X83791Y143032D01*
X84991Y143532D02*X85491Y143032D01*
X84991Y144332D02*Y143532D01*
Y144332D02*X85691Y145032D01*
X86291D01*
X86991Y144332D01*
Y143532D01*
X86491Y143032D02*X86991Y143532D01*
X85491Y143032D02*X86491D01*
X84991Y145732D02*X85691Y145032D01*
X84991Y146532D02*Y145732D01*
Y146532D02*X85491Y147032D01*
X86491D01*
X86991Y146532D01*
Y145732D01*
X86291Y145032D02*X86991Y145732D01*
X21000Y24300D02*Y23000D01*
X21700Y25000D02*X21000Y24300D01*
X21700Y25000D02*X24300D01*
X25000Y24300D01*
Y23000D01*
X21500Y21800D02*X24500D01*
X25000Y21300D01*
Y20300D01*
X24500Y19800D01*
X21500D02*X24500D01*
X21000Y20300D02*X21500Y19800D01*
X21000Y21300D02*Y20300D01*
X21500Y21800D02*X21000Y21300D01*
Y18600D02*X25000D01*
X21000Y16100D01*
X25000D01*
X21000Y14900D02*X25000D01*
X21000Y12400D01*
X25000D01*
X24200Y11200D02*X25000Y10400D01*
X21000D02*X25000D01*
X21000Y11200D02*Y9700D01*
X47874Y32298D02*Y28298D01*
Y30298D02*X49874Y32298D01*
X47874Y30298D02*X49874Y28298D01*
X51074Y31498D02*X51874Y32298D01*
Y28298D01*
X51074D02*X52574D01*
X110000Y54000D02*Y50500D01*
X110500Y50000D01*
X111500D01*
X112000Y50500D01*
Y54000D02*Y50500D01*
X113200Y53500D02*X113700Y54000D01*
X115200D01*
X115700Y53500D01*
Y52500D01*
X113200Y50000D02*X115700Y52500D01*
X113200Y50000D02*X115700D01*
X137200Y61900D02*X138500D01*
X136500Y62600D02*X137200Y61900D01*
X136500Y65200D02*Y62600D01*
Y65200D02*X137200Y65900D01*
X138500D01*
X139700Y63400D02*X141700Y65900D01*
X139700Y63400D02*X142200D01*
X141700Y65900D02*Y61900D01*
X167000Y98000D02*Y94500D01*
X167500Y94000D01*
X168500D01*
X169000Y94500D01*
Y98000D02*Y94500D01*
X170200Y98000D02*X172200D01*
X170200D02*Y96000D01*
X170700Y96500D01*
X171700D01*
X172200Y96000D01*
Y94500D01*
X171700Y94000D02*X172200Y94500D01*
X170700Y94000D02*X171700D01*
X170200Y94500D02*X170700Y94000D01*
X168173Y111591D02*X170173D01*
X170673Y111091D01*
Y110091D01*
X170173Y109591D02*X170673Y110091D01*
X168673Y109591D02*X170173D01*
X168673Y111591D02*Y107591D01*
X169473Y109591D02*X170673Y107591D01*
X171873Y111591D02*X173873D01*
X171873D02*Y109591D01*
X172373Y110091D01*
X173373D01*
X173873Y109591D01*
Y108091D01*
X173373Y107591D02*X173873Y108091D01*
X172373Y107591D02*X173373D01*
X171873Y108091D02*X172373Y107591D01*
X189614Y121150D02*X191614D01*
X192114Y120650D01*
Y119650D01*
X191614Y119150D02*X192114Y119650D01*
X190114Y119150D02*X191614D01*
X190114Y121150D02*Y117150D01*
X190914Y119150D02*X192114Y117150D01*
X194814Y121150D02*X195314Y120650D01*
X193814Y121150D02*X194814D01*
X193314Y120650D02*X193814Y121150D01*
X193314Y120650D02*Y117650D01*
X193814Y117150D01*
X194814Y119350D02*X195314Y118850D01*
X193314Y119350D02*X194814D01*
X193814Y117150D02*X194814D01*
X195314Y117650D01*
Y118850D02*Y117650D01*
X190291Y112150D02*X192291D01*
X192791Y111650D01*
Y110650D01*
X192291Y110150D02*X192791Y110650D01*
X190791Y110150D02*X192291D01*
X190791Y112150D02*Y108150D01*
X191591Y110150D02*X192791Y108150D01*
X194491D02*X196491Y112150D01*
X193991D02*X196491D01*
X75700Y98900D02*X77000D01*
X75000Y99600D02*X75700Y98900D01*
X75000Y102200D02*Y99600D01*
Y102200D02*X75700Y102900D01*
X77000D01*
X78200Y102400D02*X78700Y102900D01*
X79700D01*
X80200Y102400D01*
X79700Y98900D02*X80200Y99400D01*
X78700Y98900D02*X79700D01*
X78200Y99400D02*X78700Y98900D01*
Y101100D02*X79700D01*
X80200Y102400D02*Y101600D01*
Y100600D02*Y99400D01*
Y100600D02*X79700Y101100D01*
X80200Y101600D02*X79700Y101100D01*
X108500Y104000D02*X111500D01*
X108500D02*X108000Y104500D01*
Y105500D02*Y104500D01*
Y105500D02*X108500Y106000D01*
X111000D01*
X112000Y105000D02*X111000Y106000D01*
X112000Y105000D02*Y104500D01*
X111500Y104000D02*X112000Y104500D01*
X110500Y105000D02*X112000Y106000D01*
X108500Y107200D02*X108000Y107700D01*
Y109200D02*Y107700D01*
Y109200D02*X108500Y109700D01*
X109500D01*
X112000Y107200D02*X109500Y109700D01*
X112000D02*Y107200D01*
X103189Y31798D02*Y27798D01*
Y29798D02*X105189Y31798D01*
X103189Y29798D02*X105189Y27798D01*
X106389Y31298D02*X106889Y31798D01*
X108389D01*
X108889Y31298D01*
Y30298D01*
X106389Y27798D02*X108889Y30298D01*
X106389Y27798D02*X108889D01*
X169874Y32298D02*Y28298D01*
Y30298D02*X171874Y32298D01*
X169874Y30298D02*X171874Y28298D01*
X173074Y29798D02*X175074Y32298D01*
X173074Y29798D02*X175574D01*
X175074Y32298D02*Y28298D01*
X202874Y33298D02*Y29298D01*
Y31298D02*X204874Y33298D01*
X202874Y31298D02*X204874Y29298D01*
X206074Y32798D02*X206574Y33298D01*
X207574D01*
X208074Y32798D01*
X207574Y29298D02*X208074Y29798D01*
X206574Y29298D02*X207574D01*
X206074Y29798D02*X206574Y29298D01*
Y31498D02*X207574D01*
X208074Y32798D02*Y31998D01*
Y30998D02*Y29798D01*
Y30998D02*X207574Y31498D01*
X208074Y31998D02*X207574Y31498D01*
X126874Y31298D02*Y27298D01*
Y29298D02*X128874Y31298D01*
X126874Y29298D02*X128874Y27298D01*
X130074Y31298D02*X132074D01*
X130074D02*Y29298D01*
X130574Y29798D01*
X131574D01*
X132074Y29298D01*
Y27798D01*
X131574Y27298D02*X132074Y27798D01*
X130574Y27298D02*X131574D01*
X130074Y27798D02*X130574Y27298D01*
X87000Y27000D02*X89000D01*
X89500Y26500D01*
Y25500D01*
X89000Y25000D02*X89500Y25500D01*
X87500Y25000D02*X89000D01*
X87500Y27000D02*Y23000D01*
X88300Y25000D02*X89500Y23000D01*
X90700Y26500D02*X91200Y27000D01*
X92200D01*
X92700Y26500D01*
X92200Y23000D02*X92700Y23500D01*
X91200Y23000D02*X92200D01*
X90700Y23500D02*X91200Y23000D01*
Y25200D02*X92200D01*
X92700Y26500D02*Y25700D01*
Y24700D02*Y23500D01*
Y24700D02*X92200Y25200D01*
X92700Y25700D02*X92200Y25200D01*
X172291Y172914D02*X174291D01*
X174791Y172414D01*
Y171414D01*
X174291Y170914D02*X174791Y171414D01*
X172791Y170914D02*X174291D01*
X172791Y172914D02*Y168914D01*
X173591Y170914D02*X174791Y168914D01*
X176491D02*X177991Y170914D01*
Y172414D02*Y170914D01*
X177491Y172914D02*X177991Y172414D01*
X176491Y172914D02*X177491D01*
X175991Y172414D02*X176491Y172914D01*
X175991Y172414D02*Y171414D01*
X176491Y170914D01*
X177991D01*
X211700Y83000D02*X213000D01*
X211000Y83700D02*X211700Y83000D01*
X211000Y86300D02*Y83700D01*
Y86300D02*X211700Y87000D01*
X213000D01*
X214200Y86500D02*X214700Y87000D01*
X216200D01*
X216700Y86500D01*
Y85500D01*
X214200Y83000D02*X216700Y85500D01*
X214200Y83000D02*X216700D01*
X253700Y73000D02*X255000D01*
X253000Y73700D02*X253700Y73000D01*
X253000Y76300D02*Y73700D01*
Y76300D02*X253700Y77000D01*
X255000D01*
X256200Y76200D02*X257000Y77000D01*
Y73000D01*
X256200D02*X257700D01*
X233900Y55300D02*Y51300D01*
X235200Y55300D02*X235900Y54600D01*
Y52000D01*
X235200Y51300D02*X235900Y52000D01*
X233400Y51300D02*X235200D01*
X233400Y55300D02*X235200D01*
X237100Y54500D02*X237900Y55300D01*
Y51300D01*
X237100D02*X238600D01*
X185000Y149500D02*Y146500D01*
Y149500D02*X185500Y150000D01*
X186500D01*
X187000Y149500D01*
Y147000D01*
X186000Y146000D02*X187000Y147000D01*
X185500Y146000D02*X186000D01*
X185000Y146500D02*X185500Y146000D01*
X186000Y147500D02*X187000Y146000D01*
X188200Y149200D02*X189000Y150000D01*
Y146000D01*
X188200D02*X189700D01*
X246000Y113000D02*Y109500D01*
X246500Y109000D01*
X247500D01*
X248000Y109500D01*
Y113000D02*Y109500D01*
X249200Y110500D02*X251200Y113000D01*
X249200Y110500D02*X251700D01*
X251200Y113000D02*Y109000D01*
M02*
