G04 start of page 7 for group -4079 idx -4079 *
G04 Title: (unknown), topsilk *
G04 Creator: pcb 20110918 *
G04 CreationDate: Tue 12 Jun 2012 03:36:23 PM GMT UTC *
G04 For: ed *
G04 Format: Gerber/RS-274X *
G04 PCB-Dimensions: 236000 283000 *
G04 PCB-Coordinate-Origin: lower left *
%MOIN*%
%FSLAX25Y25*%
%LNTOPSILK*%
%ADD57C,0.0150*%
%ADD56C,0.0100*%
%ADD55C,0.0250*%
G54D55*X0Y0D02*X236000D01*
Y283000D01*
X0D02*Y0D01*
X236000Y283000D02*X0D01*
G54D56*X5300Y154900D02*X35200Y180600D01*
X71400D01*
X101300Y154900D01*
Y50900D01*
X5300D02*X101300D01*
X5300Y154900D02*Y50900D01*
X153000Y110000D02*X167000D01*
X152929Y110071D02*G75*G03X167071Y110071I7071J-7071D01*G01*
X153000Y80000D02*X167000D01*
X152929Y80071D02*G75*G03X167071Y80071I7071J-7071D01*G01*
X105000Y198000D02*X125000D01*
X105000D02*Y188000D01*
X125000D01*
Y198000D02*Y188000D01*
X115000Y198000D02*Y188000D01*
X125000D01*
G54D57*X145000Y138000D02*X225000D01*
Y178000D02*Y138000D01*
X145000Y178000D02*X225000D01*
X145000Y153000D02*Y138000D01*
Y178000D02*Y163000D01*
Y153000D02*G75*G03X145000Y163000I0J5000D01*G01*
G54D56*X127200Y99500D02*X112700D01*
X128100Y100500D02*X127100Y99500D01*
X111700Y100500D02*X112600Y99600D01*
X128102Y100498D02*G75*G03X111698Y100498I-8202J8202D01*G01*
X127200Y69500D02*X112700D01*
X128100Y70500D02*X127100Y69500D01*
X111700Y70500D02*X112600Y69600D01*
X128102Y70498D02*G75*G03X111698Y70498I-8202J8202D01*G01*
X87000Y24500D02*X94500D01*
X64500D02*X72000D01*
Y22000D02*X87000D01*
X72000Y27000D02*Y22000D01*
Y27000D02*X87000D01*
Y22000D01*
X65000Y4500D02*X85000D01*
Y14500D02*Y4500D01*
X65000Y14500D02*X85000D01*
X65000D02*Y4500D01*
X75000Y14500D02*Y4500D01*
X65000Y14500D02*X75000D01*
X31000Y4000D02*X61000D01*
Y14000D02*Y4000D01*
X31000Y14000D02*X61000D01*
X31000D02*Y4000D01*
X41000Y14000D02*Y4000D01*
X31000Y14000D02*X41000D01*
X153000Y20000D02*X167000D01*
X152929Y20071D02*G75*G03X167071Y20071I7071J-7071D01*G01*
X153000Y50000D02*X167000D01*
X152929Y50071D02*G75*G03X167071Y50071I7071J-7071D01*G01*
X127200Y9500D02*X112700D01*
X128100Y10500D02*X127100Y9500D01*
X111700Y10500D02*X112600Y9600D01*
X128102Y10498D02*G75*G03X111698Y10498I-8202J8202D01*G01*
X127200Y39500D02*X112700D01*
X128100Y40500D02*X127100Y39500D01*
X111700Y40500D02*X112600Y39600D01*
X128102Y40498D02*G75*G03X111698Y40498I-8202J8202D01*G01*
X108791Y157650D02*X110791D01*
X111291Y157150D01*
Y156150D01*
X110791Y155650D02*X111291Y156150D01*
X109291Y155650D02*X110791D01*
X109291Y157650D02*Y153650D01*
X110091Y155650D02*X111291Y153650D01*
X112491Y157150D02*X112991Y157650D01*
X113991D01*
X114491Y157150D01*
X113991Y153650D02*X114491Y154150D01*
X112991Y153650D02*X113991D01*
X112491Y154150D02*X112991Y153650D01*
Y155850D02*X113991D01*
X114491Y157150D02*Y156350D01*
Y155350D02*Y154150D01*
Y155350D02*X113991Y155850D01*
X114491Y156350D02*X113991Y155850D01*
X168173Y127650D02*X170173D01*
X170673Y127150D01*
Y126150D01*
X170173Y125650D02*X170673Y126150D01*
X168673Y125650D02*X170173D01*
X168673Y127650D02*Y123650D01*
X169473Y125650D02*X170673Y123650D01*
X171873Y124150D02*X172373Y123650D01*
X171873Y124950D02*Y124150D01*
Y124950D02*X172573Y125650D01*
X173173D01*
X173873Y124950D01*
Y124150D01*
X173373Y123650D02*X173873Y124150D01*
X172373Y123650D02*X173373D01*
X171873Y126350D02*X172573Y125650D01*
X171873Y127150D02*Y126350D01*
Y127150D02*X172373Y127650D01*
X173373D01*
X173873Y127150D01*
Y126350D01*
X173173Y125650D02*X173873Y126350D01*
X222000Y133000D02*Y129500D01*
X222500Y129000D01*
X223500D01*
X224000Y129500D01*
Y133000D02*Y129500D01*
X225200Y132500D02*X225700Y133000D01*
X227200D01*
X227700Y132500D01*
Y131500D01*
X225200Y129000D02*X227700Y131500D01*
X225200Y129000D02*X227700D01*
X106468Y144650D02*X108468D01*
X108968Y144150D01*
Y143150D01*
X108468Y142650D02*X108968Y143150D01*
X106968Y142650D02*X108468D01*
X106968Y144650D02*Y140650D01*
X107768Y142650D02*X108968Y140650D01*
X110168Y144650D02*X112168D01*
X110168D02*Y142650D01*
X110668Y143150D01*
X111668D01*
X112168Y142650D01*
Y141150D01*
X111668Y140650D02*X112168Y141150D01*
X110668Y140650D02*X111668D01*
X110168Y141150D02*X110668Y140650D01*
X151000Y114500D02*Y111500D01*
Y114500D02*X151500Y115000D01*
X152500D01*
X153000Y114500D01*
Y112000D01*
X152000Y111000D02*X153000Y112000D01*
X151500Y111000D02*X152000D01*
X151000Y111500D02*X151500Y111000D01*
X152000Y112500D02*X153000Y111000D01*
X154200Y112500D02*X156200Y115000D01*
X154200Y112500D02*X156700D01*
X156200Y115000D02*Y111000D01*
X126000Y123400D02*X128000D01*
X128500Y122900D01*
Y121900D01*
X128000Y121400D02*X128500Y121900D01*
X126500Y121400D02*X128000D01*
X126500Y123400D02*Y119400D01*
X127300Y121400D02*X128500Y119400D01*
X129700Y121600D02*X131200D01*
X129700Y119400D02*X131700D01*
X129700Y123400D02*Y119400D01*
Y123400D02*X131700D01*
X132900D02*Y119400D01*
Y123400D02*X134400Y121400D01*
X135900Y123400D01*
Y119400D01*
X137100D02*X139100D01*
X140300Y123400D02*Y119400D01*
X142300D01*
X143500Y121600D02*X145000D01*
X143500Y119400D02*X145500D01*
X143500Y123400D02*Y119400D01*
Y123400D02*X145500D01*
X147200D02*Y119400D01*
X148500Y123400D02*X149200Y122700D01*
Y120100D01*
X148500Y119400D02*X149200Y120100D01*
X146700Y119400D02*X148500D01*
X146700Y123400D02*X148500D01*
X121850Y134650D02*X123850D01*
X124350Y134150D01*
Y133150D01*
X123850Y132650D02*X124350Y133150D01*
X122350Y132650D02*X123850D01*
X122350Y134650D02*Y130650D01*
X123150Y132650D02*X124350Y130650D01*
X126050D02*X127550Y132650D01*
Y134150D02*Y132650D01*
X127050Y134650D02*X127550Y134150D01*
X126050Y134650D02*X127050D01*
X125550Y134150D02*X126050Y134650D01*
X125550Y134150D02*Y133150D01*
X126050Y132650D01*
X127550D01*
X126000Y89400D02*X128000D01*
X128500Y89900D01*
Y91100D02*Y89900D01*
X128000Y91600D02*X128500Y91100D01*
X126500Y91600D02*X128000D01*
X126500Y93400D02*Y89400D01*
X126000Y93400D02*X128000D01*
X128500Y92900D01*
Y92100D01*
X128000Y91600D02*X128500Y92100D01*
X129700Y93400D02*Y89900D01*
X130200Y89400D01*
X131200D01*
X131700Y89900D01*
Y93400D02*Y89900D01*
X132900Y93400D02*X134900D01*
X133900D02*Y89400D01*
X136100D02*X138100D01*
X139300Y93400D02*Y89400D01*
X141300D01*
X142500Y91600D02*X144000D01*
X142500Y89400D02*X144500D01*
X142500Y93400D02*Y89400D01*
Y93400D02*X144500D01*
X146200D02*Y89400D01*
X147500Y93400D02*X148200Y92700D01*
Y90100D01*
X147500Y89400D02*X148200Y90100D01*
X145700Y89400D02*X147500D01*
X145700Y93400D02*X147500D01*
X151000Y84500D02*Y81500D01*
Y84500D02*X151500Y85000D01*
X152500D01*
X153000Y84500D01*
Y82000D01*
X152000Y81000D02*X153000Y82000D01*
X151500Y81000D02*X152000D01*
X151000Y81500D02*X151500Y81000D01*
X152000Y82500D02*X153000Y81000D01*
X154200Y84200D02*X155000Y85000D01*
Y81000D01*
X154200D02*X155700D01*
X189291Y200150D02*X191291D01*
X191791Y199650D01*
Y198650D01*
X191291Y198150D02*X191791Y198650D01*
X189791Y198150D02*X191291D01*
X189791Y200150D02*Y196150D01*
X190591Y198150D02*X191791Y196150D01*
X192991Y199350D02*X193791Y200150D01*
Y196150D01*
X192991D02*X194491D01*
X120000Y212000D02*X120500Y211500D01*
X118500Y212000D02*X120000D01*
X118000Y211500D02*X118500Y212000D01*
X118000Y211500D02*Y210500D01*
X118500Y210000D01*
X120000D01*
X120500Y209500D01*
Y208500D01*
X120000Y208000D02*X120500Y208500D01*
X118500Y208000D02*X120000D01*
X118000Y208500D02*X118500Y208000D01*
X121700Y211500D02*X122200Y212000D01*
X123700D01*
X124200Y211500D01*
Y210500D01*
X121700Y208000D02*X124200Y210500D01*
X121700Y208000D02*X124200D01*
X16400Y179300D02*Y175800D01*
X16900Y175300D01*
X17900D01*
X18400Y175800D01*
Y179300D02*Y175800D01*
X19600Y178500D02*X20400Y179300D01*
Y175300D01*
X19600D02*X21100D01*
X68000Y34000D02*X69300D01*
X70000Y33300D02*X69300Y34000D01*
X70000Y33300D02*Y30700D01*
X69300Y30000D01*
X68000D02*X69300D01*
X66800Y30800D02*X66000Y30000D01*
Y34000D02*Y30000D01*
X65300Y34000D02*X66800D01*
X65000Y15500D02*X67000D01*
X67500Y16000D01*
Y17200D02*Y16000D01*
X67000Y17700D02*X67500Y17200D01*
X65500Y17700D02*X67000D01*
X65500Y19500D02*Y15500D01*
X65000Y19500D02*X67000D01*
X67500Y19000D01*
Y18200D01*
X67000Y17700D02*X67500Y18200D01*
X68700Y18500D02*Y15500D01*
Y18500D02*X69400Y19500D01*
X70500D01*
X71200Y18500D01*
Y15500D01*
X68700Y17500D02*X71200D01*
X72400Y19500D02*X74400D01*
X73400D02*Y15500D01*
X33000Y19000D02*X33500Y18500D01*
X31500Y19000D02*X33000D01*
X31000Y18500D02*X31500Y19000D01*
X31000Y18500D02*Y17500D01*
X31500Y17000D01*
X33000D01*
X33500Y16500D01*
Y15500D01*
X33000Y15000D02*X33500Y15500D01*
X31500Y15000D02*X33000D01*
X31000Y15500D02*X31500Y15000D01*
X34700Y18200D02*X35500Y19000D01*
Y15000D01*
X34700D02*X36200D01*
X114409Y41150D02*X116409D01*
X116909Y40650D01*
Y39650D01*
X116409Y39150D02*X116909Y39650D01*
X114909Y39150D02*X116409D01*
X114909Y41150D02*Y37150D01*
X115709Y39150D02*X116909Y37150D01*
X118109Y38650D02*X120109Y41150D01*
X118109Y38650D02*X120609D01*
X120109Y41150D02*Y37150D01*
X112350Y99650D02*X114350D01*
X114850Y99150D01*
Y98150D01*
X114350Y97650D02*X114850Y98150D01*
X112850Y97650D02*X114350D01*
X112850Y99650D02*Y95650D01*
X113650Y97650D02*X114850Y95650D01*
X116050Y99150D02*X116550Y99650D01*
X118050D01*
X118550Y99150D01*
Y98150D01*
X116050Y95650D02*X118550Y98150D01*
X116050Y95650D02*X118550D01*
X116968Y72650D02*X118968D01*
X119468Y72150D01*
Y71150D01*
X118968Y70650D02*X119468Y71150D01*
X117468Y70650D02*X118968D01*
X117468Y72650D02*Y68650D01*
X118268Y70650D02*X119468Y68650D01*
X122168Y72650D02*X122668Y72150D01*
X121168Y72650D02*X122168D01*
X120668Y72150D02*X121168Y72650D01*
X120668Y72150D02*Y69150D01*
X121168Y68650D01*
X122168Y70850D02*X122668Y70350D01*
X120668Y70850D02*X122168D01*
X121168Y68650D02*X122168D01*
X122668Y69150D01*
Y70350D02*Y69150D01*
X151000Y24500D02*Y21500D01*
Y24500D02*X151500Y25000D01*
X152500D01*
X153000Y24500D01*
Y22000D01*
X152000Y21000D02*X153000Y22000D01*
X151500Y21000D02*X152000D01*
X151000Y21500D02*X151500Y21000D01*
X152000Y22500D02*X153000Y21000D01*
X154200Y24500D02*X154700Y25000D01*
X156200D01*
X156700Y24500D01*
Y23500D01*
X154200Y21000D02*X156700Y23500D01*
X154200Y21000D02*X156700D01*
X151000Y54500D02*Y51500D01*
Y54500D02*X151500Y55000D01*
X152500D01*
X153000Y54500D01*
Y52000D01*
X152000Y51000D02*X153000Y52000D01*
X151500Y51000D02*X152000D01*
X151000Y51500D02*X151500Y51000D01*
X152000Y52500D02*X153000Y51000D01*
X154200Y54500D02*X154700Y55000D01*
X155700D01*
X156200Y54500D01*
X155700Y51000D02*X156200Y51500D01*
X154700Y51000D02*X155700D01*
X154200Y51500D02*X154700Y51000D01*
Y53200D02*X155700D01*
X156200Y54500D02*Y53700D01*
Y52700D02*Y51500D01*
Y52700D02*X155700Y53200D01*
X156200Y53700D02*X155700Y53200D01*
X128000Y33400D02*X128500Y32900D01*
X126500Y33400D02*X128000D01*
X126000Y32900D02*X126500Y33400D01*
X126000Y32900D02*Y31900D01*
X126500Y31400D01*
X128000D01*
X128500Y30900D01*
Y29900D01*
X128000Y29400D02*X128500Y29900D01*
X126500Y29400D02*X128000D01*
X126000Y29900D02*X126500Y29400D01*
X129700Y32900D02*Y29900D01*
Y32900D02*X130200Y33400D01*
X131200D01*
X131700Y32900D01*
Y29900D01*
X131200Y29400D02*X131700Y29900D01*
X130200Y29400D02*X131200D01*
X129700Y29900D02*X130200Y29400D01*
X132900Y33400D02*Y29400D01*
Y33400D02*X134900D01*
X132900Y31600D02*X134400D01*
X136100Y33400D02*X138100D01*
X137100D02*Y29400D01*
X139300D02*X141300D01*
X142500Y33400D02*Y29400D01*
X144500D01*
X145700Y31600D02*X147200D01*
X145700Y29400D02*X147700D01*
X145700Y33400D02*Y29400D01*
Y33400D02*X147700D01*
X149400D02*Y29400D01*
X150700Y33400D02*X151400Y32700D01*
Y30100D01*
X150700Y29400D02*X151400Y30100D01*
X148900Y29400D02*X150700D01*
X148900Y33400D02*X150700D01*
X126000Y63400D02*X127000D01*
X126500D02*Y59400D01*
X126000D02*X127000D01*
X128200Y63400D02*X130200D01*
X130700Y62900D01*
Y61900D01*
X130200Y61400D02*X130700Y61900D01*
X128700Y61400D02*X130200D01*
X128700Y63400D02*Y59400D01*
X129500Y61400D02*X130700Y59400D01*
X132600D02*X133900D01*
X131900Y60100D02*X132600Y59400D01*
X131900Y62700D02*Y60100D01*
Y62700D02*X132600Y63400D01*
X133900D01*
X135100D02*X137100D01*
X135100D02*Y61400D01*
X135600Y61900D01*
X136600D01*
X137100Y61400D01*
Y59900D01*
X136600Y59400D02*X137100Y59900D01*
X135600Y59400D02*X136600D01*
X135100Y59900D02*X135600Y59400D01*
X138300D02*X140300D01*
X141500Y63400D02*Y59400D01*
X143500D01*
X144700Y61600D02*X146200D01*
X144700Y59400D02*X146700D01*
X144700Y63400D02*Y59400D01*
Y63400D02*X146700D01*
X148400D02*Y59400D01*
X149700Y63400D02*X150400Y62700D01*
Y60100D01*
X149700Y59400D02*X150400Y60100D01*
X147900Y59400D02*X149700D01*
X147900Y63400D02*X149700D01*
X182291Y60973D02*X184291D01*
X184791Y60473D01*
Y59473D01*
X184291Y58973D02*X184791Y59473D01*
X182791Y58973D02*X184291D01*
X182791Y60973D02*Y56973D01*
X183591Y58973D02*X184791Y56973D01*
X186491D02*X188491Y60973D01*
X185991D02*X188491D01*
M02*
