G04 start of page 5 for group -4063 idx -4063 *
G04 Title: (unknown), componentmask *
G04 Creator: pcb 20110918 *
G04 CreationDate: Tue 12 Jun 2012 03:36:23 PM GMT UTC *
G04 For: ed *
G04 Format: Gerber/RS-274X *
G04 PCB-Dimensions: 236000 283000 *
G04 PCB-Coordinate-Origin: lower left *
%MOIN*%
%FSLAX25Y25*%
%LNTOPMASK*%
%ADD49R,0.0355X0.0355*%
%ADD48C,0.0780*%
%ADD47C,0.0610*%
%ADD46C,0.0600*%
%ADD45C,0.0001*%
%ADD44C,0.0660*%
G54D44*X96600Y154600D03*
Y146700D03*
Y138800D03*
Y130900D03*
Y123000D03*
Y115100D03*
Y107200D03*
G54D45*G36*
X116700Y196300D02*Y189700D01*
X123300D01*
Y196300D01*
X116700D01*
G37*
G54D44*X110000Y193000D03*
G54D46*X120000Y73000D03*
G54D45*G36*
X117000Y56000D02*Y50000D01*
X123000D01*
Y56000D01*
X117000D01*
G37*
G54D44*X10000Y130900D03*
Y123000D03*
Y115100D03*
Y107200D03*
G54D45*G36*
X6700Y157900D02*Y151300D01*
X13300D01*
Y157900D01*
X6700D01*
G37*
G54D44*X10000Y146700D03*
Y138800D03*
Y99300D03*
Y91400D03*
Y83500D03*
G54D45*G36*
X91450Y27550D02*Y21450D01*
X97550D01*
Y27550D01*
X91450D01*
G37*
G54D47*X64500Y24500D03*
G54D45*G36*
X117000Y26000D02*Y20000D01*
X123000D01*
Y26000D01*
X117000D01*
G37*
G36*
X66700Y12800D02*Y6200D01*
X73300D01*
Y12800D01*
X66700D01*
G37*
G54D44*X80000Y9500D03*
G54D46*X120000Y13000D03*
G54D45*G36*
X32700Y12300D02*Y5700D01*
X39300D01*
Y12300D01*
X32700D01*
G37*
G54D44*X46000Y9000D03*
X56000D03*
X96600Y99300D03*
G54D45*G36*
X166100Y106900D02*Y99100D01*
X173900D01*
Y106900D01*
X166100D01*
G37*
G54D48*X160000Y103000D03*
X150000D03*
G54D45*G36*
X117000Y116000D02*Y110000D01*
X123000D01*
Y116000D01*
X117000D01*
G37*
G54D46*X120000Y103000D03*
G54D44*X96600Y91400D03*
Y83500D03*
G54D45*G36*
X117000Y86000D02*Y80000D01*
X123000D01*
Y86000D01*
X117000D01*
G37*
G36*
X166100Y76900D02*Y69100D01*
X173900D01*
Y76900D01*
X166100D01*
G37*
G54D48*X160000Y73000D03*
X150000D03*
G54D45*G36*
X146700Y146300D02*Y139700D01*
X153300D01*
Y146300D01*
X146700D01*
G37*
G54D44*X160000Y143000D03*
X170000D03*
X180000D03*
X190000D03*
Y173000D03*
X180000D03*
X170000D03*
X160000D03*
X150000D03*
X200000Y143000D03*
X210000D03*
X220000D03*
Y173000D03*
X210000D03*
X200000D03*
G54D45*G36*
X166100Y16900D02*Y9100D01*
X173900D01*
Y16900D01*
X166100D01*
G37*
G54D48*X160000Y13000D03*
X150000D03*
G54D45*G36*
X166100Y46900D02*Y39100D01*
X173900D01*
Y46900D01*
X166100D01*
G37*
G54D48*X160000Y43000D03*
X150000D03*
G54D46*X120000D03*
G54D49*X110000Y138492D02*Y137508D01*
X115118Y138492D02*Y137508D01*
X120000Y93492D02*Y92508D01*
X109882Y148492D02*Y147508D01*
X115000Y148492D02*Y147508D01*
X120000Y128492D02*Y127508D01*
X119882Y33492D02*Y32508D01*
X125000Y33492D02*Y32508D01*
X125118Y93492D02*Y92508D01*
X120000Y63492D02*Y62508D01*
X125118Y63492D02*Y62508D01*
X197441Y193492D02*Y192508D01*
X202559Y193492D02*Y192508D01*
X177508Y59000D02*X178492D01*
X177508Y53882D02*X178492D01*
X159508Y125559D02*X160492D01*
X125118Y128492D02*Y127508D01*
X159508Y120441D02*X160492D01*
M02*
