M48
INCH
T43C0.035
T42C0.120
T41C0.042
T40C0.030
T39C0.028
T38C0.038
%
T39
X012000Y007300
X012000Y005300
X012000Y002300
X012000Y001300
X012000Y011300
X012000Y010300
X012000Y008300
X015000Y014300
X016000Y014300
X017000Y014300
X018000Y014300
X019000Y014300
X019000Y017300
X018000Y017300
X017000Y017300
X016000Y017300
X015000Y017300
X020000Y014300
X021000Y014300
X022000Y014300
X022000Y017300
X021000Y017300
X020000Y017300
X012000Y004300
T40
X009450Y002450
X006450Y002450
T43
X015600Y005800
T38
X009660Y015460
X009660Y014670
X009660Y013880
X009660Y013090
X009660Y012300
X009660Y011510
X009660Y010720
X012000Y019300
X011000Y019300
X001000Y013090
X001000Y012300
X001000Y011510
X001000Y010720
X001000Y015460
X001000Y014670
X001000Y013880
X001000Y009930
X001000Y009140
X001000Y008350
X007000Y000950
X008000Y000950
X003600Y000900
X004600Y000900
X005600Y000900
X009660Y009930
X009660Y009140
X009660Y008350
T41
X017000Y010300
X016000Y010300
X015000Y010300
X017000Y007300
X016000Y007300
X015000Y007300
X017000Y001300
X016000Y001300
X015000Y001300
X017000Y004300
X016000Y004300
X015000Y004300
T42
X022800Y003650
X000800Y003650
X000800Y026650
X022800Y026650
M30
