<?xml version="1.0" encoding="UTF-8" standalone="no"?>
<!-- Created with Inkscape (http://www.inkscape.org/) -->

<svg
   xmlns:dc="http://purl.org/dc/elements/1.1/"
   xmlns:cc="http://creativecommons.org/ns#"
   xmlns:rdf="http://www.w3.org/1999/02/22-rdf-syntax-ns#"
   xmlns:svg="http://www.w3.org/2000/svg"
   xmlns="http://www.w3.org/2000/svg"
   xmlns:sodipodi="http://sodipodi.sourceforge.net/DTD/sodipodi-0.dtd"
   xmlns:inkscape="http://www.inkscape.org/namespaces/inkscape"
   id="svg4951"
   version="1.1"
   inkscape:version="0.48.1 r9760"
   width="220"
   height="220"
   sodipodi:docname="Qr-3.png">
  <metadata
     id="metadata4957">
    <rdf:RDF>
      <cc:Work
         rdf:about="">
        <dc:format>image/svg+xml</dc:format>
        <dc:type
           rdf:resource="http://purl.org/dc/dcmitype/StillImage" />
        <dc:title></dc:title>
      </cc:Work>
    </rdf:RDF>
  </metadata>
  <defs
     id="defs4955" />
  <sodipodi:namedview
     pagecolor="#ffffff"
     bordercolor="#666666"
     borderopacity="1"
     objecttolerance="10"
     gridtolerance="10"
     guidetolerance="10"
     inkscape:pageopacity="0"
     inkscape:pageshadow="2"
     inkscape:window-width="1400"
     inkscape:window-height="1002"
     id="namedview4953"
     showgrid="false"
     showguides="true"
     inkscape:guide-bbox="true"
     inkscape:zoom="4.8181818"
     inkscape:cx="89.371429"
     inkscape:cy="135.12822"
     inkscape:window-x="-3"
     inkscape:window-y="-3"
     inkscape:window-maximized="1"
     inkscape:current-layer="svg4951">
    <sodipodi:guide
       orientation="0,1"
       position="51.056604,183.0566"
       id="guide5331" />
    <sodipodi:guide
       orientation="1,0"
       position="36.943396,173.92453"
       id="guide5333" />
  </sodipodi:namedview>
  <g
     id="g5273"
     transform="matrix(0.05006832,0,0,-0.05006832,-0.10715695,220.19344)"
     style="fill:#000000;stroke:none">
    <path
       id="path5275"
       d="m 740,3310 0,-350 350,0 350,0 0,350 0,350 -350,0 -350,0 0,-350 z m 600,0 0,-250 -250,0 -250,0 0,250 0,250 250,0 250,0 0,-250 z"
       inkscape:connector-curvature="0"
       style="fill:#000000" />
    <path
       id="path5277"
       d="m 940,3310 0,-150 150,0 150,0 0,150 0,150 -150,0 -150,0 0,-150 z"
       inkscape:connector-curvature="0"
       style="fill:#000000" />
    <path
       id="path5279"
       d="m 2140,3610 0,-50 -50,0 -50,0 0,-50 0,-50 50,0 50,0 0,-100 0,-100 -50,0 -50,0 0,-50 0,-50 -50,0 -50,0 0,50 0,50 -50,0 -50,0 0,50 0,50 50,0 50,0 0,100 0,100 -100,0 -100,0 0,-50 0,-50 50,0 50,0 0,-50 0,-50 -50,0 -50,0 0,-50 0,-50 -50,0 -50,0 0,150 0,150 -50,0 -50,0 0,-300 0,-300 50,0 50,0 0,-50 0,-50 -200,0 -200,0 0,-50 0,-50 100,0 100,0 0,-50 0,-50 -100,0 -100,0 0,-50 0,-50 -50,0 -50,0 0,-50 0,-50 -50,0 -50,0 0,100 0,100 50,0 50,0 0,50 0,50 -50,0 -50,0 0,50 0,50 -50,0 -50,0 0,-50 0,-50 50,0 50,0 0,-50 0,-50 -50,0 -50,0 0,-50 0,-50 -50,0 -50,0 0,-50 0,-50 -50,0 -50,0 0,-250 0,-250 50,0 50,0 0,-50 0,-50 -50,0 -50,0 0,-50 0,-50 350,0 350,0 0,-50 0,-50 -50,0 -50,0 0,-50 0,-50 100,0 100,0 0,-150 0,-150 50,0 50,0 0,-100 0,-100 -50,0 -50,0 0,-50 0,-50 50,0 50,0 0,-50 0,-50 100,0 100,0 0,100 0,100 50,0 50,0 0,-50 0,-50 50,0 50,0 0,-50 0,-50 -50,0 -50,0 0,-50 0,-50 50,0 50,0 0,50 0,50 50,0 50,0 0,50 0,50 50,0 50,0 0,-100 0,-100 100,0 100,0 0,50 0,50 50,0 50,0 0,50 0,50 150,0 150,0 0,-100 0,-100 50,0 50,0 0,50 0,50 50,0 50,0 0,-50 0,-50 150,0 150,0 0,100 0,100 150,0 150,0 0,50 0,50 -50,0 -50,0 0,50 0,50 50,0 50,0 0,250 0,250 -50,0 -50,0 0,50 0,50 50,0 50,0 0,50 0,50 -50,0 -50,0 0,50 0,50 50,0 50,0 0,50 0,50 -100,0 -100,0 0,-50 0,-50 -100,0 -100,0 0,50 0,50 50,0 50,0 0,50 0,50 50,0 50,0 0,50 0,50 -50,0 -50,0 0,150 0,150 -100,0 -100,0 0,50 0,50 50,0 50,0 0,50 0,50 150,0 150,0 0,-200 0,-200 50,0 50,0 0,200 0,200 -50,0 -50,0 0,50 0,50 -250,0 -250,0 0,-150 0,-150 -100,0 -100,0 0,100 0,100 50,0 50,0 0,50 0,50 -150,0 -150,0 0,-50 0,-50 50,0 50,0 0,-100 0,-100 -50,0 -50,0 0,-50 0,-50 50,0 50,0 0,-50 0,-50 -100,0 -100,0 0,50 0,50 -50,0 -50,0 0,50 0,50 50,0 50,0 0,200 0,200 50,0 50,0 0,100 0,100 50,0 50,0 0,50 0,50 50,0 50,0 0,200 0,200 -100,0 -100,0 0,-50 0,-50 50,0 50,0 0,-50 0,-50 -50,0 -50,0 0,-50 0,-50 -50,0 -50,0 0,50 0,50 -50,0 -50,0 0,50 0,50 50,0 50,0 0,50 0,50 -50,0 -50,0 0,-50 0,-50 -50,0 -50,0 0,-50 0,-50 -100,0 -100,0 0,50 0,50 50,0 50,0 0,50 0,50 -50,0 -50,0 0,-50 z m 200,-300 0,-50 -50,0 -50,0 0,50 0,50 50,0 50,0 0,-50 z m 200,0 0,-50 50,0 50,0 0,50 0,50 50,0 50,0 0,-50 0,-50 -50,0 -50,0 0,-50 0,-50 -100,0 -100,0 0,-50 0,-50 50,0 50,0 0,-50 0,-50 -50,0 -50,0 0,50 0,50 -50,0 -50,0 0,-50 0,-50 -50,0 -50,0 0,-50 0,-50 -100,0 -100,0 0,-50 0,-50 50,0 50,0 0,-50 0,-50 -50,0 -50,0 0,50 0,50 -50,0 -50,0 0,-100 0,-100 -50,0 -50,0 0,150 0,150 -50,0 -50,0 0,50 0,50 -50,0 -50,0 0,50 0,50 50,0 50,0 0,50 0,50 50,0 50,0 0,-50 0,-50 50,0 50,0 0,-50 0,-50 50,0 50,0 0,100 0,100 50,0 50,0 0,-100 0,-100 50,0 50,0 0,100 0,100 100,0 100,0 0,100 0,100 50,0 50,0 0,-50 z m -800,-600 0,-50 -50,0 -50,0 0,-50 0,-50 -100,0 -100,0 0,-50 0,-50 -50,0 -50,0 0,-50 0,-50 50,0 50,0 0,-50 0,-50 -150,0 -150,0 0,50 0,50 50,0 50,0 0,100 0,100 100,0 100,0 0,50 0,50 100,0 100,0 0,50 0,50 50,0 50,0 0,-50 z m 600,-50 0,-100 -50,0 -50,0 0,-50 0,-50 50,0 50,0 0,-150 0,-150 50,0 50,0 0,50 0,50 50,0 50,0 0,-50 0,-50 50,0 50,0 0,-50 0,-50 -50,0 -50,0 0,-50 0,-50 100,0 100,0 0,200 0,200 50,0 50,0 0,50 0,50 50,0 50,0 0,-100 0,-100 -50,0 -50,0 0,-200 0,-200 50,0 50,0 0,50 0,50 150,0 150,0 0,-50 0,-50 150,0 150,0 0,-50 0,-50 -50,0 -50,0 0,-100 0,-100 50,0 50,0 0,-50 0,-50 -50,0 -50,0 0,-50 0,-50 50,0 50,0 0,-50 0,-50 -50,0 -50,0 0,-100 0,-100 -50,0 -50,0 0,50 0,50 -50,0 -50,0 0,50 0,50 50,0 50,0 0,100 0,100 -50,0 -50,0 0,50 0,50 50,0 50,0 0,100 0,100 -50,0 -50,0 0,-50 0,-50 -50,0 -50,0 0,50 0,50 -100,0 -100,0 0,-50 0,-50 -150,0 -150,0 0,-100 0,-100 50,0 50,0 0,-100 0,-100 -50,0 -50,0 0,-50 0,-50 250,0 250,0 0,-100 0,-100 -100,0 -100,0 0,50 0,50 -150,0 -150,0 0,50 0,50 -50,0 -50,0 0,-50 0,-50 -100,0 -100,0 0,-50 0,-50 -50,0 -50,0 0,50 0,50 -50,0 -50,0 0,-50 0,-50 -50,0 -50,0 0,50 0,50 50,0 50,0 0,50 0,50 -150,0 -150,0 0,-50 0,-50 -50,0 -50,0 0,150 0,150 -50,0 -50,0 0,150 0,150 -50,0 -50,0 0,50 0,50 -50,0 -50,0 0,50 0,50 -200,0 -200,0 0,50 0,50 -50,0 -50,0 0,50 0,50 -50,0 -50,0 0,50 0,50 50,0 50,0 0,-50 0,-50 50,0 50,0 0,-50 0,-50 50,0 50,0 0,100 0,100 150,0 150,0 0,-50 0,-50 -100,0 -100,0 0,-50 0,-50 250,0 250,0 0,100 0,100 -50,0 -50,0 0,50 0,50 100,0 100,0 0,50 0,50 -50,0 -50,0 0,50 0,50 50,0 50,0 0,-50 0,-50 50,0 50,0 0,-100 0,-100 50,0 50,0 0,-100 0,-100 50,0 50,0 0,50 0,50 100,0 100,0 0,50 0,50 -100,0 -100,0 0,50 0,50 50,0 50,0 0,100 0,100 -100,0 -100,0 0,50 0,50 100,0 100,0 0,100 0,100 50,0 50,0 0,-100 z m -700,-250 0,-50 -50,0 -50,0 0,50 0,50 50,0 50,0 0,-50 z m 1600,-50 0,-100 50,0 50,0 0,-50 0,-50 -50,0 -50,0 0,50 0,50 -50,0 -50,0 0,-100 0,-100 -100,0 -100,0 0,50 0,50 50,0 50,0 0,50 0,50 50,0 50,0 0,100 0,100 50,0 50,0 0,-100 z m -2200,-50 0,-50 -50,0 -50,0 0,50 0,50 50,0 50,0 0,-50 z m 2100,-900 0,-150 -150,0 -150,0 0,150 0,150 150,0 150,0 0,-150 z"
       inkscape:connector-curvature="0"
       style="fill:#000000" />
    <path
       id="path5281"
       d="m 1740,3010 0,-50 50,0 50,0 0,-50 0,-50 50,0 50,0 0,50 0,50 -50,0 -50,0 0,50 0,50 -50,0 -50,0 0,-50 z"
       inkscape:connector-curvature="0"
       style="fill:#000000" />
    <path
       id="path5283"
       d="m 1840,1960 0,-100 -50,0 -50,0 0,-50 0,-50 -50,0 -50,0 0,-50 0,-50 50,0 50,0 0,50 0,50 50,0 50,0 0,50 0,50 100,0 100,0 0,50 0,50 -50,0 -50,0 0,50 0,50 -50,0 -50,0 0,-100 z"
       inkscape:connector-curvature="0"
       style="fill:#000000" />
    <path
       id="path5285"
       d="m 2240,1860 0,-100 -100,0 -100,0 0,-50 0,-50 -100,0 -100,0 0,-50 0,-50 50,0 50,0 0,-50 0,-50 -100,0 -100,0 0,-50 0,-50 50,0 50,0 0,-50 0,-50 50,0 50,0 0,100 0,100 50,0 50,0 0,-50 0,-50 50,0 50,0 0,-100 0,-100 200,0 200,0 0,100 0,100 50,0 50,0 0,50 0,50 -50,0 -50,0 0,-50 0,-50 -100,0 -100,0 0,50 0,50 -100,0 -100,0 0,50 0,50 50,0 50,0 0,100 0,100 50,0 50,0 0,-50 0,-50 50,0 50,0 0,50 0,50 50,0 50,0 0,-50 0,-50 50,0 50,0 0,50 0,50 50,0 50,0 0,50 0,50 -50,0 -50,0 0,-50 0,-50 -50,0 -50,0 0,50 0,50 -50,0 -50,0 0,-50 0,-50 -50,0 -50,0 0,100 0,100 -50,0 -50,0 0,-100 z m -100,-250 0,-50 -50,0 -50,0 0,50 0,50 50,0 50,0 0,-50 z m 200,-300 0,-50 -50,0 -50,0 0,50 0,50 50,0 50,0 0,-50 z"
       inkscape:connector-curvature="0"
       style="fill:#000000" />
    <path
       id="path5287"
       d="m 3140,1810 0,-50 50,0 50,0 0,50 0,50 -50,0 -50,0 0,-50 z"
       inkscape:connector-curvature="0"
       style="fill:#000000" />
    <path
       id="path5289"
       d="m 2940,1410 0,-50 50,0 50,0 0,50 0,50 -50,0 -50,0 0,-50 z"
       inkscape:connector-curvature="0"
       style="fill:#000000" />
    <path
       id="path5291"
       d="m 2940,3310 0,-350 350,0 350,0 0,350 0,350 -350,0 -350,0 0,-350 z m 600,0 0,-250 -250,0 -250,0 0,250 0,250 250,0 250,0 0,-250 z"
       inkscape:connector-curvature="0"
       style="fill:#000000" />
    <path
       id="path5293"
       d="m 3140,3310 0,-150 150,0 150,0 0,150 0,150 -150,0 -150,0 0,-150 z"
       inkscape:connector-curvature="0"
       style="fill:#000000" />
    <path
       id="path5295"
       d="m 2740,3010 0,-50 50,0 50,0 0,50 0,50 -50,0 -50,0 0,-50 z"
       inkscape:connector-curvature="0"
       style="fill:#000000" />
    <path
       id="path5297"
       d="m 3540,2210 0,-50 50,0 50,0 0,50 0,50 -50,0 -50,0 0,-50 z"
       inkscape:connector-curvature="0"
       style="fill:#000000" />
    <path
       id="path5299"
       d="m 740,1610 0,-50 100,0 100,0 0,50 0,50 -100,0 -100,0 0,-50 z"
       inkscape:connector-curvature="0"
       style="fill:#000000" />
    <path
       id="path5301"
       d="m 1040,1610 0,-50 100,0 100,0 0,50 0,50 -100,0 -100,0 0,-50 z"
       inkscape:connector-curvature="0"
       style="fill:#000000" />
    <path
       id="path5303"
       d="m 740,1110 0,-350 350,0 350,0 0,350 0,350 -350,0 -350,0 0,-350 z m 600,0 0,-250 -250,0 -250,0 0,250 0,250 250,0 250,0 0,-250 z"
       inkscape:connector-curvature="0"
       style="fill:#000000" />
    <path
       id="path5305"
       d="m 940,1110 0,-150 150,0 150,0 0,150 0,150 -150,0 -150,0 0,-150 z"
       inkscape:connector-curvature="0"
       style="fill:#000000" />
    <path
       id="path5307"
       d="m 3540,810 0,-50 50,0 50,0 0,50 0,50 -50,0 -50,0 0,-50 z"
       inkscape:connector-curvature="0"
       style="fill:#000000" />
  </g>
</svg>
