G04 start of page 10 for group -4015 idx -4015 *
G04 Title: (unknown), toppaste *
G04 Creator: pcb 20110918 *
G04 CreationDate: Fri 08 Jun 2012 06:47:20 PM GMT UTC *
G04 For: ed *
G04 Format: Gerber/RS-274X *
G04 PCB-Dimensions: 450000 325000 *
G04 PCB-Coordinate-Origin: lower left *
%MOIN*%
%FSLAX25Y25*%
%LNTOPPASTE*%
%ADD78R,0.0295X0.0295*%
G54D78*X427900Y124062D02*Y123078D01*
X422782Y124062D02*Y123078D01*
X81900Y99062D02*Y98078D01*
X76782Y99062D02*Y98078D01*
X77341Y104062D02*Y103078D01*
X82459Y104062D02*Y103078D01*
X64341Y136062D02*Y135078D01*
X69459Y136062D02*Y135078D01*
X76782Y72062D02*Y71078D01*
X81900Y72062D02*Y71078D01*
Y65062D02*Y64078D01*
X76782Y65062D02*Y64078D01*
X69782Y169062D02*Y168078D01*
X64664Y169062D02*Y168078D01*
X64782Y175062D02*Y174078D01*
X69900Y175062D02*Y174078D01*
X70459Y146062D02*Y145078D01*
X65341Y146062D02*Y145078D01*
X64782Y153062D02*Y152078D01*
X69900Y153062D02*Y152078D01*
X69459Y130062D02*Y129078D01*
X64341Y130062D02*Y129078D01*
M02*
