G04 start of page 6 for group -4063 idx -4063 *
G04 Title: (unknown), componentmask *
G04 Creator: pcb 20110918 *
G04 CreationDate: Fri 08 Jun 2012 06:47:20 PM GMT UTC *
G04 For: ed *
G04 Format: Gerber/RS-274X *
G04 PCB-Dimensions: 450000 325000 *
G04 PCB-Coordinate-Origin: lower left *
%MOIN*%
%FSLAX25Y25*%
%LNTOPMASK*%
%ADD58R,0.0355X0.0355*%
%ADD57C,0.1280*%
%ADD56C,0.0600*%
%ADD55C,0.0660*%
%ADD54C,0.2560*%
%ADD53C,0.1560*%
%ADD52C,0.0960*%
%ADD51C,0.0001*%
%ADD50C,0.0860*%
G54D50*X216000Y158000D03*
X196000D03*
X197900Y241570D03*
G54D51*G36*
X177200Y192800D02*Y183200D01*
X186800D01*
Y192800D01*
X177200D01*
G37*
G54D52*X182000Y198000D03*
Y208000D03*
G54D53*X115000Y198000D03*
G54D54*X37400Y194170D03*
G54D50*X217900Y241570D03*
G54D55*X276300Y229570D03*
G54D51*G36*
X284200Y238270D02*Y231670D01*
X290800D01*
Y238270D01*
X284200D01*
G37*
G54D55*X287500Y224170D03*
Y213370D03*
Y202570D03*
X276300Y218770D03*
Y207970D03*
Y197170D03*
Y186370D03*
G54D54*X281900Y261970D03*
G54D55*X378500Y137770D03*
Y126970D03*
Y116170D03*
Y105370D03*
G54D51*G36*
X375200Y173470D02*Y166870D01*
X381800D01*
Y173470D01*
X375200D01*
G37*
G54D55*X378500Y159370D03*
X367300Y164770D03*
X378500Y148570D03*
X367300Y153970D03*
Y143170D03*
Y132370D03*
Y121570D03*
Y110770D03*
G54D54*X372900Y197170D03*
G54D51*G36*
X428600Y182870D02*Y176270D01*
X435200D01*
Y182870D01*
X428600D01*
G37*
G54D55*X431900Y189570D03*
G54D51*G36*
X418600Y182870D02*Y176270D01*
X425200D01*
Y182870D01*
X418600D01*
G37*
G54D55*X421900Y189570D03*
G54D51*G36*
X418600Y152870D02*Y146270D01*
X425200D01*
Y152870D01*
X418600D01*
G37*
G54D55*X421900Y139570D03*
Y104570D03*
Y159570D03*
X431900D03*
X421900Y169570D03*
X431900D03*
G54D51*G36*
X428600Y142870D02*Y136270D01*
X435200D01*
Y142870D01*
X428600D01*
G37*
G36*
Y152870D02*Y146270D01*
X435200D01*
Y152870D01*
X428600D01*
G37*
G54D55*X431900Y104570D03*
Y199570D03*
X421900D03*
G54D50*X424400Y216144D03*
Y235829D03*
Y255515D03*
Y275200D03*
Y294885D03*
Y314570D03*
G54D55*X378500Y94570D03*
Y83770D03*
Y72970D03*
X367300Y99970D03*
Y89170D03*
Y78370D03*
Y67570D03*
Y56770D03*
Y45970D03*
G54D54*X372900Y13570D03*
G54D55*X378500Y62170D03*
Y51370D03*
Y40570D03*
G54D51*G36*
X428600Y27870D02*Y21270D01*
X435200D01*
Y27870D01*
X428600D01*
G37*
G36*
Y37870D02*Y31270D01*
X435200D01*
Y37870D01*
X428600D01*
G37*
G54D55*X431900Y44570D03*
X421900Y24570D03*
Y64570D03*
Y54570D03*
Y44570D03*
Y34570D03*
Y74570D03*
X431900Y54570D03*
Y64570D03*
G54D51*G36*
X428600Y77870D02*Y71270D01*
X435200D01*
Y77870D01*
X428600D01*
G37*
G54D55*X431900Y84570D03*
Y94570D03*
X421900D03*
Y84570D03*
G54D51*G36*
X39700Y127270D02*Y120670D01*
X46300D01*
Y127270D01*
X39700D01*
G37*
G54D55*X43000Y134770D03*
X31800Y129370D03*
Y140170D03*
G54D54*X37400Y96970D03*
G54D55*X43000Y145570D03*
Y156370D03*
Y167170D03*
X31800Y150970D03*
Y161770D03*
G54D56*X178000Y67000D03*
X173000Y57000D03*
X158000Y67000D03*
X163000Y57000D03*
X148000Y67000D03*
X168000D03*
X153000Y57000D03*
G54D51*G36*
X140000Y60000D02*Y54000D01*
X146000D01*
Y60000D01*
X140000D01*
G37*
G54D57*X138000Y32000D03*
X183000D03*
G54D55*X287500Y191770D03*
Y180970D03*
Y170170D03*
Y159370D03*
Y148570D03*
Y137770D03*
Y126970D03*
Y116170D03*
Y105370D03*
Y94570D03*
Y83770D03*
Y72970D03*
Y62170D03*
Y51370D03*
Y40570D03*
X276300Y175570D03*
Y164770D03*
Y153970D03*
Y143170D03*
Y132370D03*
Y121570D03*
Y110770D03*
Y99970D03*
Y89170D03*
Y78370D03*
Y67570D03*
Y56770D03*
Y45970D03*
G54D54*X281900Y13570D03*
G54D58*X427900Y124062D02*Y123078D01*
X422782Y124062D02*Y123078D01*
X64341Y136062D02*Y135078D01*
X69459Y136062D02*Y135078D01*
X69782Y169062D02*Y168078D01*
X64664Y169062D02*Y168078D01*
X65341Y146062D02*Y145078D01*
X64782Y153062D02*Y152078D01*
X70459Y146062D02*Y145078D01*
X69900Y153062D02*Y152078D01*
X69459Y130062D02*Y129078D01*
X64341Y130062D02*Y129078D01*
X81900Y99062D02*Y98078D01*
X76782Y99062D02*Y98078D01*
X77341Y104062D02*Y103078D01*
X82459Y104062D02*Y103078D01*
X76782Y72062D02*Y71078D01*
X81900Y72062D02*Y71078D01*
Y65062D02*Y64078D01*
X76782Y65062D02*Y64078D01*
X64782Y175062D02*Y174078D01*
X69900Y175062D02*Y174078D01*
M02*
