G04 start of page 11 for group -3984 idx -3984 *
G04 Title: (unknown), fab *
G04 Creator: pcb 20110918 *
G04 CreationDate: Tue 12 Jun 2012 03:33:29 PM GMT UTC *
G04 For: ed *
G04 Format: Gerber/RS-274X *
G04 PCB-Dimensions: 450000 325000 *
G04 PCB-Coordinate-Origin: lower left *
%MOIN*%
%FSLAX25Y25*%
%LNFAB*%
%ADD87C,0.0100*%
%ADD86C,0.0075*%
%ADD85C,0.0060*%
%ADD84R,0.0080X0.0080*%
G54D84*X114200Y198000D02*G75*G03X115800Y198000I800J0D01*G01*
G75*G03X114200Y198000I-800J0D01*G01*
X112600D02*G75*G03X117400Y198000I2400J0D01*G01*
G75*G03X112600Y198000I-2400J0D01*G01*
X14200Y336250D02*G75*G03X15800Y336250I800J0D01*G01*
G75*G03X14200Y336250I-800J0D01*G01*
X12600D02*G75*G03X17400Y336250I2400J0D01*G01*
G75*G03X12600Y336250I-2400J0D01*G01*
G54D85*X135000Y338500D02*X136500Y335500D01*
X138000Y338500D01*
X136500Y335500D02*Y332500D01*
X139800Y335800D02*X142050D01*
X139800Y332500D02*X142800D01*
X139800Y338500D02*Y332500D01*
Y338500D02*X142800D01*
X147600D02*X148350Y337750D01*
X145350Y338500D02*X147600D01*
X144600Y337750D02*X145350Y338500D01*
X144600Y337750D02*Y336250D01*
X145350Y335500D01*
X147600D01*
X148350Y334750D01*
Y333250D01*
X147600Y332500D02*X148350Y333250D01*
X145350Y332500D02*X147600D01*
X144600Y333250D02*X145350Y332500D01*
X98000Y337300D02*X99200Y338500D01*
Y332500D01*
X98000D02*X100250D01*
X45000Y333250D02*X45750Y332500D01*
X45000Y337750D02*Y333250D01*
Y337750D02*X45750Y338500D01*
X47250D01*
X48000Y337750D01*
Y333250D01*
X47250Y332500D02*X48000Y333250D01*
X45750Y332500D02*X47250D01*
X45000Y334000D02*X48000Y337000D01*
X49800Y332500D02*X50550D01*
X52350Y337300D02*X53550Y338500D01*
Y332500D01*
X52350D02*X54600D01*
X56400Y337750D02*X57150Y338500D01*
X58650D01*
X59400Y337750D01*
X58650Y332500D02*X59400Y333250D01*
X57150Y332500D02*X58650D01*
X56400Y333250D02*X57150Y332500D01*
Y335800D02*X58650D01*
X59400Y337750D02*Y336550D01*
Y335050D02*Y333250D01*
Y335050D02*X58650Y335800D01*
X59400Y336550D02*X58650Y335800D01*
X61200Y333250D02*X61950Y332500D01*
X61200Y337750D02*Y333250D01*
Y337750D02*X61950Y338500D01*
X63450D01*
X64200Y337750D01*
Y333250D01*
X63450Y332500D02*X64200Y333250D01*
X61950Y332500D02*X63450D01*
X61200Y334000D02*X64200Y337000D01*
X135600Y34400D02*X140400Y29600D01*
X135600D02*X140400Y34400D01*
X136400Y33600D02*X139600D01*
X136400D02*Y30400D01*
X139600D01*
Y33600D02*Y30400D01*
X180600Y34400D02*X185400Y29600D01*
X180600D02*X185400Y34400D01*
X181400Y33600D02*X184600D01*
X181400D02*Y30400D01*
X184600D01*
Y33600D02*Y30400D01*
X12600Y353650D02*X17400Y348850D01*
X12600D02*X17400Y353650D01*
X13400Y352850D02*X16600D01*
X13400D02*Y349650D01*
X16600D01*
Y352850D02*Y349650D01*
X140000Y353500D02*Y347500D01*
Y353500D02*X143750Y347500D01*
Y353500D02*Y347500D01*
X145550Y352750D02*Y348250D01*
Y352750D02*X146300Y353500D01*
X147800D01*
X148550Y352750D01*
Y348250D01*
X147800Y347500D02*X148550Y348250D01*
X146300Y347500D02*X147800D01*
X145550Y348250D02*X146300Y347500D01*
X98000Y352750D02*X98750Y353500D01*
X101000D01*
X101750Y352750D01*
Y351250D01*
X98000Y347500D02*X101750Y351250D01*
X98000Y347500D02*X101750D01*
X45000Y348250D02*X45750Y347500D01*
X45000Y352750D02*Y348250D01*
Y352750D02*X45750Y353500D01*
X47250D01*
X48000Y352750D01*
Y348250D01*
X47250Y347500D02*X48000Y348250D01*
X45750Y347500D02*X47250D01*
X45000Y349000D02*X48000Y352000D01*
X49800Y347500D02*X50550D01*
X52350Y352300D02*X53550Y353500D01*
Y347500D01*
X52350D02*X54600D01*
X56400Y352750D02*X57150Y353500D01*
X59400D01*
X60150Y352750D01*
Y351250D01*
X56400Y347500D02*X60150Y351250D01*
X56400Y347500D02*X60150D01*
X61950Y348250D02*X62700Y347500D01*
X61950Y349450D02*Y348250D01*
Y349450D02*X63000Y350500D01*
X63900D01*
X64950Y349450D01*
Y348250D01*
X64200Y347500D02*X64950Y348250D01*
X62700Y347500D02*X64200D01*
X61950Y351550D02*X63000Y350500D01*
X61950Y352750D02*Y351550D01*
Y352750D02*X62700Y353500D01*
X64200D01*
X64950Y352750D01*
Y351550D01*
X63900Y350500D02*X64950Y351550D01*
X372900Y16770D02*Y10370D01*
X369700Y13570D02*X376100D01*
X371300Y15170D02*X374500D01*
X371300D02*Y11970D01*
X374500D01*
Y15170D02*Y11970D01*
X372900Y200370D02*Y193970D01*
X369700Y197170D02*X376100D01*
X371300Y198770D02*X374500D01*
X371300D02*Y195570D01*
X374500D01*
Y198770D02*Y195570D01*
X37400Y197370D02*Y190970D01*
X34200Y194170D02*X40600D01*
X35800Y195770D02*X39000D01*
X35800D02*Y192570D01*
X39000D01*
Y195770D02*Y192570D01*
X37400Y100170D02*Y93770D01*
X34200Y96970D02*X40600D01*
X35800Y98570D02*X39000D01*
X35800D02*Y95370D01*
X39000D01*
Y98570D02*Y95370D01*
X281900Y16770D02*Y10370D01*
X278700Y13570D02*X285100D01*
X280300Y15170D02*X283500D01*
X280300D02*Y11970D01*
X283500D01*
Y15170D02*Y11970D01*
X281900Y265170D02*Y258770D01*
X278700Y261970D02*X285100D01*
X280300Y263570D02*X283500D01*
X280300D02*Y260370D01*
X283500D01*
Y263570D02*Y260370D01*
X15000Y369450D02*Y363050D01*
X11800Y366250D02*X18200D01*
X13400Y367850D02*X16600D01*
X13400D02*Y364650D01*
X16600D01*
Y367850D02*Y364650D01*
X135000Y368500D02*X136500Y365500D01*
X138000Y368500D01*
X136500Y365500D02*Y362500D01*
X139800Y365800D02*X142050D01*
X139800Y362500D02*X142800D01*
X139800Y368500D02*Y362500D01*
Y368500D02*X142800D01*
X147600D02*X148350Y367750D01*
X145350Y368500D02*X147600D01*
X144600Y367750D02*X145350Y368500D01*
X144600Y367750D02*Y366250D01*
X145350Y365500D01*
X147600D01*
X148350Y364750D01*
Y363250D01*
X147600Y362500D02*X148350Y363250D01*
X145350Y362500D02*X147600D01*
X144600Y363250D02*X145350Y362500D01*
X100250Y368500D02*X101000Y367750D01*
X98750Y368500D02*X100250D01*
X98000Y367750D02*X98750Y368500D01*
X98000Y367750D02*Y363250D01*
X98750Y362500D01*
X100250Y365800D02*X101000Y365050D01*
X98000Y365800D02*X100250D01*
X98750Y362500D02*X100250D01*
X101000Y363250D01*
Y365050D02*Y363250D01*
X45000D02*X45750Y362500D01*
X45000Y367750D02*Y363250D01*
Y367750D02*X45750Y368500D01*
X47250D01*
X48000Y367750D01*
Y363250D01*
X47250Y362500D02*X48000Y363250D01*
X45750Y362500D02*X47250D01*
X45000Y364000D02*X48000Y367000D01*
X49800Y362500D02*X50550D01*
X52350Y367300D02*X53550Y368500D01*
Y362500D01*
X52350D02*X54600D01*
X56400Y367750D02*X57150Y368500D01*
X59400D01*
X60150Y367750D01*
Y366250D01*
X56400Y362500D02*X60150Y366250D01*
X56400Y362500D02*X60150D01*
X61950Y368500D02*X64950D01*
X61950D02*Y365500D01*
X62700Y366250D01*
X64200D01*
X64950Y365500D01*
Y363250D01*
X64200Y362500D02*X64950Y363250D01*
X62700Y362500D02*X64200D01*
X61950Y363250D02*X62700Y362500D01*
X182000Y188000D02*Y184800D01*
Y188000D02*X184773Y189600D01*
X182000Y188000D02*X179227Y189600D01*
X180400Y188000D02*G75*G03X183600Y188000I1600J0D01*G01*
G75*G03X180400Y188000I-1600J0D01*G01*
X182000Y198000D02*Y194800D01*
Y198000D02*X184773Y199600D01*
X182000Y198000D02*X179227Y199600D01*
X180400Y198000D02*G75*G03X183600Y198000I1600J0D01*G01*
G75*G03X180400Y198000I-1600J0D01*G01*
X182000Y208000D02*Y204800D01*
Y208000D02*X184773Y209600D01*
X182000Y208000D02*X179227Y209600D01*
X180400Y208000D02*G75*G03X183600Y208000I1600J0D01*G01*
G75*G03X180400Y208000I-1600J0D01*G01*
X15000Y381250D02*Y378050D01*
Y381250D02*X17773Y382850D01*
X15000Y381250D02*X12227Y382850D01*
X13400Y381250D02*G75*G03X16600Y381250I1600J0D01*G01*
G75*G03X13400Y381250I-1600J0D01*G01*
X135000Y383500D02*X136500Y380500D01*
X138000Y383500D01*
X136500Y380500D02*Y377500D01*
X139800Y380800D02*X142050D01*
X139800Y377500D02*X142800D01*
X139800Y383500D02*Y377500D01*
Y383500D02*X142800D01*
X147600D02*X148350Y382750D01*
X145350Y383500D02*X147600D01*
X144600Y382750D02*X145350Y383500D01*
X144600Y382750D02*Y381250D01*
X145350Y380500D01*
X147600D01*
X148350Y379750D01*
Y378250D01*
X147600Y377500D02*X148350Y378250D01*
X145350Y377500D02*X147600D01*
X144600Y378250D02*X145350Y377500D01*
X98000Y382750D02*X98750Y383500D01*
X100250D01*
X101000Y382750D01*
X100250Y377500D02*X101000Y378250D01*
X98750Y377500D02*X100250D01*
X98000Y378250D02*X98750Y377500D01*
Y380800D02*X100250D01*
X101000Y382750D02*Y381550D01*
Y380050D02*Y378250D01*
Y380050D02*X100250Y380800D01*
X101000Y381550D02*X100250Y380800D01*
X45000Y378250D02*X45750Y377500D01*
X45000Y382750D02*Y378250D01*
Y382750D02*X45750Y383500D01*
X47250D01*
X48000Y382750D01*
Y378250D01*
X47250Y377500D02*X48000Y378250D01*
X45750Y377500D02*X47250D01*
X45000Y379000D02*X48000Y382000D01*
X49800Y377500D02*X50550D01*
X52350Y378250D02*X53100Y377500D01*
X52350Y382750D02*Y378250D01*
Y382750D02*X53100Y383500D01*
X54600D01*
X55350Y382750D01*
Y378250D01*
X54600Y377500D02*X55350Y378250D01*
X53100Y377500D02*X54600D01*
X52350Y379000D02*X55350Y382000D01*
X59400Y383500D02*X60150Y382750D01*
X57900Y383500D02*X59400D01*
X57150Y382750D02*X57900Y383500D01*
X57150Y382750D02*Y378250D01*
X57900Y377500D01*
X59400Y380800D02*X60150Y380050D01*
X57150Y380800D02*X59400D01*
X57900Y377500D02*X59400D01*
X60150Y378250D01*
Y380050D02*Y378250D01*
X61950D02*X62700Y377500D01*
X61950Y382750D02*Y378250D01*
Y382750D02*X62700Y383500D01*
X64200D01*
X64950Y382750D01*
Y378250D01*
X64200Y377500D02*X64950Y378250D01*
X62700Y377500D02*X64200D01*
X61950Y379000D02*X64950Y382000D01*
X430300Y181170D02*X433500D01*
X430300D02*Y177970D01*
X433500D01*
Y181170D02*Y177970D01*
X430300Y191170D02*X433500D01*
X430300D02*Y187970D01*
X433500D01*
Y191170D02*Y187970D01*
X430300Y201170D02*X433500D01*
X430300D02*Y197970D01*
X433500D01*
Y201170D02*Y197970D01*
X420300Y181170D02*X423500D01*
X420300D02*Y177970D01*
X423500D01*
Y181170D02*Y177970D01*
X420300Y191170D02*X423500D01*
X420300D02*Y187970D01*
X423500D01*
Y191170D02*Y187970D01*
X420300Y201170D02*X423500D01*
X420300D02*Y197970D01*
X423500D01*
Y201170D02*Y197970D01*
X420300Y151170D02*X423500D01*
X420300D02*Y147970D01*
X423500D01*
Y151170D02*Y147970D01*
X420300Y161170D02*X423500D01*
X420300D02*Y157970D01*
X423500D01*
Y161170D02*Y157970D01*
X420300Y171170D02*X423500D01*
X420300D02*Y167970D01*
X423500D01*
Y171170D02*Y167970D01*
X430300Y26170D02*X433500D01*
X430300D02*Y22970D01*
X433500D01*
Y26170D02*Y22970D01*
X420300Y26170D02*X423500D01*
X420300D02*Y22970D01*
X423500D01*
Y26170D02*Y22970D01*
X430300Y141170D02*X433500D01*
X430300D02*Y137970D01*
X433500D01*
Y141170D02*Y137970D01*
X420300Y141170D02*X423500D01*
X420300D02*Y137970D01*
X423500D01*
Y141170D02*Y137970D01*
X430300Y151170D02*X433500D01*
X430300D02*Y147970D01*
X433500D01*
Y151170D02*Y147970D01*
X430300Y161170D02*X433500D01*
X430300D02*Y157970D01*
X433500D01*
Y161170D02*Y157970D01*
X430300Y171170D02*X433500D01*
X430300D02*Y167970D01*
X433500D01*
Y171170D02*Y167970D01*
X430300Y36170D02*X433500D01*
X430300D02*Y32970D01*
X433500D01*
Y36170D02*Y32970D01*
X430300Y46170D02*X433500D01*
X430300D02*Y42970D01*
X433500D01*
Y46170D02*Y42970D01*
X430300Y56170D02*X433500D01*
X430300D02*Y52970D01*
X433500D01*
Y56170D02*Y52970D01*
X430300Y66170D02*X433500D01*
X430300D02*Y62970D01*
X433500D01*
Y66170D02*Y62970D01*
X420300Y66170D02*X423500D01*
X420300D02*Y62970D01*
X423500D01*
Y66170D02*Y62970D01*
X420300Y56170D02*X423500D01*
X420300D02*Y52970D01*
X423500D01*
Y56170D02*Y52970D01*
X420300Y46170D02*X423500D01*
X420300D02*Y42970D01*
X423500D01*
Y46170D02*Y42970D01*
X420300Y36170D02*X423500D01*
X420300D02*Y32970D01*
X423500D01*
Y36170D02*Y32970D01*
X430300Y76170D02*X433500D01*
X430300D02*Y72970D01*
X433500D01*
Y76170D02*Y72970D01*
X430300Y86170D02*X433500D01*
X430300D02*Y82970D01*
X433500D01*
Y86170D02*Y82970D01*
X430300Y96170D02*X433500D01*
X430300D02*Y92970D01*
X433500D01*
Y96170D02*Y92970D01*
X430300Y106170D02*X433500D01*
X430300D02*Y102970D01*
X433500D01*
Y106170D02*Y102970D01*
X420300Y106170D02*X423500D01*
X420300D02*Y102970D01*
X423500D01*
Y106170D02*Y102970D01*
X420300Y96170D02*X423500D01*
X420300D02*Y92970D01*
X423500D01*
Y96170D02*Y92970D01*
X420300Y86170D02*X423500D01*
X420300D02*Y82970D01*
X423500D01*
Y86170D02*Y82970D01*
X420300Y76170D02*X423500D01*
X420300D02*Y72970D01*
X423500D01*
Y76170D02*Y72970D01*
X13400Y397850D02*X16600D01*
X13400D02*Y394650D01*
X16600D01*
Y397850D02*Y394650D01*
X135000Y398500D02*X136500Y395500D01*
X138000Y398500D01*
X136500Y395500D02*Y392500D01*
X139800Y395800D02*X142050D01*
X139800Y392500D02*X142800D01*
X139800Y398500D02*Y392500D01*
Y398500D02*X142800D01*
X147600D02*X148350Y397750D01*
X145350Y398500D02*X147600D01*
X144600Y397750D02*X145350Y398500D01*
X144600Y397750D02*Y396250D01*
X145350Y395500D01*
X147600D01*
X148350Y394750D01*
Y393250D01*
X147600Y392500D02*X148350Y393250D01*
X145350Y392500D02*X147600D01*
X144600Y393250D02*X145350Y392500D01*
X98000Y397750D02*X98750Y398500D01*
X100250D01*
X101000Y397750D01*
X100250Y392500D02*X101000Y393250D01*
X98750Y392500D02*X100250D01*
X98000Y393250D02*X98750Y392500D01*
Y395800D02*X100250D01*
X101000Y397750D02*Y396550D01*
Y395050D02*Y393250D01*
Y395050D02*X100250Y395800D01*
X101000Y396550D02*X100250Y395800D01*
X102800Y397750D02*X103550Y398500D01*
X105800D01*
X106550Y397750D01*
Y396250D01*
X102800Y392500D02*X106550Y396250D01*
X102800Y392500D02*X106550D01*
X45000Y393250D02*X45750Y392500D01*
X45000Y397750D02*Y393250D01*
Y397750D02*X45750Y398500D01*
X47250D01*
X48000Y397750D01*
Y393250D01*
X47250Y392500D02*X48000Y393250D01*
X45750Y392500D02*X47250D01*
X45000Y394000D02*X48000Y397000D01*
X49800Y392500D02*X50550D01*
X52350Y393250D02*X53100Y392500D01*
X52350Y397750D02*Y393250D01*
Y397750D02*X53100Y398500D01*
X54600D01*
X55350Y397750D01*
Y393250D01*
X54600Y392500D02*X55350Y393250D01*
X53100Y392500D02*X54600D01*
X52350Y394000D02*X55350Y397000D01*
X57150Y397750D02*X57900Y398500D01*
X59400D01*
X60150Y397750D01*
X59400Y392500D02*X60150Y393250D01*
X57900Y392500D02*X59400D01*
X57150Y393250D02*X57900Y392500D01*
Y395800D02*X59400D01*
X60150Y397750D02*Y396550D01*
Y395050D02*Y393250D01*
Y395050D02*X59400Y395800D01*
X60150Y396550D02*X59400Y395800D01*
X61950Y393250D02*X62700Y392500D01*
X61950Y394450D02*Y393250D01*
Y394450D02*X63000Y395500D01*
X63900D01*
X64950Y394450D01*
Y393250D01*
X64200Y392500D02*X64950Y393250D01*
X62700Y392500D02*X64200D01*
X61950Y396550D02*X63000Y395500D01*
X61950Y397750D02*Y396550D01*
Y397750D02*X62700Y398500D01*
X64200D01*
X64950Y397750D01*
Y396550D01*
X63900Y395500D02*X64950Y396550D01*
X377700Y170170D02*G75*G03X379300Y170170I800J0D01*G01*
G75*G03X377700Y170170I-800J0D01*G01*
Y159370D02*G75*G03X379300Y159370I800J0D01*G01*
G75*G03X377700Y159370I-800J0D01*G01*
Y148570D02*G75*G03X379300Y148570I800J0D01*G01*
G75*G03X377700Y148570I-800J0D01*G01*
Y137770D02*G75*G03X379300Y137770I800J0D01*G01*
G75*G03X377700Y137770I-800J0D01*G01*
Y126970D02*G75*G03X379300Y126970I800J0D01*G01*
G75*G03X377700Y126970I-800J0D01*G01*
Y116170D02*G75*G03X379300Y116170I800J0D01*G01*
G75*G03X377700Y116170I-800J0D01*G01*
Y105370D02*G75*G03X379300Y105370I800J0D01*G01*
G75*G03X377700Y105370I-800J0D01*G01*
Y94570D02*G75*G03X379300Y94570I800J0D01*G01*
G75*G03X377700Y94570I-800J0D01*G01*
Y83770D02*G75*G03X379300Y83770I800J0D01*G01*
G75*G03X377700Y83770I-800J0D01*G01*
Y72970D02*G75*G03X379300Y72970I800J0D01*G01*
G75*G03X377700Y72970I-800J0D01*G01*
Y62170D02*G75*G03X379300Y62170I800J0D01*G01*
G75*G03X377700Y62170I-800J0D01*G01*
Y51370D02*G75*G03X379300Y51370I800J0D01*G01*
G75*G03X377700Y51370I-800J0D01*G01*
Y40570D02*G75*G03X379300Y40570I800J0D01*G01*
G75*G03X377700Y40570I-800J0D01*G01*
X366500Y164770D02*G75*G03X368100Y164770I800J0D01*G01*
G75*G03X366500Y164770I-800J0D01*G01*
Y153970D02*G75*G03X368100Y153970I800J0D01*G01*
G75*G03X366500Y153970I-800J0D01*G01*
Y143170D02*G75*G03X368100Y143170I800J0D01*G01*
G75*G03X366500Y143170I-800J0D01*G01*
Y132370D02*G75*G03X368100Y132370I800J0D01*G01*
G75*G03X366500Y132370I-800J0D01*G01*
Y121570D02*G75*G03X368100Y121570I800J0D01*G01*
G75*G03X366500Y121570I-800J0D01*G01*
Y110770D02*G75*G03X368100Y110770I800J0D01*G01*
G75*G03X366500Y110770I-800J0D01*G01*
Y99970D02*G75*G03X368100Y99970I800J0D01*G01*
G75*G03X366500Y99970I-800J0D01*G01*
Y89170D02*G75*G03X368100Y89170I800J0D01*G01*
G75*G03X366500Y89170I-800J0D01*G01*
Y78370D02*G75*G03X368100Y78370I800J0D01*G01*
G75*G03X366500Y78370I-800J0D01*G01*
Y67570D02*G75*G03X368100Y67570I800J0D01*G01*
G75*G03X366500Y67570I-800J0D01*G01*
Y56770D02*G75*G03X368100Y56770I800J0D01*G01*
G75*G03X366500Y56770I-800J0D01*G01*
Y45970D02*G75*G03X368100Y45970I800J0D01*G01*
G75*G03X366500Y45970I-800J0D01*G01*
X42200Y123970D02*G75*G03X43800Y123970I800J0D01*G01*
G75*G03X42200Y123970I-800J0D01*G01*
Y134770D02*G75*G03X43800Y134770I800J0D01*G01*
G75*G03X42200Y134770I-800J0D01*G01*
Y145570D02*G75*G03X43800Y145570I800J0D01*G01*
G75*G03X42200Y145570I-800J0D01*G01*
Y156370D02*G75*G03X43800Y156370I800J0D01*G01*
G75*G03X42200Y156370I-800J0D01*G01*
Y167170D02*G75*G03X43800Y167170I800J0D01*G01*
G75*G03X42200Y167170I-800J0D01*G01*
X31000Y129370D02*G75*G03X32600Y129370I800J0D01*G01*
G75*G03X31000Y129370I-800J0D01*G01*
Y140170D02*G75*G03X32600Y140170I800J0D01*G01*
G75*G03X31000Y140170I-800J0D01*G01*
Y150970D02*G75*G03X32600Y150970I800J0D01*G01*
G75*G03X31000Y150970I-800J0D01*G01*
Y161770D02*G75*G03X32600Y161770I800J0D01*G01*
G75*G03X31000Y161770I-800J0D01*G01*
X286700Y234970D02*G75*G03X288300Y234970I800J0D01*G01*
G75*G03X286700Y234970I-800J0D01*G01*
Y224170D02*G75*G03X288300Y224170I800J0D01*G01*
G75*G03X286700Y224170I-800J0D01*G01*
Y213370D02*G75*G03X288300Y213370I800J0D01*G01*
G75*G03X286700Y213370I-800J0D01*G01*
Y202570D02*G75*G03X288300Y202570I800J0D01*G01*
G75*G03X286700Y202570I-800J0D01*G01*
Y191770D02*G75*G03X288300Y191770I800J0D01*G01*
G75*G03X286700Y191770I-800J0D01*G01*
Y180970D02*G75*G03X288300Y180970I800J0D01*G01*
G75*G03X286700Y180970I-800J0D01*G01*
Y170170D02*G75*G03X288300Y170170I800J0D01*G01*
G75*G03X286700Y170170I-800J0D01*G01*
Y159370D02*G75*G03X288300Y159370I800J0D01*G01*
G75*G03X286700Y159370I-800J0D01*G01*
Y148570D02*G75*G03X288300Y148570I800J0D01*G01*
G75*G03X286700Y148570I-800J0D01*G01*
Y137770D02*G75*G03X288300Y137770I800J0D01*G01*
G75*G03X286700Y137770I-800J0D01*G01*
Y126970D02*G75*G03X288300Y126970I800J0D01*G01*
G75*G03X286700Y126970I-800J0D01*G01*
Y116170D02*G75*G03X288300Y116170I800J0D01*G01*
G75*G03X286700Y116170I-800J0D01*G01*
Y105370D02*G75*G03X288300Y105370I800J0D01*G01*
G75*G03X286700Y105370I-800J0D01*G01*
Y94570D02*G75*G03X288300Y94570I800J0D01*G01*
G75*G03X286700Y94570I-800J0D01*G01*
Y83770D02*G75*G03X288300Y83770I800J0D01*G01*
G75*G03X286700Y83770I-800J0D01*G01*
Y72970D02*G75*G03X288300Y72970I800J0D01*G01*
G75*G03X286700Y72970I-800J0D01*G01*
Y62170D02*G75*G03X288300Y62170I800J0D01*G01*
G75*G03X286700Y62170I-800J0D01*G01*
Y51370D02*G75*G03X288300Y51370I800J0D01*G01*
G75*G03X286700Y51370I-800J0D01*G01*
Y40570D02*G75*G03X288300Y40570I800J0D01*G01*
G75*G03X286700Y40570I-800J0D01*G01*
X275500Y229570D02*G75*G03X277100Y229570I800J0D01*G01*
G75*G03X275500Y229570I-800J0D01*G01*
Y218770D02*G75*G03X277100Y218770I800J0D01*G01*
G75*G03X275500Y218770I-800J0D01*G01*
Y207970D02*G75*G03X277100Y207970I800J0D01*G01*
G75*G03X275500Y207970I-800J0D01*G01*
Y197170D02*G75*G03X277100Y197170I800J0D01*G01*
G75*G03X275500Y197170I-800J0D01*G01*
Y186370D02*G75*G03X277100Y186370I800J0D01*G01*
G75*G03X275500Y186370I-800J0D01*G01*
Y175570D02*G75*G03X277100Y175570I800J0D01*G01*
G75*G03X275500Y175570I-800J0D01*G01*
Y164770D02*G75*G03X277100Y164770I800J0D01*G01*
G75*G03X275500Y164770I-800J0D01*G01*
Y153970D02*G75*G03X277100Y153970I800J0D01*G01*
G75*G03X275500Y153970I-800J0D01*G01*
Y143170D02*G75*G03X277100Y143170I800J0D01*G01*
G75*G03X275500Y143170I-800J0D01*G01*
Y132370D02*G75*G03X277100Y132370I800J0D01*G01*
G75*G03X275500Y132370I-800J0D01*G01*
Y121570D02*G75*G03X277100Y121570I800J0D01*G01*
G75*G03X275500Y121570I-800J0D01*G01*
Y110770D02*G75*G03X277100Y110770I800J0D01*G01*
G75*G03X275500Y110770I-800J0D01*G01*
Y99970D02*G75*G03X277100Y99970I800J0D01*G01*
G75*G03X275500Y99970I-800J0D01*G01*
Y89170D02*G75*G03X277100Y89170I800J0D01*G01*
G75*G03X275500Y89170I-800J0D01*G01*
Y78370D02*G75*G03X277100Y78370I800J0D01*G01*
G75*G03X275500Y78370I-800J0D01*G01*
Y67570D02*G75*G03X277100Y67570I800J0D01*G01*
G75*G03X275500Y67570I-800J0D01*G01*
Y56770D02*G75*G03X277100Y56770I800J0D01*G01*
G75*G03X275500Y56770I-800J0D01*G01*
Y45970D02*G75*G03X277100Y45970I800J0D01*G01*
G75*G03X275500Y45970I-800J0D01*G01*
X284100Y282570D02*G75*G03X285700Y282570I800J0D01*G01*
G75*G03X284100Y282570I-800J0D01*G01*
X225100Y275570D02*G75*G03X226700Y275570I800J0D01*G01*
G75*G03X225100Y275570I-800J0D01*G01*
X14200Y411250D02*G75*G03X15800Y411250I800J0D01*G01*
G75*G03X14200Y411250I-800J0D01*G01*
X135000Y413500D02*X136500Y410500D01*
X138000Y413500D01*
X136500Y410500D02*Y407500D01*
X139800Y410800D02*X142050D01*
X139800Y407500D02*X142800D01*
X139800Y413500D02*Y407500D01*
Y413500D02*X142800D01*
X147600D02*X148350Y412750D01*
X145350Y413500D02*X147600D01*
X144600Y412750D02*X145350Y413500D01*
X144600Y412750D02*Y411250D01*
X145350Y410500D01*
X147600D01*
X148350Y409750D01*
Y408250D01*
X147600Y407500D02*X148350Y408250D01*
X145350Y407500D02*X147600D01*
X144600Y408250D02*X145350Y407500D01*
X98750D02*X101750Y413500D01*
X98000D02*X101750D01*
X103550Y412750D02*X104300Y413500D01*
X105800D01*
X106550Y412750D01*
X105800Y407500D02*X106550Y408250D01*
X104300Y407500D02*X105800D01*
X103550Y408250D02*X104300Y407500D01*
Y410800D02*X105800D01*
X106550Y412750D02*Y411550D01*
Y410050D02*Y408250D01*
Y410050D02*X105800Y410800D01*
X106550Y411550D02*X105800Y410800D01*
X45000Y408250D02*X45750Y407500D01*
X45000Y412750D02*Y408250D01*
Y412750D02*X45750Y413500D01*
X47250D01*
X48000Y412750D01*
Y408250D01*
X47250Y407500D02*X48000Y408250D01*
X45750Y407500D02*X47250D01*
X45000Y409000D02*X48000Y412000D01*
X49800Y407500D02*X50550D01*
X52350Y408250D02*X53100Y407500D01*
X52350Y412750D02*Y408250D01*
Y412750D02*X53100Y413500D01*
X54600D01*
X55350Y412750D01*
Y408250D01*
X54600Y407500D02*X55350Y408250D01*
X53100Y407500D02*X54600D01*
X52350Y409000D02*X55350Y412000D01*
X57150Y412750D02*X57900Y413500D01*
X59400D01*
X60150Y412750D01*
X59400Y407500D02*X60150Y408250D01*
X57900Y407500D02*X59400D01*
X57150Y408250D02*X57900Y407500D01*
Y410800D02*X59400D01*
X60150Y412750D02*Y411550D01*
Y410050D02*Y408250D01*
Y410050D02*X59400Y410800D01*
X60150Y411550D02*X59400Y410800D01*
X61950Y413500D02*X64950D01*
X61950D02*Y410500D01*
X62700Y411250D01*
X64200D01*
X64950Y410500D01*
Y408250D01*
X64200Y407500D02*X64950Y408250D01*
X62700Y407500D02*X64200D01*
X61950Y408250D02*X62700Y407500D01*
X176800Y68200D02*X179200Y65800D01*
X176800D02*X179200Y68200D01*
X171800Y58200D02*X174200Y55800D01*
X171800D02*X174200Y58200D01*
X156800Y68200D02*X159200Y65800D01*
X156800D02*X159200Y68200D01*
X151800Y58200D02*X154200Y55800D01*
X151800D02*X154200Y58200D01*
X161800D02*X164200Y55800D01*
X161800D02*X164200Y58200D01*
X141800D02*X144200Y55800D01*
X141800D02*X144200Y58200D01*
X146800Y68200D02*X149200Y65800D01*
X146800D02*X149200Y68200D01*
X166800D02*X169200Y65800D01*
X166800D02*X169200Y68200D01*
X13800Y427450D02*X16200Y425050D01*
X13800D02*X16200Y427450D01*
X135000Y428500D02*X136500Y425500D01*
X138000Y428500D01*
X136500Y425500D02*Y422500D01*
X139800Y425800D02*X142050D01*
X139800Y422500D02*X142800D01*
X139800Y428500D02*Y422500D01*
Y428500D02*X142800D01*
X147600D02*X148350Y427750D01*
X145350Y428500D02*X147600D01*
X144600Y427750D02*X145350Y428500D01*
X144600Y427750D02*Y426250D01*
X145350Y425500D01*
X147600D01*
X148350Y424750D01*
Y423250D01*
X147600Y422500D02*X148350Y423250D01*
X145350Y422500D02*X147600D01*
X144600Y423250D02*X145350Y422500D01*
X98000Y423250D02*X98750Y422500D01*
X98000Y424450D02*Y423250D01*
Y424450D02*X99050Y425500D01*
X99950D01*
X101000Y424450D01*
Y423250D01*
X100250Y422500D02*X101000Y423250D01*
X98750Y422500D02*X100250D01*
X98000Y426550D02*X99050Y425500D01*
X98000Y427750D02*Y426550D01*
Y427750D02*X98750Y428500D01*
X100250D01*
X101000Y427750D01*
Y426550D01*
X99950Y425500D02*X101000Y426550D01*
X45000Y423250D02*X45750Y422500D01*
X45000Y427750D02*Y423250D01*
Y427750D02*X45750Y428500D01*
X47250D01*
X48000Y427750D01*
Y423250D01*
X47250Y422500D02*X48000Y423250D01*
X45750Y422500D02*X47250D01*
X45000Y424000D02*X48000Y427000D01*
X49800Y422500D02*X50550D01*
X52350Y423250D02*X53100Y422500D01*
X52350Y427750D02*Y423250D01*
Y427750D02*X53100Y428500D01*
X54600D01*
X55350Y427750D01*
Y423250D01*
X54600Y422500D02*X55350Y423250D01*
X53100Y422500D02*X54600D01*
X52350Y424000D02*X55350Y427000D01*
X57150Y427750D02*X57900Y428500D01*
X60150D01*
X60900Y427750D01*
Y426250D01*
X57150Y422500D02*X60900Y426250D01*
X57150Y422500D02*X60900D01*
X62700Y423250D02*X63450Y422500D01*
X62700Y424450D02*Y423250D01*
Y424450D02*X63750Y425500D01*
X64650D01*
X65700Y424450D01*
Y423250D01*
X64950Y422500D02*X65700Y423250D01*
X63450Y422500D02*X64950D01*
X62700Y426550D02*X63750Y425500D01*
X62700Y427750D02*Y426550D01*
Y427750D02*X63450Y428500D01*
X64950D01*
X65700Y427750D01*
Y426550D01*
X64650Y425500D02*X65700Y426550D01*
X89000Y99600D02*Y96400D01*
X87400Y98000D02*X90600D01*
X88000Y65600D02*Y62400D01*
X86400Y64000D02*X89600D01*
X78000Y131600D02*Y128400D01*
X76400Y130000D02*X79600D01*
X75000Y170600D02*Y167400D01*
X73400Y169000D02*X76600D01*
X79000Y147600D02*Y144400D01*
X77400Y146000D02*X80600D01*
X79000Y154600D02*Y151400D01*
X77400Y153000D02*X80600D01*
X432000Y130600D02*Y127400D01*
X430400Y129000D02*X433600D01*
X15000Y442850D02*Y439650D01*
X13400Y441250D02*X16600D01*
X135000Y443500D02*X136500Y440500D01*
X138000Y443500D01*
X136500Y440500D02*Y437500D01*
X139800Y440800D02*X142050D01*
X139800Y437500D02*X142800D01*
X139800Y443500D02*Y437500D01*
Y443500D02*X142800D01*
X147600D02*X148350Y442750D01*
X145350Y443500D02*X147600D01*
X144600Y442750D02*X145350Y443500D01*
X144600Y442750D02*Y441250D01*
X145350Y440500D01*
X147600D01*
X148350Y439750D01*
Y438250D01*
X147600Y437500D02*X148350Y438250D01*
X145350Y437500D02*X147600D01*
X144600Y438250D02*X145350Y437500D01*
X98750D02*X101750Y443500D01*
X98000D02*X101750D01*
X45000Y438250D02*X45750Y437500D01*
X45000Y442750D02*Y438250D01*
Y442750D02*X45750Y443500D01*
X47250D01*
X48000Y442750D01*
Y438250D01*
X47250Y437500D02*X48000Y438250D01*
X45750Y437500D02*X47250D01*
X45000Y439000D02*X48000Y442000D01*
X49800Y437500D02*X50550D01*
X52350Y438250D02*X53100Y437500D01*
X52350Y442750D02*Y438250D01*
Y442750D02*X53100Y443500D01*
X54600D01*
X55350Y442750D01*
Y438250D01*
X54600Y437500D02*X55350Y438250D01*
X53100Y437500D02*X54600D01*
X52350Y439000D02*X55350Y442000D01*
X57150Y442750D02*X57900Y443500D01*
X60150D01*
X60900Y442750D01*
Y441250D01*
X57150Y437500D02*X60900Y441250D01*
X57150Y437500D02*X60900D01*
X62700Y438250D02*X63450Y437500D01*
X62700Y442750D02*Y438250D01*
Y442750D02*X63450Y443500D01*
X64950D01*
X65700Y442750D01*
Y438250D01*
X64950Y437500D02*X65700Y438250D01*
X63450Y437500D02*X64950D01*
X62700Y439000D02*X65700Y442000D01*
X424400Y216144D02*Y214544D01*
Y216144D02*X425787Y216944D01*
X424400Y216144D02*X423013Y216944D01*
X424400Y235829D02*Y234229D01*
Y235829D02*X425787Y236629D01*
X424400Y235829D02*X423013Y236629D01*
X424400Y255515D02*Y253915D01*
Y255515D02*X425787Y256315D01*
X424400Y255515D02*X423013Y256315D01*
X424400Y275200D02*Y273600D01*
Y275200D02*X425787Y276000D01*
X424400Y275200D02*X423013Y276000D01*
X424400Y294885D02*Y293285D01*
Y294885D02*X425787Y295685D01*
X424400Y294885D02*X423013Y295685D01*
X424400Y314570D02*Y312970D01*
Y314570D02*X425787Y315370D01*
X424400Y314570D02*X423013Y315370D01*
X216000Y158000D02*Y156400D01*
Y158000D02*X217387Y158800D01*
X216000Y158000D02*X214613Y158800D01*
X196000Y158000D02*Y156400D01*
Y158000D02*X197387Y158800D01*
X196000Y158000D02*X194613Y158800D01*
X217900Y241570D02*Y239970D01*
Y241570D02*X219287Y242370D01*
X217900Y241570D02*X216513Y242370D01*
X197900Y241570D02*Y239970D01*
Y241570D02*X199287Y242370D01*
X197900Y241570D02*X196513Y242370D01*
X15000Y456250D02*Y454650D01*
Y456250D02*X16387Y457050D01*
X15000Y456250D02*X13613Y457050D01*
X135000Y458500D02*X136500Y455500D01*
X138000Y458500D01*
X136500Y455500D02*Y452500D01*
X139800Y455800D02*X142050D01*
X139800Y452500D02*X142800D01*
X139800Y458500D02*Y452500D01*
Y458500D02*X142800D01*
X147600D02*X148350Y457750D01*
X145350Y458500D02*X147600D01*
X144600Y457750D02*X145350Y458500D01*
X144600Y457750D02*Y456250D01*
X145350Y455500D01*
X147600D01*
X148350Y454750D01*
Y453250D01*
X147600Y452500D02*X148350Y453250D01*
X145350Y452500D02*X147600D01*
X144600Y453250D02*X145350Y452500D01*
X98000Y457300D02*X99200Y458500D01*
Y452500D01*
X98000D02*X100250D01*
X102050Y453250D02*X102800Y452500D01*
X102050Y457750D02*Y453250D01*
Y457750D02*X102800Y458500D01*
X104300D01*
X105050Y457750D01*
Y453250D01*
X104300Y452500D02*X105050Y453250D01*
X102800Y452500D02*X104300D01*
X102050Y454000D02*X105050Y457000D01*
X45000Y453250D02*X45750Y452500D01*
X45000Y457750D02*Y453250D01*
Y457750D02*X45750Y458500D01*
X47250D01*
X48000Y457750D01*
Y453250D01*
X47250Y452500D02*X48000Y453250D01*
X45750Y452500D02*X47250D01*
X45000Y454000D02*X48000Y457000D01*
X49800Y452500D02*X50550D01*
X52350Y453250D02*X53100Y452500D01*
X52350Y457750D02*Y453250D01*
Y457750D02*X53100Y458500D01*
X54600D01*
X55350Y457750D01*
Y453250D01*
X54600Y452500D02*X55350Y453250D01*
X53100Y452500D02*X54600D01*
X52350Y454000D02*X55350Y457000D01*
X57150Y457300D02*X58350Y458500D01*
Y452500D01*
X57150D02*X59400D01*
X61200Y458500D02*X64200D01*
X61200D02*Y455500D01*
X61950Y456250D01*
X63450D01*
X64200Y455500D01*
Y453250D01*
X63450Y452500D02*X64200Y453250D01*
X61950Y452500D02*X63450D01*
X61200Y453250D02*X61950Y452500D01*
X3000Y473500D02*X3750Y472750D01*
X750Y473500D02*X3000D01*
X0Y472750D02*X750Y473500D01*
X0Y472750D02*Y471250D01*
X750Y470500D01*
X3000D01*
X3750Y469750D01*
Y468250D01*
X3000Y467500D02*X3750Y468250D01*
X750Y467500D02*X3000D01*
X0Y468250D02*X750Y467500D01*
X5550Y470500D02*Y468250D01*
X6300Y467500D01*
X8550Y470500D02*Y466000D01*
X7800Y465250D02*X8550Y466000D01*
X6300Y465250D02*X7800D01*
X5550Y466000D02*X6300Y465250D01*
Y467500D02*X7800D01*
X8550Y468250D01*
X11100Y469750D02*Y467500D01*
Y469750D02*X11850Y470500D01*
X12600D01*
X13350Y469750D01*
Y467500D01*
Y469750D02*X14100Y470500D01*
X14850D01*
X15600Y469750D01*
Y467500D01*
X10350Y470500D02*X11100Y469750D01*
X17400Y473500D02*Y467500D01*
Y468250D02*X18150Y467500D01*
X19650D01*
X20400Y468250D01*
Y469750D02*Y468250D01*
X19650Y470500D02*X20400Y469750D01*
X18150Y470500D02*X19650D01*
X17400Y469750D02*X18150Y470500D01*
X22200Y469750D02*Y468250D01*
Y469750D02*X22950Y470500D01*
X24450D01*
X25200Y469750D01*
Y468250D01*
X24450Y467500D02*X25200Y468250D01*
X22950Y467500D02*X24450D01*
X22200Y468250D02*X22950Y467500D01*
X27000Y473500D02*Y468250D01*
X27750Y467500D01*
X0Y464250D02*X29250D01*
X41750Y473500D02*Y467500D01*
X43700Y473500D02*X44750Y472450D01*
Y468550D01*
X43700Y467500D02*X44750Y468550D01*
X41000Y467500D02*X43700D01*
X41000Y473500D02*X43700D01*
G54D86*X46550Y472000D02*Y471850D01*
G54D85*Y469750D02*Y467500D01*
X50300Y470500D02*X51050Y469750D01*
X48800Y470500D02*X50300D01*
X48050Y469750D02*X48800Y470500D01*
X48050Y469750D02*Y468250D01*
X48800Y467500D01*
X51050Y470500D02*Y468250D01*
X51800Y467500D01*
X48800D02*X50300D01*
X51050Y468250D01*
X54350Y469750D02*Y467500D01*
Y469750D02*X55100Y470500D01*
X55850D01*
X56600Y469750D01*
Y467500D01*
Y469750D02*X57350Y470500D01*
X58100D01*
X58850Y469750D01*
Y467500D01*
X53600Y470500D02*X54350Y469750D01*
X60650Y467500D02*X61400D01*
X65900Y468250D02*X66650Y467500D01*
X65900Y472750D02*X66650Y473500D01*
X65900Y472750D02*Y468250D01*
X68450Y473500D02*X69950D01*
X69200D02*Y467500D01*
X68450D02*X69950D01*
X72500Y469750D02*Y467500D01*
Y469750D02*X73250Y470500D01*
X74000D01*
X74750Y469750D01*
Y467500D01*
X71750Y470500D02*X72500Y469750D01*
X77300Y470500D02*X79550D01*
X76550Y469750D02*X77300Y470500D01*
X76550Y469750D02*Y468250D01*
X77300Y467500D01*
X79550D01*
X81350Y473500D02*Y467500D01*
Y469750D02*X82100Y470500D01*
X83600D01*
X84350Y469750D01*
Y467500D01*
X86150Y473500D02*X86900Y472750D01*
Y468250D01*
X86150Y467500D02*X86900Y468250D01*
X41000Y464250D02*X88700D01*
X96050Y467500D02*X98000D01*
X95000Y468550D02*X96050Y467500D01*
X95000Y472450D02*Y468550D01*
Y472450D02*X96050Y473500D01*
X98000D01*
X99800Y469750D02*Y468250D01*
Y469750D02*X100550Y470500D01*
X102050D01*
X102800Y469750D01*
Y468250D01*
X102050Y467500D02*X102800Y468250D01*
X100550Y467500D02*X102050D01*
X99800Y468250D02*X100550Y467500D01*
X104600Y470500D02*Y468250D01*
X105350Y467500D01*
X106850D01*
X107600Y468250D01*
Y470500D02*Y468250D01*
X110150Y469750D02*Y467500D01*
Y469750D02*X110900Y470500D01*
X111650D01*
X112400Y469750D01*
Y467500D01*
X109400Y470500D02*X110150Y469750D01*
X114950Y473500D02*Y468250D01*
X115700Y467500D01*
X114200Y471250D02*X115700D01*
X95000Y464250D02*X117200D01*
X130750Y473500D02*Y467500D01*
X130000Y473500D02*X133000D01*
X133750Y472750D01*
Y471250D01*
X133000Y470500D02*X133750Y471250D01*
X130750Y470500D02*X133000D01*
X135550Y473500D02*Y468250D01*
X136300Y467500D01*
X140050Y470500D02*X140800Y469750D01*
X138550Y470500D02*X140050D01*
X137800Y469750D02*X138550Y470500D01*
X137800Y469750D02*Y468250D01*
X138550Y467500D01*
X140800Y470500D02*Y468250D01*
X141550Y467500D01*
X138550D02*X140050D01*
X140800Y468250D01*
X144100Y473500D02*Y468250D01*
X144850Y467500D01*
X143350Y471250D02*X144850D01*
X147100Y467500D02*X149350D01*
X146350Y468250D02*X147100Y467500D01*
X146350Y469750D02*Y468250D01*
Y469750D02*X147100Y470500D01*
X148600D01*
X149350Y469750D01*
X146350Y469000D02*X149350D01*
Y469750D02*Y469000D01*
X154150Y473500D02*Y467500D01*
X153400D02*X154150Y468250D01*
X151900Y467500D02*X153400D01*
X151150Y468250D02*X151900Y467500D01*
X151150Y469750D02*Y468250D01*
Y469750D02*X151900Y470500D01*
X153400D01*
X154150Y469750D01*
X157450Y470500D02*Y469750D01*
Y468250D02*Y467500D01*
X155950Y472750D02*Y472000D01*
Y472750D02*X156700Y473500D01*
X158200D01*
X158950Y472750D01*
Y472000D01*
X157450Y470500D02*X158950Y472000D01*
X130000Y464250D02*X160750D01*
X0Y488500D02*X3000D01*
X1500D02*Y482500D01*
X4800Y488500D02*Y482500D01*
Y484750D02*X5550Y485500D01*
X7050D01*
X7800Y484750D01*
Y482500D01*
X10350D02*X12600D01*
X9600Y483250D02*X10350Y482500D01*
X9600Y484750D02*Y483250D01*
Y484750D02*X10350Y485500D01*
X11850D01*
X12600Y484750D01*
X9600Y484000D02*X12600D01*
Y484750D02*Y484000D01*
X15150Y484750D02*Y482500D01*
Y484750D02*X15900Y485500D01*
X17400D01*
X14400D02*X15150Y484750D01*
X19950Y482500D02*X22200D01*
X19200Y483250D02*X19950Y482500D01*
X19200Y484750D02*Y483250D01*
Y484750D02*X19950Y485500D01*
X21450D01*
X22200Y484750D01*
X19200Y484000D02*X22200D01*
Y484750D02*Y484000D01*
X28950Y485500D02*X29700Y484750D01*
X27450Y485500D02*X28950D01*
X26700Y484750D02*X27450Y485500D01*
X26700Y484750D02*Y483250D01*
X27450Y482500D01*
X29700Y485500D02*Y483250D01*
X30450Y482500D01*
X27450D02*X28950D01*
X29700Y483250D01*
X33000Y484750D02*Y482500D01*
Y484750D02*X33750Y485500D01*
X35250D01*
X32250D02*X33000Y484750D01*
X37800Y482500D02*X40050D01*
X37050Y483250D02*X37800Y482500D01*
X37050Y484750D02*Y483250D01*
Y484750D02*X37800Y485500D01*
X39300D01*
X40050Y484750D01*
X37050Y484000D02*X40050D01*
Y484750D02*Y484000D01*
X45300Y482500D02*X47550Y485500D01*
Y487750D02*Y485500D01*
X46800Y488500D02*X47550Y487750D01*
X45300Y488500D02*X46800D01*
X44550Y487750D02*X45300Y488500D01*
X44550Y487750D02*Y486250D01*
X45300Y485500D01*
X47550D01*
X55050Y488500D02*Y482500D01*
X54300D02*X55050Y483250D01*
X52800Y482500D02*X54300D01*
X52050Y483250D02*X52800Y482500D01*
X52050Y484750D02*Y483250D01*
Y484750D02*X52800Y485500D01*
X54300D01*
X55050Y484750D01*
G54D86*X56850Y487000D02*Y486850D01*
G54D85*Y484750D02*Y482500D01*
X59100Y487750D02*Y482500D01*
Y487750D02*X59850Y488500D01*
X60600D01*
X58350Y485500D02*X59850D01*
X62850Y487750D02*Y482500D01*
Y487750D02*X63600Y488500D01*
X64350D01*
X62100Y485500D02*X63600D01*
X66600Y482500D02*X68850D01*
X65850Y483250D02*X66600Y482500D01*
X65850Y484750D02*Y483250D01*
Y484750D02*X66600Y485500D01*
X68100D01*
X68850Y484750D01*
X65850Y484000D02*X68850D01*
Y484750D02*Y484000D01*
X71400Y484750D02*Y482500D01*
Y484750D02*X72150Y485500D01*
X73650D01*
X70650D02*X71400Y484750D01*
X76200Y482500D02*X78450D01*
X75450Y483250D02*X76200Y482500D01*
X75450Y484750D02*Y483250D01*
Y484750D02*X76200Y485500D01*
X77700D01*
X78450Y484750D01*
X75450Y484000D02*X78450D01*
Y484750D02*Y484000D01*
X81000Y484750D02*Y482500D01*
Y484750D02*X81750Y485500D01*
X82500D01*
X83250Y484750D01*
Y482500D01*
X80250Y485500D02*X81000Y484750D01*
X85800Y488500D02*Y483250D01*
X86550Y482500D01*
X85050Y486250D02*X86550D01*
X93750Y488500D02*Y482500D01*
X93000D02*X93750Y483250D01*
X91500Y482500D02*X93000D01*
X90750Y483250D02*X91500Y482500D01*
X90750Y484750D02*Y483250D01*
Y484750D02*X91500Y485500D01*
X93000D01*
X93750Y484750D01*
X96300D02*Y482500D01*
Y484750D02*X97050Y485500D01*
X98550D01*
X95550D02*X96300Y484750D01*
G54D86*X100350Y487000D02*Y486850D01*
G54D85*Y484750D02*Y482500D01*
X101850Y488500D02*Y483250D01*
X102600Y482500D01*
X104100Y488500D02*Y483250D01*
X104850Y482500D01*
X109800D02*X112050D01*
X112800Y483250D01*
X112050Y484000D02*X112800Y483250D01*
X109800Y484000D02*X112050D01*
X109050Y484750D02*X109800Y484000D01*
X109050Y484750D02*X109800Y485500D01*
X112050D01*
X112800Y484750D01*
X109050Y483250D02*X109800Y482500D01*
G54D86*X114600Y487000D02*Y486850D01*
G54D85*Y484750D02*Y482500D01*
X116100Y485500D02*X119100D01*
X116100Y482500D02*X119100Y485500D01*
X116100Y482500D02*X119100D01*
X121650D02*X123900D01*
X120900Y483250D02*X121650Y482500D01*
X120900Y484750D02*Y483250D01*
Y484750D02*X121650Y485500D01*
X123150D01*
X123900Y484750D01*
X120900Y484000D02*X123900D01*
Y484750D02*Y484000D01*
X126450Y482500D02*X128700D01*
X129450Y483250D01*
X128700Y484000D02*X129450Y483250D01*
X126450Y484000D02*X128700D01*
X125700Y484750D02*X126450Y484000D01*
X125700Y484750D02*X126450Y485500D01*
X128700D01*
X129450Y484750D01*
X125700Y483250D02*X126450Y482500D01*
X133950Y485500D02*Y483250D01*
X134700Y482500D01*
X136200D01*
X136950Y483250D01*
Y485500D02*Y483250D01*
X139500Y482500D02*X141750D01*
X142500Y483250D01*
X141750Y484000D02*X142500Y483250D01*
X139500Y484000D02*X141750D01*
X138750Y484750D02*X139500Y484000D01*
X138750Y484750D02*X139500Y485500D01*
X141750D01*
X142500Y484750D01*
X138750Y483250D02*X139500Y482500D01*
X145050D02*X147300D01*
X144300Y483250D02*X145050Y482500D01*
X144300Y484750D02*Y483250D01*
Y484750D02*X145050Y485500D01*
X146550D01*
X147300Y484750D01*
X144300Y484000D02*X147300D01*
Y484750D02*Y484000D01*
X152100Y488500D02*Y482500D01*
X151350D02*X152100Y483250D01*
X149850Y482500D02*X151350D01*
X149100Y483250D02*X149850Y482500D01*
X149100Y484750D02*Y483250D01*
Y484750D02*X149850Y485500D01*
X151350D01*
X152100Y484750D01*
G54D86*X156600Y487000D02*Y486850D01*
G54D85*Y484750D02*Y482500D01*
X158850Y484750D02*Y482500D01*
Y484750D02*X159600Y485500D01*
X160350D01*
X161100Y484750D01*
Y482500D01*
X158100Y485500D02*X158850Y484750D01*
X166350Y488500D02*Y483250D01*
X167100Y482500D01*
X165600Y486250D02*X167100D01*
X168600Y488500D02*Y482500D01*
Y484750D02*X169350Y485500D01*
X170850D01*
X171600Y484750D01*
Y482500D01*
G54D86*X173400Y487000D02*Y486850D01*
G54D85*Y484750D02*Y482500D01*
X175650D02*X177900D01*
X178650Y483250D01*
X177900Y484000D02*X178650Y483250D01*
X175650Y484000D02*X177900D01*
X174900Y484750D02*X175650Y484000D01*
X174900Y484750D02*X175650Y485500D01*
X177900D01*
X178650Y484750D01*
X174900Y483250D02*X175650Y482500D01*
X183150Y488500D02*Y483250D01*
X183900Y482500D01*
X187650Y485500D02*X188400Y484750D01*
X186150Y485500D02*X187650D01*
X185400Y484750D02*X186150Y485500D01*
X185400Y484750D02*Y483250D01*
X186150Y482500D01*
X188400Y485500D02*Y483250D01*
X189150Y482500D01*
X186150D02*X187650D01*
X188400Y483250D01*
X190950Y485500D02*Y483250D01*
X191700Y482500D01*
X193950Y485500D02*Y481000D01*
X193200Y480250D02*X193950Y481000D01*
X191700Y480250D02*X193200D01*
X190950Y481000D02*X191700Y480250D01*
Y482500D02*X193200D01*
X193950Y483250D01*
X195750Y484750D02*Y483250D01*
Y484750D02*X196500Y485500D01*
X198000D01*
X198750Y484750D01*
Y483250D01*
X198000Y482500D02*X198750Y483250D01*
X196500Y482500D02*X198000D01*
X195750Y483250D02*X196500Y482500D01*
X200550Y485500D02*Y483250D01*
X201300Y482500D01*
X202800D01*
X203550Y483250D01*
Y485500D02*Y483250D01*
X206100Y488500D02*Y483250D01*
X206850Y482500D01*
X205350Y486250D02*X206850D01*
X208350Y481000D02*X209850Y482500D01*
X214350Y487300D02*X215550Y488500D01*
Y482500D01*
X214350D02*X216600D01*
X218400Y484750D02*X221400Y488500D01*
X218400Y484750D02*X222150D01*
X221400Y488500D02*Y482500D01*
X223950Y487750D02*X224700Y488500D01*
X226950D01*
X227700Y487750D01*
Y486250D01*
X223950Y482500D02*X227700Y486250D01*
X223950Y482500D02*X227700D01*
X232200Y488500D02*Y482500D01*
Y484750D02*X232950Y485500D01*
X234450D01*
X235200Y484750D01*
Y482500D01*
X237000Y484750D02*Y483250D01*
Y484750D02*X237750Y485500D01*
X239250D01*
X240000Y484750D01*
Y483250D01*
X239250Y482500D02*X240000Y483250D01*
X237750Y482500D02*X239250D01*
X237000Y483250D02*X237750Y482500D01*
X241800Y488500D02*Y483250D01*
X242550Y482500D01*
X244800D02*X247050D01*
X244050Y483250D02*X244800Y482500D01*
X244050Y484750D02*Y483250D01*
Y484750D02*X244800Y485500D01*
X246300D01*
X247050Y484750D01*
X244050Y484000D02*X247050D01*
Y484750D02*Y484000D01*
X249600Y482500D02*X251850D01*
X252600Y483250D01*
X251850Y484000D02*X252600Y483250D01*
X249600Y484000D02*X251850D01*
X248850Y484750D02*X249600Y484000D01*
X248850Y484750D02*X249600Y485500D01*
X251850D01*
X252600Y484750D01*
X248850Y483250D02*X249600Y482500D01*
X257850Y488500D02*Y483250D01*
X258600Y482500D01*
X257100Y486250D02*X258600D01*
X260100Y484750D02*Y483250D01*
Y484750D02*X260850Y485500D01*
X262350D01*
X263100Y484750D01*
Y483250D01*
X262350Y482500D02*X263100Y483250D01*
X260850Y482500D02*X262350D01*
X260100Y483250D02*X260850Y482500D01*
X265650Y488500D02*Y483250D01*
X266400Y482500D01*
X264900Y486250D02*X266400D01*
X270150Y485500D02*X270900Y484750D01*
X268650Y485500D02*X270150D01*
X267900Y484750D02*X268650Y485500D01*
X267900Y484750D02*Y483250D01*
X268650Y482500D01*
X270900Y485500D02*Y483250D01*
X271650Y482500D01*
X268650D02*X270150D01*
X270900Y483250D01*
X273450Y488500D02*Y483250D01*
X274200Y482500D01*
G54D87*X0Y325000D02*X450000D01*
X0D02*Y0D01*
X450000Y325000D02*Y0D01*
X0D02*X450000D01*
G54D85*X200000Y338500D02*Y332500D01*
Y338500D02*X202250Y335500D01*
X204500Y338500D01*
Y332500D01*
X208550Y335500D02*X209300Y334750D01*
X207050Y335500D02*X208550D01*
X206300Y334750D02*X207050Y335500D01*
X206300Y334750D02*Y333250D01*
X207050Y332500D01*
X209300Y335500D02*Y333250D01*
X210050Y332500D01*
X207050D02*X208550D01*
X209300Y333250D01*
X211850Y335500D02*X214850Y332500D01*
X211850D02*X214850Y335500D01*
G54D86*X216650Y337000D02*Y336850D01*
G54D85*Y334750D02*Y332500D01*
X218900Y334750D02*Y332500D01*
Y334750D02*X219650Y335500D01*
X220400D01*
X221150Y334750D01*
Y332500D01*
Y334750D02*X221900Y335500D01*
X222650D01*
X223400Y334750D01*
Y332500D01*
X218150Y335500D02*X218900Y334750D01*
X225200Y335500D02*Y333250D01*
X225950Y332500D01*
X227450D01*
X228200Y333250D01*
Y335500D02*Y333250D01*
X230750Y334750D02*Y332500D01*
Y334750D02*X231500Y335500D01*
X232250D01*
X233000Y334750D01*
Y332500D01*
Y334750D02*X233750Y335500D01*
X234500D01*
X235250Y334750D01*
Y332500D01*
X230000Y335500D02*X230750Y334750D01*
X240500Y338500D02*Y332500D01*
X242450Y338500D02*X243500Y337450D01*
Y333550D01*
X242450Y332500D02*X243500Y333550D01*
X239750Y332500D02*X242450D01*
X239750Y338500D02*X242450D01*
G54D86*X245300Y337000D02*Y336850D01*
G54D85*Y334750D02*Y332500D01*
X247550Y334750D02*Y332500D01*
Y334750D02*X248300Y335500D01*
X249050D01*
X249800Y334750D01*
Y332500D01*
Y334750D02*X250550Y335500D01*
X251300D01*
X252050Y334750D01*
Y332500D01*
X246800Y335500D02*X247550Y334750D01*
X254600Y332500D02*X256850D01*
X253850Y333250D02*X254600Y332500D01*
X253850Y334750D02*Y333250D01*
Y334750D02*X254600Y335500D01*
X256100D01*
X256850Y334750D01*
X253850Y334000D02*X256850D01*
Y334750D02*Y334000D01*
X259400Y334750D02*Y332500D01*
Y334750D02*X260150Y335500D01*
X260900D01*
X261650Y334750D01*
Y332500D01*
X258650Y335500D02*X259400Y334750D01*
X264200Y332500D02*X266450D01*
X267200Y333250D01*
X266450Y334000D02*X267200Y333250D01*
X264200Y334000D02*X266450D01*
X263450Y334750D02*X264200Y334000D01*
X263450Y334750D02*X264200Y335500D01*
X266450D01*
X267200Y334750D01*
X263450Y333250D02*X264200Y332500D01*
G54D86*X269000Y337000D02*Y336850D01*
G54D85*Y334750D02*Y332500D01*
X270500Y334750D02*Y333250D01*
Y334750D02*X271250Y335500D01*
X272750D01*
X273500Y334750D01*
Y333250D01*
X272750Y332500D02*X273500Y333250D01*
X271250Y332500D02*X272750D01*
X270500Y333250D02*X271250Y332500D01*
X276050Y334750D02*Y332500D01*
Y334750D02*X276800Y335500D01*
X277550D01*
X278300Y334750D01*
Y332500D01*
X275300Y335500D02*X276050Y334750D01*
X280850Y332500D02*X283100D01*
X283850Y333250D01*
X283100Y334000D02*X283850Y333250D01*
X280850Y334000D02*X283100D01*
X280100Y334750D02*X280850Y334000D01*
X280100Y334750D02*X280850Y335500D01*
X283100D01*
X283850Y334750D01*
X280100Y333250D02*X280850Y332500D01*
X285650Y336250D02*X286400D01*
X285650Y334750D02*X286400D01*
X290900D02*X293900Y338500D01*
X290900Y334750D02*X294650D01*
X293900Y338500D02*Y332500D01*
X296450Y338500D02*X299450D01*
X296450D02*Y335500D01*
X297200Y336250D01*
X298700D01*
X299450Y335500D01*
Y333250D01*
X298700Y332500D02*X299450Y333250D01*
X297200Y332500D02*X298700D01*
X296450Y333250D02*X297200Y332500D01*
X301250Y333250D02*X302000Y332500D01*
X301250Y337750D02*Y333250D01*
Y337750D02*X302000Y338500D01*
X303500D01*
X304250Y337750D01*
Y333250D01*
X303500Y332500D02*X304250Y333250D01*
X302000Y332500D02*X303500D01*
X301250Y334000D02*X304250Y337000D01*
X306050Y333250D02*X306800Y332500D01*
X306050Y337750D02*Y333250D01*
Y337750D02*X306800Y338500D01*
X308300D01*
X309050Y337750D01*
Y333250D01*
X308300Y332500D02*X309050Y333250D01*
X306800Y332500D02*X308300D01*
X306050Y334000D02*X309050Y337000D01*
X310850Y332500D02*X311600D01*
X313400Y333250D02*X314150Y332500D01*
X313400Y337750D02*Y333250D01*
Y337750D02*X314150Y338500D01*
X315650D01*
X316400Y337750D01*
Y333250D01*
X315650Y332500D02*X316400Y333250D01*
X314150Y332500D02*X315650D01*
X313400Y334000D02*X316400Y337000D01*
X318200Y333250D02*X318950Y332500D01*
X318200Y337750D02*Y333250D01*
Y337750D02*X318950Y338500D01*
X320450D01*
X321200Y337750D01*
Y333250D01*
X320450Y332500D02*X321200Y333250D01*
X318950Y332500D02*X320450D01*
X318200Y334000D02*X321200Y337000D01*
X323000Y333250D02*X323750Y332500D01*
X323000Y337750D02*Y333250D01*
Y337750D02*X323750Y338500D01*
X325250D01*
X326000Y337750D01*
Y333250D01*
X325250Y332500D02*X326000Y333250D01*
X323750Y332500D02*X325250D01*
X323000Y334000D02*X326000Y337000D01*
X327800Y333250D02*X328550Y332500D01*
X327800Y337750D02*Y333250D01*
Y337750D02*X328550Y338500D01*
X330050D01*
X330800Y337750D01*
Y333250D01*
X330050Y332500D02*X330800Y333250D01*
X328550Y332500D02*X330050D01*
X327800Y334000D02*X330800Y337000D01*
X332600Y333250D02*X333350Y332500D01*
X332600Y337750D02*Y333250D01*
Y337750D02*X333350Y338500D01*
X334850D01*
X335600Y337750D01*
Y333250D01*
X334850Y332500D02*X335600Y333250D01*
X333350Y332500D02*X334850D01*
X332600Y334000D02*X335600Y337000D01*
X337400Y333250D02*X338150Y332500D01*
X337400Y337750D02*Y333250D01*
Y337750D02*X338150Y338500D01*
X339650D01*
X340400Y337750D01*
Y333250D01*
X339650Y332500D02*X340400Y333250D01*
X338150Y332500D02*X339650D01*
X337400Y334000D02*X340400Y337000D01*
X345650Y334750D02*Y332500D01*
Y334750D02*X346400Y335500D01*
X347150D01*
X347900Y334750D01*
Y332500D01*
Y334750D02*X348650Y335500D01*
X349400D01*
X350150Y334750D01*
Y332500D01*
X344900Y335500D02*X345650Y334750D01*
G54D86*X351950Y337000D02*Y336850D01*
G54D85*Y334750D02*Y332500D01*
X353450Y338500D02*Y333250D01*
X354200Y332500D01*
X356450D02*X358700D01*
X359450Y333250D01*
X358700Y334000D02*X359450Y333250D01*
X356450Y334000D02*X358700D01*
X355700Y334750D02*X356450Y334000D01*
X355700Y334750D02*X356450Y335500D01*
X358700D01*
X359450Y334750D01*
X355700Y333250D02*X356450Y332500D01*
X363950Y335500D02*Y333250D01*
X364700Y332500D01*
X365450D01*
X366200Y333250D01*
Y335500D02*Y333250D01*
X366950Y332500D01*
X367700D01*
X368450Y333250D01*
Y335500D02*Y333250D01*
G54D86*X370250Y337000D02*Y336850D01*
G54D85*Y334750D02*Y332500D01*
X374750Y338500D02*Y332500D01*
X374000D02*X374750Y333250D01*
X372500Y332500D02*X374000D01*
X371750Y333250D02*X372500Y332500D01*
X371750Y334750D02*Y333250D01*
Y334750D02*X372500Y335500D01*
X374000D01*
X374750Y334750D01*
X377300Y332500D02*X379550D01*
X376550Y333250D02*X377300Y332500D01*
X376550Y334750D02*Y333250D01*
Y334750D02*X377300Y335500D01*
X378800D01*
X379550Y334750D01*
X376550Y334000D02*X379550D01*
Y334750D02*Y334000D01*
X381350Y331000D02*X382850Y332500D01*
X387350Y337750D02*X388100Y338500D01*
X389600D01*
X390350Y337750D01*
X389600Y332500D02*X390350Y333250D01*
X388100Y332500D02*X389600D01*
X387350Y333250D02*X388100Y332500D01*
Y335800D02*X389600D01*
X390350Y337750D02*Y336550D01*
Y335050D02*Y333250D01*
Y335050D02*X389600Y335800D01*
X390350Y336550D02*X389600Y335800D01*
X392150Y337750D02*X392900Y338500D01*
X395150D01*
X395900Y337750D01*
Y336250D01*
X392150Y332500D02*X395900Y336250D01*
X392150Y332500D02*X395900D01*
X397700Y338500D02*X400700D01*
X397700D02*Y335500D01*
X398450Y336250D01*
X399950D01*
X400700Y335500D01*
Y333250D01*
X399950Y332500D02*X400700Y333250D01*
X398450Y332500D02*X399950D01*
X397700Y333250D02*X398450Y332500D01*
X402500Y333250D02*X403250Y332500D01*
X402500Y337750D02*Y333250D01*
Y337750D02*X403250Y338500D01*
X404750D01*
X405500Y337750D01*
Y333250D01*
X404750Y332500D02*X405500Y333250D01*
X403250Y332500D02*X404750D01*
X402500Y334000D02*X405500Y337000D01*
X407300Y332500D02*X408050D01*
X409850Y333250D02*X410600Y332500D01*
X409850Y337750D02*Y333250D01*
Y337750D02*X410600Y338500D01*
X412100D01*
X412850Y337750D01*
Y333250D01*
X412100Y332500D02*X412850Y333250D01*
X410600Y332500D02*X412100D01*
X409850Y334000D02*X412850Y337000D01*
X414650Y333250D02*X415400Y332500D01*
X414650Y337750D02*Y333250D01*
Y337750D02*X415400Y338500D01*
X416900D01*
X417650Y337750D01*
Y333250D01*
X416900Y332500D02*X417650Y333250D01*
X415400Y332500D02*X416900D01*
X414650Y334000D02*X417650Y337000D01*
X419450Y333250D02*X420200Y332500D01*
X419450Y337750D02*Y333250D01*
Y337750D02*X420200Y338500D01*
X421700D01*
X422450Y337750D01*
Y333250D01*
X421700Y332500D02*X422450Y333250D01*
X420200Y332500D02*X421700D01*
X419450Y334000D02*X422450Y337000D01*
X424250Y333250D02*X425000Y332500D01*
X424250Y337750D02*Y333250D01*
Y337750D02*X425000Y338500D01*
X426500D01*
X427250Y337750D01*
Y333250D01*
X426500Y332500D02*X427250Y333250D01*
X425000Y332500D02*X426500D01*
X424250Y334000D02*X427250Y337000D01*
X429050Y333250D02*X429800Y332500D01*
X429050Y337750D02*Y333250D01*
Y337750D02*X429800Y338500D01*
X431300D01*
X432050Y337750D01*
Y333250D01*
X431300Y332500D02*X432050Y333250D01*
X429800Y332500D02*X431300D01*
X429050Y334000D02*X432050Y337000D01*
X433850Y333250D02*X434600Y332500D01*
X433850Y337750D02*Y333250D01*
Y337750D02*X434600Y338500D01*
X436100D01*
X436850Y337750D01*
Y333250D01*
X436100Y332500D02*X436850Y333250D01*
X434600Y332500D02*X436100D01*
X433850Y334000D02*X436850Y337000D01*
X442100Y334750D02*Y332500D01*
Y334750D02*X442850Y335500D01*
X443600D01*
X444350Y334750D01*
Y332500D01*
Y334750D02*X445100Y335500D01*
X445850D01*
X446600Y334750D01*
Y332500D01*
X441350Y335500D02*X442100Y334750D01*
G54D86*X448400Y337000D02*Y336850D01*
G54D85*Y334750D02*Y332500D01*
X449900Y338500D02*Y333250D01*
X450650Y332500D01*
X452900D02*X455150D01*
X455900Y333250D01*
X455150Y334000D02*X455900Y333250D01*
X452900Y334000D02*X455150D01*
X452150Y334750D02*X452900Y334000D01*
X452150Y334750D02*X452900Y335500D01*
X455150D01*
X455900Y334750D01*
X452150Y333250D02*X452900Y332500D01*
X460400Y338500D02*Y332500D01*
Y334750D02*X461150Y335500D01*
X462650D01*
X463400Y334750D01*
Y332500D01*
G54D86*X465200Y337000D02*Y336850D01*
G54D85*Y334750D02*Y332500D01*
X468950Y335500D02*X469700Y334750D01*
X467450Y335500D02*X468950D01*
X466700Y334750D02*X467450Y335500D01*
X466700Y334750D02*Y333250D01*
X467450Y332500D01*
X468950D01*
X469700Y333250D01*
X466700Y331000D02*X467450Y330250D01*
X468950D01*
X469700Y331000D01*
Y335500D02*Y331000D01*
X471500Y338500D02*Y332500D01*
Y334750D02*X472250Y335500D01*
X473750D01*
X474500Y334750D01*
Y332500D01*
X21525Y-9500D02*X24525D01*
X25275Y-8750D01*
Y-6950D02*Y-8750D01*
X24525Y-6200D02*X25275Y-6950D01*
X22275Y-6200D02*X24525D01*
X22275Y-3500D02*Y-9500D01*
X21525Y-3500D02*X24525D01*
X25275Y-4250D01*
Y-5450D01*
X24525Y-6200D02*X25275Y-5450D01*
X27075Y-7250D02*Y-8750D01*
Y-7250D02*X27825Y-6500D01*
X29325D01*
X30075Y-7250D01*
Y-8750D01*
X29325Y-9500D02*X30075Y-8750D01*
X27825Y-9500D02*X29325D01*
X27075Y-8750D02*X27825Y-9500D01*
X34125Y-6500D02*X34875Y-7250D01*
X32625Y-6500D02*X34125D01*
X31875Y-7250D02*X32625Y-6500D01*
X31875Y-7250D02*Y-8750D01*
X32625Y-9500D01*
X34875Y-6500D02*Y-8750D01*
X35625Y-9500D01*
X32625D02*X34125D01*
X34875Y-8750D01*
X38175Y-7250D02*Y-9500D01*
Y-7250D02*X38925Y-6500D01*
X40425D01*
X37425D02*X38175Y-7250D01*
X45225Y-3500D02*Y-9500D01*
X44475D02*X45225Y-8750D01*
X42975Y-9500D02*X44475D01*
X42225Y-8750D02*X42975Y-9500D01*
X42225Y-7250D02*Y-8750D01*
Y-7250D02*X42975Y-6500D01*
X44475D01*
X45225Y-7250D01*
X49725D02*Y-8750D01*
Y-7250D02*X50475Y-6500D01*
X51975D01*
X52725Y-7250D01*
Y-8750D01*
X51975Y-9500D02*X52725Y-8750D01*
X50475Y-9500D02*X51975D01*
X49725Y-8750D02*X50475Y-9500D01*
X54525Y-6500D02*Y-8750D01*
X55275Y-9500D01*
X56775D01*
X57525Y-8750D01*
Y-6500D02*Y-8750D01*
X60075Y-3500D02*Y-8750D01*
X60825Y-9500D01*
X59325Y-5750D02*X60825D01*
X62325Y-3500D02*Y-8750D01*
X63075Y-9500D01*
G54D86*X64575Y-5000D02*Y-5150D01*
G54D85*Y-7250D02*Y-9500D01*
X66825Y-7250D02*Y-9500D01*
Y-7250D02*X67575Y-6500D01*
X68325D01*
X69075Y-7250D01*
Y-9500D01*
X66075Y-6500D02*X66825Y-7250D01*
X71625Y-9500D02*X73875D01*
X70875Y-8750D02*X71625Y-9500D01*
X70875Y-7250D02*Y-8750D01*
Y-7250D02*X71625Y-6500D01*
X73125D01*
X73875Y-7250D01*
X70875Y-8000D02*X73875D01*
Y-7250D02*Y-8000D01*
G54D86*X78375Y-5000D02*Y-5150D01*
G54D85*Y-7250D02*Y-9500D01*
X80625D02*X82875D01*
X83625Y-8750D01*
X82875Y-8000D02*X83625Y-8750D01*
X80625Y-8000D02*X82875D01*
X79875Y-7250D02*X80625Y-8000D01*
X79875Y-7250D02*X80625Y-6500D01*
X82875D01*
X83625Y-7250D01*
X79875Y-8750D02*X80625Y-9500D01*
X88875Y-3500D02*Y-8750D01*
X89625Y-9500D01*
X88125Y-5750D02*X89625D01*
X91125Y-3500D02*Y-9500D01*
Y-7250D02*X91875Y-6500D01*
X93375D01*
X94125Y-7250D01*
Y-9500D01*
X96675D02*X98925D01*
X95925Y-8750D02*X96675Y-9500D01*
X95925Y-7250D02*Y-8750D01*
Y-7250D02*X96675Y-6500D01*
X98175D01*
X98925Y-7250D01*
X95925Y-8000D02*X98925D01*
Y-7250D02*Y-8000D01*
X104175Y-6500D02*X106425D01*
X103425Y-7250D02*X104175Y-6500D01*
X103425Y-7250D02*Y-8750D01*
X104175Y-9500D01*
X106425D01*
X108975D02*X111225D01*
X108225Y-8750D02*X108975Y-9500D01*
X108225Y-7250D02*Y-8750D01*
Y-7250D02*X108975Y-6500D01*
X110475D01*
X111225Y-7250D01*
X108225Y-8000D02*X111225D01*
Y-7250D02*Y-8000D01*
X113775Y-7250D02*Y-9500D01*
Y-7250D02*X114525Y-6500D01*
X115275D01*
X116025Y-7250D01*
Y-9500D01*
X113025Y-6500D02*X113775Y-7250D01*
X118575Y-3500D02*Y-8750D01*
X119325Y-9500D01*
X117825Y-5750D02*X119325D01*
X121575Y-9500D02*X123825D01*
X120825Y-8750D02*X121575Y-9500D01*
X120825Y-7250D02*Y-8750D01*
Y-7250D02*X121575Y-6500D01*
X123075D01*
X123825Y-7250D01*
X120825Y-8000D02*X123825D01*
Y-7250D02*Y-8000D01*
X126375Y-7250D02*Y-9500D01*
Y-7250D02*X127125Y-6500D01*
X128625D01*
X125625D02*X126375Y-7250D01*
X130425Y-3500D02*Y-8750D01*
X131175Y-9500D01*
G54D86*X132675Y-5000D02*Y-5150D01*
G54D85*Y-7250D02*Y-9500D01*
X134925Y-7250D02*Y-9500D01*
Y-7250D02*X135675Y-6500D01*
X136425D01*
X137175Y-7250D01*
Y-9500D01*
X134175Y-6500D02*X134925Y-7250D01*
X139725Y-9500D02*X141975D01*
X138975Y-8750D02*X139725Y-9500D01*
X138975Y-7250D02*Y-8750D01*
Y-7250D02*X139725Y-6500D01*
X141225D01*
X141975Y-7250D01*
X138975Y-8000D02*X141975D01*
Y-7250D02*Y-8000D01*
X146475Y-7250D02*Y-8750D01*
Y-7250D02*X147225Y-6500D01*
X148725D01*
X149475Y-7250D01*
Y-8750D01*
X148725Y-9500D02*X149475Y-8750D01*
X147225Y-9500D02*X148725D01*
X146475Y-8750D02*X147225Y-9500D01*
X152025Y-4250D02*Y-9500D01*
Y-4250D02*X152775Y-3500D01*
X153525D01*
X151275Y-6500D02*X152775D01*
X158475Y-3500D02*Y-8750D01*
X159225Y-9500D01*
X157725Y-5750D02*X159225D01*
X160725Y-3500D02*Y-9500D01*
Y-7250D02*X161475Y-6500D01*
X162975D01*
X163725Y-7250D01*
Y-9500D01*
G54D86*X165525Y-5000D02*Y-5150D01*
G54D85*Y-7250D02*Y-9500D01*
X167775D02*X170025D01*
X170775Y-8750D01*
X170025Y-8000D02*X170775Y-8750D01*
X167775Y-8000D02*X170025D01*
X167025Y-7250D02*X167775Y-8000D01*
X167025Y-7250D02*X167775Y-6500D01*
X170025D01*
X170775Y-7250D01*
X167025Y-8750D02*X167775Y-9500D01*
X175275Y-8750D02*X176025Y-9500D01*
X175275Y-7550D02*Y-8750D01*
Y-7550D02*X176325Y-6500D01*
X177225D01*
X178275Y-7550D01*
Y-8750D01*
X177525Y-9500D02*X178275Y-8750D01*
X176025Y-9500D02*X177525D01*
X175275Y-5450D02*X176325Y-6500D01*
X175275Y-4250D02*Y-5450D01*
Y-4250D02*X176025Y-3500D01*
X177525D01*
X178275Y-4250D01*
Y-5450D01*
X177225Y-6500D02*X178275Y-5450D01*
X180075Y-9500D02*X180825D01*
X182625Y-8750D02*X183375Y-9500D01*
X182625Y-4250D02*Y-8750D01*
Y-4250D02*X183375Y-3500D01*
X184875D01*
X185625Y-4250D01*
Y-8750D01*
X184875Y-9500D02*X185625Y-8750D01*
X183375Y-9500D02*X184875D01*
X182625Y-8000D02*X185625Y-5000D01*
X187425Y-8750D02*X188175Y-9500D01*
X187425Y-4250D02*Y-8750D01*
Y-4250D02*X188175Y-3500D01*
X189675D01*
X190425Y-4250D01*
Y-8750D01*
X189675Y-9500D02*X190425Y-8750D01*
X188175Y-9500D02*X189675D01*
X187425Y-8000D02*X190425Y-5000D01*
X192225Y-8750D02*X192975Y-9500D01*
X192225Y-4250D02*Y-8750D01*
Y-4250D02*X192975Y-3500D01*
X194475D01*
X195225Y-4250D01*
Y-8750D01*
X194475Y-9500D02*X195225Y-8750D01*
X192975Y-9500D02*X194475D01*
X192225Y-8000D02*X195225Y-5000D01*
X197025Y-8750D02*X197775Y-9500D01*
X197025Y-4250D02*Y-8750D01*
Y-4250D02*X197775Y-3500D01*
X199275D01*
X200025Y-4250D01*
Y-8750D01*
X199275Y-9500D02*X200025Y-8750D01*
X197775Y-9500D02*X199275D01*
X197025Y-8000D02*X200025Y-5000D01*
X201825Y-8750D02*X202575Y-9500D01*
X201825Y-4250D02*Y-8750D01*
Y-4250D02*X202575Y-3500D01*
X204075D01*
X204825Y-4250D01*
Y-8750D01*
X204075Y-9500D02*X204825Y-8750D01*
X202575Y-9500D02*X204075D01*
X201825Y-8000D02*X204825Y-5000D01*
X206625Y-8750D02*X207375Y-9500D01*
X206625Y-4250D02*Y-8750D01*
Y-4250D02*X207375Y-3500D01*
X208875D01*
X209625Y-4250D01*
Y-8750D01*
X208875Y-9500D02*X209625Y-8750D01*
X207375Y-9500D02*X208875D01*
X206625Y-8000D02*X209625Y-5000D01*
X214875Y-7250D02*Y-9500D01*
Y-7250D02*X215625Y-6500D01*
X216375D01*
X217125Y-7250D01*
Y-9500D01*
Y-7250D02*X217875Y-6500D01*
X218625D01*
X219375Y-7250D01*
Y-9500D01*
X214125Y-6500D02*X214875Y-7250D01*
G54D86*X221175Y-5000D02*Y-5150D01*
G54D85*Y-7250D02*Y-9500D01*
X222675Y-3500D02*Y-8750D01*
X223425Y-9500D01*
X228375Y-7250D02*Y-9500D01*
Y-7250D02*X229125Y-6500D01*
X230625D01*
X227625D02*X228375Y-7250D01*
X233175Y-9500D02*X235425D01*
X232425Y-8750D02*X233175Y-9500D01*
X232425Y-7250D02*Y-8750D01*
Y-7250D02*X233175Y-6500D01*
X234675D01*
X235425Y-7250D01*
X232425Y-8000D02*X235425D01*
Y-7250D02*Y-8000D01*
X237975Y-6500D02*X240225D01*
X237225Y-7250D02*X237975Y-6500D01*
X237225Y-7250D02*Y-8750D01*
X237975Y-9500D01*
X240225D01*
X242775Y-3500D02*Y-8750D01*
X243525Y-9500D01*
X242025Y-5750D02*X243525D01*
X247275Y-6500D02*X248025Y-7250D01*
X245775Y-6500D02*X247275D01*
X245025Y-7250D02*X245775Y-6500D01*
X245025Y-7250D02*Y-8750D01*
X245775Y-9500D01*
X248025Y-6500D02*Y-8750D01*
X248775Y-9500D01*
X245775D02*X247275D01*
X248025Y-8750D01*
X251325Y-7250D02*Y-9500D01*
Y-7250D02*X252075Y-6500D01*
X252825D01*
X253575Y-7250D01*
Y-9500D01*
X250575Y-6500D02*X251325Y-7250D01*
X257625Y-6500D02*X258375Y-7250D01*
X256125Y-6500D02*X257625D01*
X255375Y-7250D02*X256125Y-6500D01*
X255375Y-7250D02*Y-8750D01*
X256125Y-9500D01*
X257625D01*
X258375Y-8750D01*
X255375Y-11000D02*X256125Y-11750D01*
X257625D01*
X258375Y-11000D01*
Y-6500D02*Y-11000D01*
X260175Y-3500D02*Y-8750D01*
X260925Y-9500D01*
X263175D02*X265425D01*
X262425Y-8750D02*X263175Y-9500D01*
X262425Y-7250D02*Y-8750D01*
Y-7250D02*X263175Y-6500D01*
X264675D01*
X265425Y-7250D01*
X262425Y-8000D02*X265425D01*
Y-7250D02*Y-8000D01*
X269925Y-6500D02*X272925D01*
X277425Y-8750D02*X278175Y-9500D01*
X277425Y-4250D02*Y-8750D01*
Y-4250D02*X278175Y-3500D01*
X279675D01*
X280425Y-4250D01*
Y-8750D01*
X279675Y-9500D02*X280425Y-8750D01*
X278175Y-9500D02*X279675D01*
X277425Y-8000D02*X280425Y-5000D01*
X282225Y-11000D02*X283725Y-9500D01*
X285525Y-8750D02*X286275Y-9500D01*
X285525Y-4250D02*Y-8750D01*
Y-4250D02*X286275Y-3500D01*
X287775D01*
X288525Y-4250D01*
Y-8750D01*
X287775Y-9500D02*X288525Y-8750D01*
X286275Y-9500D02*X287775D01*
X285525Y-8000D02*X288525Y-5000D01*
X293775Y-3500D02*Y-8750D01*
X294525Y-9500D01*
X293025Y-5750D02*X294525D01*
X296025Y-7250D02*Y-8750D01*
Y-7250D02*X296775Y-6500D01*
X298275D01*
X299025Y-7250D01*
Y-8750D01*
X298275Y-9500D02*X299025Y-8750D01*
X296775Y-9500D02*X298275D01*
X296025Y-8750D02*X296775Y-9500D01*
X303525Y-7250D02*X306525Y-3500D01*
X303525Y-7250D02*X307275D01*
X306525Y-3500D02*Y-9500D01*
X309075Y-3500D02*X312075D01*
X309075D02*Y-6500D01*
X309825Y-5750D01*
X311325D01*
X312075Y-6500D01*
Y-8750D01*
X311325Y-9500D02*X312075Y-8750D01*
X309825Y-9500D02*X311325D01*
X309075Y-8750D02*X309825Y-9500D01*
X313875Y-8750D02*X314625Y-9500D01*
X313875Y-4250D02*Y-8750D01*
Y-4250D02*X314625Y-3500D01*
X316125D01*
X316875Y-4250D01*
Y-8750D01*
X316125Y-9500D02*X316875Y-8750D01*
X314625Y-9500D02*X316125D01*
X313875Y-8000D02*X316875Y-5000D01*
X318675Y-8750D02*X319425Y-9500D01*
X318675Y-4250D02*Y-8750D01*
Y-4250D02*X319425Y-3500D01*
X320925D01*
X321675Y-4250D01*
Y-8750D01*
X320925Y-9500D02*X321675Y-8750D01*
X319425Y-9500D02*X320925D01*
X318675Y-8000D02*X321675Y-5000D01*
X323475Y-9500D02*X324225D01*
X326025Y-8750D02*X326775Y-9500D01*
X326025Y-4250D02*Y-8750D01*
Y-4250D02*X326775Y-3500D01*
X328275D01*
X329025Y-4250D01*
Y-8750D01*
X328275Y-9500D02*X329025Y-8750D01*
X326775Y-9500D02*X328275D01*
X326025Y-8000D02*X329025Y-5000D01*
X330825Y-8750D02*X331575Y-9500D01*
X330825Y-4250D02*Y-8750D01*
Y-4250D02*X331575Y-3500D01*
X333075D01*
X333825Y-4250D01*
Y-8750D01*
X333075Y-9500D02*X333825Y-8750D01*
X331575Y-9500D02*X333075D01*
X330825Y-8000D02*X333825Y-5000D01*
X335625Y-8750D02*X336375Y-9500D01*
X335625Y-4250D02*Y-8750D01*
Y-4250D02*X336375Y-3500D01*
X337875D01*
X338625Y-4250D01*
Y-8750D01*
X337875Y-9500D02*X338625Y-8750D01*
X336375Y-9500D02*X337875D01*
X335625Y-8000D02*X338625Y-5000D01*
X340425Y-8750D02*X341175Y-9500D01*
X340425Y-4250D02*Y-8750D01*
Y-4250D02*X341175Y-3500D01*
X342675D01*
X343425Y-4250D01*
Y-8750D01*
X342675Y-9500D02*X343425Y-8750D01*
X341175Y-9500D02*X342675D01*
X340425Y-8000D02*X343425Y-5000D01*
X345225Y-8750D02*X345975Y-9500D01*
X345225Y-4250D02*Y-8750D01*
Y-4250D02*X345975Y-3500D01*
X347475D01*
X348225Y-4250D01*
Y-8750D01*
X347475Y-9500D02*X348225Y-8750D01*
X345975Y-9500D02*X347475D01*
X345225Y-8000D02*X348225Y-5000D01*
X350025Y-8750D02*X350775Y-9500D01*
X350025Y-4250D02*Y-8750D01*
Y-4250D02*X350775Y-3500D01*
X352275D01*
X353025Y-4250D01*
Y-8750D01*
X352275Y-9500D02*X353025Y-8750D01*
X350775Y-9500D02*X352275D01*
X350025Y-8000D02*X353025Y-5000D01*
X354825Y-11000D02*X356325Y-9500D01*
X358125Y-4250D02*X358875Y-3500D01*
X360375D01*
X361125Y-4250D01*
X360375Y-9500D02*X361125Y-8750D01*
X358875Y-9500D02*X360375D01*
X358125Y-8750D02*X358875Y-9500D01*
Y-6200D02*X360375D01*
X361125Y-4250D02*Y-5450D01*
Y-6950D02*Y-8750D01*
Y-6950D02*X360375Y-6200D01*
X361125Y-5450D02*X360375Y-6200D01*
X362925Y-4250D02*X363675Y-3500D01*
X365925D01*
X366675Y-4250D01*
Y-5750D01*
X362925Y-9500D02*X366675Y-5750D01*
X362925Y-9500D02*X366675D01*
X368475Y-3500D02*X371475D01*
X368475D02*Y-6500D01*
X369225Y-5750D01*
X370725D01*
X371475Y-6500D01*
Y-8750D01*
X370725Y-9500D02*X371475Y-8750D01*
X369225Y-9500D02*X370725D01*
X368475Y-8750D02*X369225Y-9500D01*
X373275Y-8750D02*X374025Y-9500D01*
X373275Y-4250D02*Y-8750D01*
Y-4250D02*X374025Y-3500D01*
X375525D01*
X376275Y-4250D01*
Y-8750D01*
X375525Y-9500D02*X376275Y-8750D01*
X374025Y-9500D02*X375525D01*
X373275Y-8000D02*X376275Y-5000D01*
X378075Y-9500D02*X378825D01*
X380625Y-8750D02*X381375Y-9500D01*
X380625Y-4250D02*Y-8750D01*
Y-4250D02*X381375Y-3500D01*
X382875D01*
X383625Y-4250D01*
Y-8750D01*
X382875Y-9500D02*X383625Y-8750D01*
X381375Y-9500D02*X382875D01*
X380625Y-8000D02*X383625Y-5000D01*
X385425Y-8750D02*X386175Y-9500D01*
X385425Y-4250D02*Y-8750D01*
Y-4250D02*X386175Y-3500D01*
X387675D01*
X388425Y-4250D01*
Y-8750D01*
X387675Y-9500D02*X388425Y-8750D01*
X386175Y-9500D02*X387675D01*
X385425Y-8000D02*X388425Y-5000D01*
X390225Y-8750D02*X390975Y-9500D01*
X390225Y-4250D02*Y-8750D01*
Y-4250D02*X390975Y-3500D01*
X392475D01*
X393225Y-4250D01*
Y-8750D01*
X392475Y-9500D02*X393225Y-8750D01*
X390975Y-9500D02*X392475D01*
X390225Y-8000D02*X393225Y-5000D01*
X395025Y-8750D02*X395775Y-9500D01*
X395025Y-4250D02*Y-8750D01*
Y-4250D02*X395775Y-3500D01*
X397275D01*
X398025Y-4250D01*
Y-8750D01*
X397275Y-9500D02*X398025Y-8750D01*
X395775Y-9500D02*X397275D01*
X395025Y-8000D02*X398025Y-5000D01*
X399825Y-8750D02*X400575Y-9500D01*
X399825Y-4250D02*Y-8750D01*
Y-4250D02*X400575Y-3500D01*
X402075D01*
X402825Y-4250D01*
Y-8750D01*
X402075Y-9500D02*X402825Y-8750D01*
X400575Y-9500D02*X402075D01*
X399825Y-8000D02*X402825Y-5000D01*
X404625Y-8750D02*X405375Y-9500D01*
X404625Y-4250D02*Y-8750D01*
Y-4250D02*X405375Y-3500D01*
X406875D01*
X407625Y-4250D01*
Y-8750D01*
X406875Y-9500D02*X407625Y-8750D01*
X405375Y-9500D02*X406875D01*
X404625Y-8000D02*X407625Y-5000D01*
X412875Y-7250D02*Y-9500D01*
Y-7250D02*X413625Y-6500D01*
X414375D01*
X415125Y-7250D01*
Y-9500D01*
Y-7250D02*X415875Y-6500D01*
X416625D01*
X417375Y-7250D01*
Y-9500D01*
X412125Y-6500D02*X412875Y-7250D01*
G54D86*X419175Y-5000D02*Y-5150D01*
G54D85*Y-7250D02*Y-9500D01*
X420675Y-3500D02*Y-8750D01*
X421425Y-9500D01*
X423675D02*X425925D01*
X426675Y-8750D01*
X425925Y-8000D02*X426675Y-8750D01*
X423675Y-8000D02*X425925D01*
X422925Y-7250D02*X423675Y-8000D01*
X422925Y-7250D02*X423675Y-6500D01*
X425925D01*
X426675Y-7250D01*
X422925Y-8750D02*X423675Y-9500D01*
X200750Y353500D02*Y347500D01*
X202700Y353500D02*X203750Y352450D01*
Y348550D01*
X202700Y347500D02*X203750Y348550D01*
X200000Y347500D02*X202700D01*
X200000Y353500D02*X202700D01*
X207800Y350500D02*X208550Y349750D01*
X206300Y350500D02*X207800D01*
X205550Y349750D02*X206300Y350500D01*
X205550Y349750D02*Y348250D01*
X206300Y347500D01*
X208550Y350500D02*Y348250D01*
X209300Y347500D01*
X206300D02*X207800D01*
X208550Y348250D01*
X211850Y353500D02*Y348250D01*
X212600Y347500D01*
X211100Y351250D02*X212600D01*
X214850Y347500D02*X217100D01*
X214100Y348250D02*X214850Y347500D01*
X214100Y349750D02*Y348250D01*
Y349750D02*X214850Y350500D01*
X216350D01*
X217100Y349750D01*
X214100Y349000D02*X217100D01*
Y349750D02*Y349000D01*
X218900Y351250D02*X219650D01*
X218900Y349750D02*X219650D01*
X224150Y353500D02*X227150D01*
X225650D02*Y347500D01*
X228950Y350500D02*Y348250D01*
X229700Y347500D01*
X231200D01*
X231950Y348250D01*
Y350500D02*Y348250D01*
X234500Y347500D02*X236750D01*
X233750Y348250D02*X234500Y347500D01*
X233750Y349750D02*Y348250D01*
Y349750D02*X234500Y350500D01*
X236000D01*
X236750Y349750D01*
X233750Y349000D02*X236750D01*
Y349750D02*Y349000D01*
X241250Y352300D02*X242450Y353500D01*
Y347500D01*
X241250D02*X243500D01*
X245300Y352750D02*X246050Y353500D01*
X248300D01*
X249050Y352750D01*
Y351250D01*
X245300Y347500D02*X249050Y351250D01*
X245300Y347500D02*X249050D01*
X254600Y353500D02*X255800D01*
Y348250D01*
X255050Y347500D02*X255800Y348250D01*
X254300Y347500D02*X255050D01*
X253550Y348250D02*X254300Y347500D01*
X253550Y349000D02*Y348250D01*
X257600Y350500D02*Y348250D01*
X258350Y347500D01*
X259850D01*
X260600Y348250D01*
Y350500D02*Y348250D01*
X263150Y349750D02*Y347500D01*
Y349750D02*X263900Y350500D01*
X264650D01*
X265400Y349750D01*
Y347500D01*
X262400Y350500D02*X263150Y349750D01*
X269900Y352750D02*X270650Y353500D01*
X272900D01*
X273650Y352750D01*
Y351250D01*
X269900Y347500D02*X273650Y351250D01*
X269900Y347500D02*X273650D01*
X275450Y348250D02*X276200Y347500D01*
X275450Y352750D02*Y348250D01*
Y352750D02*X276200Y353500D01*
X277700D01*
X278450Y352750D01*
Y348250D01*
X277700Y347500D02*X278450Y348250D01*
X276200Y347500D02*X277700D01*
X275450Y349000D02*X278450Y352000D01*
X280250Y352300D02*X281450Y353500D01*
Y347500D01*
X280250D02*X282500D01*
X284300Y352750D02*X285050Y353500D01*
X287300D01*
X288050Y352750D01*
Y351250D01*
X284300Y347500D02*X288050Y351250D01*
X284300Y347500D02*X288050D01*
X292550Y348250D02*X293300Y347500D01*
X292550Y352750D02*Y348250D01*
Y352750D02*X293300Y353500D01*
X294800D01*
X295550Y352750D01*
Y348250D01*
X294800Y347500D02*X295550Y348250D01*
X293300Y347500D02*X294800D01*
X292550Y349000D02*X295550Y352000D01*
X297350Y352750D02*X298100Y353500D01*
X299600D01*
X300350Y352750D01*
X299600Y347500D02*X300350Y348250D01*
X298100Y347500D02*X299600D01*
X297350Y348250D02*X298100Y347500D01*
Y350800D02*X299600D01*
X300350Y352750D02*Y351550D01*
Y350050D02*Y348250D01*
Y350050D02*X299600Y350800D01*
X300350Y351550D02*X299600Y350800D01*
X302150Y351250D02*X302900D01*
X302150Y349750D02*X302900D01*
X304700Y352750D02*X305450Y353500D01*
X306950D01*
X307700Y352750D01*
X306950Y347500D02*X307700Y348250D01*
X305450Y347500D02*X306950D01*
X304700Y348250D02*X305450Y347500D01*
Y350800D02*X306950D01*
X307700Y352750D02*Y351550D01*
Y350050D02*Y348250D01*
Y350050D02*X306950Y350800D01*
X307700Y351550D02*X306950Y350800D01*
X309500Y352750D02*X310250Y353500D01*
X311750D01*
X312500Y352750D01*
X311750Y347500D02*X312500Y348250D01*
X310250Y347500D02*X311750D01*
X309500Y348250D02*X310250Y347500D01*
Y350800D02*X311750D01*
X312500Y352750D02*Y351550D01*
Y350050D02*Y348250D01*
Y350050D02*X311750Y350800D01*
X312500Y351550D02*X311750Y350800D01*
X314300Y351250D02*X315050D01*
X314300Y349750D02*X315050D01*
X316850Y352750D02*X317600Y353500D01*
X319850D01*
X320600Y352750D01*
Y351250D01*
X316850Y347500D02*X320600Y351250D01*
X316850Y347500D02*X320600D01*
X323150D02*X325400Y350500D01*
Y352750D02*Y350500D01*
X324650Y353500D02*X325400Y352750D01*
X323150Y353500D02*X324650D01*
X322400Y352750D02*X323150Y353500D01*
X322400Y352750D02*Y351250D01*
X323150Y350500D01*
X325400D01*
X330650Y353500D02*Y347500D01*
X329900Y353500D02*X332900D01*
X333650Y352750D01*
Y351250D01*
X332900Y350500D02*X333650Y351250D01*
X330650Y350500D02*X332900D01*
X335450Y353500D02*Y347500D01*
Y353500D02*X337700Y350500D01*
X339950Y353500D01*
Y347500D01*
X347450Y353500D02*X348200Y352750D01*
X345200Y353500D02*X347450D01*
X344450Y352750D02*X345200Y353500D01*
X344450Y352750D02*Y348250D01*
X345200Y347500D01*
X347450D01*
X348200Y348250D01*
Y349750D02*Y348250D01*
X347450Y350500D02*X348200Y349750D01*
X345950Y350500D02*X347450D01*
X350000Y353500D02*Y347500D01*
Y353500D02*X352250Y350500D01*
X354500Y353500D01*
Y347500D01*
X356300Y353500D02*X359300D01*
X357800D02*Y347500D01*
X363800Y353500D02*Y348250D01*
X364550Y347500D01*
X366050D01*
X366800Y348250D01*
Y353500D02*Y348250D01*
X368600Y353500D02*X371600D01*
X370100D02*Y347500D01*
X374450D02*X376400D01*
X373400Y348550D02*X374450Y347500D01*
X373400Y352450D02*Y348550D01*
Y352450D02*X374450Y353500D01*
X376400D01*
X200000Y367000D02*Y362500D01*
Y367000D02*X201050Y368500D01*
X202700D01*
X203750Y367000D01*
Y362500D01*
X200000Y365500D02*X203750D01*
X205550D02*Y363250D01*
X206300Y362500D01*
X207800D01*
X208550Y363250D01*
Y365500D02*Y363250D01*
X211100Y368500D02*Y363250D01*
X211850Y362500D01*
X210350Y366250D02*X211850D01*
X213350Y368500D02*Y362500D01*
Y364750D02*X214100Y365500D01*
X215600D01*
X216350Y364750D01*
Y362500D01*
X218150Y364750D02*Y363250D01*
Y364750D02*X218900Y365500D01*
X220400D01*
X221150Y364750D01*
Y363250D01*
X220400Y362500D02*X221150Y363250D01*
X218900Y362500D02*X220400D01*
X218150Y363250D02*X218900Y362500D01*
X223700Y364750D02*Y362500D01*
Y364750D02*X224450Y365500D01*
X225950D01*
X222950D02*X223700Y364750D01*
X227750Y366250D02*X228500D01*
X227750Y364750D02*X228500D01*
X233000Y365800D02*X235250D01*
X233000Y362500D02*X236000D01*
X233000Y368500D02*Y362500D01*
Y368500D02*X236000D01*
X240800D02*Y362500D01*
X240050D02*X240800Y363250D01*
X238550Y362500D02*X240050D01*
X237800Y363250D02*X238550Y362500D01*
X237800Y364750D02*Y363250D01*
Y364750D02*X238550Y365500D01*
X240050D01*
X240800Y364750D01*
X242600Y365500D02*Y363250D01*
X243350Y362500D01*
X244100D01*
X244850Y363250D01*
Y365500D02*Y363250D01*
X245600Y362500D01*
X246350D01*
X247100Y363250D01*
Y365500D02*Y363250D01*
X251150Y365500D02*X251900Y364750D01*
X249650Y365500D02*X251150D01*
X248900Y364750D02*X249650Y365500D01*
X248900Y364750D02*Y363250D01*
X249650Y362500D01*
X251900Y365500D02*Y363250D01*
X252650Y362500D01*
X249650D02*X251150D01*
X251900Y363250D01*
X255200Y364750D02*Y362500D01*
Y364750D02*X255950Y365500D01*
X257450D01*
X254450D02*X255200Y364750D01*
X262250Y368500D02*Y362500D01*
X261500D02*X262250Y363250D01*
X260000Y362500D02*X261500D01*
X259250Y363250D02*X260000Y362500D01*
X259250Y364750D02*Y363250D01*
Y364750D02*X260000Y365500D01*
X261500D01*
X262250Y364750D01*
X266750Y368500D02*X268250Y362500D01*
X269750Y368500D01*
X272300Y362500D02*X274550D01*
X271550Y363250D02*X272300Y362500D01*
X271550Y364750D02*Y363250D01*
Y364750D02*X272300Y365500D01*
X273800D01*
X274550Y364750D01*
X271550Y364000D02*X274550D01*
Y364750D02*Y364000D01*
X277100Y364750D02*Y362500D01*
Y364750D02*X277850Y365500D01*
X278600D01*
X279350Y364750D01*
Y362500D01*
X276350Y365500D02*X277100Y364750D01*
X283400Y365500D02*X284150Y364750D01*
X281900Y365500D02*X283400D01*
X281150Y364750D02*X281900Y365500D01*
X281150Y364750D02*Y363250D01*
X281900Y362500D01*
X284150Y365500D02*Y363250D01*
X284900Y362500D01*
X281900D02*X283400D01*
X284150Y363250D01*
X287450Y368500D02*Y363250D01*
X288200Y362500D01*
X286700Y366250D02*X288200D01*
X289700Y364750D02*Y363250D01*
Y364750D02*X290450Y365500D01*
X291950D01*
X292700Y364750D01*
Y363250D01*
X291950Y362500D02*X292700Y363250D01*
X290450Y362500D02*X291950D01*
X289700Y363250D02*X290450Y362500D01*
X295250Y364750D02*Y362500D01*
Y364750D02*X296000Y365500D01*
X297500D01*
X294500D02*X295250Y364750D01*
X200000Y383500D02*X203000D01*
X201500D02*Y377500D01*
G54D86*X204800Y382000D02*Y381850D01*
G54D85*Y379750D02*Y377500D01*
X207050Y383500D02*Y378250D01*
X207800Y377500D01*
X206300Y381250D02*X207800D01*
X209300Y383500D02*Y378250D01*
X210050Y377500D01*
X212300D02*X214550D01*
X211550Y378250D02*X212300Y377500D01*
X211550Y379750D02*Y378250D01*
Y379750D02*X212300Y380500D01*
X213800D01*
X214550Y379750D01*
X211550Y379000D02*X214550D01*
Y379750D02*Y379000D01*
X216350Y381250D02*X217100D01*
X216350Y379750D02*X217100D01*
X221600Y378250D02*X222350Y377500D01*
X221600Y382750D02*X222350Y383500D01*
X221600Y382750D02*Y378250D01*
X224150Y380500D02*Y378250D01*
X224900Y377500D01*
X226400D01*
X227150Y378250D01*
Y380500D02*Y378250D01*
X229700Y379750D02*Y377500D01*
Y379750D02*X230450Y380500D01*
X231200D01*
X231950Y379750D01*
Y377500D01*
X228950Y380500D02*X229700Y379750D01*
X233750Y383500D02*Y377500D01*
Y379750D02*X236000Y377500D01*
X233750Y379750D02*X235250Y381250D01*
X238550Y379750D02*Y377500D01*
Y379750D02*X239300Y380500D01*
X240050D01*
X240800Y379750D01*
Y377500D01*
X237800Y380500D02*X238550Y379750D01*
X242600D02*Y378250D01*
Y379750D02*X243350Y380500D01*
X244850D01*
X245600Y379750D01*
Y378250D01*
X244850Y377500D02*X245600Y378250D01*
X243350Y377500D02*X244850D01*
X242600Y378250D02*X243350Y377500D01*
X247400Y380500D02*Y378250D01*
X248150Y377500D01*
X248900D01*
X249650Y378250D01*
Y380500D02*Y378250D01*
X250400Y377500D01*
X251150D01*
X251900Y378250D01*
Y380500D02*Y378250D01*
X254450Y379750D02*Y377500D01*
Y379750D02*X255200Y380500D01*
X255950D01*
X256700Y379750D01*
Y377500D01*
X253700Y380500D02*X254450Y379750D01*
X258500Y383500D02*X259250Y382750D01*
Y378250D01*
X258500Y377500D02*X259250Y378250D01*
X263750Y380500D02*X266750D01*
X271250Y383500D02*Y377500D01*
Y383500D02*X274250D01*
X271250Y380800D02*X273500D01*
X278300Y380500D02*X279050Y379750D01*
X276800Y380500D02*X278300D01*
X276050Y379750D02*X276800Y380500D01*
X276050Y379750D02*Y378250D01*
X276800Y377500D01*
X279050Y380500D02*Y378250D01*
X279800Y377500D01*
X276800D02*X278300D01*
X279050Y378250D01*
X281600Y383500D02*Y377500D01*
Y378250D02*X282350Y377500D01*
X283850D01*
X284600Y378250D01*
Y379750D02*Y378250D01*
X283850Y380500D02*X284600Y379750D01*
X282350Y380500D02*X283850D01*
X281600Y379750D02*X282350Y380500D01*
X287150Y379750D02*Y377500D01*
Y379750D02*X287900Y380500D01*
X289400D01*
X286400D02*X287150Y379750D01*
G54D86*X291200Y382000D02*Y381850D01*
G54D85*Y379750D02*Y377500D01*
X293450Y380500D02*X295700D01*
X292700Y379750D02*X293450Y380500D01*
X292700Y379750D02*Y378250D01*
X293450Y377500D01*
X295700D01*
X299750Y380500D02*X300500Y379750D01*
X298250Y380500D02*X299750D01*
X297500Y379750D02*X298250Y380500D01*
X297500Y379750D02*Y378250D01*
X298250Y377500D01*
X300500Y380500D02*Y378250D01*
X301250Y377500D01*
X298250D02*X299750D01*
X300500Y378250D01*
X303800Y383500D02*Y378250D01*
X304550Y377500D01*
X303050Y381250D02*X304550D01*
G54D86*X306050Y382000D02*Y381850D01*
G54D85*Y379750D02*Y377500D01*
X307550Y379750D02*Y378250D01*
Y379750D02*X308300Y380500D01*
X309800D01*
X310550Y379750D01*
Y378250D01*
X309800Y377500D02*X310550Y378250D01*
X308300Y377500D02*X309800D01*
X307550Y378250D02*X308300Y377500D01*
X313100Y379750D02*Y377500D01*
Y379750D02*X313850Y380500D01*
X314600D01*
X315350Y379750D01*
Y377500D01*
X312350Y380500D02*X313100Y379750D01*
X320600Y383500D02*Y377500D01*
X322550Y383500D02*X323600Y382450D01*
Y378550D01*
X322550Y377500D02*X323600Y378550D01*
X319850Y377500D02*X322550D01*
X319850Y383500D02*X322550D01*
X326150Y379750D02*Y377500D01*
Y379750D02*X326900Y380500D01*
X328400D01*
X325400D02*X326150Y379750D01*
X332450Y380500D02*X333200Y379750D01*
X330950Y380500D02*X332450D01*
X330200Y379750D02*X330950Y380500D01*
X330200Y379750D02*Y378250D01*
X330950Y377500D01*
X333200Y380500D02*Y378250D01*
X333950Y377500D01*
X330950D02*X332450D01*
X333200Y378250D01*
X335750Y380500D02*Y378250D01*
X336500Y377500D01*
X337250D01*
X338000Y378250D01*
Y380500D02*Y378250D01*
X338750Y377500D01*
X339500D01*
X340250Y378250D01*
Y380500D02*Y378250D01*
G54D86*X342050Y382000D02*Y381850D01*
G54D85*Y379750D02*Y377500D01*
X344300Y379750D02*Y377500D01*
Y379750D02*X345050Y380500D01*
X345800D01*
X346550Y379750D01*
Y377500D01*
X343550Y380500D02*X344300Y379750D01*
X350600Y380500D02*X351350Y379750D01*
X349100Y380500D02*X350600D01*
X348350Y379750D02*X349100Y380500D01*
X348350Y379750D02*Y378250D01*
X349100Y377500D01*
X350600D01*
X351350Y378250D01*
X348350Y376000D02*X349100Y375250D01*
X350600D01*
X351350Y376000D01*
Y380500D02*Y376000D01*
M02*
