G75*
G70*
%OFA0B0*%
%FSLAX24Y24*%
%IPPOS*%
%LPD*%
%AMOC8*
5,1,8,0,0,1.08239X$1,22.5*
%
%ADD10OC8,0.0600*%
%ADD11C,0.2000*%
%ADD12C,0.0600*%
%ADD13C,0.0705*%
%ADD14C,0.0554*%
%ADD15OC8,0.0520*%
%ADD16C,0.0660*%
%ADD17C,0.0520*%
%ADD18C,0.0500*%
%ADD19C,0.0160*%
%ADD20C,0.0396*%
D10*
X006863Y012608D03*
X007403Y013728D03*
X007953Y012608D03*
X008493Y013728D03*
X009033Y012608D03*
X009583Y013728D03*
X010123Y012608D03*
X010663Y013728D03*
X011213Y012608D03*
X011753Y013728D03*
X012293Y012608D03*
X012843Y013728D03*
X013383Y012608D03*
X013933Y013728D03*
X014473Y012608D03*
X015013Y013728D03*
X015563Y012608D03*
X016103Y013728D03*
X016643Y012608D03*
X017193Y013728D03*
X017733Y012608D03*
X018273Y013728D03*
X018823Y012608D03*
X019363Y013728D03*
X019903Y012608D03*
X020453Y013728D03*
X020993Y012608D03*
X021533Y013728D03*
X022083Y012608D03*
X022623Y013728D03*
X023163Y012608D03*
X023713Y013728D03*
X024253Y012608D03*
X024793Y013728D03*
X025343Y012608D03*
X025883Y013728D03*
X025333Y004358D03*
X024243Y004358D03*
X024783Y003238D03*
X025873Y003238D03*
X023703Y003238D03*
X023153Y004358D03*
X022073Y004358D03*
X022613Y003238D03*
X021523Y003238D03*
X020983Y004358D03*
X019893Y004358D03*
X019353Y003238D03*
X020443Y003238D03*
X018813Y004358D03*
X018263Y003238D03*
X017183Y003238D03*
X017723Y004358D03*
X016633Y004358D03*
X016093Y003238D03*
X015003Y003238D03*
X014463Y004358D03*
X015553Y004358D03*
X013923Y003238D03*
X013373Y004358D03*
X012833Y003238D03*
X006323Y013728D03*
X013693Y031548D03*
X014233Y032548D03*
X014773Y031548D03*
X015313Y032548D03*
X015853Y031548D03*
X016393Y032548D03*
X016933Y031548D03*
X017473Y032548D03*
X018013Y031548D03*
D11*
X028603Y013168D03*
X003603Y013168D03*
D12*
X003853Y009348D02*
X003853Y008748D01*
X002853Y008748D02*
X002853Y009348D01*
X001853Y009348D02*
X001853Y008748D01*
X001553Y007048D02*
X002153Y007048D01*
X002153Y006048D02*
X001553Y006048D01*
X001553Y005048D02*
X002153Y005048D01*
X002153Y004048D02*
X001553Y004048D01*
X004553Y004048D02*
X005153Y004048D01*
X005153Y005048D02*
X004553Y005048D01*
X004553Y006048D02*
X005153Y006048D01*
X005153Y007048D02*
X004553Y007048D01*
X004653Y017548D02*
X004053Y017548D01*
X004053Y018548D02*
X004653Y018548D01*
X004653Y019548D02*
X004053Y019548D01*
X004053Y020548D02*
X004653Y020548D01*
X002153Y020548D02*
X001553Y020548D01*
X001553Y019548D02*
X002153Y019548D01*
X002153Y018548D02*
X001553Y018548D01*
X001553Y017548D02*
X002153Y017548D01*
X002853Y024248D02*
X002853Y024848D01*
X003853Y024848D02*
X003853Y024248D01*
X003853Y026248D02*
X003853Y026848D01*
X002853Y026848D02*
X002853Y026248D01*
X026853Y020848D02*
X026853Y020248D01*
X026853Y018848D02*
X026853Y018248D01*
X027853Y018248D02*
X027853Y018848D01*
X028853Y018848D02*
X028853Y018248D01*
X028853Y016848D02*
X028853Y016248D01*
X027853Y016248D02*
X027853Y016848D01*
X026853Y016848D02*
X026853Y016248D01*
X027853Y020248D02*
X027853Y020848D01*
X028853Y020848D02*
X028853Y020248D01*
D13*
X027705Y023127D02*
X027000Y023127D01*
X027000Y025095D02*
X027705Y025095D01*
X027705Y027064D02*
X027000Y027064D01*
X027000Y029032D02*
X027705Y029032D01*
X027705Y031001D02*
X027000Y031001D01*
X027000Y032969D02*
X027705Y032969D01*
D14*
X007353Y032298D03*
X007353Y031298D03*
X007353Y030298D03*
X007353Y029298D03*
X006353Y029798D03*
X006353Y030798D03*
X006353Y031798D03*
X006353Y032798D03*
D15*
X009353Y029548D03*
X009353Y028548D03*
X010103Y027048D03*
X011353Y027048D03*
X012853Y027048D03*
X013353Y028548D03*
X013353Y029548D03*
X015853Y029048D03*
X015603Y027048D03*
X015603Y023048D03*
X014353Y023148D03*
X012853Y023048D03*
X012853Y022448D03*
X011353Y023048D03*
X010103Y023048D03*
X008853Y026548D03*
X004853Y026548D03*
X019853Y029048D03*
X020853Y029548D03*
X020853Y028048D03*
X020853Y026048D03*
X024853Y026048D03*
X024853Y028048D03*
X024853Y029548D03*
D16*
X017683Y024048D02*
X017023Y024048D01*
X017023Y023048D02*
X017683Y023048D01*
X017683Y022048D02*
X017023Y022048D01*
D17*
X014353Y023948D03*
X012853Y021648D03*
D18*
X000753Y004048D02*
X000753Y001698D01*
X029823Y001698D01*
X029823Y003294D01*
X029653Y003000D01*
X029411Y002758D01*
X029115Y002587D01*
X028784Y002498D01*
X028442Y002498D01*
X028111Y002587D01*
X027815Y002758D01*
X027572Y003000D01*
X027401Y003296D01*
X027313Y003627D01*
X027313Y003969D01*
X027401Y004300D01*
X027572Y004596D01*
X027815Y004838D01*
X028111Y005010D01*
X028442Y005098D01*
X028784Y005098D01*
X029115Y005010D01*
X029411Y004838D01*
X029653Y004596D01*
X029823Y004302D01*
X029823Y012587D01*
X029762Y012473D01*
X029688Y012363D01*
X029604Y012260D01*
X029510Y012167D01*
X029408Y012083D01*
X029298Y012009D01*
X029181Y011946D01*
X029058Y011896D01*
X028931Y011857D01*
X028801Y011831D01*
X028678Y011819D01*
X028678Y013093D01*
X028528Y013093D01*
X028528Y011819D01*
X028404Y011831D01*
X028274Y011857D01*
X028147Y011896D01*
X028025Y011946D01*
X027908Y012009D01*
X027798Y012083D01*
X027695Y012167D01*
X027601Y012260D01*
X027517Y012363D01*
X027477Y012423D01*
X027103Y012048D01*
X026603Y012048D01*
X025853Y011298D01*
X015103Y011298D01*
X014853Y011548D01*
X014853Y010048D01*
X013853Y009048D01*
X013853Y008048D01*
X016603Y005298D01*
X025853Y005298D01*
X026353Y004798D01*
X026353Y003677D01*
X026523Y003507D01*
X026523Y003238D01*
X025873Y003238D01*
X025873Y003238D01*
X025873Y002588D01*
X026142Y002588D01*
X026523Y002969D01*
X026523Y003238D01*
X025873Y003238D01*
X025873Y003238D01*
X028353Y008468D01*
X028353Y010548D01*
X015853Y010548D01*
X015353Y011048D01*
X015353Y012448D01*
X015563Y012608D01*
X016643Y012608D01*
X016393Y013088D01*
X016853Y013548D01*
X016883Y013548D01*
X017193Y013728D01*
X016103Y013728D02*
X015313Y013068D01*
X015563Y012608D01*
X014883Y011518D02*
X014853Y011518D01*
X014853Y011019D02*
X029823Y011019D01*
X029823Y011518D02*
X026072Y011518D01*
X026571Y012016D02*
X027897Y012016D01*
X028528Y012016D02*
X028678Y012016D01*
X028678Y012515D02*
X028528Y012515D01*
X028528Y013013D02*
X028678Y013013D01*
X028603Y013168D02*
X028853Y013548D01*
X028853Y016548D01*
X028853Y016548D01*
X029503Y016548D01*
X029503Y016206D01*
X029492Y016121D01*
X029470Y016039D01*
X029437Y015960D01*
X029394Y015886D01*
X029342Y015819D01*
X029282Y015758D01*
X029215Y015707D01*
X029141Y015664D01*
X029062Y015631D01*
X028980Y015609D01*
X028895Y015598D01*
X028853Y015598D01*
X028853Y016548D01*
X028853Y016548D01*
X028853Y018548D01*
X028853Y018548D01*
X029503Y018548D01*
X029503Y018206D01*
X029492Y018121D01*
X029470Y018039D01*
X029437Y017960D01*
X029394Y017886D01*
X029342Y017819D01*
X029282Y017758D01*
X029215Y017707D01*
X029141Y017664D01*
X029062Y017631D01*
X028980Y017609D01*
X028895Y017598D01*
X028853Y017598D01*
X028853Y018548D01*
X028853Y018548D01*
X028853Y020548D01*
X028853Y020548D01*
X029503Y020548D01*
X029503Y020206D01*
X029492Y020121D01*
X029470Y020039D01*
X029437Y019960D01*
X029394Y019886D01*
X029342Y019819D01*
X029282Y019758D01*
X029215Y019707D01*
X029141Y019664D01*
X029062Y019631D01*
X028980Y019609D01*
X028895Y019598D01*
X028853Y019598D01*
X028853Y020548D01*
X028853Y020548D01*
X028853Y022048D01*
X027774Y023127D01*
X027353Y023127D01*
X028408Y023127D01*
X028408Y023173D01*
X028396Y023264D01*
X028372Y023353D01*
X028337Y023438D01*
X028291Y023518D01*
X028235Y023591D01*
X028169Y023656D01*
X028096Y023712D01*
X028017Y023758D01*
X027932Y023794D01*
X027843Y023817D01*
X027751Y023829D01*
X027353Y023829D01*
X027353Y023127D01*
X027353Y023127D01*
X025681Y024798D01*
X019103Y024798D01*
X018853Y024548D01*
X018853Y023298D01*
X018603Y023048D01*
X017353Y023048D01*
X017603Y023127D01*
X017353Y023148D02*
X014353Y023148D01*
X015753Y023148D01*
X015603Y023048D01*
X016353Y022048D02*
X017353Y022048D01*
X017353Y023048D02*
X017353Y023148D01*
X017253Y023948D02*
X014353Y023948D01*
X012753Y025548D01*
X009853Y025548D01*
X008853Y026548D01*
X008853Y027548D01*
X009353Y028548D01*
X009103Y029298D02*
X007353Y029298D01*
X006353Y029048D02*
X006353Y029798D01*
X006353Y029048D02*
X008853Y026548D01*
X008103Y025548D02*
X008353Y025298D01*
X008353Y023548D01*
X009603Y022298D01*
X008603Y021298D01*
X005853Y021298D01*
X005353Y021798D01*
X001103Y021798D01*
X000853Y021298D01*
X000853Y034394D01*
X001031Y034394D01*
X001031Y027593D01*
X001130Y027354D01*
X001313Y027170D01*
X001553Y027071D01*
X001812Y027071D01*
X002010Y027153D01*
X001853Y027048D01*
X001853Y024048D01*
X002603Y023298D01*
X004603Y023298D01*
X004853Y023548D01*
X004853Y025048D01*
X005353Y025548D01*
X008103Y025548D01*
X008174Y025477D02*
X005281Y025477D01*
X004853Y024978D02*
X008353Y024978D01*
X008353Y024480D02*
X004853Y024480D01*
X004853Y023981D02*
X008353Y023981D01*
X008103Y023798D02*
X010353Y021548D01*
X011853Y021548D01*
X012603Y020798D01*
X015853Y020798D01*
X016603Y020048D01*
X016603Y017548D01*
X015103Y019048D01*
X012353Y019048D01*
X011353Y020048D01*
X011103Y020048D01*
X009353Y021798D01*
X009103Y021798D01*
X008853Y022048D01*
X008353Y022048D01*
X008103Y022298D01*
X008103Y023798D01*
X008103Y023483D02*
X008418Y023483D01*
X004787Y023483D01*
X005662Y021488D02*
X008793Y021488D01*
X008914Y021987D02*
X009914Y021987D01*
X009662Y021488D02*
X011912Y021488D01*
X012411Y020990D02*
X010161Y020990D01*
X010660Y020491D02*
X016160Y020491D01*
X016603Y019993D02*
X011408Y019993D01*
X011907Y019494D02*
X016603Y019494D01*
X016853Y019798D02*
X018853Y021798D01*
X018853Y022048D01*
X018353Y022548D01*
X018353Y022928D01*
X018363Y023004D01*
X018363Y023048D01*
X018353Y023048D01*
X018353Y023048D01*
X018363Y023048D01*
X018363Y023093D01*
X018353Y023168D01*
X018353Y023298D01*
X018853Y023798D01*
X018853Y024798D01*
X024603Y024798D01*
X025431Y025792D01*
X025443Y025804D01*
X025443Y025806D01*
X025853Y026298D01*
X029823Y026298D01*
X029823Y013749D01*
X029762Y013863D01*
X029688Y013973D01*
X029604Y014076D01*
X029510Y014170D01*
X029408Y014254D01*
X029298Y014327D01*
X029181Y014390D01*
X029058Y014441D01*
X028931Y014479D01*
X028801Y014505D01*
X028678Y014517D01*
X028678Y013243D01*
X028528Y013243D01*
X028528Y014517D01*
X028404Y014505D01*
X028353Y014495D01*
X028353Y015048D01*
X028603Y015298D01*
X028603Y015648D01*
X028643Y015631D01*
X028726Y015609D01*
X028810Y015598D01*
X028853Y015598D01*
X028853Y016548D01*
X029503Y016548D01*
X029503Y016891D01*
X029492Y016975D01*
X029470Y017058D01*
X029437Y017136D01*
X029394Y017210D01*
X029342Y017278D01*
X029282Y017338D01*
X029215Y017390D01*
X029141Y017432D01*
X029062Y017465D01*
X028980Y017487D01*
X028895Y017498D01*
X028853Y017498D01*
X028853Y016549D01*
X028853Y016549D01*
X028853Y017498D01*
X028810Y017498D01*
X028726Y017487D01*
X028643Y017465D01*
X028603Y017448D01*
X028603Y017648D01*
X028643Y017631D01*
X028726Y017609D01*
X028810Y017598D01*
X028853Y017598D01*
X028853Y018548D01*
X029503Y018548D01*
X029503Y018891D01*
X029492Y018975D01*
X029470Y019058D01*
X029437Y019136D01*
X029394Y019210D01*
X029342Y019278D01*
X029282Y019338D01*
X029215Y019390D01*
X029141Y019432D01*
X029062Y019465D01*
X028980Y019487D01*
X028895Y019498D01*
X028853Y019498D01*
X028853Y018549D01*
X028853Y018549D01*
X028853Y019498D01*
X028810Y019498D01*
X028726Y019487D01*
X028643Y019465D01*
X028603Y019448D01*
X028603Y019648D01*
X028643Y019631D01*
X028726Y019609D01*
X028810Y019598D01*
X028853Y019598D01*
X028853Y020548D01*
X029503Y020548D01*
X029503Y020891D01*
X029492Y020975D01*
X029470Y021058D01*
X029437Y021136D01*
X029394Y021210D01*
X029342Y021278D01*
X029282Y021338D01*
X029215Y021390D01*
X029141Y021432D01*
X029062Y021465D01*
X028980Y021487D01*
X028895Y021498D01*
X028853Y021498D01*
X028853Y020549D01*
X028853Y020549D01*
X028853Y021498D01*
X028810Y021498D01*
X028726Y021487D01*
X028643Y021465D01*
X028565Y021432D01*
X028504Y021397D01*
X027476Y022424D01*
X027751Y022424D01*
X027843Y022436D01*
X027932Y022460D01*
X028017Y022496D01*
X028096Y022542D01*
X028169Y022598D01*
X028235Y022663D01*
X028291Y022736D01*
X028337Y022816D01*
X028372Y022901D01*
X028396Y022990D01*
X028408Y023081D01*
X028408Y023127D01*
X027353Y023127D01*
X027353Y025095D01*
X027353Y024393D01*
X027751Y024393D01*
X027843Y024405D01*
X027932Y024429D01*
X028017Y024464D01*
X028096Y024510D01*
X028169Y024566D01*
X028235Y024631D01*
X028291Y024704D01*
X028337Y024784D01*
X028372Y024869D01*
X028396Y024958D01*
X028408Y025049D01*
X028408Y025095D01*
X027353Y025095D01*
X027353Y025095D01*
X027353Y025096D01*
X027353Y025096D01*
X027353Y025798D01*
X027751Y025798D01*
X027843Y025786D01*
X027932Y025762D01*
X028017Y025727D01*
X028096Y025681D01*
X028169Y025625D01*
X028235Y025560D01*
X028291Y025487D01*
X028337Y025407D01*
X028372Y025322D01*
X028396Y025233D01*
X028408Y025141D01*
X028408Y025096D01*
X027353Y025096D01*
X027353Y025798D01*
X026954Y025798D01*
X026863Y025786D01*
X026774Y025762D01*
X026689Y025727D01*
X026609Y025681D01*
X026536Y025625D01*
X026471Y025560D01*
X026415Y025487D01*
X026369Y025407D01*
X026334Y025322D01*
X026310Y025233D01*
X026298Y025141D01*
X026298Y025096D01*
X027352Y025096D01*
X027352Y025095D01*
X026298Y025095D01*
X026298Y025049D01*
X026310Y024958D01*
X026334Y024869D01*
X026369Y024784D01*
X026415Y024704D01*
X026471Y024631D01*
X026536Y024566D01*
X026609Y024510D01*
X026689Y024464D01*
X026774Y024429D01*
X026863Y024405D01*
X026954Y024393D01*
X027353Y024393D01*
X027353Y025095D01*
X027353Y024978D02*
X027353Y024978D01*
X027353Y024480D02*
X027353Y024480D01*
X027353Y023829D02*
X026954Y023829D01*
X026863Y023817D01*
X026774Y023794D01*
X026689Y023758D01*
X026609Y023712D01*
X026536Y023656D01*
X026471Y023591D01*
X026415Y023518D01*
X026369Y023438D01*
X026334Y023353D01*
X026310Y023264D01*
X026298Y023173D01*
X026298Y023127D01*
X027352Y023127D01*
X027352Y023127D01*
X026298Y023127D01*
X026298Y023081D01*
X026310Y022990D01*
X026334Y022901D01*
X026369Y022816D01*
X026415Y022736D01*
X026471Y022663D01*
X026536Y022598D01*
X026609Y022542D01*
X026689Y022496D01*
X026774Y022460D01*
X026863Y022436D01*
X026954Y022424D01*
X026979Y022424D01*
X026353Y021798D01*
X025853Y021798D01*
X025603Y021548D01*
X025603Y019802D01*
X023417Y017443D01*
X023365Y017390D01*
X023362Y017383D01*
X023357Y017377D01*
X023331Y017308D01*
X023303Y017240D01*
X023303Y017232D01*
X023300Y017224D01*
X023303Y017150D01*
X023303Y015048D01*
X015103Y015048D01*
X010353Y019798D01*
X016853Y019798D01*
X017047Y019993D02*
X025603Y019993D01*
X025318Y019494D02*
X010657Y019494D01*
X011155Y018996D02*
X024856Y018996D01*
X024394Y018497D02*
X011654Y018497D01*
X012152Y017999D02*
X023932Y017999D01*
X023471Y017500D02*
X012651Y017500D01*
X013149Y017002D02*
X023303Y017002D01*
X023303Y016503D02*
X013648Y016503D01*
X014146Y016004D02*
X023303Y016004D01*
X023303Y015506D02*
X014645Y015506D01*
X016152Y017999D02*
X016603Y017999D01*
X016603Y018497D02*
X015654Y018497D01*
X015155Y018996D02*
X016603Y018996D01*
X017546Y020491D02*
X025603Y020491D01*
X025603Y020990D02*
X018044Y020990D01*
X018543Y021488D02*
X025603Y021488D01*
X026542Y021987D02*
X024015Y021987D01*
X024051Y022008D02*
X024293Y022250D01*
X024464Y022546D01*
X024553Y022877D01*
X024553Y023219D01*
X024464Y023550D01*
X024293Y023846D01*
X024051Y024088D01*
X023755Y024260D01*
X023424Y024348D01*
X023082Y024348D01*
X022751Y024260D01*
X022455Y024088D01*
X022212Y023846D01*
X022041Y023550D01*
X021953Y023219D01*
X021953Y022877D01*
X022041Y022546D01*
X022212Y022250D01*
X022455Y022008D01*
X022751Y021837D01*
X023082Y021748D01*
X023424Y021748D01*
X023755Y021837D01*
X024051Y022008D01*
X024429Y022486D02*
X026713Y022486D01*
X026311Y022984D02*
X024553Y022984D01*
X024482Y023483D02*
X026394Y023483D01*
X027353Y023483D02*
X027353Y023483D01*
X027353Y023829D02*
X027353Y023127D01*
X027353Y023127D01*
X027993Y022486D02*
X029823Y022486D01*
X029823Y022984D02*
X028394Y022984D01*
X028311Y023483D02*
X029823Y023483D01*
X029823Y023981D02*
X024158Y023981D01*
X024753Y024978D02*
X026307Y024978D01*
X026409Y025477D02*
X025168Y025477D01*
X025584Y025975D02*
X029823Y025975D01*
X029603Y026298D02*
X029603Y034298D01*
X029353Y034048D01*
X028103Y034048D01*
X028353Y033798D01*
X028353Y033190D01*
X028388Y033105D01*
X028388Y032834D01*
X028353Y032749D01*
X028353Y031221D01*
X028388Y031137D01*
X028388Y030865D01*
X028353Y030781D01*
X028353Y029253D01*
X028388Y029168D01*
X028388Y028897D01*
X028353Y028812D01*
X028353Y027284D01*
X028388Y027200D01*
X028388Y026928D01*
X028353Y026844D01*
X028353Y026298D01*
X029603Y026298D01*
X029603Y026474D02*
X028353Y026474D01*
X028388Y026972D02*
X029603Y026972D01*
X029603Y027471D02*
X028353Y027471D01*
X028353Y027970D02*
X029603Y027970D01*
X029603Y028468D02*
X028353Y028468D01*
X028388Y028967D02*
X029603Y028967D01*
X029603Y029465D02*
X028353Y029465D01*
X028353Y029964D02*
X029603Y029964D01*
X029603Y030462D02*
X028353Y030462D01*
X028388Y030961D02*
X029603Y030961D01*
X029603Y031459D02*
X028353Y031459D01*
X028353Y031958D02*
X029603Y031958D01*
X029603Y032456D02*
X028353Y032456D01*
X028388Y032955D02*
X029603Y032955D01*
X029603Y033454D02*
X028353Y033454D01*
X028603Y033548D02*
X028103Y034048D01*
X024603Y034048D01*
X023853Y033298D01*
X023853Y031298D01*
X023603Y031048D01*
X021621Y031048D01*
X021823Y031250D01*
X021994Y031546D01*
X022083Y031877D01*
X022083Y032219D01*
X021994Y032550D01*
X021823Y032846D01*
X021581Y033088D01*
X021285Y033260D01*
X020954Y033348D01*
X020612Y033348D01*
X020281Y033260D01*
X019985Y033088D01*
X019742Y032846D01*
X019571Y032550D01*
X019483Y032219D01*
X019483Y031877D01*
X019571Y031546D01*
X019742Y031250D01*
X019944Y031048D01*
X019103Y031048D01*
X019103Y032548D01*
X018103Y033548D01*
X015433Y033548D01*
X015085Y033896D01*
X014949Y033952D01*
X024507Y033952D01*
X024008Y033454D02*
X018197Y033454D01*
X018696Y032955D02*
X019851Y032955D01*
X019546Y032456D02*
X019103Y032456D01*
X019103Y031958D02*
X019483Y031958D01*
X019622Y031459D02*
X019103Y031459D01*
X017473Y032548D02*
X017353Y032668D01*
X017353Y034048D01*
X006353Y034048D01*
X006353Y032798D01*
X006353Y032425D01*
X006353Y032298D01*
X006353Y031799D01*
X006353Y031799D01*
X006353Y032425D01*
X006353Y032798D01*
X006353Y032798D01*
X005603Y032548D01*
X002853Y030798D01*
X002335Y030961D02*
X005746Y030961D01*
X005741Y030945D02*
X005726Y030848D01*
X005726Y030798D01*
X005726Y030749D01*
X005736Y030682D01*
X005103Y030048D01*
X005103Y029117D01*
X005055Y029296D01*
X004885Y029590D01*
X004645Y029830D01*
X004351Y030000D01*
X004023Y030088D01*
X003683Y030088D01*
X003355Y030000D01*
X003061Y029830D01*
X002820Y029590D01*
X002651Y029296D01*
X002563Y028968D01*
X002563Y028628D01*
X002651Y028300D01*
X002820Y028006D01*
X003053Y027773D01*
X002603Y027548D01*
X002084Y027202D01*
X002235Y027354D01*
X002335Y027593D01*
X002335Y034394D01*
X003171Y034394D01*
X003061Y034330D01*
X002820Y034090D01*
X002651Y033796D01*
X002563Y033468D01*
X002563Y033128D01*
X002651Y032800D01*
X002820Y032506D01*
X003061Y032266D01*
X003355Y032096D01*
X003683Y032008D01*
X004023Y032008D01*
X004351Y032096D01*
X004645Y032266D01*
X004885Y032506D01*
X005055Y032800D01*
X005143Y033128D01*
X005143Y033468D01*
X005055Y033796D01*
X004885Y034090D01*
X004645Y034330D01*
X004534Y034394D01*
X029618Y034394D01*
X028603Y033548D01*
X028199Y033952D02*
X029603Y033952D01*
X029087Y033952D02*
X028199Y033952D01*
X023853Y032955D02*
X021714Y032955D01*
X022019Y032456D02*
X023853Y032456D01*
X023853Y031958D02*
X022083Y031958D01*
X021944Y031459D02*
X023853Y031459D01*
X027353Y025477D02*
X027353Y025477D01*
X028044Y024480D02*
X029823Y024480D01*
X029823Y024978D02*
X028398Y024978D01*
X028296Y025477D02*
X029823Y025477D01*
X029823Y021987D02*
X027914Y021987D01*
X028412Y021488D02*
X028736Y021488D01*
X028853Y021488D02*
X028853Y021488D01*
X028969Y021488D02*
X029823Y021488D01*
X029823Y020990D02*
X029488Y020990D01*
X029503Y020491D02*
X029823Y020491D01*
X029823Y019993D02*
X029450Y019993D01*
X029823Y019494D02*
X028925Y019494D01*
X028853Y019494D02*
X028853Y019494D01*
X028781Y019494D02*
X028603Y019494D01*
X028853Y018996D02*
X028853Y018996D01*
X028853Y018497D02*
X028853Y018497D01*
X028853Y017999D02*
X028853Y017999D01*
X028603Y017500D02*
X029823Y017500D01*
X029823Y017002D02*
X029485Y017002D01*
X029503Y016503D02*
X029823Y016503D01*
X029823Y016004D02*
X029455Y016004D01*
X029823Y015506D02*
X028603Y015506D01*
X028853Y016004D02*
X028853Y016004D01*
X028853Y016503D02*
X028853Y016503D01*
X028853Y017002D02*
X028853Y017002D01*
X029453Y017999D02*
X029823Y017999D01*
X029823Y018497D02*
X029503Y018497D01*
X029486Y018996D02*
X029823Y018996D01*
X028853Y019993D02*
X028853Y019993D01*
X028853Y020491D02*
X028853Y020491D01*
X028853Y020990D02*
X028853Y020990D01*
X027853Y020548D02*
X027853Y016548D01*
X028353Y015007D02*
X029823Y015007D01*
X029823Y014509D02*
X028763Y014509D01*
X028678Y014509D02*
X028528Y014509D01*
X028442Y014509D02*
X028353Y014509D01*
X028528Y014010D02*
X028678Y014010D01*
X028678Y013512D02*
X028528Y013512D01*
X028603Y013168D02*
X028353Y010548D01*
X029308Y012016D02*
X029823Y012016D01*
X029823Y012515D02*
X029784Y012515D01*
X029823Y014010D02*
X029658Y014010D01*
X029823Y010521D02*
X014853Y010521D01*
X014827Y010022D02*
X029823Y010022D01*
X029823Y009523D02*
X014328Y009523D01*
X013853Y009025D02*
X029823Y009025D01*
X029823Y008526D02*
X013853Y008526D01*
X013873Y008028D02*
X029823Y008028D01*
X029823Y007529D02*
X014372Y007529D01*
X014870Y007031D02*
X029823Y007031D01*
X029823Y006532D02*
X015369Y006532D01*
X015867Y006034D02*
X029823Y006034D01*
X029823Y005535D02*
X016366Y005535D01*
X016092Y003238D02*
X015443Y003238D01*
X016092Y003238D01*
X016092Y003238D01*
X016093Y003238D02*
X016093Y003238D01*
X016093Y002588D01*
X016362Y002588D01*
X016652Y002878D01*
X016922Y002608D01*
X017444Y002608D01*
X017709Y002873D01*
X017994Y002588D01*
X018263Y002588D01*
X018532Y002588D01*
X018808Y002864D01*
X019084Y002588D01*
X019353Y002588D01*
X019622Y002588D01*
X019912Y002878D01*
X020182Y002608D01*
X020704Y002608D01*
X020969Y002873D01*
X021254Y002588D01*
X021523Y002588D01*
X021792Y002588D01*
X022068Y002864D01*
X022344Y002588D01*
X022613Y002588D01*
X022882Y002588D01*
X023172Y002878D01*
X023442Y002608D01*
X023964Y002608D01*
X024229Y002873D01*
X024514Y002588D01*
X024783Y002588D01*
X025052Y002588D01*
X025328Y002864D01*
X025604Y002588D01*
X025873Y002588D01*
X025873Y003238D01*
X012833Y003238D01*
X012833Y002588D01*
X013102Y002588D01*
X013392Y002878D01*
X013662Y002608D01*
X014184Y002608D01*
X014449Y002873D01*
X014734Y002588D01*
X015003Y002588D01*
X015272Y002588D01*
X015548Y002864D01*
X015824Y002588D01*
X016093Y002588D01*
X016093Y003238D01*
X016093Y003042D02*
X016093Y003042D01*
X015443Y003238D02*
X015003Y003238D01*
X015003Y003238D01*
X015003Y002588D01*
X015003Y003238D01*
X015003Y003238D01*
X015443Y003238D01*
X015003Y003042D02*
X015003Y003042D01*
X012833Y003042D02*
X012833Y003042D01*
X012833Y003238D02*
X012833Y002588D01*
X012564Y002588D01*
X012183Y002969D01*
X012183Y003238D01*
X012832Y003238D01*
X012832Y003238D01*
X012183Y003238D01*
X012183Y003507D01*
X012564Y003888D01*
X012763Y003888D01*
X009103Y007548D01*
X006103Y007548D01*
X006103Y004798D01*
X005702Y004397D01*
X005737Y004336D01*
X005770Y004258D01*
X005792Y004175D01*
X005803Y004091D01*
X005803Y004048D01*
X004853Y004048D01*
X004853Y004048D01*
X004853Y003398D01*
X005195Y003398D01*
X005280Y003409D01*
X005362Y003431D01*
X005441Y003464D01*
X005515Y003507D01*
X005582Y003558D01*
X005642Y003619D01*
X005694Y003686D01*
X005737Y003760D01*
X005770Y003839D01*
X005792Y003921D01*
X005803Y004006D01*
X005803Y004048D01*
X005353Y004048D01*
X005353Y004048D01*
X004853Y004048D01*
X004853Y004048D01*
X001853Y004048D01*
X001853Y004048D01*
X002803Y004048D01*
X002803Y004006D01*
X002792Y003921D01*
X002770Y003839D01*
X002737Y003760D01*
X002694Y003686D01*
X002642Y003619D01*
X002582Y003558D01*
X002515Y003507D01*
X002441Y003464D01*
X002362Y003431D01*
X002280Y003409D01*
X002195Y003398D01*
X001853Y003398D01*
X001853Y004048D01*
X004852Y004048D01*
X003903Y004048D01*
X003903Y004006D01*
X003914Y003921D01*
X003936Y003839D01*
X003969Y003760D01*
X004011Y003686D01*
X004063Y003619D01*
X004123Y003558D01*
X004191Y003507D01*
X004265Y003464D01*
X004343Y003431D01*
X004426Y003409D01*
X004510Y003398D01*
X004853Y003398D01*
X004853Y004048D01*
X008103Y004048D01*
X009543Y001988D01*
X012833Y003238D01*
X012833Y003238D01*
X012183Y003042D02*
X011157Y003042D01*
X011133Y003000D02*
X011304Y003296D01*
X011393Y003627D01*
X011393Y003969D01*
X011304Y004300D01*
X011133Y004596D01*
X010891Y004838D01*
X010595Y005010D01*
X010264Y005098D01*
X009922Y005098D01*
X009591Y005010D01*
X009295Y004838D01*
X009052Y004596D01*
X008881Y004300D01*
X008793Y003969D01*
X008793Y003627D01*
X008881Y003296D01*
X009052Y003000D01*
X009295Y002758D01*
X009591Y002587D01*
X009922Y002498D01*
X010264Y002498D01*
X010595Y002587D01*
X010891Y002758D01*
X011133Y003000D01*
X011370Y003541D02*
X012216Y003541D01*
X012611Y004039D02*
X011374Y004039D01*
X011167Y004538D02*
X012113Y004538D01*
X011614Y005037D02*
X010494Y005037D01*
X011116Y005535D02*
X006103Y005535D01*
X006103Y006034D02*
X010617Y006034D01*
X010119Y006532D02*
X006103Y006532D01*
X006103Y007031D02*
X009620Y007031D01*
X009122Y007529D02*
X006103Y007529D01*
X004853Y007048D02*
X001853Y007048D01*
X000853Y008048D02*
X001267Y008463D01*
X001236Y008539D01*
X001214Y008621D01*
X001203Y008706D01*
X001203Y009048D01*
X001852Y009048D01*
X001852Y009048D01*
X001203Y009048D01*
X001203Y009391D01*
X001214Y009475D01*
X001236Y009558D01*
X001269Y009636D01*
X001311Y009710D01*
X001363Y009778D01*
X001423Y009838D01*
X001491Y009890D01*
X001565Y009932D01*
X001643Y009965D01*
X001726Y009987D01*
X001810Y009998D01*
X001853Y009998D01*
X001853Y009049D01*
X001853Y009049D01*
X001853Y009998D01*
X001895Y009998D01*
X001980Y009987D01*
X002062Y009965D01*
X002103Y009948D01*
X002103Y010048D01*
X002853Y010798D01*
X005853Y010798D01*
X006103Y011048D01*
X006103Y012548D01*
X004853Y013798D01*
X004853Y014298D01*
X006103Y015548D01*
X011103Y015548D01*
X011103Y015798D01*
X007853Y019048D01*
X005603Y019048D01*
X005353Y018798D01*
X005353Y017798D01*
X005279Y017724D01*
X005292Y017675D01*
X005303Y017591D01*
X005303Y017548D01*
X004603Y017548D01*
X005103Y017548D01*
X005103Y017548D01*
X005303Y017548D01*
X005303Y017506D01*
X005292Y017421D01*
X005270Y017339D01*
X005237Y017260D01*
X005194Y017186D01*
X005142Y017119D01*
X005082Y017058D01*
X005015Y017007D01*
X004941Y016964D01*
X004862Y016931D01*
X004780Y016909D01*
X004695Y016898D01*
X004353Y016898D01*
X004353Y017298D01*
X004353Y017298D01*
X004353Y017298D01*
X004353Y016898D01*
X004010Y016898D01*
X003926Y016909D01*
X003843Y016931D01*
X003765Y016964D01*
X003691Y017007D01*
X003623Y017058D01*
X003563Y017119D01*
X003511Y017186D01*
X003469Y017260D01*
X003453Y017298D01*
X002753Y017298D01*
X002737Y017260D01*
X002694Y017186D01*
X002642Y017119D01*
X002582Y017058D01*
X002515Y017007D01*
X002441Y016964D01*
X002362Y016931D01*
X002280Y016909D01*
X002195Y016898D01*
X001853Y016898D01*
X001853Y017298D01*
X001853Y017298D01*
X001853Y016898D01*
X001510Y016898D01*
X001426Y016909D01*
X001343Y016931D01*
X001265Y016964D01*
X001191Y017007D01*
X001123Y017058D01*
X001063Y017119D01*
X001011Y017186D01*
X000969Y017260D01*
X000953Y017298D01*
X000753Y017298D01*
X000753Y008148D01*
X000853Y008048D01*
X000853Y004048D01*
X001853Y004048D01*
X001853Y004048D01*
X001853Y003398D01*
X001510Y003398D01*
X001426Y003409D01*
X001343Y003431D01*
X001265Y003464D01*
X001191Y003507D01*
X001123Y003558D01*
X001063Y003619D01*
X001011Y003686D01*
X000969Y003760D01*
X000936Y003839D01*
X000914Y003921D01*
X000903Y004006D01*
X000903Y004048D01*
X001852Y004048D01*
X001852Y004048D01*
X000753Y004048D01*
X000753Y004039D02*
X000903Y004039D01*
X000753Y003541D02*
X001146Y003541D01*
X000753Y003042D02*
X009028Y003042D01*
X008816Y003541D02*
X005559Y003541D01*
X005803Y004039D02*
X008812Y004039D01*
X009019Y004538D02*
X005843Y004538D01*
X006103Y005037D02*
X009692Y005037D01*
X009751Y002544D02*
X000753Y002544D01*
X000753Y002045D02*
X029823Y002045D01*
X029823Y002544D02*
X028954Y002544D01*
X028271Y002544D02*
X010434Y002544D01*
X004853Y003541D02*
X004853Y003541D01*
X004853Y004039D02*
X004853Y004039D01*
X004852Y004048D02*
X004852Y004048D01*
X004146Y003541D02*
X002559Y003541D01*
X002803Y004039D02*
X003903Y004039D01*
X001853Y004039D02*
X001853Y004039D01*
X001853Y003541D02*
X001853Y003541D01*
X000853Y008048D02*
X001853Y009048D01*
X001853Y013048D01*
X004353Y015548D01*
X004353Y017548D01*
X001853Y017548D01*
X000853Y017548D01*
X000853Y022548D01*
X002853Y024548D01*
X001853Y024480D02*
X000853Y024480D01*
X000853Y024978D02*
X001853Y024978D01*
X001853Y025477D02*
X000853Y025477D01*
X000853Y025975D02*
X001853Y025975D01*
X001853Y026474D02*
X000853Y026474D01*
X000853Y026972D02*
X001853Y026972D01*
X002284Y027471D02*
X002487Y027471D01*
X002335Y027970D02*
X002857Y027970D01*
X002606Y028468D02*
X002335Y028468D01*
X002335Y028967D02*
X002563Y028967D01*
X002748Y029465D02*
X002335Y029465D01*
X002335Y029964D02*
X003292Y029964D01*
X002335Y030462D02*
X005517Y030462D01*
X005726Y030798D02*
X005853Y030798D01*
X006352Y030798D01*
X006352Y030798D01*
X005726Y030798D01*
X005853Y030798D02*
X005853Y030798D01*
X005741Y030945D02*
X005772Y031039D01*
X005816Y031127D01*
X005874Y031207D01*
X005944Y031277D01*
X005974Y031298D01*
X005944Y031320D01*
X005874Y031390D01*
X005816Y031469D01*
X005772Y031557D01*
X005741Y031651D01*
X005726Y031749D01*
X005726Y031798D01*
X006352Y031798D01*
X006352Y031798D01*
X005726Y031798D01*
X005726Y031848D01*
X005741Y031945D01*
X005772Y032039D01*
X005816Y032127D01*
X005874Y032207D01*
X005944Y032277D01*
X005974Y032298D01*
X005944Y032320D01*
X005874Y032390D01*
X005816Y032469D01*
X005772Y032557D01*
X005741Y032651D01*
X005726Y032749D01*
X005726Y032798D01*
X006352Y032798D01*
X006352Y032798D01*
X005726Y032798D01*
X005726Y032848D01*
X005741Y032945D01*
X005772Y033039D01*
X005816Y033127D01*
X005874Y033207D01*
X005944Y033277D01*
X006024Y033335D01*
X006112Y033379D01*
X006206Y033410D01*
X006303Y033425D01*
X006353Y033425D01*
X006353Y032799D01*
X006353Y032799D01*
X006353Y033425D01*
X006402Y033425D01*
X006500Y033410D01*
X006594Y033379D01*
X006681Y033335D01*
X006761Y033277D01*
X006831Y033207D01*
X006889Y033127D01*
X006903Y033099D01*
X007853Y034048D01*
X014853Y034048D01*
X014949Y033952D01*
X009353Y029548D02*
X009103Y029298D01*
X006353Y030798D02*
X006353Y031048D01*
X006353Y031798D01*
X005603Y032548D01*
X005826Y032456D02*
X004835Y032456D01*
X005096Y032955D02*
X005744Y032955D01*
X006353Y032955D02*
X006353Y032955D01*
X006353Y032456D02*
X006353Y032456D01*
X006353Y032298D02*
X006353Y032298D01*
X006353Y031958D02*
X006353Y031958D01*
X006353Y031798D02*
X006353Y030799D01*
X006353Y030799D01*
X006353Y031171D01*
X006353Y031798D01*
X006353Y031798D01*
X006353Y031459D02*
X006353Y031459D01*
X005824Y031459D02*
X002335Y031459D01*
X002335Y031958D02*
X005745Y031958D01*
X006353Y030961D02*
X006353Y030961D01*
X005103Y029964D02*
X004414Y029964D01*
X004957Y029465D02*
X005103Y029465D01*
X005103Y028479D02*
X005103Y027798D01*
X004677Y027798D01*
X004885Y028006D01*
X005055Y028300D01*
X005103Y028479D01*
X005100Y028468D02*
X005103Y028468D01*
X005103Y027970D02*
X004848Y027970D01*
X001920Y023981D02*
X000853Y023981D01*
X000853Y023483D02*
X002418Y023483D01*
X000853Y022984D02*
X008917Y022984D01*
X008103Y022984D01*
X008103Y022486D02*
X009415Y022486D01*
X000853Y022486D01*
X000853Y021987D02*
X009292Y021987D01*
X010103Y023048D02*
X012953Y023148D01*
X014353Y023148D01*
X013453Y023148D01*
X011353Y023048D01*
X010103Y023048D01*
X012853Y023048D01*
X012853Y022448D01*
X012853Y023048D02*
X011353Y023048D01*
X012853Y023048D02*
X014353Y023048D01*
X014353Y023148D01*
X013203Y021548D02*
X015853Y021548D01*
X016353Y022048D01*
X017253Y023948D02*
X017353Y024048D01*
X018537Y023483D02*
X022023Y023483D01*
X021953Y022984D02*
X018360Y022984D01*
X018415Y022486D02*
X022076Y022486D01*
X022491Y021987D02*
X018853Y021987D01*
X018853Y023981D02*
X022347Y023981D01*
X018853Y024480D02*
X026662Y024480D01*
X025603Y018595D02*
X024123Y016997D01*
X024123Y015048D01*
X024383Y015048D01*
X024383Y016226D01*
X024379Y016296D01*
X024383Y016308D01*
X024383Y016320D01*
X024410Y016384D01*
X024432Y016450D01*
X024441Y016459D01*
X024445Y016470D01*
X024494Y016520D01*
X025603Y017762D01*
X025603Y018595D01*
X025603Y018497D02*
X025512Y018497D01*
X025603Y017999D02*
X025050Y017999D01*
X025369Y017500D02*
X024588Y017500D01*
X024924Y017002D02*
X024127Y017002D01*
X024123Y016503D02*
X024478Y016503D01*
X024383Y016004D02*
X024123Y016004D01*
X024123Y015506D02*
X024383Y015506D01*
X025203Y015506D02*
X025603Y015506D01*
X025603Y015048D02*
X025203Y015048D01*
X025203Y016082D01*
X025603Y016531D01*
X025603Y015048D01*
X025603Y016004D02*
X025203Y016004D01*
X025578Y016503D02*
X025603Y016503D01*
X026114Y005037D02*
X028212Y005037D01*
X029014Y005037D02*
X029823Y005037D01*
X029823Y004538D02*
X029687Y004538D01*
X029677Y003042D02*
X029823Y003042D01*
X027548Y003042D02*
X026523Y003042D01*
X026489Y003541D02*
X027336Y003541D01*
X027332Y004039D02*
X026353Y004039D01*
X026353Y004538D02*
X027539Y004538D01*
X025872Y003238D02*
X025872Y003238D01*
X025223Y003238D01*
X024783Y003238D01*
X024783Y003238D01*
X024783Y002588D01*
X024783Y003238D01*
X024783Y003238D01*
X025223Y003238D01*
X025872Y003238D01*
X025873Y003042D02*
X025873Y003042D01*
X024783Y003042D02*
X024783Y003042D01*
X022613Y003042D02*
X022613Y003042D01*
X022613Y003238D02*
X022613Y002588D01*
X022613Y003238D01*
X022613Y003238D01*
X022612Y003238D02*
X022173Y003238D01*
X021523Y003238D01*
X021523Y003238D01*
X021523Y002588D01*
X021523Y003238D01*
X021523Y003238D01*
X022173Y003238D01*
X022612Y003238D01*
X022612Y003238D01*
X021523Y003042D02*
X021523Y003042D01*
X019353Y003042D02*
X019353Y003042D01*
X019353Y003238D02*
X019353Y002588D01*
X019353Y003238D01*
X019353Y003238D01*
X019352Y003238D02*
X018703Y003238D01*
X018263Y003238D01*
X018263Y003238D01*
X018263Y002588D01*
X018263Y003238D01*
X018263Y003238D01*
X018703Y003238D01*
X019352Y003238D01*
X019352Y003238D01*
X018263Y003042D02*
X018263Y003042D01*
X010896Y016004D02*
X000753Y016004D01*
X000753Y015506D02*
X006061Y015506D01*
X005562Y015007D02*
X000753Y015007D01*
X000753Y014509D02*
X003442Y014509D01*
X003404Y014505D02*
X003274Y014479D01*
X003147Y014441D01*
X003025Y014390D01*
X002908Y014327D01*
X002798Y014254D01*
X002695Y014170D01*
X002601Y014076D01*
X002517Y013973D01*
X002443Y013863D01*
X002381Y013746D01*
X002330Y013624D01*
X002292Y013497D01*
X002266Y013366D01*
X002254Y013243D01*
X003527Y013243D01*
X003527Y013093D01*
X002254Y013093D01*
X002266Y012970D01*
X002292Y012840D01*
X002330Y012713D01*
X002381Y012590D01*
X002443Y012473D01*
X002517Y012363D01*
X002601Y012260D01*
X002695Y012167D01*
X002798Y012083D01*
X002908Y012009D01*
X003025Y011946D01*
X003147Y011896D01*
X003274Y011857D01*
X003404Y011831D01*
X003528Y011819D01*
X003528Y013093D01*
X003678Y013093D01*
X003678Y013243D01*
X004952Y013243D01*
X004940Y013366D01*
X004914Y013497D01*
X004875Y013624D01*
X004825Y013746D01*
X004762Y013863D01*
X004688Y013973D01*
X004604Y014076D01*
X004510Y014170D01*
X004408Y014254D01*
X004298Y014327D01*
X004181Y014390D01*
X004058Y014441D01*
X003931Y014479D01*
X003801Y014505D01*
X003678Y014517D01*
X003678Y013243D01*
X003528Y013243D01*
X003528Y014517D01*
X003404Y014505D01*
X003528Y014509D02*
X003678Y014509D01*
X003763Y014509D02*
X005063Y014509D01*
X004853Y014010D02*
X004658Y014010D01*
X004909Y013512D02*
X005139Y013512D01*
X004952Y013093D02*
X003678Y013093D01*
X003678Y011819D01*
X003801Y011831D01*
X003931Y011857D01*
X004058Y011896D01*
X004181Y011946D01*
X004298Y012009D01*
X004408Y012083D01*
X004510Y012167D01*
X004604Y012260D01*
X004688Y012363D01*
X004762Y012473D01*
X004825Y012590D01*
X004875Y012713D01*
X004914Y012840D01*
X004940Y012970D01*
X004952Y013093D01*
X004944Y013013D02*
X005638Y013013D01*
X006103Y012515D02*
X004784Y012515D01*
X004308Y012016D02*
X006103Y012016D01*
X006103Y011518D02*
X000753Y011518D01*
X000753Y012016D02*
X002897Y012016D01*
X003528Y012016D02*
X003678Y012016D01*
X003678Y012515D02*
X003528Y012515D01*
X003528Y013013D02*
X003678Y013013D01*
X003603Y013168D02*
X001853Y013048D01*
X002261Y013013D02*
X000753Y013013D01*
X000753Y013512D02*
X002296Y013512D01*
X002547Y014010D02*
X000753Y014010D01*
X000753Y012515D02*
X002421Y012515D01*
X003528Y013512D02*
X003678Y013512D01*
X003678Y014010D02*
X003528Y014010D01*
X003699Y017002D02*
X002506Y017002D01*
X001853Y017002D02*
X001853Y017002D01*
X001199Y017002D02*
X000753Y017002D01*
X000753Y016503D02*
X010398Y016503D01*
X009899Y017002D02*
X005006Y017002D01*
X005302Y017500D02*
X009401Y017500D01*
X008902Y017999D02*
X005353Y017999D01*
X005353Y018497D02*
X008404Y018497D01*
X007905Y018996D02*
X005550Y018996D01*
X004603Y017548D02*
X004603Y017548D01*
X004353Y017002D02*
X004353Y017002D01*
X004353Y020548D02*
X009603Y020548D01*
X012853Y021648D02*
X013203Y021548D01*
X006074Y011019D02*
X000753Y011019D01*
X000753Y010521D02*
X002575Y010521D01*
X002103Y010022D02*
X000753Y010022D01*
X000753Y009523D02*
X001227Y009523D01*
X001203Y009025D02*
X000753Y009025D01*
X000753Y008526D02*
X001241Y008526D01*
X001853Y009523D02*
X001853Y009523D01*
X000948Y021488D02*
X000853Y021488D01*
X000853Y027471D02*
X001081Y027471D01*
X001031Y027970D02*
X000853Y027970D01*
X000853Y028468D02*
X001031Y028468D01*
X001031Y028967D02*
X000853Y028967D01*
X000853Y029465D02*
X001031Y029465D01*
X001031Y029964D02*
X000853Y029964D01*
X000853Y030462D02*
X001031Y030462D01*
X001031Y030961D02*
X000853Y030961D01*
X000853Y031459D02*
X001031Y031459D01*
X001031Y031958D02*
X000853Y031958D01*
X000853Y032456D02*
X001031Y032456D01*
X001031Y032955D02*
X000853Y032955D01*
X000853Y033454D02*
X001031Y033454D01*
X001031Y033952D02*
X000853Y033952D01*
X002335Y033952D02*
X002741Y033952D01*
X002563Y033454D02*
X002335Y033454D01*
X002335Y032955D02*
X002609Y032955D01*
X002870Y032456D02*
X002335Y032456D01*
X005143Y033454D02*
X007258Y033454D01*
X007757Y033952D02*
X004965Y033952D01*
D19*
X006353Y031048D02*
X006853Y030548D01*
X006853Y030048D01*
X007353Y029548D01*
X007353Y029298D01*
X007353Y032298D02*
X008603Y033548D01*
X014853Y033548D01*
X015313Y033088D01*
X015313Y032548D01*
X014773Y031548D02*
X014773Y029548D01*
X020853Y029548D01*
X020603Y028298D02*
X015103Y028298D01*
X013853Y027048D01*
X012853Y027048D01*
X013353Y027798D02*
X013353Y028548D01*
X013353Y027798D02*
X012103Y027798D01*
X011353Y027048D01*
X010103Y027048D02*
X010103Y027798D01*
X011353Y029048D01*
X015853Y029048D01*
X014773Y030968D02*
X014773Y031548D01*
X014773Y030968D02*
X013353Y029548D01*
X015603Y027048D02*
X019853Y027048D01*
X020853Y026048D01*
X020853Y028048D02*
X020603Y028298D01*
X024853Y028501D02*
X024853Y028048D01*
X024853Y028501D02*
X027353Y031001D01*
X027353Y032969D02*
X025274Y032969D01*
X024853Y032548D01*
X024853Y029548D01*
X026853Y020548D02*
X023713Y017158D01*
X023713Y013728D01*
X024793Y013728D02*
X024793Y016238D01*
X026853Y018548D01*
X026853Y016548D02*
X026853Y014828D01*
X025883Y013728D01*
X015553Y004358D02*
X011613Y010048D01*
X002853Y010048D01*
X002853Y009048D01*
X003853Y009048D02*
X010433Y009048D01*
X013373Y004358D01*
X013933Y013728D02*
X013683Y014218D01*
X008353Y019548D01*
X004353Y019548D01*
X004353Y018548D02*
X003603Y018548D01*
X003353Y018798D01*
X003353Y020048D01*
X008693Y020048D01*
X015013Y013728D01*
X002853Y024548D02*
X002853Y024798D01*
X001853Y024798D01*
X001853Y027048D01*
X002603Y027548D01*
X002603Y030798D01*
X002853Y030798D01*
D20*
X009603Y020548D03*
M02*
