M48
INCH
T49C0.128
T48C0.028
T47C0.038
T46C0.035
T45C0.125
T44C0.130
T43C0.060
T42C0.015
%
T49
X013800Y003200
X018300Y003200
T42
X021600Y015800
X019600Y015800
X019790Y024157
X021790Y024157
X042440Y021614
X042440Y023583
X042440Y025552
X042440Y027520
X042440Y029488
X042440Y031457
T48
X017800Y006700
X017300Y005700
X015800Y006700
X016300Y005700
X014800Y006700
X016800Y006700
X015300Y005700
X014300Y005700
T46
X027630Y022957
X028750Y023497
X028750Y022417
X028750Y021337
X028750Y020257
X027630Y021877
X027630Y020797
X027630Y019717
X027630Y018637
X037850Y013777
X037850Y012697
X037850Y011617
X037850Y010537
X037850Y017017
X037850Y015937
X036730Y016477
X037850Y014857
X036730Y015397
X036730Y014317
X036730Y013237
X036730Y012157
X036730Y011077
X037850Y009457
X037850Y008377
X037850Y007297
X036730Y009997
X036730Y008917
X036730Y007837
X036730Y006757
X036730Y005677
X036730Y004597
X037850Y006217
X037850Y005137
X037850Y004057
X004300Y012397
X004300Y013477
X003180Y012937
X003180Y014017
X004300Y014557
X004300Y015637
X004300Y016717
X003180Y015097
X003180Y016177
X028750Y019177
X028750Y018097
X028750Y017017
X028750Y015937
X028750Y014857
X028750Y013777
X028750Y012697
X028750Y011617
X028750Y010537
X028750Y009457
X028750Y008377
X028750Y007297
X028750Y006217
X028750Y005137
X028750Y004057
X027630Y017557
X027630Y016477
X027630Y015397
X027630Y014317
X027630Y013237
X027630Y012157
X027630Y011077
X027630Y009997
X027630Y008917
X027630Y007837
X027630Y006757
X027630Y005677
X027630Y004597
X028490Y028257
X022590Y027557
T47
X043190Y017957
X043190Y018957
X042190Y017957
X042190Y018957
X042190Y014957
X042190Y013957
X042190Y010457
X042190Y015957
X043190Y015957
X042190Y016957
X043190Y016957
X043190Y013957
X043190Y014957
X043190Y010457
X043190Y019957
X042190Y019957
X043190Y002457
X043190Y003457
X043190Y004457
X042190Y002457
X042190Y006457
X042190Y005457
X042190Y004457
X042190Y003457
X042190Y007457
X043190Y005457
X043190Y006457
X043190Y007457
X043190Y008457
X043190Y009457
X042190Y009457
X042190Y008457
T43
X018200Y018800
X018200Y019800
X018200Y020800
T45
X003740Y019417
X028190Y026197
X037290Y019717
X037290Y001357
X003740Y009697
X028190Y001357
T44
X011500Y019800
M30
