G04 start of page 7 for group -4062 idx -4062 *
G04 Title: combined, soldermask *
G04 Creator: pcb 20110918 *
G04 CreationDate: Tue 12 Jun 2012 05:40:10 PM GMT UTC *
G04 For: ed *
G04 Format: Gerber/RS-274X *
G04 PCB-Dimensions: 650000 650000 *
G04 PCB-Coordinate-Origin: lower left *
%MOIN*%
%FSLAX25Y25*%
%LNBOTTOMMASK*%
%ADD112R,0.0355X0.0355*%
%ADD111C,0.0400*%
%ADD110C,0.1500*%
%ADD109C,0.0780*%
%ADD108C,0.0740*%
%ADD107C,0.0610*%
%ADD106C,0.0960*%
%ADD105C,0.1560*%
%ADD104C,0.1280*%
%ADD103C,0.0600*%
%ADD102C,0.0860*%
%ADD101C,0.0001*%
%ADD100C,0.2560*%
%ADD99C,0.0660*%
G54D99*X544630Y578500D03*
X555430D03*
X566230D03*
X577030D03*
X587830D03*
X598630D03*
X609430D03*
G54D100*X636430Y572900D03*
G54D99*X539230Y567300D03*
X550030D03*
X560830D03*
X571630D03*
X582430D03*
X593230D03*
X604030D03*
G54D101*G36*
X572130Y635200D02*Y628600D01*
X578730D01*
Y635200D01*
X572130D01*
G37*
G54D99*X575430Y621900D03*
X585430Y631900D03*
Y621900D03*
X565430Y631900D03*
Y621900D03*
X555430Y631900D03*
Y621900D03*
G54D101*G36*
X612130Y635200D02*Y628600D01*
X618730D01*
Y635200D01*
X612130D01*
G37*
G54D99*X605430Y631900D03*
X595430D03*
Y621900D03*
X605430D03*
X615430D03*
X625430D03*
G54D101*G36*
X622130Y635200D02*Y628600D01*
X628730D01*
Y635200D01*
X622130D01*
G37*
G54D99*X545430Y631900D03*
Y621900D03*
G54D101*G36*
X497130Y635200D02*Y628600D01*
X503730D01*
Y635200D01*
X497130D01*
G37*
G36*
X507130D02*Y628600D01*
X513730D01*
Y635200D01*
X507130D01*
G37*
G54D99*X510430Y621900D03*
G54D101*G36*
X497130Y625200D02*Y618600D01*
X503730D01*
Y625200D01*
X497130D01*
G37*
G54D99*X490430Y631900D03*
X480430D03*
X490430Y621900D03*
X480430D03*
G54D101*G36*
X467130Y625200D02*Y618600D01*
X473730D01*
Y625200D01*
X467130D01*
G37*
G36*
Y635200D02*Y628600D01*
X473730D01*
Y635200D01*
X467130D01*
G37*
G54D99*X460430Y621900D03*
X450430D03*
X460430Y631900D03*
X450430D03*
G54D102*X394485Y624400D03*
X374800D03*
X355115D03*
X335430D03*
X433856D03*
X414171D03*
G54D99*X512230Y578500D03*
X523030D03*
X533830D03*
G54D101*G36*
X476530Y581800D02*Y575200D01*
X483130D01*
Y581800D01*
X476530D01*
G37*
G54D99*X490630Y578500D03*
X501430D03*
X485230Y567300D03*
X496030D03*
X506830D03*
X517630D03*
X528430D03*
G54D100*X452830Y572900D03*
G54D99*X479830Y487500D03*
X490630D03*
X501430D03*
X512230D03*
X523030D03*
X533830D03*
X544630D03*
X555430D03*
X566230D03*
X577030D03*
G54D101*G36*
X411730Y490800D02*Y484200D01*
X418330D01*
Y490800D01*
X411730D01*
G37*
G54D99*X425830Y487500D03*
X436630D03*
X447430D03*
X458230D03*
X469030D03*
X420430Y476300D03*
X431230D03*
X442030D03*
X452830D03*
X463630D03*
X474430D03*
G54D100*X388030Y481900D03*
G54D99*X485230Y476300D03*
X496030D03*
X506830D03*
X517630D03*
X528430D03*
X539230D03*
X550030D03*
X560830D03*
X571630D03*
X582430D03*
X593230D03*
X604030D03*
G54D100*X636430Y481900D03*
G54D99*X587830Y487500D03*
X598630D03*
X609430D03*
G54D103*X583000Y378000D03*
X593000Y373000D03*
X583000Y358000D03*
X593000Y353000D03*
Y363000D03*
X583000Y368000D03*
G54D101*G36*
X590000Y346000D02*Y340000D01*
X596000D01*
Y346000D01*
X590000D01*
G37*
G54D103*X583000Y348000D03*
G54D104*X618000Y338000D03*
Y383000D03*
G54D101*G36*
X522730Y246300D02*Y239700D01*
X529330D01*
Y246300D01*
X522730D01*
G37*
G54D99*X515230Y243000D03*
X520630Y231800D03*
X509830D03*
X504430Y243000D03*
X493630D03*
X482830D03*
X499030Y231800D03*
X488230D03*
G54D100*X455830Y237400D03*
G54D105*X452000Y315000D03*
G54D100*X553030Y237400D03*
G54D101*G36*
X457200Y386800D02*Y377200D01*
X466800D01*
Y386800D01*
X457200D01*
G37*
G54D106*X452000Y382000D03*
X442000D03*
G54D102*X408430Y417900D03*
Y397900D03*
X492000Y416000D03*
Y396000D03*
G54D101*G36*
X583700Y120790D02*Y114190D01*
X590300D01*
Y120790D01*
X583700D01*
G37*
G54D99*X587000Y107490D03*
Y97490D03*
Y87490D03*
Y77490D03*
Y67490D03*
Y57490D03*
Y47490D03*
Y37490D03*
Y27490D03*
X617000D03*
Y37490D03*
Y47490D03*
Y57490D03*
Y67490D03*
Y77490D03*
Y87490D03*
Y97490D03*
Y107490D03*
Y117490D03*
G54D101*G36*
X481700Y120790D02*Y114190D01*
X488300D01*
Y120790D01*
X481700D01*
G37*
G54D99*X485000Y107490D03*
Y97490D03*
Y87490D03*
Y77490D03*
Y67490D03*
Y57490D03*
Y47490D03*
Y37490D03*
Y27490D03*
X515000D03*
Y37490D03*
Y47490D03*
Y57490D03*
Y67490D03*
Y77490D03*
Y87490D03*
Y97490D03*
Y107490D03*
Y117490D03*
G54D101*G36*
X310210Y136300D02*Y129700D01*
X316810D01*
Y136300D01*
X310210D01*
G37*
G54D99*X323510Y133000D03*
X333510D03*
X343510D03*
X353510D03*
X363510D03*
X373510D03*
X383510D03*
X393510D03*
X403510D03*
Y163000D03*
X393510D03*
X383510D03*
X373510D03*
X363510D03*
X353510D03*
X343510D03*
X333510D03*
X323510D03*
X313510D03*
G54D101*G36*
X310210Y42300D02*Y35700D01*
X316810D01*
Y42300D01*
X310210D01*
G37*
G54D99*X323510Y39000D03*
X333510D03*
X343510D03*
X353510D03*
X363510D03*
X373510D03*
X383510D03*
X393510D03*
X403510D03*
Y69000D03*
X393510D03*
X383510D03*
X373510D03*
X363510D03*
X353510D03*
X343510D03*
X333510D03*
X323510D03*
X313510D03*
X171000Y333000D03*
X161000D03*
Y303000D03*
X171000D03*
G54D101*G36*
X145950Y356050D02*Y349950D01*
X152050D01*
Y356050D01*
X145950D01*
G37*
G54D107*X149000Y303000D03*
G54D101*G36*
X109200Y333800D02*Y324200D01*
X118800D01*
Y333800D01*
X109200D01*
G37*
G36*
X107300Y289700D02*Y282300D01*
X114700D01*
Y289700D01*
X107300D01*
G37*
G54D106*X124000Y329000D03*
X134000D03*
G54D102*X82000Y258000D03*
G54D101*G36*
X13700Y271300D02*Y264700D01*
X20300D01*
Y271300D01*
X13700D01*
G37*
G54D99*X17000Y258000D03*
G54D102*X42315D03*
X62000D03*
G54D101*G36*
X78700Y301300D02*Y294700D01*
X85300D01*
Y301300D01*
X78700D01*
G37*
G54D99*X82000Y328000D03*
G54D101*G36*
X63950Y313550D02*Y307450D01*
X70050D01*
Y313550D01*
X63950D01*
G37*
G54D107*X67000Y360500D03*
G54D99*X92000Y298000D03*
Y328000D03*
X102000Y298000D03*
Y328000D03*
G54D108*X71000Y286000D03*
G54D102*X202315Y258000D03*
X182000D03*
X101685D03*
X122315D03*
X142000D03*
X162315D03*
G54D101*G36*
X152300Y230300D02*Y223700D01*
X158900D01*
Y230300D01*
X152300D01*
G37*
G54D99*X147700Y227000D03*
X139800D03*
X131900D03*
X124000D03*
X116100D03*
X108200D03*
X100300D03*
X92400D03*
X84500D03*
G54D101*G36*
X191700Y315300D02*Y306700D01*
X200300D01*
Y315300D01*
X191700D01*
G37*
G36*
X192700Y343300D02*Y336700D01*
X199300D01*
Y343300D01*
X192700D01*
G37*
G54D99*X206000Y340000D03*
G54D102*X222000Y258000D03*
X246000Y311000D03*
G54D101*G36*
X242700Y333300D02*Y326700D01*
X249300D01*
Y333300D01*
X242700D01*
G37*
G54D99*X236000Y330000D03*
G54D101*G36*
X217200Y355800D02*Y346200D01*
X226800D01*
Y355800D01*
X217200D01*
G37*
G54D106*X232000Y351000D03*
X242000D03*
G54D101*G36*
X177700Y336300D02*Y329700D01*
X184300D01*
Y336300D01*
X177700D01*
G37*
G54D99*X181000Y303000D03*
G54D101*G36*
X178100Y373900D02*Y366100D01*
X185900D01*
Y373900D01*
X178100D01*
G37*
G54D109*X182000Y380000D03*
Y390000D03*
G54D105*X232000Y418000D03*
G54D101*G36*
X108700Y491300D02*Y484700D01*
X115300D01*
Y491300D01*
X108700D01*
G37*
G54D99*X112000Y478000D03*
Y468000D03*
Y458000D03*
Y448000D03*
X142000D03*
Y458000D03*
Y468000D03*
Y478000D03*
Y488000D03*
X112000Y438000D03*
X142000D03*
X112000Y428000D03*
X142000D03*
G54D105*X124000Y396000D03*
G54D101*G36*
X88700Y627100D02*Y620500D01*
X95300D01*
Y627100D01*
X88700D01*
G37*
G54D99*X92000Y615900D03*
Y608000D03*
Y600100D03*
Y592200D03*
Y584300D03*
Y576400D03*
Y568500D03*
Y560600D03*
Y552700D03*
X178600Y623800D03*
Y615900D03*
Y608000D03*
Y600100D03*
Y592200D03*
Y584300D03*
Y576400D03*
Y568500D03*
Y560600D03*
Y552700D03*
X155600Y140400D03*
X147700D03*
X139800D03*
X131900D03*
X124000D03*
X116100D03*
X108200D03*
X100300D03*
G54D101*G36*
X190700Y120300D02*Y113700D01*
X197300D01*
Y120300D01*
X190700D01*
G37*
G54D99*X194000Y127000D03*
G54D101*G36*
X111000Y120000D02*Y114000D01*
X117000D01*
Y120000D01*
X111000D01*
G37*
G54D103*X104000Y117000D03*
G54D99*X92400Y140400D03*
G54D101*G36*
X100100Y70900D02*Y63100D01*
X107900D01*
Y70900D01*
X100100D01*
G37*
G54D109*X104000Y77000D03*
Y87000D03*
G54D99*X84500Y140400D03*
G54D101*G36*
X81000Y120000D02*Y114000D01*
X87000D01*
Y120000D01*
X81000D01*
G37*
G54D103*X74000Y117000D03*
G54D101*G36*
X51000Y120000D02*Y114000D01*
X57000D01*
Y120000D01*
X51000D01*
G37*
G54D103*X44000Y117000D03*
G54D101*G36*
X40100Y70900D02*Y63100D01*
X47900D01*
Y70900D01*
X40100D01*
G37*
G54D109*X44000Y77000D03*
Y87000D03*
G54D101*G36*
X70100Y70900D02*Y63100D01*
X77900D01*
Y70900D01*
X70100D01*
G37*
G54D109*X74000Y77000D03*
Y87000D03*
G54D101*G36*
X140700Y90300D02*Y83700D01*
X147300D01*
Y90300D01*
X140700D01*
G37*
G54D99*X144000Y77000D03*
Y67000D03*
Y57000D03*
Y47000D03*
Y37000D03*
Y27000D03*
Y17000D03*
X174000D03*
Y27000D03*
Y37000D03*
Y47000D03*
Y57000D03*
Y67000D03*
Y77000D03*
Y87000D03*
G54D101*G36*
X22450Y145550D02*Y139450D01*
X28550D01*
Y145550D01*
X22450D01*
G37*
G54D107*X25500Y172500D03*
G54D101*G36*
X21000Y120000D02*Y114000D01*
X27000D01*
Y120000D01*
X21000D01*
G37*
G36*
X10100Y70900D02*Y63100D01*
X17900D01*
Y70900D01*
X10100D01*
G37*
G54D109*X14000Y77000D03*
Y87000D03*
G54D101*G36*
X7200Y170300D02*Y163700D01*
X13800D01*
Y170300D01*
X7200D01*
G37*
G36*
X6700Y204300D02*Y197700D01*
X13300D01*
Y204300D01*
X6700D01*
G37*
G54D99*X10000Y191000D03*
Y181000D03*
X10500Y157000D03*
G54D103*X14000Y117000D03*
G54D110*X223000Y448000D03*
X41000D03*
Y566000D03*
X223000D03*
X41000Y290000D03*
X223000D03*
G54D103*X59000Y81000D03*
G54D110*X37500Y9000D03*
Y229000D03*
G54D103*X374430Y425900D03*
X367430Y484900D03*
G54D111*X586000Y288000D03*
X552000Y289000D03*
X521000Y632000D03*
X497000Y279000D03*
X504000D03*
X481000Y275000D03*
X520000Y278000D03*
X540500Y55500D03*
Y39500D03*
Y31500D03*
Y47500D03*
Y95500D03*
Y79500D03*
Y71500D03*
Y63500D03*
Y87500D03*
X454000Y71500D03*
Y63500D03*
Y55500D03*
Y47500D03*
Y39500D03*
Y31500D03*
G54D110*X267500Y9000D03*
G54D111*X327500Y8000D03*
X335500D03*
X351500D03*
X343500D03*
X359500D03*
X391500D03*
X399500D03*
X367500D03*
X375500D03*
X383500D03*
X367500Y102000D03*
X375500D03*
X367500Y94500D03*
X375500D03*
X351500Y102000D03*
X359500D03*
X351500Y94500D03*
X359500D03*
X343500Y102000D03*
Y94500D03*
X383500Y102000D03*
Y94500D03*
X391500Y102000D03*
Y94500D03*
X399500Y102000D03*
Y94500D03*
X327500Y102000D03*
X335500D03*
X327500Y94500D03*
X335500D03*
X351500Y188500D03*
X343500D03*
X375500D03*
X391500D03*
X399500D03*
X383500D03*
X367500D03*
X327500D03*
G54D110*X267500Y229000D03*
G54D111*X335500Y188500D03*
X359500D03*
X642500Y103500D03*
Y95500D03*
Y87500D03*
Y39500D03*
Y79500D03*
Y71500D03*
Y63500D03*
Y55500D03*
Y31500D03*
Y47500D03*
X454000Y103500D03*
Y95500D03*
Y79500D03*
Y87500D03*
X556000Y103500D03*
Y95500D03*
X540500Y103500D03*
X556000Y55500D03*
Y47500D03*
Y39500D03*
Y31500D03*
Y79500D03*
Y87500D03*
Y71500D03*
Y63500D03*
G54D112*X126882Y415984D02*Y415000D01*
X132000Y415984D02*Y415000D01*
M02*
