M48
INCH
T83C0.120
T82C0.100
T81C0.260
T80C0.042
T79C0.020
T78C0.030
T77C0.060
T76C0.130
T75C0.028
T74C0.015
T73C0.038
T72C0.125
T71C0.035
%
T74
X039448Y062440
X037480Y062440
X035512Y062440
X033543Y062440
X043386Y062440
X041417Y062440
X040843Y041790
X040843Y039790
X049200Y041600
X049200Y039600
X008200Y025800
X004232Y025800
X006200Y025800
X020232Y025800
X018200Y025800
X010168Y025800
X012232Y025800
X014200Y025800
X016232Y025800
X022200Y025800
T79
X019600Y031100
X024600Y031100
X058600Y028800
X055200Y028900
X052100Y063200
X049700Y027900
X050400Y027900
X048100Y027500
X052000Y027800
X054050Y005550
X054050Y003950
X054050Y003150
X054050Y004750
X054050Y009550
X054050Y007950
X054050Y007150
X054050Y006350
X054050Y008750
X045400Y007150
X045400Y006350
X045400Y005550
X045400Y004750
X045400Y003950
X045400Y003150
X032750Y000800
X033550Y000800
X035150Y000800
X034350Y000800
X035950Y000800
X039150Y000800
X039950Y000800
X036750Y000800
X037550Y000800
X038350Y000800
X036750Y010200
X037550Y010200
X036750Y009450
X037550Y009450
X035150Y010200
X035950Y010200
X035150Y009450
X035950Y009450
X034350Y010200
X034350Y009450
X038350Y010200
X038350Y009450
X039150Y010200
X039150Y009450
X039950Y010200
X039950Y009450
X032750Y010200
X033550Y010200
X032750Y009450
X033550Y009450
X035150Y018850
X034350Y018850
X037550Y018850
X039150Y018850
X039950Y018850
X038350Y018850
X036750Y018850
X032750Y018850
X033550Y018850
X035950Y018850
X064250Y010350
X064250Y009550
X064250Y008750
X064250Y003950
X064250Y007950
X064250Y007150
X064250Y006350
X064250Y005550
X064250Y003150
X064250Y004750
X045400Y010350
X045400Y009550
X045400Y007950
X045400Y008750
X055600Y010350
X055600Y009550
X054050Y010350
X055600Y005550
X055600Y004750
X055600Y003950
X055600Y003150
X055600Y007950
X055600Y008750
X055600Y007150
X055600Y006350
T75
X058300Y037800
X059300Y037300
X058300Y035800
X059300Y035300
X059300Y036300
X058300Y036800
X059300Y034300
X058300Y034800
X058700Y011749
X058700Y010749
X058700Y009749
X058700Y008749
X058700Y007749
X058700Y006749
X058700Y005749
X058700Y004749
X058700Y003749
X058700Y002749
X061700Y002749
X061700Y003749
X061700Y004749
X061700Y005749
X061700Y006749
X061700Y007749
X061700Y008749
X061700Y009749
X061700Y010749
X061700Y011749
X048500Y011749
X048500Y010749
X048500Y009749
X048500Y008749
X048500Y007749
X048500Y006749
X048500Y005749
X048500Y004749
X048500Y003749
X048500Y002749
X051500Y002749
X051500Y003749
X051500Y004749
X051500Y005749
X051500Y006749
X051500Y007749
X051500Y008749
X051500Y009749
X051500Y010749
X051500Y011749
X031351Y013300
X032351Y013300
X033351Y013300
X034351Y013300
X035351Y013300
X036351Y013300
X037351Y013300
X038351Y013300
X039351Y013300
X040351Y013300
X040351Y016300
X039351Y016300
X038351Y016300
X037351Y016300
X036351Y016300
X035351Y016300
X034351Y016300
X033351Y016300
X032351Y016300
X031351Y016300
X031351Y003900
X032351Y003900
X033351Y003900
X034351Y003900
X035351Y003900
X036351Y003900
X037351Y003900
X038351Y003900
X039351Y003900
X040351Y003900
X040351Y006900
X039351Y006900
X038351Y006900
X037351Y006900
X036351Y006900
X035351Y006900
X034351Y006900
X033351Y006900
X032351Y006900
X031351Y006900
X017100Y033300
X016100Y033300
X016100Y030300
X017100Y030300
X008200Y029800
X008200Y032800
X009200Y029800
X009200Y032800
X010200Y029800
X010200Y032800
X018100Y033300
X018100Y030300
X011200Y048800
X011200Y047800
X011200Y046800
X011200Y045800
X011200Y044800
X014200Y044800
X014200Y045800
X014200Y046800
X014200Y047800
X014200Y048800
X011200Y043800
X014200Y043800
X011200Y042800
X014200Y042800
X011400Y011700
X010400Y011700
X008400Y011700
X007400Y011700
X005400Y011700
X004400Y011700
X014400Y008700
X014400Y007700
X014400Y006700
X014400Y005700
X014400Y004700
X014400Y003700
X014400Y002700
X014400Y001700
X017400Y001700
X017400Y002700
X017400Y003700
X017400Y004700
X017400Y005700
X017400Y006700
X017400Y007700
X017400Y008700
X002400Y011700
X001400Y011700
T78
X014900Y035300
X014900Y030300
X006700Y031050
X006700Y036050
X019600Y034000
X020600Y034000
X024600Y033000
X023600Y033000
X002550Y014250
X002550Y017250
T71
X054463Y057850
X055543Y057850
X056623Y057850
X057703Y057850
X058783Y057850
X059863Y057850
X060943Y057850
X053923Y056730
X055003Y056730
X056083Y056730
X057163Y056730
X058243Y056730
X059323Y056730
X060403Y056730
X051223Y057850
X052303Y057850
X053383Y057850
X047983Y057850
X049063Y057850
X050143Y057850
X048523Y056730
X049603Y056730
X050683Y056730
X051763Y056730
X052843Y056730
X047983Y048750
X049063Y048750
X050143Y048750
X051223Y048750
X052303Y048750
X053383Y048750
X054463Y048750
X055543Y048750
X056623Y048750
X057703Y048750
X041503Y048750
X042583Y048750
X043663Y048750
X044743Y048750
X045823Y048750
X046903Y048750
X042043Y047630
X043123Y047630
X044203Y047630
X045283Y047630
X046363Y047630
X047443Y047630
X048523Y047630
X049603Y047630
X050683Y047630
X051763Y047630
X052843Y047630
X053923Y047630
X055003Y047630
X056083Y047630
X057163Y047630
X058243Y047630
X059323Y047630
X060403Y047630
X058783Y048750
X059863Y048750
X060943Y048750
X052603Y024300
X051523Y024300
X052063Y023180
X050983Y023180
X050443Y024300
X049363Y024300
X048283Y024300
X049903Y023180
X048823Y023180
X005900Y008100
X037443Y042590
X036743Y048490
T73
X057543Y063190
X057543Y062190
X058543Y063190
X058543Y062190
X056543Y063190
X056543Y062190
X055543Y063190
X055543Y062190
X061543Y063190
X060543Y063190
X059543Y063190
X059543Y062190
X060543Y062190
X061543Y062190
X062543Y062190
X062543Y063190
X054543Y063190
X054543Y062190
X050043Y063190
X051043Y063190
X051043Y062190
X050043Y062190
X049043Y063190
X048043Y063190
X049043Y062190
X048043Y062190
X047043Y062190
X047043Y063190
X046043Y062190
X045043Y062190
X046043Y063190
X045043Y063190
X011100Y028600
X001700Y026800
X001700Y025800
X007100Y028600
X015560Y022700
X014770Y022700
X013980Y022700
X013190Y022700
X012400Y022700
X011610Y022700
X010820Y022700
X010030Y022700
X009240Y022700
X008450Y022700
X009200Y062380
X009200Y061590
X009200Y060800
X009200Y060010
X009200Y059220
X009200Y058430
X009200Y057640
X009200Y056850
X009200Y056060
X009200Y055270
X017860Y062380
X017860Y061590
X017860Y060800
X017860Y060010
X017860Y059220
X017860Y058430
X017860Y057640
X017860Y056850
X017860Y056060
X017860Y055270
X015560Y014040
X014770Y014040
X013980Y014040
X013190Y014040
X012400Y014040
X011610Y014040
X010820Y014040
X010030Y014040
X019400Y011700
X019400Y012700
X009240Y014040
X008450Y014040
X001050Y016700
X001000Y020100
X001000Y019100
X001000Y018100
X001050Y015700
T80
X018200Y037000
X018200Y038000
X018200Y039000
X010400Y006700
X010400Y007700
X010400Y008700
X004400Y006700
X004400Y007700
X004400Y008700
X007400Y006700
X007400Y007700
X007400Y008700
X001400Y006700
X001400Y007700
X001400Y008700
T77
X046200Y038200
X045200Y038200
X044200Y038200
X011400Y032900
X012400Y032900
X013400Y032900
X022200Y035100
X023200Y035100
X024200Y035100
T82
X022300Y044800
X004100Y044800
X004100Y056600
X022300Y056600
X004100Y029000
X022300Y029000
T83
X003750Y000900
X003750Y022900
X026750Y000900
X026750Y022900
T72
X063643Y057290
X045283Y057290
X038803Y048190
X063643Y048190
X045583Y023740
X055303Y023740
T76
X045200Y031500
X023200Y041800
X012400Y039600
T81
X002200Y047200
X024200Y047200
M30
