G04 start of page 9 for group -4078 idx -4078 *
G04 Title: combined, bottomsilk *
G04 Creator: pcb 20110918 *
G04 CreationDate: Tue 12 Jun 2012 05:40:10 PM GMT UTC *
G04 For: ed *
G04 Format: Gerber/RS-274X *
G04 PCB-Dimensions: 650000 650000 *
G04 PCB-Coordinate-Origin: lower left *
%MOIN*%
%FSLAX25Y25*%
%LNBOTTOMSILK*%
%ADD120C,0.0200*%
%ADD119C,0.0100*%
G54D119*X648430Y539400D02*Y536400D01*
X440830Y539400D02*X648430D01*
X440830D02*Y536400D01*
X648430D01*
X642430Y539400D02*Y536400D01*
X630430Y539400D02*Y536400D01*
X446830Y539400D02*Y536400D01*
X458830Y539400D02*Y536400D01*
G54D120*X625430Y549900D02*Y539400D01*
X463830Y549900D02*X625430D01*
X463830D02*Y539400D01*
G54D119*X625430D01*
G54D120*X479830Y574500D02*Y549900D01*
X490630Y574500D02*Y549900D01*
X501430Y574500D02*Y549900D01*
X512230Y574500D02*Y549900D01*
X523030Y574500D02*Y549900D01*
X533830Y574500D02*Y549900D01*
X544630Y574500D02*Y549900D01*
X555430Y574500D02*Y549900D01*
X566230Y574500D02*Y549900D01*
X577030Y574500D02*Y549900D01*
X587830Y574500D02*Y549900D01*
X598630Y574500D02*Y549900D01*
X609430Y574500D02*Y549900D01*
X485230Y563300D02*Y549900D01*
X496030Y563300D02*Y549900D01*
X506830Y563300D02*Y549900D01*
X517630Y563300D02*Y549900D01*
X528430Y563300D02*Y549900D01*
X539230Y563300D02*Y549900D01*
X550030Y563300D02*Y549900D01*
X560830Y563300D02*Y549900D01*
X571630Y563300D02*Y549900D01*
X582430Y563300D02*Y549900D01*
X593230Y563300D02*Y549900D01*
X604030Y563300D02*Y549900D01*
G54D119*X648430Y448400D02*Y445400D01*
X376030Y448400D02*X648430D01*
X376030D02*Y445400D01*
X648430D01*
X642430Y448400D02*Y445400D01*
X630430Y448400D02*Y445400D01*
X382030Y448400D02*Y445400D01*
X394030Y448400D02*Y445400D01*
G54D120*X625430Y458900D02*Y448400D01*
X399030Y458900D02*X625430D01*
X399030D02*Y448400D01*
G54D119*X625430D01*
G54D120*X415030Y483500D02*Y458900D01*
X425830Y483500D02*Y458900D01*
X436630Y483500D02*Y458900D01*
X447430Y483500D02*Y458900D01*
X458230Y483500D02*Y458900D01*
X469030Y483500D02*Y458900D01*
X479830Y483500D02*Y458900D01*
X490630Y483500D02*Y458900D01*
X501430Y483500D02*Y458900D01*
X512230Y483500D02*Y458900D01*
X523030Y483500D02*Y458900D01*
X533830Y483500D02*Y458900D01*
X544630Y483500D02*Y458900D01*
X555430Y483500D02*Y458900D01*
X566230Y483500D02*Y458900D01*
X577030Y483500D02*Y458900D01*
X587830Y483500D02*Y458900D01*
X598630Y483500D02*Y458900D01*
X609430Y483500D02*Y458900D01*
X420430Y472300D02*Y458900D01*
X431230Y472300D02*Y458900D01*
X442030Y472300D02*Y458900D01*
X452830Y472300D02*Y458900D01*
X463630Y472300D02*Y458900D01*
X474430Y472300D02*Y458900D01*
X485230Y472300D02*Y458900D01*
X496030Y472300D02*Y458900D01*
X506830Y472300D02*Y458900D01*
X517630Y472300D02*Y458900D01*
X528430Y472300D02*Y458900D01*
X539230Y472300D02*Y458900D01*
X550030Y472300D02*Y458900D01*
X560830Y472300D02*Y458900D01*
X571630Y472300D02*Y458900D01*
X582430Y472300D02*Y458900D01*
X593230Y472300D02*Y458900D01*
X604030Y472300D02*Y458900D01*
G54D119*X120819Y407842D02*X122819D01*
X123319Y408342D01*
Y409342D01*
X122819Y409842D02*X123319Y409342D01*
X121319Y409842D02*X122819D01*
X121319Y407842D02*Y411842D01*
X122119Y409842D02*X123319Y411842D01*
X124519Y408342D02*X125019Y407842D01*
X126519D01*
X127019Y408342D01*
Y409342D01*
X124519Y411842D02*X127019Y409342D01*
X124519Y411842D02*X127019D01*
X128219Y411342D02*X128719Y411842D01*
X128219Y408342D02*Y411342D01*
Y408342D02*X128719Y407842D01*
X129719D01*
X130219Y408342D01*
Y411342D01*
X129719Y411842D02*X130219Y411342D01*
X128719Y411842D02*X129719D01*
X128219Y410842D02*X130219Y408842D01*
X419400Y580920D02*Y582120D01*
Y580920D02*X424650D01*
X425400Y581670D02*X424650Y580920D01*
X425400Y581670D02*Y582420D01*
X424650Y583170D02*X425400Y582420D01*
X423900Y583170D02*X424650D01*
X420150Y579120D02*X419400Y578370D01*
Y576120D02*Y578370D01*
Y576120D02*X420150Y575370D01*
X421650D01*
X425400Y579120D02*X421650Y575370D01*
X425400D02*Y579120D01*
X361400Y501720D02*Y502920D01*
Y501720D02*X366650D01*
X367400Y502470D02*X366650Y501720D01*
X367400Y502470D02*Y503220D01*
X366650Y503970D02*X367400Y503220D01*
X365900Y503970D02*X366650D01*
X362150Y499920D02*X361400Y499170D01*
Y497670D02*Y499170D01*
Y497670D02*X362150Y496920D01*
X367400Y497670D02*X366650Y496920D01*
X367400Y497670D02*Y499170D01*
X366650Y499920D02*X367400Y499170D01*
X364100Y497670D02*Y499170D01*
X362150Y496920D02*X363350D01*
X364850D02*X366650D01*
X364850D02*X364100Y497670D01*
X363350Y496920D02*X364100Y497670D01*
M02*
