G04 start of page 2 for group 0 idx 0 *
G04 Title: combined, component *
G04 Creator: pcb 20110918 *
G04 CreationDate: Tue 12 Jun 2012 05:40:10 PM GMT UTC *
G04 For: ed *
G04 Format: Gerber/RS-274X *
G04 PCB-Dimensions: 650000 650000 *
G04 PCB-Coordinate-Origin: lower left *
%MOIN*%
%FSLAX25Y25*%
%LNTOP*%
%ADD40C,0.0420*%
%ADD39C,0.0300*%
%ADD38C,0.1300*%
%ADD37C,0.1280*%
%ADD36C,0.0280*%
%ADD35C,0.0380*%
%ADD34C,0.1250*%
%ADD33C,0.0200*%
%ADD32C,0.1200*%
%ADD31C,0.0350*%
%ADD30C,0.1000*%
%ADD29C,0.2600*%
%ADD28C,0.0360*%
%ADD27C,0.0400*%
%ADD26C,0.2000*%
%ADD25C,0.2640*%
%ADD24R,0.0295X0.0295*%
%ADD23C,0.0700*%
%ADD22C,0.0720*%
%ADD21C,0.0680*%
%ADD20C,0.0550*%
%ADD19C,0.0900*%
%ADD18C,0.1500*%
%ADD17C,0.0800*%
%ADD16C,0.0001*%
%ADD15C,0.2500*%
%ADD14C,0.0600*%
%ADD13C,0.0150*%
%ADD12C,0.0100*%
%ADD11C,0.0250*%
G54D11*X24000Y117000D02*X33882D01*
X13000Y135000D02*X29000D01*
X36000Y142000D01*
X10500Y157000D02*X25000Y142500D01*
X25500D01*
X33882Y117000D02*X34000Y117118D01*
X36000Y160000D02*Y142000D01*
Y160000D02*X25500Y170500D01*
Y171500D02*Y170500D01*
X54000Y117000D02*X64000D01*
X10000Y181000D02*X10500Y180500D01*
Y167000D01*
X6000Y128000D02*Y112000D01*
Y128000D02*X13000Y135000D01*
X10000Y201000D02*X25500Y185500D01*
Y172500D01*
X84000Y117000D02*X94000D01*
X89000Y107000D02*X93882Y111882D01*
X94000D01*
X100882Y105000D01*
X121441Y77492D02*X120949Y77000D01*
X104000D02*X120949D01*
X99000Y92850D02*X83150Y77000D01*
X74000D02*X83150D01*
X114000Y117000D02*X129000D01*
X99000Y92850D02*X120342D01*
X119000D02*X129900D01*
X100882Y105000D02*X122118D01*
X129000Y111882D01*
X60000Y59492D02*X59000Y60492D01*
Y81000D02*Y60492D01*
X54882Y66500D02*Y59492D01*
Y66500D02*X45382Y76000D01*
X191441Y34441D02*X194000D01*
X176559Y39559D02*X194492D01*
X176559D02*X174000Y37000D01*
X191441Y34441D02*X174000Y17000D01*
X184000Y92000D02*Y77000D01*
X174000Y67000D01*
X179000Y97000D02*X184000Y92000D01*
X194000Y117000D02*X202000Y109000D01*
Y40000D01*
X196441Y34441D01*
X194559D02*X196441D01*
X147700Y140400D02*Y128418D01*
X149000Y127118D01*
X139000Y139600D02*Y127000D01*
Y139600D02*X139800Y140400D01*
X126559Y84559D02*Y77492D01*
Y84559D02*X139000Y97000D01*
X129900Y92850D02*X147000Y109950D01*
Y110000D02*Y109950D01*
X139492Y108992D02*X126850Y96350D01*
X139000Y97000D02*X179000D01*
X149492Y122000D02*X148000Y120508D01*
Y110950D01*
X139492Y121882D02*Y108992D01*
X33350Y96350D02*X126850D01*
X33350D02*X14000Y77000D01*
X44000D02*X45000Y78000D01*
X59000Y81000D02*Y78950D01*
X34492Y112000D02*X34610Y111882D01*
X41379D01*
Y107621D01*
X46000Y103000D01*
X55118D01*
X64000Y111882D01*
X68882Y107000D01*
X89000D01*
X34492Y112000D02*X24492Y102000D01*
X16000D02*X24492D01*
X16000D02*X6000Y112000D01*
G54D12*X423900Y432900D02*X546430Y310370D01*
X405602Y432900D02*X424110D01*
X405502Y433000D02*X405602Y432900D01*
X585430Y286900D02*Y282392D01*
X584938Y281900D02*X585430Y282392D01*
X578430Y276782D02*X585430D01*
X578430D02*Y275900D01*
X576430Y273900D02*X578430Y275900D01*
X556930Y273900D02*X576430D01*
X550938Y276782D02*X550379Y277341D01*
X577938Y281900D02*X419938Y439900D01*
X605430Y621900D02*X617530Y609800D01*
Y540000D01*
G54D13*X620430Y581900D02*Y526900D01*
G54D12*X615430Y601900D02*Y541900D01*
Y601900D02*X595430Y621900D01*
G54D13*X590430Y605900D02*X604430Y591900D01*
X590430Y623900D02*Y605900D01*
X604230Y568300D02*X603230Y567300D01*
X604430Y591900D02*X604230Y568300D01*
G54D12*X584430Y506900D02*X617430Y539900D01*
X604030Y510500D02*Y509500D01*
X604930Y511400D02*X604030Y510500D01*
X554430Y506900D02*X584430D01*
X540430Y508900D02*X579602D01*
X578430D02*X582430D01*
X539430Y491900D02*X554430Y506900D01*
X528430Y496900D02*X540430Y508900D01*
X528430Y496900D02*Y476300D01*
X539430Y491900D02*Y476500D01*
X539230Y476300D02*X539430Y476500D01*
X615430Y541900D02*X582430Y508900D01*
X604030Y510139D02*Y476300D01*
G54D13*X605430Y511900D02*X620430Y526900D01*
G54D12*X575430Y631900D02*X570430Y636900D01*
X580430D02*X575430Y631900D01*
X580430Y636900D02*X610430D01*
X615430Y631900D02*X610430Y636900D01*
G54D11*X615430Y631900D02*Y621900D01*
G54D13*X640430Y626900D02*Y601900D01*
X620430Y581900D02*X640430Y601900D01*
G54D11*X575430Y631900D02*Y621900D01*
G54D13*X590180Y624150D02*X590430Y623900D01*
X590180Y625650D02*Y621906D01*
X591430Y626900D02*X590180Y625650D01*
X591430Y626900D02*X600430D01*
X605430Y631900D02*X600430Y626900D01*
X570180D02*Y599150D01*
X571430Y597900D02*X570180Y599150D01*
X571230Y569300D02*X571430Y597900D01*
G54D12*X473430Y608900D02*X460430Y621900D01*
X473430Y608900D02*X475430D01*
X485430Y618900D02*X475430Y608900D01*
X485430Y627900D02*Y618900D01*
X507430Y584900D02*X507230Y567300D01*
X517430Y596900D02*X507430Y584900D01*
X517430Y626900D02*Y596900D01*
X485430Y606900D02*X485230Y567300D01*
X500430Y621900D02*X485430Y606900D01*
G54D11*X460430Y621900D02*X367430Y528900D01*
G54D12*X355115Y624400D02*Y487215D01*
X335430Y624400D02*Y503072D01*
X537430Y633570D02*Y624430D01*
X536000Y623000D02*X537430Y624430D01*
X526156Y623000D02*X536000D01*
X525938Y622782D02*X526156Y623000D01*
X521000Y632000D02*X526330D01*
X526430Y631900D02*X526330Y632000D01*
X526430Y631900D02*Y628392D01*
X490430Y621900D02*X495430Y626900D01*
X490430Y631900D02*X495430Y636900D01*
X490430Y631900D02*X485430Y627900D01*
X495430Y626900D02*X517430D01*
X495430Y636900D02*X570430D01*
X537430Y635900D02*Y633335D01*
X538430Y636900D02*X537430Y635900D01*
G54D13*X565430Y631900D02*Y631650D01*
X570180Y626900D02*X565430Y631650D01*
X625430Y631900D02*X635430D01*
X640430Y626900D02*X635430Y631900D01*
G54D12*X546430Y293000D02*Y282951D01*
X545938Y282459D02*X546430Y282951D01*
X551430Y287900D02*Y282392D01*
X551922Y281900D02*X551430Y282392D01*
X550938Y281900D02*X551430Y282392D01*
X546430Y310370D02*Y289570D01*
X514430Y329570D02*X462000Y382000D01*
X441602Y276900D02*X374430Y344072D01*
X441602Y276900D02*X447430D01*
X454430Y269900D02*X475430D01*
X447430Y276900D02*X454430Y269900D01*
X514430Y329570D02*Y269459D01*
X497000Y279000D02*Y269962D01*
X496938Y269900D02*X497000Y269962D01*
X504000Y279000D02*Y273000D01*
X503938Y270459D02*X504000Y273000D01*
X480430Y273900D02*Y270290D01*
X480938Y269782D02*X480430Y270290D01*
X520430Y276900D02*Y269951D01*
X519938Y269459D02*X520430Y269951D01*
X515230Y245700D02*Y243000D01*
X546871Y277341D02*X515230Y245700D01*
X488230Y231800D02*X488306Y231876D01*
X526030Y243000D02*X556930Y273900D01*
X546430Y277341D02*X546871D01*
X546430D02*X550379D01*
X514430Y264341D02*X520430D01*
X497989Y265341D02*X504430D01*
X497430Y264782D02*X497989Y265341D01*
X475430Y264782D02*X480820D01*
X475056Y264664D02*X477962D01*
X474938Y264782D02*X475056Y264664D01*
X514430Y264341D02*Y253000D01*
X504430Y243000D02*X514430Y253000D01*
X497430Y264782D02*Y246800D01*
X493630Y243000D02*X497430Y246800D01*
X482830Y262772D02*Y243000D01*
X480820Y264782D02*X482830Y262772D01*
G54D11*X586510Y117000D02*X587000Y117490D01*
Y87490D02*X586990Y87500D01*
X587000Y107490D02*X567990D01*
X565990Y97490D02*X587000D01*
X586990Y87500D02*X572500D01*
X564000D02*X577500D01*
X567990Y107490D02*X556000Y95500D01*
Y87500D02*X565990Y97490D01*
X556000Y71500D02*X561990Y77490D01*
X556000Y79500D02*X564000Y87500D01*
X556000Y63500D02*X559990Y67490D01*
X556000Y55500D02*X557990Y57490D01*
X561990Y77490D02*X587000D01*
X559990Y67490D02*X587000D01*
X557990Y57490D02*X587000D01*
X556000Y47500D02*X556010Y47490D01*
X556000Y39500D02*X558010Y37490D01*
X556000Y31500D02*X560010Y27490D01*
X556010Y47490D02*X587000D01*
X558010Y37490D02*X587000D01*
X560010Y27490D02*X587000D01*
X540500Y47500D02*X540490Y47490D01*
X540500Y39500D02*X538490Y37490D01*
X515000D01*
X540500Y31500D02*X536490Y27490D01*
X515000D01*
X642500Y103500D02*X628510Y117490D01*
X617000D01*
X642500Y95500D02*X630510Y107490D01*
X617000D01*
X642500Y87500D02*X632510Y97490D01*
X617000D01*
X642500Y79500D02*X634510Y87490D01*
X642500Y63500D02*X638510Y67490D01*
X642500Y55500D02*X640510Y57490D01*
X642500Y47500D02*X642490Y47490D01*
X642500Y39500D02*X640490Y37490D01*
X642500Y31500D02*X638490Y27490D01*
X634510Y87490D02*X617000D01*
X642500Y71500D02*X636510Y77490D01*
X617000D01*
X638510Y67490D02*X617000D01*
X640510Y57490D02*X617000D01*
X642490Y47490D02*X617000D01*
X640490Y37490D02*X617000D01*
X638490Y27490D02*X617000D01*
X556000Y103500D02*X569990Y117490D01*
X587000D01*
X540500Y103500D02*X526510Y117490D01*
X515000D01*
X540500Y95500D02*X528510Y107490D01*
X515000D01*
X540500Y87500D02*X530510Y97490D01*
X515000D01*
X540500Y79500D02*X532510Y87490D01*
X540500Y63500D02*X536510Y67490D01*
X540500Y55500D02*X538510Y57490D01*
X532510Y87490D02*X515000D01*
X540500Y71500D02*X534510Y77490D01*
X515000D01*
X536510Y67490D02*X515000D01*
X538510Y57490D02*X515000D01*
X540490Y47490D02*X515000D01*
X484510Y117000D02*X485000Y117490D01*
Y107490D02*X465990D01*
X463990Y97490D02*X485000D01*
Y87490D02*X484990Y87500D01*
X454000Y103500D02*X467990Y117490D01*
X485000D01*
X465990Y107490D02*X454000Y95500D01*
Y87500D02*X463990Y97490D01*
X484990Y87500D02*X470500D01*
X462000D02*X475500D01*
X454000Y71500D02*X459990Y77490D01*
X454000Y55500D02*X455990Y57490D01*
X454000Y47500D02*X454010Y47490D01*
X454000Y39500D02*X456010Y37490D01*
X454000Y31500D02*X458010Y27490D01*
X459990Y77490D02*X485000D01*
X454000Y79500D02*X462000Y87500D01*
X454000Y63500D02*X457990Y67490D01*
X485000D01*
X455990Y57490D02*X485000D01*
X454010Y47490D02*X485000D01*
X456010Y37490D02*X485000D01*
X458010Y27490D02*X485000D01*
X314000Y132510D02*X313510Y133000D01*
X323510D02*Y113990D01*
Y39000D02*Y19990D01*
Y82510D02*Y69000D01*
X327500Y8000D02*X313510Y21990D01*
Y39000D02*Y21990D01*
X323510Y113990D02*X335500Y102000D01*
X333510Y133000D02*Y111990D01*
Y178510D02*Y163000D01*
Y84510D02*Y69000D01*
X327500Y102000D02*X313510Y115990D01*
X327500Y94500D02*X313510Y80510D01*
X335500Y94500D02*X323510Y82510D01*
X313510Y133000D02*Y115990D01*
X314000Y38510D02*X313510Y39000D01*
Y80510D02*Y69000D01*
X343500Y102000D02*X333510Y111990D01*
X359500Y102000D02*X353510Y107990D01*
X351500Y102000D02*X343500Y110000D01*
X367500Y102000D02*X363510Y105990D01*
X375500Y102000D02*X373510Y103990D01*
X383500Y102000D02*X383510Y102010D01*
X343510Y133000D02*X343500Y132990D01*
Y118500D01*
X353510Y133000D02*Y107990D01*
X343500Y123500D02*Y110000D01*
X363510Y133000D02*Y105990D01*
X373510Y133000D02*Y103990D01*
X383510Y133000D02*Y102010D01*
X393510Y133000D02*Y104010D01*
X327500Y188500D02*X313510Y174510D01*
X335500Y188500D02*X323510Y176510D01*
X313510Y174510D02*Y163000D01*
X323510Y176510D02*Y163000D01*
X343500Y188500D02*X333510Y178510D01*
X351500Y188500D02*X343510Y180510D01*
Y163000D01*
X359500Y188500D02*X353510Y182510D01*
Y163000D01*
X367500Y188500D02*X363510Y184510D01*
X383500Y188500D02*X383510Y188490D01*
X391500Y188500D02*X393510Y186490D01*
X399500Y188500D02*X403510Y184490D01*
X363510Y184510D02*Y163000D01*
X375500Y188500D02*X373510Y186510D01*
Y163000D01*
X383510Y188490D02*Y163000D01*
X393510Y186490D02*Y163000D01*
X403510Y184490D02*Y163000D01*
X323510Y19990D02*X335500Y8000D01*
X343500D02*X333510Y17990D01*
Y39000D02*Y17990D01*
X343500Y29500D02*Y16000D01*
X343510Y39000D02*X343500Y38990D01*
Y24500D01*
X359500Y8000D02*X353510Y13990D01*
Y39000D02*Y13990D01*
X351500Y8000D02*X343500Y16000D01*
X367500Y8000D02*X363510Y11990D01*
Y39000D02*Y11990D01*
X375500Y8000D02*X373510Y9990D01*
X383500Y8000D02*X383510Y8010D01*
X391500Y8000D02*X393510Y10010D01*
X399500Y8000D02*X403510Y12010D01*
X373510Y39000D02*Y9990D01*
X383510Y39000D02*Y8010D01*
X393510Y39000D02*Y10010D01*
X403510Y39000D02*Y12010D01*
X391500Y102000D02*X393510Y104010D01*
X391500Y94500D02*X393510Y92490D01*
Y69000D01*
X399500Y102000D02*X403510Y106010D01*
Y133000D02*Y106010D01*
X399500Y94500D02*X403510Y90490D01*
Y69000D01*
X343500Y94500D02*X333510Y84510D01*
X351500Y94500D02*X343510Y86510D01*
Y69000D01*
X359500Y94500D02*X353510Y88510D01*
X375500Y94500D02*X373510Y92510D01*
X383500Y94500D02*X383510Y94490D01*
X353510Y88510D02*Y69000D01*
X367500Y94500D02*X363510Y90510D01*
Y69000D01*
X373510Y92510D02*Y69000D01*
X383510Y94490D02*Y69000D01*
X67000Y310500D02*X67500Y310000D01*
X82000D01*
X92000Y300000D01*
X71000Y286000D02*X82000Y275000D01*
X23000Y316500D02*Y258000D01*
X17000D01*
X62000D02*X58000Y262000D01*
X122315Y258000D02*X124000Y259685D01*
X58000Y262000D02*Y331000D01*
X81000Y340000D02*X92000Y329000D01*
Y328000D01*
X124000Y259685D02*Y329000D01*
X134000D02*X142000Y321000D01*
Y258000D01*
X82000Y275000D02*Y258000D01*
X112000Y488000D02*Y490559D01*
X128000Y444000D02*Y499000D01*
X115000Y512000D01*
X91882Y552582D02*Y498000D01*
X112000Y490559D02*X97059Y505500D01*
X112000Y478000D02*X97000Y493000D01*
Y498000D01*
X53000Y478000D02*X112000D01*
X115000Y512000D02*X91882D01*
X142000Y428000D02*X132000D01*
X120000Y416000D01*
X106000D01*
X92000Y552700D02*X91882Y552582D01*
X83000Y614800D02*Y599000D01*
X89800Y592200D01*
X92000D01*
X83000Y614800D02*X98200Y630000D01*
X188000D01*
Y573000D01*
X183500Y568500D01*
X178600D01*
X188000Y573000D02*X201882Y559118D01*
X17000Y442000D02*X53000Y478000D01*
X17000Y268000D02*Y442000D01*
X67000Y360500D02*X23000Y316500D01*
X58000Y331000D02*X67000Y340000D01*
X81000D01*
X92000Y300000D02*Y298000D01*
X114000Y329000D02*X96000Y347000D01*
Y388882D01*
X106000Y416000D02*X96000Y406000D01*
Y394000D01*
X112000Y428000D02*X128000Y444000D01*
X181508Y358000D02*X182000Y358492D01*
Y370000D01*
X142000Y438000D02*X161000Y419000D01*
X168000D01*
X167508Y413882D02*Y394492D01*
X182000Y380000D01*
X92000Y298000D02*X101685Y288315D01*
Y258000D01*
X182000D02*X171000Y269000D01*
Y303000D01*
X162315Y301685D02*Y258000D01*
X161000Y303000D02*X162315Y301685D01*
X148000Y303000D02*X161000D01*
X181000Y333000D02*X182000Y334000D01*
Y352882D01*
X207000Y360118D02*Y370000D01*
X196000Y364118D02*X201882Y370000D01*
X222000Y351000D02*X213000Y360000D01*
X207118D01*
X207000Y360118D01*
X202000Y360492D02*Y344000D01*
X206000Y340000D01*
X236000Y330000D02*X226000Y340000D01*
X206000D01*
X196000D02*Y364118D01*
X201882Y559118D02*Y370000D01*
X367430Y528900D02*Y484900D01*
G54D12*X374430Y425900D02*Y344072D01*
X402430Y439900D02*X355115Y487215D01*
X335430Y503072D02*X405602Y432900D01*
X402430Y439900D02*X419938D01*
G54D14*X544630Y578500D03*
X555430D03*
X566230D03*
X577030D03*
X587830D03*
X598630D03*
X609430D03*
G54D15*X636430Y572900D03*
G54D14*X539230Y567300D03*
X550030D03*
X560830D03*
X571630D03*
X582430D03*
X593230D03*
X604030D03*
G54D16*G36*
X572430Y634900D02*Y628900D01*
X578430D01*
Y634900D01*
X572430D01*
G37*
G54D14*X575430Y621900D03*
X585430Y631900D03*
Y621900D03*
X565430Y631900D03*
Y621900D03*
X555430Y631900D03*
Y621900D03*
G54D16*G36*
X612430Y634900D02*Y628900D01*
X618430D01*
Y634900D01*
X612430D01*
G37*
G54D14*X605430Y631900D03*
X595430D03*
Y621900D03*
X605430D03*
X615430D03*
X625430D03*
G54D16*G36*
X622430Y634900D02*Y628900D01*
X628430D01*
Y634900D01*
X622430D01*
G37*
G54D14*X545430Y631900D03*
Y621900D03*
G54D16*G36*
X497430Y634900D02*Y628900D01*
X503430D01*
Y634900D01*
X497430D01*
G37*
G36*
X507430D02*Y628900D01*
X513430D01*
Y634900D01*
X507430D01*
G37*
G54D14*X510430Y621900D03*
G54D16*G36*
X497430Y624900D02*Y618900D01*
X503430D01*
Y624900D01*
X497430D01*
G37*
G54D14*X490430Y631900D03*
X480430D03*
X490430Y621900D03*
X480430D03*
G54D16*G36*
X467430Y624900D02*Y618900D01*
X473430D01*
Y624900D01*
X467430D01*
G37*
G36*
Y634900D02*Y628900D01*
X473430D01*
Y634900D01*
X467430D01*
G37*
G54D14*X460430Y621900D03*
X450430D03*
X460430Y631900D03*
X450430D03*
G54D17*X394485Y624400D03*
X374800D03*
X355115D03*
X335430D03*
X433856D03*
X414171D03*
G54D14*X512230Y578500D03*
X523030D03*
X533830D03*
G54D16*G36*
X476830Y581500D02*Y575500D01*
X482830D01*
Y581500D01*
X476830D01*
G37*
G54D14*X490630Y578500D03*
X501430D03*
X485230Y567300D03*
X496030D03*
X506830D03*
X517630D03*
X528430D03*
G54D15*X452830Y572900D03*
G54D14*X479830Y487500D03*
X490630D03*
X501430D03*
X512230D03*
X523030D03*
X533830D03*
X544630D03*
X555430D03*
X566230D03*
X577030D03*
G54D16*G36*
X412030Y490500D02*Y484500D01*
X418030D01*
Y490500D01*
X412030D01*
G37*
G54D14*X425830Y487500D03*
X436630D03*
X447430D03*
X458230D03*
X469030D03*
X420430Y476300D03*
X431230D03*
X442030D03*
X452830D03*
X463630D03*
X474430D03*
G54D15*X388030Y481900D03*
G54D14*X485230Y476300D03*
X496030D03*
X506830D03*
X517630D03*
X528430D03*
X539230D03*
X550030D03*
X560830D03*
X571630D03*
X582430D03*
X593230D03*
X604030D03*
G54D15*X636430Y481900D03*
G54D14*X587830Y487500D03*
X598630D03*
X609430D03*
X583000Y378000D03*
X593000Y373000D03*
X583000Y358000D03*
X593000Y353000D03*
Y363000D03*
X583000Y368000D03*
G54D16*G36*
X590000Y346000D02*Y340000D01*
X596000D01*
Y346000D01*
X590000D01*
G37*
G54D14*X583000Y348000D03*
G54D16*G36*
X523030Y246000D02*Y240000D01*
X529030D01*
Y246000D01*
X523030D01*
G37*
G54D14*X515230Y243000D03*
X520630Y231800D03*
X509830D03*
X504430Y243000D03*
X493630D03*
X482830D03*
X499030Y231800D03*
X488230D03*
G54D15*X455830Y237400D03*
G54D18*X452000Y315000D03*
G54D15*X553030Y237400D03*
G54D16*G36*
X457500Y386500D02*Y377500D01*
X466500D01*
Y386500D01*
X457500D01*
G37*
G54D19*X452000Y382000D03*
X442000D03*
G54D17*X408430Y417900D03*
Y397900D03*
X492000Y416000D03*
Y396000D03*
G54D16*G36*
X584000Y120490D02*Y114490D01*
X590000D01*
Y120490D01*
X584000D01*
G37*
G54D14*X587000Y107490D03*
Y97490D03*
Y87490D03*
Y77490D03*
Y67490D03*
Y57490D03*
Y47490D03*
Y37490D03*
Y27490D03*
X617000D03*
Y37490D03*
Y47490D03*
Y57490D03*
Y67490D03*
Y77490D03*
Y87490D03*
Y97490D03*
Y107490D03*
Y117490D03*
G54D16*G36*
X482000Y120490D02*Y114490D01*
X488000D01*
Y120490D01*
X482000D01*
G37*
G54D14*X485000Y107490D03*
Y97490D03*
Y87490D03*
Y77490D03*
Y67490D03*
Y57490D03*
Y47490D03*
Y37490D03*
Y27490D03*
X515000D03*
Y37490D03*
Y47490D03*
Y57490D03*
Y67490D03*
Y77490D03*
Y87490D03*
Y97490D03*
Y107490D03*
Y117490D03*
G54D16*G36*
X310510Y136000D02*Y130000D01*
X316510D01*
Y136000D01*
X310510D01*
G37*
G54D14*X323510Y133000D03*
X333510D03*
X343510D03*
X353510D03*
X363510D03*
X373510D03*
X383510D03*
X393510D03*
X403510D03*
Y163000D03*
X393510D03*
X383510D03*
X373510D03*
X363510D03*
X353510D03*
X343510D03*
X333510D03*
X323510D03*
X313510D03*
G54D16*G36*
X310510Y42000D02*Y36000D01*
X316510D01*
Y42000D01*
X310510D01*
G37*
G54D14*X323510Y39000D03*
X333510D03*
X343510D03*
X353510D03*
X363510D03*
X373510D03*
X383510D03*
X393510D03*
X403510D03*
Y69000D03*
X393510D03*
X383510D03*
X373510D03*
X363510D03*
X353510D03*
X343510D03*
X333510D03*
X323510D03*
X313510D03*
X171000Y333000D03*
X161000D03*
Y303000D03*
X171000D03*
G54D16*G36*
X146250Y355750D02*Y350250D01*
X151750D01*
Y355750D01*
X146250D01*
G37*
G54D20*X149000Y303000D03*
G54D16*G36*
X109500Y333500D02*Y324500D01*
X118500D01*
Y333500D01*
X109500D01*
G37*
G36*
X107600Y289400D02*Y282600D01*
X114400D01*
Y289400D01*
X107600D01*
G37*
G54D19*X124000Y329000D03*
X134000D03*
G54D17*X82000Y258000D03*
G54D16*G36*
X14000Y271000D02*Y265000D01*
X20000D01*
Y271000D01*
X14000D01*
G37*
G54D14*X17000Y258000D03*
G54D17*X42315D03*
X62000D03*
G54D16*G36*
X79000Y301000D02*Y295000D01*
X85000D01*
Y301000D01*
X79000D01*
G37*
G54D14*X82000Y328000D03*
G54D16*G36*
X64250Y313250D02*Y307750D01*
X69750D01*
Y313250D01*
X64250D01*
G37*
G54D20*X67000Y360500D03*
G54D14*X92000Y298000D03*
Y328000D03*
X102000Y298000D03*
Y328000D03*
G54D21*X71000Y286000D03*
G54D17*X202315Y258000D03*
X182000D03*
X101685D03*
X122315D03*
X142000D03*
X162315D03*
G54D16*G36*
X152600Y230000D02*Y224000D01*
X158600D01*
Y230000D01*
X152600D01*
G37*
G54D14*X147700Y227000D03*
X139800D03*
X131900D03*
X124000D03*
X116100D03*
X108200D03*
X100300D03*
X92400D03*
X84500D03*
G54D16*G36*
X192000Y315000D02*Y307000D01*
X200000D01*
Y315000D01*
X192000D01*
G37*
G36*
X193000Y343000D02*Y337000D01*
X199000D01*
Y343000D01*
X193000D01*
G37*
G54D14*X206000Y340000D03*
G54D17*X222000Y258000D03*
X246000Y311000D03*
G54D16*G36*
X243000Y333000D02*Y327000D01*
X249000D01*
Y333000D01*
X243000D01*
G37*
G54D14*X236000Y330000D03*
G54D16*G36*
X217500Y355500D02*Y346500D01*
X226500D01*
Y355500D01*
X217500D01*
G37*
G54D19*X232000Y351000D03*
X242000D03*
G54D16*G36*
X178000Y336000D02*Y330000D01*
X184000D01*
Y336000D01*
X178000D01*
G37*
G54D14*X181000Y303000D03*
G54D16*G36*
X178400Y373600D02*Y366400D01*
X185600D01*
Y373600D01*
X178400D01*
G37*
G54D22*X182000Y380000D03*
Y390000D03*
G54D18*X232000Y418000D03*
G54D16*G36*
X109000Y491000D02*Y485000D01*
X115000D01*
Y491000D01*
X109000D01*
G37*
G54D14*X112000Y478000D03*
Y468000D03*
Y458000D03*
Y448000D03*
X142000D03*
Y458000D03*
Y468000D03*
Y478000D03*
Y488000D03*
X112000Y438000D03*
X142000D03*
X112000Y428000D03*
X142000D03*
G54D18*X124000Y396000D03*
G54D16*G36*
X89000Y626800D02*Y620800D01*
X95000D01*
Y626800D01*
X89000D01*
G37*
G54D14*X92000Y615900D03*
Y608000D03*
Y600100D03*
Y592200D03*
Y584300D03*
Y576400D03*
Y568500D03*
Y560600D03*
Y552700D03*
X178600Y623800D03*
Y615900D03*
Y608000D03*
Y600100D03*
Y592200D03*
Y584300D03*
Y576400D03*
Y568500D03*
Y560600D03*
Y552700D03*
X155600Y140400D03*
X147700D03*
X139800D03*
X131900D03*
X124000D03*
X116100D03*
X108200D03*
X100300D03*
G54D16*G36*
X191000Y120000D02*Y114000D01*
X197000D01*
Y120000D01*
X191000D01*
G37*
G54D14*X194000Y127000D03*
G54D16*G36*
X110500Y120500D02*Y113500D01*
X117500D01*
Y120500D01*
X110500D01*
G37*
G54D23*X104000Y117000D03*
G54D14*X92400Y140400D03*
G54D16*G36*
X100400Y70600D02*Y63400D01*
X107600D01*
Y70600D01*
X100400D01*
G37*
G54D22*X104000Y77000D03*
Y87000D03*
G54D14*X84500Y140400D03*
G54D16*G36*
X80500Y120500D02*Y113500D01*
X87500D01*
Y120500D01*
X80500D01*
G37*
G54D23*X74000Y117000D03*
G54D16*G36*
X50500Y120500D02*Y113500D01*
X57500D01*
Y120500D01*
X50500D01*
G37*
G54D23*X44000Y117000D03*
G54D16*G36*
X40400Y70600D02*Y63400D01*
X47600D01*
Y70600D01*
X40400D01*
G37*
G54D22*X44000Y77000D03*
Y87000D03*
G54D16*G36*
X70400Y70600D02*Y63400D01*
X77600D01*
Y70600D01*
X70400D01*
G37*
G54D22*X74000Y77000D03*
Y87000D03*
G54D16*G36*
X141000Y90000D02*Y84000D01*
X147000D01*
Y90000D01*
X141000D01*
G37*
G54D14*X144000Y77000D03*
Y67000D03*
Y57000D03*
Y47000D03*
Y37000D03*
Y27000D03*
Y17000D03*
X174000D03*
Y27000D03*
Y37000D03*
Y47000D03*
Y57000D03*
Y67000D03*
Y77000D03*
Y87000D03*
G54D16*G36*
X22750Y145250D02*Y139750D01*
X28250D01*
Y145250D01*
X22750D01*
G37*
G54D20*X25500Y172500D03*
G54D16*G36*
X20500Y120500D02*Y113500D01*
X27500D01*
Y120500D01*
X20500D01*
G37*
G36*
X10400Y70600D02*Y63400D01*
X17600D01*
Y70600D01*
X10400D01*
G37*
G54D22*X14000Y77000D03*
Y87000D03*
G54D16*G36*
X7500Y170000D02*Y164000D01*
X13500D01*
Y170000D01*
X7500D01*
G37*
G36*
X7000Y204000D02*Y198000D01*
X13000D01*
Y204000D01*
X7000D01*
G37*
G54D14*X10000Y191000D03*
Y181000D03*
X10500Y157000D03*
G54D23*X14000Y117000D03*
G54D24*X167508Y419000D02*X168492D01*
X138508Y127000D02*X139492D01*
X138508Y121882D02*X139492D01*
X148508Y127118D02*X149492D01*
X148508Y122000D02*X149492D01*
X33508Y117118D02*X34492D01*
X33508Y112000D02*X34492D01*
X93508Y117000D02*X94492D01*
X63508D02*X64492D01*
X93508Y111882D02*X94492D01*
X126559Y77492D02*Y76508D01*
X121441Y77492D02*Y76508D01*
X128508Y117000D02*X129492D01*
X128508Y111882D02*X129492D01*
X63508D02*X64492D01*
X60000Y59492D02*Y58508D01*
X193508Y39559D02*X194492D01*
X193508Y34441D02*X194492D01*
X54882Y59492D02*Y58508D01*
X91882Y498492D02*Y497508D01*
X97000Y498492D02*Y497508D01*
X91941Y505992D02*Y505008D01*
X97059Y505992D02*Y505008D01*
X181508Y358000D02*X182492D01*
X181508Y352882D02*X182492D01*
X95508Y394000D02*X96492D01*
X95508Y388882D02*X96492D01*
X167508Y413882D02*X168492D01*
X207000Y370492D02*Y369508D01*
X207118Y360492D02*Y359508D01*
X201882Y370492D02*Y369508D01*
X202000Y360492D02*Y359508D01*
X519938Y269459D02*X520922D01*
X519938Y264341D02*X520922D01*
X503938Y270459D02*X504922D01*
X503938Y265341D02*X504922D01*
X513938Y264341D02*X514922D01*
X513938Y269459D02*X514922D01*
X496938Y264782D02*X497922D01*
X496938Y269900D02*X497922D01*
X474938Y264782D02*X475922D01*
X474938Y269900D02*X475922D01*
X480938Y269782D02*X481922D01*
X480938Y264664D02*X481922D01*
X584938Y281900D02*X585922D01*
X545938Y282459D02*X546922D01*
X550938Y281900D02*X551922D01*
X584938Y276782D02*X585922D01*
X545938Y277341D02*X546922D01*
X550938Y276782D02*X551922D01*
X577938D02*X578922D01*
X577938Y281900D02*X578922D01*
X525938Y627900D02*X526922D01*
X525938Y622782D02*X526922D01*
G54D25*X22000Y472000D03*
G54D26*X223000Y448000D03*
X41000D03*
Y566000D03*
X223000D03*
X41000Y290000D03*
X223000D03*
G54D14*X59000Y81000D03*
G54D18*X37500Y9000D03*
Y229000D03*
G54D25*X242000Y472000D03*
G54D14*X374430Y425900D03*
X367430Y484900D03*
G54D27*X586000Y288000D03*
X552000Y289000D03*
X521000Y632000D03*
X497000Y279000D03*
X504000D03*
X481000Y275000D03*
X520000Y278000D03*
G54D28*X540500Y55500D03*
Y39500D03*
Y31500D03*
Y47500D03*
Y95500D03*
Y79500D03*
Y71500D03*
Y63500D03*
Y87500D03*
X454000Y71500D03*
Y63500D03*
Y55500D03*
Y47500D03*
Y39500D03*
Y31500D03*
G54D18*X267500Y9000D03*
G54D28*X327500Y8000D03*
X335500D03*
X351500D03*
X343500D03*
X359500D03*
X391500D03*
X399500D03*
X367500D03*
X375500D03*
X383500D03*
X367500Y102000D03*
X375500D03*
X367500Y94500D03*
X375500D03*
X351500Y102000D03*
X359500D03*
X351500Y94500D03*
X359500D03*
X343500Y102000D03*
Y94500D03*
X383500Y102000D03*
Y94500D03*
X391500Y102000D03*
Y94500D03*
X399500Y102000D03*
Y94500D03*
X327500Y102000D03*
X335500D03*
X327500Y94500D03*
X335500D03*
X351500Y188500D03*
X343500D03*
X375500D03*
X391500D03*
X399500D03*
X383500D03*
X367500D03*
X327500D03*
G54D18*X267500Y229000D03*
G54D28*X335500Y188500D03*
X359500D03*
X642500Y103500D03*
Y95500D03*
Y87500D03*
Y39500D03*
Y79500D03*
Y71500D03*
Y63500D03*
Y55500D03*
Y31500D03*
Y47500D03*
X454000Y103500D03*
Y95500D03*
Y79500D03*
Y87500D03*
X556000Y103500D03*
Y95500D03*
X540500Y103500D03*
X556000Y55500D03*
Y47500D03*
Y39500D03*
Y31500D03*
Y79500D03*
Y87500D03*
Y71500D03*
Y63500D03*
G54D29*G54D30*G54D31*G54D32*G54D29*G54D31*G54D33*G54D32*G54D33*G54D32*G54D33*G54D31*G54D34*G54D31*G54D35*G54D13*G54D31*G54D34*G54D31*G54D34*G54D31*G54D34*G54D31*G54D36*G54D37*G54D31*G54D34*G54D38*G54D34*G54D14*G54D13*G54D36*G54D39*G54D14*G54D35*G54D14*G54D13*G54D35*G54D13*G54D36*G54D39*G54D36*G54D35*G54D13*G54D35*G54D33*G54D39*G54D13*G54D33*G54D39*G54D14*G54D36*G54D40*G54D38*G54D36*G54D38*G54D35*G54D36*G54D35*G54D40*G54D35*G54D36*G54D40*G54D36*G54D39*G54D36*G54D40*G54D35*G54D36*M02*
