G04 start of page 8 for group -3984 idx -3984 *
G04 Title: XBEE_dip, fab *
G04 Creator: pcb 20110918 *
G04 CreationDate: Mon 04 Jun 2012 06:09:33 PM GMT UTC *
G04 For: ed *
G04 Format: Gerber/RS-274X *
G04 PCB-Dimensions: 100000 125000 *
G04 PCB-Coordinate-Origin: lower left *
%MOIN*%
%FSLAX25Y25*%
%LNFAB*%
%ADD54C,0.0100*%
%ADD53C,0.0075*%
%ADD52C,0.0060*%
%ADD51C,0.0080*%
G54D51*X35000Y111090D02*Y107890D01*
X33400Y109490D02*X36600D01*
X35000Y101090D02*Y97890D01*
X33400Y99490D02*X36600D01*
X35000Y91090D02*Y87890D01*
X33400Y89490D02*X36600D01*
X35000Y81090D02*Y77890D01*
X33400Y79490D02*X36600D01*
X35000Y71090D02*Y67890D01*
X33400Y69490D02*X36600D01*
X35000Y61090D02*Y57890D01*
X33400Y59490D02*X36600D01*
X35000Y51090D02*Y47890D01*
X33400Y49490D02*X36600D01*
X35000Y41090D02*Y37890D01*
X33400Y39490D02*X36600D01*
X35000Y31090D02*Y27890D01*
X33400Y29490D02*X36600D01*
X35000Y21090D02*Y17890D01*
X33400Y19490D02*X36600D01*
X65000Y21090D02*Y17890D01*
X63400Y19490D02*X66600D01*
X65000Y31090D02*Y27890D01*
X63400Y29490D02*X66600D01*
X65000Y41090D02*Y37890D01*
X63400Y39490D02*X66600D01*
X65000Y51090D02*Y47890D01*
X63400Y49490D02*X66600D01*
X65000Y61090D02*Y57890D01*
X63400Y59490D02*X66600D01*
X65000Y71090D02*Y67890D01*
X63400Y69490D02*X66600D01*
X65000Y81090D02*Y77890D01*
X63400Y79490D02*X66600D01*
X65000Y91090D02*Y87890D01*
X63400Y89490D02*X66600D01*
X65000Y101090D02*Y97890D01*
X63400Y99490D02*X66600D01*
X65000Y111090D02*Y107890D01*
X63400Y109490D02*X66600D01*
X15000Y167850D02*Y164650D01*
X13400Y166250D02*X16600D01*
G54D52*X135000Y168500D02*X136500Y165500D01*
X138000Y168500D01*
X136500Y165500D02*Y162500D01*
X139800Y165800D02*X142050D01*
X139800Y162500D02*X142800D01*
X139800Y168500D02*Y162500D01*
Y168500D02*X142800D01*
X147600D02*X148350Y167750D01*
X145350Y168500D02*X147600D01*
X144600Y167750D02*X145350Y168500D01*
X144600Y167750D02*Y166250D01*
X145350Y165500D01*
X147600D01*
X148350Y164750D01*
Y163250D01*
X147600Y162500D02*X148350Y163250D01*
X145350Y162500D02*X147600D01*
X144600Y163250D02*X145350Y162500D01*
X98000Y167750D02*X98750Y168500D01*
X101000D01*
X101750Y167750D01*
Y166250D01*
X98000Y162500D02*X101750Y166250D01*
X98000Y162500D02*X101750D01*
X103550Y163250D02*X104300Y162500D01*
X103550Y167750D02*Y163250D01*
Y167750D02*X104300Y168500D01*
X105800D01*
X106550Y167750D01*
Y163250D01*
X105800Y162500D02*X106550Y163250D01*
X104300Y162500D02*X105800D01*
X103550Y164000D02*X106550Y167000D01*
X45000Y163250D02*X45750Y162500D01*
X45000Y167750D02*Y163250D01*
Y167750D02*X45750Y168500D01*
X47250D01*
X48000Y167750D01*
Y163250D01*
X47250Y162500D02*X48000Y163250D01*
X45750Y162500D02*X47250D01*
X45000Y164000D02*X48000Y167000D01*
X49800Y162500D02*X50550D01*
X52350Y163250D02*X53100Y162500D01*
X52350Y167750D02*Y163250D01*
Y167750D02*X53100Y168500D01*
X54600D01*
X55350Y167750D01*
Y163250D01*
X54600Y162500D02*X55350Y163250D01*
X53100Y162500D02*X54600D01*
X52350Y164000D02*X55350Y167000D01*
X57150Y167750D02*X57900Y168500D01*
X60150D01*
X60900Y167750D01*
Y166250D01*
X57150Y162500D02*X60900Y166250D01*
X57150Y162500D02*X60900D01*
X62700Y163250D02*X63450Y162500D01*
X62700Y164450D02*Y163250D01*
Y164450D02*X63750Y165500D01*
X64650D01*
X65700Y164450D01*
Y163250D01*
X64950Y162500D02*X65700Y163250D01*
X63450Y162500D02*X64950D01*
X62700Y166550D02*X63750Y165500D01*
X62700Y167750D02*Y166550D01*
Y167750D02*X63450Y168500D01*
X64950D01*
X65700Y167750D01*
Y166550D01*
X64650Y165500D02*X65700Y166550D01*
X4000Y95500D02*Y93900D01*
Y95500D02*X5387Y96300D01*
X4000Y95500D02*X2613Y96300D01*
X4000Y87500D02*Y85900D01*
Y87500D02*X5387Y88300D01*
X4000Y87500D02*X2613Y88300D01*
X4000Y71500D02*Y69900D01*
Y71500D02*X5387Y72300D01*
X4000Y71500D02*X2613Y72300D01*
X4000Y63500D02*Y61900D01*
Y63500D02*X5387Y64300D01*
X4000Y63500D02*X2613Y64300D01*
X4000Y55500D02*Y53900D01*
Y55500D02*X5387Y56300D01*
X4000Y55500D02*X2613Y56300D01*
X4000Y47500D02*Y45900D01*
Y47500D02*X5387Y48300D01*
X4000Y47500D02*X2613Y48300D01*
X4000Y31500D02*Y29900D01*
Y31500D02*X5387Y32300D01*
X4000Y31500D02*X2613Y32300D01*
X4000Y23500D02*Y21900D01*
Y23500D02*X5387Y24300D01*
X4000Y23500D02*X2613Y24300D01*
X4000Y39500D02*Y37900D01*
Y39500D02*X5387Y40300D01*
X4000Y39500D02*X2613Y40300D01*
X4000Y79500D02*Y77900D01*
Y79500D02*X5387Y80300D01*
X4000Y79500D02*X2613Y80300D01*
X90500Y95500D02*Y93900D01*
Y95500D02*X91887Y96300D01*
X90500Y95500D02*X89113Y96300D01*
X90500Y87500D02*Y85900D01*
Y87500D02*X91887Y88300D01*
X90500Y87500D02*X89113Y88300D01*
X90500Y71500D02*Y69900D01*
Y71500D02*X91887Y72300D01*
X90500Y71500D02*X89113Y72300D01*
X90500Y63500D02*Y61900D01*
Y63500D02*X91887Y64300D01*
X90500Y63500D02*X89113Y64300D01*
X90500Y55500D02*Y53900D01*
Y55500D02*X91887Y56300D01*
X90500Y55500D02*X89113Y56300D01*
X90500Y47500D02*Y45900D01*
Y47500D02*X91887Y48300D01*
X90500Y47500D02*X89113Y48300D01*
X90500Y31500D02*Y29900D01*
Y31500D02*X91887Y32300D01*
X90500Y31500D02*X89113Y32300D01*
X90500Y23500D02*Y21900D01*
Y23500D02*X91887Y24300D01*
X90500Y23500D02*X89113Y24300D01*
X90500Y39500D02*Y37900D01*
Y39500D02*X91887Y40300D01*
X90500Y39500D02*X89113Y40300D01*
X90500Y79500D02*Y77900D01*
Y79500D02*X91887Y80300D01*
X90500Y79500D02*X89113Y80300D01*
X15000Y181250D02*Y179650D01*
Y181250D02*X16387Y182050D01*
X15000Y181250D02*X13613Y182050D01*
X135000Y183500D02*X136500Y180500D01*
X138000Y183500D01*
X136500Y180500D02*Y177500D01*
X139800Y180800D02*X142050D01*
X139800Y177500D02*X142800D01*
X139800Y183500D02*Y177500D01*
Y183500D02*X142800D01*
X147600D02*X148350Y182750D01*
X145350Y183500D02*X147600D01*
X144600Y182750D02*X145350Y183500D01*
X144600Y182750D02*Y181250D01*
X145350Y180500D01*
X147600D01*
X148350Y179750D01*
Y178250D01*
X147600Y177500D02*X148350Y178250D01*
X145350Y177500D02*X147600D01*
X144600Y178250D02*X145350Y177500D01*
X98000Y182750D02*X98750Y183500D01*
X101000D01*
X101750Y182750D01*
Y181250D01*
X98000Y177500D02*X101750Y181250D01*
X98000Y177500D02*X101750D01*
X103550Y178250D02*X104300Y177500D01*
X103550Y182750D02*Y178250D01*
Y182750D02*X104300Y183500D01*
X105800D01*
X106550Y182750D01*
Y178250D01*
X105800Y177500D02*X106550Y178250D01*
X104300Y177500D02*X105800D01*
X103550Y179000D02*X106550Y182000D01*
X45000Y178250D02*X45750Y177500D01*
X45000Y182750D02*Y178250D01*
Y182750D02*X45750Y183500D01*
X47250D01*
X48000Y182750D01*
Y178250D01*
X47250Y177500D02*X48000Y178250D01*
X45750Y177500D02*X47250D01*
X45000Y179000D02*X48000Y182000D01*
X49800Y177500D02*X50550D01*
X52350Y178250D02*X53100Y177500D01*
X52350Y182750D02*Y178250D01*
Y182750D02*X53100Y183500D01*
X54600D01*
X55350Y182750D01*
Y178250D01*
X54600Y177500D02*X55350Y178250D01*
X53100Y177500D02*X54600D01*
X52350Y179000D02*X55350Y182000D01*
X57150Y182750D02*X57900Y183500D01*
X60150D01*
X60900Y182750D01*
Y181250D01*
X57150Y177500D02*X60900Y181250D01*
X57150Y177500D02*X60900D01*
X62700Y178250D02*X63450Y177500D01*
X62700Y182750D02*Y178250D01*
Y182750D02*X63450Y183500D01*
X64950D01*
X65700Y182750D01*
Y178250D01*
X64950Y177500D02*X65700Y178250D01*
X63450Y177500D02*X64950D01*
X62700Y179000D02*X65700Y182000D01*
X3000Y198500D02*X3750Y197750D01*
X750Y198500D02*X3000D01*
X0Y197750D02*X750Y198500D01*
X0Y197750D02*Y196250D01*
X750Y195500D01*
X3000D01*
X3750Y194750D01*
Y193250D01*
X3000Y192500D02*X3750Y193250D01*
X750Y192500D02*X3000D01*
X0Y193250D02*X750Y192500D01*
X5550Y195500D02*Y193250D01*
X6300Y192500D01*
X8550Y195500D02*Y191000D01*
X7800Y190250D02*X8550Y191000D01*
X6300Y190250D02*X7800D01*
X5550Y191000D02*X6300Y190250D01*
Y192500D02*X7800D01*
X8550Y193250D01*
X11100Y194750D02*Y192500D01*
Y194750D02*X11850Y195500D01*
X12600D01*
X13350Y194750D01*
Y192500D01*
Y194750D02*X14100Y195500D01*
X14850D01*
X15600Y194750D01*
Y192500D01*
X10350Y195500D02*X11100Y194750D01*
X17400Y198500D02*Y192500D01*
Y193250D02*X18150Y192500D01*
X19650D01*
X20400Y193250D01*
Y194750D02*Y193250D01*
X19650Y195500D02*X20400Y194750D01*
X18150Y195500D02*X19650D01*
X17400Y194750D02*X18150Y195500D01*
X22200Y194750D02*Y193250D01*
Y194750D02*X22950Y195500D01*
X24450D01*
X25200Y194750D01*
Y193250D01*
X24450Y192500D02*X25200Y193250D01*
X22950Y192500D02*X24450D01*
X22200Y193250D02*X22950Y192500D01*
X27000Y198500D02*Y193250D01*
X27750Y192500D01*
X0Y190750D02*X29250D01*
X41750Y198500D02*Y192500D01*
X43700Y198500D02*X44750Y197450D01*
Y193550D01*
X43700Y192500D02*X44750Y193550D01*
X41000Y192500D02*X43700D01*
X41000Y198500D02*X43700D01*
G54D53*X46550Y197000D02*Y196850D01*
G54D52*Y194750D02*Y192500D01*
X50300Y195500D02*X51050Y194750D01*
X48800Y195500D02*X50300D01*
X48050Y194750D02*X48800Y195500D01*
X48050Y194750D02*Y193250D01*
X48800Y192500D01*
X51050Y195500D02*Y193250D01*
X51800Y192500D01*
X48800D02*X50300D01*
X51050Y193250D01*
X54350Y194750D02*Y192500D01*
Y194750D02*X55100Y195500D01*
X55850D01*
X56600Y194750D01*
Y192500D01*
Y194750D02*X57350Y195500D01*
X58100D01*
X58850Y194750D01*
Y192500D01*
X53600Y195500D02*X54350Y194750D01*
X60650Y192500D02*X61400D01*
X65900Y193250D02*X66650Y192500D01*
X65900Y197750D02*X66650Y198500D01*
X65900Y197750D02*Y193250D01*
X68450Y198500D02*X69950D01*
X69200D02*Y192500D01*
X68450D02*X69950D01*
X72500Y194750D02*Y192500D01*
Y194750D02*X73250Y195500D01*
X74000D01*
X74750Y194750D01*
Y192500D01*
X71750Y195500D02*X72500Y194750D01*
X77300Y195500D02*X79550D01*
X76550Y194750D02*X77300Y195500D01*
X76550Y194750D02*Y193250D01*
X77300Y192500D01*
X79550D01*
X81350Y198500D02*Y192500D01*
Y194750D02*X82100Y195500D01*
X83600D01*
X84350Y194750D01*
Y192500D01*
X86150Y198500D02*X86900Y197750D01*
Y193250D01*
X86150Y192500D02*X86900Y193250D01*
X41000Y190750D02*X88700D01*
X96050Y192500D02*X98000D01*
X95000Y193550D02*X96050Y192500D01*
X95000Y197450D02*Y193550D01*
Y197450D02*X96050Y198500D01*
X98000D01*
X99800Y194750D02*Y193250D01*
Y194750D02*X100550Y195500D01*
X102050D01*
X102800Y194750D01*
Y193250D01*
X102050Y192500D02*X102800Y193250D01*
X100550Y192500D02*X102050D01*
X99800Y193250D02*X100550Y192500D01*
X104600Y195500D02*Y193250D01*
X105350Y192500D01*
X106850D01*
X107600Y193250D01*
Y195500D02*Y193250D01*
X110150Y194750D02*Y192500D01*
Y194750D02*X110900Y195500D01*
X111650D01*
X112400Y194750D01*
Y192500D01*
X109400Y195500D02*X110150Y194750D01*
X114950Y198500D02*Y193250D01*
X115700Y192500D01*
X114200Y196250D02*X115700D01*
X95000Y190750D02*X117200D01*
X130750Y198500D02*Y192500D01*
X130000Y198500D02*X133000D01*
X133750Y197750D01*
Y196250D01*
X133000Y195500D02*X133750Y196250D01*
X130750Y195500D02*X133000D01*
X135550Y198500D02*Y193250D01*
X136300Y192500D01*
X140050Y195500D02*X140800Y194750D01*
X138550Y195500D02*X140050D01*
X137800Y194750D02*X138550Y195500D01*
X137800Y194750D02*Y193250D01*
X138550Y192500D01*
X140800Y195500D02*Y193250D01*
X141550Y192500D01*
X138550D02*X140050D01*
X140800Y193250D01*
X144100Y198500D02*Y193250D01*
X144850Y192500D01*
X143350Y196250D02*X144850D01*
X147100Y192500D02*X149350D01*
X146350Y193250D02*X147100Y192500D01*
X146350Y194750D02*Y193250D01*
Y194750D02*X147100Y195500D01*
X148600D01*
X149350Y194750D01*
X146350Y194000D02*X149350D01*
Y194750D02*Y194000D01*
X154150Y198500D02*Y192500D01*
X153400D02*X154150Y193250D01*
X151900Y192500D02*X153400D01*
X151150Y193250D02*X151900Y192500D01*
X151150Y194750D02*Y193250D01*
Y194750D02*X151900Y195500D01*
X153400D01*
X154150Y194750D01*
X157450Y195500D02*Y194750D01*
Y193250D02*Y192500D01*
X155950Y197750D02*Y197000D01*
Y197750D02*X156700Y198500D01*
X158200D01*
X158950Y197750D01*
Y197000D01*
X157450Y195500D02*X158950Y197000D01*
X130000Y190750D02*X160750D01*
X0Y213500D02*X3000D01*
X1500D02*Y207500D01*
X4800Y213500D02*Y207500D01*
Y209750D02*X5550Y210500D01*
X7050D01*
X7800Y209750D01*
Y207500D01*
X10350D02*X12600D01*
X9600Y208250D02*X10350Y207500D01*
X9600Y209750D02*Y208250D01*
Y209750D02*X10350Y210500D01*
X11850D01*
X12600Y209750D01*
X9600Y209000D02*X12600D01*
Y209750D02*Y209000D01*
X15150Y209750D02*Y207500D01*
Y209750D02*X15900Y210500D01*
X17400D01*
X14400D02*X15150Y209750D01*
X19950Y207500D02*X22200D01*
X19200Y208250D02*X19950Y207500D01*
X19200Y209750D02*Y208250D01*
Y209750D02*X19950Y210500D01*
X21450D01*
X22200Y209750D01*
X19200Y209000D02*X22200D01*
Y209750D02*Y209000D01*
X28950Y210500D02*X29700Y209750D01*
X27450Y210500D02*X28950D01*
X26700Y209750D02*X27450Y210500D01*
X26700Y209750D02*Y208250D01*
X27450Y207500D01*
X29700Y210500D02*Y208250D01*
X30450Y207500D01*
X27450D02*X28950D01*
X29700Y208250D01*
X33000Y209750D02*Y207500D01*
Y209750D02*X33750Y210500D01*
X35250D01*
X32250D02*X33000Y209750D01*
X37800Y207500D02*X40050D01*
X37050Y208250D02*X37800Y207500D01*
X37050Y209750D02*Y208250D01*
Y209750D02*X37800Y210500D01*
X39300D01*
X40050Y209750D01*
X37050Y209000D02*X40050D01*
Y209750D02*Y209000D01*
X44550Y212750D02*X45300Y213500D01*
X47550D01*
X48300Y212750D01*
Y211250D01*
X44550Y207500D02*X48300Y211250D01*
X44550Y207500D02*X48300D01*
X55800Y213500D02*Y207500D01*
X55050D02*X55800Y208250D01*
X53550Y207500D02*X55050D01*
X52800Y208250D02*X53550Y207500D01*
X52800Y209750D02*Y208250D01*
Y209750D02*X53550Y210500D01*
X55050D01*
X55800Y209750D01*
G54D53*X57600Y212000D02*Y211850D01*
G54D52*Y209750D02*Y207500D01*
X59850Y212750D02*Y207500D01*
Y212750D02*X60600Y213500D01*
X61350D01*
X59100Y210500D02*X60600D01*
X63600Y212750D02*Y207500D01*
Y212750D02*X64350Y213500D01*
X65100D01*
X62850Y210500D02*X64350D01*
X67350Y207500D02*X69600D01*
X66600Y208250D02*X67350Y207500D01*
X66600Y209750D02*Y208250D01*
Y209750D02*X67350Y210500D01*
X68850D01*
X69600Y209750D01*
X66600Y209000D02*X69600D01*
Y209750D02*Y209000D01*
X72150Y209750D02*Y207500D01*
Y209750D02*X72900Y210500D01*
X74400D01*
X71400D02*X72150Y209750D01*
X76950Y207500D02*X79200D01*
X76200Y208250D02*X76950Y207500D01*
X76200Y209750D02*Y208250D01*
Y209750D02*X76950Y210500D01*
X78450D01*
X79200Y209750D01*
X76200Y209000D02*X79200D01*
Y209750D02*Y209000D01*
X81750Y209750D02*Y207500D01*
Y209750D02*X82500Y210500D01*
X83250D01*
X84000Y209750D01*
Y207500D01*
X81000Y210500D02*X81750Y209750D01*
X86550Y213500D02*Y208250D01*
X87300Y207500D01*
X85800Y211250D02*X87300D01*
X94500Y213500D02*Y207500D01*
X93750D02*X94500Y208250D01*
X92250Y207500D02*X93750D01*
X91500Y208250D02*X92250Y207500D01*
X91500Y209750D02*Y208250D01*
Y209750D02*X92250Y210500D01*
X93750D01*
X94500Y209750D01*
X97050D02*Y207500D01*
Y209750D02*X97800Y210500D01*
X99300D01*
X96300D02*X97050Y209750D01*
G54D53*X101100Y212000D02*Y211850D01*
G54D52*Y209750D02*Y207500D01*
X102600Y213500D02*Y208250D01*
X103350Y207500D01*
X104850Y213500D02*Y208250D01*
X105600Y207500D01*
X110550D02*X112800D01*
X113550Y208250D01*
X112800Y209000D02*X113550Y208250D01*
X110550Y209000D02*X112800D01*
X109800Y209750D02*X110550Y209000D01*
X109800Y209750D02*X110550Y210500D01*
X112800D01*
X113550Y209750D01*
X109800Y208250D02*X110550Y207500D01*
G54D53*X115350Y212000D02*Y211850D01*
G54D52*Y209750D02*Y207500D01*
X116850Y210500D02*X119850D01*
X116850Y207500D02*X119850Y210500D01*
X116850Y207500D02*X119850D01*
X122400D02*X124650D01*
X121650Y208250D02*X122400Y207500D01*
X121650Y209750D02*Y208250D01*
Y209750D02*X122400Y210500D01*
X123900D01*
X124650Y209750D01*
X121650Y209000D02*X124650D01*
Y209750D02*Y209000D01*
X127200Y207500D02*X129450D01*
X130200Y208250D01*
X129450Y209000D02*X130200Y208250D01*
X127200Y209000D02*X129450D01*
X126450Y209750D02*X127200Y209000D01*
X126450Y209750D02*X127200Y210500D01*
X129450D01*
X130200Y209750D01*
X126450Y208250D02*X127200Y207500D01*
X134700Y210500D02*Y208250D01*
X135450Y207500D01*
X136950D01*
X137700Y208250D01*
Y210500D02*Y208250D01*
X140250Y207500D02*X142500D01*
X143250Y208250D01*
X142500Y209000D02*X143250Y208250D01*
X140250Y209000D02*X142500D01*
X139500Y209750D02*X140250Y209000D01*
X139500Y209750D02*X140250Y210500D01*
X142500D01*
X143250Y209750D01*
X139500Y208250D02*X140250Y207500D01*
X145800D02*X148050D01*
X145050Y208250D02*X145800Y207500D01*
X145050Y209750D02*Y208250D01*
Y209750D02*X145800Y210500D01*
X147300D01*
X148050Y209750D01*
X145050Y209000D02*X148050D01*
Y209750D02*Y209000D01*
X152850Y213500D02*Y207500D01*
X152100D02*X152850Y208250D01*
X150600Y207500D02*X152100D01*
X149850Y208250D02*X150600Y207500D01*
X149850Y209750D02*Y208250D01*
Y209750D02*X150600Y210500D01*
X152100D01*
X152850Y209750D01*
G54D53*X157350Y212000D02*Y211850D01*
G54D52*Y209750D02*Y207500D01*
X159600Y209750D02*Y207500D01*
Y209750D02*X160350Y210500D01*
X161100D01*
X161850Y209750D01*
Y207500D01*
X158850Y210500D02*X159600Y209750D01*
X167100Y213500D02*Y208250D01*
X167850Y207500D01*
X166350Y211250D02*X167850D01*
X169350Y213500D02*Y207500D01*
Y209750D02*X170100Y210500D01*
X171600D01*
X172350Y209750D01*
Y207500D01*
G54D53*X174150Y212000D02*Y211850D01*
G54D52*Y209750D02*Y207500D01*
X176400D02*X178650D01*
X179400Y208250D01*
X178650Y209000D02*X179400Y208250D01*
X176400Y209000D02*X178650D01*
X175650Y209750D02*X176400Y209000D01*
X175650Y209750D02*X176400Y210500D01*
X178650D01*
X179400Y209750D01*
X175650Y208250D02*X176400Y207500D01*
X183900Y213500D02*Y208250D01*
X184650Y207500D01*
X188400Y210500D02*X189150Y209750D01*
X186900Y210500D02*X188400D01*
X186150Y209750D02*X186900Y210500D01*
X186150Y209750D02*Y208250D01*
X186900Y207500D01*
X189150Y210500D02*Y208250D01*
X189900Y207500D01*
X186900D02*X188400D01*
X189150Y208250D01*
X191700Y210500D02*Y208250D01*
X192450Y207500D01*
X194700Y210500D02*Y206000D01*
X193950Y205250D02*X194700Y206000D01*
X192450Y205250D02*X193950D01*
X191700Y206000D02*X192450Y205250D01*
Y207500D02*X193950D01*
X194700Y208250D01*
X196500Y209750D02*Y208250D01*
Y209750D02*X197250Y210500D01*
X198750D01*
X199500Y209750D01*
Y208250D01*
X198750Y207500D02*X199500Y208250D01*
X197250Y207500D02*X198750D01*
X196500Y208250D02*X197250Y207500D01*
X201300Y210500D02*Y208250D01*
X202050Y207500D01*
X203550D01*
X204300Y208250D01*
Y210500D02*Y208250D01*
X206850Y213500D02*Y208250D01*
X207600Y207500D01*
X206100Y211250D02*X207600D01*
X209100Y206000D02*X210600Y207500D01*
X215100Y209750D02*X218100Y213500D01*
X215100Y209750D02*X218850D01*
X218100Y213500D02*Y207500D01*
X220650Y208250D02*X221400Y207500D01*
X220650Y212750D02*Y208250D01*
Y212750D02*X221400Y213500D01*
X222900D01*
X223650Y212750D01*
Y208250D01*
X222900Y207500D02*X223650Y208250D01*
X221400Y207500D02*X222900D01*
X220650Y209000D02*X223650Y212000D01*
X228150Y213500D02*Y207500D01*
Y209750D02*X228900Y210500D01*
X230400D01*
X231150Y209750D01*
Y207500D01*
X232950Y209750D02*Y208250D01*
Y209750D02*X233700Y210500D01*
X235200D01*
X235950Y209750D01*
Y208250D01*
X235200Y207500D02*X235950Y208250D01*
X233700Y207500D02*X235200D01*
X232950Y208250D02*X233700Y207500D01*
X237750Y213500D02*Y208250D01*
X238500Y207500D01*
X240750D02*X243000D01*
X240000Y208250D02*X240750Y207500D01*
X240000Y209750D02*Y208250D01*
Y209750D02*X240750Y210500D01*
X242250D01*
X243000Y209750D01*
X240000Y209000D02*X243000D01*
Y209750D02*Y209000D01*
X245550Y207500D02*X247800D01*
X248550Y208250D01*
X247800Y209000D02*X248550Y208250D01*
X245550Y209000D02*X247800D01*
X244800Y209750D02*X245550Y209000D01*
X244800Y209750D02*X245550Y210500D01*
X247800D01*
X248550Y209750D01*
X244800Y208250D02*X245550Y207500D01*
X253800Y213500D02*Y208250D01*
X254550Y207500D01*
X253050Y211250D02*X254550D01*
X256050Y209750D02*Y208250D01*
Y209750D02*X256800Y210500D01*
X258300D01*
X259050Y209750D01*
Y208250D01*
X258300Y207500D02*X259050Y208250D01*
X256800Y207500D02*X258300D01*
X256050Y208250D02*X256800Y207500D01*
X261600Y213500D02*Y208250D01*
X262350Y207500D01*
X260850Y211250D02*X262350D01*
X266100Y210500D02*X266850Y209750D01*
X264600Y210500D02*X266100D01*
X263850Y209750D02*X264600Y210500D01*
X263850Y209750D02*Y208250D01*
X264600Y207500D01*
X266850Y210500D02*Y208250D01*
X267600Y207500D01*
X264600D02*X266100D01*
X266850Y208250D01*
X269400Y213500D02*Y208250D01*
X270150Y207500D01*
G54D54*X0Y125000D02*X100000D01*
X0D02*Y0D01*
X100000Y125000D02*Y0D01*
X0D02*X100000D01*
G54D52*X200000Y138500D02*Y132500D01*
Y138500D02*X202250Y135500D01*
X204500Y138500D01*
Y132500D01*
X208550Y135500D02*X209300Y134750D01*
X207050Y135500D02*X208550D01*
X206300Y134750D02*X207050Y135500D01*
X206300Y134750D02*Y133250D01*
X207050Y132500D01*
X209300Y135500D02*Y133250D01*
X210050Y132500D01*
X207050D02*X208550D01*
X209300Y133250D01*
X211850Y135500D02*X214850Y132500D01*
X211850D02*X214850Y135500D01*
G54D53*X216650Y137000D02*Y136850D01*
G54D52*Y134750D02*Y132500D01*
X218900Y134750D02*Y132500D01*
Y134750D02*X219650Y135500D01*
X220400D01*
X221150Y134750D01*
Y132500D01*
Y134750D02*X221900Y135500D01*
X222650D01*
X223400Y134750D01*
Y132500D01*
X218150Y135500D02*X218900Y134750D01*
X225200Y135500D02*Y133250D01*
X225950Y132500D01*
X227450D01*
X228200Y133250D01*
Y135500D02*Y133250D01*
X230750Y134750D02*Y132500D01*
Y134750D02*X231500Y135500D01*
X232250D01*
X233000Y134750D01*
Y132500D01*
Y134750D02*X233750Y135500D01*
X234500D01*
X235250Y134750D01*
Y132500D01*
X230000Y135500D02*X230750Y134750D01*
X240500Y138500D02*Y132500D01*
X242450Y138500D02*X243500Y137450D01*
Y133550D01*
X242450Y132500D02*X243500Y133550D01*
X239750Y132500D02*X242450D01*
X239750Y138500D02*X242450D01*
G54D53*X245300Y137000D02*Y136850D01*
G54D52*Y134750D02*Y132500D01*
X247550Y134750D02*Y132500D01*
Y134750D02*X248300Y135500D01*
X249050D01*
X249800Y134750D01*
Y132500D01*
Y134750D02*X250550Y135500D01*
X251300D01*
X252050Y134750D01*
Y132500D01*
X246800Y135500D02*X247550Y134750D01*
X254600Y132500D02*X256850D01*
X253850Y133250D02*X254600Y132500D01*
X253850Y134750D02*Y133250D01*
Y134750D02*X254600Y135500D01*
X256100D01*
X256850Y134750D01*
X253850Y134000D02*X256850D01*
Y134750D02*Y134000D01*
X259400Y134750D02*Y132500D01*
Y134750D02*X260150Y135500D01*
X260900D01*
X261650Y134750D01*
Y132500D01*
X258650Y135500D02*X259400Y134750D01*
X264200Y132500D02*X266450D01*
X267200Y133250D01*
X266450Y134000D02*X267200Y133250D01*
X264200Y134000D02*X266450D01*
X263450Y134750D02*X264200Y134000D01*
X263450Y134750D02*X264200Y135500D01*
X266450D01*
X267200Y134750D01*
X263450Y133250D02*X264200Y132500D01*
G54D53*X269000Y137000D02*Y136850D01*
G54D52*Y134750D02*Y132500D01*
X270500Y134750D02*Y133250D01*
Y134750D02*X271250Y135500D01*
X272750D01*
X273500Y134750D01*
Y133250D01*
X272750Y132500D02*X273500Y133250D01*
X271250Y132500D02*X272750D01*
X270500Y133250D02*X271250Y132500D01*
X276050Y134750D02*Y132500D01*
Y134750D02*X276800Y135500D01*
X277550D01*
X278300Y134750D01*
Y132500D01*
X275300Y135500D02*X276050Y134750D01*
X280850Y132500D02*X283100D01*
X283850Y133250D01*
X283100Y134000D02*X283850Y133250D01*
X280850Y134000D02*X283100D01*
X280100Y134750D02*X280850Y134000D01*
X280100Y134750D02*X280850Y135500D01*
X283100D01*
X283850Y134750D01*
X280100Y133250D02*X280850Y132500D01*
X285650Y136250D02*X286400D01*
X285650Y134750D02*X286400D01*
X290900Y137300D02*X292100Y138500D01*
Y132500D01*
X290900D02*X293150D01*
X294950Y133250D02*X295700Y132500D01*
X294950Y137750D02*Y133250D01*
Y137750D02*X295700Y138500D01*
X297200D01*
X297950Y137750D01*
Y133250D01*
X297200Y132500D02*X297950Y133250D01*
X295700Y132500D02*X297200D01*
X294950Y134000D02*X297950Y137000D01*
X299750Y133250D02*X300500Y132500D01*
X299750Y137750D02*Y133250D01*
Y137750D02*X300500Y138500D01*
X302000D01*
X302750Y137750D01*
Y133250D01*
X302000Y132500D02*X302750Y133250D01*
X300500Y132500D02*X302000D01*
X299750Y134000D02*X302750Y137000D01*
X304550Y133250D02*X305300Y132500D01*
X304550Y137750D02*Y133250D01*
Y137750D02*X305300Y138500D01*
X306800D01*
X307550Y137750D01*
Y133250D01*
X306800Y132500D02*X307550Y133250D01*
X305300Y132500D02*X306800D01*
X304550Y134000D02*X307550Y137000D01*
X309350Y132500D02*X310100D01*
X311900Y133250D02*X312650Y132500D01*
X311900Y137750D02*Y133250D01*
Y137750D02*X312650Y138500D01*
X314150D01*
X314900Y137750D01*
Y133250D01*
X314150Y132500D02*X314900Y133250D01*
X312650Y132500D02*X314150D01*
X311900Y134000D02*X314900Y137000D01*
X316700Y133250D02*X317450Y132500D01*
X316700Y137750D02*Y133250D01*
Y137750D02*X317450Y138500D01*
X318950D01*
X319700Y137750D01*
Y133250D01*
X318950Y132500D02*X319700Y133250D01*
X317450Y132500D02*X318950D01*
X316700Y134000D02*X319700Y137000D01*
X321500Y133250D02*X322250Y132500D01*
X321500Y137750D02*Y133250D01*
Y137750D02*X322250Y138500D01*
X323750D01*
X324500Y137750D01*
Y133250D01*
X323750Y132500D02*X324500Y133250D01*
X322250Y132500D02*X323750D01*
X321500Y134000D02*X324500Y137000D01*
X326300Y133250D02*X327050Y132500D01*
X326300Y137750D02*Y133250D01*
Y137750D02*X327050Y138500D01*
X328550D01*
X329300Y137750D01*
Y133250D01*
X328550Y132500D02*X329300Y133250D01*
X327050Y132500D02*X328550D01*
X326300Y134000D02*X329300Y137000D01*
X331100Y133250D02*X331850Y132500D01*
X331100Y137750D02*Y133250D01*
Y137750D02*X331850Y138500D01*
X333350D01*
X334100Y137750D01*
Y133250D01*
X333350Y132500D02*X334100Y133250D01*
X331850Y132500D02*X333350D01*
X331100Y134000D02*X334100Y137000D01*
X335900Y133250D02*X336650Y132500D01*
X335900Y137750D02*Y133250D01*
Y137750D02*X336650Y138500D01*
X338150D01*
X338900Y137750D01*
Y133250D01*
X338150Y132500D02*X338900Y133250D01*
X336650Y132500D02*X338150D01*
X335900Y134000D02*X338900Y137000D01*
X344150Y134750D02*Y132500D01*
Y134750D02*X344900Y135500D01*
X345650D01*
X346400Y134750D01*
Y132500D01*
Y134750D02*X347150Y135500D01*
X347900D01*
X348650Y134750D01*
Y132500D01*
X343400Y135500D02*X344150Y134750D01*
G54D53*X350450Y137000D02*Y136850D01*
G54D52*Y134750D02*Y132500D01*
X351950Y138500D02*Y133250D01*
X352700Y132500D01*
X354950D02*X357200D01*
X357950Y133250D01*
X357200Y134000D02*X357950Y133250D01*
X354950Y134000D02*X357200D01*
X354200Y134750D02*X354950Y134000D01*
X354200Y134750D02*X354950Y135500D01*
X357200D01*
X357950Y134750D01*
X354200Y133250D02*X354950Y132500D01*
X362450Y135500D02*Y133250D01*
X363200Y132500D01*
X363950D01*
X364700Y133250D01*
Y135500D02*Y133250D01*
X365450Y132500D01*
X366200D01*
X366950Y133250D01*
Y135500D02*Y133250D01*
G54D53*X368750Y137000D02*Y136850D01*
G54D52*Y134750D02*Y132500D01*
X373250Y138500D02*Y132500D01*
X372500D02*X373250Y133250D01*
X371000Y132500D02*X372500D01*
X370250Y133250D02*X371000Y132500D01*
X370250Y134750D02*Y133250D01*
Y134750D02*X371000Y135500D01*
X372500D01*
X373250Y134750D01*
X375800Y132500D02*X378050D01*
X375050Y133250D02*X375800Y132500D01*
X375050Y134750D02*Y133250D01*
Y134750D02*X375800Y135500D01*
X377300D01*
X378050Y134750D01*
X375050Y134000D02*X378050D01*
Y134750D02*Y134000D01*
X379850Y131000D02*X381350Y132500D01*
X385850Y137300D02*X387050Y138500D01*
Y132500D01*
X385850D02*X388100D01*
X389900Y137750D02*X390650Y138500D01*
X392900D01*
X393650Y137750D01*
Y136250D01*
X389900Y132500D02*X393650Y136250D01*
X389900Y132500D02*X393650D01*
X395450Y138500D02*X398450D01*
X395450D02*Y135500D01*
X396200Y136250D01*
X397700D01*
X398450Y135500D01*
Y133250D01*
X397700Y132500D02*X398450Y133250D01*
X396200Y132500D02*X397700D01*
X395450Y133250D02*X396200Y132500D01*
X400250Y133250D02*X401000Y132500D01*
X400250Y137750D02*Y133250D01*
Y137750D02*X401000Y138500D01*
X402500D01*
X403250Y137750D01*
Y133250D01*
X402500Y132500D02*X403250Y133250D01*
X401000Y132500D02*X402500D01*
X400250Y134000D02*X403250Y137000D01*
X405050Y132500D02*X405800D01*
X407600Y133250D02*X408350Y132500D01*
X407600Y137750D02*Y133250D01*
Y137750D02*X408350Y138500D01*
X409850D01*
X410600Y137750D01*
Y133250D01*
X409850Y132500D02*X410600Y133250D01*
X408350Y132500D02*X409850D01*
X407600Y134000D02*X410600Y137000D01*
X412400Y133250D02*X413150Y132500D01*
X412400Y137750D02*Y133250D01*
Y137750D02*X413150Y138500D01*
X414650D01*
X415400Y137750D01*
Y133250D01*
X414650Y132500D02*X415400Y133250D01*
X413150Y132500D02*X414650D01*
X412400Y134000D02*X415400Y137000D01*
X417200Y133250D02*X417950Y132500D01*
X417200Y137750D02*Y133250D01*
Y137750D02*X417950Y138500D01*
X419450D01*
X420200Y137750D01*
Y133250D01*
X419450Y132500D02*X420200Y133250D01*
X417950Y132500D02*X419450D01*
X417200Y134000D02*X420200Y137000D01*
X422000Y133250D02*X422750Y132500D01*
X422000Y137750D02*Y133250D01*
Y137750D02*X422750Y138500D01*
X424250D01*
X425000Y137750D01*
Y133250D01*
X424250Y132500D02*X425000Y133250D01*
X422750Y132500D02*X424250D01*
X422000Y134000D02*X425000Y137000D01*
X426800Y133250D02*X427550Y132500D01*
X426800Y137750D02*Y133250D01*
Y137750D02*X427550Y138500D01*
X429050D01*
X429800Y137750D01*
Y133250D01*
X429050Y132500D02*X429800Y133250D01*
X427550Y132500D02*X429050D01*
X426800Y134000D02*X429800Y137000D01*
X431600Y133250D02*X432350Y132500D01*
X431600Y137750D02*Y133250D01*
Y137750D02*X432350Y138500D01*
X433850D01*
X434600Y137750D01*
Y133250D01*
X433850Y132500D02*X434600Y133250D01*
X432350Y132500D02*X433850D01*
X431600Y134000D02*X434600Y137000D01*
X439850Y134750D02*Y132500D01*
Y134750D02*X440600Y135500D01*
X441350D01*
X442100Y134750D01*
Y132500D01*
Y134750D02*X442850Y135500D01*
X443600D01*
X444350Y134750D01*
Y132500D01*
X439100Y135500D02*X439850Y134750D01*
G54D53*X446150Y137000D02*Y136850D01*
G54D52*Y134750D02*Y132500D01*
X447650Y138500D02*Y133250D01*
X448400Y132500D01*
X450650D02*X452900D01*
X453650Y133250D01*
X452900Y134000D02*X453650Y133250D01*
X450650Y134000D02*X452900D01*
X449900Y134750D02*X450650Y134000D01*
X449900Y134750D02*X450650Y135500D01*
X452900D01*
X453650Y134750D01*
X449900Y133250D02*X450650Y132500D01*
X458150Y138500D02*Y132500D01*
Y134750D02*X458900Y135500D01*
X460400D01*
X461150Y134750D01*
Y132500D01*
G54D53*X462950Y137000D02*Y136850D01*
G54D52*Y134750D02*Y132500D01*
X466700Y135500D02*X467450Y134750D01*
X465200Y135500D02*X466700D01*
X464450Y134750D02*X465200Y135500D01*
X464450Y134750D02*Y133250D01*
X465200Y132500D01*
X466700D01*
X467450Y133250D01*
X464450Y131000D02*X465200Y130250D01*
X466700D01*
X467450Y131000D01*
Y135500D02*Y131000D01*
X469250Y138500D02*Y132500D01*
Y134750D02*X470000Y135500D01*
X471500D01*
X472250Y134750D01*
Y132500D01*
X0Y-9500D02*X3000D01*
X3750Y-8750D01*
Y-6950D02*Y-8750D01*
X3000Y-6200D02*X3750Y-6950D01*
X750Y-6200D02*X3000D01*
X750Y-3500D02*Y-9500D01*
X0Y-3500D02*X3000D01*
X3750Y-4250D01*
Y-5450D01*
X3000Y-6200D02*X3750Y-5450D01*
X5550Y-7250D02*Y-8750D01*
Y-7250D02*X6300Y-6500D01*
X7800D01*
X8550Y-7250D01*
Y-8750D01*
X7800Y-9500D02*X8550Y-8750D01*
X6300Y-9500D02*X7800D01*
X5550Y-8750D02*X6300Y-9500D01*
X12600Y-6500D02*X13350Y-7250D01*
X11100Y-6500D02*X12600D01*
X10350Y-7250D02*X11100Y-6500D01*
X10350Y-7250D02*Y-8750D01*
X11100Y-9500D01*
X13350Y-6500D02*Y-8750D01*
X14100Y-9500D01*
X11100D02*X12600D01*
X13350Y-8750D01*
X16650Y-7250D02*Y-9500D01*
Y-7250D02*X17400Y-6500D01*
X18900D01*
X15900D02*X16650Y-7250D01*
X23700Y-3500D02*Y-9500D01*
X22950D02*X23700Y-8750D01*
X21450Y-9500D02*X22950D01*
X20700Y-8750D02*X21450Y-9500D01*
X20700Y-7250D02*Y-8750D01*
Y-7250D02*X21450Y-6500D01*
X22950D01*
X23700Y-7250D01*
X28200D02*Y-8750D01*
Y-7250D02*X28950Y-6500D01*
X30450D01*
X31200Y-7250D01*
Y-8750D01*
X30450Y-9500D02*X31200Y-8750D01*
X28950Y-9500D02*X30450D01*
X28200Y-8750D02*X28950Y-9500D01*
X33000Y-6500D02*Y-8750D01*
X33750Y-9500D01*
X35250D01*
X36000Y-8750D01*
Y-6500D02*Y-8750D01*
X38550Y-3500D02*Y-8750D01*
X39300Y-9500D01*
X37800Y-5750D02*X39300D01*
X40800Y-3500D02*Y-8750D01*
X41550Y-9500D01*
G54D53*X43050Y-5000D02*Y-5150D01*
G54D52*Y-7250D02*Y-9500D01*
X45300Y-7250D02*Y-9500D01*
Y-7250D02*X46050Y-6500D01*
X46800D01*
X47550Y-7250D01*
Y-9500D01*
X44550Y-6500D02*X45300Y-7250D01*
X50100Y-9500D02*X52350D01*
X49350Y-8750D02*X50100Y-9500D01*
X49350Y-7250D02*Y-8750D01*
Y-7250D02*X50100Y-6500D01*
X51600D01*
X52350Y-7250D01*
X49350Y-8000D02*X52350D01*
Y-7250D02*Y-8000D01*
G54D53*X56850Y-5000D02*Y-5150D01*
G54D52*Y-7250D02*Y-9500D01*
X59100D02*X61350D01*
X62100Y-8750D01*
X61350Y-8000D02*X62100Y-8750D01*
X59100Y-8000D02*X61350D01*
X58350Y-7250D02*X59100Y-8000D01*
X58350Y-7250D02*X59100Y-6500D01*
X61350D01*
X62100Y-7250D01*
X58350Y-8750D02*X59100Y-9500D01*
X67350Y-3500D02*Y-8750D01*
X68100Y-9500D01*
X66600Y-5750D02*X68100D01*
X69600Y-3500D02*Y-9500D01*
Y-7250D02*X70350Y-6500D01*
X71850D01*
X72600Y-7250D01*
Y-9500D01*
X75150D02*X77400D01*
X74400Y-8750D02*X75150Y-9500D01*
X74400Y-7250D02*Y-8750D01*
Y-7250D02*X75150Y-6500D01*
X76650D01*
X77400Y-7250D01*
X74400Y-8000D02*X77400D01*
Y-7250D02*Y-8000D01*
X82650Y-6500D02*X84900D01*
X81900Y-7250D02*X82650Y-6500D01*
X81900Y-7250D02*Y-8750D01*
X82650Y-9500D01*
X84900D01*
X87450D02*X89700D01*
X86700Y-8750D02*X87450Y-9500D01*
X86700Y-7250D02*Y-8750D01*
Y-7250D02*X87450Y-6500D01*
X88950D01*
X89700Y-7250D01*
X86700Y-8000D02*X89700D01*
Y-7250D02*Y-8000D01*
X92250Y-7250D02*Y-9500D01*
Y-7250D02*X93000Y-6500D01*
X93750D01*
X94500Y-7250D01*
Y-9500D01*
X91500Y-6500D02*X92250Y-7250D01*
X97050Y-3500D02*Y-8750D01*
X97800Y-9500D01*
X96300Y-5750D02*X97800D01*
X100050Y-9500D02*X102300D01*
X99300Y-8750D02*X100050Y-9500D01*
X99300Y-7250D02*Y-8750D01*
Y-7250D02*X100050Y-6500D01*
X101550D01*
X102300Y-7250D01*
X99300Y-8000D02*X102300D01*
Y-7250D02*Y-8000D01*
X104850Y-7250D02*Y-9500D01*
Y-7250D02*X105600Y-6500D01*
X107100D01*
X104100D02*X104850Y-7250D01*
X108900Y-3500D02*Y-8750D01*
X109650Y-9500D01*
G54D53*X111150Y-5000D02*Y-5150D01*
G54D52*Y-7250D02*Y-9500D01*
X113400Y-7250D02*Y-9500D01*
Y-7250D02*X114150Y-6500D01*
X114900D01*
X115650Y-7250D01*
Y-9500D01*
X112650Y-6500D02*X113400Y-7250D01*
X118200Y-9500D02*X120450D01*
X117450Y-8750D02*X118200Y-9500D01*
X117450Y-7250D02*Y-8750D01*
Y-7250D02*X118200Y-6500D01*
X119700D01*
X120450Y-7250D01*
X117450Y-8000D02*X120450D01*
Y-7250D02*Y-8000D01*
X124950Y-7250D02*Y-8750D01*
Y-7250D02*X125700Y-6500D01*
X127200D01*
X127950Y-7250D01*
Y-8750D01*
X127200Y-9500D02*X127950Y-8750D01*
X125700Y-9500D02*X127200D01*
X124950Y-8750D02*X125700Y-9500D01*
X130500Y-4250D02*Y-9500D01*
Y-4250D02*X131250Y-3500D01*
X132000D01*
X129750Y-6500D02*X131250D01*
X136950Y-3500D02*Y-8750D01*
X137700Y-9500D01*
X136200Y-5750D02*X137700D01*
X139200Y-3500D02*Y-9500D01*
Y-7250D02*X139950Y-6500D01*
X141450D01*
X142200Y-7250D01*
Y-9500D01*
G54D53*X144000Y-5000D02*Y-5150D01*
G54D52*Y-7250D02*Y-9500D01*
X146250D02*X148500D01*
X149250Y-8750D01*
X148500Y-8000D02*X149250Y-8750D01*
X146250Y-8000D02*X148500D01*
X145500Y-7250D02*X146250Y-8000D01*
X145500Y-7250D02*X146250Y-6500D01*
X148500D01*
X149250Y-7250D01*
X145500Y-8750D02*X146250Y-9500D01*
X153750Y-8750D02*X154500Y-9500D01*
X153750Y-7550D02*Y-8750D01*
Y-7550D02*X154800Y-6500D01*
X155700D01*
X156750Y-7550D01*
Y-8750D01*
X156000Y-9500D02*X156750Y-8750D01*
X154500Y-9500D02*X156000D01*
X153750Y-5450D02*X154800Y-6500D01*
X153750Y-4250D02*Y-5450D01*
Y-4250D02*X154500Y-3500D01*
X156000D01*
X156750Y-4250D01*
Y-5450D01*
X155700Y-6500D02*X156750Y-5450D01*
X158550Y-9500D02*X159300D01*
X161100Y-8750D02*X161850Y-9500D01*
X161100Y-4250D02*Y-8750D01*
Y-4250D02*X161850Y-3500D01*
X163350D01*
X164100Y-4250D01*
Y-8750D01*
X163350Y-9500D02*X164100Y-8750D01*
X161850Y-9500D02*X163350D01*
X161100Y-8000D02*X164100Y-5000D01*
X165900Y-8750D02*X166650Y-9500D01*
X165900Y-4250D02*Y-8750D01*
Y-4250D02*X166650Y-3500D01*
X168150D01*
X168900Y-4250D01*
Y-8750D01*
X168150Y-9500D02*X168900Y-8750D01*
X166650Y-9500D02*X168150D01*
X165900Y-8000D02*X168900Y-5000D01*
X170700Y-8750D02*X171450Y-9500D01*
X170700Y-4250D02*Y-8750D01*
Y-4250D02*X171450Y-3500D01*
X172950D01*
X173700Y-4250D01*
Y-8750D01*
X172950Y-9500D02*X173700Y-8750D01*
X171450Y-9500D02*X172950D01*
X170700Y-8000D02*X173700Y-5000D01*
X175500Y-8750D02*X176250Y-9500D01*
X175500Y-4250D02*Y-8750D01*
Y-4250D02*X176250Y-3500D01*
X177750D01*
X178500Y-4250D01*
Y-8750D01*
X177750Y-9500D02*X178500Y-8750D01*
X176250Y-9500D02*X177750D01*
X175500Y-8000D02*X178500Y-5000D01*
X180300Y-8750D02*X181050Y-9500D01*
X180300Y-4250D02*Y-8750D01*
Y-4250D02*X181050Y-3500D01*
X182550D01*
X183300Y-4250D01*
Y-8750D01*
X182550Y-9500D02*X183300Y-8750D01*
X181050Y-9500D02*X182550D01*
X180300Y-8000D02*X183300Y-5000D01*
X185100Y-8750D02*X185850Y-9500D01*
X185100Y-4250D02*Y-8750D01*
Y-4250D02*X185850Y-3500D01*
X187350D01*
X188100Y-4250D01*
Y-8750D01*
X187350Y-9500D02*X188100Y-8750D01*
X185850Y-9500D02*X187350D01*
X185100Y-8000D02*X188100Y-5000D01*
X193350Y-7250D02*Y-9500D01*
Y-7250D02*X194100Y-6500D01*
X194850D01*
X195600Y-7250D01*
Y-9500D01*
Y-7250D02*X196350Y-6500D01*
X197100D01*
X197850Y-7250D01*
Y-9500D01*
X192600Y-6500D02*X193350Y-7250D01*
G54D53*X199650Y-5000D02*Y-5150D01*
G54D52*Y-7250D02*Y-9500D01*
X201150Y-3500D02*Y-8750D01*
X201900Y-9500D01*
X206850Y-7250D02*Y-9500D01*
Y-7250D02*X207600Y-6500D01*
X209100D01*
X206100D02*X206850Y-7250D01*
X211650Y-9500D02*X213900D01*
X210900Y-8750D02*X211650Y-9500D01*
X210900Y-7250D02*Y-8750D01*
Y-7250D02*X211650Y-6500D01*
X213150D01*
X213900Y-7250D01*
X210900Y-8000D02*X213900D01*
Y-7250D02*Y-8000D01*
X216450Y-6500D02*X218700D01*
X215700Y-7250D02*X216450Y-6500D01*
X215700Y-7250D02*Y-8750D01*
X216450Y-9500D01*
X218700D01*
X221250Y-3500D02*Y-8750D01*
X222000Y-9500D01*
X220500Y-5750D02*X222000D01*
X225750Y-6500D02*X226500Y-7250D01*
X224250Y-6500D02*X225750D01*
X223500Y-7250D02*X224250Y-6500D01*
X223500Y-7250D02*Y-8750D01*
X224250Y-9500D01*
X226500Y-6500D02*Y-8750D01*
X227250Y-9500D01*
X224250D02*X225750D01*
X226500Y-8750D01*
X229800Y-7250D02*Y-9500D01*
Y-7250D02*X230550Y-6500D01*
X231300D01*
X232050Y-7250D01*
Y-9500D01*
X229050Y-6500D02*X229800Y-7250D01*
X236100Y-6500D02*X236850Y-7250D01*
X234600Y-6500D02*X236100D01*
X233850Y-7250D02*X234600Y-6500D01*
X233850Y-7250D02*Y-8750D01*
X234600Y-9500D01*
X236100D01*
X236850Y-8750D01*
X233850Y-11000D02*X234600Y-11750D01*
X236100D01*
X236850Y-11000D01*
Y-6500D02*Y-11000D01*
X238650Y-3500D02*Y-8750D01*
X239400Y-9500D01*
X241650D02*X243900D01*
X240900Y-8750D02*X241650Y-9500D01*
X240900Y-7250D02*Y-8750D01*
Y-7250D02*X241650Y-6500D01*
X243150D01*
X243900Y-7250D01*
X240900Y-8000D02*X243900D01*
Y-7250D02*Y-8000D01*
X248400Y-6500D02*X251400D01*
X255900Y-8750D02*X256650Y-9500D01*
X255900Y-4250D02*Y-8750D01*
Y-4250D02*X256650Y-3500D01*
X258150D01*
X258900Y-4250D01*
Y-8750D01*
X258150Y-9500D02*X258900Y-8750D01*
X256650Y-9500D02*X258150D01*
X255900Y-8000D02*X258900Y-5000D01*
X260700Y-11000D02*X262200Y-9500D01*
X264000Y-8750D02*X264750Y-9500D01*
X264000Y-4250D02*Y-8750D01*
Y-4250D02*X264750Y-3500D01*
X266250D01*
X267000Y-4250D01*
Y-8750D01*
X266250Y-9500D02*X267000Y-8750D01*
X264750Y-9500D02*X266250D01*
X264000Y-8000D02*X267000Y-5000D01*
X272250Y-3500D02*Y-8750D01*
X273000Y-9500D01*
X271500Y-5750D02*X273000D01*
X274500Y-7250D02*Y-8750D01*
Y-7250D02*X275250Y-6500D01*
X276750D01*
X277500Y-7250D01*
Y-8750D01*
X276750Y-9500D02*X277500Y-8750D01*
X275250Y-9500D02*X276750D01*
X274500Y-8750D02*X275250Y-9500D01*
X282000Y-4700D02*X283200Y-3500D01*
Y-9500D01*
X282000D02*X284250D01*
X286050Y-8750D02*X286800Y-9500D01*
X286050Y-4250D02*Y-8750D01*
Y-4250D02*X286800Y-3500D01*
X288300D01*
X289050Y-4250D01*
Y-8750D01*
X288300Y-9500D02*X289050Y-8750D01*
X286800Y-9500D02*X288300D01*
X286050Y-8000D02*X289050Y-5000D01*
X290850Y-8750D02*X291600Y-9500D01*
X290850Y-4250D02*Y-8750D01*
Y-4250D02*X291600Y-3500D01*
X293100D01*
X293850Y-4250D01*
Y-8750D01*
X293100Y-9500D02*X293850Y-8750D01*
X291600Y-9500D02*X293100D01*
X290850Y-8000D02*X293850Y-5000D01*
X295650Y-8750D02*X296400Y-9500D01*
X295650Y-4250D02*Y-8750D01*
Y-4250D02*X296400Y-3500D01*
X297900D01*
X298650Y-4250D01*
Y-8750D01*
X297900Y-9500D02*X298650Y-8750D01*
X296400Y-9500D02*X297900D01*
X295650Y-8000D02*X298650Y-5000D01*
X300450Y-9500D02*X301200D01*
X303000Y-8750D02*X303750Y-9500D01*
X303000Y-4250D02*Y-8750D01*
Y-4250D02*X303750Y-3500D01*
X305250D01*
X306000Y-4250D01*
Y-8750D01*
X305250Y-9500D02*X306000Y-8750D01*
X303750Y-9500D02*X305250D01*
X303000Y-8000D02*X306000Y-5000D01*
X307800Y-8750D02*X308550Y-9500D01*
X307800Y-4250D02*Y-8750D01*
Y-4250D02*X308550Y-3500D01*
X310050D01*
X310800Y-4250D01*
Y-8750D01*
X310050Y-9500D02*X310800Y-8750D01*
X308550Y-9500D02*X310050D01*
X307800Y-8000D02*X310800Y-5000D01*
X312600Y-8750D02*X313350Y-9500D01*
X312600Y-4250D02*Y-8750D01*
Y-4250D02*X313350Y-3500D01*
X314850D01*
X315600Y-4250D01*
Y-8750D01*
X314850Y-9500D02*X315600Y-8750D01*
X313350Y-9500D02*X314850D01*
X312600Y-8000D02*X315600Y-5000D01*
X317400Y-8750D02*X318150Y-9500D01*
X317400Y-4250D02*Y-8750D01*
Y-4250D02*X318150Y-3500D01*
X319650D01*
X320400Y-4250D01*
Y-8750D01*
X319650Y-9500D02*X320400Y-8750D01*
X318150Y-9500D02*X319650D01*
X317400Y-8000D02*X320400Y-5000D01*
X322200Y-8750D02*X322950Y-9500D01*
X322200Y-4250D02*Y-8750D01*
Y-4250D02*X322950Y-3500D01*
X324450D01*
X325200Y-4250D01*
Y-8750D01*
X324450Y-9500D02*X325200Y-8750D01*
X322950Y-9500D02*X324450D01*
X322200Y-8000D02*X325200Y-5000D01*
X327000Y-8750D02*X327750Y-9500D01*
X327000Y-4250D02*Y-8750D01*
Y-4250D02*X327750Y-3500D01*
X329250D01*
X330000Y-4250D01*
Y-8750D01*
X329250Y-9500D02*X330000Y-8750D01*
X327750Y-9500D02*X329250D01*
X327000Y-8000D02*X330000Y-5000D01*
X331800Y-11000D02*X333300Y-9500D01*
X335100Y-4700D02*X336300Y-3500D01*
Y-9500D01*
X335100D02*X337350D01*
X339150Y-4250D02*X339900Y-3500D01*
X342150D01*
X342900Y-4250D01*
Y-5750D01*
X339150Y-9500D02*X342900Y-5750D01*
X339150Y-9500D02*X342900D01*
X344700Y-3500D02*X347700D01*
X344700D02*Y-6500D01*
X345450Y-5750D01*
X346950D01*
X347700Y-6500D01*
Y-8750D01*
X346950Y-9500D02*X347700Y-8750D01*
X345450Y-9500D02*X346950D01*
X344700Y-8750D02*X345450Y-9500D01*
X349500Y-8750D02*X350250Y-9500D01*
X349500Y-4250D02*Y-8750D01*
Y-4250D02*X350250Y-3500D01*
X351750D01*
X352500Y-4250D01*
Y-8750D01*
X351750Y-9500D02*X352500Y-8750D01*
X350250Y-9500D02*X351750D01*
X349500Y-8000D02*X352500Y-5000D01*
X354300Y-9500D02*X355050D01*
X356850Y-8750D02*X357600Y-9500D01*
X356850Y-4250D02*Y-8750D01*
Y-4250D02*X357600Y-3500D01*
X359100D01*
X359850Y-4250D01*
Y-8750D01*
X359100Y-9500D02*X359850Y-8750D01*
X357600Y-9500D02*X359100D01*
X356850Y-8000D02*X359850Y-5000D01*
X361650Y-8750D02*X362400Y-9500D01*
X361650Y-4250D02*Y-8750D01*
Y-4250D02*X362400Y-3500D01*
X363900D01*
X364650Y-4250D01*
Y-8750D01*
X363900Y-9500D02*X364650Y-8750D01*
X362400Y-9500D02*X363900D01*
X361650Y-8000D02*X364650Y-5000D01*
X366450Y-8750D02*X367200Y-9500D01*
X366450Y-4250D02*Y-8750D01*
Y-4250D02*X367200Y-3500D01*
X368700D01*
X369450Y-4250D01*
Y-8750D01*
X368700Y-9500D02*X369450Y-8750D01*
X367200Y-9500D02*X368700D01*
X366450Y-8000D02*X369450Y-5000D01*
X371250Y-8750D02*X372000Y-9500D01*
X371250Y-4250D02*Y-8750D01*
Y-4250D02*X372000Y-3500D01*
X373500D01*
X374250Y-4250D01*
Y-8750D01*
X373500Y-9500D02*X374250Y-8750D01*
X372000Y-9500D02*X373500D01*
X371250Y-8000D02*X374250Y-5000D01*
X376050Y-8750D02*X376800Y-9500D01*
X376050Y-4250D02*Y-8750D01*
Y-4250D02*X376800Y-3500D01*
X378300D01*
X379050Y-4250D01*
Y-8750D01*
X378300Y-9500D02*X379050Y-8750D01*
X376800Y-9500D02*X378300D01*
X376050Y-8000D02*X379050Y-5000D01*
X380850Y-8750D02*X381600Y-9500D01*
X380850Y-4250D02*Y-8750D01*
Y-4250D02*X381600Y-3500D01*
X383100D01*
X383850Y-4250D01*
Y-8750D01*
X383100Y-9500D02*X383850Y-8750D01*
X381600Y-9500D02*X383100D01*
X380850Y-8000D02*X383850Y-5000D01*
X389100Y-7250D02*Y-9500D01*
Y-7250D02*X389850Y-6500D01*
X390600D01*
X391350Y-7250D01*
Y-9500D01*
Y-7250D02*X392100Y-6500D01*
X392850D01*
X393600Y-7250D01*
Y-9500D01*
X388350Y-6500D02*X389100Y-7250D01*
G54D53*X395400Y-5000D02*Y-5150D01*
G54D52*Y-7250D02*Y-9500D01*
X396900Y-3500D02*Y-8750D01*
X397650Y-9500D01*
X399900D02*X402150D01*
X402900Y-8750D01*
X402150Y-8000D02*X402900Y-8750D01*
X399900Y-8000D02*X402150D01*
X399150Y-7250D02*X399900Y-8000D01*
X399150Y-7250D02*X399900Y-6500D01*
X402150D01*
X402900Y-7250D01*
X399150Y-8750D02*X399900Y-9500D01*
X200750Y153500D02*Y147500D01*
X202700Y153500D02*X203750Y152450D01*
Y148550D01*
X202700Y147500D02*X203750Y148550D01*
X200000Y147500D02*X202700D01*
X200000Y153500D02*X202700D01*
X207800Y150500D02*X208550Y149750D01*
X206300Y150500D02*X207800D01*
X205550Y149750D02*X206300Y150500D01*
X205550Y149750D02*Y148250D01*
X206300Y147500D01*
X208550Y150500D02*Y148250D01*
X209300Y147500D01*
X206300D02*X207800D01*
X208550Y148250D01*
X211850Y153500D02*Y148250D01*
X212600Y147500D01*
X211100Y151250D02*X212600D01*
X214850Y147500D02*X217100D01*
X214100Y148250D02*X214850Y147500D01*
X214100Y149750D02*Y148250D01*
Y149750D02*X214850Y150500D01*
X216350D01*
X217100Y149750D01*
X214100Y149000D02*X217100D01*
Y149750D02*Y149000D01*
X218900Y151250D02*X219650D01*
X218900Y149750D02*X219650D01*
X224150Y153500D02*Y147500D01*
Y153500D02*X226400Y150500D01*
X228650Y153500D01*
Y147500D01*
X230450Y149750D02*Y148250D01*
Y149750D02*X231200Y150500D01*
X232700D01*
X233450Y149750D01*
Y148250D01*
X232700Y147500D02*X233450Y148250D01*
X231200Y147500D02*X232700D01*
X230450Y148250D02*X231200Y147500D01*
X236000Y149750D02*Y147500D01*
Y149750D02*X236750Y150500D01*
X237500D01*
X238250Y149750D01*
Y147500D01*
X235250Y150500D02*X236000Y149750D01*
X242750Y148250D02*X243500Y147500D01*
X242750Y152750D02*Y148250D01*
Y152750D02*X243500Y153500D01*
X245000D01*
X245750Y152750D01*
Y148250D01*
X245000Y147500D02*X245750Y148250D01*
X243500Y147500D02*X245000D01*
X242750Y149000D02*X245750Y152000D01*
X247550Y149750D02*X250550Y153500D01*
X247550Y149750D02*X251300D01*
X250550Y153500D02*Y147500D01*
X256850Y153500D02*X258050D01*
Y148250D01*
X257300Y147500D02*X258050Y148250D01*
X256550Y147500D02*X257300D01*
X255800Y148250D02*X256550Y147500D01*
X255800Y149000D02*Y148250D01*
X259850Y150500D02*Y148250D01*
X260600Y147500D01*
X262100D01*
X262850Y148250D01*
Y150500D02*Y148250D01*
X265400Y149750D02*Y147500D01*
Y149750D02*X266150Y150500D01*
X266900D01*
X267650Y149750D01*
Y147500D01*
X264650Y150500D02*X265400Y149750D01*
X272150Y152750D02*X272900Y153500D01*
X275150D01*
X275900Y152750D01*
Y151250D01*
X272150Y147500D02*X275900Y151250D01*
X272150Y147500D02*X275900D01*
X277700Y148250D02*X278450Y147500D01*
X277700Y152750D02*Y148250D01*
Y152750D02*X278450Y153500D01*
X279950D01*
X280700Y152750D01*
Y148250D01*
X279950Y147500D02*X280700Y148250D01*
X278450Y147500D02*X279950D01*
X277700Y149000D02*X280700Y152000D01*
X282500Y152300D02*X283700Y153500D01*
Y147500D01*
X282500D02*X284750D01*
X286550Y152750D02*X287300Y153500D01*
X289550D01*
X290300Y152750D01*
Y151250D01*
X286550Y147500D02*X290300Y151250D01*
X286550Y147500D02*X290300D01*
X294800Y148250D02*X295550Y147500D01*
X294800Y152750D02*Y148250D01*
Y152750D02*X295550Y153500D01*
X297050D01*
X297800Y152750D01*
Y148250D01*
X297050Y147500D02*X297800Y148250D01*
X295550Y147500D02*X297050D01*
X294800Y149000D02*X297800Y152000D01*
X301850Y153500D02*X302600Y152750D01*
X300350Y153500D02*X301850D01*
X299600Y152750D02*X300350Y153500D01*
X299600Y152750D02*Y148250D01*
X300350Y147500D01*
X301850Y150800D02*X302600Y150050D01*
X299600Y150800D02*X301850D01*
X300350Y147500D02*X301850D01*
X302600Y148250D01*
Y150050D02*Y148250D01*
X304400Y151250D02*X305150D01*
X304400Y149750D02*X305150D01*
X306950Y148250D02*X307700Y147500D01*
X306950Y152750D02*Y148250D01*
Y152750D02*X307700Y153500D01*
X309200D01*
X309950Y152750D01*
Y148250D01*
X309200Y147500D02*X309950Y148250D01*
X307700Y147500D02*X309200D01*
X306950Y149000D02*X309950Y152000D01*
X312500Y147500D02*X314750Y150500D01*
Y152750D02*Y150500D01*
X314000Y153500D02*X314750Y152750D01*
X312500Y153500D02*X314000D01*
X311750Y152750D02*X312500Y153500D01*
X311750Y152750D02*Y151250D01*
X312500Y150500D01*
X314750D01*
X316550Y151250D02*X317300D01*
X316550Y149750D02*X317300D01*
X319100Y152750D02*X319850Y153500D01*
X321350D01*
X322100Y152750D01*
X321350Y147500D02*X322100Y148250D01*
X319850Y147500D02*X321350D01*
X319100Y148250D02*X319850Y147500D01*
Y150800D02*X321350D01*
X322100Y152750D02*Y151550D01*
Y150050D02*Y148250D01*
Y150050D02*X321350Y150800D01*
X322100Y151550D02*X321350Y150800D01*
X323900Y152750D02*X324650Y153500D01*
X326150D01*
X326900Y152750D01*
X326150Y147500D02*X326900Y148250D01*
X324650Y147500D02*X326150D01*
X323900Y148250D02*X324650Y147500D01*
Y150800D02*X326150D01*
X326900Y152750D02*Y151550D01*
Y150050D02*Y148250D01*
Y150050D02*X326150Y150800D01*
X326900Y151550D02*X326150Y150800D01*
X332150Y153500D02*Y147500D01*
X331400Y153500D02*X334400D01*
X335150Y152750D01*
Y151250D01*
X334400Y150500D02*X335150Y151250D01*
X332150Y150500D02*X334400D01*
X336950Y153500D02*Y147500D01*
Y153500D02*X339200Y150500D01*
X341450Y153500D01*
Y147500D01*
X348950Y153500D02*X349700Y152750D01*
X346700Y153500D02*X348950D01*
X345950Y152750D02*X346700Y153500D01*
X345950Y152750D02*Y148250D01*
X346700Y147500D01*
X348950D01*
X349700Y148250D01*
Y149750D02*Y148250D01*
X348950Y150500D02*X349700Y149750D01*
X347450Y150500D02*X348950D01*
X351500Y153500D02*Y147500D01*
Y153500D02*X353750Y150500D01*
X356000Y153500D01*
Y147500D01*
X357800Y153500D02*X360800D01*
X359300D02*Y147500D01*
X365300Y153500D02*Y148250D01*
X366050Y147500D01*
X367550D01*
X368300Y148250D01*
Y153500D02*Y148250D01*
X370100Y153500D02*X373100D01*
X371600D02*Y147500D01*
X375950D02*X377900D01*
X374900Y148550D02*X375950Y147500D01*
X374900Y152450D02*Y148550D01*
Y152450D02*X375950Y153500D01*
X377900D01*
X200000Y167000D02*Y162500D01*
Y167000D02*X201050Y168500D01*
X202700D01*
X203750Y167000D01*
Y162500D01*
X200000Y165500D02*X203750D01*
X205550D02*Y163250D01*
X206300Y162500D01*
X207800D01*
X208550Y163250D01*
Y165500D02*Y163250D01*
X211100Y168500D02*Y163250D01*
X211850Y162500D01*
X210350Y166250D02*X211850D01*
X213350Y168500D02*Y162500D01*
Y164750D02*X214100Y165500D01*
X215600D01*
X216350Y164750D01*
Y162500D01*
X218150Y164750D02*Y163250D01*
Y164750D02*X218900Y165500D01*
X220400D01*
X221150Y164750D01*
Y163250D01*
X220400Y162500D02*X221150Y163250D01*
X218900Y162500D02*X220400D01*
X218150Y163250D02*X218900Y162500D01*
X223700Y164750D02*Y162500D01*
Y164750D02*X224450Y165500D01*
X225950D01*
X222950D02*X223700Y164750D01*
X227750Y166250D02*X228500D01*
X227750Y164750D02*X228500D01*
X233000Y165800D02*X235250D01*
X233000Y162500D02*X236000D01*
X233000Y168500D02*Y162500D01*
Y168500D02*X236000D01*
X240800D02*Y162500D01*
X240050D02*X240800Y163250D01*
X238550Y162500D02*X240050D01*
X237800Y163250D02*X238550Y162500D01*
X237800Y164750D02*Y163250D01*
Y164750D02*X238550Y165500D01*
X240050D01*
X240800Y164750D01*
X200000Y183500D02*X203000D01*
X201500D02*Y177500D01*
G54D53*X204800Y182000D02*Y181850D01*
G54D52*Y179750D02*Y177500D01*
X207050Y183500D02*Y178250D01*
X207800Y177500D01*
X206300Y181250D02*X207800D01*
X209300Y183500D02*Y178250D01*
X210050Y177500D01*
X212300D02*X214550D01*
X211550Y178250D02*X212300Y177500D01*
X211550Y179750D02*Y178250D01*
Y179750D02*X212300Y180500D01*
X213800D01*
X214550Y179750D01*
X211550Y179000D02*X214550D01*
Y179750D02*Y179000D01*
X216350Y181250D02*X217100D01*
X216350Y179750D02*X217100D01*
X221600Y177500D02*X225350Y183500D01*
X221600D02*X225350Y177500D01*
X227150D02*X230150D01*
X230900Y178250D01*
Y180050D02*Y178250D01*
X230150Y180800D02*X230900Y180050D01*
X227900Y180800D02*X230150D01*
X227900Y183500D02*Y177500D01*
X227150Y183500D02*X230150D01*
X230900Y182750D01*
Y181550D01*
X230150Y180800D02*X230900Y181550D01*
X232700Y180800D02*X234950D01*
X232700Y177500D02*X235700D01*
X232700Y183500D02*Y177500D01*
Y183500D02*X235700D01*
X237500Y180800D02*X239750D01*
X237500Y177500D02*X240500D01*
X237500Y183500D02*Y177500D01*
Y183500D02*X240500D01*
X242300Y177500D02*X245300D01*
X250100Y183500D02*Y177500D01*
X249350D02*X250100Y178250D01*
X247850Y177500D02*X249350D01*
X247100Y178250D02*X247850Y177500D01*
X247100Y179750D02*Y178250D01*
Y179750D02*X247850Y180500D01*
X249350D01*
X250100Y179750D01*
G54D53*X251900Y182000D02*Y181850D01*
G54D52*Y179750D02*Y177500D01*
X254150Y179750D02*Y175250D01*
X253400Y180500D02*X254150Y179750D01*
X254900Y180500D01*
X256400D01*
X257150Y179750D01*
Y178250D01*
X256400Y177500D02*X257150Y178250D01*
X254900Y177500D02*X256400D01*
X254150Y178250D02*X254900Y177500D01*
X261650Y180500D02*X264650D01*
X269150Y183500D02*Y177500D01*
Y183500D02*X272150D01*
X269150Y180800D02*X271400D01*
X276200Y180500D02*X276950Y179750D01*
X274700Y180500D02*X276200D01*
X273950Y179750D02*X274700Y180500D01*
X273950Y179750D02*Y178250D01*
X274700Y177500D01*
X276950Y180500D02*Y178250D01*
X277700Y177500D01*
X274700D02*X276200D01*
X276950Y178250D01*
X279500Y183500D02*Y177500D01*
Y178250D02*X280250Y177500D01*
X281750D01*
X282500Y178250D01*
Y179750D02*Y178250D01*
X281750Y180500D02*X282500Y179750D01*
X280250Y180500D02*X281750D01*
X279500Y179750D02*X280250Y180500D01*
X285050Y179750D02*Y177500D01*
Y179750D02*X285800Y180500D01*
X287300D01*
X284300D02*X285050Y179750D01*
G54D53*X289100Y182000D02*Y181850D01*
G54D52*Y179750D02*Y177500D01*
X291350Y180500D02*X293600D01*
X290600Y179750D02*X291350Y180500D01*
X290600Y179750D02*Y178250D01*
X291350Y177500D01*
X293600D01*
X297650Y180500D02*X298400Y179750D01*
X296150Y180500D02*X297650D01*
X295400Y179750D02*X296150Y180500D01*
X295400Y179750D02*Y178250D01*
X296150Y177500D01*
X298400Y180500D02*Y178250D01*
X299150Y177500D01*
X296150D02*X297650D01*
X298400Y178250D01*
X301700Y183500D02*Y178250D01*
X302450Y177500D01*
X300950Y181250D02*X302450D01*
G54D53*X303950Y182000D02*Y181850D01*
G54D52*Y179750D02*Y177500D01*
X305450Y179750D02*Y178250D01*
Y179750D02*X306200Y180500D01*
X307700D01*
X308450Y179750D01*
Y178250D01*
X307700Y177500D02*X308450Y178250D01*
X306200Y177500D02*X307700D01*
X305450Y178250D02*X306200Y177500D01*
X311000Y179750D02*Y177500D01*
Y179750D02*X311750Y180500D01*
X312500D01*
X313250Y179750D01*
Y177500D01*
X310250Y180500D02*X311000Y179750D01*
X318500Y183500D02*Y177500D01*
X320450Y183500D02*X321500Y182450D01*
Y178550D01*
X320450Y177500D02*X321500Y178550D01*
X317750Y177500D02*X320450D01*
X317750Y183500D02*X320450D01*
X324050Y179750D02*Y177500D01*
Y179750D02*X324800Y180500D01*
X326300D01*
X323300D02*X324050Y179750D01*
X330350Y180500D02*X331100Y179750D01*
X328850Y180500D02*X330350D01*
X328100Y179750D02*X328850Y180500D01*
X328100Y179750D02*Y178250D01*
X328850Y177500D01*
X331100Y180500D02*Y178250D01*
X331850Y177500D01*
X328850D02*X330350D01*
X331100Y178250D01*
X333650Y180500D02*Y178250D01*
X334400Y177500D01*
X335150D01*
X335900Y178250D01*
Y180500D02*Y178250D01*
X336650Y177500D01*
X337400D01*
X338150Y178250D01*
Y180500D02*Y178250D01*
G54D53*X339950Y182000D02*Y181850D01*
G54D52*Y179750D02*Y177500D01*
X342200Y179750D02*Y177500D01*
Y179750D02*X342950Y180500D01*
X343700D01*
X344450Y179750D01*
Y177500D01*
X341450Y180500D02*X342200Y179750D01*
X348500Y180500D02*X349250Y179750D01*
X347000Y180500D02*X348500D01*
X346250Y179750D02*X347000Y180500D01*
X346250Y179750D02*Y178250D01*
X347000Y177500D01*
X348500D01*
X349250Y178250D01*
X346250Y176000D02*X347000Y175250D01*
X348500D01*
X349250Y176000D01*
Y180500D02*Y176000D01*
M02*
