M48
INCH
T45C0.020
T44C0.028
%
T45
X000400Y006350
X000400Y005550
X000400Y004750
X000400Y003150
X000400Y003950
X000400Y009550
X000400Y008750
X000400Y007150
X000400Y007950
X000400Y002350
X009050Y009550
X009050Y008750
X009050Y007150
X009050Y006350
X009050Y005550
X009050Y004750
X009050Y003150
X009050Y002350
X009050Y003950
X009050Y007950
T44
X003500Y003949
X003500Y002949
X003500Y001949
X006500Y001949
X006500Y002949
X006500Y003949
X006500Y004949
X006500Y005949
X006500Y006949
X006500Y007949
X006500Y008949
X006500Y009949
X006500Y010949
X003500Y007949
X003500Y006949
X003500Y005949
X003500Y004949
X003500Y010949
X003500Y009949
X003500Y008949
M30
