G04 start of page 3 for group 5 idx 5 *
G04 Title: XBEE_dip, bottom *
G04 Creator: pcb 20110918 *
G04 CreationDate: Mon 04 Jun 2012 06:09:33 PM GMT UTC *
G04 For: ed *
G04 Format: Gerber/RS-274X *
G04 PCB-Dimensions: 100000 125000 *
G04 PCB-Coordinate-Origin: lower left *
%MOIN*%
%FSLAX25Y25*%
%LNBOTTOM*%
%ADD43C,0.0280*%
%ADD42C,0.0200*%
%ADD41C,0.0360*%
%ADD40C,0.0600*%
%ADD39C,0.0001*%
G54D39*G36*
X90496Y124500D02*X100000D01*
Y0D01*
X90496D01*
Y20692D01*
X90500Y20691D01*
X90939Y20726D01*
X91368Y20829D01*
X91775Y20997D01*
X92151Y21228D01*
X92486Y21514D01*
X92772Y21849D01*
X93003Y22225D01*
X93171Y22632D01*
X93274Y23061D01*
X93300Y23500D01*
X93274Y23939D01*
X93171Y24368D01*
X93003Y24775D01*
X92772Y25151D01*
X92486Y25486D01*
X92151Y25772D01*
X91775Y26003D01*
X91368Y26171D01*
X90939Y26274D01*
X90500Y26309D01*
X90496Y26308D01*
Y28692D01*
X90500Y28691D01*
X90939Y28726D01*
X91368Y28829D01*
X91775Y28997D01*
X92151Y29228D01*
X92486Y29514D01*
X92772Y29849D01*
X93003Y30225D01*
X93171Y30632D01*
X93274Y31061D01*
X93300Y31500D01*
X93274Y31939D01*
X93171Y32368D01*
X93003Y32775D01*
X92772Y33151D01*
X92486Y33486D01*
X92151Y33772D01*
X91775Y34003D01*
X91368Y34171D01*
X90939Y34274D01*
X90500Y34309D01*
X90496Y34308D01*
Y36692D01*
X90500Y36691D01*
X90939Y36726D01*
X91368Y36829D01*
X91775Y36997D01*
X92151Y37228D01*
X92486Y37514D01*
X92772Y37849D01*
X93003Y38225D01*
X93171Y38632D01*
X93274Y39061D01*
X93300Y39500D01*
X93274Y39939D01*
X93171Y40368D01*
X93003Y40775D01*
X92772Y41151D01*
X92486Y41486D01*
X92151Y41772D01*
X91775Y42003D01*
X91368Y42171D01*
X90939Y42274D01*
X90500Y42309D01*
X90496Y42308D01*
Y44692D01*
X90500Y44691D01*
X90939Y44726D01*
X91368Y44829D01*
X91775Y44997D01*
X92151Y45228D01*
X92486Y45514D01*
X92772Y45849D01*
X93003Y46225D01*
X93171Y46632D01*
X93274Y47061D01*
X93300Y47500D01*
X93274Y47939D01*
X93171Y48368D01*
X93003Y48775D01*
X92772Y49151D01*
X92486Y49486D01*
X92151Y49772D01*
X91775Y50003D01*
X91368Y50171D01*
X90939Y50274D01*
X90500Y50309D01*
X90496Y50308D01*
Y52692D01*
X90500Y52691D01*
X90939Y52726D01*
X91368Y52829D01*
X91775Y52997D01*
X92151Y53228D01*
X92486Y53514D01*
X92772Y53849D01*
X93003Y54225D01*
X93171Y54632D01*
X93274Y55061D01*
X93300Y55500D01*
X93274Y55939D01*
X93171Y56368D01*
X93003Y56775D01*
X92772Y57151D01*
X92486Y57486D01*
X92151Y57772D01*
X91775Y58003D01*
X91368Y58171D01*
X90939Y58274D01*
X90500Y58309D01*
X90496Y58308D01*
Y60692D01*
X90500Y60691D01*
X90939Y60726D01*
X91368Y60829D01*
X91775Y60997D01*
X92151Y61228D01*
X92486Y61514D01*
X92772Y61849D01*
X93003Y62225D01*
X93171Y62632D01*
X93274Y63061D01*
X93300Y63500D01*
X93274Y63939D01*
X93171Y64368D01*
X93003Y64775D01*
X92772Y65151D01*
X92486Y65486D01*
X92151Y65772D01*
X91775Y66003D01*
X91368Y66171D01*
X90939Y66274D01*
X90500Y66309D01*
X90496Y66308D01*
Y68692D01*
X90500Y68691D01*
X90939Y68726D01*
X91368Y68829D01*
X91775Y68997D01*
X92151Y69228D01*
X92486Y69514D01*
X92772Y69849D01*
X93003Y70225D01*
X93171Y70632D01*
X93274Y71061D01*
X93300Y71500D01*
X93274Y71939D01*
X93171Y72368D01*
X93003Y72775D01*
X92772Y73151D01*
X92486Y73486D01*
X92151Y73772D01*
X91775Y74003D01*
X91368Y74171D01*
X90939Y74274D01*
X90500Y74309D01*
X90496Y74308D01*
Y76692D01*
X90500Y76691D01*
X90939Y76726D01*
X91368Y76829D01*
X91775Y76997D01*
X92151Y77228D01*
X92486Y77514D01*
X92772Y77849D01*
X93003Y78225D01*
X93171Y78632D01*
X93274Y79061D01*
X93300Y79500D01*
X93274Y79939D01*
X93171Y80368D01*
X93003Y80775D01*
X92772Y81151D01*
X92486Y81486D01*
X92151Y81772D01*
X91775Y82003D01*
X91368Y82171D01*
X90939Y82274D01*
X90500Y82309D01*
X90496Y82308D01*
Y84692D01*
X90500Y84691D01*
X90939Y84726D01*
X91368Y84829D01*
X91775Y84997D01*
X92151Y85228D01*
X92486Y85514D01*
X92772Y85849D01*
X93003Y86225D01*
X93171Y86632D01*
X93274Y87061D01*
X93300Y87500D01*
X93274Y87939D01*
X93171Y88368D01*
X93003Y88775D01*
X92772Y89151D01*
X92486Y89486D01*
X92151Y89772D01*
X91775Y90003D01*
X91368Y90171D01*
X90939Y90274D01*
X90500Y90309D01*
X90496Y90308D01*
Y92692D01*
X90500Y92691D01*
X90939Y92726D01*
X91368Y92829D01*
X91775Y92997D01*
X92151Y93228D01*
X92486Y93514D01*
X92772Y93849D01*
X93003Y94225D01*
X93171Y94632D01*
X93274Y95061D01*
X93300Y95500D01*
X93274Y95939D01*
X93171Y96368D01*
X93003Y96775D01*
X92772Y97151D01*
X92486Y97486D01*
X92151Y97772D01*
X91775Y98003D01*
X91368Y98171D01*
X90939Y98274D01*
X90500Y98309D01*
X90496Y98308D01*
Y124500D01*
G37*
G36*
X64993D02*X90496D01*
Y98308D01*
X90061Y98274D01*
X89632Y98171D01*
X89225Y98003D01*
X88849Y97772D01*
X88514Y97486D01*
X88228Y97151D01*
X87997Y96775D01*
X87829Y96368D01*
X87726Y95939D01*
X87691Y95500D01*
X87726Y95061D01*
X87829Y94632D01*
X87997Y94225D01*
X88228Y93849D01*
X88514Y93514D01*
X88849Y93228D01*
X89225Y92997D01*
X89632Y92829D01*
X90061Y92726D01*
X90496Y92692D01*
Y90308D01*
X90061Y90274D01*
X89632Y90171D01*
X89225Y90003D01*
X88849Y89772D01*
X88514Y89486D01*
X88228Y89151D01*
X87997Y88775D01*
X87829Y88368D01*
X87726Y87939D01*
X87691Y87500D01*
X87726Y87061D01*
X87829Y86632D01*
X87997Y86225D01*
X88228Y85849D01*
X88514Y85514D01*
X88849Y85228D01*
X89225Y84997D01*
X89632Y84829D01*
X90061Y84726D01*
X90496Y84692D01*
Y82308D01*
X90061Y82274D01*
X89632Y82171D01*
X89225Y82003D01*
X88849Y81772D01*
X88514Y81486D01*
X88228Y81151D01*
X87997Y80775D01*
X87829Y80368D01*
X87726Y79939D01*
X87691Y79500D01*
X87726Y79061D01*
X87829Y78632D01*
X87997Y78225D01*
X88228Y77849D01*
X88514Y77514D01*
X88849Y77228D01*
X89225Y76997D01*
X89632Y76829D01*
X90061Y76726D01*
X90496Y76692D01*
Y74308D01*
X90061Y74274D01*
X89632Y74171D01*
X89225Y74003D01*
X88849Y73772D01*
X88514Y73486D01*
X88228Y73151D01*
X87997Y72775D01*
X87829Y72368D01*
X87726Y71939D01*
X87691Y71500D01*
X87726Y71061D01*
X87829Y70632D01*
X87997Y70225D01*
X88228Y69849D01*
X88514Y69514D01*
X88849Y69228D01*
X89225Y68997D01*
X89632Y68829D01*
X90061Y68726D01*
X90496Y68692D01*
Y66308D01*
X90061Y66274D01*
X89632Y66171D01*
X89225Y66003D01*
X88849Y65772D01*
X88514Y65486D01*
X88228Y65151D01*
X87997Y64775D01*
X87829Y64368D01*
X87726Y63939D01*
X87691Y63500D01*
X87726Y63061D01*
X87829Y62632D01*
X87997Y62225D01*
X88228Y61849D01*
X88514Y61514D01*
X88849Y61228D01*
X89225Y60997D01*
X89632Y60829D01*
X90061Y60726D01*
X90496Y60692D01*
Y58308D01*
X90061Y58274D01*
X89632Y58171D01*
X89225Y58003D01*
X88849Y57772D01*
X88514Y57486D01*
X88228Y57151D01*
X87997Y56775D01*
X87829Y56368D01*
X87726Y55939D01*
X87691Y55500D01*
X87726Y55061D01*
X87829Y54632D01*
X87997Y54225D01*
X88228Y53849D01*
X88514Y53514D01*
X88849Y53228D01*
X89225Y52997D01*
X89632Y52829D01*
X90061Y52726D01*
X90496Y52692D01*
Y50308D01*
X90061Y50274D01*
X89632Y50171D01*
X89225Y50003D01*
X88849Y49772D01*
X88514Y49486D01*
X88228Y49151D01*
X87997Y48775D01*
X87829Y48368D01*
X87726Y47939D01*
X87691Y47500D01*
X87726Y47061D01*
X87829Y46632D01*
X87997Y46225D01*
X88228Y45849D01*
X88514Y45514D01*
X88849Y45228D01*
X89225Y44997D01*
X89632Y44829D01*
X90061Y44726D01*
X90496Y44692D01*
Y42308D01*
X90061Y42274D01*
X89632Y42171D01*
X89225Y42003D01*
X88849Y41772D01*
X88514Y41486D01*
X88228Y41151D01*
X87997Y40775D01*
X87829Y40368D01*
X87726Y39939D01*
X87691Y39500D01*
X87726Y39061D01*
X87829Y38632D01*
X87997Y38225D01*
X88228Y37849D01*
X88514Y37514D01*
X88849Y37228D01*
X89225Y36997D01*
X89632Y36829D01*
X90061Y36726D01*
X90496Y36692D01*
Y34308D01*
X90061Y34274D01*
X89632Y34171D01*
X89225Y34003D01*
X88849Y33772D01*
X88514Y33486D01*
X88228Y33151D01*
X87997Y32775D01*
X87829Y32368D01*
X87726Y31939D01*
X87691Y31500D01*
X87726Y31061D01*
X87829Y30632D01*
X87997Y30225D01*
X88228Y29849D01*
X88514Y29514D01*
X88849Y29228D01*
X89225Y28997D01*
X89632Y28829D01*
X90061Y28726D01*
X90496Y28692D01*
Y26308D01*
X90061Y26274D01*
X89632Y26171D01*
X89225Y26003D01*
X88849Y25772D01*
X88514Y25486D01*
X88228Y25151D01*
X87997Y24775D01*
X87829Y24368D01*
X87726Y23939D01*
X87691Y23500D01*
X87726Y23061D01*
X87829Y22632D01*
X87997Y22225D01*
X88228Y21849D01*
X88514Y21514D01*
X88849Y21228D01*
X89225Y20997D01*
X89632Y20829D01*
X90061Y20726D01*
X90496Y20692D01*
Y0D01*
X64993D01*
Y14977D01*
X65000Y14976D01*
X65706Y15032D01*
X66395Y15197D01*
X67049Y15468D01*
X67653Y15838D01*
X68192Y16298D01*
X68652Y16837D01*
X69022Y17441D01*
X69293Y18095D01*
X69458Y18784D01*
X69500Y19490D01*
X69458Y20196D01*
X69293Y20885D01*
X69022Y21539D01*
X68652Y22143D01*
X68192Y22682D01*
X67653Y23142D01*
X67049Y23512D01*
X66395Y23783D01*
X65706Y23948D01*
X65000Y24004D01*
X64993Y24003D01*
Y24977D01*
X65000Y24976D01*
X65706Y25032D01*
X66395Y25197D01*
X67049Y25468D01*
X67653Y25838D01*
X68192Y26298D01*
X68652Y26837D01*
X69022Y27441D01*
X69293Y28095D01*
X69458Y28784D01*
X69500Y29490D01*
X69458Y30196D01*
X69293Y30885D01*
X69022Y31539D01*
X68652Y32143D01*
X68192Y32682D01*
X67653Y33142D01*
X67049Y33512D01*
X66395Y33783D01*
X65706Y33948D01*
X65000Y34004D01*
X64993Y34003D01*
Y34977D01*
X65000Y34976D01*
X65706Y35032D01*
X66395Y35197D01*
X67049Y35468D01*
X67653Y35838D01*
X68192Y36298D01*
X68652Y36837D01*
X69022Y37441D01*
X69293Y38095D01*
X69458Y38784D01*
X69500Y39490D01*
X69458Y40196D01*
X69293Y40885D01*
X69022Y41539D01*
X68652Y42143D01*
X68192Y42682D01*
X67653Y43142D01*
X67049Y43512D01*
X66395Y43783D01*
X65706Y43948D01*
X65000Y44004D01*
X64993Y44003D01*
Y44977D01*
X65000Y44976D01*
X65706Y45032D01*
X66395Y45197D01*
X67049Y45468D01*
X67653Y45838D01*
X68192Y46298D01*
X68652Y46837D01*
X69022Y47441D01*
X69293Y48095D01*
X69458Y48784D01*
X69500Y49490D01*
X69458Y50196D01*
X69293Y50885D01*
X69022Y51539D01*
X68652Y52143D01*
X68192Y52682D01*
X67653Y53142D01*
X67049Y53512D01*
X66395Y53783D01*
X65706Y53948D01*
X65000Y54004D01*
X64993Y54003D01*
Y54977D01*
X65000Y54976D01*
X65706Y55032D01*
X66395Y55197D01*
X67049Y55468D01*
X67653Y55838D01*
X68192Y56298D01*
X68652Y56837D01*
X69022Y57441D01*
X69293Y58095D01*
X69458Y58784D01*
X69500Y59490D01*
X69458Y60196D01*
X69293Y60885D01*
X69022Y61539D01*
X68652Y62143D01*
X68192Y62682D01*
X67653Y63142D01*
X67049Y63512D01*
X66395Y63783D01*
X65706Y63948D01*
X65000Y64004D01*
X64993Y64003D01*
Y64977D01*
X65000Y64976D01*
X65706Y65032D01*
X66395Y65197D01*
X67049Y65468D01*
X67653Y65838D01*
X68192Y66298D01*
X68652Y66837D01*
X69022Y67441D01*
X69293Y68095D01*
X69458Y68784D01*
X69500Y69490D01*
X69458Y70196D01*
X69293Y70885D01*
X69022Y71539D01*
X68652Y72143D01*
X68192Y72682D01*
X67653Y73142D01*
X67049Y73512D01*
X66395Y73783D01*
X65706Y73948D01*
X65000Y74004D01*
X64993Y74003D01*
Y74977D01*
X65000Y74976D01*
X65706Y75032D01*
X66395Y75197D01*
X67049Y75468D01*
X67653Y75838D01*
X68192Y76298D01*
X68652Y76837D01*
X69022Y77441D01*
X69293Y78095D01*
X69458Y78784D01*
X69500Y79490D01*
X69458Y80196D01*
X69293Y80885D01*
X69022Y81539D01*
X68652Y82143D01*
X68192Y82682D01*
X67653Y83142D01*
X67049Y83512D01*
X66395Y83783D01*
X65706Y83948D01*
X65000Y84004D01*
X64993Y84003D01*
Y84977D01*
X65000Y84976D01*
X65706Y85032D01*
X66395Y85197D01*
X67049Y85468D01*
X67653Y85838D01*
X68192Y86298D01*
X68652Y86837D01*
X69022Y87441D01*
X69293Y88095D01*
X69458Y88784D01*
X69500Y89490D01*
X69458Y90196D01*
X69293Y90885D01*
X69022Y91539D01*
X68652Y92143D01*
X68192Y92682D01*
X67653Y93142D01*
X67049Y93512D01*
X66395Y93783D01*
X65706Y93948D01*
X65000Y94004D01*
X64993Y94003D01*
Y94977D01*
X65000Y94976D01*
X65706Y95032D01*
X66395Y95197D01*
X67049Y95468D01*
X67653Y95838D01*
X68192Y96298D01*
X68652Y96837D01*
X69022Y97441D01*
X69293Y98095D01*
X69458Y98784D01*
X69500Y99490D01*
X69458Y100196D01*
X69293Y100885D01*
X69022Y101539D01*
X68652Y102143D01*
X68192Y102682D01*
X67653Y103142D01*
X67049Y103512D01*
X66395Y103783D01*
X65706Y103948D01*
X65000Y104004D01*
X64993Y104003D01*
Y104977D01*
X65000Y104976D01*
X65706Y105032D01*
X66395Y105197D01*
X67049Y105468D01*
X67653Y105838D01*
X68192Y106298D01*
X68652Y106837D01*
X69022Y107441D01*
X69293Y108095D01*
X69458Y108784D01*
X69500Y109490D01*
X69458Y110196D01*
X69293Y110885D01*
X69022Y111539D01*
X68652Y112143D01*
X68192Y112682D01*
X67653Y113142D01*
X67049Y113512D01*
X66395Y113783D01*
X65706Y113948D01*
X65000Y114004D01*
X64993Y114003D01*
Y124500D01*
G37*
G36*
X34993D02*X64993D01*
Y114003D01*
X64294Y113948D01*
X63605Y113783D01*
X62951Y113512D01*
X62347Y113142D01*
X61808Y112682D01*
X61348Y112143D01*
X60978Y111539D01*
X60707Y110885D01*
X60542Y110196D01*
X60486Y109490D01*
X60542Y108784D01*
X60707Y108095D01*
X60978Y107441D01*
X61348Y106837D01*
X61808Y106298D01*
X62347Y105838D01*
X62951Y105468D01*
X63605Y105197D01*
X64294Y105032D01*
X64993Y104977D01*
Y104003D01*
X64294Y103948D01*
X63605Y103783D01*
X62951Y103512D01*
X62347Y103142D01*
X61808Y102682D01*
X61348Y102143D01*
X60978Y101539D01*
X60707Y100885D01*
X60542Y100196D01*
X60486Y99490D01*
X60542Y98784D01*
X60707Y98095D01*
X60978Y97441D01*
X61348Y96837D01*
X61808Y96298D01*
X62347Y95838D01*
X62951Y95468D01*
X63605Y95197D01*
X64294Y95032D01*
X64993Y94977D01*
Y94003D01*
X64294Y93948D01*
X63605Y93783D01*
X62951Y93512D01*
X62347Y93142D01*
X61808Y92682D01*
X61348Y92143D01*
X60978Y91539D01*
X60707Y90885D01*
X60542Y90196D01*
X60486Y89490D01*
X60542Y88784D01*
X60707Y88095D01*
X60978Y87441D01*
X61348Y86837D01*
X61808Y86298D01*
X62347Y85838D01*
X62951Y85468D01*
X63605Y85197D01*
X64294Y85032D01*
X64993Y84977D01*
Y84003D01*
X64294Y83948D01*
X63605Y83783D01*
X62951Y83512D01*
X62347Y83142D01*
X61808Y82682D01*
X61348Y82143D01*
X60978Y81539D01*
X60707Y80885D01*
X60542Y80196D01*
X60486Y79490D01*
X60542Y78784D01*
X60707Y78095D01*
X60978Y77441D01*
X61348Y76837D01*
X61808Y76298D01*
X62347Y75838D01*
X62951Y75468D01*
X63605Y75197D01*
X64294Y75032D01*
X64993Y74977D01*
Y74003D01*
X64294Y73948D01*
X63605Y73783D01*
X62951Y73512D01*
X62347Y73142D01*
X61808Y72682D01*
X61348Y72143D01*
X60978Y71539D01*
X60707Y70885D01*
X60542Y70196D01*
X60486Y69490D01*
X60542Y68784D01*
X60707Y68095D01*
X60978Y67441D01*
X61348Y66837D01*
X61808Y66298D01*
X62347Y65838D01*
X62951Y65468D01*
X63605Y65197D01*
X64294Y65032D01*
X64993Y64977D01*
Y64003D01*
X64294Y63948D01*
X63605Y63783D01*
X62951Y63512D01*
X62347Y63142D01*
X61808Y62682D01*
X61348Y62143D01*
X60978Y61539D01*
X60707Y60885D01*
X60542Y60196D01*
X60486Y59490D01*
X60542Y58784D01*
X60707Y58095D01*
X60978Y57441D01*
X61348Y56837D01*
X61808Y56298D01*
X62347Y55838D01*
X62951Y55468D01*
X63605Y55197D01*
X64294Y55032D01*
X64993Y54977D01*
Y54003D01*
X64294Y53948D01*
X63605Y53783D01*
X62951Y53512D01*
X62347Y53142D01*
X61808Y52682D01*
X61348Y52143D01*
X60978Y51539D01*
X60707Y50885D01*
X60542Y50196D01*
X60486Y49490D01*
X60542Y48784D01*
X60707Y48095D01*
X60978Y47441D01*
X61348Y46837D01*
X61808Y46298D01*
X62347Y45838D01*
X62951Y45468D01*
X63605Y45197D01*
X64294Y45032D01*
X64993Y44977D01*
Y44003D01*
X64294Y43948D01*
X63605Y43783D01*
X62951Y43512D01*
X62347Y43142D01*
X61808Y42682D01*
X61348Y42143D01*
X60978Y41539D01*
X60707Y40885D01*
X60542Y40196D01*
X60486Y39490D01*
X60542Y38784D01*
X60707Y38095D01*
X60978Y37441D01*
X61348Y36837D01*
X61808Y36298D01*
X62347Y35838D01*
X62951Y35468D01*
X63605Y35197D01*
X64294Y35032D01*
X64993Y34977D01*
Y34003D01*
X64294Y33948D01*
X63605Y33783D01*
X62951Y33512D01*
X62347Y33142D01*
X61808Y32682D01*
X61348Y32143D01*
X60978Y31539D01*
X60707Y30885D01*
X60542Y30196D01*
X60486Y29490D01*
X60542Y28784D01*
X60707Y28095D01*
X60978Y27441D01*
X61348Y26837D01*
X61808Y26298D01*
X62347Y25838D01*
X62951Y25468D01*
X63605Y25197D01*
X64294Y25032D01*
X64993Y24977D01*
Y24003D01*
X64294Y23948D01*
X63605Y23783D01*
X62951Y23512D01*
X62347Y23142D01*
X61808Y22682D01*
X61348Y22143D01*
X60978Y21539D01*
X60707Y20885D01*
X60542Y20196D01*
X60486Y19490D01*
X60542Y18784D01*
X60707Y18095D01*
X60978Y17441D01*
X61348Y16837D01*
X61808Y16298D01*
X62347Y15838D01*
X62951Y15468D01*
X63605Y15197D01*
X64294Y15032D01*
X64993Y14977D01*
Y0D01*
X34993D01*
Y14977D01*
X35000Y14976D01*
X35706Y15032D01*
X36395Y15197D01*
X37049Y15468D01*
X37653Y15838D01*
X38192Y16298D01*
X38652Y16837D01*
X39022Y17441D01*
X39293Y18095D01*
X39458Y18784D01*
X39500Y19490D01*
X39458Y20196D01*
X39293Y20885D01*
X39022Y21539D01*
X38652Y22143D01*
X38192Y22682D01*
X37653Y23142D01*
X37049Y23512D01*
X36395Y23783D01*
X35706Y23948D01*
X35000Y24004D01*
X34993Y24003D01*
Y24977D01*
X35000Y24976D01*
X35706Y25032D01*
X36395Y25197D01*
X37049Y25468D01*
X37653Y25838D01*
X38192Y26298D01*
X38652Y26837D01*
X39022Y27441D01*
X39293Y28095D01*
X39458Y28784D01*
X39500Y29490D01*
X39458Y30196D01*
X39293Y30885D01*
X39022Y31539D01*
X38652Y32143D01*
X38192Y32682D01*
X37653Y33142D01*
X37049Y33512D01*
X36395Y33783D01*
X35706Y33948D01*
X35000Y34004D01*
X34993Y34003D01*
Y34977D01*
X35000Y34976D01*
X35706Y35032D01*
X36395Y35197D01*
X37049Y35468D01*
X37653Y35838D01*
X38192Y36298D01*
X38652Y36837D01*
X39022Y37441D01*
X39293Y38095D01*
X39458Y38784D01*
X39500Y39490D01*
X39458Y40196D01*
X39293Y40885D01*
X39022Y41539D01*
X38652Y42143D01*
X38192Y42682D01*
X37653Y43142D01*
X37049Y43512D01*
X36395Y43783D01*
X35706Y43948D01*
X35000Y44004D01*
X34993Y44003D01*
Y44977D01*
X35000Y44976D01*
X35706Y45032D01*
X36395Y45197D01*
X37049Y45468D01*
X37653Y45838D01*
X38192Y46298D01*
X38652Y46837D01*
X39022Y47441D01*
X39293Y48095D01*
X39458Y48784D01*
X39500Y49490D01*
X39458Y50196D01*
X39293Y50885D01*
X39022Y51539D01*
X38652Y52143D01*
X38192Y52682D01*
X37653Y53142D01*
X37049Y53512D01*
X36395Y53783D01*
X35706Y53948D01*
X35000Y54004D01*
X34993Y54003D01*
Y54977D01*
X35000Y54976D01*
X35706Y55032D01*
X36395Y55197D01*
X37049Y55468D01*
X37653Y55838D01*
X38192Y56298D01*
X38652Y56837D01*
X39022Y57441D01*
X39293Y58095D01*
X39458Y58784D01*
X39500Y59490D01*
X39458Y60196D01*
X39293Y60885D01*
X39022Y61539D01*
X38652Y62143D01*
X38192Y62682D01*
X37653Y63142D01*
X37049Y63512D01*
X36395Y63783D01*
X35706Y63948D01*
X35000Y64004D01*
X34993Y64003D01*
Y64977D01*
X35000Y64976D01*
X35706Y65032D01*
X36395Y65197D01*
X37049Y65468D01*
X37653Y65838D01*
X38192Y66298D01*
X38652Y66837D01*
X39022Y67441D01*
X39293Y68095D01*
X39458Y68784D01*
X39500Y69490D01*
X39458Y70196D01*
X39293Y70885D01*
X39022Y71539D01*
X38652Y72143D01*
X38192Y72682D01*
X37653Y73142D01*
X37049Y73512D01*
X36395Y73783D01*
X35706Y73948D01*
X35000Y74004D01*
X34993Y74003D01*
Y74977D01*
X35000Y74976D01*
X35706Y75032D01*
X36395Y75197D01*
X37049Y75468D01*
X37653Y75838D01*
X38192Y76298D01*
X38652Y76837D01*
X39022Y77441D01*
X39293Y78095D01*
X39458Y78784D01*
X39500Y79490D01*
X39458Y80196D01*
X39293Y80885D01*
X39022Y81539D01*
X38652Y82143D01*
X38192Y82682D01*
X37653Y83142D01*
X37049Y83512D01*
X36395Y83783D01*
X35706Y83948D01*
X35000Y84004D01*
X34993Y84003D01*
Y84977D01*
X35000Y84976D01*
X35706Y85032D01*
X36395Y85197D01*
X37049Y85468D01*
X37653Y85838D01*
X38192Y86298D01*
X38652Y86837D01*
X39022Y87441D01*
X39293Y88095D01*
X39458Y88784D01*
X39500Y89490D01*
X39458Y90196D01*
X39293Y90885D01*
X39022Y91539D01*
X38652Y92143D01*
X38192Y92682D01*
X37653Y93142D01*
X37049Y93512D01*
X36395Y93783D01*
X35706Y93948D01*
X35000Y94004D01*
X34993Y94003D01*
Y94977D01*
X35000Y94976D01*
X35706Y95032D01*
X36395Y95197D01*
X37049Y95468D01*
X37653Y95838D01*
X38192Y96298D01*
X38652Y96837D01*
X39022Y97441D01*
X39293Y98095D01*
X39458Y98784D01*
X39500Y99490D01*
X39458Y100196D01*
X39293Y100885D01*
X39022Y101539D01*
X38652Y102143D01*
X38192Y102682D01*
X37653Y103142D01*
X37049Y103512D01*
X36395Y103783D01*
X35706Y103948D01*
X35000Y104004D01*
X34993Y104003D01*
Y104997D01*
X38235Y105004D01*
X38465Y105059D01*
X38683Y105149D01*
X38884Y105273D01*
X39064Y105426D01*
X39217Y105606D01*
X39341Y105807D01*
X39431Y106025D01*
X39486Y106255D01*
X39500Y106490D01*
X39486Y112725D01*
X39431Y112955D01*
X39341Y113173D01*
X39217Y113374D01*
X39064Y113554D01*
X38884Y113707D01*
X38683Y113831D01*
X38465Y113921D01*
X38235Y113976D01*
X38000Y113990D01*
X34993Y113983D01*
Y124500D01*
G37*
G36*
X3996D02*X34993D01*
Y113983D01*
X31765Y113976D01*
X31535Y113921D01*
X31317Y113831D01*
X31116Y113707D01*
X30936Y113554D01*
X30783Y113374D01*
X30659Y113173D01*
X30569Y112955D01*
X30514Y112725D01*
X30500Y112490D01*
X30514Y106255D01*
X30569Y106025D01*
X30659Y105807D01*
X30783Y105606D01*
X30936Y105426D01*
X31116Y105273D01*
X31317Y105149D01*
X31535Y105059D01*
X31765Y105004D01*
X32000Y104990D01*
X34993Y104997D01*
Y104003D01*
X34294Y103948D01*
X33605Y103783D01*
X32951Y103512D01*
X32347Y103142D01*
X31808Y102682D01*
X31348Y102143D01*
X30978Y101539D01*
X30707Y100885D01*
X30542Y100196D01*
X30486Y99490D01*
X30542Y98784D01*
X30707Y98095D01*
X30978Y97441D01*
X31348Y96837D01*
X31808Y96298D01*
X32347Y95838D01*
X32951Y95468D01*
X33605Y95197D01*
X34294Y95032D01*
X34993Y94977D01*
Y94003D01*
X34294Y93948D01*
X33605Y93783D01*
X32951Y93512D01*
X32347Y93142D01*
X31808Y92682D01*
X31348Y92143D01*
X30978Y91539D01*
X30707Y90885D01*
X30542Y90196D01*
X30486Y89490D01*
X30542Y88784D01*
X30707Y88095D01*
X30978Y87441D01*
X31348Y86837D01*
X31808Y86298D01*
X32347Y85838D01*
X32951Y85468D01*
X33605Y85197D01*
X34294Y85032D01*
X34993Y84977D01*
Y84003D01*
X34294Y83948D01*
X33605Y83783D01*
X32951Y83512D01*
X32347Y83142D01*
X31808Y82682D01*
X31348Y82143D01*
X30978Y81539D01*
X30707Y80885D01*
X30542Y80196D01*
X30486Y79490D01*
X30542Y78784D01*
X30707Y78095D01*
X30978Y77441D01*
X31348Y76837D01*
X31808Y76298D01*
X32347Y75838D01*
X32951Y75468D01*
X33605Y75197D01*
X34294Y75032D01*
X34993Y74977D01*
Y74003D01*
X34294Y73948D01*
X33605Y73783D01*
X32951Y73512D01*
X32347Y73142D01*
X31808Y72682D01*
X31348Y72143D01*
X30978Y71539D01*
X30707Y70885D01*
X30542Y70196D01*
X30486Y69490D01*
X30542Y68784D01*
X30707Y68095D01*
X30978Y67441D01*
X31348Y66837D01*
X31808Y66298D01*
X32347Y65838D01*
X32951Y65468D01*
X33605Y65197D01*
X34294Y65032D01*
X34993Y64977D01*
Y64003D01*
X34294Y63948D01*
X33605Y63783D01*
X32951Y63512D01*
X32347Y63142D01*
X31808Y62682D01*
X31348Y62143D01*
X30978Y61539D01*
X30707Y60885D01*
X30542Y60196D01*
X30486Y59490D01*
X30542Y58784D01*
X30707Y58095D01*
X30978Y57441D01*
X31348Y56837D01*
X31808Y56298D01*
X32347Y55838D01*
X32951Y55468D01*
X33605Y55197D01*
X34294Y55032D01*
X34993Y54977D01*
Y54003D01*
X34294Y53948D01*
X33605Y53783D01*
X32951Y53512D01*
X32347Y53142D01*
X31808Y52682D01*
X31348Y52143D01*
X30978Y51539D01*
X30707Y50885D01*
X30542Y50196D01*
X30486Y49490D01*
X30542Y48784D01*
X30707Y48095D01*
X30978Y47441D01*
X31348Y46837D01*
X31808Y46298D01*
X32347Y45838D01*
X32951Y45468D01*
X33605Y45197D01*
X34294Y45032D01*
X34993Y44977D01*
Y44003D01*
X34294Y43948D01*
X33605Y43783D01*
X32951Y43512D01*
X32347Y43142D01*
X31808Y42682D01*
X31348Y42143D01*
X30978Y41539D01*
X30707Y40885D01*
X30542Y40196D01*
X30486Y39490D01*
X30542Y38784D01*
X30707Y38095D01*
X30978Y37441D01*
X31348Y36837D01*
X31808Y36298D01*
X32347Y35838D01*
X32951Y35468D01*
X33605Y35197D01*
X34294Y35032D01*
X34993Y34977D01*
Y34003D01*
X34294Y33948D01*
X33605Y33783D01*
X32951Y33512D01*
X32347Y33142D01*
X31808Y32682D01*
X31348Y32143D01*
X30978Y31539D01*
X30707Y30885D01*
X30542Y30196D01*
X30486Y29490D01*
X30542Y28784D01*
X30707Y28095D01*
X30978Y27441D01*
X31348Y26837D01*
X31808Y26298D01*
X32347Y25838D01*
X32951Y25468D01*
X33605Y25197D01*
X34294Y25032D01*
X34993Y24977D01*
Y24003D01*
X34294Y23948D01*
X33605Y23783D01*
X32951Y23512D01*
X32347Y23142D01*
X31808Y22682D01*
X31348Y22143D01*
X30978Y21539D01*
X30707Y20885D01*
X30542Y20196D01*
X30486Y19490D01*
X30542Y18784D01*
X30707Y18095D01*
X30978Y17441D01*
X31348Y16837D01*
X31808Y16298D01*
X32347Y15838D01*
X32951Y15468D01*
X33605Y15197D01*
X34294Y15032D01*
X34993Y14977D01*
Y0D01*
X3996D01*
Y20692D01*
X4000Y20691D01*
X4439Y20726D01*
X4868Y20829D01*
X5275Y20997D01*
X5651Y21228D01*
X5986Y21514D01*
X6272Y21849D01*
X6503Y22225D01*
X6671Y22632D01*
X6774Y23061D01*
X6800Y23500D01*
X6774Y23939D01*
X6671Y24368D01*
X6503Y24775D01*
X6272Y25151D01*
X5986Y25486D01*
X5651Y25772D01*
X5275Y26003D01*
X4868Y26171D01*
X4439Y26274D01*
X4000Y26309D01*
X3996Y26308D01*
Y28692D01*
X4000Y28691D01*
X4439Y28726D01*
X4868Y28829D01*
X5275Y28997D01*
X5651Y29228D01*
X5986Y29514D01*
X6272Y29849D01*
X6503Y30225D01*
X6671Y30632D01*
X6774Y31061D01*
X6800Y31500D01*
X6774Y31939D01*
X6671Y32368D01*
X6503Y32775D01*
X6272Y33151D01*
X5986Y33486D01*
X5651Y33772D01*
X5275Y34003D01*
X4868Y34171D01*
X4439Y34274D01*
X4000Y34309D01*
X3996Y34308D01*
Y36692D01*
X4000Y36691D01*
X4439Y36726D01*
X4868Y36829D01*
X5275Y36997D01*
X5651Y37228D01*
X5986Y37514D01*
X6272Y37849D01*
X6503Y38225D01*
X6671Y38632D01*
X6774Y39061D01*
X6800Y39500D01*
X6774Y39939D01*
X6671Y40368D01*
X6503Y40775D01*
X6272Y41151D01*
X5986Y41486D01*
X5651Y41772D01*
X5275Y42003D01*
X4868Y42171D01*
X4439Y42274D01*
X4000Y42309D01*
X3996Y42308D01*
Y44692D01*
X4000Y44691D01*
X4439Y44726D01*
X4868Y44829D01*
X5275Y44997D01*
X5651Y45228D01*
X5986Y45514D01*
X6272Y45849D01*
X6503Y46225D01*
X6671Y46632D01*
X6774Y47061D01*
X6800Y47500D01*
X6774Y47939D01*
X6671Y48368D01*
X6503Y48775D01*
X6272Y49151D01*
X5986Y49486D01*
X5651Y49772D01*
X5275Y50003D01*
X4868Y50171D01*
X4439Y50274D01*
X4000Y50309D01*
X3996Y50308D01*
Y52692D01*
X4000Y52691D01*
X4439Y52726D01*
X4868Y52829D01*
X5275Y52997D01*
X5651Y53228D01*
X5986Y53514D01*
X6272Y53849D01*
X6503Y54225D01*
X6671Y54632D01*
X6774Y55061D01*
X6800Y55500D01*
X6774Y55939D01*
X6671Y56368D01*
X6503Y56775D01*
X6272Y57151D01*
X5986Y57486D01*
X5651Y57772D01*
X5275Y58003D01*
X4868Y58171D01*
X4439Y58274D01*
X4000Y58309D01*
X3996Y58308D01*
Y60692D01*
X4000Y60691D01*
X4439Y60726D01*
X4868Y60829D01*
X5275Y60997D01*
X5651Y61228D01*
X5986Y61514D01*
X6272Y61849D01*
X6503Y62225D01*
X6671Y62632D01*
X6774Y63061D01*
X6800Y63500D01*
X6774Y63939D01*
X6671Y64368D01*
X6503Y64775D01*
X6272Y65151D01*
X5986Y65486D01*
X5651Y65772D01*
X5275Y66003D01*
X4868Y66171D01*
X4439Y66274D01*
X4000Y66309D01*
X3996Y66308D01*
Y68692D01*
X4000Y68691D01*
X4439Y68726D01*
X4868Y68829D01*
X5275Y68997D01*
X5651Y69228D01*
X5986Y69514D01*
X6272Y69849D01*
X6503Y70225D01*
X6671Y70632D01*
X6774Y71061D01*
X6800Y71500D01*
X6774Y71939D01*
X6671Y72368D01*
X6503Y72775D01*
X6272Y73151D01*
X5986Y73486D01*
X5651Y73772D01*
X5275Y74003D01*
X4868Y74171D01*
X4439Y74274D01*
X4000Y74309D01*
X3996Y74308D01*
Y76692D01*
X4000Y76691D01*
X4439Y76726D01*
X4868Y76829D01*
X5275Y76997D01*
X5651Y77228D01*
X5986Y77514D01*
X6272Y77849D01*
X6503Y78225D01*
X6671Y78632D01*
X6774Y79061D01*
X6800Y79500D01*
X6774Y79939D01*
X6671Y80368D01*
X6503Y80775D01*
X6272Y81151D01*
X5986Y81486D01*
X5651Y81772D01*
X5275Y82003D01*
X4868Y82171D01*
X4439Y82274D01*
X4000Y82309D01*
X3996Y82308D01*
Y84692D01*
X4000Y84691D01*
X4439Y84726D01*
X4868Y84829D01*
X5275Y84997D01*
X5651Y85228D01*
X5986Y85514D01*
X6272Y85849D01*
X6503Y86225D01*
X6671Y86632D01*
X6774Y87061D01*
X6800Y87500D01*
X6774Y87939D01*
X6671Y88368D01*
X6503Y88775D01*
X6272Y89151D01*
X5986Y89486D01*
X5651Y89772D01*
X5275Y90003D01*
X4868Y90171D01*
X4439Y90274D01*
X4000Y90309D01*
X3996Y90308D01*
Y92692D01*
X4000Y92691D01*
X4439Y92726D01*
X4868Y92829D01*
X5275Y92997D01*
X5651Y93228D01*
X5986Y93514D01*
X6272Y93849D01*
X6503Y94225D01*
X6671Y94632D01*
X6774Y95061D01*
X6800Y95500D01*
X6774Y95939D01*
X6671Y96368D01*
X6503Y96775D01*
X6272Y97151D01*
X5986Y97486D01*
X5651Y97772D01*
X5275Y98003D01*
X4868Y98171D01*
X4439Y98274D01*
X4000Y98309D01*
X3996Y98308D01*
Y124500D01*
G37*
G36*
X500D02*X3996D01*
Y98308D01*
X3561Y98274D01*
X3132Y98171D01*
X2725Y98003D01*
X2349Y97772D01*
X2014Y97486D01*
X1728Y97151D01*
X1497Y96775D01*
X1329Y96368D01*
X1226Y95939D01*
X1191Y95500D01*
X1226Y95061D01*
X1329Y94632D01*
X1497Y94225D01*
X1728Y93849D01*
X2014Y93514D01*
X2349Y93228D01*
X2725Y92997D01*
X3132Y92829D01*
X3561Y92726D01*
X3996Y92692D01*
Y90308D01*
X3561Y90274D01*
X3132Y90171D01*
X2725Y90003D01*
X2349Y89772D01*
X2014Y89486D01*
X1728Y89151D01*
X1497Y88775D01*
X1329Y88368D01*
X1226Y87939D01*
X1191Y87500D01*
X1226Y87061D01*
X1329Y86632D01*
X1497Y86225D01*
X1728Y85849D01*
X2014Y85514D01*
X2349Y85228D01*
X2725Y84997D01*
X3132Y84829D01*
X3561Y84726D01*
X3996Y84692D01*
Y82308D01*
X3561Y82274D01*
X3132Y82171D01*
X2725Y82003D01*
X2349Y81772D01*
X2014Y81486D01*
X1728Y81151D01*
X1497Y80775D01*
X1329Y80368D01*
X1226Y79939D01*
X1191Y79500D01*
X1226Y79061D01*
X1329Y78632D01*
X1497Y78225D01*
X1728Y77849D01*
X2014Y77514D01*
X2349Y77228D01*
X2725Y76997D01*
X3132Y76829D01*
X3561Y76726D01*
X3996Y76692D01*
Y74308D01*
X3561Y74274D01*
X3132Y74171D01*
X2725Y74003D01*
X2349Y73772D01*
X2014Y73486D01*
X1728Y73151D01*
X1497Y72775D01*
X1329Y72368D01*
X1226Y71939D01*
X1191Y71500D01*
X1226Y71061D01*
X1329Y70632D01*
X1497Y70225D01*
X1728Y69849D01*
X2014Y69514D01*
X2349Y69228D01*
X2725Y68997D01*
X3132Y68829D01*
X3561Y68726D01*
X3996Y68692D01*
Y66308D01*
X3561Y66274D01*
X3132Y66171D01*
X2725Y66003D01*
X2349Y65772D01*
X2014Y65486D01*
X1728Y65151D01*
X1497Y64775D01*
X1329Y64368D01*
X1226Y63939D01*
X1191Y63500D01*
X1226Y63061D01*
X1329Y62632D01*
X1497Y62225D01*
X1728Y61849D01*
X2014Y61514D01*
X2349Y61228D01*
X2725Y60997D01*
X3132Y60829D01*
X3561Y60726D01*
X3996Y60692D01*
Y58308D01*
X3561Y58274D01*
X3132Y58171D01*
X2725Y58003D01*
X2349Y57772D01*
X2014Y57486D01*
X1728Y57151D01*
X1497Y56775D01*
X1329Y56368D01*
X1226Y55939D01*
X1191Y55500D01*
X1226Y55061D01*
X1329Y54632D01*
X1497Y54225D01*
X1728Y53849D01*
X2014Y53514D01*
X2349Y53228D01*
X2725Y52997D01*
X3132Y52829D01*
X3561Y52726D01*
X3996Y52692D01*
Y50308D01*
X3561Y50274D01*
X3132Y50171D01*
X2725Y50003D01*
X2349Y49772D01*
X2014Y49486D01*
X1728Y49151D01*
X1497Y48775D01*
X1329Y48368D01*
X1226Y47939D01*
X1191Y47500D01*
X1226Y47061D01*
X1329Y46632D01*
X1497Y46225D01*
X1728Y45849D01*
X2014Y45514D01*
X2349Y45228D01*
X2725Y44997D01*
X3132Y44829D01*
X3561Y44726D01*
X3996Y44692D01*
Y42308D01*
X3561Y42274D01*
X3132Y42171D01*
X2725Y42003D01*
X2349Y41772D01*
X2014Y41486D01*
X1728Y41151D01*
X1497Y40775D01*
X1329Y40368D01*
X1226Y39939D01*
X1191Y39500D01*
X1226Y39061D01*
X1329Y38632D01*
X1497Y38225D01*
X1728Y37849D01*
X2014Y37514D01*
X2349Y37228D01*
X2725Y36997D01*
X3132Y36829D01*
X3561Y36726D01*
X3996Y36692D01*
Y34308D01*
X3561Y34274D01*
X3132Y34171D01*
X2725Y34003D01*
X2349Y33772D01*
X2014Y33486D01*
X1728Y33151D01*
X1497Y32775D01*
X1329Y32368D01*
X1226Y31939D01*
X1191Y31500D01*
X1226Y31061D01*
X1329Y30632D01*
X1497Y30225D01*
X1728Y29849D01*
X2014Y29514D01*
X2349Y29228D01*
X2725Y28997D01*
X3132Y28829D01*
X3561Y28726D01*
X3996Y28692D01*
Y26308D01*
X3561Y26274D01*
X3132Y26171D01*
X2725Y26003D01*
X2349Y25772D01*
X2014Y25486D01*
X1728Y25151D01*
X1497Y24775D01*
X1329Y24368D01*
X1226Y23939D01*
X1191Y23500D01*
X1226Y23061D01*
X1329Y22632D01*
X1497Y22225D01*
X1728Y21849D01*
X2014Y21514D01*
X2349Y21228D01*
X2725Y20997D01*
X3132Y20829D01*
X3561Y20726D01*
X3996Y20692D01*
Y0D01*
X500D01*
Y124500D01*
G37*
G54D40*X35000Y39490D03*
Y29490D03*
Y19490D03*
X65000D03*
Y29490D03*
Y39490D03*
Y49490D03*
Y59490D03*
Y69490D03*
Y79490D03*
Y89490D03*
Y99490D03*
Y109490D03*
X35000Y79490D03*
Y69490D03*
Y59490D03*
Y49490D03*
G54D39*G36*
X32000Y112490D02*Y106490D01*
X38000D01*
Y112490D01*
X32000D01*
G37*
G54D40*X35000Y99490D03*
Y89490D03*
G54D41*X4000Y63500D03*
Y55500D03*
Y47500D03*
Y31500D03*
Y39500D03*
Y95500D03*
Y87500D03*
Y71500D03*
Y79500D03*
Y23500D03*
X90500Y95500D03*
Y87500D03*
Y71500D03*
Y63500D03*
Y55500D03*
Y47500D03*
Y31500D03*
Y23500D03*
Y39500D03*
Y79500D03*
G54D42*G54D43*M02*
