G04 start of page 2 for group 0 idx 0 *
G04 Title: XBEE_dip, top *
G04 Creator: pcb 20110918 *
G04 CreationDate: Mon 04 Jun 2012 06:09:33 PM GMT UTC *
G04 For: ed *
G04 Format: Gerber/RS-274X *
G04 PCB-Dimensions: 100000 125000 *
G04 PCB-Coordinate-Origin: lower left *
%MOIN*%
%FSLAX25Y25*%
%LNTOP*%
%ADD38C,0.0280*%
%ADD37C,0.0200*%
%ADD36C,0.0360*%
%ADD35C,0.0600*%
%ADD34C,0.0100*%
%ADD33C,0.0001*%
G54D33*G36*
X76893Y124500D02*X100000D01*
Y0D01*
X76893D01*
Y17990D01*
X86431D01*
X86490Y17985D01*
X86725Y18004D01*
X86725Y18004D01*
X86955Y18059D01*
X87173Y18149D01*
X87374Y18273D01*
X87554Y18426D01*
X87592Y18471D01*
X89889Y20767D01*
X90061Y20726D01*
X90500Y20691D01*
X90939Y20726D01*
X91368Y20829D01*
X91775Y20997D01*
X92151Y21228D01*
X92486Y21514D01*
X92772Y21849D01*
X93003Y22225D01*
X93171Y22632D01*
X93274Y23061D01*
X93300Y23500D01*
X93274Y23939D01*
X93171Y24368D01*
X93003Y24775D01*
X92772Y25151D01*
X92486Y25486D01*
X92151Y25772D01*
X91775Y26003D01*
X91368Y26171D01*
X90939Y26274D01*
X90500Y26309D01*
X90061Y26274D01*
X89632Y26171D01*
X89225Y26003D01*
X88849Y25772D01*
X88514Y25486D01*
X88228Y25151D01*
X87997Y24775D01*
X87829Y24368D01*
X87726Y23939D01*
X87691Y23500D01*
X87726Y23061D01*
X87767Y22889D01*
X85869Y20990D01*
X76893D01*
Y30000D01*
X88135D01*
X88228Y29849D01*
X88514Y29514D01*
X88849Y29228D01*
X89225Y28997D01*
X89632Y28829D01*
X90061Y28726D01*
X90500Y28691D01*
X90939Y28726D01*
X91368Y28829D01*
X91775Y28997D01*
X92151Y29228D01*
X92486Y29514D01*
X92772Y29849D01*
X93003Y30225D01*
X93171Y30632D01*
X93274Y31061D01*
X93300Y31500D01*
X93274Y31939D01*
X93171Y32368D01*
X93003Y32775D01*
X92772Y33151D01*
X92486Y33486D01*
X92151Y33772D01*
X91775Y34003D01*
X91368Y34171D01*
X90939Y34274D01*
X90500Y34309D01*
X90061Y34274D01*
X89632Y34171D01*
X89225Y34003D01*
X88849Y33772D01*
X88514Y33486D01*
X88228Y33151D01*
X88135Y33000D01*
X76893D01*
Y37990D01*
X88141D01*
X88228Y37849D01*
X88514Y37514D01*
X88849Y37228D01*
X89225Y36997D01*
X89632Y36829D01*
X90061Y36726D01*
X90500Y36691D01*
X90939Y36726D01*
X91368Y36829D01*
X91775Y36997D01*
X92151Y37228D01*
X92486Y37514D01*
X92772Y37849D01*
X93003Y38225D01*
X93171Y38632D01*
X93274Y39061D01*
X93300Y39500D01*
X93274Y39939D01*
X93171Y40368D01*
X93003Y40775D01*
X92772Y41151D01*
X92486Y41486D01*
X92151Y41772D01*
X91775Y42003D01*
X91368Y42171D01*
X90939Y42274D01*
X90500Y42309D01*
X90061Y42274D01*
X89632Y42171D01*
X89225Y42003D01*
X88849Y41772D01*
X88514Y41486D01*
X88228Y41151D01*
X88129Y40990D01*
X76893D01*
Y46000D01*
X88135D01*
X88228Y45849D01*
X88514Y45514D01*
X88849Y45228D01*
X89225Y44997D01*
X89632Y44829D01*
X90061Y44726D01*
X90500Y44691D01*
X90939Y44726D01*
X91368Y44829D01*
X91775Y44997D01*
X92151Y45228D01*
X92486Y45514D01*
X92772Y45849D01*
X93003Y46225D01*
X93171Y46632D01*
X93274Y47061D01*
X93300Y47500D01*
X93274Y47939D01*
X93171Y48368D01*
X93003Y48775D01*
X92772Y49151D01*
X92486Y49486D01*
X92151Y49772D01*
X91775Y50003D01*
X91368Y50171D01*
X90939Y50274D01*
X90500Y50309D01*
X90061Y50274D01*
X89632Y50171D01*
X89225Y50003D01*
X88849Y49772D01*
X88514Y49486D01*
X88228Y49151D01*
X88135Y49000D01*
X76893D01*
Y57990D01*
X85889D01*
X87767Y56111D01*
X87726Y55939D01*
X87691Y55500D01*
X87726Y55061D01*
X87829Y54632D01*
X87997Y54225D01*
X88228Y53849D01*
X88514Y53514D01*
X88849Y53228D01*
X89225Y52997D01*
X89632Y52829D01*
X90061Y52726D01*
X90500Y52691D01*
X90939Y52726D01*
X91368Y52829D01*
X91775Y52997D01*
X92151Y53228D01*
X92486Y53514D01*
X92772Y53849D01*
X93003Y54225D01*
X93171Y54632D01*
X93274Y55061D01*
X93300Y55500D01*
X93274Y55939D01*
X93171Y56368D01*
X93003Y56775D01*
X92772Y57151D01*
X92486Y57486D01*
X92151Y57772D01*
X91775Y58003D01*
X91368Y58171D01*
X90939Y58274D01*
X90500Y58309D01*
X90061Y58274D01*
X89889Y58233D01*
X87612Y60509D01*
X87574Y60554D01*
X87394Y60707D01*
X87193Y60831D01*
X86975Y60921D01*
X86745Y60976D01*
X86510Y60995D01*
X86451Y60990D01*
X76893D01*
Y62000D01*
X88135D01*
X88228Y61849D01*
X88514Y61514D01*
X88849Y61228D01*
X89225Y60997D01*
X89632Y60829D01*
X90061Y60726D01*
X90500Y60691D01*
X90939Y60726D01*
X91368Y60829D01*
X91775Y60997D01*
X92151Y61228D01*
X92486Y61514D01*
X92772Y61849D01*
X93003Y62225D01*
X93171Y62632D01*
X93274Y63061D01*
X93300Y63500D01*
X93274Y63939D01*
X93171Y64368D01*
X93003Y64775D01*
X92772Y65151D01*
X92486Y65486D01*
X92151Y65772D01*
X91775Y66003D01*
X91368Y66171D01*
X90939Y66274D01*
X90500Y66309D01*
X90061Y66274D01*
X89632Y66171D01*
X89225Y66003D01*
X88849Y65772D01*
X88514Y65486D01*
X88228Y65151D01*
X88135Y65000D01*
X76893D01*
Y70500D01*
X87884D01*
X87997Y70225D01*
X88228Y69849D01*
X88514Y69514D01*
X88849Y69228D01*
X89225Y68997D01*
X89632Y68829D01*
X90061Y68726D01*
X90500Y68691D01*
X90939Y68726D01*
X91368Y68829D01*
X91775Y68997D01*
X92151Y69228D01*
X92486Y69514D01*
X92772Y69849D01*
X93003Y70225D01*
X93171Y70632D01*
X93274Y71061D01*
X93300Y71500D01*
X93274Y71939D01*
X93171Y72368D01*
X93003Y72775D01*
X92772Y73151D01*
X92486Y73486D01*
X92151Y73772D01*
X91775Y74003D01*
X91368Y74171D01*
X90939Y74274D01*
X90500Y74309D01*
X90061Y74274D01*
X89632Y74171D01*
X89225Y74003D01*
X88849Y73772D01*
X88530Y73500D01*
X76893D01*
Y78000D01*
X88135D01*
X88228Y77849D01*
X88514Y77514D01*
X88849Y77228D01*
X89225Y76997D01*
X89632Y76829D01*
X90061Y76726D01*
X90500Y76691D01*
X90939Y76726D01*
X91368Y76829D01*
X91775Y76997D01*
X92151Y77228D01*
X92486Y77514D01*
X92772Y77849D01*
X93003Y78225D01*
X93171Y78632D01*
X93274Y79061D01*
X93300Y79500D01*
X93274Y79939D01*
X93171Y80368D01*
X93003Y80775D01*
X92772Y81151D01*
X92486Y81486D01*
X92151Y81772D01*
X91775Y82003D01*
X91368Y82171D01*
X90939Y82274D01*
X90500Y82309D01*
X90061Y82274D01*
X89632Y82171D01*
X89225Y82003D01*
X88849Y81772D01*
X88514Y81486D01*
X88228Y81151D01*
X88135Y81000D01*
X76893D01*
Y92486D01*
X81398Y87981D01*
X81436Y87936D01*
X81616Y87783D01*
X81817Y87659D01*
X82035Y87569D01*
X82265Y87514D01*
X82500Y87495D01*
X82559Y87500D01*
X87691D01*
X87726Y87061D01*
X87829Y86632D01*
X87997Y86225D01*
X88228Y85849D01*
X88514Y85514D01*
X88849Y85228D01*
X89225Y84997D01*
X89632Y84829D01*
X90061Y84726D01*
X90500Y84691D01*
X90939Y84726D01*
X91368Y84829D01*
X91775Y84997D01*
X92151Y85228D01*
X92486Y85514D01*
X92772Y85849D01*
X93003Y86225D01*
X93171Y86632D01*
X93274Y87061D01*
X93300Y87500D01*
X93274Y87939D01*
X93171Y88368D01*
X93003Y88775D01*
X92772Y89151D01*
X92486Y89486D01*
X92151Y89772D01*
X91775Y90003D01*
X91368Y90171D01*
X90939Y90274D01*
X90500Y90309D01*
X90061Y90274D01*
X89867Y90228D01*
X89683Y90341D01*
X89465Y90431D01*
X89235Y90486D01*
X89000Y90505D01*
X88941Y90500D01*
X83121D01*
X76893Y96728D01*
Y103986D01*
X86398Y94481D01*
X86436Y94436D01*
X86616Y94283D01*
X86817Y94159D01*
X87035Y94069D01*
X87265Y94014D01*
X87500Y93995D01*
X87559Y94000D01*
X88135D01*
X88228Y93849D01*
X88514Y93514D01*
X88849Y93228D01*
X89225Y92997D01*
X89632Y92829D01*
X90061Y92726D01*
X90500Y92691D01*
X90939Y92726D01*
X91368Y92829D01*
X91775Y92997D01*
X92151Y93228D01*
X92486Y93514D01*
X92772Y93849D01*
X93003Y94225D01*
X93171Y94632D01*
X93274Y95061D01*
X93300Y95500D01*
X93274Y95939D01*
X93171Y96368D01*
X93003Y96775D01*
X92772Y97151D01*
X92486Y97486D01*
X92151Y97772D01*
X91775Y98003D01*
X91368Y98171D01*
X90939Y98274D01*
X90500Y98309D01*
X90061Y98274D01*
X89632Y98171D01*
X89225Y98003D01*
X88849Y97772D01*
X88514Y97486D01*
X88228Y97151D01*
X88135Y97000D01*
X88121D01*
X76893Y108228D01*
Y124500D01*
G37*
G36*
X20346D02*X76893D01*
Y108228D01*
X75102Y110019D01*
X75064Y110064D01*
X74884Y110217D01*
X74683Y110341D01*
X74465Y110431D01*
X74235Y110486D01*
X74000Y110505D01*
X73941Y110500D01*
X69385D01*
X69293Y110885D01*
X69022Y111539D01*
X68652Y112143D01*
X68192Y112682D01*
X67653Y113142D01*
X67049Y113512D01*
X66395Y113783D01*
X65706Y113948D01*
X65000Y114004D01*
X64294Y113948D01*
X63605Y113783D01*
X62951Y113512D01*
X62347Y113142D01*
X61808Y112682D01*
X61348Y112143D01*
X60978Y111539D01*
X60707Y110885D01*
X60542Y110196D01*
X60486Y109490D01*
X60542Y108784D01*
X60707Y108095D01*
X60978Y107441D01*
X61348Y106837D01*
X61808Y106298D01*
X62347Y105838D01*
X62951Y105468D01*
X63605Y105197D01*
X64294Y105032D01*
X65000Y104976D01*
X65706Y105032D01*
X66395Y105197D01*
X67049Y105468D01*
X67653Y105838D01*
X68192Y106298D01*
X68652Y106837D01*
X69022Y107441D01*
X69046Y107500D01*
X73379D01*
X76893Y103986D01*
Y96728D01*
X73112Y100509D01*
X73074Y100554D01*
X72894Y100707D01*
X72693Y100831D01*
X72475Y100921D01*
X72245Y100976D01*
X72010Y100995D01*
X71951Y100990D01*
X69249D01*
X69022Y101539D01*
X68652Y102143D01*
X68192Y102682D01*
X67653Y103142D01*
X67049Y103512D01*
X66395Y103783D01*
X65706Y103948D01*
X65000Y104004D01*
X64294Y103948D01*
X63605Y103783D01*
X62951Y103512D01*
X62347Y103142D01*
X61808Y102682D01*
X61348Y102143D01*
X60978Y101539D01*
X60707Y100885D01*
X60542Y100196D01*
X60486Y99490D01*
X60542Y98784D01*
X60707Y98095D01*
X60978Y97441D01*
X61348Y96837D01*
X61808Y96298D01*
X62347Y95838D01*
X62951Y95468D01*
X63605Y95197D01*
X64294Y95032D01*
X65000Y94976D01*
X65706Y95032D01*
X66395Y95197D01*
X67049Y95468D01*
X67653Y95838D01*
X68192Y96298D01*
X68652Y96837D01*
X69022Y97441D01*
X69249Y97990D01*
X71389D01*
X76893Y92486D01*
Y81000D01*
X75611D01*
X69065Y87546D01*
X69293Y88095D01*
X69458Y88784D01*
X69500Y89490D01*
X69458Y90196D01*
X69293Y90885D01*
X69022Y91539D01*
X68652Y92143D01*
X68192Y92682D01*
X67653Y93142D01*
X67049Y93512D01*
X66395Y93783D01*
X65706Y93948D01*
X65000Y94004D01*
X64294Y93948D01*
X63605Y93783D01*
X62951Y93512D01*
X62347Y93142D01*
X61808Y92682D01*
X61348Y92143D01*
X60978Y91539D01*
X60707Y90885D01*
X60542Y90196D01*
X60486Y89490D01*
X60542Y88784D01*
X60707Y88095D01*
X60978Y87441D01*
X61348Y86837D01*
X61808Y86298D01*
X62347Y85838D01*
X62951Y85468D01*
X63605Y85197D01*
X64294Y85032D01*
X65000Y84976D01*
X65706Y85032D01*
X66395Y85197D01*
X66944Y85425D01*
X73888Y78481D01*
X73926Y78436D01*
X74106Y78283D01*
X74307Y78159D01*
X74525Y78069D01*
X74755Y78014D01*
X74990Y77995D01*
X75049Y78000D01*
X76893D01*
Y73500D01*
X74121D01*
X69338Y78283D01*
X69458Y78784D01*
X69500Y79490D01*
X69458Y80196D01*
X69293Y80885D01*
X69022Y81539D01*
X68652Y82143D01*
X68192Y82682D01*
X67653Y83142D01*
X67049Y83512D01*
X66395Y83783D01*
X65706Y83948D01*
X65000Y84004D01*
X64294Y83948D01*
X63605Y83783D01*
X62951Y83512D01*
X62347Y83142D01*
X61808Y82682D01*
X61348Y82143D01*
X60978Y81539D01*
X60707Y80885D01*
X60542Y80196D01*
X60486Y79490D01*
X60542Y78784D01*
X60707Y78095D01*
X60978Y77441D01*
X61348Y76837D01*
X61808Y76298D01*
X62347Y75838D01*
X62951Y75468D01*
X63605Y75197D01*
X64294Y75032D01*
X65000Y74976D01*
X65706Y75032D01*
X66395Y75197D01*
X67049Y75468D01*
X67583Y75795D01*
X72398Y70981D01*
X72436Y70936D01*
X72616Y70783D01*
X72817Y70659D01*
X73035Y70569D01*
X73265Y70514D01*
X73500Y70495D01*
X73559Y70500D01*
X76893D01*
Y65000D01*
X71611D01*
X69065Y67546D01*
X69293Y68095D01*
X69458Y68784D01*
X69500Y69490D01*
X69458Y70196D01*
X69293Y70885D01*
X69022Y71539D01*
X68652Y72143D01*
X68192Y72682D01*
X67653Y73142D01*
X67049Y73512D01*
X66395Y73783D01*
X65706Y73948D01*
X65000Y74004D01*
X64294Y73948D01*
X63605Y73783D01*
X62951Y73512D01*
X62347Y73142D01*
X61808Y72682D01*
X61348Y72143D01*
X60978Y71539D01*
X60707Y70885D01*
X60542Y70196D01*
X60486Y69490D01*
X60542Y68784D01*
X60707Y68095D01*
X60978Y67441D01*
X61348Y66837D01*
X61808Y66298D01*
X62347Y65838D01*
X62951Y65468D01*
X63605Y65197D01*
X64294Y65032D01*
X65000Y64976D01*
X65706Y65032D01*
X66395Y65197D01*
X66944Y65425D01*
X69888Y62481D01*
X69926Y62436D01*
X70106Y62283D01*
X70307Y62159D01*
X70525Y62069D01*
X70755Y62014D01*
X70990Y61995D01*
X71049Y62000D01*
X76893D01*
Y60990D01*
X69249D01*
X69022Y61539D01*
X68652Y62143D01*
X68192Y62682D01*
X67653Y63142D01*
X67049Y63512D01*
X66395Y63783D01*
X65706Y63948D01*
X65000Y64004D01*
X64294Y63948D01*
X63605Y63783D01*
X62951Y63512D01*
X62347Y63142D01*
X61808Y62682D01*
X61348Y62143D01*
X60978Y61539D01*
X60707Y60885D01*
X60542Y60196D01*
X60486Y59490D01*
X60542Y58784D01*
X60707Y58095D01*
X60978Y57441D01*
X61348Y56837D01*
X61808Y56298D01*
X62347Y55838D01*
X62951Y55468D01*
X63605Y55197D01*
X64294Y55032D01*
X65000Y54976D01*
X65706Y55032D01*
X66395Y55197D01*
X67049Y55468D01*
X67653Y55838D01*
X68192Y56298D01*
X68652Y56837D01*
X69022Y57441D01*
X69249Y57990D01*
X76893D01*
Y49000D01*
X69471D01*
X69500Y49490D01*
X69458Y50196D01*
X69293Y50885D01*
X69022Y51539D01*
X68652Y52143D01*
X68192Y52682D01*
X67653Y53142D01*
X67049Y53512D01*
X66395Y53783D01*
X65706Y53948D01*
X65000Y54004D01*
X64294Y53948D01*
X63605Y53783D01*
X62951Y53512D01*
X62347Y53142D01*
X61808Y52682D01*
X61348Y52143D01*
X60978Y51539D01*
X60707Y50885D01*
X60542Y50196D01*
X60486Y49490D01*
X60542Y48784D01*
X60707Y48095D01*
X60978Y47441D01*
X61348Y46837D01*
X61808Y46298D01*
X62347Y45838D01*
X62951Y45468D01*
X63605Y45197D01*
X64294Y45032D01*
X65000Y44976D01*
X65706Y45032D01*
X66395Y45197D01*
X67049Y45468D01*
X67653Y45838D01*
X67843Y46000D01*
X76893D01*
Y40990D01*
X69249D01*
X69022Y41539D01*
X68652Y42143D01*
X68192Y42682D01*
X67653Y43142D01*
X67049Y43512D01*
X66395Y43783D01*
X65706Y43948D01*
X65000Y44004D01*
X64294Y43948D01*
X63605Y43783D01*
X62951Y43512D01*
X62347Y43142D01*
X61808Y42682D01*
X61348Y42143D01*
X60978Y41539D01*
X60707Y40885D01*
X60542Y40196D01*
X60486Y39490D01*
X60542Y38784D01*
X60707Y38095D01*
X60978Y37441D01*
X61348Y36837D01*
X61808Y36298D01*
X62347Y35838D01*
X62951Y35468D01*
X63605Y35197D01*
X64294Y35032D01*
X65000Y34976D01*
X65706Y35032D01*
X66395Y35197D01*
X67049Y35468D01*
X67653Y35838D01*
X68192Y36298D01*
X68652Y36837D01*
X69022Y37441D01*
X69249Y37990D01*
X76893D01*
Y33000D01*
X67819D01*
X67653Y33142D01*
X67049Y33512D01*
X66395Y33783D01*
X65706Y33948D01*
X65000Y34004D01*
X64294Y33948D01*
X63605Y33783D01*
X62951Y33512D01*
X62347Y33142D01*
X61808Y32682D01*
X61348Y32143D01*
X60978Y31539D01*
X60707Y30885D01*
X60542Y30196D01*
X60486Y29490D01*
X60542Y28784D01*
X60707Y28095D01*
X60978Y27441D01*
X61348Y26837D01*
X61808Y26298D01*
X62347Y25838D01*
X62951Y25468D01*
X63605Y25197D01*
X64294Y25032D01*
X65000Y24976D01*
X65706Y25032D01*
X66395Y25197D01*
X67049Y25468D01*
X67653Y25838D01*
X68192Y26298D01*
X68652Y26837D01*
X69022Y27441D01*
X69293Y28095D01*
X69458Y28784D01*
X69500Y29490D01*
X69470Y30000D01*
X76893D01*
Y20990D01*
X69249D01*
X69022Y21539D01*
X68652Y22143D01*
X68192Y22682D01*
X67653Y23142D01*
X67049Y23512D01*
X66395Y23783D01*
X65706Y23948D01*
X65000Y24004D01*
X64294Y23948D01*
X63605Y23783D01*
X62951Y23512D01*
X62347Y23142D01*
X61808Y22682D01*
X61348Y22143D01*
X60978Y21539D01*
X60707Y20885D01*
X60542Y20196D01*
X60486Y19490D01*
X60542Y18784D01*
X60707Y18095D01*
X60978Y17441D01*
X61348Y16837D01*
X61808Y16298D01*
X62347Y15838D01*
X62951Y15468D01*
X63605Y15197D01*
X64294Y15032D01*
X65000Y14976D01*
X65706Y15032D01*
X66395Y15197D01*
X67049Y15468D01*
X67653Y15838D01*
X68192Y16298D01*
X68652Y16837D01*
X69022Y17441D01*
X69249Y17990D01*
X76893D01*
Y0D01*
X20346D01*
Y22000D01*
X26369D01*
X29898Y18471D01*
X29936Y18426D01*
X30116Y18273D01*
X30317Y18149D01*
X30535Y18059D01*
X30743Y18009D01*
X30978Y17441D01*
X31348Y16837D01*
X31808Y16298D01*
X32347Y15838D01*
X32951Y15468D01*
X33605Y15197D01*
X34294Y15032D01*
X35000Y14976D01*
X35706Y15032D01*
X36395Y15197D01*
X37049Y15468D01*
X37653Y15838D01*
X38192Y16298D01*
X38652Y16837D01*
X39022Y17441D01*
X39293Y18095D01*
X39458Y18784D01*
X39500Y19490D01*
X39458Y20196D01*
X39293Y20885D01*
X39022Y21539D01*
X38652Y22143D01*
X38192Y22682D01*
X37653Y23142D01*
X37049Y23512D01*
X36395Y23783D01*
X35706Y23948D01*
X35000Y24004D01*
X34294Y23948D01*
X33605Y23783D01*
X32951Y23512D01*
X32347Y23142D01*
X31808Y22682D01*
X31348Y22143D01*
X31014Y21598D01*
X28092Y24519D01*
X28054Y24564D01*
X27874Y24717D01*
X27673Y24841D01*
X27455Y24931D01*
X27225Y24986D01*
X26990Y25005D01*
X26931Y25000D01*
X20346D01*
Y30000D01*
X28879D01*
X30408Y28471D01*
X30446Y28426D01*
X30626Y28273D01*
X30671Y28245D01*
X30707Y28095D01*
X30978Y27441D01*
X31348Y26837D01*
X31808Y26298D01*
X32347Y25838D01*
X32951Y25468D01*
X33605Y25197D01*
X34294Y25032D01*
X35000Y24976D01*
X35706Y25032D01*
X36395Y25197D01*
X37049Y25468D01*
X37653Y25838D01*
X38192Y26298D01*
X38652Y26837D01*
X39022Y27441D01*
X39293Y28095D01*
X39458Y28784D01*
X39500Y29490D01*
X39458Y30196D01*
X39293Y30885D01*
X39022Y31539D01*
X38652Y32143D01*
X38192Y32682D01*
X37653Y33142D01*
X37049Y33512D01*
X36395Y33783D01*
X35706Y33948D01*
X35000Y34004D01*
X34294Y33948D01*
X33605Y33783D01*
X32951Y33512D01*
X32347Y33142D01*
X31808Y32682D01*
X31348Y32143D01*
X31208Y31914D01*
X30561Y32561D01*
X30384Y32717D01*
X30183Y32841D01*
X29965Y32931D01*
X29735Y32986D01*
X29500Y33005D01*
X29265Y32986D01*
X29245Y32981D01*
X29225Y32986D01*
X28990Y33000D01*
X20346D01*
Y39490D01*
X28879D01*
X29898Y38471D01*
X29936Y38426D01*
X30116Y38273D01*
X30317Y38149D01*
X30535Y38059D01*
X30743Y38009D01*
X30978Y37441D01*
X31348Y36837D01*
X31808Y36298D01*
X32347Y35838D01*
X32951Y35468D01*
X33605Y35197D01*
X34294Y35032D01*
X35000Y34976D01*
X35706Y35032D01*
X36395Y35197D01*
X37049Y35468D01*
X37653Y35838D01*
X38192Y36298D01*
X38652Y36837D01*
X39022Y37441D01*
X39293Y38095D01*
X39458Y38784D01*
X39500Y39490D01*
X39458Y40196D01*
X39293Y40885D01*
X39022Y41539D01*
X38652Y42143D01*
X38192Y42682D01*
X37653Y43142D01*
X37049Y43512D01*
X36395Y43783D01*
X35706Y43948D01*
X35000Y44004D01*
X34294Y43948D01*
X33605Y43783D01*
X32951Y43512D01*
X32347Y43142D01*
X31808Y42682D01*
X31348Y42143D01*
X31014Y41598D01*
X30602Y42009D01*
X30564Y42054D01*
X30384Y42207D01*
X30183Y42331D01*
X29965Y42421D01*
X29735Y42476D01*
X29500Y42495D01*
X29441Y42490D01*
X20346D01*
Y49490D01*
X29379D01*
X30398Y48471D01*
X30436Y48426D01*
X30616Y48273D01*
X30673Y48238D01*
X30707Y48095D01*
X30978Y47441D01*
X31348Y46837D01*
X31808Y46298D01*
X32347Y45838D01*
X32951Y45468D01*
X33605Y45197D01*
X34294Y45032D01*
X35000Y44976D01*
X35706Y45032D01*
X36395Y45197D01*
X37049Y45468D01*
X37653Y45838D01*
X38192Y46298D01*
X38652Y46837D01*
X39022Y47441D01*
X39293Y48095D01*
X39458Y48784D01*
X39500Y49490D01*
X39458Y50196D01*
X39293Y50885D01*
X39022Y51539D01*
X38652Y52143D01*
X38192Y52682D01*
X37653Y53142D01*
X37049Y53512D01*
X36395Y53783D01*
X35706Y53948D01*
X35000Y54004D01*
X34294Y53948D01*
X33605Y53783D01*
X32951Y53512D01*
X32347Y53142D01*
X31808Y52682D01*
X31348Y52143D01*
X31204Y51908D01*
X31061Y52051D01*
X30884Y52207D01*
X30683Y52331D01*
X30465Y52421D01*
X30235Y52476D01*
X30000Y52495D01*
X29765Y52476D01*
X29750Y52473D01*
X29735Y52476D01*
X29500Y52490D01*
X20346D01*
Y59490D01*
X28379D01*
X29398Y58471D01*
X29436Y58426D01*
X29616Y58273D01*
X29817Y58149D01*
X30035Y58059D01*
X30265Y58004D01*
X30500Y57985D01*
X30559Y57990D01*
X30751D01*
X30978Y57441D01*
X31348Y56837D01*
X31808Y56298D01*
X32347Y55838D01*
X32951Y55468D01*
X33605Y55197D01*
X34294Y55032D01*
X35000Y54976D01*
X35706Y55032D01*
X36395Y55197D01*
X37049Y55468D01*
X37653Y55838D01*
X38192Y56298D01*
X38652Y56837D01*
X39022Y57441D01*
X39293Y58095D01*
X39458Y58784D01*
X39500Y59490D01*
X39458Y60196D01*
X39293Y60885D01*
X39022Y61539D01*
X38652Y62143D01*
X38192Y62682D01*
X37653Y63142D01*
X37049Y63512D01*
X36395Y63783D01*
X35706Y63948D01*
X35000Y64004D01*
X34294Y63948D01*
X33605Y63783D01*
X32951Y63512D01*
X32347Y63142D01*
X31808Y62682D01*
X31348Y62143D01*
X30978Y61539D01*
X30935Y61436D01*
X30931Y61455D01*
X30841Y61673D01*
X30717Y61874D01*
X30564Y62054D01*
X30384Y62207D01*
X30183Y62331D01*
X29965Y62421D01*
X29735Y62476D01*
X29500Y62490D01*
X29059D01*
X29000Y62495D01*
X28941Y62490D01*
X20346D01*
Y69490D01*
X29500D01*
X29735Y69504D01*
X29965Y69559D01*
X30183Y69649D01*
X30339Y69745D01*
X30506D01*
X30486Y69490D01*
X30542Y68784D01*
X30707Y68095D01*
X30978Y67441D01*
X31348Y66837D01*
X31808Y66298D01*
X32347Y65838D01*
X32951Y65468D01*
X33605Y65197D01*
X34294Y65032D01*
X35000Y64976D01*
X35706Y65032D01*
X36395Y65197D01*
X37049Y65468D01*
X37653Y65838D01*
X38192Y66298D01*
X38652Y66837D01*
X39022Y67441D01*
X39293Y68095D01*
X39458Y68784D01*
X39500Y69490D01*
X39458Y70196D01*
X39293Y70885D01*
X39022Y71539D01*
X38652Y72143D01*
X38192Y72682D01*
X37653Y73142D01*
X37049Y73512D01*
X36395Y73783D01*
X35706Y73948D01*
X35000Y74004D01*
X34294Y73948D01*
X33605Y73783D01*
X32951Y73512D01*
X32347Y73142D01*
X31882Y72745D01*
X29245D01*
X29010Y72731D01*
X28780Y72676D01*
X28562Y72586D01*
X28406Y72490D01*
X20346D01*
Y77990D01*
X30751D01*
X30978Y77441D01*
X31348Y76837D01*
X31808Y76298D01*
X32347Y75838D01*
X32951Y75468D01*
X33605Y75197D01*
X34294Y75032D01*
X35000Y74976D01*
X35706Y75032D01*
X36395Y75197D01*
X37049Y75468D01*
X37653Y75838D01*
X38192Y76298D01*
X38652Y76837D01*
X39022Y77441D01*
X39293Y78095D01*
X39458Y78784D01*
X39500Y79490D01*
X39458Y80196D01*
X39293Y80885D01*
X39022Y81539D01*
X38652Y82143D01*
X38192Y82682D01*
X37653Y83142D01*
X37049Y83512D01*
X36395Y83783D01*
X35706Y83948D01*
X35000Y84004D01*
X34294Y83948D01*
X33605Y83783D01*
X32951Y83512D01*
X32347Y83142D01*
X31808Y82682D01*
X31348Y82143D01*
X30978Y81539D01*
X30751Y80990D01*
X20346D01*
Y87990D01*
X30751D01*
X30978Y87441D01*
X31348Y86837D01*
X31808Y86298D01*
X32347Y85838D01*
X32951Y85468D01*
X33605Y85197D01*
X34294Y85032D01*
X35000Y84976D01*
X35706Y85032D01*
X36395Y85197D01*
X37049Y85468D01*
X37653Y85838D01*
X38192Y86298D01*
X38652Y86837D01*
X39022Y87441D01*
X39293Y88095D01*
X39458Y88784D01*
X39500Y89490D01*
X39458Y90196D01*
X39293Y90885D01*
X39022Y91539D01*
X38652Y92143D01*
X38192Y92682D01*
X37653Y93142D01*
X37049Y93512D01*
X36395Y93783D01*
X35706Y93948D01*
X35000Y94004D01*
X34294Y93948D01*
X33605Y93783D01*
X32951Y93512D01*
X32347Y93142D01*
X31808Y92682D01*
X31348Y92143D01*
X30978Y91539D01*
X30751Y90990D01*
X20346D01*
Y97990D01*
X30751D01*
X30978Y97441D01*
X31348Y96837D01*
X31808Y96298D01*
X32347Y95838D01*
X32951Y95468D01*
X33605Y95197D01*
X34294Y95032D01*
X35000Y94976D01*
X35706Y95032D01*
X36395Y95197D01*
X37049Y95468D01*
X37653Y95838D01*
X38192Y96298D01*
X38652Y96837D01*
X39022Y97441D01*
X39293Y98095D01*
X39458Y98784D01*
X39500Y99490D01*
X39458Y100196D01*
X39293Y100885D01*
X39022Y101539D01*
X38652Y102143D01*
X38192Y102682D01*
X37653Y103142D01*
X37049Y103512D01*
X36395Y103783D01*
X35706Y103948D01*
X35000Y104004D01*
X34294Y103948D01*
X33605Y103783D01*
X32951Y103512D01*
X32347Y103142D01*
X31808Y102682D01*
X31348Y102143D01*
X30978Y101539D01*
X30751Y100990D01*
X20346D01*
Y108000D01*
X27324D01*
X27510Y107985D01*
X27569Y107990D01*
X30510D01*
X30514Y106255D01*
X30569Y106025D01*
X30659Y105807D01*
X30783Y105606D01*
X30936Y105426D01*
X31116Y105273D01*
X31317Y105149D01*
X31535Y105059D01*
X31765Y105004D01*
X32000Y104990D01*
X38235Y105004D01*
X38465Y105059D01*
X38683Y105149D01*
X38884Y105273D01*
X39064Y105426D01*
X39217Y105606D01*
X39341Y105807D01*
X39431Y106025D01*
X39486Y106255D01*
X39500Y106490D01*
X39486Y112725D01*
X39431Y112955D01*
X39341Y113173D01*
X39217Y113374D01*
X39064Y113554D01*
X38884Y113707D01*
X38683Y113831D01*
X38465Y113921D01*
X38235Y113976D01*
X38000Y113990D01*
X31765Y113976D01*
X31535Y113921D01*
X31317Y113831D01*
X31116Y113707D01*
X30936Y113554D01*
X30783Y113374D01*
X30659Y113173D01*
X30569Y112955D01*
X30514Y112725D01*
X30500Y112490D01*
X30503Y110990D01*
X28179D01*
X28010Y111000D01*
X27559D01*
X27500Y111005D01*
X27441Y111000D01*
X20346D01*
Y124500D01*
G37*
G36*
X0D02*X20346D01*
Y111000D01*
X11059D01*
X11000Y111005D01*
X10765Y110986D01*
X10535Y110931D01*
X10317Y110841D01*
X10116Y110717D01*
X10115Y110717D01*
X9936Y110564D01*
X9898Y110519D01*
X2981Y103602D01*
X2936Y103564D01*
X2783Y103384D01*
X2659Y103183D01*
X2569Y102965D01*
X2514Y102735D01*
X2514Y102735D01*
X2495Y102500D01*
X2500Y102441D01*
Y97865D01*
X2349Y97772D01*
X2014Y97486D01*
X1728Y97151D01*
X1497Y96775D01*
X1329Y96368D01*
X1226Y95939D01*
X1191Y95500D01*
X1226Y95061D01*
X1329Y94632D01*
X1497Y94225D01*
X1728Y93849D01*
X2014Y93514D01*
X2349Y93228D01*
X2725Y92997D01*
X3132Y92829D01*
X3561Y92726D01*
X4000Y92691D01*
X4439Y92726D01*
X4868Y92829D01*
X5275Y92997D01*
X5651Y93228D01*
X5986Y93514D01*
X6272Y93849D01*
X6503Y94225D01*
X6671Y94632D01*
X6774Y95061D01*
X6800Y95500D01*
X6774Y95939D01*
X6671Y96368D01*
X6503Y96775D01*
X6272Y97151D01*
X5986Y97486D01*
X5651Y97772D01*
X5500Y97865D01*
Y101879D01*
X11621Y108000D01*
X20346D01*
Y100990D01*
X18588D01*
X18448Y101076D01*
X18230Y101166D01*
X18000Y101221D01*
X17765Y101240D01*
X17529Y101221D01*
X17300Y101166D01*
X17082Y101076D01*
X16880Y100953D01*
X16701Y100799D01*
X16642Y100730D01*
X16503Y100621D01*
X4773Y90194D01*
X4439Y90274D01*
X4000Y90309D01*
X3561Y90274D01*
X3132Y90171D01*
X2725Y90003D01*
X2349Y89772D01*
X2014Y89486D01*
X1728Y89151D01*
X1497Y88775D01*
X1329Y88368D01*
X1226Y87939D01*
X1191Y87500D01*
X1226Y87061D01*
X1329Y86632D01*
X1497Y86225D01*
X1728Y85849D01*
X2014Y85514D01*
X2349Y85228D01*
X2725Y84997D01*
X3132Y84829D01*
X3561Y84726D01*
X4000Y84691D01*
X4439Y84726D01*
X4868Y84829D01*
X5275Y84997D01*
X5651Y85228D01*
X5986Y85514D01*
X6272Y85849D01*
X6503Y86225D01*
X6671Y86632D01*
X6774Y87061D01*
X6800Y87500D01*
X6774Y87939D01*
X6770Y87955D01*
X18058Y97989D01*
X18069Y97990D01*
X20346D01*
Y90990D01*
X14186D01*
X14000Y91005D01*
X13765Y90986D01*
X13535Y90931D01*
X13317Y90841D01*
X13116Y90717D01*
X13073Y90680D01*
X12926Y90554D01*
X12888Y90509D01*
X4611Y82233D01*
X4439Y82274D01*
X4000Y82309D01*
X3561Y82274D01*
X3132Y82171D01*
X2725Y82003D01*
X2349Y81772D01*
X2014Y81486D01*
X1728Y81151D01*
X1497Y80775D01*
X1329Y80368D01*
X1226Y79939D01*
X1191Y79500D01*
X1226Y79061D01*
X1329Y78632D01*
X1497Y78225D01*
X1728Y77849D01*
X2014Y77514D01*
X2349Y77228D01*
X2725Y76997D01*
X3132Y76829D01*
X3561Y76726D01*
X4000Y76691D01*
X4439Y76726D01*
X4868Y76829D01*
X5275Y76997D01*
X5651Y77228D01*
X5986Y77514D01*
X6272Y77849D01*
X6503Y78225D01*
X6671Y78632D01*
X6774Y79061D01*
X6800Y79500D01*
X6774Y79939D01*
X6733Y80111D01*
X14611Y87990D01*
X20346D01*
Y80990D01*
X12049D01*
X11990Y80995D01*
X11755Y80976D01*
X11525Y80921D01*
X11307Y80831D01*
X11106Y80707D01*
X11105Y80707D01*
X10926Y80554D01*
X10888Y80509D01*
X4611Y74233D01*
X4439Y74274D01*
X4000Y74309D01*
X3561Y74274D01*
X3132Y74171D01*
X2725Y74003D01*
X2349Y73772D01*
X2014Y73486D01*
X1728Y73151D01*
X1497Y72775D01*
X1329Y72368D01*
X1226Y71939D01*
X1191Y71500D01*
X1226Y71061D01*
X1329Y70632D01*
X1497Y70225D01*
X1728Y69849D01*
X2014Y69514D01*
X2349Y69228D01*
X2725Y68997D01*
X3132Y68829D01*
X3561Y68726D01*
X4000Y68691D01*
X4439Y68726D01*
X4868Y68829D01*
X5275Y68997D01*
X5651Y69228D01*
X5986Y69514D01*
X6272Y69849D01*
X6503Y70225D01*
X6671Y70632D01*
X6774Y71061D01*
X6800Y71500D01*
X6774Y71939D01*
X6733Y72111D01*
X12611Y77990D01*
X20346D01*
Y72490D01*
X11549D01*
X11490Y72495D01*
X11255Y72476D01*
X11025Y72421D01*
X10807Y72331D01*
X10606Y72207D01*
X10605Y72207D01*
X10426Y72054D01*
X10388Y72009D01*
X4611Y66233D01*
X4439Y66274D01*
X4000Y66309D01*
X3561Y66274D01*
X3132Y66171D01*
X2725Y66003D01*
X2349Y65772D01*
X2014Y65486D01*
X1728Y65151D01*
X1497Y64775D01*
X1329Y64368D01*
X1226Y63939D01*
X1191Y63500D01*
X1226Y63061D01*
X1329Y62632D01*
X1497Y62225D01*
X1728Y61849D01*
X2014Y61514D01*
X2349Y61228D01*
X2725Y60997D01*
X3132Y60829D01*
X3561Y60726D01*
X4000Y60691D01*
X4439Y60726D01*
X4868Y60829D01*
X5275Y60997D01*
X5651Y61228D01*
X5986Y61514D01*
X6272Y61849D01*
X6503Y62225D01*
X6671Y62632D01*
X6774Y63061D01*
X6800Y63500D01*
X6774Y63939D01*
X6733Y64111D01*
X12111Y69490D01*
X20346D01*
Y62490D01*
X9549D01*
X9490Y62495D01*
X9255Y62476D01*
X9025Y62421D01*
X8807Y62331D01*
X8606Y62207D01*
X8605Y62207D01*
X8426Y62054D01*
X8388Y62009D01*
X4611Y58233D01*
X4439Y58274D01*
X4000Y58309D01*
X3561Y58274D01*
X3132Y58171D01*
X2725Y58003D01*
X2349Y57772D01*
X2014Y57486D01*
X1728Y57151D01*
X1497Y56775D01*
X1329Y56368D01*
X1226Y55939D01*
X1191Y55500D01*
X1226Y55061D01*
X1329Y54632D01*
X1497Y54225D01*
X1728Y53849D01*
X2014Y53514D01*
X2349Y53228D01*
X2725Y52997D01*
X3132Y52829D01*
X3561Y52726D01*
X4000Y52691D01*
X4439Y52726D01*
X4868Y52829D01*
X5275Y52997D01*
X5651Y53228D01*
X5986Y53514D01*
X6272Y53849D01*
X6503Y54225D01*
X6671Y54632D01*
X6774Y55061D01*
X6800Y55500D01*
X6774Y55939D01*
X6733Y56111D01*
X10111Y59490D01*
X20346D01*
Y52490D01*
X7549D01*
X7490Y52495D01*
X7255Y52476D01*
X7025Y52421D01*
X6807Y52331D01*
X6606Y52207D01*
X6605Y52207D01*
X6426Y52054D01*
X6388Y52009D01*
X4611Y50233D01*
X4439Y50274D01*
X4000Y50309D01*
X3561Y50274D01*
X3132Y50171D01*
X2725Y50003D01*
X2349Y49772D01*
X2014Y49486D01*
X1728Y49151D01*
X1497Y48775D01*
X1329Y48368D01*
X1226Y47939D01*
X1191Y47500D01*
X1226Y47061D01*
X1329Y46632D01*
X1497Y46225D01*
X1728Y45849D01*
X2014Y45514D01*
X2349Y45228D01*
X2725Y44997D01*
X3132Y44829D01*
X3561Y44726D01*
X4000Y44691D01*
X4439Y44726D01*
X4868Y44829D01*
X5275Y44997D01*
X5651Y45228D01*
X5986Y45514D01*
X6272Y45849D01*
X6503Y46225D01*
X6671Y46632D01*
X6774Y47061D01*
X6800Y47500D01*
X6774Y47939D01*
X6733Y48111D01*
X8111Y49490D01*
X20346D01*
Y42490D01*
X5549D01*
X5490Y42495D01*
X5255Y42476D01*
X5025Y42421D01*
X4807Y42331D01*
X4637Y42227D01*
X4439Y42274D01*
X4000Y42309D01*
X3561Y42274D01*
X3132Y42171D01*
X2725Y42003D01*
X2349Y41772D01*
X2014Y41486D01*
X1728Y41151D01*
X1497Y40775D01*
X1329Y40368D01*
X1226Y39939D01*
X1191Y39500D01*
X1226Y39061D01*
X1329Y38632D01*
X1497Y38225D01*
X1728Y37849D01*
X2014Y37514D01*
X2349Y37228D01*
X2725Y36997D01*
X3132Y36829D01*
X3561Y36726D01*
X4000Y36691D01*
X4439Y36726D01*
X4868Y36829D01*
X5275Y36997D01*
X5651Y37228D01*
X5986Y37514D01*
X6272Y37849D01*
X6503Y38225D01*
X6671Y38632D01*
X6774Y39061D01*
X6799Y39490D01*
X20346D01*
Y33000D01*
X6365D01*
X6272Y33151D01*
X5986Y33486D01*
X5651Y33772D01*
X5275Y34003D01*
X4868Y34171D01*
X4439Y34274D01*
X4000Y34309D01*
X3561Y34274D01*
X3132Y34171D01*
X2725Y34003D01*
X2349Y33772D01*
X2014Y33486D01*
X1728Y33151D01*
X1497Y32775D01*
X1329Y32368D01*
X1226Y31939D01*
X1191Y31500D01*
X1226Y31061D01*
X1329Y30632D01*
X1497Y30225D01*
X1728Y29849D01*
X2014Y29514D01*
X2349Y29228D01*
X2725Y28997D01*
X3132Y28829D01*
X3561Y28726D01*
X4000Y28691D01*
X4439Y28726D01*
X4868Y28829D01*
X5275Y28997D01*
X5651Y29228D01*
X5986Y29514D01*
X6272Y29849D01*
X6365Y30000D01*
X20346D01*
Y25000D01*
X6365D01*
X6272Y25151D01*
X5986Y25486D01*
X5651Y25772D01*
X5275Y26003D01*
X4868Y26171D01*
X4439Y26274D01*
X4000Y26309D01*
X3561Y26274D01*
X3132Y26171D01*
X2725Y26003D01*
X2349Y25772D01*
X2014Y25486D01*
X1728Y25151D01*
X1497Y24775D01*
X1329Y24368D01*
X1226Y23939D01*
X1191Y23500D01*
X1226Y23061D01*
X1329Y22632D01*
X1497Y22225D01*
X1728Y21849D01*
X2014Y21514D01*
X2349Y21228D01*
X2725Y20997D01*
X3132Y20829D01*
X3561Y20726D01*
X4000Y20691D01*
X4439Y20726D01*
X4868Y20829D01*
X5275Y20997D01*
X5651Y21228D01*
X5986Y21514D01*
X6272Y21849D01*
X6365Y22000D01*
X20346D01*
Y0D01*
X0D01*
Y124500D01*
G37*
G54D34*X4000Y23500D02*X26990D01*
X4000Y31500D02*X28990D01*
X29500Y40990D02*X5490D01*
X4000Y39500D01*
X35000Y19490D02*X31000D01*
X26990Y23500D02*X31000Y19490D01*
X35000Y29490D02*X31510D01*
X29500Y31500D01*
X35000Y39490D02*X31000D01*
X29500Y40990D01*
X35000Y49490D02*X31500D01*
X30000Y50990D01*
X35000Y59490D02*X30500D01*
X29000Y60990D01*
X29500Y70990D02*X11490D01*
X29500Y60990D02*X9490D01*
X29500Y50990D02*X7490D01*
X11490Y70990D02*X4000Y63500D01*
X9490Y60990D02*X4000Y55500D01*
X7490Y50990D02*X4000Y47500D01*
X11990Y79490D02*X4000Y71500D01*
X35000Y79490D02*X31000D01*
X31490D02*X11990D01*
X29245Y71245D02*X33245D01*
X35000Y69490D01*
X4000Y95500D02*Y102500D01*
X11000Y109500D01*
X28010D01*
X23000Y99490D02*X18010D01*
X17765Y99735D01*
X35000Y109490D02*X27510D01*
X27500Y109500D01*
X14000Y89500D02*X4000Y79500D01*
X17500Y99500D02*X4000Y87500D01*
X35000Y89490D02*X13990D01*
X13750Y89250D01*
X35000Y99490D02*X22990D01*
X90500Y95500D02*X87500D01*
X74000Y109000D01*
X82500Y89000D02*X89000D01*
X74000Y109000D02*X65490D01*
X65000Y109490D01*
Y99490D02*X72010D01*
X82500Y89000D01*
X89000D02*X90500Y87500D01*
Y79500D02*X74990D01*
X73500Y72000D02*X90000D01*
X90500Y71500D01*
X74990Y79500D02*X65000Y89490D01*
X66010Y79490D02*X73500Y72000D01*
X70990Y63500D02*X65000Y69490D01*
Y79490D02*X66010D01*
X90500Y63500D02*X70990D01*
X65000Y59490D02*X86510D01*
X90500Y55500D01*
Y47500D02*X66990D01*
X65000Y49490D01*
Y39490D02*X90490D01*
X90500Y31500D02*X67010D01*
X65000Y29490D01*
Y19490D02*X86490D01*
X90500Y23500D01*
X90490Y39490D02*X90500Y39500D01*
G54D35*X35000Y39490D03*
Y29490D03*
Y19490D03*
X65000D03*
Y29490D03*
Y39490D03*
Y49490D03*
Y59490D03*
Y69490D03*
Y79490D03*
Y89490D03*
Y99490D03*
Y109490D03*
X35000Y79490D03*
Y69490D03*
Y59490D03*
Y49490D03*
G54D33*G36*
X32000Y112490D02*Y106490D01*
X38000D01*
Y112490D01*
X32000D01*
G37*
G54D35*X35000Y99490D03*
Y89490D03*
G54D36*X4000Y63500D03*
Y55500D03*
Y47500D03*
Y31500D03*
Y39500D03*
Y95500D03*
Y87500D03*
Y71500D03*
Y79500D03*
Y23500D03*
X90500Y95500D03*
Y87500D03*
Y71500D03*
Y63500D03*
Y55500D03*
Y47500D03*
Y31500D03*
Y23500D03*
Y39500D03*
Y79500D03*
G54D37*G54D38*M02*
